<svg width="15" height="17" viewBox="0 0 15 17" fill="none" xmlns="http://www.w3.org/2000/svg">
<path d="M0.378471 16.1305C0.126145 16.0045 0 15.6895 0 15.3745C0 15.3114 0 15.1854 0 15.1224C0 10.46 0 5.79749 0 1.19803C0 0.946003 0.0630725 0.757009 0.126145 0.504979C0.189254 0.378946 0.315398 0.25295 0.44158 0.126953C3.15402 2.83621 5.80339 5.54546 8.45275 8.25475C5.74031 10.775 3.09095 13.4213 0.378471 16.1305Z" fill="#1A1A1A"/>
<path d="M11.1024 5.48154C10.3455 6.23763 9.52542 6.99368 8.76848 7.81277C6.24526 5.22951 3.65896 2.64626 1.13574 0.0629983C1.13574 0.0629983 1.13574 0 1.19881 0C4.47901 1.82717 7.75918 3.65437 11.1024 5.48154Z" fill="#1A1A1A"/>
<path d="M1.13574 16.1291C3.65896 13.6088 6.24526 11.0886 8.76848 8.56836C9.46235 9.26141 10.2193 9.9545 11.0394 10.7106C7.75918 12.5378 4.47901 14.3649 1.19881 16.1291H1.13574Z" fill="#1A1A1A"/>
<path d="M11.481 10.4579C10.661 9.70182 9.90403 8.94573 9.08398 8.18968C9.90403 7.3706 10.7241 6.55151 11.5441 5.73242C11.7964 5.85842 12.0487 5.98445 12.3011 6.17345C12.9319 6.55151 13.6258 6.86654 14.2566 7.24456C14.4458 7.30756 14.572 7.43359 14.6981 7.62259C14.9504 7.93762 14.9504 8.25268 14.6981 8.56771C14.572 8.6937 14.4458 8.81974 14.2566 8.88274C13.3735 9.44979 12.4273 9.95385 11.481 10.4579Z" fill="#1A1A1A"/>
</svg>
