<svg width="current" height="current" viewBox="0 0 186 80" fill="none" xmlns="http://www.w3.org/2000/svg">
<g clip-path="url(#clip0_234_6323)">
<path d="M53.6165 33.7106L51.1251 32.2859C50.8911 32.1705 50.6327 32.1104 50.3706 32.1104C50.1086 32.1104 49.8502 32.1705 49.6162 32.2859L47.1248 33.7089C46.5917 34.0175 46.5816 34.5214 47.1248 34.8218L49.6162 36.2628C49.8486 36.3836 50.1076 36.4467 50.3706 36.4467C50.6337 36.4467 50.8927 36.3836 51.1251 36.2628L53.6165 34.8218C53.7677 34.7713 53.8924 34.6642 53.9631 34.5239C54.0339 34.3836 54.0448 34.2215 53.9937 34.0733C53.9641 33.9881 53.9145 33.9107 53.8491 33.8475C53.7836 33.7842 53.7039 33.7368 53.6165 33.7089" fill="#4231C8"/>
<path d="M63.3337 31.9483L51.2943 25.1746C51.0603 25.0592 50.8019 24.999 50.5399 24.999C50.2778 24.999 50.0194 25.0592 49.7854 25.1746L37.7511 31.9483C37.5334 32.09 37.3523 32.2793 37.222 32.5011C37.0916 32.723 37.0156 32.9714 37 33.2269V46.7743C37.0156 47.0296 37.0916 47.2778 37.222 47.4994C37.3523 47.721 37.5335 47.9099 37.7511 48.0513L49.7905 54.8266C50.0245 54.9421 50.2829 55.0022 50.5449 55.0022C50.807 55.0022 51.0654 54.9421 51.2994 54.8266L63.3387 48.0513C63.5564 47.9099 63.7375 47.721 63.8678 47.4994C63.9982 47.2778 64.0742 47.0296 64.0898 46.7743V33.2269C64.0742 32.9714 63.9982 32.723 63.8679 32.5011C63.7375 32.2793 63.5564 32.09 63.3387 31.9483M57.9737 35.0947L51.1233 39.0421C50.891 39.1628 50.6319 39.2259 50.3689 39.2259C50.1058 39.2259 49.8468 39.1628 49.6144 39.0421L45.2738 36.5539C44.7407 36.2338 44.2846 36.4866 44.2846 37.0955V44.6455C44.297 44.7247 44.2934 44.8054 44.2739 44.8831C44.2543 44.9608 44.2194 45.034 44.171 45.0985C44.1225 45.163 44.0616 45.2175 43.9916 45.2589C43.9217 45.3003 43.8441 45.3278 43.7632 45.3398C43.6818 45.3527 43.5985 45.3493 43.5184 45.3298C43.4383 45.3104 43.363 45.2752 43.2972 45.2266L42.5561 44.8491C42.3325 44.7167 42.1453 44.5328 42.0109 44.3134C41.8764 44.0939 41.7989 43.8457 41.7849 43.5902V35.3836C41.8004 35.1287 41.876 34.8808 42.0057 34.6592C42.1355 34.4377 42.3158 34.2486 42.5326 34.1066L49.6094 30.0805C49.8434 29.9651 50.1018 29.9049 50.3638 29.9049C50.6259 29.9049 50.8843 29.9651 51.1183 30.0805L57.967 33.9524C58.0991 33.9823 58.217 34.0548 58.3017 34.1583C58.3865 34.2619 58.4333 34.3903 58.4344 34.5229C58.4356 34.6556 58.3911 34.7848 58.3081 34.8897C58.2252 34.9946 58.1086 35.0691 57.9771 35.1013" fill="#4231C8"/>
<path d="M78.3003 49.5808C78.2973 49.5566 78.2993 49.5321 78.3061 49.5086C78.313 49.4852 78.3246 49.4633 78.3402 49.4444C78.3558 49.4254 78.3752 49.4097 78.3971 49.3981C78.4191 49.3866 78.4432 49.3795 78.468 49.3773C78.4852 49.3748 78.5027 49.3748 78.52 49.3773H78.9257C78.9807 49.3751 79.0345 49.3941 79.0752 49.4304C79.116 49.4666 79.1406 49.5171 79.1436 49.571V51.6916C79.1403 51.7316 79.1267 51.7702 79.1041 51.8037C79.0816 51.8373 79.0508 51.8647 79.0145 51.8836C78.4975 52.2594 77.8893 52.4968 77.25 52.5725C76.6107 52.6482 75.9623 52.5595 75.3686 52.3152C74.775 52.0709 74.2566 51.6794 73.8645 51.1793C73.4724 50.6792 73.2201 50.0878 73.1326 49.4632C73.045 48.8386 73.1252 48.2025 73.3651 47.6174C73.6051 47.0324 73.9966 46.5187 74.5011 46.1269C75.0056 45.735 75.6056 45.4786 76.2421 45.3829C76.8786 45.2872 77.5296 45.3554 78.131 45.5809C78.4663 45.7073 79.1202 45.9978 79.1202 46.2375C79.1301 46.269 79.1301 46.3028 79.1202 46.3343L78.9139 46.6872C78.8982 46.7179 78.8744 46.744 78.8449 46.7628C78.8154 46.7815 78.7814 46.7923 78.7463 46.7939C78.681 46.7919 78.6182 46.7682 78.5686 46.7266C78.068 46.3717 77.4665 46.1788 76.8484 46.1751C76.1168 46.1681 75.4104 46.4368 74.8756 46.9256C74.3408 47.4144 74.0184 48.0858 73.9753 48.8009C73.9323 49.5159 74.1717 50.2198 74.6441 50.7668C75.1165 51.3137 75.7857 51.6619 76.5131 51.7392C76.6248 51.7457 76.7368 51.7457 76.8484 51.7392C77.3835 51.7486 77.9092 51.6005 78.3573 51.3141L78.3003 49.5808Z" fill="#4231C8"/>
<path d="M85.7726 51.6813C85.7985 51.6797 85.8244 51.6832 85.8489 51.6915C85.8735 51.6999 85.896 51.7129 85.9154 51.7298C85.9347 51.7468 85.9504 51.7673 85.9616 51.7903C85.9728 51.8132 85.9792 51.8381 85.9805 51.8634C85.9822 51.8732 85.9822 51.8832 85.9805 51.893V52.2705C85.9818 52.2972 85.9778 52.324 85.9686 52.3492C85.9593 52.3744 85.9451 52.3975 85.9268 52.4173C85.9084 52.4372 85.8862 52.4532 85.8615 52.4647C85.8367 52.4761 85.8099 52.4826 85.7826 52.4839H81.66C81.6357 52.4881 81.6109 52.4876 81.5869 52.4823C81.5628 52.4771 81.5401 52.4673 81.52 52.4534C81.4999 52.4395 81.4828 52.4218 81.4697 52.4014C81.4566 52.381 81.4477 52.3583 81.4437 52.3345C81.4387 52.3134 81.4387 52.2915 81.4437 52.2705V45.6609C81.4421 45.6342 81.4459 45.6076 81.455 45.5824C81.464 45.5572 81.478 45.534 81.4963 45.5141C81.5145 45.4943 81.5366 45.4782 81.5613 45.4668C81.5859 45.4553 81.6126 45.4488 81.6399 45.4475H82.0657C82.0917 45.4462 82.1177 45.4499 82.1422 45.4584C82.1667 45.467 82.1893 45.4801 82.2086 45.4972C82.2279 45.5143 82.2436 45.5349 82.2548 45.5579C82.2659 45.581 82.2723 45.6059 82.2736 45.6314C82.2744 45.6412 82.2744 45.6511 82.2736 45.6609V51.6813H85.7726Z" fill="#4231C8"/>
<path d="M94.5799 48.9897C94.5708 49.9275 94.1828 50.8235 93.5006 51.4819C92.8185 52.1403 91.8977 52.5074 90.9398 52.5029C89.9819 52.4985 89.0648 52.1228 88.3891 51.4581C87.7133 50.7935 87.334 49.8938 87.334 48.9561C87.334 48.0183 87.7133 47.1187 88.3891 46.454C89.0648 45.7893 89.9819 45.4137 90.9398 45.4092C91.8977 45.4048 92.8185 45.7719 93.5006 46.4303C94.1828 47.0886 94.5708 47.9847 94.5799 48.9224C94.5799 48.9454 94.5799 48.9684 94.5799 48.9897ZM90.8831 51.7685C91.4461 51.7685 91.9965 51.6052 92.4648 51.2993C92.9331 50.9935 93.2984 50.5587 93.5146 50.0498C93.7308 49.5409 93.7883 48.9807 93.6796 48.4399C93.571 47.8991 93.3012 47.4019 92.9043 47.011C92.5074 46.6202 92.0011 46.3531 91.4493 46.2436C90.8976 46.1341 90.325 46.187 89.804 46.3957C89.2829 46.6044 88.8366 46.9594 88.5214 47.4161C88.2062 47.8728 88.0363 48.4107 88.0329 48.9618V48.9717C88.0329 49.7094 88.3314 50.4171 88.863 50.94C89.3946 51.4629 90.1161 51.7584 90.8697 51.7619H90.8797" fill="#4231C8"/>
<path d="M101.134 48.7187C101.52 48.9409 101.823 49.2804 101.995 49.6857C102.167 50.091 102.2 50.5402 102.089 50.9655C101.977 51.3907 101.727 51.7688 101.377 52.0428C101.026 52.3167 100.594 52.4715 100.146 52.4839H96.9925C96.9378 52.4889 96.8834 52.4726 96.841 52.4385C96.7985 52.4043 96.7717 52.3552 96.7661 52.3017C96.7654 52.2913 96.7654 52.2809 96.7661 52.2705V45.6806C96.7578 45.6283 96.7707 45.5748 96.802 45.5316C96.8333 45.4884 96.8806 45.4588 96.9338 45.4492C96.9511 45.4476 96.9685 45.4476 96.9858 45.4492H99.8359C100.33 45.4219 100.816 45.5876 101.186 45.91C101.556 46.2324 101.78 46.6853 101.809 47.1693C101.809 47.2087 101.809 47.2497 101.809 47.2891C101.804 47.562 101.739 47.8306 101.62 48.0773C101.5 48.324 101.329 48.5432 101.117 48.7204M99.8225 46.2912H97.596V48.4692H99.8393C100.138 48.4628 100.422 48.3404 100.629 48.1289C100.836 47.9175 100.949 47.6343 100.942 47.3416V47.2596C100.944 47.003 100.841 46.7564 100.657 46.574C100.473 46.3915 100.222 46.288 99.96 46.2863H99.8443M97.6011 49.2406V51.678H100.171C100.339 51.684 100.505 51.657 100.662 51.5984C100.818 51.5399 100.961 51.4511 101.081 51.3373C101.202 51.2236 101.298 51.0872 101.363 50.9363C101.429 50.7855 101.463 50.6232 101.463 50.4593C101.463 50.2954 101.429 50.1332 101.363 49.9823C101.298 49.8315 101.202 49.6951 101.081 49.5813C100.961 49.4676 100.818 49.3788 100.662 49.3202C100.505 49.2617 100.339 49.2346 100.171 49.2406H97.6011Z" fill="#4231C8"/>
<path d="M104.634 52.29C104.619 52.3471 104.584 52.3973 104.535 52.4324C104.487 52.4676 104.428 52.4857 104.367 52.4837H103.942C103.813 52.4837 103.744 52.4837 103.744 52.3294C103.737 52.2875 103.737 52.2449 103.744 52.203C106.542 45.6378 106.552 45.6378 106.552 45.623C106.565 45.5717 106.596 45.5263 106.639 45.4943C106.682 45.4624 106.734 45.4458 106.788 45.4474H107.08C107.134 45.446 107.187 45.4627 107.23 45.4945C107.274 45.5264 107.305 45.5717 107.318 45.623L110.155 52.2129C110.158 52.2517 110.158 52.2906 110.155 52.3294C110.155 52.4345 110.066 52.4837 109.937 52.4837H109.521C109.464 52.4828 109.409 52.4647 109.363 52.4318C109.317 52.3988 109.283 52.3527 109.265 52.2999L108.701 50.9458H105.207L104.634 52.29ZM105.523 50.1415H108.359L106.946 46.6767L105.523 50.1415Z" fill="#4231C8"/>
<path d="M116.516 51.6812C116.568 51.6785 116.619 51.6961 116.658 51.7303C116.697 51.7644 116.721 51.8123 116.724 51.8634V52.2704C116.725 52.2971 116.721 52.3239 116.712 52.3491C116.702 52.3743 116.688 52.3975 116.67 52.4173C116.651 52.4371 116.629 52.4532 116.605 52.4646C116.58 52.476 116.553 52.4825 116.526 52.4838H112.403C112.379 52.488 112.354 52.4875 112.33 52.4823C112.306 52.4771 112.283 52.4673 112.262 52.4534C112.242 52.4395 112.225 52.4219 112.212 52.4015C112.198 52.381 112.189 52.3583 112.185 52.3344C112.182 52.3132 112.182 52.2916 112.185 52.2704V45.6608C112.183 45.6069 112.202 45.5543 112.239 45.5144C112.276 45.4745 112.328 45.4504 112.383 45.4475H112.809C112.861 45.4452 112.912 45.4632 112.951 45.4976C112.99 45.532 113.014 45.58 113.017 45.6313V51.6812H116.516Z" fill="#4231C8"/>
<path d="M72.9423 27.9904C72.9369 27.945 72.9408 27.8989 72.9536 27.8548C72.9665 27.8108 72.9881 27.7697 73.0173 27.7339C73.0464 27.698 73.0824 27.6682 73.1234 27.646C73.1643 27.6239 73.2093 27.6098 73.2558 27.6047C73.2764 27.6031 73.2972 27.6031 73.3178 27.6047H79.0517C80.1738 27.6399 81.2366 28.1065 82.0098 28.9034C82.7831 29.7003 83.2044 30.7634 83.1827 31.8623C83.2089 32.9471 82.7951 33.9978 82.0319 34.7846C81.2687 35.5714 80.2182 36.0303 79.1103 36.0608H76.3725V40.2133C76.3725 40.4743 76.2334 40.6007 75.9567 40.6007H73.3178C73.0513 40.6007 72.9423 40.4743 72.9423 40.2133V27.9904ZM76.3725 30.3704V33.2706H78.3492C78.5335 33.2684 78.7155 33.2308 78.8849 33.1597C79.0544 33.0887 79.2078 32.9857 79.3366 32.8566C79.4653 32.7275 79.5668 32.5749 79.6353 32.4074C79.7038 32.2399 79.7379 32.0608 79.7357 31.8804C79.7357 31.859 79.7357 31.8393 79.7357 31.8196C79.7503 31.4445 79.613 31.0788 79.3536 30.8022C79.0943 30.5256 78.7339 30.3604 78.3509 30.3425L76.3725 30.3704Z" fill="white"/>
<path d="M86.3562 27.9912C86.3523 27.9443 86.3579 27.8971 86.3726 27.8523C86.3874 27.8076 86.411 27.7661 86.4421 27.7302C86.4733 27.6944 86.5113 27.665 86.5541 27.6435C86.5969 27.6221 86.6436 27.6092 86.6915 27.6055H92.6617C93.8126 27.6411 94.9029 28.1191 95.6964 28.9359C96.49 29.7527 96.923 30.8426 96.9017 31.9697C96.868 32.6976 96.6515 33.4061 96.2713 34.0325C95.8911 34.6589 95.3591 35.1839 94.7222 35.5609L97.3024 40.2157C97.3219 40.241 97.3362 40.2699 97.3443 40.3006C97.3524 40.3313 97.3542 40.3632 97.3497 40.3946C97.3452 40.426 97.3344 40.4563 97.318 40.4836C97.3015 40.5109 97.2797 40.5348 97.2538 40.5538C97.2061 40.5899 97.1462 40.6069 97.0862 40.6014H93.8487C93.5922 40.6014 93.5033 40.5341 93.3642 40.2338L91.2299 36.2749H89.8116V40.2141C89.8224 40.3057 89.7957 40.3978 89.7372 40.4701C89.6787 40.5424 89.5933 40.5891 89.4997 40.5998C89.472 40.6047 89.4436 40.6047 89.4159 40.5998H86.7334C86.4769 40.5998 86.3579 40.475 86.3579 40.2141L86.3562 27.9912ZM89.8116 30.3038V33.4683H91.7882C92.2059 33.458 92.6028 33.2883 92.8945 32.9955C93.1861 32.7026 93.3492 32.3098 93.3491 31.9008C93.3422 31.4861 93.1736 31.0897 92.8777 30.7928C92.5819 30.4959 92.1813 30.3209 91.7581 30.3038H89.8116Z" fill="#4231C8"/>
<path d="M106.56 27.4102C107.913 27.4082 109.236 27.7991 110.362 28.5333C111.488 29.2675 112.367 30.3121 112.886 31.535C113.406 32.7579 113.543 34.1041 113.281 35.4035C113.019 36.7029 112.37 37.897 111.414 38.835C110.459 39.7729 109.241 40.4124 107.915 40.6727C106.588 40.933 105.213 40.8024 103.962 40.2973C102.711 39.7923 101.642 38.9355 100.888 37.8353C100.135 36.7352 99.732 35.441 99.73 34.1166C99.7287 33.2372 99.9043 32.3661 100.247 31.5532C100.589 30.7402 101.092 30.0013 101.726 29.3785C102.361 28.7558 103.114 28.2614 103.943 27.9237C104.773 27.5859 105.662 27.4115 106.56 27.4102ZM106.56 37.5716C107.006 37.5709 107.446 37.4844 107.858 37.3169C108.269 37.1494 108.642 36.9043 108.957 36.5955C109.271 36.2867 109.52 35.9202 109.69 35.5172C109.859 35.1141 109.946 34.6822 109.945 34.2463C109.945 34.2003 109.945 34.1527 109.945 34.1067C109.913 33.4654 109.692 32.8469 109.308 32.3265C108.923 31.8062 108.393 31.4062 107.781 31.1754C107.169 30.9446 106.502 30.8929 105.86 31.0265C105.219 31.16 104.63 31.4732 104.167 31.9279C103.704 32.3826 103.386 32.9592 103.251 33.5876C103.117 34.216 103.172 34.8692 103.409 35.4677C103.647 36.0662 104.057 36.5843 104.589 36.959C105.122 37.3336 105.754 37.5487 106.409 37.5781H106.56V37.5716Z" fill="#4231C8"/>
<path d="M116.99 28.0187C116.98 27.9214 117.009 27.8241 117.072 27.7481C117.135 27.6721 117.226 27.6236 117.326 27.6133H123.051C123.555 27.6146 124.053 27.713 124.518 27.9029C124.983 28.0928 125.405 28.3705 125.761 28.7202C126.116 29.0698 126.397 29.4845 126.589 29.9406C126.78 30.3967 126.878 30.8853 126.877 31.3785C126.892 32.1966 126.608 32.993 126.076 33.6238C126.508 34.0162 126.854 34.4904 127.094 35.0176C127.334 35.5449 127.462 36.1143 127.47 36.6914C127.463 37.7203 127.044 38.7054 126.304 39.436C125.564 40.1666 124.561 40.5848 123.51 40.601H117.376C117.285 40.6112 117.193 40.5857 117.121 40.5301C117.049 40.4745 117.002 40.3932 116.99 40.3039C116.988 40.2805 116.988 40.2568 116.99 40.2334V28.0187ZM122.1 30.1869H120.459V32.7506H122.07C122.237 32.7634 122.405 32.7438 122.565 32.693C122.724 32.6421 122.872 32.5611 122.999 32.4544C123.127 32.3477 123.231 32.2174 123.307 32.0711C123.383 31.9248 123.429 31.7653 123.442 31.6017C123.442 31.5606 123.442 31.5213 123.442 31.4819C123.447 31.143 123.315 30.816 123.074 30.5725C122.833 30.3291 122.504 30.1892 122.157 30.1836H122.097M122.541 35.0895H120.459V37.993H122.545C122.927 37.9726 123.286 37.8066 123.545 37.5306C123.803 37.2545 123.942 36.8903 123.93 36.5158C123.923 36.151 123.777 35.8019 123.521 35.537C123.265 35.2721 122.916 35.1107 122.545 35.0846" fill="#4231C8"/>
<path d="M131.62 27.9904C131.62 27.7295 131.739 27.6031 131.995 27.6031H134.678C134.724 27.5976 134.771 27.6011 134.816 27.6135C134.861 27.6259 134.904 27.6469 134.94 27.6753C134.977 27.7036 135.008 27.7388 135.031 27.7788C135.053 27.8188 135.068 27.8629 135.073 27.9084C135.077 27.9356 135.077 27.9632 135.073 27.9904V40.2133C135.084 40.3051 135.058 40.3974 134.999 40.47C134.941 40.5426 134.855 40.5896 134.761 40.6007C134.734 40.604 134.706 40.604 134.678 40.6007H131.995C131.739 40.6007 131.62 40.4743 131.62 40.2133V27.9904Z" fill="#4231C8"/>
<path d="M139.518 27.9906C139.511 27.9467 139.513 27.9017 139.524 27.8584C139.534 27.8151 139.554 27.7743 139.58 27.7383C139.607 27.7023 139.641 27.6719 139.68 27.6487C139.719 27.6255 139.762 27.6101 139.807 27.6033C139.842 27.5984 139.879 27.5984 139.914 27.6033H149.611C149.656 27.5978 149.702 27.601 149.746 27.6128C149.79 27.6246 149.831 27.6447 149.866 27.672C149.902 27.6992 149.932 27.7332 149.955 27.7718C149.977 27.8104 149.991 27.853 149.997 27.8971C150.001 27.9281 150.001 27.9596 149.997 27.9906V30.2163C150.002 30.2618 149.998 30.3078 149.986 30.3519C149.973 30.3959 149.951 30.437 149.922 30.4728C149.893 30.5087 149.857 30.5385 149.816 30.5607C149.775 30.5829 149.73 30.5969 149.683 30.602C149.659 30.6044 149.635 30.6044 149.611 30.602H146.438V40.2135C146.443 40.2589 146.44 40.3049 146.427 40.3489C146.415 40.393 146.393 40.4341 146.365 40.4701C146.336 40.5061 146.3 40.5362 146.259 40.5586C146.219 40.581 146.174 40.5954 146.127 40.6009C146.096 40.605 146.064 40.605 146.032 40.6009H143.452C143.358 40.6115 143.264 40.5853 143.19 40.5281C143.116 40.4708 143.069 40.3872 143.058 40.2956C143.054 40.2683 143.054 40.2408 143.058 40.2135V30.6036H139.914C139.868 30.6091 139.821 30.6056 139.775 30.5932C139.73 30.5808 139.688 30.5598 139.652 30.5315C139.615 30.5031 139.584 30.4679 139.561 30.4279C139.538 30.3879 139.524 30.3439 139.518 30.2983C139.515 30.2711 139.515 30.2435 139.518 30.2163V27.9906Z" fill="#4231C8"/>
<path d="M53.6165 33.7106L51.1251 32.2859C50.8911 32.1705 50.6327 32.1104 50.3706 32.1104C50.1086 32.1104 49.8502 32.1705 49.6162 32.2859L47.1248 33.7089C46.5917 34.0175 46.5816 34.5214 47.1248 34.8218L49.6162 36.2628C49.8486 36.3836 50.1076 36.4467 50.3706 36.4467C50.6337 36.4467 50.8927 36.3836 51.1251 36.2628L53.6165 34.8218C53.7677 34.7713 53.8924 34.6642 53.9631 34.5239C54.0339 34.3836 54.0448 34.2215 53.9937 34.0733C53.9641 33.9881 53.9145 33.9107 53.8491 33.8475C53.7836 33.7842 53.7039 33.7368 53.6165 33.7089" fill="#4231C8"/>
<path d="M63.3337 31.9483L51.2943 25.1746C51.0603 25.0592 50.8019 24.999 50.5399 24.999C50.2778 24.999 50.0194 25.0592 49.7854 25.1746L37.7511 31.9483C37.5334 32.09 37.3523 32.2793 37.222 32.5011C37.0916 32.723 37.0156 32.9714 37 33.2269V46.7743C37.0156 47.0296 37.0916 47.2778 37.222 47.4994C37.3523 47.721 37.5335 47.9099 37.7511 48.0513L49.7905 54.8266C50.0245 54.9421 50.2829 55.0022 50.5449 55.0022C50.807 55.0022 51.0654 54.9421 51.2994 54.8266L63.3387 48.0513C63.5564 47.9099 63.7375 47.721 63.8678 47.4994C63.9982 47.2778 64.0742 47.0296 64.0898 46.7743V33.2269C64.0742 32.9714 63.9982 32.723 63.8679 32.5011C63.7375 32.2793 63.5564 32.09 63.3387 31.9483M57.9737 35.0947L51.1233 39.0421C50.891 39.1628 50.6319 39.2259 50.3689 39.2259C50.1058 39.2259 49.8468 39.1628 49.6144 39.0421L45.2738 36.5539C44.7407 36.2338 44.2846 36.4866 44.2846 37.0955V44.6455C44.297 44.7247 44.2934 44.8054 44.2739 44.8831C44.2543 44.9608 44.2194 45.034 44.171 45.0985C44.1225 45.163 44.0616 45.2175 43.9916 45.2589C43.9217 45.3003 43.8441 45.3278 43.7632 45.3398C43.6818 45.3527 43.5985 45.3493 43.5184 45.3298C43.4383 45.3104 43.363 45.2752 43.2972 45.2266L42.5561 44.8491C42.3325 44.7167 42.1453 44.5328 42.0109 44.3134C41.8764 44.0939 41.7989 43.8457 41.7849 43.5902V35.3836C41.8004 35.1287 41.876 34.8808 42.0057 34.6592C42.1355 34.4377 42.3158 34.2486 42.5326 34.1066L49.6094 30.0805C49.8434 29.9651 50.1018 29.9049 50.3638 29.9049C50.6259 29.9049 50.8843 29.9651 51.1183 30.0805L57.967 33.9524C58.0991 33.9823 58.217 34.0548 58.3017 34.1583C58.3865 34.2619 58.4333 34.3903 58.4344 34.5229C58.4356 34.6556 58.3911 34.7848 58.3081 34.8897C58.2252 34.9946 58.1086 35.0691 57.9771 35.1013" fill="#4231C8"/>
<path d="M78.3003 49.5808C78.2973 49.5566 78.2993 49.5321 78.3061 49.5086C78.313 49.4852 78.3246 49.4633 78.3402 49.4444C78.3558 49.4254 78.3752 49.4097 78.3971 49.3981C78.4191 49.3866 78.4432 49.3795 78.468 49.3773C78.4852 49.3748 78.5027 49.3748 78.52 49.3773H78.9257C78.9807 49.3751 79.0345 49.3941 79.0752 49.4304C79.116 49.4666 79.1406 49.5171 79.1436 49.571V51.6916C79.1403 51.7316 79.1267 51.7702 79.1041 51.8037C79.0816 51.8373 79.0508 51.8647 79.0145 51.8836C78.4975 52.2594 77.8893 52.4968 77.25 52.5725C76.6107 52.6482 75.9623 52.5595 75.3686 52.3152C74.775 52.0709 74.2566 51.6794 73.8645 51.1793C73.4724 50.6792 73.2201 50.0878 73.1326 49.4632C73.045 48.8386 73.1252 48.2025 73.3651 47.6174C73.6051 47.0324 73.9966 46.5187 74.5011 46.1269C75.0056 45.735 75.6056 45.4786 76.2421 45.3829C76.8786 45.2872 77.5296 45.3554 78.131 45.5809C78.4663 45.7073 79.1202 45.9978 79.1202 46.2375C79.1301 46.269 79.1301 46.3028 79.1202 46.3343L78.9139 46.6872C78.8982 46.7179 78.8744 46.744 78.8449 46.7628C78.8154 46.7815 78.7814 46.7923 78.7463 46.7939C78.681 46.7919 78.6182 46.7682 78.5686 46.7266C78.068 46.3717 77.4665 46.1788 76.8484 46.1751C76.1168 46.1681 75.4104 46.4368 74.8756 46.9256C74.3408 47.4144 74.0184 48.0858 73.9753 48.8009C73.9323 49.5159 74.1717 50.2198 74.6441 50.7668C75.1165 51.3137 75.7857 51.6619 76.5131 51.7392C76.6248 51.7457 76.7368 51.7457 76.8484 51.7392C77.3835 51.7486 77.9092 51.6005 78.3573 51.3141L78.3003 49.5808Z" fill="white"/>
<path d="M85.7726 51.6813C85.7985 51.6797 85.8244 51.6832 85.8489 51.6915C85.8735 51.6999 85.896 51.7129 85.9154 51.7298C85.9347 51.7468 85.9504 51.7673 85.9616 51.7903C85.9728 51.8132 85.9792 51.8381 85.9805 51.8634C85.9822 51.8732 85.9822 51.8832 85.9805 51.893V52.2705C85.9818 52.2972 85.9778 52.324 85.9686 52.3492C85.9593 52.3744 85.9451 52.3975 85.9268 52.4173C85.9084 52.4372 85.8862 52.4532 85.8615 52.4647C85.8367 52.4761 85.8099 52.4826 85.7826 52.4839H81.66C81.6357 52.4881 81.6109 52.4876 81.5869 52.4823C81.5628 52.4771 81.5401 52.4673 81.52 52.4534C81.4999 52.4395 81.4828 52.4218 81.4697 52.4014C81.4566 52.381 81.4477 52.3583 81.4437 52.3345C81.4387 52.3134 81.4387 52.2915 81.4437 52.2705V45.6609C81.4421 45.6342 81.4459 45.6076 81.455 45.5824C81.464 45.5572 81.478 45.534 81.4963 45.5141C81.5145 45.4943 81.5366 45.4782 81.5613 45.4668C81.5859 45.4553 81.6126 45.4488 81.6399 45.4475H82.0657C82.0917 45.4462 82.1177 45.4499 82.1422 45.4584C82.1667 45.467 82.1893 45.4801 82.2086 45.4972C82.2279 45.5143 82.2436 45.5349 82.2548 45.5579C82.2659 45.581 82.2723 45.6059 82.2736 45.6314C82.2744 45.6412 82.2744 45.6511 82.2736 45.6609V51.6813H85.7726Z" fill="white"/>
<path d="M94.5799 48.9897C94.5708 49.9275 94.1828 50.8235 93.5006 51.4819C92.8185 52.1403 91.8977 52.5074 90.9398 52.5029C89.9819 52.4985 89.0648 52.1228 88.3891 51.4581C87.7133 50.7935 87.334 49.8938 87.334 48.9561C87.334 48.0183 87.7133 47.1187 88.3891 46.454C89.0648 45.7893 89.9819 45.4137 90.9398 45.4092C91.8977 45.4048 92.8185 45.7719 93.5006 46.4303C94.1828 47.0886 94.5708 47.9847 94.5799 48.9224C94.5799 48.9454 94.5799 48.9684 94.5799 48.9897ZM90.8831 51.7685C91.4461 51.7685 91.9965 51.6052 92.4648 51.2993C92.9331 50.9935 93.2984 50.5587 93.5146 50.0498C93.7308 49.5409 93.7883 48.9807 93.6796 48.4399C93.571 47.8991 93.3012 47.4019 92.9043 47.011C92.5074 46.6202 92.0011 46.3531 91.4493 46.2436C90.8976 46.1341 90.325 46.187 89.804 46.3957C89.2829 46.6044 88.8366 46.9594 88.5214 47.4161C88.2062 47.8728 88.0363 48.4107 88.0329 48.9618V48.9717C88.0329 49.7094 88.3314 50.4171 88.863 50.94C89.3946 51.4629 90.1161 51.7584 90.8697 51.7619H90.8797" fill="white"/>
<path d="M101.134 48.7187C101.52 48.9409 101.823 49.2804 101.995 49.6857C102.167 50.091 102.2 50.5402 102.089 50.9655C101.977 51.3907 101.727 51.7688 101.377 52.0428C101.026 52.3167 100.594 52.4715 100.146 52.4839H96.9925C96.9378 52.4889 96.8834 52.4726 96.841 52.4385C96.7985 52.4043 96.7717 52.3552 96.7661 52.3017C96.7654 52.2913 96.7654 52.2809 96.7661 52.2705V45.6806C96.7578 45.6283 96.7707 45.5748 96.802 45.5316C96.8333 45.4884 96.8806 45.4588 96.9338 45.4492C96.9511 45.4476 96.9685 45.4476 96.9858 45.4492H99.8359C100.33 45.4219 100.816 45.5876 101.186 45.91C101.556 46.2324 101.78 46.6853 101.809 47.1693C101.809 47.2087 101.809 47.2497 101.809 47.2891C101.804 47.562 101.739 47.8306 101.62 48.0773C101.5 48.324 101.329 48.5432 101.117 48.7204M99.8225 46.2912H97.596V48.4692H99.8393C100.138 48.4628 100.422 48.3404 100.629 48.1289C100.836 47.9175 100.949 47.6343 100.942 47.3416V47.2596C100.944 47.003 100.841 46.7564 100.657 46.574C100.473 46.3915 100.222 46.288 99.96 46.2863H99.8443M97.6011 49.2406V51.678H100.171C100.339 51.684 100.505 51.657 100.662 51.5984C100.818 51.5399 100.961 51.4511 101.081 51.3373C101.202 51.2236 101.298 51.0872 101.363 50.9363C101.429 50.7855 101.463 50.6232 101.463 50.4593C101.463 50.2954 101.429 50.1332 101.363 49.9823C101.298 49.8315 101.202 49.6951 101.081 49.5813C100.961 49.4676 100.818 49.3788 100.662 49.3202C100.505 49.2617 100.339 49.2346 100.171 49.2406H97.6011Z" fill="white"/>
<path d="M104.634 52.29C104.619 52.3471 104.584 52.3973 104.535 52.4324C104.487 52.4676 104.428 52.4857 104.367 52.4837H103.942C103.813 52.4837 103.744 52.4837 103.744 52.3294C103.737 52.2875 103.737 52.2449 103.744 52.203C106.542 45.6378 106.552 45.6378 106.552 45.623C106.565 45.5717 106.596 45.5263 106.639 45.4943C106.682 45.4624 106.734 45.4458 106.788 45.4474H107.08C107.134 45.446 107.187 45.4627 107.23 45.4945C107.274 45.5264 107.305 45.5717 107.318 45.623L110.155 52.2129C110.158 52.2517 110.158 52.2906 110.155 52.3294C110.155 52.4345 110.066 52.4837 109.937 52.4837H109.521C109.464 52.4828 109.409 52.4647 109.363 52.4318C109.317 52.3988 109.283 52.3527 109.265 52.2999L108.701 50.9458H105.207L104.634 52.29ZM105.523 50.1415H108.359L106.946 46.6767L105.523 50.1415Z" fill="white"/>
<path d="M116.516 51.6812C116.568 51.6785 116.619 51.6961 116.658 51.7303C116.697 51.7644 116.721 51.8123 116.724 51.8634V52.2704C116.725 52.2971 116.721 52.3239 116.712 52.3491C116.702 52.3743 116.688 52.3975 116.67 52.4173C116.651 52.4371 116.629 52.4532 116.605 52.4646C116.58 52.476 116.553 52.4825 116.526 52.4838H112.403C112.379 52.488 112.354 52.4875 112.33 52.4823C112.306 52.4771 112.283 52.4673 112.262 52.4534C112.242 52.4395 112.225 52.4219 112.212 52.4015C112.198 52.381 112.189 52.3583 112.185 52.3344C112.182 52.3132 112.182 52.2916 112.185 52.2704V45.6608C112.183 45.6069 112.202 45.5543 112.239 45.5144C112.276 45.4745 112.328 45.4504 112.383 45.4475H112.809C112.861 45.4452 112.912 45.4632 112.951 45.4976C112.99 45.532 113.014 45.58 113.017 45.6313V51.6812H116.516Z" fill="white"/>
<path d="M73.0023 28.3869C72.997 28.3414 73.0008 28.2954 73.0137 28.2513C73.0266 28.2073 73.0482 28.1662 73.0773 28.1304C73.1064 28.0945 73.1425 28.0647 73.1834 28.0425C73.2244 28.0204 73.2694 28.0063 73.3159 28.0012C73.3365 27.9996 73.3573 27.9996 73.3779 28.0012H79.1117C80.2339 28.0364 81.2967 28.503 82.0699 29.2999C82.8431 30.0968 83.2645 31.1599 83.2428 32.2588C83.2689 33.3435 82.8551 34.3943 82.0919 35.1811C81.3288 35.9679 80.2783 36.4268 79.1704 36.4573H76.4326V40.6098C76.4326 40.8708 76.2934 40.9972 76.0168 40.9972H73.3779C73.1113 40.9972 73.0023 40.8708 73.0023 40.6098V28.3869ZM76.4326 30.7668V33.6671H78.4092C78.5935 33.6649 78.7756 33.6273 78.945 33.5562C79.1144 33.4852 79.2679 33.3822 79.3966 33.2531C79.5254 33.124 79.6269 32.9714 79.6954 32.8038C79.7639 32.6363 79.798 32.4573 79.7958 32.2769C79.7958 32.2555 79.7958 32.2358 79.7958 32.2161C79.8103 31.8409 79.673 31.4753 79.4137 31.1987C79.1544 30.9221 78.794 30.7568 78.4109 30.7389L76.4326 30.7668Z" fill="white"/>
<path d="M86.3562 27.9912C86.3523 27.9443 86.3579 27.8971 86.3726 27.8523C86.3874 27.8076 86.411 27.7661 86.4421 27.7302C86.4733 27.6944 86.5113 27.665 86.5541 27.6435C86.5969 27.6221 86.6436 27.6092 86.6915 27.6055H92.6617C93.8126 27.6411 94.9029 28.1191 95.6964 28.9359C96.49 29.7527 96.923 30.8426 96.9017 31.9697C96.868 32.6976 96.6515 33.4061 96.2713 34.0325C95.8911 34.6589 95.3591 35.1839 94.7222 35.5609L97.3024 40.2157C97.3219 40.241 97.3362 40.2699 97.3443 40.3006C97.3524 40.3313 97.3542 40.3632 97.3497 40.3946C97.3452 40.426 97.3344 40.4563 97.318 40.4836C97.3015 40.5109 97.2797 40.5348 97.2538 40.5538C97.2061 40.5899 97.1462 40.6069 97.0862 40.6014H93.8487C93.5922 40.6014 93.5033 40.5341 93.3642 40.2338L91.2299 36.2749H89.8116V40.2141C89.8224 40.3057 89.7957 40.3978 89.7372 40.4701C89.6787 40.5424 89.5933 40.5891 89.4997 40.5998C89.472 40.6047 89.4436 40.6047 89.4159 40.5998H86.7334C86.4769 40.5998 86.3579 40.475 86.3579 40.2141L86.3562 27.9912ZM89.8116 30.3038V33.4683H91.7882C92.2059 33.458 92.6028 33.2883 92.8945 32.9955C93.1861 32.7026 93.3492 32.3098 93.3491 31.9008C93.3422 31.4861 93.1736 31.0897 92.8777 30.7928C92.5819 30.4959 92.1813 30.3209 91.7581 30.3038H89.8116Z" fill="white"/>
<path d="M106.56 27.4102C107.913 27.4082 109.236 27.7991 110.362 28.5333C111.488 29.2675 112.367 30.3121 112.886 31.535C113.406 32.7579 113.543 34.1041 113.281 35.4035C113.019 36.7029 112.37 37.897 111.414 38.835C110.459 39.7729 109.241 40.4124 107.915 40.6727C106.588 40.933 105.213 40.8024 103.962 40.2973C102.711 39.7923 101.642 38.9355 100.888 37.8353C100.135 36.7352 99.732 35.441 99.73 34.1166C99.7287 33.2372 99.9043 32.3661 100.247 31.5532C100.589 30.7402 101.092 30.0013 101.726 29.3785C102.361 28.7558 103.114 28.2614 103.943 27.9237C104.773 27.5859 105.662 27.4115 106.56 27.4102ZM106.56 37.5716C107.006 37.5709 107.446 37.4844 107.858 37.3169C108.269 37.1494 108.642 36.9043 108.957 36.5955C109.271 36.2867 109.52 35.9202 109.69 35.5172C109.859 35.1141 109.946 34.6822 109.945 34.2463C109.945 34.2003 109.945 34.1527 109.945 34.1067C109.913 33.4654 109.692 32.8469 109.308 32.3265C108.923 31.8062 108.393 31.4062 107.781 31.1754C107.169 30.9446 106.502 30.8929 105.86 31.0265C105.219 31.16 104.63 31.4732 104.167 31.9279C103.704 32.3826 103.386 32.9592 103.251 33.5876C103.117 34.216 103.172 34.8692 103.409 35.4677C103.647 36.0662 104.057 36.5843 104.589 36.959C105.122 37.3336 105.754 37.5487 106.409 37.5781H106.56V37.5716Z" fill="white"/>
<path d="M116.99 28.0187C116.98 27.9214 117.009 27.8241 117.072 27.7481C117.135 27.6721 117.226 27.6236 117.326 27.6133H123.051C123.555 27.6146 124.053 27.713 124.518 27.9029C124.983 28.0928 125.405 28.3705 125.761 28.7202C126.116 29.0698 126.397 29.4845 126.589 29.9406C126.78 30.3967 126.878 30.8853 126.877 31.3785C126.892 32.1966 126.608 32.993 126.076 33.6238C126.508 34.0162 126.854 34.4904 127.094 35.0176C127.334 35.5449 127.462 36.1143 127.47 36.6914C127.463 37.7203 127.044 38.7054 126.304 39.436C125.564 40.1666 124.561 40.5848 123.51 40.601H117.376C117.285 40.6112 117.193 40.5857 117.121 40.5301C117.049 40.4745 117.002 40.3932 116.99 40.3039C116.988 40.2805 116.988 40.2568 116.99 40.2334V28.0187ZM122.1 30.1869H120.459V32.7506H122.07C122.237 32.7634 122.405 32.7438 122.565 32.693C122.724 32.6421 122.872 32.5611 122.999 32.4544C123.127 32.3477 123.231 32.2174 123.307 32.0711C123.383 31.9248 123.429 31.7653 123.442 31.6017C123.442 31.5606 123.442 31.5213 123.442 31.4819C123.447 31.143 123.315 30.816 123.074 30.5725C122.833 30.3291 122.504 30.1892 122.157 30.1836H122.097M122.541 35.0895H120.459V37.993H122.545C122.927 37.9726 123.286 37.8066 123.545 37.5306C123.803 37.2545 123.942 36.8903 123.93 36.5158C123.923 36.151 123.777 35.8019 123.521 35.537C123.265 35.2721 122.916 35.1107 122.545 35.0846" fill="white"/>
<path d="M131.62 27.9904C131.62 27.7295 131.739 27.6031 131.995 27.6031H134.678C134.724 27.5976 134.771 27.6011 134.816 27.6135C134.861 27.6259 134.904 27.6469 134.94 27.6753C134.977 27.7036 135.008 27.7388 135.031 27.7788C135.053 27.8188 135.068 27.8629 135.073 27.9084C135.077 27.9356 135.077 27.9632 135.073 27.9904V40.2133C135.084 40.3051 135.058 40.3974 134.999 40.47C134.941 40.5426 134.855 40.5896 134.761 40.6007C134.734 40.604 134.706 40.604 134.678 40.6007H131.995C131.739 40.6007 131.62 40.4743 131.62 40.2133V27.9904Z" fill="white"/>
<path d="M139.518 27.9906C139.511 27.9467 139.513 27.9017 139.524 27.8584C139.534 27.8151 139.554 27.7743 139.58 27.7383C139.607 27.7023 139.641 27.6719 139.68 27.6487C139.719 27.6255 139.762 27.6101 139.807 27.6033C139.842 27.5984 139.879 27.5984 139.914 27.6033H149.611C149.656 27.5978 149.702 27.601 149.746 27.6128C149.79 27.6246 149.831 27.6447 149.866 27.672C149.902 27.6992 149.932 27.7332 149.955 27.7718C149.977 27.8104 149.991 27.853 149.997 27.8971C150.001 27.9281 150.001 27.9596 149.997 27.9906V30.2163C150.002 30.2618 149.998 30.3078 149.986 30.3519C149.973 30.3959 149.951 30.437 149.922 30.4728C149.893 30.5087 149.857 30.5385 149.816 30.5607C149.775 30.5829 149.73 30.5969 149.683 30.602C149.659 30.6044 149.635 30.6044 149.611 30.602H146.438V40.2135C146.443 40.2589 146.44 40.3049 146.427 40.3489C146.415 40.393 146.393 40.4341 146.365 40.4701C146.336 40.5061 146.3 40.5362 146.259 40.5586C146.219 40.581 146.174 40.5954 146.127 40.6009C146.096 40.605 146.064 40.605 146.032 40.6009H143.452C143.358 40.6115 143.264 40.5853 143.19 40.5281C143.116 40.4708 143.069 40.3872 143.058 40.2956C143.054 40.2683 143.054 40.2408 143.058 40.2135V30.6036H139.914C139.868 30.6091 139.821 30.6056 139.775 30.5932C139.73 30.5808 139.688 30.5598 139.652 30.5315C139.615 30.5031 139.584 30.4679 139.561 30.4279C139.538 30.3879 139.524 30.3439 139.518 30.2983C139.515 30.2711 139.515 30.2435 139.518 30.2163V27.9906Z" fill="white"/>
</g>
<defs>
<clipPath id="clip0_234_6323">
<rect width="113" height="30" fill="white" transform="translate(37 25)"/>
</clipPath>
</defs>
</svg>
