<svg width="current" height="current" viewBox="0 0 186 80" fill="none" xmlns="http://www.w3.org/2000/svg">
<g clip-path="url(#clip0_234_6329)">
<path d="M34.5025 36.159C34.5025 33.2887 33.1134 30.8144 32.054 30.006C32.054 30.006 31.9729 29.9571 31.9837 30.0765C31.8864 35.649 29.0703 37.1302 27.519 39.1541C25.1569 42.0733 25.6002 46.3543 28.5028 48.72C29.1406 49.2409 29.8703 49.6424 30.654 49.8975C32.5512 50.4292 30.2108 48.9642 29.9135 45.866C29.5514 42.1004 34.5025 39.2626 34.5025 36.159V36.159Z" fill="#1C2143"/>
<path d="M36.3615 38.0686C36.3453 38.0469 36.3183 38.0414 36.2966 38.0523C36.2912 38.0577 36.2858 38.0632 36.2804 38.0686C35.9237 39.36 35.3183 40.5754 34.4967 41.6334C31.2374 46.2834 33.1022 48.5244 34.1454 49.6964C34.7454 50.3963 34.1454 49.6964 35.6642 48.9801C37.4912 47.9546 38.7074 46.1044 38.9236 44.0154C39.0911 41.7311 38.1344 39.5119 36.3615 38.0686V38.0686Z" fill="#2AAAE0"/>
<path d="M92.8352 37.6614C93.6651 37.6614 94.3378 36.986 94.3378 36.1529C94.3378 35.3199 93.6651 34.6445 92.8352 34.6445C92.0053 34.6445 91.3325 35.3199 91.3325 36.1529C91.3325 36.986 92.0053 37.6614 92.8352 37.6614Z" fill="white"/>
<path d="M51.3123 34.6611V40.4886H45.5504V35.4208C45.5504 35.003 45.2099 34.6611 44.7937 34.6611H42.837V48.5895C42.8316 49.0073 43.1667 49.3491 43.5829 49.3546H43.6424H45.5882V42.8489H51.3447V48.5949C51.3447 49.0127 51.6853 49.3546 52.1015 49.3546H54.0473V35.4208C54.0473 35.003 53.7068 34.6611 53.2906 34.6611H53.2852H51.3123ZM62.7389 38.3019V45.2851C62.7443 45.92 62.4146 46.5114 61.874 46.8424C60.9389 47.4501 59.6904 47.1788 59.0904 46.2401C58.885 45.92 58.7715 45.5456 58.7715 45.1657V39.0616C58.7715 38.6438 58.4309 38.3019 58.0147 38.3019H56.0689V45.4045C56.0797 47.6942 57.9229 49.5445 60.2038 49.5553H61.3065C63.5875 49.5445 65.4307 47.6942 65.4415 45.4045V39.0616C65.4415 38.6438 65.1009 38.3019 64.6847 38.3019H62.7389Z" fill="white"/>
<path d="M92.2352 49.3542H94.1811V39.4628C94.1811 39.045 93.8406 38.7031 93.4244 38.7031H91.4893V48.5838C91.4839 49.007 91.819 49.3488 92.2352 49.3542Z" fill="white"/>
<path d="M72.4196 38.2963C69.7062 38.1715 67.409 40.2767 67.2847 42.9951C67.2847 43.0385 67.2793 43.0874 67.2793 43.1308V44.6609C67.3225 47.3793 69.5603 49.5497 72.2683 49.5008C72.3169 49.5008 72.371 49.5008 72.4196 49.4954C75.1276 49.6256 77.4248 47.5258 77.5546 44.8128C77.5546 44.764 77.56 44.7097 77.56 44.6609V43.1308C77.5113 40.407 75.2682 38.242 72.5548 38.2908C72.5061 38.2908 72.4629 38.2963 72.4196 38.2963V38.2963ZM74.8249 44.8834C74.8249 46.2344 73.7331 47.325 72.3926 47.325C71.0521 47.325 69.9603 46.229 69.9603 44.8834V42.9734C69.9603 41.6224 71.0521 40.5318 72.3926 40.5318C73.7331 40.5318 74.8249 41.6278 74.8249 42.9734V44.8834Z" fill="white"/>
<path d="M84.5271 38.2959C83.6947 38.2959 82.8677 38.4858 82.1163 38.8547V35.4364C82.1163 35.0186 81.7758 34.6768 81.3596 34.6768H79.3867V44.7039C79.43 47.4223 81.6677 49.5927 84.3757 49.5438C84.4244 49.5438 84.4784 49.5438 84.5271 49.5384C87.2351 49.6686 89.5323 47.5688 89.662 44.8558C89.662 44.807 89.6674 44.7527 89.6674 44.7039V43.1738C89.6404 40.45 87.4188 38.2633 84.7 38.2904C84.6406 38.2904 84.5865 38.2904 84.5271 38.2959V38.2959ZM86.9378 44.8829C86.9378 46.234 85.8459 47.3246 84.5054 47.3246C83.1595 47.3246 82.0731 46.2286 82.0731 44.8829V42.973C82.0731 41.622 83.1649 40.5313 84.5054 40.5313C85.8513 40.5313 86.9378 41.6274 86.9378 42.973V44.8829Z" fill="white"/>
<path d="M136.963 38.1604C136.13 38.1604 135.304 38.3504 134.552 38.7193V35.301C134.552 34.8832 134.212 34.5413 133.795 34.5413H131.85V44.5685C131.893 47.2869 134.131 49.4572 136.839 49.4084C136.887 49.4084 136.941 49.4084 136.99 49.403C139.698 49.5332 141.995 47.4334 142.125 44.7204C142.125 44.6716 142.13 44.6173 142.13 44.5685V43.0384C142.103 40.3145 139.882 38.1279 137.168 38.155C137.103 38.155 137.033 38.155 136.963 38.1604V38.1604ZM139.374 44.7421C139.374 46.0932 138.282 47.1838 136.941 47.1838C135.595 47.1838 134.509 46.0877 134.509 44.7421V42.8322C134.509 41.4811 135.601 40.3905 136.941 40.3905C138.287 40.3905 139.374 41.4865 139.374 42.8322V44.7421ZM111.629 40.5424H106.353V41.9857C106.353 42.4307 106.715 42.7942 107.159 42.7942H109.667V44.0693C109.705 44.8289 109.44 45.5723 108.926 46.1311C107.656 47.3303 105.688 47.39 104.348 46.2668C103.635 45.5668 103.483 44.8018 103.483 41.9695C103.483 39.1371 103.635 38.3883 104.348 37.6884C105.024 37.1132 105.872 36.7931 106.759 36.7768C109.64 36.7768 110.607 37.8023 111.326 38.7356H111.423V36.69C111.423 36.3753 111.283 36.0769 111.04 35.8816C109.834 34.9157 108.629 34.5576 106.559 34.5576C104.975 34.5088 103.44 35.0731 102.262 36.1366C100.656 37.569 100.656 39.2022 100.656 41.8826V42.0942C100.656 44.7801 100.656 46.4079 102.262 47.8403C104.775 49.9998 108.499 49.9564 110.959 47.7372C111.986 46.7443 112.402 44.8452 112.402 42.9027V41.2912C112.369 40.8843 112.04 40.5587 111.629 40.5424V40.5424ZM119.423 49.3542V47.645C119.423 47.238 119.093 46.9125 118.693 46.9125H117.337C116.229 46.9125 116.283 46.3536 116.283 44.9157V35.2413C116.283 34.8343 115.953 34.5088 115.553 34.5088H113.564V45.2521C113.564 47.8457 114.229 49.365 117.018 49.365H119.428L119.423 49.3542ZM159.978 49.4193V47.7047C159.994 47.2977 159.686 46.9559 159.281 46.9396C159.276 46.9396 159.276 46.9396 159.27 46.9396H157.913C156.805 46.9396 156.859 46.3807 156.859 44.9429V35.3281C156.859 34.9212 156.53 34.5956 156.13 34.5956H154.141V45.3227C154.141 47.9163 154.805 49.4355 157.595 49.4355H160.005L159.978 49.4193ZM125.542 38.1442C122.828 38.0194 120.531 40.1246 120.407 42.843C120.407 42.8864 120.401 42.9353 120.401 42.9787V44.5196C120.445 47.238 122.682 49.4084 125.39 49.3596C125.439 49.3596 125.493 49.3596 125.542 49.3542C128.25 49.4844 130.547 47.3845 130.677 44.6716C130.677 44.6227 130.682 44.5685 130.682 44.5196V42.9895C130.639 40.2657 128.401 38.0953 125.688 38.1387C125.639 38.1387 125.59 38.1387 125.542 38.1442V38.1442ZM127.952 44.7258C127.952 46.0769 126.861 47.1675 125.52 47.1675C124.174 47.1675 123.088 46.0715 123.088 44.7258V42.805C123.088 41.454 124.18 40.3634 125.52 40.3634C126.866 40.3634 127.952 41.4594 127.952 42.805V44.7258ZM151.514 39.1317C150.492 38.4263 149.265 38.0791 148.027 38.155C147.438 38.155 146.844 38.1984 146.26 38.2744C145.768 38.3395 145.081 38.4372 144.606 38.5403C144.411 38.5891 144.373 38.741 144.373 38.9201V40.3797C144.373 40.6401 144.373 40.8788 144.654 40.8083C145.168 40.6781 146.163 40.461 146.427 40.4122C146.887 40.3417 147.346 40.3037 147.811 40.3091C148.411 40.2657 149.016 40.4068 149.535 40.7106C149.946 41.0633 150.152 41.6059 150.081 42.1431V42.2245H148.46C147.833 42.2245 147.206 42.295 146.595 42.4415C146.027 42.5772 145.481 42.8105 144.99 43.1252C144.53 43.4236 144.146 43.8197 143.865 44.2918C143.584 44.7801 143.444 45.339 143.449 45.9033C143.433 46.4621 143.557 47.0156 143.8 47.5148C144.038 47.9597 144.39 48.3395 144.811 48.6216C145.303 48.9309 145.849 49.1425 146.417 49.2402C147.076 49.3704 147.746 49.4301 148.416 49.4247C148.946 49.4247 152.795 49.3704 152.795 47.5365V42.2299C152.881 41.0633 152.406 39.913 151.514 39.1317V39.1317ZM150.049 44.3406V47.1675C149.838 47.2055 149.606 47.238 149.357 47.2652C148.752 47.3249 148.146 47.3249 147.541 47.2652C147.303 47.2435 147.065 47.1784 146.849 47.0698C146.649 46.9667 146.476 46.8202 146.352 46.6358C146.206 46.3916 146.141 46.1094 146.157 45.8273C146.125 45.3552 146.346 44.8995 146.741 44.6444C147.325 44.3297 147.984 44.1887 148.644 44.2321H149.449L150.049 44.3406Z" fill="white"/>
</g>
<defs>
<clipPath id="clip0_234_6329">
<rect width="134" height="20" fill="white" transform="translate(26 30)"/>
</clipPath>
</defs>
</svg>
