<svg width="current" height="current" viewBox="0 0 186 80" fill="none" xmlns="http://www.w3.org/2000/svg">
<g clip-path="url(#clip0_234_6312)">
<mask id="mask0_234_6312" style="mask-type:alpha" maskUnits="userSpaceOnUse" x="41" y="28" width="104" height="23">
<path d="M41 28H145V51H41V28Z" fill="white"/>
</mask>
<g mask="url(#mask0_234_6312)">
<path fill-rule="evenodd" clip-rule="evenodd" d="M127.098 34.8355H130.052V31.9824H127.098V34.8355ZM111.399 39.5867C111.964 38.1411 113.409 37.1118 115.104 37.1118C116.798 37.1118 118.243 38.1411 118.808 39.5867H111.399ZM115.104 34.4592C111.401 34.4592 108.399 37.3588 108.399 40.9357C108.399 44.5126 111.401 47.4117 115.104 47.4117C117.644 47.4117 119.854 46.0472 120.992 44.0359L118.515 42.8749C117.826 44.0022 116.557 44.759 115.104 44.759C113.268 44.759 111.725 43.5518 111.277 41.9144H118.93C118.93 41.9155 118.93 41.9172 118.929 41.9186H121.733C121.783 41.598 121.809 41.2697 121.809 40.9357C121.809 37.3588 118.807 34.4592 115.104 34.4592ZM122.588 47.0664H125.541V44.2134H122.588V47.0664ZM127.098 47.0664H130.052V36.0897H127.098V47.0664ZM138.296 44.759C136.109 44.759 134.337 43.0472 134.337 40.9357C134.337 38.8237 136.109 37.1118 138.296 37.1118C140.482 37.1118 142.254 38.8237 142.254 40.9357C142.254 43.0472 140.482 44.759 138.296 44.759ZM138.294 34.4592C134.592 34.4592 131.59 37.3588 131.59 40.9357C131.59 44.5126 134.592 47.4117 138.294 47.4117C141.998 47.4117 145 44.5126 145 40.9357C145 37.3588 141.998 34.4592 138.294 34.4592ZM76.5423 38.5484V41.4983H80.672C80.4564 42.3412 80.0301 43.0966 79.4188 43.6999C78.4968 44.6102 77.2183 45.1117 75.8186 45.1117C72.9142 45.1117 70.5509 42.8291 70.5509 40.0233C70.5509 37.2175 72.9142 34.9347 75.8186 34.9347C77.3744 34.9347 78.8045 35.5779 79.796 36.6874L82.1604 34.8211C80.5928 33.0465 78.2668 31.9846 75.8186 31.9846C71.2302 31.9846 67.4971 35.5908 67.4971 40.0233C67.4971 44.4558 71.2302 48.0618 75.8186 48.0618C78.0465 48.0618 80.1002 47.2864 81.6017 45.8043C82.8617 44.5603 83.6967 42.825 83.8573 41.0867C83.9356 40.2388 83.9428 39.3965 83.8966 38.5484H76.5423ZM91.5863 44.7597C89.4001 44.7597 87.6277 43.0474 87.6277 40.9357C87.6277 38.8234 89.4001 37.1116 91.5863 37.1116C93.7727 37.1116 95.5451 38.8234 95.5451 40.9357C95.5451 43.0474 93.7727 44.7597 91.5863 44.7597ZM95.5456 35.7213C94.4358 34.9354 93.0675 34.4702 91.5863 34.4702C87.8841 34.4702 84.8828 37.3695 84.8828 40.9457C84.8828 44.5224 87.8841 47.4212 91.5863 47.4212C93.0675 47.4212 94.4358 46.9562 95.5456 46.1703V47.0664H98.29V34.8252H95.5456V35.7213ZM104.181 31.9827H101.437V34.8355H99.7917V37.3375H101.437V43.8853C101.437 44.5615 101.525 45.1303 101.699 45.5767C101.871 46.0183 102.134 46.364 102.446 46.6341C102.763 46.9082 103.134 47.1218 103.575 47.243C104.022 47.3647 104.516 47.4117 105.038 47.4117C105.578 47.4117 106.06 47.3575 106.471 47.2504C106.852 47.1514 107.218 47.0113 107.558 46.8333V44.8173C107.017 45.0434 106.511 45.1253 105.933 45.1513C105.324 45.1789 104.963 45.0107 104.663 44.7345C104.349 44.4451 104.181 44.0678 104.181 43.4351V37.3375H107.558V34.8355H104.181V31.9827Z" fill="white"/>
<path fill-rule="evenodd" clip-rule="evenodd" d="M52.9054 45.8251C49.2892 45.8251 46.3576 42.9936 46.3576 39.5002C46.3576 36.007 49.2892 33.175 52.9054 33.175V28C46.3302 28 41 33.1487 41 39.5002C41 45.8514 46.3302 51.0001 52.9054 51.0001C59.4804 51.0001 64.8108 45.8514 64.8108 39.5002H59.4533C59.4533 42.9936 56.5217 45.8251 52.9054 45.8251Z" fill="#2354E6"/>
<path fill-rule="evenodd" clip-rule="evenodd" d="M52.9053 39.4998H59.4531V33.1748H52.9053V39.4998Z" fill="#17E6A1"/>
</g>
</g>
<defs>
<clipPath id="clip0_234_6312">
<rect width="104" height="23" fill="white" transform="translate(41 28)"/>
</clipPath>
</defs>
</svg>
