<svg width="186" height="104" viewBox="0 0 186 104" fill="none" xmlns="http://www.w3.org/2000/svg">
<g clip-path="url(#clip0_1467_7215)">
<path d="M80.0022 40.2873V54.267C80.0022 54.5995 80.1337 54.9185 80.3681 55.1543C80.6025 55.3901 80.9207 55.5236 81.2531 55.5256H88.256V58.7374H79.9393C78.0636 58.7374 76.5625 57.2263 76.5625 55.3376V40.2881H80.0022V40.2873ZM89.6942 45.7032H92.8837V58.8011H89.6942V45.7032ZM92.0088 43.4361H90.5077C90.0703 43.4361 89.6942 43.0586 89.6942 42.6173V41.1062C89.6942 40.6657 90.0703 40.2873 90.5077 40.2873H92.0081C92.4455 40.2873 92.8216 40.6657 92.8216 41.1062V42.5543C92.8837 43.0586 92.5084 43.4361 92.0081 43.4361H92.0088ZM126.651 43.4361H125.15C124.713 43.4361 124.337 43.0586 124.337 42.6173V41.1062C124.337 40.6657 124.713 40.2873 125.151 40.2873H126.651C127.089 40.2873 127.465 40.6657 127.465 41.1062V42.5543C127.526 43.0586 127.152 43.4361 126.651 43.4361ZM105.015 64.2162V57.2263C104.077 58.6745 102.075 59.0528 100.7 59.0528C96.5728 59.0528 94.1968 56.0299 94.1968 52.2517C94.1968 48.4107 96.823 45.4514 100.825 45.4514C102.263 45.4514 104.015 46.0807 105.015 47.5289L105.203 45.7024H108.204V64.1532L105.015 64.2162ZM104.702 52.2517C104.702 50.2372 103.326 48.5373 101.013 48.5373C98.6994 48.5373 97.3234 50.1743 97.3234 52.2517C97.3234 54.33 98.8245 55.9669 101.013 55.9669C103.201 55.9669 104.702 54.267 104.702 52.2525V52.2517ZM112.957 45.7032V52.5035C112.957 54.4558 114.02 55.9669 116.083 55.9669C118.022 55.9669 119.397 54.33 119.397 52.3147V45.7032H122.587V58.7374H119.71L119.522 56.9746C118.209 58.2969 116.959 58.927 115.145 58.927C112.081 58.927 109.767 56.597 109.767 52.5035V45.7032H112.957ZM124.337 45.7032V58.8011H127.527V45.7032H124.337ZM143.097 40.2873V58.7382H140.096L139.908 56.9124C138.907 58.4864 137.282 58.9906 135.718 58.9906C131.904 58.9906 129.027 56.4719 129.027 52.1896C129.027 47.7192 131.841 45.3893 135.593 45.3893C136.969 45.3893 139.095 46.1444 139.845 47.4667V40.2873H143.097ZM132.279 52.2517C132.279 54.5188 133.905 56.0928 135.969 56.0928C137.969 56.0928 139.721 54.6446 139.721 52.2517C139.721 49.9847 137.969 48.4736 135.968 48.4736C133.905 48.4107 132.279 49.8589 132.279 52.2517Z" fill="white"/>
<path d="M50.6383 40.2873C50.2001 40.2873 49.8249 40.6657 49.8249 41.1062V44.6326C49.8246 44.9652 49.9561 45.2844 50.1905 45.5203C50.4249 45.7563 50.7432 45.8899 51.0758 45.892H53.5807C53.9135 45.8938 54.2319 46.0273 54.4665 46.2633C54.7011 46.4993 54.8326 46.8186 54.8324 47.1513V51.0553C54.8324 51.7483 55.3965 52.3147 56.0849 52.3147H59.9037C60.5928 52.3147 61.1561 52.8818 61.1561 53.574V56.0928C61.1559 56.4255 61.2875 56.7448 61.5221 56.9808C61.7566 57.2168 62.0751 57.3503 62.4078 57.3522H65.9143C66.3517 57.3522 66.7278 56.9746 66.7278 56.5341V41.1062C66.7278 40.6657 66.3517 40.2873 65.9143 40.2873H50.6383ZM49.8241 56.597V48.6003C49.8241 47.9073 49.2608 47.3401 48.5724 47.3401H44.0644C43.6262 47.3401 43.2509 47.7185 43.2509 48.159V63.3344C43.2509 63.7756 43.6262 64.1532 44.0644 64.1532H59.4655C59.9037 64.1532 60.2789 63.7756 60.2789 63.3344V59.1787C60.2792 58.8461 60.1477 58.5269 59.9133 58.2909C59.6789 58.0549 59.3606 57.9213 59.028 57.9193H51.1387C50.3874 57.9193 49.8241 57.3522 49.8241 56.597Z" fill="#0157FF"/>
</g>
<defs>
<clipPath id="clip0_1467_7215">
<rect width="99" height="24.5581" fill="white" transform="translate(43 39.7209)"/>
</clipPath>
</defs>
</svg>
