<svg width="current" height="current" viewBox="0 0 186 80" fill="none" xmlns="http://www.w3.org/2000/svg">
<g clip-path="url(#clip0_234_6325)">
<path d="M91.9128 33.5693H89.3901V46.863H91.9128V33.5693Z" fill="white"/>
<path d="M90.6512 29.04C90.3618 29.0408 90.0792 29.1274 89.839 29.2887C89.5988 29.45 89.4118 29.6789 89.3017 29.9465C89.1915 30.214 89.1631 30.5082 89.22 30.7919C89.277 31.0756 89.4167 31.336 89.6216 31.5403C89.8265 31.7447 90.0873 31.8837 90.3711 31.9398C90.655 31.996 90.9491 31.9667 91.2163 31.8558C91.4836 31.7449 91.7119 31.5573 91.8726 31.3167C92.0333 31.076 92.119 30.7932 92.119 30.5039C92.119 30.3113 92.081 30.1206 92.0072 29.9427C91.9334 29.7649 91.8252 29.6033 91.6888 29.4673C91.5525 29.3314 91.3906 29.2236 91.2126 29.1503C91.0345 29.077 90.8437 29.0395 90.6512 29.04Z" fill="white"/>
<path d="M101.896 33.1318C101.063 33.1316 100.24 33.3252 99.4944 33.6973C98.7484 34.0694 98.0992 34.6098 97.598 35.2759V33.5631H95.0732V46.8588H97.598V39.9609C97.598 37.2985 99.2399 35.5067 101.564 35.5067C103.775 35.5067 105.156 36.8632 105.156 39.8718V46.8588H107.681V39.8637C107.681 35.4541 105.231 33.1318 101.896 33.1318Z" fill="white"/>
<path d="M116.939 33.1201C115.535 33.1201 114.163 33.5364 112.996 34.3164C111.828 35.0964 110.918 36.205 110.381 37.502C109.844 38.7991 109.703 40.2263 109.977 41.6033C110.251 42.9802 110.927 44.245 111.92 45.2377C112.913 46.2305 114.177 46.9065 115.554 47.1804C116.931 47.4543 118.359 47.3137 119.656 46.7765C120.953 46.2392 122.061 45.3294 122.841 44.1621C123.621 42.9948 124.038 41.6224 124.038 40.2185C124.036 38.3364 123.288 36.5318 121.957 35.201C120.626 33.8701 118.821 33.1217 116.939 33.1201ZM116.939 44.9844C114.416 44.9946 112.366 42.8464 112.366 40.2164C112.366 37.5864 114.416 35.4484 116.939 35.4484C119.462 35.4484 121.513 37.5885 121.513 40.2164C121.513 42.8444 119.462 44.9946 116.939 44.9946V44.9844Z" fill="white"/>
<path d="M132.926 33.1318C132.092 33.1319 131.27 33.3256 130.524 33.6977C129.778 34.0698 129.129 34.6101 128.627 35.2759V33.5631H126.103V46.8588H128.627V39.9609C128.627 37.2985 130.269 35.5067 132.593 35.5067C134.804 35.5067 136.187 36.8632 136.187 39.8718V46.8588H138.71V39.8637C138.71 35.4541 136.256 33.1318 132.926 33.1318Z" fill="white"/>
<path d="M155 40.2428C155.005 38.361 154.263 36.5542 152.937 35.2188C151.611 33.8835 149.81 33.1287 147.928 33.1201C146.051 33.1369 144.252 33.8748 142.905 35.1812C142.241 35.8365 141.714 36.6167 141.354 37.4767C140.994 38.3368 140.807 39.2597 140.805 40.1921C140.814 42.0695 141.559 43.8684 142.882 45.2008C144.205 46.5333 145.998 47.2925 147.875 47.3148C151.501 47.3148 153.489 45.2416 154.024 44.5694L152.354 42.9173C151.808 43.5737 151.123 44.1006 150.348 44.4598C149.574 44.8191 148.729 45.0017 147.875 44.9946C145.276 44.9946 143.599 43.0084 143.421 41.4353L143.411 41.3381L154.903 41.3786C154.964 41.003 154.997 40.6233 155 40.2428ZM143.385 39.1231C143.587 37.3718 145.239 35.3857 147.92 35.3857C150.6 35.3857 152.252 37.3718 152.427 39.1555L143.385 39.1231Z" fill="white"/>
<path d="M70.1581 42.6515C69.7065 43.3227 69.0989 43.8743 68.3873 44.2591C67.6756 44.6438 66.8813 44.8501 66.0724 44.8604C65.4598 44.8678 64.8519 44.7523 64.2847 44.5206C63.7176 44.2889 63.2026 43.9459 62.7703 43.5117C62.338 43.0776 61.9972 42.5611 61.768 41.9929C61.5389 41.4247 61.426 40.8163 61.436 40.2038C61.4253 39.5884 61.5373 38.9771 61.7655 38.4055C61.9938 37.834 62.3337 37.3136 62.7654 36.875C63.1971 36.4363 63.7119 36.0881 64.2797 35.8507C64.8475 35.6134 65.457 35.4916 66.0724 35.4925C68.1456 35.4925 69.4859 36.7518 70.1622 37.7803L71.9033 36.0978C71.2521 35.1584 70.3794 34.3939 69.3624 33.8719C68.3453 33.35 67.2154 33.0867 66.0724 33.1054C62.1588 33.1054 58.8647 36.2902 58.8647 40.2038C58.8647 44.1174 62.1548 47.3021 66.0724 47.3021C67.2086 47.3172 68.3315 47.0562 69.3447 46.5417C70.3579 46.0272 71.231 45.2745 71.8892 44.3482L70.1581 42.6515Z" fill="white"/>
<path d="M80.01 33.1201C78.606 33.1197 77.2334 33.5357 76.0659 34.3154C74.8983 35.0952 73.9881 36.2036 73.4506 37.5006C72.913 38.7977 72.7722 40.225 73.0458 41.602C73.3195 42.9791 73.9954 44.2441 74.988 45.237C75.9807 46.23 77.2455 46.9062 78.6225 47.1803C79.9995 47.4543 81.4268 47.3139 82.724 46.7767C84.0211 46.2395 85.1299 45.3297 85.9099 44.1623C86.69 42.9949 87.1064 41.6225 87.1064 40.2185C87.1042 38.3369 86.3559 36.5329 85.0257 35.2023C83.6954 33.8716 81.8916 33.1228 80.01 33.1201ZM80.01 44.9844C77.4874 44.9844 75.4344 42.8464 75.4344 40.2164C75.4344 37.5864 77.4874 35.4484 80.01 35.4484C82.5327 35.4484 84.5837 37.5885 84.5837 40.2164C84.5837 42.8444 82.5307 44.9946 80.01 44.9946V44.9844Z" fill="white"/>
<path d="M43.7751 50.3045C41.8598 50.3044 39.9812 49.7787 38.3442 48.7845C36.7071 47.7904 35.3743 46.3659 34.4911 44.6665C33.6078 42.967 33.208 41.0577 33.3351 39.1466C33.4622 37.2355 34.1115 35.396 35.2121 33.8286C36.3127 32.2611 37.8225 31.0258 39.5768 30.2572C41.3311 29.4887 43.2628 29.2164 45.1612 29.4701C47.0596 29.7238 48.852 30.4937 50.343 31.6959C51.834 32.8981 52.9664 34.4865 53.6168 36.288L51.0414 39.8412C51.0414 39.8412 49.7011 37.8166 48.6301 36.5289C47.306 34.9396 45.9029 33.9961 43.7589 33.9961C40.4466 33.9961 38.0211 36.614 38.0211 39.8412C38.0211 43.0685 40.4506 45.6883 43.7589 45.6883C45.9029 45.6883 47.306 44.7449 48.6301 43.1555C49.7011 41.8679 51.0414 39.8412 51.0414 39.8412L53.6168 43.3985C52.8848 45.4214 51.5473 47.1697 49.7863 48.4054C48.0253 49.6412 45.9264 50.3042 43.7751 50.3045Z" fill="url(#paint0_angular_234_6325)"/>
</g>
<defs>
<radialGradient id="paint0_angular_234_6325" cx="0" cy="0" r="1" gradientUnits="userSpaceOnUse" gradientTransform="translate(43.4644 39.8412) scale(12.2114 11.8486)">
<stop stop-color="#3672E4"/>
<stop offset="1" stop-color="#0059FF"/>
</radialGradient>
<clipPath id="clip0_234_6325">
<rect width="122" height="21.6858" fill="white" transform="translate(33 29)"/>
</clipPath>
</defs>
</svg>
