<svg width="current" height="current" viewBox="0 0 186 80" fill="none" xmlns="http://www.w3.org/2000/svg">
<g clip-path="url(#clip0_234_6318)">
<path d="M45.906 29C39.8581 29 35 33.6773 35 39.5C35 45.3227 39.8581 50 45.906 50C51.9538 50 56.812 45.3227 56.812 39.5C56.7128 33.6773 51.8547 29 45.906 29ZM46.8974 41.2182C47.1949 41.5045 47.3932 41.7909 47.3932 42.2682C47.3932 43.0318 46.6991 43.7 45.906 43.7C45.5094 43.7 45.1128 43.5091 44.8154 43.2227C44.3197 42.8409 43.7248 42.5545 42.9316 42.5545C42.1385 42.5545 41.5436 42.8409 41.0479 43.2227L40.9487 43.3182C40.6513 43.5091 40.3538 43.7 39.9573 43.7C39.5607 43.7 39.2632 43.6045 38.9658 43.3182C38.8667 43.2227 38.8667 43.2227 38.7675 43.1273C38.7675 43.1273 38.7675 43.1273 38.7675 43.0318L38.6684 42.9364C38.6684 42.8409 38.5692 42.7455 38.5692 42.65C38.5692 42.5545 38.4701 42.3636 38.4701 42.2682C38.4701 42.0773 38.4701 41.9818 38.5692 41.8864C38.5692 41.7909 38.6684 41.6955 38.6684 41.6C38.6684 41.6 38.6684 41.5045 38.7675 41.5045C38.7675 41.5045 38.7675 41.5045 38.7675 41.4091C38.9658 41.4091 38.9658 41.4091 38.9658 41.3136L39.065 41.2182C39.4615 40.7409 39.759 40.1682 39.759 39.5C39.759 38.8318 39.5607 38.2591 39.065 37.7818C38.8667 37.4955 38.6684 37.1136 38.6684 36.6364C38.6684 35.8727 39.3624 35.2045 40.1556 35.2045C40.9487 35.2045 41.5436 35.8727 41.5436 36.6364C41.5436 37.0182 41.3453 37.4 41.0479 37.6864C40.6513 38.1636 40.3538 38.8318 40.3538 39.5C40.3538 40.1682 40.6513 40.8364 41.0479 41.3136L41.147 41.4091C41.6427 41.7909 42.2376 42.0773 42.9316 42.0773C43.6256 42.0773 44.2205 41.8864 44.7162 41.4091C44.7162 41.3136 44.8154 41.3136 44.9145 41.2182C45.3111 40.7409 45.6085 40.1682 45.6085 39.5C45.6085 38.8318 45.4103 38.2591 44.9145 37.7818C44.6171 37.4955 44.4188 37.1136 44.4188 36.6364C44.4188 35.8727 45.1128 35.2045 45.906 35.2045C46.6991 35.2045 47.3932 35.8727 47.3932 36.6364C47.3932 37.0182 47.1949 37.4 46.8974 37.6864C46.5009 38.1636 46.2034 38.7364 46.2034 39.5C46.2034 40.1682 46.4017 40.7409 46.8974 41.2182ZM48.7812 40.8364C47.988 40.8364 47.294 40.1682 47.294 39.4045C47.294 38.6409 47.988 37.9727 48.7812 37.9727C49.5744 37.9727 50.2684 38.6409 50.2684 39.4045C50.2684 40.2636 49.5744 40.8364 48.7812 40.8364ZM52.6479 41.2182C52.747 41.3136 52.747 41.3136 52.6479 41.2182C52.747 41.4091 52.8462 41.4091 52.8462 41.4091C52.8462 41.4091 52.8462 41.4091 52.8462 41.5045L52.9453 41.6C52.9453 41.6955 53.0444 41.7909 53.0444 41.8864C53.0444 41.9818 53.1436 42.1727 53.1436 42.2682C53.1436 42.4591 53.1436 42.5545 53.0444 42.65C53.0444 42.7455 52.9453 42.8409 52.9453 42.9364C52.9453 42.9364 52.9453 43.0318 52.8462 43.0318C52.8462 43.0318 52.8462 43.0318 52.8462 43.1273C52.747 43.2227 52.747 43.2227 52.6479 43.3182C52.3504 43.5091 52.053 43.7 51.6564 43.7C51.2598 43.7 50.9624 43.6045 50.665 43.3182C50.5658 43.2227 50.5658 43.2227 50.4667 43.1273C50.4667 43.1273 50.4667 43.1273 50.4667 43.0318L50.3675 42.9364C50.3675 42.8409 50.2684 42.7455 50.2684 42.65C50.2684 42.5545 50.1692 42.3636 50.1692 42.2682C50.1692 42.0773 50.1692 41.9818 50.2684 41.8864C50.2684 41.7909 50.3675 41.6955 50.3675 41.6C50.3675 41.6 50.3675 41.5045 50.4667 41.5045C50.4667 41.5045 50.4667 41.5045 50.4667 41.4091L50.5658 41.3136L50.665 41.2182C51.0615 40.7409 51.359 40.1682 51.359 39.5C51.359 38.8318 51.1607 38.2591 50.665 37.7818C50.3675 37.4955 50.1692 37.1136 50.1692 36.7318C50.1692 35.9682 50.8632 35.3 51.6564 35.3C52.4496 35.3 53.1436 35.9682 53.1436 36.7318C53.1436 37.1136 52.9453 37.4955 52.6479 37.7818C52.2513 38.2591 51.9538 38.8318 51.9538 39.5955C51.9538 40.1682 52.2513 40.7409 52.6479 41.2182Z" fill="#F8E19A"/>
<path d="M66.231 47.3271V31.5771H70.3951V44.1771H77.7318V47.3271H66.231Z" fill="white"/>
<path d="M150.405 47.3271L142.275 39.4999L150.405 31.6726H144.456L139.301 36.6362V31.5771H135.137V47.3271H139.301V42.3635L144.456 47.3271H150.405Z" fill="white"/>
<path d="M102.914 44.2726L101.923 47.3271H97.5605L103.212 31.5771H108.764L114.415 47.3271H110.053L109.061 44.2726L108.07 41.3135L105.988 34.7271L103.807 41.3135L102.914 44.2726Z" fill="white"/>
<path d="M121.157 37.0181V47.3271H117.191V31.5771H122.347L128.494 42.3635V31.5771H132.46V47.3271H127.304L121.157 37.0181Z" fill="white"/>
<path d="M94.4873 41.2181C94.289 40.7408 93.9916 40.359 93.6942 39.9771C93.3967 39.6908 93.0001 39.4044 92.5044 39.2135C92.1078 39.0226 91.6121 38.9271 91.2155 38.8317C91.6121 38.7362 92.0087 38.6408 92.4053 38.4499C92.8019 38.259 93.0993 38.0681 93.3967 37.7817C93.6942 37.4953 93.8925 37.209 93.9916 36.7317C94.1899 36.3499 94.1899 35.8726 94.1899 35.3953C94.1899 34.9181 94.0907 34.4408 93.9916 33.9635C93.7933 33.4862 93.595 33.1044 93.0993 32.7226C92.7027 32.3408 92.207 32.0544 91.513 31.8635C90.8189 31.6726 90.0258 31.5771 89.0343 31.5771H84.5728H82.2925H80.4087V47.3271H82.2925H84.5728H89.6292C91.3147 47.3271 92.5044 46.9453 93.3967 46.1817C94.289 45.4181 94.6856 44.3681 94.6856 43.0317C94.7848 42.3635 94.6856 41.7908 94.4873 41.2181ZM84.6719 34.1544H89.0343C89.4309 34.1544 89.7284 34.2499 90.0258 34.3453C90.3232 34.4408 90.5215 34.5362 90.7198 34.7271C90.9181 34.9181 91.0172 35.109 91.1164 35.2999C91.2155 35.4908 91.2155 35.6817 91.2155 35.9681C91.2155 36.4453 91.0172 36.9226 90.7198 37.209C90.4224 37.5908 89.8275 37.6862 89.0343 37.6862H84.6719V34.1544ZM91.2155 43.9862C90.9181 44.3681 90.3232 44.4635 89.5301 44.4635H84.6719V40.9317H89.5301C89.9266 40.9317 90.2241 41.0271 90.5215 41.1226C90.8189 41.2181 91.0172 41.3135 91.2155 41.5044C91.4138 41.6953 91.513 41.8862 91.6121 42.0771C91.7113 42.2681 91.7113 42.459 91.7113 42.7453C91.7113 43.2226 91.6121 43.6999 91.2155 43.9862Z" fill="white"/>
</g>
<defs>
<clipPath id="clip0_234_6318">
<rect width="116" height="21" fill="white" transform="translate(35 29)"/>
</clipPath>
</defs>
</svg>
