<svg width="current" height="current" viewBox="0 0 186 80" fill="none" xmlns="http://www.w3.org/2000/svg">
<path d="M48.8774 43.562L42.7847 32.9643C41.4396 30.7614 38.1954 30.7217 36.9096 33.0635L30.5004 44.0979C29.3136 46.1221 30.7774 48.6624 33.1709 48.6624H45.9893C48.4027 48.6624 50.2028 46.0428 48.8774 43.562Z" fill="#00B897"/>
<path d="M40.0743 44.395L39.6984 43.7401C39.3424 43.1249 38.5709 41.815 38.5709 41.815L33.4079 32.8248C32.3793 31.257 30.2825 30.8402 28.7197 31.8722C28.2252 32.1898 27.8296 32.6462 27.5724 33.1821L21.5786 43.6012C20.6489 45.2087 21.2028 47.2727 22.8248 48.2054C23.3392 48.5031 23.9128 48.6619 24.5063 48.6619H45.9296C42.6261 48.6817 41.5777 46.9551 40.0743 44.395Z" fill="#76FCB2"/>
<path d="M40.0742 44.3958L39.6984 43.7409C39.3423 43.1256 38.5708 41.8158 38.5708 41.8158L35.2475 35.9414L30.4604 44.1179C29.2735 46.1422 30.7374 48.6825 33.1309 48.6825H45.9295C42.6062 48.6627 41.5776 46.9559 40.0742 44.3958Z" fill="url(#paint0_linear_234_6314)"/>
<path d="M163.847 47.8285C163.115 47.8484 162.403 47.6698 161.79 47.3126C161.256 46.9752 160.939 46.3798 160.979 45.7447V35.4844H162.344C162.838 35.4844 163.254 35.9011 163.254 36.3973V45.4272C163.274 45.7249 163.392 46.0027 163.61 46.221C163.827 46.4393 164.124 46.5584 164.421 46.5584H164.678C164.777 46.5584 164.876 46.6378 164.876 46.7569V47.8682L163.847 47.8285Z" fill="#00B897"/>
<path d="M134.551 47.8285C133.146 47.8285 131.999 47.4514 131.129 46.6973C130.713 46.3599 130.397 45.9233 130.199 45.4271C130.001 44.9508 129.922 44.2761 129.922 43.3631C129.922 42.4502 130.021 41.7556 130.199 41.2992C130.397 40.8229 130.713 40.4061 131.109 40.0687C131.979 39.3146 133.126 38.9375 134.531 38.9375C135.935 38.9375 137.083 39.3146 137.953 40.0687C138.349 40.3863 138.665 40.8229 138.863 41.2992C139.081 41.9739 139.18 42.6685 139.14 43.383C139.14 44.2959 139.041 44.9905 138.863 45.447C138.665 45.9431 138.349 46.3797 137.933 46.7171C137.122 47.4514 135.955 47.8285 134.551 47.8285ZM134.551 40.2473C133.008 40.2473 132.236 41.2992 132.236 43.4028C132.236 45.5065 133.008 46.5782 134.551 46.5782C136.094 46.5782 136.865 45.5264 136.865 43.4227C136.865 41.319 136.074 40.2473 134.551 40.2473Z" fill="#00B897"/>
<path d="M144.263 47.8285C143.096 47.8484 141.949 47.511 140.96 46.8561C140.802 46.7172 140.624 46.5981 140.446 46.4989C140.386 46.4592 140.347 46.3996 140.347 46.3401V35.4844H141.731C142.226 35.4844 142.641 35.9011 142.641 36.3973V39.5726L143.057 39.3345C143.551 39.0765 144.204 38.9574 145.055 38.9574C146.538 38.9574 147.666 39.4139 148.398 40.2672C149.051 41.0412 149.387 42.0732 149.387 43.3434C149.387 44.6135 149.011 45.6455 148.259 46.3996C147.409 47.3721 146.044 47.8285 144.263 47.8285ZM144.481 40.2474C143.967 40.2474 143.373 40.4459 142.72 40.8428L142.622 40.8825V45.9829L142.72 46.0623C143.255 46.3996 143.848 46.5584 144.481 46.5584C145.272 46.5782 146.024 46.1813 146.42 45.5066C146.815 44.8715 147.033 44.1372 147.013 43.3831C147.013 41.2992 146.162 40.2474 144.481 40.2474Z" fill="#00B897"/>
<path d="M154.807 47.8087C152.235 47.8087 150.613 46.1218 150.613 43.3632C150.613 40.6046 152.196 38.9376 154.767 38.9376C155.658 38.9177 156.548 39.1757 157.28 39.6917L157.418 39.791V39.1162H159.218C159.317 39.1162 159.396 39.1956 159.396 39.2948V47.65H157.379V46.8958L157.24 47.0149C156.686 47.5309 155.796 47.8087 154.807 47.8087ZM155.262 40.4459C153.64 40.4459 152.69 41.6962 152.69 43.3632C152.69 45.0303 153.66 46.3203 155.262 46.3203C155.776 46.3203 156.666 46.2806 157.379 45.5661L157.398 45.5463V41.2596L157.379 41.2397C156.904 40.684 156.172 40.4459 155.262 40.4459Z" fill="#00B897"/>
<path d="M71.5469 47.7293V35.4844H81.6948V36.2584C81.6948 36.8736 81.2002 37.3697 80.587 37.3697H74.0591V40.6443H80.587V42.5297H74.0591V45.8241H80.587C81.2002 45.8241 81.6948 46.3203 81.6948 46.9355V47.7095L71.5469 47.7293Z" fill="white"/>
<path d="M96.2537 35.4648H93.8601C93.4249 35.4648 93.0095 35.6633 92.7326 36.0007L89.8643 39.6523L86.9762 36.0205C86.6992 35.6832 86.2838 35.4847 85.8486 35.4847H83.4551L88.3015 41.5972L83.4551 47.7098H85.8486C86.2838 47.7098 86.6992 47.5113 86.9762 47.1739L89.8643 43.562L92.7722 47.2136C93.0491 47.551 93.4645 47.7495 93.8997 47.7495H96.2933L91.427 41.6369L96.2537 35.4648Z" fill="white"/>
<path d="M63.5944 46.4192L66.9177 40.5845V47.6893H69.4497V35.4444H67.887C67.3924 35.4444 66.9375 35.7024 66.7001 36.139L62.724 43.4224L58.7479 36.139C58.5105 35.7024 58.0556 35.4245 57.561 35.4444H55.9785V47.6893H58.5105V40.5845L61.8338 46.4192H63.5944Z" fill="white"/>
<path d="M102.861 47.8688C99.3993 47.9482 96.531 45.1896 96.4717 41.7166C96.4717 41.6769 96.4717 41.657 96.4717 41.6173C96.4717 39.6923 97.0651 38.0848 98.1531 36.9932C99.2411 35.9017 100.843 35.3262 102.742 35.3262C104.978 35.3262 106.718 36.1002 107.985 37.6085L107.193 38.2832C106.699 38.7 105.967 38.7198 105.433 38.3229C104.681 37.7672 103.771 37.4894 102.841 37.5291C100.349 37.5291 98.885 39.0374 98.885 41.5776C98.885 44.1179 100.408 45.7254 102.841 45.7254C103.771 45.7453 104.681 45.4674 105.433 44.9316C105.967 44.5347 106.679 44.5545 107.193 44.9713L107.985 45.6461C106.738 47.1147 105.037 47.8688 102.861 47.8688Z" fill="white"/>
<path d="M118.449 47.8486C114.512 47.8486 112.079 45.4473 112.079 41.5972C112.079 37.7471 114.512 35.3457 118.409 35.3457C120.288 35.3457 121.851 35.8815 123.078 36.9929L122.484 37.6478C122.069 38.1043 121.416 38.2234 120.862 37.9455C120.091 37.5684 119.26 37.37 118.409 37.37C115.877 37.37 114.314 38.9974 114.314 41.5972C114.314 44.197 115.956 45.8442 118.587 45.8442C119.853 45.8442 120.842 45.606 121.554 45.0901L121.594 45.0702V42.5498H118.805V41.7361C118.805 41.1209 119.299 40.6247 119.913 40.6247H123.355C123.453 40.6247 123.552 40.7041 123.552 40.8232V46.261C122.346 47.3128 120.625 47.8486 118.449 47.8486Z" fill="#00B897"/>
<path d="M128.063 47.8285C127.331 47.8484 126.619 47.6698 126.006 47.3126C125.471 46.9752 125.155 46.3798 125.175 45.7447V35.4844H126.54C127.054 35.4844 127.45 35.9011 127.45 36.3973V45.4272C127.469 45.7249 127.588 46.0027 127.806 46.221C128.023 46.4393 128.32 46.5584 128.617 46.5584H128.874C128.973 46.5584 129.072 46.6378 129.072 46.7569V47.8682L128.063 47.8285Z" fill="#00B897"/>
<defs>
<linearGradient id="paint0_linear_234_6314" x1="28.7726" y1="40.404" x2="43.5946" y2="45.862" gradientUnits="userSpaceOnUse">
<stop stop-color="#53E57A" stop-opacity="0"/>
<stop offset="1" stop-color="#00A977"/>
</linearGradient>
</defs>
</svg>
