<svg width="current" height="current" viewBox="0 0 186 80" fill="none" xmlns="http://www.w3.org/2000/svg">
<g clip-path="url(#clip0_234_6320)">
<path d="M110.445 47.0444V27H114.68V47.0444H110.445Z" fill="#F7A600"/>
<path d="M61.0804 52.9985H52V32.9541H60.7152C64.9509 32.9541 67.4189 35.1499 67.4189 38.5847C67.4189 40.8081 65.8339 42.2449 64.7368 42.7233C66.0463 43.286 67.7226 44.5526 67.7226 47.2284C67.7226 50.9714 64.9509 52.9985 61.0804 52.9985ZM60.38 36.4456H56.2356V41.0626H60.38C62.1775 41.0626 63.1833 40.1334 63.1833 38.7533C63.1833 37.3748 62.1775 36.4456 60.38 36.4456ZM60.6538 44.5817H56.2356V49.5085H60.6538C62.5741 49.5085 63.487 48.383 63.487 47.0306C63.487 45.6797 62.5724 44.5817 60.6538 44.5817Z" fill="white"/>
<path d="M80.6419 44.778V52.9985H76.4361V44.778L69.915 32.9541H74.5158L78.5689 41.0335L82.5606 32.9541H87.1613L80.6419 44.778Z" fill="white"/>
<path d="M99.1698 52.9985H90.0894V32.9541H98.8046C103.04 32.9541 105.508 35.1499 105.508 38.5847C105.508 40.8081 103.923 42.2449 102.826 42.7233C104.136 43.286 105.812 44.5526 105.812 47.2284C105.812 50.9714 103.04 52.9985 99.1698 52.9985ZM98.4694 36.4456H94.325V41.0626H98.4694C100.267 41.0626 101.273 40.1334 101.273 38.7533C101.273 37.3748 100.267 36.4456 98.4694 36.4456ZM98.7432 44.5817H94.325V49.5085H98.7432C100.663 49.5085 101.576 48.383 101.576 47.0306C101.576 45.6797 100.663 44.5817 98.7432 44.5817Z" fill="white"/>
<path d="M128.331 36.4456V53H124.096V36.4456H118.428V32.9541H133.999V36.4456H128.331Z" fill="white"/>
</g>
<defs>
<clipPath id="clip0_234_6320">
<rect width="82" height="26" fill="white" transform="translate(52 27)"/>
</clipPath>
</defs>
</svg>
