<svg width="current" height="current" viewBox="0 0 186 80" fill="none" xmlns="http://www.w3.org/2000/svg">
<path d="M125.157 39.9998C125.157 39.3248 125.157 38.7018 125.131 38.1306C125.105 37.5595 125.054 37.0143 124.976 36.521C124.899 36.0278 124.743 35.5605 124.537 35.1191C124.33 34.6778 124.019 34.2624 123.631 33.873C123.088 33.3278 122.494 32.9125 121.821 32.6269C121.149 32.3413 120.373 32.1855 119.494 32.1855C118.615 32.1855 117.839 32.3413 117.166 32.6269C116.494 32.9125 115.873 33.3278 115.33 33.873C114.943 34.2624 114.658 34.6778 114.451 35.1191C114.244 35.5605 114.089 36.0278 114.012 36.521C113.934 37.0143 113.882 37.5595 113.856 38.1306C113.831 38.7018 113.831 39.3248 113.831 39.9998C113.831 40.6748 113.831 41.2719 113.856 41.869C113.882 42.4402 113.934 42.9853 114.012 43.4786C114.089 43.9719 114.244 44.4392 114.451 44.8805C114.658 45.3218 114.968 45.7372 115.33 46.1266C115.873 46.6718 116.468 47.0872 117.166 47.3728C117.839 47.6583 118.615 47.8141 119.494 47.8141C120.373 47.8141 121.123 47.6583 121.821 47.3728C122.494 47.0872 123.114 46.6718 123.631 46.1266C124.019 45.7372 124.304 45.3218 124.537 44.8805C124.743 44.4392 124.899 43.9719 124.976 43.4786C125.054 42.9853 125.131 42.4402 125.131 41.869C125.157 41.2719 125.157 40.6748 125.157 39.9998ZM122.183 39.9998C122.183 40.7267 122.183 41.3498 122.157 41.8431C122.132 42.3363 122.106 42.7257 122.028 43.0373C121.976 43.3488 121.899 43.6084 121.795 43.7901C121.692 43.9978 121.589 44.1796 121.433 44.3353C121.227 44.5949 120.942 44.7767 120.632 44.9324C120.296 45.0882 119.934 45.1401 119.52 45.1661C119.106 45.1661 118.744 45.0882 118.408 44.9324C118.072 44.7767 117.813 44.5949 117.58 44.3353C117.425 44.1796 117.322 43.9978 117.218 43.7901C117.115 43.5824 117.037 43.3488 116.985 43.0373C116.934 42.7257 116.882 42.3363 116.882 41.8431C116.856 41.3498 116.856 40.7527 116.856 39.9998C116.856 39.2729 116.856 38.6498 116.882 38.1566C116.908 37.6633 116.934 37.2739 116.985 36.9624C117.037 36.6508 117.115 36.3912 117.218 36.2095C117.322 36.0018 117.425 35.8201 117.58 35.6643C117.787 35.4047 118.072 35.223 118.408 35.0672C118.744 34.9115 119.106 34.8595 119.52 34.8336C119.934 34.8336 120.296 34.9115 120.632 35.0672C120.942 35.223 121.227 35.4047 121.433 35.6643C121.589 35.8201 121.692 36.0018 121.795 36.2095C121.899 36.4172 121.976 36.6508 122.028 36.9624C122.08 37.2739 122.132 37.6633 122.157 38.1566C122.157 38.6498 122.183 39.2729 122.183 39.9998Z" fill="white"/>
<path d="M149 32.575C149 32.4193 148.871 32.3154 148.742 32.3154H146.285C146.13 32.3154 146.026 32.4452 146.026 32.575V41.7393L140.001 32.3933C139.949 32.3414 139.923 32.3154 139.846 32.3154H137.544C137.415 32.3154 137.286 32.4452 137.286 32.575C137.286 37.5336 137.286 42.4922 137.286 47.4248C137.286 47.5805 137.415 47.6844 137.544 47.6844H140.001C140.156 47.6844 140.26 47.5546 140.26 47.4248V38.2345L146.285 47.6065C146.337 47.6584 146.362 47.6844 146.44 47.6844H148.742C148.897 47.6844 149 47.5546 149 47.4248V32.575Z" fill="white"/>
<path d="M132.45 32.575C132.45 32.4193 132.321 32.3154 132.191 32.3154H129.735C129.58 32.3154 129.476 32.4452 129.476 32.575V47.4248C129.476 47.5805 129.605 47.6844 129.735 47.6844H132.191C132.347 47.6844 132.45 47.5546 132.45 47.4248V32.575Z" fill="white"/>
<path d="M102.944 39.9998C102.944 39.2729 102.944 38.6498 102.969 38.1566C102.995 37.6633 103.021 37.2739 103.073 36.9624C103.306 35.6384 104.314 34.8595 105.607 34.8595C106.461 34.8595 107.21 35.1711 107.702 35.898C107.909 36.2095 108.064 36.573 108.167 36.9883C108.167 37.0403 108.193 37.0662 108.245 37.0662H111.141C111.193 37.0662 111.193 37.0403 111.193 36.9883C110.883 35.197 109.926 33.5615 108.219 32.7567C107.443 32.3932 106.538 32.1855 105.555 32.1855C103.926 32.1855 102.53 32.7567 101.418 33.873C100.771 34.522 100.358 35.3009 100.177 36.1836C99.9955 37.0403 99.918 38.3124 99.918 39.9998C99.918 41.6873 99.9955 42.9594 100.177 43.8161C100.358 44.6988 100.797 45.4776 101.418 46.1266C102.53 47.243 103.926 47.8141 105.555 47.8141C106.538 47.8141 107.417 47.6324 108.219 47.243C109.9 46.4382 110.883 44.8286 111.193 43.0113C111.193 42.9594 111.193 42.9334 111.141 42.9334H108.245C108.193 42.9334 108.167 42.9594 108.167 43.0113C108.064 43.4267 107.909 43.7901 107.702 44.1017C107.21 44.8026 106.461 45.1141 105.607 45.1401C104.314 45.1401 103.306 44.3613 103.073 43.0373C103.021 42.7257 102.969 42.3363 102.969 41.8431C102.944 41.3498 102.944 40.7267 102.944 39.9998Z" fill="white"/>
<path d="M72.2737 32.5746C72.2737 32.4189 72.1444 32.315 72.0151 32.315H69.5584C69.4032 32.315 69.2998 32.4448 69.2998 32.5746V47.4244C69.2998 47.5801 69.4291 47.684 69.5584 47.684H72.0151C72.1703 47.684 72.2737 47.5542 72.2737 47.4244V43.0629L74.2649 40.6745L78.3249 47.6061C78.3508 47.658 78.4025 47.684 78.4801 47.684H81.4798C81.6091 47.684 81.635 47.6061 81.5833 47.4763L76.2561 38.4159L81.1437 32.5227C81.2471 32.3929 81.1954 32.2891 81.0402 32.2891H77.756C77.7043 32.2891 77.6784 32.2891 77.6526 32.341L72.2737 38.8053V32.5746Z" fill="white"/>
<path d="M90.2464 45.1402C88.8499 45.1402 87.6087 43.8421 87.6087 42.3104V32.575C87.6087 32.4193 87.4794 32.3154 87.3501 32.3154H84.8934C84.7382 32.3154 84.6348 32.4452 84.6348 32.575V42.2845C84.6348 45.6854 87.169 47.8401 90.2722 47.8401C93.3754 47.8401 95.9097 45.6854 95.9097 42.2845V32.575C95.9097 32.4193 95.7804 32.3154 95.6511 32.3154H93.1944C93.0392 32.3154 92.9358 32.4452 92.9358 32.575V42.3104C92.8841 43.8421 91.6169 45.1402 90.2464 45.1402Z" fill="white"/>
<path d="M44.4735 40L52.1281 47.6845L56.9639 42.8297C57.8172 41.973 59.2137 41.973 60.0671 42.8297C60.9204 43.6865 60.9204 45.0884 60.0671 45.9451L53.6797 52.3575C52.8263 53.2142 51.4298 53.2142 50.5765 52.3575L41.3962 43.1153V48.6191C41.3962 49.8133 40.4135 50.8258 39.1981 50.8258C37.9827 50.8258 37 49.8392 37 48.6191V31.4329C37 30.2127 37.9827 29.2262 39.1981 29.2262C40.4135 29.2262 41.3962 30.2127 41.3962 31.4329V36.8847L50.6023 27.6425C51.4557 26.7858 52.8521 26.7858 53.7055 27.6425L60.0929 34.0549C60.9463 34.9116 60.9463 36.3135 60.0929 37.1702C59.2395 38.027 57.8431 38.027 56.9897 37.1702L52.1539 32.3155L44.4735 40ZM52.1539 37.7933C50.9385 37.7933 49.9558 38.7798 49.9558 40C49.9558 41.2202 50.9385 42.2067 52.1539 42.2067C53.3693 42.2067 54.352 41.2202 54.352 40C54.3262 38.7798 53.3435 37.7933 52.1539 37.7933Z" fill="#28CD96"/>
</svg>
