<svg width="current" height="current" viewBox="0 0 186 80" fill="none" xmlns="http://www.w3.org/2000/svg">
<g clip-path="url(#clip0_234_6327)">
<g clip-path="url(#clip1_234_6327)">
<path d="M108.074 26.3716H101.497L103.395 21H97.5534L91.2295 38.9091H103.386C104.756 38.9091 106.091 38.51 107.2 37.769C108.309 37.0281 109.134 35.9832 109.557 34.7842L111.147 30.2915C111.307 29.8437 111.35 29.3674 111.271 28.9016C111.193 28.4358 110.995 27.9937 110.696 27.6114C110.396 27.2291 110.002 26.9175 109.546 26.702C109.091 26.4865 108.586 26.3733 108.074 26.3716ZM105.358 30.1371L104.042 33.8604C103.831 34.4601 103.418 34.9829 102.864 35.3536C102.309 35.7244 101.642 35.9242 100.956 35.9242H98.1241L100.444 29.3564H104.741C104.843 29.3562 104.944 29.3783 105.036 29.421C105.127 29.4636 105.206 29.5256 105.266 29.6018C105.326 29.678 105.366 29.7663 105.382 29.8593C105.398 29.9524 105.389 30.0475 105.358 30.1371V30.1371Z" fill="white"/>
<path d="M118.319 21L117.053 24.5829H122.894L124.158 21H118.319Z" fill="white"/>
<path d="M111.992 38.9086H117.834L122.259 26.3711H116.421L111.992 38.9086Z" fill="white"/>
<path d="M131.019 29.3564H134.947L136 26.3716H132.072L133.971 21H128.129L123.185 35.0004C123.027 35.4487 122.986 35.925 123.067 36.3904C123.147 36.8558 123.346 37.2971 123.647 37.6783C123.948 38.0594 124.343 38.3696 124.8 38.5835C125.256 38.7974 125.761 38.909 126.273 38.9091H132.756L133.812 35.9242H129.588C129.486 35.924 129.386 35.9017 129.295 35.859C129.205 35.8163 129.126 35.7545 129.067 35.6786C129.007 35.6027 128.968 35.5149 128.953 35.4224C128.937 35.3299 128.946 35.2353 128.977 35.1464L131.019 29.3564Z" fill="white"/>
<path d="M67.6771 27.2505L74.0651 21H67.2223L61.9514 35.9242H57.5687C57.467 35.923 57.3671 35.8998 57.277 35.8566C57.1868 35.8134 57.109 35.7514 57.0496 35.6755C56.9902 35.5996 56.951 35.5119 56.9352 35.4195C56.9193 35.3272 56.9272 35.2327 56.9582 35.1436L61.9484 21H56.1067L51.1624 35.006C51.0044 35.4536 50.9638 35.9291 51.0439 36.3939C51.1239 36.8586 51.3224 37.2993 51.623 37.68C51.9237 38.0606 52.318 38.3704 52.7736 38.584C53.2293 38.7977 53.7335 38.909 54.245 38.9091H66.7371L71.1626 26.3716L67.6771 27.2505Z" fill="white"/>
<path d="M89.2855 21H75.8564L77.8585 27.2505L74.9926 26.3744L70.5488 38.9091H76.3905L78.4995 32.9394H84.8142C86.1839 32.9388 87.5184 32.5395 88.6264 31.7985C89.7344 31.0576 90.5591 30.013 90.9824 28.8145L92.365 24.903C92.5222 24.4558 92.5623 23.9806 92.4821 23.5164C92.4019 23.0521 92.2037 22.6118 91.9035 22.2314C91.6033 21.851 91.2098 21.5412 90.7548 21.3272C90.2999 21.1132 89.7964 21.0011 89.2855 21V21ZM86.5752 24.7626L85.4704 27.8935C85.2584 28.4927 84.8457 29.0149 84.2914 29.3851C83.7371 29.7553 83.0697 29.9547 82.3847 29.9545H79.5524L81.6614 23.9848H85.9618C86.0637 23.9846 86.1644 24.0066 86.2553 24.0491C86.3462 24.0916 86.4249 24.1534 86.4848 24.2294C86.5447 24.3053 86.5841 24.3933 86.5998 24.486C86.6156 24.5787 86.6071 24.6735 86.5752 24.7626V24.7626Z" fill="white"/>
</g>
<path d="M73.2868 45.8621V56.0996H70.8188V45.8621H73.2868ZM79.3969 45.8621L75.4313 51.0512L73.111 53.5895L72.661 51.3254L74.1446 49.0754L76.3524 45.8621H79.3969ZM76.479 56.0996L73.8352 51.4871L75.7547 50.0738L79.3969 56.0996H76.479ZM88.8993 50.777V51.1918C88.8993 51.9746 88.7891 52.6777 88.5688 53.3012C88.3532 53.9199 88.0461 54.4496 87.6477 54.8902C87.2493 55.3262 86.7782 55.6613 86.2344 55.8957C85.6907 56.1254 85.0907 56.2402 84.4344 56.2402C83.7735 56.2402 83.1688 56.1254 82.6203 55.8957C82.0766 55.6613 81.6032 55.3262 81.2 54.8902C80.8016 54.4496 80.4922 53.9199 80.2719 53.3012C80.0563 52.6777 79.9485 51.9746 79.9485 51.1918V50.777C79.9485 49.9941 80.0563 49.291 80.2719 48.6676C80.4922 48.0441 80.7993 47.5145 81.193 47.0785C81.5914 46.6379 82.0625 46.3027 82.6063 46.073C83.1547 45.8387 83.7594 45.7215 84.4203 45.7215C85.0766 45.7215 85.6766 45.8387 86.2203 46.073C86.7688 46.3027 87.2422 46.6379 87.6407 47.0785C88.0391 47.5145 88.3485 48.0441 88.5688 48.6676C88.7891 49.291 88.8993 49.9941 88.8993 50.777ZM86.3961 51.1918V50.7629C86.3961 50.2566 86.3516 49.8113 86.2625 49.427C86.1782 49.0379 86.0516 48.7121 85.8828 48.4496C85.7141 48.1871 85.5055 47.9902 85.2571 47.859C85.0133 47.723 84.7344 47.6551 84.4203 47.6551C84.0922 47.6551 83.8063 47.723 83.5625 47.859C83.3188 47.9902 83.1149 48.1871 82.9508 48.4496C82.7868 48.7121 82.6625 49.0379 82.5782 49.427C82.4985 49.8113 82.4586 50.2566 82.4586 50.7629V51.1918C82.4586 51.6934 82.4985 52.1387 82.5782 52.5277C82.6625 52.9121 82.7868 53.2379 82.9508 53.5051C83.1196 53.7723 83.3258 53.9738 83.5696 54.1098C83.818 54.2457 84.1063 54.3137 84.4344 54.3137C84.7485 54.3137 85.0274 54.2457 85.2711 54.1098C85.5149 53.9738 85.7188 53.7723 85.8828 53.5051C86.0516 53.2379 86.1782 52.9121 86.2625 52.5277C86.3516 52.1387 86.3961 51.6934 86.3961 51.1918ZM90.6109 45.8621H94.6398C95.4273 45.8621 96.1117 45.9793 96.693 46.2137C97.2742 46.448 97.7219 46.7949 98.0359 47.2543C98.3547 47.7137 98.5141 48.2809 98.5141 48.9559C98.5141 49.5418 98.4227 50.0316 98.2398 50.4254C98.057 50.8191 97.8016 51.1449 97.4734 51.4027C97.15 51.6559 96.7727 51.8645 96.3414 52.0285L95.5328 52.4855H92.1508L92.1367 50.5801H94.6398C94.9539 50.5801 95.2141 50.5238 95.4203 50.4113C95.6266 50.2988 95.7813 50.1395 95.8844 49.9332C95.9922 49.7223 96.0461 49.4715 96.0461 49.1809C96.0461 48.8855 95.9922 48.6324 95.8844 48.4215C95.7766 48.2105 95.6172 48.0488 95.4063 47.9363C95.2 47.8238 94.9445 47.7676 94.6398 47.7676H93.0789V56.0996H90.6109V45.8621ZM96.2148 56.0996L93.9508 51.5715L96.5664 51.5574L98.8586 55.9941V56.0996H96.2148ZM107.482 54.2012V56.0996H102.026V54.2012H107.482ZM102.905 45.8621V56.0996H100.437V45.8621H102.905ZM106.779 49.9262V51.7613H102.026V49.9262H106.779ZM107.503 45.8621V47.7676H102.026V45.8621H107.503ZM113.265 48.0137L110.769 56.0996H108.118L111.88 45.8621H113.56L113.265 48.0137ZM115.332 56.0996L112.829 48.0137L112.505 45.8621H114.207L117.99 56.0996H115.332ZM115.234 52.2816V54.1871H109.981V52.2816H115.234Z" fill="white"/>
</g>
<defs>
<clipPath id="clip0_234_6327">
<rect width="85" height="38" fill="white" transform="translate(51 21)"/>
</clipPath>
<clipPath id="clip1_234_6327">
<rect width="85" height="17.9091" fill="white" transform="translate(51 21)"/>
</clipPath>
</defs>
</svg>
