<svg width="current" height="current" viewBox="0 0 186 80" fill="none" xmlns="http://www.w3.org/2000/svg">
<g clip-path="url(#clip0_234_6316)">
<path d="M74.2443 34.7178C69.2768 34.7178 65.6777 38.1471 65.6777 42.8829C65.6777 47.6188 69.2829 51.0492 74.2505 51.0492C79.218 51.0492 82.8244 47.6151 82.8244 42.8829C82.8244 38.1506 79.218 34.7178 74.2505 34.7178H74.2443ZM78.6412 42.8829C78.6412 45.6667 76.7946 47.6867 74.2505 47.6867C71.7063 47.6867 69.8597 45.6667 69.8597 42.8829C69.8597 40.055 71.666 38.079 74.2505 38.079C76.8349 38.079 78.6412 40.055 78.6412 42.8829Z" fill="white"/>
<path d="M58.5103 42.0809L65.2824 35.0496H59.9365L54.112 41.4131V27.9932H50V50.569H54.112V42.822L60.1899 50.569H65.677L58.5103 42.0809Z" fill="white"/>
<path d="M112.787 36.9825C112.09 36.2267 111.24 35.6251 110.292 35.2174C109.344 34.8097 108.319 34.6051 107.285 34.6169C106.088 34.5975 104.907 34.8872 103.858 35.4575C103.462 35.6747 103.092 35.937 102.757 36.2392C102.525 36.4494 102.308 36.6753 102.108 36.9153V27.9932H98.0117V50.6011H101.915V48.478C102.448 49.2759 103.188 49.917 104.058 50.3345C105.032 50.8091 106.103 51.0533 107.188 51.0478C108.253 51.0697 109.31 50.8622 110.285 50.4395C111.26 50.0169 112.131 49.3894 112.837 48.6005C113.515 47.8325 114.037 46.9425 114.374 45.979C114.738 44.9463 114.921 43.8594 114.913 42.7657C114.921 41.6755 114.733 40.5928 114.357 39.5679C114.008 38.6138 113.474 37.7359 112.787 36.9825ZM106.414 47.6374C103.524 47.6374 101.979 45.0028 101.979 42.8342C101.979 40.5934 103.557 37.9684 106.414 37.9684C109.579 37.9684 110.752 40.7615 110.752 42.7717C110.752 45.1734 109.253 47.6386 106.414 47.6386" fill="white"/>
<path d="M119.934 27.5127C119.426 27.5127 118.928 27.6677 118.505 27.958C118.082 28.2484 117.753 28.661 117.558 29.1438C117.363 29.6266 117.313 30.1579 117.412 30.6704C117.511 31.1829 117.756 31.6536 118.116 32.023C118.476 32.3925 118.934 32.644 119.433 32.7458C119.932 32.8476 120.449 32.7951 120.919 32.595C121.389 32.3948 121.791 32.056 122.073 31.6214C122.356 31.1868 122.507 30.6759 122.506 30.1533C122.505 29.4531 122.234 28.7818 121.752 28.2868C121.27 27.7917 120.616 27.5133 119.934 27.5127Z" fill="white"/>
<path d="M122.016 35.1982H117.852V50.569H122.016V35.1982Z" fill="white"/>
<path d="M95.5582 34.8066V38.704C95.1362 38.6307 94.708 38.5953 94.2792 38.598C91.5421 38.598 90.1489 40.8046 90.1489 42.5431V50.5689H86.0088V35.1639H89.9846V37.5204C90.3978 36.7532 90.9819 36.0849 91.6941 35.564C92.5127 34.9973 93.4972 34.7009 94.5024 34.7185C94.8579 34.7156 95.2128 34.7467 95.562 34.8114" fill="white"/>
<path d="M135 38.3135V35.0492H131.046V30.6348H126.925V35.0492H124.222V38.3159H126.925V45.3062C126.921 46.0119 126.993 46.7161 127.141 47.4073C127.277 48.0417 127.553 48.6404 127.952 49.1623C128.372 49.6912 128.927 50.1071 129.564 50.3697C130.235 50.6608 131.116 50.8088 132.182 50.8088C132.653 50.8119 133.123 50.7719 133.586 50.6895C134.066 50.6011 134.998 50.2325 134.998 50.1872V47.0744C134.341 47.2021 133.675 47.2842 133.005 47.3202C132.204 47.3202 131.681 47.1197 131.406 46.7057C131.183 46.3717 131.045 45.7512 131.045 45.0855V38.3135H135Z" fill="white"/>
</g>
<defs>
<clipPath id="clip0_234_6316">
<rect width="85" height="23.9744" fill="white" transform="translate(50 27.5127)"/>
</clipPath>
</defs>
</svg>
