<svg width="current" height="current" viewBox="0 0 186 80" fill="none" xmlns="http://www.w3.org/2000/svg">
<g clip-path="url(#clip0_234_6310)">
<path d="M111.003 41.8468C110.62 43.1821 109.835 44.1375 108.433 44.1375C107.03 44.1375 106.795 43.1824 107.178 41.8468L109.079 35.2285H105.254L103.353 41.8468C102.325 45.4261 103.785 47.4465 107.482 47.4465C111.18 47.4465 113.8 45.4261 114.828 41.8468L116.729 35.2285H112.905L111.003 41.8468Z" fill="white"/>
<path d="M131.647 35.2284C130.064 35.2284 128.694 35.6192 127.547 36.3232C126.771 35.5237 125.623 35.2306 124.629 35.2306C123.88 35.2306 122.904 35.4257 121.765 36.1929C121.698 36.2377 121.645 36.2862 121.583 36.3326C121.469 35.6771 120.94 35.2197 120.17 35.2197H118.257L114.745 47.4464H118.57L120.474 40.8197C120.915 39.2856 121.968 38.2826 122.988 38.2826C124.263 38.2826 124.769 39.2001 124.303 40.8197L124.301 40.8278L122.4 47.4461H126.22H126.225L128.126 40.8278C128.51 39.4925 129.367 38.2814 130.77 38.2814C132.172 38.2814 132.334 39.4922 131.951 40.8278L130.05 47.4461H133.875L135.776 40.8278C136.804 37.2485 135.345 35.2281 131.647 35.2281V35.2284Z" fill="white"/>
<path d="M89.117 32.8178C89.4196 31.7638 88.8087 30.9092 87.7528 30.9092H85.8398L81.8183 44.9092C81.4144 46.3151 82.2288 47.4547 83.6372 47.4547H87.2061L88.3029 43.6364H86.3478C86.1783 43.6364 86.0558 43.4743 86.1025 43.3116L87.3268 39.0547H87.7079C88.7642 39.0547 89.8659 38.2001 90.1689 37.1457L90.7171 35.2364H88.4235L89.1176 32.8178H89.117Z" fill="white"/>
<path d="M98.8784 35.2308C98.1391 35.2308 97.1789 35.4234 96.0603 36.1641L97.0237 32.8103C97.3266 31.756 96.7157 30.9014 95.6595 30.9014H93.7471L88.9941 47.4466H92.8189L94.7226 40.8199C95.1633 39.2858 96.2161 38.2828 97.2362 38.2828C98.5113 38.2828 99.0171 39.2003 98.5521 40.8199L96.6484 47.4466H100.469L102.373 40.8199C103.628 36.4503 100.921 35.2308 98.8784 35.2308V35.2308Z" fill="white"/>
<path d="M71.9764 35.2283C71.2789 35.2283 70.6172 35.3104 69.9948 35.4682L70.7584 32.8103C71.0614 31.756 70.4505 30.9014 69.3943 30.9014H67.4819L64.4839 41.3376C63.3872 45.1559 64.7691 47.4466 68.4667 47.4466C72.1644 47.4466 74.8622 45.1559 75.9592 41.3376C77.056 37.5193 75.6741 35.2283 71.9764 35.2283V35.2283ZM69.3977 44.2051C67.9952 44.2051 67.854 42.9211 68.3087 41.3376C68.7637 39.754 69.6427 38.4701 71.0449 38.4701C72.447 38.4701 72.5885 39.754 72.1335 41.3376C71.6785 42.9211 70.7999 44.2051 69.3974 44.2051H69.3977Z" fill="white"/>
<path d="M144.652 35.2283C143.954 35.2283 143.293 35.3104 142.67 35.4682L143.434 32.8103C143.737 31.756 143.126 30.9014 142.07 30.9014H140.157L137.159 41.3376C136.062 45.1559 137.444 47.4466 141.142 47.4466C144.84 47.4466 147.537 45.1559 148.635 41.3376C149.731 37.5193 148.349 35.2283 144.652 35.2283V35.2283ZM142.073 44.2051C140.671 44.2051 140.53 42.9211 140.984 41.3376C141.439 39.754 142.318 38.4701 143.72 38.4701C145.123 38.4701 145.264 39.754 144.809 41.3376C144.354 42.9211 143.475 44.2051 142.073 44.2051H142.073Z" fill="white"/>
<path d="M80.9012 35.2285H78.9888L75.4766 47.4552H79.3017L82.2653 37.1378C82.5683 36.0834 81.9574 35.2288 80.9012 35.2288V35.2285Z" fill="white"/>
<path d="M82.1421 30.9102C81.0858 30.9102 79.9841 31.7651 79.6811 32.8191C79.3782 33.8735 79.989 34.7281 81.0453 34.7281C82.1015 34.7281 83.2033 33.8732 83.5062 32.8191C83.8092 31.7648 83.1983 30.9102 82.1421 30.9102Z" fill="white"/>
<path d="M39.7858 36.0005H39.4033C37.643 36.0005 36.6251 34.5759 37.1297 32.8187L38.4094 28.3643H41.9796L39.7861 36.0008L39.7858 36.0005Z" fill="#D1350F"/>
<path d="M50.7768 28.3638H48.6094L46.4159 36.0003H48.5835C49.9861 36.0003 50.4464 37.0609 49.8371 39.182C49.2278 41.3035 48.1581 42.3641 46.7556 42.3641C45.3531 42.3641 44.8928 41.3035 45.5021 39.182L49.5232 25.1817C50.0281 23.4246 49.0102 22 47.2499 22H42.7874L37.8516 39.1817C35.7799 46.3939 38.569 50 44.5615 50C50.5539 50 55.415 46.3939 57.4867 39.1817C59.5583 31.9696 56.7692 28.3635 50.7768 28.3635V28.3638Z" fill="#FF8200"/>
<path d="M57.4863 39.1815C59.558 31.9694 56.7688 28.3633 50.7764 28.3633H48.6091L46.4155 35.9998H48.5832C49.9857 35.9998 50.446 37.0604 49.8367 39.1815" fill="url(#paint0_linear_234_6310)"/>
</g>
<defs>
<linearGradient id="paint0_linear_234_6310" x1="53.9754" y1="37.2387" x2="50.4716" y2="31.2798" gradientUnits="userSpaceOnUse">
<stop stop-color="#FF8200"/>
<stop offset="1" stop-color="#D1350F"/>
</linearGradient>
<clipPath id="clip0_234_6310">
<rect width="112" height="28" fill="white" transform="translate(37 22)"/>
</clipPath>
</defs>
</svg>
