<svg width="1em" height="1em" viewBox="0 0 32 32" fill="none" xmlns="http://www.w3.org/2000/svg">
<g clip-path="url(#clip0_1890_40827)">
<path d="M31.4545 11.8582C32.1179 14.4115 31.9412 16.4848 31.1579 18.0532C30.6062 19.1598 29.4512 19.8381 28.2413 19.8381C27.0313 19.8381 25.9496 19.2215 25.3213 18.0482C23.7996 15.2065 25.3063 11.8149 25.483 8.24329C25.4163 8.25829 25.3496 8.27495 25.283 8.29329C22.8263 8.97994 20.0897 12.2182 18.1331 14.8015C18.3381 18.9815 18.5231 23.9114 21.5997 26.1464C22.5063 26.778 23.608 27.1497 24.798 27.1497C26.6863 27.1497 28.3613 26.2097 29.3746 24.7764C31.0329 22.2564 31.9979 19.2381 31.9979 15.9965C31.9979 14.5632 31.8062 13.1782 31.4529 11.8549L31.4545 11.8582Z" fill="url(#paint0_radial_1890_40827)"/>
<path d="M21.5798 1.00171C23.4215 1.80337 24.9031 3.47834 25.3265 5.68998C25.4915 6.5483 25.5231 7.40163 25.4815 8.24495C28.0981 7.62996 30.7514 9.2366 31.453 11.8599C30.1097 6.84497 26.3931 2.79335 21.5798 1.00171V1.00171Z" fill="#AB1EED"/>
<path d="M31.4547 11.8582C30.7513 9.23661 28.0997 7.62829 25.4831 8.24329C25.3064 11.8149 23.7998 15.2082 25.3214 18.0482C25.9497 19.2215 27.0631 19.8381 28.2414 19.8381C29.4197 19.8381 30.6064 19.1581 31.158 18.0532C31.9413 16.4848 32.118 14.4115 31.4547 11.8582V11.8582Z" fill="#F478C4"/>
<path d="M9.43985 3.83995C13.7415 3.83995 17.2931 7.04491 17.8431 11.1965C18.0014 12.2532 18.0681 13.4915 18.1314 14.8031C20.088 12.2182 22.8247 8.97988 25.2813 8.29489C25.348 8.27656 25.4146 8.25989 25.4813 8.24489C25.523 7.40157 25.4913 6.54825 25.3263 5.68993C24.903 3.47829 23.4197 1.80164 21.5797 1.00165C19.843 0.354995 17.9631 0 15.9998 0C10.0832 0 4.92158 3.21329 2.15161 7.98656C3.70992 5.4166 6.36156 3.83995 9.43985 3.83995V3.83995Z" fill="url(#paint1_radial_1890_40827)"/>
<path d="M24.798 27.153C23.608 27.153 22.5064 26.7813 21.5997 26.148C18.5231 23.913 18.3381 18.9831 18.1331 14.8031C18.0681 13.4915 18.0031 12.2531 17.8448 11.1948C17.2948 7.04322 13.7432 3.83826 9.44154 3.83826C6.36325 3.83826 3.71162 5.4149 2.15331 7.98487C2.13164 8.02154 2.10831 8.0582 2.08664 8.09487C0.758324 10.4282 0 13.1265 0 15.9998C0 24.8363 7.16324 31.9996 15.9998 31.9996C21.5931 31.9996 26.5147 29.1296 29.3746 24.7813C28.3596 26.2113 26.6863 27.1513 24.798 27.1513V27.153Z" fill="url(#paint2_radial_1890_40827)"/>
</g>
<defs>
<radialGradient id="paint0_radial_1890_40827" cx="0" cy="0" r="1" gradientUnits="userSpaceOnUse" gradientTransform="translate(15.5014 16.4915) scale(16.8631 16.8631)">
<stop offset="0.5" stop-color="#9ED6FF" stop-opacity="0"/>
<stop offset="0.57" stop-color="#9ED6FF" stop-opacity="0.04"/>
<stop offset="0.69" stop-color="#9ED6FF" stop-opacity="0.13"/>
<stop offset="0.83" stop-color="#9ED6FF" stop-opacity="0.29"/>
<stop offset="1" stop-color="#9ED6FF" stop-opacity="0.5"/>
</radialGradient>
<radialGradient id="paint1_radial_1890_40827" cx="0" cy="0" r="1" gradientUnits="userSpaceOnUse" gradientTransform="translate(10.1915 12.0965) scale(16.8998 16.8998)">
<stop offset="0.2" stop-color="#B873EE" stop-opacity="0"/>
<stop offset="0.27" stop-color="#B873EE" stop-opacity="0.04"/>
<stop offset="0.39" stop-color="#B873EE" stop-opacity="0.14"/>
<stop offset="0.54" stop-color="#B873EE" stop-opacity="0.31"/>
<stop offset="0.71" stop-color="#B873EE" stop-opacity="0.54"/>
<stop offset="0.9" stop-color="#B873EE" stop-opacity="0.83"/>
<stop offset="1" stop-color="#B873EE"/>
</radialGradient>
<radialGradient id="paint2_radial_1890_40827" cx="0" cy="0" r="1" gradientUnits="userSpaceOnUse" gradientTransform="translate(7.70657 4.00992) scale(30.5663)">
<stop stop-color="#7635FF"/>
<stop offset="0.15" stop-color="#7739FF"/>
<stop offset="0.31" stop-color="#7A45FF"/>
<stop offset="0.47" stop-color="#7F5AFF"/>
<stop offset="0.63" stop-color="#8677FF"/>
<stop offset="0.8" stop-color="#8F9CFF"/>
<stop offset="0.96" stop-color="#9BCAFF"/>
<stop offset="1" stop-color="#9ED6FF"/>
</radialGradient>
<clipPath id="clip0_1890_40827">
<rect width="31.9996" height="31.9996" fill="white"/>
</clipPath>
</defs>
</svg>
