<svg width="17" height="16" viewBox="0 0 17 16" fill="none" xmlns="http://www.w3.org/2000/svg">
<path d="M5 4C4.72386 4 4.5 4.22386 4.5 4.5C4.5 4.77614 4.72386 5 5 5V4ZM8 5C8.27614 5 8.5 4.77614 8.5 4.5C8.5 4.22386 8.27614 4 8 4V5ZM11 8C10.7239 8 10.5 8.22386 10.5 8.5C10.5 8.77614 10.7239 9 11 9V8ZM12 9C12.2761 9 12.5 8.77614 12.5 8.5C12.5 8.22386 12.2761 8 12 8V9ZM2 3V13H3V3H2ZM3.5 14.5H13.5V13.5H3.5V14.5ZM15 13V3H14V13H15ZM13.5 1.5H3.5V2.5H13.5V1.5ZM15 3C15 2.17157 14.3284 1.5 13.5 1.5V2.5C13.7761 2.5 14 2.72386 14 3H15ZM13.5 14.5C14.3284 14.5 15 13.8284 15 13H14C14 13.2761 13.7761 13.5 13.5 13.5V14.5ZM2 13C2 13.8284 2.67157 14.5 3.5 14.5V13.5C3.22386 13.5 3 13.2761 3 13H2ZM3 3C3 2.72386 3.22386 2.5 3.5 2.5V1.5C2.67157 1.5 2 2.17157 2 3H3ZM11 10.5H14.5V9.5H11V10.5ZM14.5 6.5H11V7.5H14.5V6.5ZM9 8.5C9 9.60457 9.89543 10.5 11 10.5V9.5C10.4477 9.5 10 9.05228 10 8.5H9ZM10 8.5C10 7.94772 10.4477 7.5 11 7.5V6.5C9.89543 6.5 9 7.39543 9 8.5H10ZM5 5C5.00229 5 5.00457 5 5.00686 5C5.00914 5 5.01143 5 5.01371 5C5.01599 5 5.01826 5 5.02054 5C5.02282 5 5.02509 5 5.02736 5C5.02964 5 5.03191 5 5.03418 5C5.03645 5 5.03871 5 5.04098 5C5.04324 5 5.04551 5 5.04777 5C5.05003 5 5.05229 5 5.05454 5C5.0568 5 5.05906 5 5.06131 5C5.06356 5 5.06582 5 5.06807 5C5.07032 5 5.07256 5 5.07481 5C5.07705 5 5.0793 5 5.08154 5C5.08378 5 5.08602 5 5.08826 5C5.0905 5 5.09274 5 5.09497 5C5.09721 5 5.09944 5 5.10167 5C5.1039 5 5.10613 5 5.10836 5C5.11059 5 5.11281 5 5.11504 5C5.11726 5 5.11948 5 5.1217 5C5.12392 5 5.12614 5 5.12836 5C5.13057 5 5.13279 5 5.135 5C5.13721 5 5.13942 5 5.14163 5C5.14384 5 5.14605 5 5.14825 5C5.15046 5 5.15266 5 5.15487 5C5.15707 5 5.15927 5 5.16147 5C5.16366 5 5.16586 5 5.16806 5C5.17025 5 5.17244 5 5.17463 5C5.17683 5 5.17902 5 5.1812 5C5.18339 5 5.18558 5 5.18776 5C5.18995 5 5.19213 5 5.19431 5C5.19649 5 5.19867 5 5.20085 5C5.20302 5 5.2052 5 5.20737 5C5.20955 5 5.21172 5 5.21389 5C5.21606 5 5.21823 5 5.2204 5C5.22256 5 5.22473 5 5.22689 5C5.22905 5 5.23122 5 5.23338 5C5.23554 5 5.2377 5 5.23985 5C5.24201 5 5.24416 5 5.24632 5C5.24847 5 5.25062 5 5.25277 5C5.25492 5 5.25707 5 5.25922 5C5.26136 5 5.26351 5 5.26565 5C5.2678 5 5.26994 5 5.27208 5C5.27422 5 5.27636 5 5.27849 5C5.28063 5 5.28277 5 5.2849 5C5.28703 5 5.28917 5 5.2913 5C5.29343 5 5.29555 5 5.29768 5C5.29981 5 5.30193 5 5.30406 5C5.30618 5 5.3083 5 5.31042 5C5.31255 5 5.31466 5 5.31678 5C5.3189 5 5.32101 5 5.32313 5C5.32524 5 5.32736 5 5.32947 5C5.33158 5 5.33369 5 5.3358 5C5.3379 5 5.34001 5 5.34211 5C5.34422 5 5.34632 5 5.34842 5C5.35053 5 5.35263 5 5.35472 5C5.35682 5 5.35892 5 5.36102 5C5.36311 5 5.3652 5 5.3673 5C5.36939 5 5.37148 5 5.37357 5C5.37566 5 5.37775 5 5.37983 5C5.38192 5 5.384 5 5.38609 5C5.38817 5 5.39025 5 5.39233 5C5.39441 5 5.39649 5 5.39857 5C5.40065 5 5.40272 5 5.4048 5C5.40687 5 5.40894 5 5.41101 5C5.41308 5 5.41515 5 5.41722 5C5.41929 5 5.42136 5 5.42342 5C5.42549 5 5.42755 5 5.42962 5C5.43168 5 5.43374 5 5.4358 5C5.43786 5 5.43992 5 5.44197 5C5.44403 5 5.44608 5 5.44814 5C5.45019 5 5.45224 5 5.4543 5C5.45635 5 5.4584 5 5.46044 5C5.46249 5 5.46454 5 5.46658 5C5.46863 5 5.47067 5 5.47272 5C5.47476 5 5.4768 5 5.47884 5C5.48088 5 5.48292 5 5.48495 5C5.48699 5 5.48903 5 5.49106 5C5.49309 5 5.49513 5 5.49716 5C5.49919 5 5.50122 5 5.50325 5C5.50528 5 5.5073 5 5.50933 5C5.51135 5 5.51338 5 5.5154 5C5.51743 5 5.51945 5 5.52147 5C5.52349 5 5.52551 5 5.52753 5C5.52954 5 5.53156 5 5.53357 5C5.53559 5 5.5376 5 5.53962 5C5.54163 5 5.54364 5 5.54565 5C5.54766 5 5.54967 5 5.55168 5C5.55368 5 5.55569 5 5.55769 5C5.5597 5 5.5617 5 5.5637 5C5.56571 5 5.56771 5 5.56971 5C5.5717 5 5.5737 5 5.5757 5C5.5777 5 5.57969 5 5.58169 5C5.58368 5 5.58567 5 5.58767 5C5.58966 5 5.59165 5 5.59364 5C5.59563 5 5.59762 5 5.5996 5C5.60159 5 5.60357 5 5.60556 5C5.60754 5 5.60953 5 5.61151 5C5.61349 5 5.61547 5 5.61745 5C5.61943 5 5.62141 5 5.62339 5C5.62536 5 5.62734 5 5.62931 5C5.63129 5 5.63326 5 5.63523 5C5.63721 5 5.63918 5 5.64115 5C5.64312 5 5.64509 5 5.64705 5C5.64902 5 5.65099 5 5.65295 5C5.65492 5 5.65688 5 5.65884 5C5.66081 5 5.66277 5 5.66473 5C5.66669 5 5.66865 5 5.67061 5C5.67256 5 5.67452 5 5.67648 5C5.67843 5 5.68039 5 5.68234 5C5.68429 5 5.68625 5 5.6882 5C5.69015 5 5.6921 5 5.69405 5C5.696 5 5.69795 5 5.69989 5C5.70184 5 5.70379 5 5.70573 5C5.70767 5 5.70962 5 5.71156 5C5.7135 5 5.71544 5 5.71738 5C5.71932 5 5.72126 5 5.7232 5C5.72514 5 5.72708 5 5.72901 5C5.73095 5 5.73288 5 5.73482 5C5.73675 5 5.73868 5 5.74062 5C5.74255 5 5.74448 5 5.74641 5C5.74834 5 5.75027 5 5.75219 5C5.75412 5 5.75605 5 5.75797 5C5.7599 5 5.76182 5 5.76374 5C5.76567 5 5.76759 5 5.76951 5C5.77143 5 5.77335 5 5.77527 5C5.77719 5 5.77911 5 5.78103 5C5.78294 5 5.78486 5 5.78678 5C5.78869 5 5.79061 5 5.79252 5C5.79443 5 5.79634 5 5.79825 5C5.80017 5 5.80208 5 5.80399 5C5.80589 5 5.8078 5 5.80971 5C5.81162 5 5.81352 5 5.81543 5C5.81734 5 5.81924 5 5.82114 5C5.82305 5 5.82495 5 5.82685 5C5.82875 5 5.83065 5 5.83255 5C5.83445 5 5.83635 5 5.83825 5C5.84015 5 5.84204 5 5.84394 5C5.84584 5 5.84773 5 5.84963 5C5.85152 5 5.85341 5 5.85531 5C5.8572 5 5.85909 5 5.86098 5C5.86287 5 5.86476 5 5.86665 5C5.86854 5 5.87043 5 5.87231 5C5.8742 5 5.87609 5 5.87797 5C5.87986 5 5.88174 5 5.88362 5C5.88551 5 5.88739 5 5.88927 5C5.89115 5 5.89303 5 5.89491 5C5.89679 5 5.89867 5 5.90055 5C5.90243 5 5.90431 5 5.90618 5C5.90806 5 5.90994 5 5.91181 5C5.91369 5 5.91556 5 5.91743 5C5.91931 5 5.92118 5 5.92305 5C5.92492 5 5.9268 5 5.92867 5C5.93054 5 5.9324 5 5.93427 5C5.93614 5 5.93801 5 5.93988 5C5.94174 5 5.94361 5 5.94548 5C5.94734 5 5.94921 5 5.95107 5C5.95293 5 5.9548 5 5.95666 5C5.95852 5 5.96038 5 5.96224 5C5.9641 5 5.96596 5 5.96782 5C5.96968 5 5.97154 5 5.9734 5C5.97526 5 5.97711 5 5.97897 5C5.98083 5 5.98268 5 5.98454 5C5.98639 5 5.98824 5 5.9901 5C5.99195 5 5.9938 5 5.99566 5C5.99751 5 5.99936 5 6.00121 5C6.00306 5 6.00491 5 6.00676 5C6.00861 5 6.01046 5 6.0123 5C6.01415 5 6.016 5 6.01784 5C6.01969 5 6.02154 5 6.02338 5C6.02523 5 6.02707 5 6.02891 5C6.03076 5 6.0326 5 6.03444 5C6.03629 5 6.03813 5 6.03997 5C6.04181 5 6.04365 5 6.04549 5C6.04733 5 6.04917 5 6.05101 5C6.05285 5 6.05468 5 6.05652 5C6.05836 5 6.06019 5 6.06203 5C6.06387 5 6.0657 5 6.06754 5C6.06937 5 6.0712 5 6.07304 5C6.07487 5 6.0767 5 6.07854 5C6.08037 5 6.0822 5 6.08403 5C6.08586 5 6.08769 5 6.08952 5C6.09135 5 6.09318 5 6.09501 5C6.09684 5 6.09867 5 6.10049 5C6.10232 5 6.10415 5 6.10598 5C6.1078 5 6.10963 5 6.11145 5C6.11328 5 6.1151 5 6.11693 5C6.11875 5 6.12058 5 6.1224 5C6.12422 5 6.12604 5 6.12787 5C6.12969 5 6.13151 5 6.13333 5C6.13515 5 6.13697 5 6.13879 5C6.14061 5 6.14243 5 6.14425 5C6.14607 5 6.14789 5 6.14971 5C6.15152 5 6.15334 5 6.15516 5C6.15698 5 6.15879 5 6.16061 5C6.16242 5 6.16424 5 6.16606 5C6.16787 5 6.16969 5 6.1715 5C6.17331 5 6.17513 5 6.17694 5C6.17875 5 6.18057 5 6.18238 5C6.18419 5 6.186 5 6.18781 5C6.18963 5 6.19144 5 6.19325 5C6.19506 5 6.19687 5 6.19868 5C6.20049 5 6.2023 5 6.2041 5C6.20591 5 6.20772 5 6.20953 5C6.21134 5 6.21314 5 6.21495 5C6.21676 5 6.21857 5 6.22037 5C6.22218 5 6.22398 5 6.22579 5C6.2276 5 6.2294 5 6.23121 5C6.23301 5 6.23481 5 6.23662 5C6.23842 5 6.24023 5 6.24203 5C6.24383 5 6.24564 5 6.24744 5C6.24924 5 6.25104 5 6.25284 5C6.25465 5 6.25645 5 6.25825 5C6.26005 5 6.26185 5 6.26365 5C6.26545 5 6.26725 5 6.26905 5C6.27085 5 6.27265 5 6.27445 5C6.27625 5 6.27805 5 6.27985 5C6.28164 5 6.28344 5 6.28524 5C6.28704 5 6.28884 5 6.29063 5C6.29243 5 6.29423 5 6.29602 5C6.29782 5 6.29962 5 6.30141 5C6.30321 5 6.305 5 6.3068 5C6.3086 5 6.31039 5 6.31219 5C6.31398 5 6.31578 5 6.31757 5C6.31936 5 6.32116 5 6.32295 5C6.32475 5 6.32654 5 6.32833 5C6.33013 5 6.33192 5 6.33371 5C6.33551 5 6.3373 5 6.33909 5C6.34088 5 6.34268 5 6.34447 5C6.34626 5 6.34805 5 6.34984 5C6.35163 5 6.35343 5 6.35522 5C6.35701 5 6.3588 5 6.36059 5C6.36238 5 6.36417 5 6.36596 5C6.36775 5 6.36954 5 6.37133 5C6.37312 5 6.37491 5 6.3767 5C6.37849 5 6.38028 5 6.38207 5C6.38386 5 6.38565 5 6.38744 5C6.38923 5 6.39102 5 6.3928 5C6.39459 5 6.39638 5 6.39817 5C6.39996 5 6.40175 5 6.40353 5C6.40532 5 6.40711 5 6.4089 5C6.41069 5 6.41247 5 6.41426 5C6.41605 5 6.41784 5 6.41962 5C6.42141 5 6.4232 5 6.42498 5C6.42677 5 6.42856 5 6.43035 5C6.43213 5 6.43392 5 6.43571 5C6.43749 5 6.43928 5 6.44107 5C6.44285 5 6.44464 5 6.44643 5C6.44821 5 6.45 5 6.45178 5C6.45357 5 6.45536 5 6.45714 5C6.45893 5 6.46071 5 6.4625 5C6.46429 5 6.46607 5 6.46786 5C6.46964 5 6.47143 5 6.47322 5C6.475 5 6.47679 5 6.47857 5C6.48036 5 6.48214 5 6.48393 5C6.48572 5 6.4875 5 6.48929 5C6.49107 5 6.49286 5 6.49464 5C6.49643 5 6.49821 5 6.5 5C6.50179 5 6.50357 5 6.50536 5C6.50714 5 6.50893 5 6.51071 5C6.5125 5 6.51428 5 6.51607 5C6.51786 5 6.51964 5 6.52143 5C6.52321 5 6.525 5 6.52678 5C6.52857 5 6.53036 5 6.53214 5C6.53393 5 6.53571 5 6.5375 5C6.53929 5 6.54107 5 6.54286 5C6.54464 5 6.54643 5 6.54822 5C6.55 5 6.55179 5 6.55358 5C6.55536 5 6.55715 5 6.55893 5C6.56072 5 6.56251 5 6.56429 5C6.56608 5 6.56787 5 6.56965 5C6.57144 5 6.57323 5 6.57502 5C6.5768 5 6.57859 5 6.58038 5C6.58216 5 6.58395 5 6.58574 5C6.58753 5 6.58931 5 6.5911 5C6.59289 5 6.59468 5 6.59647 5C6.59825 5 6.60004 5 6.60183 5C6.60362 5 6.60541 5 6.6072 5C6.60898 5 6.61077 5 6.61256 5C6.61435 5 6.61614 5 6.61793 5C6.61972 5 6.62151 5 6.6233 5C6.62509 5 6.62688 5 6.62867 5C6.63046 5 6.63225 5 6.63404 5C6.63583 5 6.63762 5 6.63941 5C6.6412 5 6.64299 5 6.64478 5C6.64657 5 6.64837 5 6.65016 5C6.65195 5 6.65374 5 6.65553 5C6.65732 5 6.65912 5 6.66091 5C6.6627 5 6.66449 5 6.66629 5C6.66808 5 6.66987 5 6.67167 5C6.67346 5 6.67525 5 6.67705 5C6.67884 5 6.68064 5 6.68243 5C6.68422 5 6.68602 5 6.68781 5C6.68961 5 6.6914 5 6.6932 5C6.695 5 6.69679 5 6.69859 5C6.70038 5 6.70218 5 6.70398 5C6.70577 5 6.70757 5 6.70937 5C6.71116 5 6.71296 5 6.71476 5C6.71656 5 6.71836 5 6.72015 5C6.72195 5 6.72375 5 6.72555 5C6.72735 5 6.72915 5 6.73095 5C6.73275 5 6.73455 5 6.73635 5C6.73815 5 6.73995 5 6.74175 5C6.74355 5 6.74535 5 6.74716 5C6.74896 5 6.75076 5 6.75256 5C6.75436 5 6.75617 5 6.75797 5C6.75977 5 6.76158 5 6.76338 5C6.76519 5 6.76699 5 6.76879 5C6.7706 5 6.7724 5 6.77421 5C6.77602 5 6.77782 5 6.77963 5C6.78143 5 6.78324 5 6.78505 5C6.78686 5 6.78866 5 6.79047 5C6.79228 5 6.79409 5 6.7959 5C6.7977 5 6.79951 5 6.80132 5C6.80313 5 6.80494 5 6.80675 5C6.80856 5 6.81037 5 6.81219 5C6.814 5 6.81581 5 6.81762 5C6.81943 5 6.82125 5 6.82306 5C6.82487 5 6.82669 5 6.8285 5C6.83032 5 6.83213 5 6.83394 5C6.83576 5 6.83757 5 6.83939 5C6.84121 5 6.84302 5 6.84484 5C6.84666 5 6.84847 5 6.85029 5C6.85211 5 6.85393 5 6.85575 5C6.85757 5 6.85939 5 6.86121 5C6.86303 5 6.86485 5 6.86667 5C6.86849 5 6.87031 5 6.87213 5C6.87396 5 6.87578 5 6.8776 5C6.87942 5 6.88125 5 6.88307 5C6.8849 5 6.88672 5 6.88855 5C6.89037 5 6.8922 5 6.89402 5C6.89585 5 6.89768 5 6.89951 5C6.90133 5 6.90316 5 6.90499 5C6.90682 5 6.90865 5 6.91048 5C6.91231 5 6.91414 5 6.91597 5C6.9178 5 6.91963 5 6.92146 5C6.9233 5 6.92513 5 6.92696 5C6.9288 5 6.93063 5 6.93246 5C6.9343 5 6.93613 5 6.93797 5C6.93981 5 6.94164 5 6.94348 5C6.94532 5 6.94715 5 6.94899 5C6.95083 5 6.95267 5 6.95451 5C6.95635 5 6.95819 5 6.96003 5C6.96187 5 6.96371 5 6.96556 5C6.9674 5 6.96924 5 6.97109 5C6.97293 5 6.97477 5 6.97662 5C6.97846 5 6.98031 5 6.98216 5C6.984 5 6.98585 5 6.9877 5C6.98954 5 6.99139 5 6.99324 5C6.99509 5 6.99694 5 6.99879 5C7.00064 5 7.00249 5 7.00434 5C7.0062 5 7.00805 5 7.0099 5C7.01176 5 7.01361 5 7.01546 5C7.01732 5 7.01917 5 7.02103 5C7.02289 5 7.02474 5 7.0266 5C7.02846 5 7.03032 5 7.03218 5C7.03404 5 7.0359 5 7.03776 5C7.03962 5 7.04148 5 7.04334 5C7.0452 5 7.04707 5 7.04893 5C7.0508 5 7.05266 5 7.05452 5C7.05639 5 7.05826 5 7.06012 5C7.06199 5 7.06386 5 7.06573 5C7.0676 5 7.06946 5 7.07133 5C7.0732 5 7.07508 5 7.07695 5C7.07882 5 7.08069 5 7.08256 5C7.08444 5 7.08631 5 7.08819 5C7.09006 5 7.09194 5 7.09382 5C7.09569 5 7.09757 5 7.09945 5C7.10133 5 7.10321 5 7.10509 5C7.10697 5 7.10885 5 7.11073 5C7.11261 5 7.11449 5 7.11638 5C7.11826 5 7.12014 5 7.12203 5C7.12391 5 7.1258 5 7.12769 5C7.12957 5 7.13146 5 7.13335 5C7.13524 5 7.13713 5 7.13902 5C7.14091 5 7.1428 5 7.14469 5C7.14659 5 7.14848 5 7.15037 5C7.15227 5 7.15416 5 7.15606 5C7.15796 5 7.15985 5 7.16175 5C7.16365 5 7.16555 5 7.16745 5C7.16935 5 7.17125 5 7.17315 5C7.17505 5 7.17695 5 7.17886 5C7.18076 5 7.18266 5 7.18457 5C7.18648 5 7.18838 5 7.19029 5C7.1922 5 7.19411 5 7.19601 5C7.19792 5 7.19983 5 7.20175 5C7.20366 5 7.20557 5 7.20748 5C7.20939 5 7.21131 5 7.21322 5C7.21514 5 7.21706 5 7.21897 5C7.22089 5 7.22281 5 7.22473 5C7.22665 5 7.22857 5 7.23049 5C7.23241 5 7.23433 5 7.23626 5C7.23818 5 7.2401 5 7.24203 5C7.24395 5 7.24588 5 7.24781 5C7.24973 5 7.25166 5 7.25359 5C7.25552 5 7.25745 5 7.25938 5C7.26132 5 7.26325 5 7.26518 5C7.26712 5 7.26905 5 7.27099 5C7.27292 5 7.27486 5 7.2768 5C7.27874 5 7.28067 5 7.28262 5C7.28456 5 7.2865 5 7.28844 5C7.29038 5 7.29233 5 7.29427 5C7.29621 5 7.29816 5 7.30011 5C7.30205 5 7.304 5 7.30595 5C7.3079 5 7.30985 5 7.3118 5C7.31375 5 7.31571 5 7.31766 5C7.31961 5 7.32157 5 7.32352 5C7.32548 5 7.32744 5 7.32939 5C7.33135 5 7.33331 5 7.33527 5C7.33723 5 7.33919 5 7.34116 5C7.34312 5 7.34508 5 7.34705 5C7.34901 5 7.35098 5 7.35295 5C7.35491 5 7.35688 5 7.35885 5C7.36082 5 7.36279 5 7.36477 5C7.36674 5 7.36871 5 7.37069 5C7.37266 5 7.37464 5 7.37661 5C7.37859 5 7.38057 5 7.38255 5C7.38453 5 7.38651 5 7.38849 5C7.39047 5 7.39246 5 7.39444 5C7.39642 5 7.39841 5 7.4004 5C7.40238 5 7.40437 5 7.40636 5C7.40835 5 7.41034 5 7.41233 5C7.41433 5 7.41632 5 7.41831 5C7.42031 5 7.4223 5 7.4243 5C7.4263 5 7.4283 5 7.43029 5C7.43229 5 7.43429 5 7.4363 5C7.4383 5 7.4403 5 7.44231 5C7.44431 5 7.44632 5 7.44832 5C7.45033 5 7.45234 5 7.45435 5C7.45636 5 7.45837 5 7.46038 5C7.4624 5 7.46441 5 7.46642 5C7.46844 5 7.47046 5 7.47247 5C7.47449 5 7.47651 5 7.47853 5C7.48055 5 7.48257 5 7.4846 5C7.48662 5 7.48865 5 7.49067 5C7.4927 5 7.49472 5 7.49675 5C7.49878 5 7.50081 5 7.50284 5C7.50487 5 7.50691 5 7.50894 5C7.51097 5 7.51301 5 7.51505 5C7.51708 5 7.51912 5 7.52116 5C7.5232 5 7.52524 5 7.52728 5C7.52933 5 7.53137 5 7.53342 5C7.53546 5 7.53751 5 7.53956 5C7.5416 5 7.54365 5 7.5457 5C7.54776 5 7.54981 5 7.55186 5C7.55392 5 7.55597 5 7.55803 5C7.56008 5 7.56214 5 7.5642 5C7.56626 5 7.56832 5 7.57038 5C7.57245 5 7.57451 5 7.57658 5C7.57864 5 7.58071 5 7.58278 5C7.58485 5 7.58692 5 7.58899 5C7.59106 5 7.59313 5 7.5952 5C7.59728 5 7.59935 5 7.60143 5C7.60351 5 7.60559 5 7.60767 5C7.60975 5 7.61183 5 7.61391 5C7.616 5 7.61808 5 7.62017 5C7.62225 5 7.62434 5 7.62643 5C7.62852 5 7.63061 5 7.6327 5C7.6348 5 7.63689 5 7.63899 5C7.64108 5 7.64318 5 7.64528 5C7.64737 5 7.64947 5 7.65158 5C7.65368 5 7.65578 5 7.65789 5C7.65999 5 7.6621 5 7.6642 5C7.66631 5 7.66842 5 7.67053 5C7.67264 5 7.67476 5 7.67687 5C7.67899 5 7.6811 5 7.68322 5C7.68534 5 7.68746 5 7.68958 5C7.6917 5 7.69382 5 7.69594 5C7.69807 5 7.70019 5 7.70232 5C7.70445 5 7.70657 5 7.7087 5C7.71083 5 7.71297 5 7.7151 5C7.71723 5 7.71937 5 7.72151 5C7.72364 5 7.72578 5 7.72792 5C7.73006 5 7.7322 5 7.73435 5C7.73649 5 7.73864 5 7.74078 5C7.74293 5 7.74508 5 7.74723 5C7.74938 5 7.75153 5 7.75368 5C7.75584 5 7.75799 5 7.76015 5C7.7623 5 7.76446 5 7.76662 5C7.76878 5 7.77095 5 7.77311 5C7.77527 5 7.77744 5 7.7796 5C7.78177 5 7.78394 5 7.78611 5C7.78828 5 7.79045 5 7.79263 5C7.7948 5 7.79698 5 7.79915 5C7.80133 5 7.80351 5 7.80569 5C7.80787 5 7.81005 5 7.81224 5C7.81442 5 7.81661 5 7.8188 5C7.82098 5 7.82317 5 7.82537 5C7.82756 5 7.82975 5 7.83194 5C7.83414 5 7.83634 5 7.83853 5C7.84073 5 7.84293 5 7.84514 5C7.84734 5 7.84954 5 7.85175 5C7.85395 5 7.85616 5 7.85837 5C7.86058 5 7.86279 5 7.865 5C7.86721 5 7.86943 5 7.87164 5C7.87386 5 7.87608 5 7.8783 5C7.88052 5 7.88274 5 7.88496 5C7.88719 5 7.88941 5 7.89164 5C7.89387 5 7.8961 5 7.89833 5C7.90056 5 7.90279 5 7.90503 5C7.90726 5 7.9095 5 7.91174 5C7.91398 5 7.91622 5 7.91846 5C7.9207 5 7.92295 5 7.92519 5C7.92744 5 7.92968 5 7.93193 5C7.93418 5 7.93644 5 7.93869 5C7.94094 5 7.9432 5 7.94546 5C7.94771 5 7.94997 5 7.95223 5C7.95449 5 7.95676 5 7.95902 5C7.96129 5 7.96355 5 7.96582 5C7.96809 5 7.97036 5 7.97263 5C7.97491 5 7.97718 5 7.97946 5C7.98174 5 7.98401 5 7.98629 5C7.98857 5 7.99086 5 7.99314 5C7.99543 5 7.99771 5 8 5V4C7.99771 4 7.99543 4 7.99314 4C7.99086 4 7.98857 4 7.98629 4C7.98401 4 7.98174 4 7.97946 4C7.97718 4 7.97491 4 7.97263 4C7.97036 4 7.96809 4 7.96582 4C7.96355 4 7.96129 4 7.95902 4C7.95676 4 7.95449 4 7.95223 4C7.94997 4 7.94771 4 7.94546 4C7.9432 4 7.94094 4 7.93869 4C7.93644 4 7.93418 4 7.93193 4C7.92968 4 7.92744 4 7.92519 4C7.92295 4 7.9207 4 7.91846 4C7.91622 4 7.91398 4 7.91174 4C7.9095 4 7.90726 4 7.90503 4C7.90279 4 7.90056 4 7.89833 4C7.8961 4 7.89387 4 7.89164 4C7.88941 4 7.88719 4 7.88496 4C7.88274 4 7.88052 4 7.8783 4C7.87608 4 7.87386 4 7.87164 4C7.86943 4 7.86721 4 7.865 4C7.86279 4 7.86058 4 7.85837 4C7.85616 4 7.85395 4 7.85175 4C7.84954 4 7.84734 4 7.84514 4C7.84293 4 7.84073 4 7.83853 4C7.83634 4 7.83414 4 7.83194 4C7.82975 4 7.82756 4 7.82537 4C7.82317 4 7.82098 4 7.8188 4C7.81661 4 7.81442 4 7.81224 4C7.81005 4 7.80787 4 7.80569 4C7.80351 4 7.80133 4 7.79915 4C7.79698 4 7.7948 4 7.79263 4C7.79045 4 7.78828 4 7.78611 4C7.78394 4 7.78177 4 7.7796 4C7.77744 4 7.77527 4 7.77311 4C7.77095 4 7.76878 4 7.76662 4C7.76446 4 7.7623 4 7.76015 4C7.75799 4 7.75584 4 7.75368 4C7.75153 4 7.74938 4 7.74723 4C7.74508 4 7.74293 4 7.74078 4C7.73864 4 7.73649 4 7.73435 4C7.7322 4 7.73006 4 7.72792 4C7.72578 4 7.72364 4 7.72151 4C7.71937 4 7.71723 4 7.7151 4C7.71297 4 7.71083 4 7.7087 4C7.70657 4 7.70445 4 7.70232 4C7.70019 4 7.69807 4 7.69594 4C7.69382 4 7.6917 4 7.68958 4C7.68746 4 7.68534 4 7.68322 4C7.6811 4 7.67899 4 7.67687 4C7.67476 4 7.67264 4 7.67053 4C7.66842 4 7.66631 4 7.6642 4C7.6621 4 7.65999 4 7.65789 4C7.65578 4 7.65368 4 7.65158 4C7.64947 4 7.64737 4 7.64528 4C7.64318 4 7.64108 4 7.63899 4C7.63689 4 7.6348 4 7.6327 4C7.63061 4 7.62852 4 7.62643 4C7.62434 4 7.62225 4 7.62017 4C7.61808 4 7.616 4 7.61391 4C7.61183 4 7.60975 4 7.60767 4C7.60559 4 7.60351 4 7.60143 4C7.59935 4 7.59728 4 7.5952 4C7.59313 4 7.59106 4 7.58899 4C7.58692 4 7.58485 4 7.58278 4C7.58071 4 7.57864 4 7.57658 4C7.57451 4 7.57245 4 7.57038 4C7.56832 4 7.56626 4 7.5642 4C7.56214 4 7.56008 4 7.55803 4C7.55597 4 7.55392 4 7.55186 4C7.54981 4 7.54776 4 7.5457 4C7.54365 4 7.5416 4 7.53956 4C7.53751 4 7.53546 4 7.53342 4C7.53137 4 7.52933 4 7.52728 4C7.52524 4 7.5232 4 7.52116 4C7.51912 4 7.51708 4 7.51505 4C7.51301 4 7.51097 4 7.50894 4C7.50691 4 7.50487 4 7.50284 4C7.50081 4 7.49878 4 7.49675 4C7.49472 4 7.4927 4 7.49067 4C7.48865 4 7.48662 4 7.4846 4C7.48257 4 7.48055 4 7.47853 4C7.47651 4 7.47449 4 7.47247 4C7.47046 4 7.46844 4 7.46642 4C7.46441 4 7.4624 4 7.46038 4C7.45837 4 7.45636 4 7.45435 4C7.45234 4 7.45033 4 7.44832 4C7.44632 4 7.44431 4 7.44231 4C7.4403 4 7.4383 4 7.4363 4C7.43429 4 7.43229 4 7.43029 4C7.4283 4 7.4263 4 7.4243 4C7.4223 4 7.42031 4 7.41831 4C7.41632 4 7.41433 4 7.41233 4C7.41034 4 7.40835 4 7.40636 4C7.40437 4 7.40238 4 7.4004 4C7.39841 4 7.39642 4 7.39444 4C7.39246 4 7.39047 4 7.38849 4C7.38651 4 7.38453 4 7.38255 4C7.38057 4 7.37859 4 7.37661 4C7.37464 4 7.37266 4 7.37069 4C7.36871 4 7.36674 4 7.36477 4C7.36279 4 7.36082 4 7.35885 4C7.35688 4 7.35491 4 7.35295 4C7.35098 4 7.34901 4 7.34705 4C7.34508 4 7.34312 4 7.34116 4C7.33919 4 7.33723 4 7.33527 4C7.33331 4 7.33135 4 7.32939 4C7.32744 4 7.32548 4 7.32352 4C7.32157 4 7.31961 4 7.31766 4C7.31571 4 7.31375 4 7.3118 4C7.30985 4 7.3079 4 7.30595 4C7.304 4 7.30205 4 7.30011 4C7.29816 4 7.29621 4 7.29427 4C7.29233 4 7.29038 4 7.28844 4C7.2865 4 7.28456 4 7.28262 4C7.28067 4 7.27874 4 7.2768 4C7.27486 4 7.27292 4 7.27099 4C7.26905 4 7.26712 4 7.26518 4C7.26325 4 7.26132 4 7.25938 4C7.25745 4 7.25552 4 7.25359 4C7.25166 4 7.24973 4 7.24781 4C7.24588 4 7.24395 4 7.24203 4C7.2401 4 7.23818 4 7.23626 4C7.23433 4 7.23241 4 7.23049 4C7.22857 4 7.22665 4 7.22473 4C7.22281 4 7.22089 4 7.21897 4C7.21706 4 7.21514 4 7.21322 4C7.21131 4 7.20939 4 7.20748 4C7.20557 4 7.20366 4 7.20175 4C7.19983 4 7.19792 4 7.19601 4C7.19411 4 7.1922 4 7.19029 4C7.18838 4 7.18648 4 7.18457 4C7.18266 4 7.18076 4 7.17886 4C7.17695 4 7.17505 4 7.17315 4C7.17125 4 7.16935 4 7.16745 4C7.16555 4 7.16365 4 7.16175 4C7.15985 4 7.15796 4 7.15606 4C7.15416 4 7.15227 4 7.15037 4C7.14848 4 7.14659 4 7.14469 4C7.1428 4 7.14091 4 7.13902 4C7.13713 4 7.13524 4 7.13335 4C7.13146 4 7.12957 4 7.12769 4C7.1258 4 7.12391 4 7.12203 4C7.12014 4 7.11826 4 7.11638 4C7.11449 4 7.11261 4 7.11073 4C7.10885 4 7.10697 4 7.10509 4C7.10321 4 7.10133 4 7.09945 4C7.09757 4 7.09569 4 7.09382 4C7.09194 4 7.09006 4 7.08819 4C7.08631 4 7.08444 4 7.08256 4C7.08069 4 7.07882 4 7.07695 4C7.07508 4 7.0732 4 7.07133 4C7.06946 4 7.0676 4 7.06573 4C7.06386 4 7.06199 4 7.06012 4C7.05826 4 7.05639 4 7.05452 4C7.05266 4 7.0508 4 7.04893 4C7.04707 4 7.0452 4 7.04334 4C7.04148 4 7.03962 4 7.03776 4C7.0359 4 7.03404 4 7.03218 4C7.03032 4 7.02846 4 7.0266 4C7.02474 4 7.02289 4 7.02103 4C7.01917 4 7.01732 4 7.01546 4C7.01361 4 7.01176 4 7.0099 4C7.00805 4 7.0062 4 7.00434 4C7.00249 4 7.00064 4 6.99879 4C6.99694 4 6.99509 4 6.99324 4C6.99139 4 6.98954 4 6.9877 4C6.98585 4 6.984 4 6.98216 4C6.98031 4 6.97846 4 6.97662 4C6.97477 4 6.97293 4 6.97109 4C6.96924 4 6.9674 4 6.96556 4C6.96371 4 6.96187 4 6.96003 4C6.95819 4 6.95635 4 6.95451 4C6.95267 4 6.95083 4 6.94899 4C6.94715 4 6.94532 4 6.94348 4C6.94164 4 6.93981 4 6.93797 4C6.93613 4 6.9343 4 6.93246 4C6.93063 4 6.9288 4 6.92696 4C6.92513 4 6.9233 4 6.92146 4C6.91963 4 6.9178 4 6.91597 4C6.91414 4 6.91231 4 6.91048 4C6.90865 4 6.90682 4 6.90499 4C6.90316 4 6.90133 4 6.89951 4C6.89768 4 6.89585 4 6.89402 4C6.8922 4 6.89037 4 6.88855 4C6.88672 4 6.8849 4 6.88307 4C6.88125 4 6.87942 4 6.8776 4C6.87578 4 6.87396 4 6.87213 4C6.87031 4 6.86849 4 6.86667 4C6.86485 4 6.86303 4 6.86121 4C6.85939 4 6.85757 4 6.85575 4C6.85393 4 6.85211 4 6.85029 4C6.84847 4 6.84666 4 6.84484 4C6.84302 4 6.84121 4 6.83939 4C6.83757 4 6.83576 4 6.83394 4C6.83213 4 6.83032 4 6.8285 4C6.82669 4 6.82487 4 6.82306 4C6.82125 4 6.81943 4 6.81762 4C6.81581 4 6.814 4 6.81219 4C6.81037 4 6.80856 4 6.80675 4C6.80494 4 6.80313 4 6.80132 4C6.79951 4 6.7977 4 6.7959 4C6.79409 4 6.79228 4 6.79047 4C6.78866 4 6.78686 4 6.78505 4C6.78324 4 6.78143 4 6.77963 4C6.77782 4 6.77602 4 6.77421 4C6.7724 4 6.7706 4 6.76879 4C6.76699 4 6.76519 4 6.76338 4C6.76158 4 6.75977 4 6.75797 4C6.75617 4 6.75436 4 6.75256 4C6.75076 4 6.74896 4 6.74716 4C6.74535 4 6.74355 4 6.74175 4C6.73995 4 6.73815 4 6.73635 4C6.73455 4 6.73275 4 6.73095 4C6.72915 4 6.72735 4 6.72555 4C6.72375 4 6.72195 4 6.72015 4C6.71836 4 6.71656 4 6.71476 4C6.71296 4 6.71116 4 6.70937 4C6.70757 4 6.70577 4 6.70398 4C6.70218 4 6.70038 4 6.69859 4C6.69679 4 6.695 4 6.6932 4C6.6914 4 6.68961 4 6.68781 4C6.68602 4 6.68422 4 6.68243 4C6.68064 4 6.67884 4 6.67705 4C6.67525 4 6.67346 4 6.67167 4C6.66987 4 6.66808 4 6.66629 4C6.66449 4 6.6627 4 6.66091 4C6.65912 4 6.65732 4 6.65553 4C6.65374 4 6.65195 4 6.65016 4C6.64837 4 6.64657 4 6.64478 4C6.64299 4 6.6412 4 6.63941 4C6.63762 4 6.63583 4 6.63404 4C6.63225 4 6.63046 4 6.62867 4C6.62688 4 6.62509 4 6.6233 4C6.62151 4 6.61972 4 6.61793 4C6.61614 4 6.61435 4 6.61256 4C6.61077 4 6.60898 4 6.6072 4C6.60541 4 6.60362 4 6.60183 4C6.60004 4 6.59825 4 6.59647 4C6.59468 4 6.59289 4 6.5911 4C6.58931 4 6.58753 4 6.58574 4C6.58395 4 6.58216 4 6.58038 4C6.57859 4 6.5768 4 6.57502 4C6.57323 4 6.57144 4 6.56965 4C6.56787 4 6.56608 4 6.56429 4C6.56251 4 6.56072 4 6.55893 4C6.55715 4 6.55536 4 6.55358 4C6.55179 4 6.55 4 6.54822 4C6.54643 4 6.54464 4 6.54286 4C6.54107 4 6.53929 4 6.5375 4C6.53571 4 6.53393 4 6.53214 4C6.53036 4 6.52857 4 6.52678 4C6.525 4 6.52321 4 6.52143 4C6.51964 4 6.51786 4 6.51607 4C6.51428 4 6.5125 4 6.51071 4C6.50893 4 6.50714 4 6.50536 4C6.50357 4 6.50179 4 6.5 4C6.49821 4 6.49643 4 6.49464 4C6.49286 4 6.49107 4 6.48929 4C6.4875 4 6.48572 4 6.48393 4C6.48214 4 6.48036 4 6.47857 4C6.47679 4 6.475 4 6.47322 4C6.47143 4 6.46964 4 6.46786 4C6.46607 4 6.46429 4 6.4625 4C6.46071 4 6.45893 4 6.45714 4C6.45536 4 6.45357 4 6.45178 4C6.45 4 6.44821 4 6.44643 4C6.44464 4 6.44285 4 6.44107 4C6.43928 4 6.43749 4 6.43571 4C6.43392 4 6.43213 4 6.43035 4C6.42856 4 6.42677 4 6.42498 4C6.4232 4 6.42141 4 6.41962 4C6.41784 4 6.41605 4 6.41426 4C6.41247 4 6.41069 4 6.4089 4C6.40711 4 6.40532 4 6.40353 4C6.40175 4 6.39996 4 6.39817 4C6.39638 4 6.39459 4 6.3928 4C6.39102 4 6.38923 4 6.38744 4C6.38565 4 6.38386 4 6.38207 4C6.38028 4 6.37849 4 6.3767 4C6.37491 4 6.37312 4 6.37133 4C6.36954 4 6.36775 4 6.36596 4C6.36417 4 6.36238 4 6.36059 4C6.3588 4 6.35701 4 6.35522 4C6.35343 4 6.35163 4 6.34984 4C6.34805 4 6.34626 4 6.34447 4C6.34268 4 6.34088 4 6.33909 4C6.3373 4 6.33551 4 6.33371 4C6.33192 4 6.33013 4 6.32833 4C6.32654 4 6.32475 4 6.32295 4C6.32116 4 6.31936 4 6.31757 4C6.31578 4 6.31398 4 6.31219 4C6.31039 4 6.3086 4 6.3068 4C6.305 4 6.30321 4 6.30141 4C6.29962 4 6.29782 4 6.29602 4C6.29423 4 6.29243 4 6.29063 4C6.28884 4 6.28704 4 6.28524 4C6.28344 4 6.28164 4 6.27985 4C6.27805 4 6.27625 4 6.27445 4C6.27265 4 6.27085 4 6.26905 4C6.26725 4 6.26545 4 6.26365 4C6.26185 4 6.26005 4 6.25825 4C6.25645 4 6.25465 4 6.25284 4C6.25104 4 6.24924 4 6.24744 4C6.24564 4 6.24383 4 6.24203 4C6.24023 4 6.23842 4 6.23662 4C6.23481 4 6.23301 4 6.23121 4C6.2294 4 6.2276 4 6.22579 4C6.22398 4 6.22218 4 6.22037 4C6.21857 4 6.21676 4 6.21495 4C6.21314 4 6.21134 4 6.20953 4C6.20772 4 6.20591 4 6.2041 4C6.2023 4 6.20049 4 6.19868 4C6.19687 4 6.19506 4 6.19325 4C6.19144 4 6.18963 4 6.18781 4C6.186 4 6.18419 4 6.18238 4C6.18057 4 6.17875 4 6.17694 4C6.17513 4 6.17331 4 6.1715 4C6.16969 4 6.16787 4 6.16606 4C6.16424 4 6.16242 4 6.16061 4C6.15879 4 6.15698 4 6.15516 4C6.15334 4 6.15152 4 6.14971 4C6.14789 4 6.14607 4 6.14425 4C6.14243 4 6.14061 4 6.13879 4C6.13697 4 6.13515 4 6.13333 4C6.13151 4 6.12969 4 6.12787 4C6.12604 4 6.12422 4 6.1224 4C6.12058 4 6.11875 4 6.11693 4C6.1151 4 6.11328 4 6.11145 4C6.10963 4 6.1078 4 6.10598 4C6.10415 4 6.10232 4 6.10049 4C6.09867 4 6.09684 4 6.09501 4C6.09318 4 6.09135 4 6.08952 4C6.08769 4 6.08586 4 6.08403 4C6.0822 4 6.08037 4 6.07854 4C6.0767 4 6.07487 4 6.07304 4C6.0712 4 6.06937 4 6.06754 4C6.0657 4 6.06387 4 6.06203 4C6.06019 4 6.05836 4 6.05652 4C6.05468 4 6.05285 4 6.05101 4C6.04917 4 6.04733 4 6.04549 4C6.04365 4 6.04181 4 6.03997 4C6.03813 4 6.03629 4 6.03444 4C6.0326 4 6.03076 4 6.02891 4C6.02707 4 6.02523 4 6.02338 4C6.02154 4 6.01969 4 6.01784 4C6.016 4 6.01415 4 6.0123 4C6.01046 4 6.00861 4 6.00676 4C6.00491 4 6.00306 4 6.00121 4C5.99936 4 5.99751 4 5.99566 4C5.9938 4 5.99195 4 5.9901 4C5.98824 4 5.98639 4 5.98454 4C5.98268 4 5.98083 4 5.97897 4C5.97711 4 5.97526 4 5.9734 4C5.97154 4 5.96968 4 5.96782 4C5.96596 4 5.9641 4 5.96224 4C5.96038 4 5.95852 4 5.95666 4C5.9548 4 5.95293 4 5.95107 4C5.94921 4 5.94734 4 5.94548 4C5.94361 4 5.94174 4 5.93988 4C5.93801 4 5.93614 4 5.93427 4C5.9324 4 5.93054 4 5.92867 4C5.9268 4 5.92492 4 5.92305 4C5.92118 4 5.91931 4 5.91743 4C5.91556 4 5.91369 4 5.91181 4C5.90994 4 5.90806 4 5.90618 4C5.90431 4 5.90243 4 5.90055 4C5.89867 4 5.89679 4 5.89491 4C5.89303 4 5.89115 4 5.88927 4C5.88739 4 5.88551 4 5.88362 4C5.88174 4 5.87986 4 5.87797 4C5.87609 4 5.8742 4 5.87231 4C5.87043 4 5.86854 4 5.86665 4C5.86476 4 5.86287 4 5.86098 4C5.85909 4 5.8572 4 5.85531 4C5.85341 4 5.85152 4 5.84963 4C5.84773 4 5.84584 4 5.84394 4C5.84204 4 5.84015 4 5.83825 4C5.83635 4 5.83445 4 5.83255 4C5.83065 4 5.82875 4 5.82685 4C5.82495 4 5.82305 4 5.82114 4C5.81924 4 5.81734 4 5.81543 4C5.81352 4 5.81162 4 5.80971 4C5.8078 4 5.80589 4 5.80399 4C5.80208 4 5.80017 4 5.79825 4C5.79634 4 5.79443 4 5.79252 4C5.79061 4 5.78869 4 5.78678 4C5.78486 4 5.78294 4 5.78103 4C5.77911 4 5.77719 4 5.77527 4C5.77335 4 5.77143 4 5.76951 4C5.76759 4 5.76567 4 5.76374 4C5.76182 4 5.7599 4 5.75797 4C5.75605 4 5.75412 4 5.75219 4C5.75027 4 5.74834 4 5.74641 4C5.74448 4 5.74255 4 5.74062 4C5.73868 4 5.73675 4 5.73482 4C5.73288 4 5.73095 4 5.72901 4C5.72708 4 5.72514 4 5.7232 4C5.72126 4 5.71932 4 5.71738 4C5.71544 4 5.7135 4 5.71156 4C5.70962 4 5.70767 4 5.70573 4C5.70379 4 5.70184 4 5.69989 4C5.69795 4 5.696 4 5.69405 4C5.6921 4 5.69015 4 5.6882 4C5.68625 4 5.68429 4 5.68234 4C5.68039 4 5.67843 4 5.67648 4C5.67452 4 5.67256 4 5.67061 4C5.66865 4 5.66669 4 5.66473 4C5.66277 4 5.66081 4 5.65884 4C5.65688 4 5.65492 4 5.65295 4C5.65099 4 5.64902 4 5.64705 4C5.64509 4 5.64312 4 5.64115 4C5.63918 4 5.63721 4 5.63523 4C5.63326 4 5.63129 4 5.62931 4C5.62734 4 5.62536 4 5.62339 4C5.62141 4 5.61943 4 5.61745 4C5.61547 4 5.61349 4 5.61151 4C5.60953 4 5.60754 4 5.60556 4C5.60357 4 5.60159 4 5.5996 4C5.59762 4 5.59563 4 5.59364 4C5.59165 4 5.58966 4 5.58767 4C5.58567 4 5.58368 4 5.58169 4C5.57969 4 5.5777 4 5.5757 4C5.5737 4 5.5717 4 5.56971 4C5.56771 4 5.56571 4 5.5637 4C5.5617 4 5.5597 4 5.55769 4C5.55569 4 5.55368 4 5.55168 4C5.54967 4 5.54766 4 5.54565 4C5.54364 4 5.54163 4 5.53962 4C5.5376 4 5.53559 4 5.53357 4C5.53156 4 5.52954 4 5.52753 4C5.52551 4 5.52349 4 5.52147 4C5.51945 4 5.51743 4 5.5154 4C5.51338 4 5.51135 4 5.50933 4C5.5073 4 5.50528 4 5.50325 4C5.50122 4 5.49919 4 5.49716 4C5.49513 4 5.49309 4 5.49106 4C5.48903 4 5.48699 4 5.48495 4C5.48292 4 5.48088 4 5.47884 4C5.4768 4 5.47476 4 5.47272 4C5.47067 4 5.46863 4 5.46658 4C5.46454 4 5.46249 4 5.46044 4C5.4584 4 5.45635 4 5.4543 4C5.45224 4 5.45019 4 5.44814 4C5.44608 4 5.44403 4 5.44197 4C5.43992 4 5.43786 4 5.4358 4C5.43374 4 5.43168 4 5.42962 4C5.42755 4 5.42549 4 5.42342 4C5.42136 4 5.41929 4 5.41722 4C5.41515 4 5.41308 4 5.41101 4C5.40894 4 5.40687 4 5.4048 4C5.40272 4 5.40065 4 5.39857 4C5.39649 4 5.39441 4 5.39233 4C5.39025 4 5.38817 4 5.38609 4C5.384 4 5.38192 4 5.37983 4C5.37775 4 5.37566 4 5.37357 4C5.37148 4 5.36939 4 5.3673 4C5.3652 4 5.36311 4 5.36102 4C5.35892 4 5.35682 4 5.35472 4C5.35263 4 5.35053 4 5.34842 4C5.34632 4 5.34422 4 5.34211 4C5.34001 4 5.3379 4 5.3358 4C5.33369 4 5.33158 4 5.32947 4C5.32736 4 5.32524 4 5.32313 4C5.32101 4 5.3189 4 5.31678 4C5.31466 4 5.31255 4 5.31042 4C5.3083 4 5.30618 4 5.30406 4C5.30193 4 5.29981 4 5.29768 4C5.29555 4 5.29343 4 5.2913 4C5.28917 4 5.28703 4 5.2849 4C5.28277 4 5.28063 4 5.27849 4C5.27636 4 5.27422 4 5.27208 4C5.26994 4 5.2678 4 5.26565 4C5.26351 4 5.26136 4 5.25922 4C5.25707 4 5.25492 4 5.25277 4C5.25062 4 5.24847 4 5.24632 4C5.24416 4 5.24201 4 5.23985 4C5.2377 4 5.23554 4 5.23338 4C5.23122 4 5.22905 4 5.22689 4C5.22473 4 5.22256 4 5.2204 4C5.21823 4 5.21606 4 5.21389 4C5.21172 4 5.20955 4 5.20737 4C5.2052 4 5.20302 4 5.20085 4C5.19867 4 5.19649 4 5.19431 4C5.19213 4 5.18995 4 5.18776 4C5.18558 4 5.18339 4 5.1812 4C5.17902 4 5.17683 4 5.17463 4C5.17244 4 5.17025 4 5.16806 4C5.16586 4 5.16366 4 5.16147 4C5.15927 4 5.15707 4 5.15487 4C5.15266 4 5.15046 4 5.14825 4C5.14605 4 5.14384 4 5.14163 4C5.13942 4 5.13721 4 5.135 4C5.13279 4 5.13057 4 5.12836 4C5.12614 4 5.12392 4 5.1217 4C5.11948 4 5.11726 4 5.11504 4C5.11281 4 5.11059 4 5.10836 4C5.10613 4 5.1039 4 5.10167 4C5.09944 4 5.09721 4 5.09497 4C5.09274 4 5.0905 4 5.08826 4C5.08602 4 5.08378 4 5.08154 4C5.0793 4 5.07705 4 5.07481 4C5.07256 4 5.07032 4 5.06807 4C5.06582 4 5.06356 4 5.06131 4C5.05906 4 5.0568 4 5.05454 4C5.05229 4 5.05003 4 5.04777 4C5.04551 4 5.04324 4 5.04098 4C5.03871 4 5.03645 4 5.03418 4C5.03191 4 5.02964 4 5.02736 4C5.02509 4 5.02282 4 5.02054 4C5.01826 4 5.01599 4 5.01371 4C5.01143 4 5.00914 4 5.00686 4C5.00457 4 5.00229 4 5 4V5ZM11 9H12V8H11V9Z" fill="white"/>
</svg>
