<svg width="1em" height="1em" viewBox="0 0 16 16" fill="none" xmlns="http://www.w3.org/2000/svg">
<path d="M8.0332 10.3H8.5332C8.5332 10.0238 8.30935 9.79997 8.0332 9.79997V10.3ZM8.0332 10.3666L8.03308 10.8666C8.16571 10.8667 8.29292 10.814 8.38671 10.7202C8.48051 10.6265 8.5332 10.4993 8.5332 10.3666H8.0332ZM7.9668 10.3666H7.4668C7.4668 10.6427 7.69058 10.8665 7.96667 10.8666L7.9668 10.3666ZM7.9668 10.3V9.79997C7.69066 9.79997 7.4668 10.0238 7.4668 10.3H7.9668ZM8.5 5.6333C8.5 5.35716 8.27614 5.1333 8 5.1333C7.72386 5.1333 7.5 5.35716 7.5 5.6333H8.5ZM7.5 8.29997C7.5 8.57611 7.72386 8.79997 8 8.79997C8.27614 8.79997 8.5 8.57611 8.5 8.29997H7.5ZM8 13.5C4.96243 13.5 2.5 11.0376 2.5 8H1.5C1.5 11.5899 4.41015 14.5 8 14.5V13.5ZM2.5 8C2.5 4.96243 4.96243 2.5 8 2.5V1.5C4.41015 1.5 1.5 4.41015 1.5 8H2.5ZM8 2.5C11.0376 2.5 13.5 4.96243 13.5 8H14.5C14.5 4.41015 11.5899 1.5 8 1.5V2.5ZM13.5 8C13.5 11.0376 11.0376 13.5 8 13.5V14.5C11.5899 14.5 14.5 11.5899 14.5 8H13.5ZM7.5332 10.3V10.3666H8.5332V10.3H7.5332ZM8.03333 9.86664L7.96692 9.86662L7.96667 10.8666L8.03308 10.8666L8.03333 9.86664ZM8.4668 10.3666V10.3H7.4668V10.3666H8.4668ZM7.9668 10.8H8.0332V9.79997H7.9668V10.8ZM7.5 5.6333V8.29997H8.5V5.6333H7.5Z" fill="#737373"/>
</svg>
