<svg width="1em" height="1em" viewBox="0 0 32 32" fill="none" xmlns="http://www.w3.org/2000/svg">
<g clip-path="url(#clip0_2_3314)">
<path d="M26 16H20L18 19H14L12 16H6" stroke="#BFBFBF" stroke-width="2" stroke-linecap="round" stroke-linejoin="round"/>
<path d="M9.45 8.44594L6 15.3359V21.3359C6 21.8664 6.21071 22.3751 6.58579 22.7502C6.96086 23.1252 7.46957 23.3359 8 23.3359H24C24.5304 23.3359 25.0391 23.1252 25.4142 22.7502C25.7893 22.3751 26 21.8664 26 21.3359V15.3359L22.55 8.44594C22.3844 8.11273 22.1292 7.83231 21.813 7.63622C21.4967 7.44013 21.1321 7.33613 20.76 7.33594H11.24C10.8679 7.33613 10.5033 7.44013 10.187 7.63622C9.87083 7.83231 9.61558 8.11273 9.45 8.44594V8.44594Z" stroke="#BFBFBF" stroke-width="2" stroke-linecap="round" stroke-linejoin="round"/>
</g>
<defs>
<clipPath id="clip0_2_3314">
<rect width="32" height="32" fill="white"/>
</clipPath>
</defs>
</svg>
