<svg width="12" height="12" viewBox="0 0 12 12" fill="none" xmlns="http://www.w3.org/2000/svg">
<path d="M6.5 1C6.5 0.723858 6.27614 0.5 6 0.5C5.72386 0.5 5.5 0.723858 5.5 1H6.5ZM6 11L5.64645 11.3536C5.84171 11.5488 6.15829 11.5488 6.35355 11.3536L6 11ZM11.3536 6.35355C11.5488 6.15829 11.5488 5.84171 11.3536 5.64645C11.1583 5.45118 10.8417 5.45118 10.6464 5.64645L11.3536 6.35355ZM1.35355 5.64645C1.15829 5.45118 0.841709 5.45118 0.646447 5.64645C0.451184 5.84171 0.451184 6.15829 0.646447 6.35355L1.35355 5.64645ZM5.5 1V11H6.5V1H5.5ZM10.6464 5.64645L5.64645 10.6464L6.35355 11.3536L11.3536 6.35355L10.6464 5.64645ZM6.35355 10.6464L1.35355 5.64645L0.646447 6.35355L5.64645 11.3536L6.35355 10.6464Z" fill="#1A1A1A"/>
</svg>
