<svg width="1em" height="1em" viewBox="0 0 24 24" fill="none" xmlns="http://www.w3.org/2000/svg">
<path d="M18.5226 17.4241L18.7726 17.8571L18.5226 17.4241ZM13.4786 20.3363L13.2286 19.9033L13.4786 20.3363ZM10.5217 20.3363L10.7717 19.9033L10.5217 20.3363ZM5.47767 17.4241L5.22767 17.8571H5.22767L5.47767 17.4241ZM5.47767 6.47972L5.22767 6.04671L5.47767 6.47972ZM10.5217 3.56755L10.2717 3.13454L10.5217 3.56755ZM13.4777 3.56755L13.2277 4.00056L13.4777 3.56755ZM18.5217 6.47972L18.7717 6.04671L18.5217 6.47972ZM11.6162 3.04037L11.7202 3.52945L11.6162 3.04037ZM12.3843 3.04037L12.4883 2.5513L12.3843 3.04037ZM4.09043 7.82883L4.56595 7.98333L4.09043 7.82883ZM4.47452 7.16348L4.10294 6.82892H4.10294L4.47452 7.16348ZM4.47452 16.7403L4.10294 17.0749H4.10294L4.47452 16.7403ZM4.09043 16.0749L4.56595 15.9204L4.09043 16.0749ZM12.3843 20.8634L12.2803 20.3743L12.3843 20.8634ZM11.6162 20.8634L11.5123 21.3525L11.6162 20.8634ZM19.9098 16.0749L19.4343 15.9204L19.9098 16.0749ZM19.5258 16.7403L19.8974 17.0749L19.5258 16.7403ZM19.9098 7.82883L20.3853 7.67432L19.9098 7.82883ZM19.5258 7.16348L19.1542 7.49805L19.5258 7.16348ZM19.5 9.0397V14.864H20.5V9.0397H19.5ZM18.2726 16.9911L13.2286 19.9033L13.7286 20.7693L18.7726 17.8571L18.2726 16.9911ZM10.7717 19.9033L5.72767 16.9911L5.22767 17.8571L10.2717 20.7693L10.7717 19.9033ZM4.5 14.864V9.0397H3.5V14.864H4.5ZM5.72767 6.91273L10.7717 4.00056L10.2717 3.13454L5.22767 6.04671L5.72767 6.91273ZM13.2277 4.00056L18.2717 6.91273L18.7717 6.04671L13.7277 3.13454L13.2277 4.00056ZM10.7717 4.00056C11.339 3.67301 11.5297 3.56993 11.7202 3.52945L11.5123 2.5513C11.1303 2.63249 10.7813 2.84034 10.2717 3.13454L10.7717 4.00056ZM13.7277 3.13454C13.2188 2.84071 12.8704 2.63253 12.4883 2.5513L12.2803 3.52945C12.4706 3.56989 12.6597 3.67264 13.2277 4.00056L13.7277 3.13454ZM11.7202 3.52945C11.9049 3.49018 12.0956 3.49018 12.2803 3.52945L12.4883 2.5513C12.1665 2.4829 11.8341 2.4829 11.5123 2.5513L11.7202 3.52945ZM4.5 9.0397C4.5 8.38422 4.50581 8.16844 4.56595 7.98333L3.6149 7.67432C3.49419 8.04581 3.5 8.45167 3.5 9.0397H4.5ZM5.22767 6.04671C4.71822 6.34084 4.36428 6.53867 4.10294 6.82892L4.84609 7.49805C4.97636 7.35337 5.16022 7.24035 5.72767 6.91273L5.22767 6.04671ZM4.56595 7.98333C4.62433 7.80368 4.71976 7.63834 4.84609 7.49805L4.10294 6.82892C3.88277 7.07344 3.71654 7.36149 3.6149 7.67432L4.56595 7.98333ZM5.72767 16.9911C5.16026 16.6635 4.97637 16.5504 4.84609 16.4057L4.10294 17.0749C4.36427 17.3651 4.71817 17.563 5.22767 17.8571L5.72767 16.9911ZM3.5 14.864C3.5 15.4521 3.49419 15.858 3.6149 16.2294L4.56595 15.9204C4.50581 15.7353 4.5 15.5195 4.5 14.864H3.5ZM4.84609 16.4057C4.71977 16.2655 4.62433 16.1001 4.56595 15.9204L3.6149 16.2294C3.71654 16.5423 3.88276 16.8303 4.10294 17.0749L4.84609 16.4057ZM13.2286 19.9033C12.6611 20.2309 12.4708 20.3339 12.2803 20.3743L12.4883 21.3525C12.8703 21.2713 13.2191 21.0634 13.7286 20.7693L13.2286 19.9033ZM10.2717 20.7693C10.7813 21.0635 11.1303 21.2713 11.5123 21.3525L11.7202 20.3743C11.5297 20.3339 11.339 20.2308 10.7717 19.9033L10.2717 20.7693ZM12.2803 20.3743C12.0956 20.4136 11.9049 20.4136 11.7202 20.3743L11.5123 21.3525C11.8341 21.4209 12.1665 21.4209 12.4883 21.3525L12.2803 20.3743ZM19.5 14.864C19.5 15.5198 19.4944 15.7354 19.4343 15.9204L20.3853 16.2294C20.506 15.8579 20.5 15.4518 20.5 14.864H19.5ZM18.7726 17.8571C19.2821 17.563 19.6361 17.3651 19.8974 17.0749L19.1542 16.4057C19.024 16.5504 18.84 16.6635 18.2726 16.9911L18.7726 17.8571ZM19.4343 15.9204C19.3758 16.1002 19.2805 16.2655 19.1542 16.4057L19.8974 17.0749C20.1176 16.8302 20.2837 16.5421 20.3853 16.2294L19.4343 15.9204ZM20.5 9.0397C20.5 8.45197 20.506 8.04588 20.3853 7.67432L19.4343 7.98333C19.4944 8.16837 19.5 8.38392 19.5 9.0397H20.5ZM18.2717 6.91273C18.8398 7.24073 19.0241 7.3535 19.1542 7.49805L19.8974 6.82892C19.6359 6.53854 19.2805 6.34046 18.7717 6.04671L18.2717 6.91273ZM20.3853 7.67432C20.2837 7.36161 20.1176 7.07353 19.8974 6.82892L19.1542 7.49805C19.2805 7.63825 19.3758 7.80356 19.4343 7.98333L20.3853 7.67432ZM12 14.2232C10.7456 14.2232 9.72869 13.2063 9.72869 11.9519H8.72869C8.72869 13.7585 10.1933 15.2232 12 15.2232V14.2232ZM9.72869 11.9519C9.72869 10.6974 10.7456 9.68054 12 9.68054V8.68054C10.1933 8.68054 8.72869 10.1452 8.72869 11.9519H9.72869ZM12 9.68054C13.2544 9.68054 14.2713 10.6974 14.2713 11.9519H15.2713C15.2713 10.1452 13.8067 8.68054 12 8.68054V9.68054ZM14.2713 11.9519C14.2713 13.2063 13.2544 14.2232 12 14.2232V15.2232C13.8067 15.2232 15.2713 13.7585 15.2713 11.9519H14.2713Z" fill="#1A1A1A"/>
</svg>
