<svg width="1em" height="1em" viewBox="0 0 13 14" fill="none" xmlns="http://www.w3.org/2000/svg">
<path d="M8.05869 4.02941C7.78255 4.02941 7.55869 4.25327 7.55869 4.52941C7.55869 4.80556 7.78255 5.02941 8.05869 5.02941V4.02941ZM11.5881 4.52941V5.02941C11.8642 5.02941 12.0881 4.80556 12.0881 4.52941H11.5881ZM12.0881 1C12.0881 0.723858 11.8642 0.5 11.5881 0.5C11.312 0.5 11.0881 0.723858 11.0881 1H12.0881ZM11.8022 10.7009C11.9526 10.4693 11.8868 10.1596 11.6552 10.0092C11.4236 9.85883 11.1139 9.92465 10.9635 10.1562L11.8022 10.7009ZM5.0997 12.7839L5.23668 12.3031H5.23668L5.0997 12.7839ZM2.0353 4.09375L1.62698 3.80518L2.0353 4.09375ZM4.87374 1.99148L4.71674 1.51677L4.87374 1.99148ZM10.8425 4.37137C11.0025 4.59646 11.3146 4.64926 11.5397 4.48929C11.7648 4.32933 11.8176 4.01718 11.6577 3.79209L10.8425 4.37137ZM8.05869 5.02941H11.5881V4.02941H8.05869V5.02941ZM12.0881 4.52941V1H11.0881V4.52941H12.0881ZM10.9635 10.1562C10.364 11.0794 9.48433 11.7861 8.4536 12.1725L8.80463 13.1089C10.0356 12.6474 11.0862 11.8034 11.8022 10.7009L10.9635 10.1562ZM8.4536 12.1725C7.42289 12.5589 6.29535 12.6046 5.23668 12.3031L4.96272 13.2648C6.22705 13.625 7.57364 13.5703 8.80463 13.1089L8.4536 12.1725ZM5.23668 12.3031C4.17805 12.0015 3.24416 11.3685 2.57175 10.497L1.77999 11.1078C2.58301 12.1487 3.69836 12.9047 4.96272 13.2648L5.23668 12.3031ZM2.57175 10.497C1.89938 9.62546 1.52418 8.56129 1.50113 7.46074L0.501349 7.48168C0.52888 8.796 0.976952 10.0669 1.77999 11.1078L2.57175 10.497ZM1.50113 7.46074C1.47808 6.36017 1.80834 5.28123 2.44362 4.38232L1.62698 3.80518C0.868219 4.8788 0.473819 6.16738 0.501349 7.48168L1.50113 7.46074ZM2.44362 4.38232C3.07893 3.48339 3.98564 2.81183 5.03074 2.4662L4.71674 1.51677C3.46859 1.92956 2.38571 2.7316 1.62698 3.80518L2.44362 4.38232ZM5.03074 2.4662C6.07584 2.12056 7.20442 2.11908 8.25042 2.46198L8.56193 1.51173C7.3127 1.10222 5.96489 1.10399 4.71674 1.51677L5.03074 2.4662ZM8.25042 2.46198C9.29641 2.80487 10.2049 3.47409 10.8425 4.37137L11.6577 3.79209C10.8961 2.7205 9.81116 1.92126 8.56193 1.51173L8.25042 2.46198Z" fill="#1A1A1A"/>
</svg>
