<svg width="12" height="12" viewBox="0 0 12 12" fill="none" xmlns="http://www.w3.org/2000/svg">
<path d="M3 5.5C2.72386 5.5 2.5 5.72386 2.5 6C2.5 6.27614 2.72386 6.5 3 6.5V5.5ZM9 6L9.35355 6.35355C9.54882 6.15829 9.54882 5.84171 9.35355 5.64645L9 6ZM6.35355 2.64645C6.15829 2.45118 5.84171 2.45118 5.64645 2.64645C5.45118 2.84171 5.45118 3.15829 5.64645 3.35355L6.35355 2.64645ZM5.64645 8.64645C5.45118 8.84171 5.45118 9.15829 5.64645 9.35355C5.84171 9.54882 6.15829 9.54882 6.35355 9.35355L5.64645 8.64645ZM3 6.5L9 6.5V5.5L3 5.5V6.5ZM5.64645 3.35355L8.64645 6.35355L9.35355 5.64645L6.35355 2.64645L5.64645 3.35355ZM8.64645 5.64645L5.64645 8.64645L6.35355 9.35355L9.35355 6.35355L8.64645 5.64645Z" fill="#1A1A1A"/>
</svg>
