<svg width="1em" height="1em" viewBox="0 0 89 20" fill="none" xmlns="http://www.w3.org/2000/svg">
<path class="papyrus-path" d="M33.102 8.56986C33.102 9.36569 32.8361 9.99069 32.3033 10.4438C31.7705 10.8969 30.8894 11.123 29.659 11.123H27.7676V15.6063H25.4414V4.38965H29.659C30.2794 4.38965 30.807 4.44902 31.2408 4.56882C31.6745 4.68861 32.0291 4.85736 32.3033 5.07611C32.5775 5.29486 32.7787 5.56152 32.908 5.87506C33.0373 6.18861 33.102 6.54382 33.102 6.94173V8.56882V8.56986ZM27.7676 9.66257H29.3494C29.877 9.66257 30.2461 9.55111 30.4577 9.32923C30.6694 9.10631 30.7758 8.78236 30.7758 8.35736V7.15527C30.7758 6.73027 30.6673 6.40632 30.4504 6.1834C30.2336 5.96048 29.8613 5.84902 29.3337 5.84902H27.7676V9.66257Z" fill="white"/>
<path class="papyrus-path" d="M36.6377 12.151L36.0799 15.6073H33.6609L35.6607 4.39062H40.4988L42.4986 15.6073H40.0796L39.5218 12.151H36.6377ZM39.3049 10.6917L38.4989 5.85104H37.6616L36.8557 10.6917H39.306H39.3049Z" fill="white"/>
<path class="papyrus-path" d="M51.694 8.56986C51.694 9.36569 51.4281 9.99069 50.8953 10.4438C50.3625 10.8969 49.4814 11.123 48.2511 11.123H46.3597V15.6063H44.0334V4.38965H48.2511C48.8715 4.38965 49.3991 4.44902 49.8328 4.56882C50.2666 4.68861 50.6211 4.85736 50.8953 5.07611C51.1695 5.29486 51.3708 5.56152 51.5001 5.87506C51.6294 6.18861 51.694 6.54382 51.694 6.94173V8.56882V8.56986ZM46.3597 9.66257H47.9414C48.469 9.66257 48.8381 9.55111 49.0498 9.32923C49.2614 9.10631 49.3678 8.78236 49.3678 8.35736V7.15527C49.3678 6.73027 49.2594 6.40632 49.0425 6.1834C48.8256 5.96048 48.4534 5.84902 47.9258 5.84902H46.3597V9.66257Z" fill="white"/>
<path class="papyrus-path" d="M55.431 15.6063V11.2563L52.4385 4.38965H54.8262L56.5936 9.26048L58.3609 4.38965H60.7486L57.7561 11.2563V15.6063H55.4299H55.431Z" fill="white"/>
<path class="papyrus-path" d="M68.2704 15.6063L66.8753 11.9094C66.8023 11.7208 66.7335 11.5656 66.6657 11.4417C66.598 11.3177 66.5187 11.2219 66.4249 11.1521C66.3321 11.0823 66.2236 11.0333 66.0996 11.0042C65.9755 10.974 65.8201 10.9594 65.6345 10.9594H64.6419V15.6073H62.3157V4.39062H66.3779C67.4112 4.39062 68.2183 4.62708 68.797 5.09792C69.3757 5.56979 69.6655 6.23229 69.6655 7.08646V8.24792C69.6655 8.58542 69.6186 8.87813 69.5258 9.12708C69.433 9.375 69.3058 9.58854 69.1463 9.76771C68.9857 9.94687 68.797 10.0875 68.5801 10.1927C68.3632 10.2979 68.1307 10.374 67.8825 10.424C68.0473 10.474 68.1922 10.5312 68.3163 10.5948C68.4404 10.6594 68.5509 10.7417 68.65 10.8406C68.748 10.9396 68.8387 11.0635 68.921 11.2135C69.0034 11.3625 69.0858 11.5417 69.1692 11.75L70.6738 15.6083H68.2704V15.6063ZM64.6419 9.49896H65.914C66.1934 9.49896 66.4228 9.46146 66.6042 9.3875C66.7846 9.31354 66.9295 9.21667 67.038 9.09792C67.1464 8.97917 67.2236 8.84063 67.2705 8.68229C67.3174 8.52396 67.3403 8.36042 67.3403 8.19271V7.15417C67.3403 6.97604 67.3174 6.80833 67.2705 6.65C67.2236 6.49167 67.1464 6.35313 67.038 6.23438C66.9295 6.11563 66.7846 6.02188 66.6042 5.95208C66.4228 5.88333 66.1934 5.84792 65.914 5.84792H64.6419V9.49792V9.49896Z" fill="white"/>
<path class="papyrus-path" d="M79.5128 4.39062V12.9854C79.5128 13.4229 79.4481 13.8146 79.3188 14.1625C79.1895 14.5104 78.9779 14.8083 78.6828 15.0563C78.3877 15.3042 78.0009 15.4958 77.5202 15.6302C77.0395 15.7646 76.4525 15.8313 75.7602 15.8313C75.0678 15.8313 74.4808 15.7646 74.0001 15.6302C73.5195 15.4958 73.1316 15.3052 72.8375 15.0563C72.5425 14.8083 72.3308 14.5104 72.2015 14.1625C72.0722 13.8146 72.0076 13.4229 72.0076 12.9854V4.39062H74.3338V12.9135C74.3338 13.0927 74.3567 13.2688 74.4037 13.4417C74.4506 13.6156 74.5277 13.7719 74.6362 13.9104C74.7446 14.049 74.8895 14.1604 75.0699 14.2448C75.2503 14.3292 75.4807 14.3708 75.7602 14.3708C76.0396 14.3708 76.269 14.3292 76.4504 14.2448C76.6308 14.1604 76.7757 14.049 76.8842 13.9104C76.9926 13.7719 77.0698 13.6156 77.1167 13.4417C77.1636 13.2677 77.1866 13.0927 77.1866 12.9135V4.39062H79.5128Z" fill="white"/>
<path class="papyrus-path" d="M83.8232 12.3743V12.9212C83.8232 13.0993 83.8461 13.2733 83.893 13.4462C83.94 13.6191 84.0171 13.7743 84.1256 13.9118C84.234 14.0493 84.3789 14.1608 84.5593 14.2441C84.7397 14.3275 84.9701 14.3702 85.2496 14.3702C85.529 14.3702 85.7584 14.3285 85.9398 14.2441C86.1202 14.1598 86.2651 14.0483 86.3736 13.9098C86.482 13.7712 86.5602 13.615 86.6061 13.441C86.652 13.2671 86.6759 13.091 86.6759 12.9129V12.4671C86.6759 12.0212 86.5779 11.6785 86.3809 11.441C86.1848 11.2035 85.8428 10.9952 85.357 10.816L83.5427 10.1316C82.964 9.92331 82.4906 9.61081 82.1236 9.19414C81.7566 8.77747 81.5731 8.25664 81.5731 7.63268V7.00768C81.5731 6.58164 81.6377 6.19206 81.767 5.83997C81.8963 5.48789 82.1028 5.18789 82.3874 4.93997C82.6721 4.69206 83.0432 4.50143 83.5041 4.36706C83.9639 4.23268 84.5197 4.16602 85.1714 4.16602C85.823 4.16602 86.3423 4.23268 86.7917 4.36706C87.2411 4.50143 87.606 4.69206 87.8855 4.94101C88.1649 5.18893 88.3682 5.48997 88.4975 5.84206C88.6268 6.19414 88.6914 6.58476 88.6914 7.01185V7.53268H86.3652V7.07435C86.3652 6.65039 86.2797 6.30352 86.1098 6.03268C85.9388 5.76185 85.626 5.62643 85.1714 5.62643C84.6855 5.62643 84.3518 5.76289 84.1714 6.03581C83.99 6.30872 83.9003 6.65768 83.9003 7.08477V7.42747C83.9003 7.76497 84.0036 8.03476 84.21 8.23789C84.4165 8.44101 84.7011 8.61706 85.0629 8.76601L86.97 9.52435C87.2494 9.63372 87.5132 9.75456 87.7603 9.88893C88.0085 10.0223 88.2233 10.1868 88.4037 10.3796C88.584 10.5733 88.729 10.8056 88.8374 11.0785C88.9459 11.3514 89.0001 11.6806 89.0001 12.0681V12.99C89.0001 13.4264 88.9354 13.8181 88.8061 14.165C88.6768 14.5118 88.4652 14.8098 88.1701 15.0577C87.875 15.3056 87.4882 15.4962 87.0075 15.6306C86.5268 15.7639 85.9398 15.8316 85.2475 15.8316C84.5551 15.8316 83.9681 15.765 83.4874 15.6306C83.0068 15.4962 82.6189 15.3056 82.3248 15.0566C82.0298 14.8087 81.8181 14.5108 81.6888 14.1629C81.5595 13.815 81.4949 13.4233 81.4949 12.9858V12.3754H83.8211L83.8232 12.3743Z" fill="white"/>
<path lass="papyrus-ico" d="M10.0097 7.41354L13.0835 0L14.9134 0.757292L11.8396 8.17083L10.5456 8.70625L10.0097 7.41354ZM9.47372 11.2927L8.17976 11.8281L5.10594 19.2417L6.93584 19.999L10.0097 12.5854L9.47372 11.2927ZM8.71569 9.46458L8.17976 8.17188L0.759005 5.10104L0.000976562 6.92917L7.42277 10L8.71674 9.46458H8.71569ZM11.3047 10.5354L11.8406 11.8281L19.2614 14.899L20.0194 13.0708L12.5986 10L11.3047 10.5354Z" fill="#EC80FF"/>
<path lass="papyrus-ico" d="M11.8396 11.8282L14.9134 19.2417L13.0835 19.999L10.0097 12.5855L10.5457 11.2928L10.7678 10.7573L11.3037 10.5355L11.8396 11.8282ZM10.5457 8.70631L10.7678 9.24172L11.3037 9.4636L12.5977 9.99901L20.0184 6.92818L19.2604 5.10006L11.8396 8.17089L10.5457 8.70631ZM9.47378 11.2928L9.2517 10.7573L8.71576 10.5355L7.42179 10.0001L0 13.0709L0.758028 14.899L8.17878 11.8282L9.47274 11.2928H9.47378ZM8.71576 9.46464L9.2517 9.24277L9.47378 8.70735L10.0097 7.41464L6.9359 0.00109863L5.106 0.758391L8.17982 8.17193L8.71576 9.46464Z" fill="#875CFF"/>
</svg>
