<svg width="1em" height="1em" viewBox="0 0 32 32" fill="none" xmlns="http://www.w3.org/2000/svg">
<path fill-rule="evenodd" clip-rule="evenodd" d="M16.1417 7L19.4679 15.7895H17.6911L15.3422 9.42177L12.1901 17.9835H15.5181V19.5606H11.6095L9.85818 24.3178H8L14.5417 7H16.1417ZM11.4906 19.39H15.3476V19.39H11.4906L11.4906 19.39ZM9.73923 24.1472H8.24678L8.24676 24.1472H9.73921L9.73923 24.1472ZM15.342 8.9285L17.81 15.6189H19.221L19.221 15.6189H17.81L15.342 8.92846L15.342 8.9285ZM16.7068 18.3442V17.3523H21.0156C21.0156 19.9108 19.9731 22.1078 16.9351 23.5446L16.2004 22.6084C18.325 21.5887 19.4569 20.2353 19.6951 18.3442H16.7068ZM23.448 19.7347H24.7287V20.7451H23.448V25H22.1375V16.4717H23.448V19.7347Z" fill="#1A1A1A"/>
</svg>
