<svg xmlns="http://www.w3.org/2000/svg" width="12" height="12" viewBox="0 0 12 12" fill="none">
<g clip-path="url(#clip0_369_16465)">
<circle cx="6" cy="6" r="5.5" stroke="#FA5454"/>
<path d="M6.85355 3.14645C6.65829 2.95118 6.34171 2.95118 6.14645 3.14645C5.95118 3.34171 5.95118 3.65829 6.14645 3.85355L6.85355 3.14645ZM9 6L9.35355 6.35355C9.54882 6.15829 9.54882 5.84171 9.35355 5.64645L9 6ZM6.14645 8.14645C5.95118 8.34171 5.95118 8.65829 6.14645 8.85355C6.34171 9.04882 6.65829 9.04882 6.85355 8.85355L6.14645 8.14645ZM3 5.5C2.72386 5.5 2.5 5.72386 2.5 6C2.5 6.27614 2.72386 6.5 3 6.5L3 5.5ZM6.14645 3.85355L8.64645 6.35355L9.35355 5.64645L6.85355 3.14645L6.14645 3.85355ZM8.64645 5.64645L6.14645 8.14645L6.85355 8.85355L9.35355 6.35355L8.64645 5.64645ZM3 6.5L9 6.5L9 5.5L3 5.5L3 6.5Z" fill="#FA5454"/>
</g>
<defs>
<clipPath id="clip0_369_16465">
<rect width="12" height="12" fill="white"/>
</clipPath>
</defs>
</svg>