<svg width="1em" height="1em" viewBox="0 0 16 16" fill="none" xmlns="http://www.w3.org/2000/svg">
<path d="M13.6869 5.68687C13.8821 5.4916 13.8821 5.17502 13.6869 4.97976C13.4916 4.7845 13.175 4.7845 12.9798 4.97976L13.6869 5.68687ZM7.99999 10.6666L7.64644 11.0202C7.8417 11.2155 8.15828 11.2155 8.35354 11.0202L7.99999 10.6666ZM3.02021 4.97976C2.82495 4.7845 2.50837 4.7845 2.3131 4.97976C2.11784 5.17502 2.11784 5.4916 2.3131 5.68687L3.02021 4.97976ZM12.9798 4.97976L7.64644 10.3131L8.35354 11.0202L13.6869 5.68687L12.9798 4.97976ZM8.35354 10.3131L3.02021 4.97976L2.3131 5.68687L7.64644 11.0202L8.35354 10.3131Z" fill="#404040"/>
</svg>
