<svg width="112" height="64" viewBox="0 0 112 64" fill="none" xmlns="http://www.w3.org/2000/svg">
<path fill-rule="evenodd" clip-rule="evenodd" d="M106.571 30.8H111.976C111.992 31.198 112 31.5981 112 32C112 48.5685 98.5685 62 82 62C65.4315 62 52 48.5685 52 32C52 15.4315 65.4315 2 82 2C94.0036 2 104.361 9.04983 109.157 19.2349L104.055 21.0916C100.035 12.978 91.6688 7.4 82 7.4C68.4138 7.4 57.4 18.4138 57.4 32C57.4 45.5862 68.4138 56.6 82 56.6C94.1543 56.6 104.25 47.7854 106.243 36.2H100V30.8L106.571 30.8Z" fill="#5E5FF5"/>
<path fill-rule="evenodd" clip-rule="evenodd" d="M68.8 22.3199H63.52L76.72 46.9599L81.12 38.7466L78.48 33.8186L78.04 34.6399L76.72 37.1039L75.4 34.6399L68.8 22.3199ZM79.36 32.1759L80.68 34.6399L82 37.1039L83.98 40.7999L87.28 46.9599L100.48 22.3199H95.2L88.6 34.6399L87.28 37.1039L85.96 34.6399L84.64 32.1759L82 27.2479L79.36 22.3199H74.08L79.36 32.1759ZM89.92 22.3199L85.52 30.5333L82.88 25.6053L84.64 22.3199H89.92Z" fill="#5E5FF5"/>
<circle cx="32" cy="32" r="30" fill="#5E5FF5"/>
<path fill-rule="evenodd" clip-rule="evenodd" d="M17 21H11L26 49L31 39.6667L28 34.0667L27.5 35L26 37.8L24.5 35L17 21ZM29 32.2L30.5 35L32 37.8L34.25 42L38 49L53 21H47L39.5 35L38 37.8L36.5 35L35 32.2L32 26.6L29 21H23L29 32.2ZM41 21L36 30.3333L33 24.7333L35 21H41Z" fill="white"/>
<rect x="1" y="1" width="62" height="62" rx="31" stroke="white" stroke-width="2"/>
</svg>
