<svg width="1em" height="1em" viewBox="0 0 17 20" fill="none" xmlns="http://www.w3.org/2000/svg">
<path d="M13.8403 10.6361C13.8501 9.86953 14.0538 9.11791 14.4322 8.45117C14.8106 7.78444 15.3515 7.22425 16.0046 6.82274C15.5897 6.23021 15.0424 5.74258 14.4061 5.39858C13.7698 5.05458 13.062 4.86369 12.339 4.84107C10.7967 4.67918 9.30159 5.76393 8.51568 5.76393C7.71457 5.76393 6.50454 4.85714 5.20153 4.88395C4.35872 4.91118 3.53732 5.15626 2.81739 5.59533C2.09745 6.03439 1.50353 6.65245 1.09348 7.3893C-0.682762 10.4646 0.642152 14.9842 2.34364 17.47C3.19493 18.6873 4.18985 20.047 5.49167 19.9988C6.76559 19.9459 7.24137 19.1864 8.7791 19.1864C10.3025 19.1864 10.7489 19.9988 12.0772 19.9681C13.4441 19.9459 14.3054 18.7454 15.1268 17.5167C15.7385 16.6494 16.2091 15.6908 16.5214 14.6764C15.7272 14.3405 15.0495 13.7783 14.5727 13.0598C14.0959 12.3413 13.8412 11.4984 13.8403 10.6361Z" fill="#1A1A1A"/>
<path d="M11.332 3.20588C12.0774 2.31114 12.4446 1.16111 12.3556 0C11.217 0.119598 10.1651 0.663821 9.40971 1.52423C9.04038 1.94457 8.7575 2.43357 8.57727 2.96329C8.39703 3.49301 8.32296 4.05306 8.3593 4.61143C8.92885 4.61729 9.49231 4.49384 10.0072 4.25038C10.5222 4.00692 10.9751 3.64979 11.332 3.20588Z" fill="#1A1A1A"/>
</svg>
    