<svg width="16" height="16" viewBox="0 0 16 16" fill="none" xmlns="http://www.w3.org/2000/svg">
<path d="M14.0099 11.9029C14.1603 11.6713 14.0945 11.3617 13.8629 11.2113C13.6313 11.0609 13.3216 11.1267 13.1712 11.3583L14.0099 11.9029ZM2.72119 12.0719L3.11707 11.7665H3.11707L2.72119 12.0719ZM1.33447 8.1393L1.83436 8.12883L1.33447 8.1393ZM2.55524 4.15202L2.14692 3.86345L2.14692 3.86345L2.55524 4.15202ZM5.90617 1.67018L5.74918 1.19546V1.19546L5.90617 1.67018ZM10.0764 1.66471L9.92066 2.13984L10.0764 1.66471ZM13.0263 4.42746C13.1862 4.65256 13.4984 4.70535 13.7235 4.54539C13.9486 4.38542 14.0014 4.07328 13.8414 3.84818L13.0263 4.42746ZM10.6663 4.16634C10.3902 4.16634 10.1663 4.3902 10.1663 4.66634C10.1663 4.94248 10.3902 5.16634 10.6663 5.16634V4.16634ZM13.9997 4.66634V5.16634C14.2758 5.16634 14.4997 4.94248 14.4997 4.66634H13.9997ZM14.4997 1.33301C14.4997 1.05687 14.2758 0.833008 13.9997 0.833008C13.7235 0.833008 13.4997 1.05687 13.4997 1.33301L14.4997 1.33301ZM13.1712 11.3583C12.453 12.4644 11.399 13.311 10.1641 13.7739L10.5151 14.7103C11.9503 14.1723 13.1752 13.1884 14.0099 11.9029L13.1712 11.3583ZM10.1641 13.7739C8.92919 14.2369 7.57829 14.2917 6.30992 13.9304L6.03596 14.8921C7.51 15.312 9.07995 15.2483 10.5151 14.7103L10.1641 13.7739ZM6.30992 13.9304C5.04157 13.5691 3.92267 12.8107 3.11707 11.7665L2.32531 12.3774C3.26152 13.5909 4.56188 14.4722 6.03596 14.8921L6.30992 13.9304ZM3.11707 11.7665C2.3115 10.7224 1.86198 9.44739 1.83436 8.12883L0.834581 8.14977C0.866678 9.6821 1.38907 11.1638 2.32531 12.3774L3.11707 11.7665ZM1.83436 8.12883C1.80674 6.81025 2.20242 5.51757 2.96356 4.44059L2.14692 3.86345C1.26231 5.11514 0.802484 6.61745 0.834581 8.14977L1.83436 8.12883ZM2.96356 4.44059C3.72471 3.36358 4.81104 2.55899 6.06317 2.14489L5.74918 1.19546C4.294 1.67672 3.0315 2.61179 2.14692 3.86345L2.96356 4.44059ZM6.06317 2.14489C7.3153 1.73079 8.66745 1.72901 9.92066 2.13984L10.2322 1.18959C8.77573 0.712148 7.20435 0.71421 5.74918 1.19546L6.06317 2.14489ZM9.92066 2.13984C11.1739 2.55065 12.2623 3.35244 13.0263 4.42746L13.8414 3.84818C12.9535 2.59886 11.6886 1.66704 10.2322 1.18959L9.92066 2.13984ZM10.6663 5.16634H13.9997V4.16634H10.6663V5.16634ZM14.4997 4.66634V1.33301L13.4997 1.33301V4.66634H14.4997Z" fill="#1A1A1A"/>
<path d="M10 9.98438V11H6.03125L6.03125 10.1406L7.85937 8.21875C8.02083 8.03385 8.15104 7.86849 8.25 7.72266C8.34896 7.57422 8.42057 7.4401 8.46484 7.32031C8.51172 7.20052 8.53516 7.09245 8.53516 6.99609C8.53516 6.83203 8.51042 6.69531 8.46094 6.58594C8.41406 6.47396 8.34375 6.38932 8.25 6.33203C8.15885 6.27474 8.04557 6.24609 7.91016 6.24609C7.77474 6.24609 7.65625 6.28516 7.55469 6.36328C7.45312 6.44141 7.3737 6.54818 7.31641 6.68359C7.26172 6.81901 7.23438 6.97135 7.23438 7.14062H5.91406C5.91406 6.79167 5.9987 6.47266 6.16797 6.18359C6.33984 5.89453 6.57812 5.66406 6.88281 5.49219C7.1875 5.31771 7.54036 5.23047 7.94141 5.23047C8.36068 5.23047 8.71224 5.29557 8.99609 5.42578C9.27995 5.55599 9.49349 5.74479 9.63672 5.99219C9.78255 6.23698 9.85547 6.53255 9.85547 6.87891C9.85547 7.07682 9.82422 7.26693 9.76172 7.44922C9.69922 7.63151 9.60938 7.8125 9.49219 7.99219C9.375 8.16927 9.23177 8.35156 9.0625 8.53906C8.89583 8.72656 8.70573 8.92578 8.49219 9.13672L7.75781 9.98438H10Z" fill="#1A1A1A"/>
</svg>
