<svg width="230" height="52" viewBox="0 0 230 52" fill="none" xmlns="http://www.w3.org/2000/svg">
<path d="M86.1752 22.2806C86.1752 24.3498 85.4917 25.9748 84.1218 27.1529C82.752 28.3311 80.4869 28.9188 77.3237 28.9188H72.461V40.5754H66.4805V11.4121H77.3237C78.9187 11.4121 80.2751 11.5665 81.3903 11.8779C82.5054 12.1894 83.4168 12.6282 84.1218 13.1969C84.8269 13.7657 85.3442 14.459 85.6766 15.2742C86.009 16.0894 86.1752 17.0129 86.1752 18.0475V22.2779V22.2806ZM72.461 25.1217H76.5276C77.884 25.1217 78.8329 24.8319 79.3771 24.255C79.9213 23.6754 80.1947 22.8332 80.1947 21.7282V18.6027C80.1947 17.4977 79.9159 16.6554 79.3583 16.0759C78.8007 15.4963 77.8438 15.2065 76.4873 15.2065H72.461V25.1217Z" fill="white"/>
<path d="M95.2665 31.5931L93.8324 40.5793H87.6133L92.7548 11.416H105.193L110.334 40.5793H104.115L102.681 31.5931H95.2665ZM102.124 27.7987L100.052 15.2131H97.8989L95.8268 27.7987H102.126H102.124Z" fill="white"/>
<path d="M133.974 22.2806C133.974 24.3498 133.29 25.9748 131.921 27.1529C130.551 28.3311 128.286 28.9188 125.123 28.9188H120.26V40.5754H114.279V11.4121H125.123C126.718 11.4121 128.074 11.5665 129.189 11.8779C130.304 12.1894 131.216 12.6282 131.921 13.1969C132.626 13.7657 133.143 14.459 133.475 15.2742C133.808 16.0894 133.974 17.0129 133.974 18.0475V22.2779V22.2806ZM120.26 25.1217H124.326C125.683 25.1217 126.632 24.8319 127.176 24.255C127.72 23.6754 127.994 22.8332 127.994 21.7282V18.6027C127.994 17.4977 127.715 16.6554 127.157 16.0759C126.6 15.4963 125.643 15.2065 124.286 15.2065H120.26V25.1217Z" fill="white"/>
<path d="M143.58 40.5754V29.2654L135.887 11.4121H142.025L146.569 24.0763L151.113 11.4121H157.252L149.558 29.2654V40.5754H143.578H143.58Z" fill="white"/>
<path d="M176.59 40.5766L173.004 30.9648C172.816 30.4746 172.639 30.071 172.465 29.7487C172.291 29.4264 172.087 29.1773 171.846 28.9958C171.607 28.8144 171.328 28.6871 171.009 28.6112C170.69 28.5327 170.291 28.4948 169.814 28.4948H167.262V40.5793H161.281V11.416H171.725C174.382 11.416 176.456 12.0308 177.944 13.255C179.432 14.4819 180.177 16.2044 180.177 18.4252V21.445C180.177 22.3225 180.057 23.0835 179.818 23.7308C179.579 24.3754 179.252 24.9306 178.842 25.3964C178.429 25.8623 177.944 26.2279 177.387 26.5014C176.829 26.775 176.231 26.9727 175.593 27.1027C176.017 27.2327 176.389 27.3816 176.708 27.5468C177.027 27.7148 177.312 27.9287 177.566 28.186C177.818 28.4433 178.051 28.7656 178.263 29.1556C178.475 29.5429 178.687 30.0087 178.901 30.5504L182.769 40.5821H176.59V40.5766ZM167.262 24.6977H170.532C171.251 24.6977 171.84 24.6002 172.307 24.4079C172.771 24.2156 173.143 23.9637 173.422 23.655C173.701 23.3462 173.899 22.986 174.02 22.5744C174.14 22.1627 174.199 21.7375 174.199 21.3014V18.6012C174.199 18.1381 174.14 17.7021 174.02 17.2904C173.899 16.8787 173.701 16.5185 173.422 16.2098C173.143 15.901 172.771 15.6573 172.307 15.4758C171.84 15.2971 171.251 15.205 170.532 15.205H167.262V24.695V24.6977Z" fill="white"/>
<path d="M205.495 11.416V33.7625C205.495 34.9 205.328 35.9183 204.996 36.8229C204.664 37.7275 204.119 38.5021 203.361 39.1466C202.602 39.7912 201.608 40.2896 200.372 40.6389C199.136 40.9883 197.627 41.1616 195.847 41.1616C194.067 41.1616 192.558 40.9883 191.322 40.6389C190.086 40.2896 189.089 39.7939 188.333 39.1466C187.574 38.5021 187.03 37.7275 186.698 36.8229C186.365 35.9183 186.199 34.9 186.199 33.7625V11.416H192.18V33.5756C192.18 34.0414 192.239 34.4991 192.359 34.9487C192.48 35.401 192.678 35.8073 192.957 36.1675C193.236 36.5277 193.609 36.8175 194.072 37.0368C194.536 37.2562 195.128 37.3646 195.847 37.3646C196.565 37.3646 197.155 37.2562 197.621 37.0368C198.085 36.8175 198.458 36.5277 198.737 36.1675C199.015 35.8073 199.214 35.401 199.334 34.9487C199.455 34.4964 199.514 34.0414 199.514 33.5756V11.416H205.495Z" fill="white"/>
<path d="M216.576 32.1717V33.5936C216.576 34.0567 216.635 34.509 216.755 34.9586C216.876 35.4082 217.074 35.8117 217.353 36.1692C217.632 36.5267 218.005 36.8165 218.468 37.0332C218.932 37.2499 219.524 37.3609 220.243 37.3609C220.961 37.3609 221.551 37.2526 222.017 37.0332C222.481 36.8138 222.854 36.524 223.133 36.1638C223.411 35.8036 223.612 35.3974 223.73 34.9451C223.848 34.4928 223.91 34.0351 223.91 33.572V32.4128C223.91 31.2536 223.658 30.3626 223.151 29.7451C222.647 29.1276 221.768 28.5859 220.519 28.1201L215.855 26.3407C214.367 25.799 213.15 24.9865 212.206 23.9032C211.263 22.8199 210.791 21.4657 210.791 19.8434V18.2184C210.791 17.1107 210.957 16.0978 211.289 15.1824C211.622 14.267 212.153 13.487 212.884 12.8424C213.616 12.1978 214.571 11.7022 215.755 11.3528C216.938 11.0034 218.366 10.8301 220.042 10.8301C221.717 10.8301 223.052 11.0034 224.208 11.3528C225.363 11.7022 226.301 12.1978 227.02 12.8451C227.738 13.4897 228.261 14.2724 228.593 15.1878C228.926 16.1032 229.092 17.1188 229.092 18.2292V19.5834H223.111V18.3917C223.111 17.2895 222.891 16.3876 222.454 15.6834C222.015 14.9792 221.211 14.6272 220.042 14.6272C218.793 14.6272 217.935 14.982 217.471 15.6915C217.005 16.4011 216.774 17.3084 216.774 18.4188V19.3099C216.774 20.1874 217.039 20.8888 217.57 21.4169C218.101 21.9451 218.833 22.4028 219.763 22.7901L224.666 24.7617C225.384 25.0461 226.063 25.3603 226.698 25.7097C227.336 26.0563 227.888 26.4842 228.352 26.9853C228.816 27.489 229.188 28.093 229.467 28.8026C229.746 29.5122 229.885 30.368 229.885 31.3755V33.7724C229.885 34.9072 229.719 35.9255 229.387 36.8274C229.054 37.7292 228.51 38.5038 227.751 39.1484C226.993 39.793 225.998 40.2886 224.762 40.638C223.527 40.9847 222.017 41.1607 220.238 41.1607C218.458 41.1607 216.948 40.9874 215.713 40.638C214.477 40.2886 213.48 39.793 212.724 39.1457C211.965 38.5011 211.421 37.7265 211.088 36.822C210.756 35.9174 210.59 34.899 210.59 33.7615V32.1745H216.57L216.576 32.1717Z" fill="white"/>
<path d="M25.7355 19.2752L33.6381 0L38.3426 1.96896L30.44 21.2442L27.1134 22.6362L25.7355 19.2752ZM24.3576 29.361L21.031 30.7531L13.1284 50.0283L17.8329 51.9973L25.7355 32.7221L24.3576 29.361ZM22.4088 24.6079L21.031 21.2469L1.95274 13.2627L0.00390625 18.0158L19.0848 26L22.4115 24.6079H22.4088ZM29.0649 27.3921L30.4427 30.7531L49.5209 38.7373L51.4698 33.9842L32.3916 26L29.0649 27.3921Z" fill="#EC80FF"/>
<path d="M30.4388 30.7543L38.3414 50.0295L33.6368 51.9985L25.7343 32.7233L27.1121 29.3622L27.6831 27.9702L29.061 27.3933L30.4388 30.7543ZM27.1121 22.6374L27.6831 24.0295L29.061 24.6064L32.3876 25.9985L51.4658 18.0143L49.517 13.2612L30.4388 21.2454L27.1121 22.6374ZM24.3564 29.3622L23.7854 27.9702L22.4076 27.3933L19.0809 26.0012L0 33.9854L1.94884 38.7385L21.027 30.7543L24.3537 29.3622H24.3564ZM22.4076 24.6091L23.7854 24.0322L24.3564 22.6402L25.7343 19.2791L17.8317 0.00390625L13.1272 1.97287L21.0297 21.2481L22.4076 24.6091Z" fill="#875CFF"/>
</svg>
