<svg width="1em" height="1em" viewBox="0 0 128 36" fill="none" xmlns="http://www.w3.org/2000/svg">
<g clip-path="url(#clip0_134_4632)">
<path d="M39.0468 26.7805H27.9417L29.8536 36H44.7804L39.0468 26.7805Z" fill="white"/>
<path d="M30.3079 12.7317L22.3901 0L25.0287 12.7317H30.3079Z" fill="white"/>
<path d="M27.3952 24.1463H37.4071L31.9479 15.3658H25.5754L27.3952 24.1463Z" fill="white"/>
<path opacity="0.7" d="M22.3902 0L14.4724 12.7317H25.0288L22.3902 0Z" fill="white"/>
<path opacity="0.7" d="M5.73366 26.7805L0 36H29.8537L27.9417 26.7805H5.73366Z" fill="white"/>
<path opacity="0.7" d="M25.5755 15.3658H12.8328L7.37354 24.1463H27.3952L25.5755 15.3658Z" fill="white"/>
<path d="M59.3298 7.20435L69.7983 20.3641V11.2412C69.7983 9.968 69.6162 9.10752 69.2518 8.65971C68.7513 8.05386 67.9105 7.76191 66.7318 7.78386V7.20435H73.743V7.78386C72.8452 7.898 72.2437 8.04727 71.9364 8.22947C71.6291 8.41166 71.3876 8.7102 71.2164 9.12069C71.043 9.53337 70.9574 10.2402 70.9574 11.2412V28.9075H70.4261L56.0744 11.2412V24.7302C56.0744 25.9507 56.3532 26.7739 56.9108 27.2019C57.4683 27.63 58.1071 27.8429 58.8271 27.8429H59.3276V28.4224H51.8005V27.8429C52.9683 27.8319 53.7827 27.5926 54.2415 27.1229C54.7003 26.6531 54.9308 25.8563 54.9308 24.728V9.75508L54.4764 9.19093C54.0286 8.62678 53.6313 8.258 53.2866 8.0802C52.942 7.90239 52.4459 7.80361 51.8005 7.78386V7.20435H59.3276H59.3298Z" fill="white"/>
<path d="M85.9083 27.8451V28.4246H74.8142V27.8451H75.5188C76.1335 27.8451 76.6296 27.7353 77.0049 27.5158C77.2771 27.3687 77.4857 27.1185 77.6305 26.7651C77.7447 26.5148 77.804 25.8585 77.804 24.7939V10.8351C77.804 9.75069 77.7469 9.07239 77.6305 8.8002C77.5164 8.528 77.2837 8.29093 76.9347 8.08898C76.5857 7.88483 76.1137 7.78386 75.5188 7.78386H74.8142V7.20435H85.9083V7.78386H85.2037C84.5891 7.78386 84.093 7.89361 83.7176 8.11313C83.4454 8.2602 83.2325 8.51044 83.0766 8.86386C82.9625 9.1141 82.9054 9.77044 82.9054 10.8351V24.7939C82.9054 25.8782 82.9647 26.5565 83.0854 26.8287C83.204 27.1009 83.4388 27.338 83.7901 27.54C84.1391 27.7441 84.611 27.8451 85.2059 27.8451H85.9105H85.9083Z" fill="white"/>
<path d="M106.558 20.9765L105.761 28.4246H86.9204V27.8451H87.625C88.2397 27.8451 88.7358 27.7353 89.1111 27.5158C89.3811 27.3687 89.5919 27.1185 89.7367 26.7651C89.8509 26.5148 89.908 25.8585 89.908 24.7939V10.8351C89.908 9.75069 89.8509 9.07239 89.7367 8.8002C89.6226 8.528 89.3899 8.29093 89.0409 8.08898C88.6919 7.88483 88.2199 7.78386 87.625 7.78386H86.9204V7.20435H98.2341V7.78386H97.3099C96.6953 7.78386 96.1992 7.89361 95.8238 8.11313C95.5516 8.2602 95.3387 8.51044 95.1828 8.86386C95.0687 9.1141 95.0094 9.77044 95.0094 10.8351V24.3548C95.0094 25.4392 95.0731 26.1307 95.1982 26.4292C95.3233 26.7278 95.5692 26.9495 95.9336 27.0943C96.1948 27.1887 96.8248 27.2348 97.8258 27.2348H99.595C100.721 27.2348 101.661 27.0373 102.411 26.64C103.162 26.2426 103.812 25.617 104.361 24.7631C104.909 23.907 105.427 22.6448 105.917 20.9765H106.558V20.9765Z" fill="white"/>
<path d="M116.111 8.42483V17.0626H116.535C117.88 17.0626 118.855 16.6412 119.461 15.796C120.067 14.9509 120.453 13.7041 120.62 12.0556H121.215V23.1673H120.62C120.495 21.9578 120.231 20.9656 119.83 20.1951C119.428 19.4224 118.96 18.9043 118.429 18.6387C117.898 18.3731 117.125 18.2392 116.113 18.2392V24.2165C116.113 25.3843 116.161 26.1 116.262 26.3612C116.361 26.6224 116.546 26.8353 116.818 27.0021C117.088 27.169 117.527 27.2524 118.133 27.2524H119.399C121.381 27.2524 122.971 26.7936 124.165 25.876C125.359 24.9585 126.217 23.5602 126.74 21.6834H127.319L126.364 28.429H108.024V27.8495H108.729C109.343 27.8495 109.84 27.7397 110.215 27.5202C110.485 27.3731 110.696 27.1229 110.841 26.7695C110.955 26.5192 111.012 25.8629 111.012 24.7982V10.8351C111.012 9.87581 110.985 9.28532 110.933 9.06581C110.827 8.70142 110.634 8.41825 110.353 8.22068C109.956 7.92873 109.414 7.78166 108.727 7.78166H108.022V7.20215H125.783V13.478H125.188C124.885 11.9436 124.461 10.8439 123.912 10.1765C123.366 9.50922 122.591 9.01751 121.588 8.70581C121.004 8.51703 119.909 8.42483 118.302 8.42483H116.111V8.42483Z" fill="white"/>
</g>
<defs>
<clipPath id="clip0_134_4632">
<rect width="127.317" height="36" fill="white"/>
</clipPath>
</defs>
</svg>
