<svg width="32" height="32" viewBox="0 0 32 32" fill="none" xmlns="http://www.w3.org/2000/svg">
<rect width="32" height="32" rx="16" fill="#535353"/>
<path d="M22.3971 20.325L21.3221 19.25V15.0833C21.3221 12.525 19.9554 10.3833 17.5721 9.81667V9.25C17.5721 8.55833 17.0137 8 16.3221 8C15.6304 8 15.0721 8.55833 15.0721 9.25V9.81667C12.6804 10.3833 11.3221 12.5167 11.3221 15.0833V19.25L10.2471 20.325C9.72206 20.85 10.0887 21.75 10.8304 21.75H21.8054C22.5554 21.75 22.9221 20.85 22.3971 20.325ZM19.6554 20.0833H12.9887V15.0833C12.9887 13.0167 14.2471 11.3333 16.3221 11.3333C18.3971 11.3333 19.6554 13.0167 19.6554 15.0833V20.0833ZM16.3221 24.25C17.2387 24.25 17.9887 23.5 17.9887 22.5833H14.6554C14.6554 23.5 15.3971 24.25 16.3221 24.25Z" fill="white"/>
</svg>

