<svg xmlns="http://www.w3.org/2000/svg" width="1em" height="32" viewBox="0 0 32 32" fill="none">
<path d="M19.8637 18.803C19.5708 18.5101 19.0959 18.5101 18.803 18.803C18.5101 19.0959 18.5101 19.5708 18.803 19.8637L19.8637 18.803ZM25.4697 26.5303C25.7626 26.8232 26.2374 26.8232 26.5303 26.5303C26.8232 26.2374 26.8232 25.7626 26.5303 25.4697L25.4697 26.5303ZM13.7778 20.8056C9.89644 20.8056 6.75 17.6591 6.75 13.7778H5.25C5.25 18.4875 9.06802 22.3056 13.7778 22.3056V20.8056ZM6.75 13.7778C6.75 9.89644 9.89644 6.75 13.7778 6.75V5.25C9.06802 5.25 5.25 9.06802 5.25 13.7778H6.75ZM13.7778 6.75C17.6591 6.75 20.8056 9.89644 20.8056 13.7778H22.3056C22.3056 9.06802 18.4875 5.25 13.7778 5.25V6.75ZM20.8056 13.7778C20.8056 17.6591 17.6591 20.8056 13.7778 20.8056V22.3056C18.4875 22.3056 22.3056 18.4875 22.3056 13.7778H20.8056ZM18.803 19.8637L25.4697 26.5303L26.5303 25.4697L19.8637 18.803L18.803 19.8637Z" fill="#1A1A1A"/>
</svg>