<svg width="1em" height="1em" viewBox="0 0 24 24" fill="none" xmlns="http://www.w3.org/2000/svg">
<path d="M12.5 7.55556C12.5 7.27941 12.2761 7.05556 12 7.05556C11.7239 7.05556 11.5 7.27941 11.5 7.55556H12.5ZM12 12H11.5C11.5 12.2761 11.7239 12.5 12 12.5V12ZM16.4444 12.5C16.7206 12.5 16.9444 12.2761 16.9444 12C16.9444 11.7239 16.7206 11.5 16.4444 11.5V12.5ZM12 19.5C7.85786 19.5 4.5 16.1421 4.5 12H3.5C3.5 16.6944 7.30558 20.5 12 20.5V19.5ZM4.5 12C4.5 7.85786 7.85786 4.5 12 4.5V3.5C7.30558 3.5 3.5 7.30558 3.5 12H4.5ZM12 4.5C16.1421 4.5 19.5 7.85786 19.5 12H20.5C20.5 7.30558 16.6944 3.5 12 3.5V4.5ZM19.5 12C19.5 16.1421 16.1421 19.5 12 19.5V20.5C16.6944 20.5 20.5 16.6944 20.5 12H19.5ZM11.5 7.55556V12H12.5V7.55556H11.5ZM12 12.5H16.4444V11.5H12V12.5Z" fill="#1A1A1A"/>
</svg>
