<svg width="16" height="16" viewBox="0 0 16 16" fill="none" xmlns="http://www.w3.org/2000/svg">
<path d="M5.7 6.8C5.7 7.07614 5.92386 7.3 6.2 7.3C6.47614 7.3 6.7 7.07614 6.7 6.8H5.7ZM7.5 9.8C7.5 10.0761 7.72386 10.3 8 10.3C8.27614 10.3 8.5 10.0761 8.5 9.8H7.5ZM8.03319 11.5H8.53319C8.53319 11.2238 8.30933 11 8.03319 11V11.5ZM8.03319 11.5666L8.03307 12.0666C8.1657 12.0667 8.2929 12.014 8.3867 11.9202C8.4805 11.8264 8.53319 11.6992 8.53319 11.5666H8.03319ZM7.96678 11.5666H7.46678C7.46678 11.8427 7.69057 12.0665 7.96666 12.0666L7.96678 11.5666ZM7.96678 11.5V11C7.69064 11 7.46678 11.2238 7.46678 11.5H7.96678ZM8 13.5C4.96243 13.5 2.5 11.0376 2.5 8H1.5C1.5 11.5899 4.41015 14.5 8 14.5V13.5ZM2.5 8C2.5 4.96243 4.96243 2.5 8 2.5V1.5C4.41015 1.5 1.5 4.41015 1.5 8H2.5ZM8 2.5C11.0376 2.5 13.5 4.96243 13.5 8H14.5C14.5 4.41015 11.5899 1.5 8 1.5V2.5ZM13.5 8C13.5 11.0376 11.0376 13.5 8 13.5V14.5C11.5899 14.5 14.5 11.5899 14.5 8H13.5ZM6.7 6.8C6.7 6.58001 6.77011 6.2389 6.96577 5.96715C7.14307 5.7209 7.44296 5.5 8 5.5V4.5C7.11704 4.5 6.51693 4.8791 6.15423 5.38285C5.80989 5.8611 5.7 6.41999 5.7 6.8H6.7ZM8 5.5C8.55704 5.5 8.85693 5.7209 9.03423 5.96715C9.22989 6.2389 9.3 6.58001 9.3 6.8H10.3C10.3 6.41999 10.1901 5.8611 9.84577 5.38285C9.48307 4.8791 8.88296 4.5 8 4.5V5.5ZM9.3 6.8C9.3 7.14258 9.04132 7.45638 8.57991 7.84089C8.38584 8.00261 8.12037 8.20482 7.93794 8.37712C7.8406 8.46905 7.73781 8.578 7.65739 8.70247C7.57638 8.82784 7.5 8.99693 7.5 9.2H8.5C8.5 9.25307 8.47987 9.27216 8.4973 9.24519C8.51531 9.21731 8.55316 9.17157 8.62456 9.10413C8.77963 8.95768 8.96416 8.82239 9.22009 8.60911C9.65868 8.24362 10.3 7.65742 10.3 6.8H9.3ZM7.5 9.2V9.8H8.5V9.2H7.5ZM7.53319 11.5V11.5666H8.53319V11.5H7.53319ZM8.03332 11.0666L7.96691 11.0666L7.96666 12.0666L8.03307 12.0666L8.03332 11.0666ZM8.46678 11.5666V11.5H7.46678V11.5666H8.46678ZM7.96678 12H8.03319V11H7.96678V12Z" fill="white"/>
</svg>
