<svg width="14" height="14" viewBox="0 0 14 14" fill="none" xmlns="http://www.w3.org/2000/svg">
<path d="M7.63086 6.33333C7.63086 6.05719 7.407 5.83333 7.13086 5.83333C6.85472 5.83333 6.63086 6.05719 6.63086 6.33333H7.63086ZM6.63086 9.66667C6.63086 9.94281 6.85472 10.1667 7.13086 10.1667C7.407 10.1667 7.63086 9.94281 7.63086 9.66667H6.63086ZM7.16406 4.33333H7.66406C7.66406 4.05719 7.44021 3.83333 7.16406 3.83333V4.33333ZM7.16406 4.4L7.16394 4.9C7.29657 4.90003 7.42378 4.84737 7.51757 4.7536C7.61137 4.65982 7.66406 4.53263 7.66406 4.4H7.16406ZM7.09766 4.39998H6.59766C6.59766 4.67608 6.82144 4.89992 7.09753 4.89998L7.09766 4.39998ZM7.09766 4.33333V3.83333C6.82151 3.83333 6.59766 4.05719 6.59766 4.33333H7.09766ZM7.13086 12.5C4.09329 12.5 1.63086 10.0376 1.63086 7H0.630859C0.630859 10.5899 3.54101 13.5 7.13086 13.5V12.5ZM1.63086 7C1.63086 3.96243 4.09329 1.5 7.13086 1.5V0.5C3.54101 0.5 0.630859 3.41015 0.630859 7H1.63086ZM7.13086 1.5C10.1684 1.5 12.6309 3.96243 12.6309 7H13.6309C13.6309 3.41015 10.7207 0.5 7.13086 0.5V1.5ZM12.6309 7C12.6309 10.0376 10.1684 12.5 7.13086 12.5V13.5C10.7207 13.5 13.6309 10.5899 13.6309 7H12.6309ZM6.63086 6.33333V9.66667H7.63086V6.33333H6.63086ZM6.66406 4.33333V4.4H7.66406V4.33333H6.66406ZM7.16418 3.9L7.09778 3.89998L7.09753 4.89998L7.16394 4.9L7.16418 3.9ZM7.59766 4.39998V4.33333H6.59766V4.39998H7.59766ZM7.09766 4.83333H7.16406V3.83333H7.09766V4.83333Z" fill="#1A1A1A"/>
</svg>
