<svg width="16" height="16" viewBox="0 0 16 16" fill="none" xmlns="http://www.w3.org/2000/svg">
<path d="M14.0099 11.9029C14.1603 11.6713 14.0945 11.3617 13.8629 11.2113C13.6313 11.0609 13.3216 11.1267 13.1712 11.3583L14.0099 11.9029ZM2.72119 12.0719L3.11707 11.7665H3.11707L2.72119 12.0719ZM1.33447 8.1393L1.83436 8.12883L1.33447 8.1393ZM2.55524 4.15202L2.14692 3.86345L2.14692 3.86345L2.55524 4.15202ZM5.90617 1.67018L5.74918 1.19546V1.19546L5.90617 1.67018ZM10.0764 1.66471L9.92066 2.13984L10.0764 1.66471ZM13.0263 4.42746C13.1862 4.65256 13.4984 4.70535 13.7235 4.54539C13.9486 4.38542 14.0014 4.07328 13.8414 3.84818L13.0263 4.42746ZM10.6663 4.16634C10.3902 4.16634 10.1663 4.3902 10.1663 4.66634C10.1663 4.94248 10.3902 5.16634 10.6663 5.16634V4.16634ZM13.9997 4.66634V5.16634C14.2758 5.16634 14.4997 4.94248 14.4997 4.66634H13.9997ZM14.4997 1.33301C14.4997 1.05687 14.2758 0.833008 13.9997 0.833008C13.7235 0.833008 13.4997 1.05687 13.4997 1.33301L14.4997 1.33301ZM13.1712 11.3583C12.453 12.4644 11.399 13.311 10.1641 13.7739L10.5151 14.7103C11.9503 14.1723 13.1752 13.1884 14.0099 11.9029L13.1712 11.3583ZM10.1641 13.7739C8.92919 14.2369 7.57829 14.2917 6.30992 13.9304L6.03596 14.8921C7.51 15.312 9.07995 15.2483 10.5151 14.7103L10.1641 13.7739ZM6.30992 13.9304C5.04157 13.5691 3.92267 12.8107 3.11707 11.7665L2.32531 12.3774C3.26152 13.5909 4.56188 14.4722 6.03596 14.8921L6.30992 13.9304ZM3.11707 11.7665C2.3115 10.7224 1.86198 9.44739 1.83436 8.12883L0.834581 8.14977C0.866678 9.6821 1.38907 11.1638 2.32531 12.3774L3.11707 11.7665ZM1.83436 8.12883C1.80674 6.81025 2.20242 5.51757 2.96356 4.44059L2.14692 3.86345C1.26231 5.11514 0.802484 6.61745 0.834581 8.14977L1.83436 8.12883ZM2.96356 4.44059C3.72471 3.36358 4.81104 2.55899 6.06317 2.14489L5.74918 1.19546C4.294 1.67672 3.0315 2.61179 2.14692 3.86345L2.96356 4.44059ZM6.06317 2.14489C7.3153 1.73079 8.66745 1.72901 9.92066 2.13984L10.2322 1.18959C8.77573 0.712148 7.20435 0.71421 5.74918 1.19546L6.06317 2.14489ZM9.92066 2.13984C11.1739 2.55065 12.2623 3.35244 13.0263 4.42746L13.8414 3.84818C12.9535 2.59886 11.6886 1.66704 10.2322 1.18959L9.92066 2.13984ZM10.6663 5.16634H13.9997V4.16634H10.6663V5.16634ZM14.4997 4.66634V1.33301L13.4997 1.33301V4.66634H14.4997Z" fill="#1A1A1A"/>
<path d="M7.23047 7.60547H7.87109C8.03516 7.60547 8.16927 7.57682 8.27344 7.51953C8.38021 7.45964 8.45964 7.3763 8.51172 7.26953C8.5638 7.16016 8.58984 7.03125 8.58984 6.88281C8.58984 6.76823 8.5651 6.66276 8.51562 6.56641C8.46875 6.47005 8.39583 6.39323 8.29688 6.33594C8.19792 6.27604 8.07161 6.24609 7.91797 6.24609C7.8138 6.24609 7.71224 6.26823 7.61328 6.3125C7.51432 6.35417 7.43229 6.41406 7.36719 6.49219C7.30469 6.57031 7.27344 6.66536 7.27344 6.77734H5.95312C5.95312 6.45443 6.04167 6.17839 6.21875 5.94922C6.39844 5.71745 6.63411 5.54036 6.92578 5.41797C7.22005 5.29297 7.53646 5.23047 7.875 5.23047C8.27865 5.23047 8.63281 5.29297 8.9375 5.41797C9.24219 5.54036 9.47917 5.72266 9.64844 5.96484C9.82031 6.20443 9.90625 6.5013 9.90625 6.85547C9.90625 7.05078 9.86068 7.23438 9.76953 7.40625C9.67839 7.57813 9.55078 7.72917 9.38672 7.85938C9.22266 7.98958 9.02995 8.09245 8.80859 8.16797C8.58984 8.24089 8.35026 8.27734 8.08984 8.27734H7.23047L7.23047 7.60547ZM7.23047 8.58594L7.23047 7.92969H8.08984C8.3737 7.92969 8.63281 7.96224 8.86719 8.02734C9.10156 8.08984 9.30339 8.18359 9.47266 8.30859C9.64193 8.43359 9.77214 8.58854 9.86328 8.77344C9.95443 8.95573 10 9.16536 10 9.40234C10 9.66797 9.94661 9.90495 9.83984 10.1133C9.73307 10.3216 9.58333 10.4974 9.39062 10.6406C9.19792 10.7839 8.97266 10.8932 8.71484 10.9688C8.45703 11.0417 8.17708 11.0781 7.875 11.0781C7.63802 11.0781 7.40104 11.0469 7.16406 10.9844C6.92708 10.9193 6.71094 10.8203 6.51562 10.6875C6.32031 10.5521 6.16276 10.3802 6.04297 10.1719C5.92578 9.96094 5.86719 9.70964 5.86719 9.41797H7.1875C7.1875 9.53776 7.22005 9.64714 7.28516 9.74609C7.35286 9.84245 7.44271 9.91927 7.55469 9.97656C7.66667 10.0339 7.78776 10.0625 7.91797 10.0625C8.07943 10.0625 8.21615 10.0326 8.32812 9.97266C8.44271 9.91016 8.52995 9.82682 8.58984 9.72266C8.64974 9.61849 8.67969 9.5026 8.67969 9.375C8.67969 9.18229 8.64714 9.02865 8.58203 8.91406C8.51953 8.79948 8.42708 8.71615 8.30469 8.66406C8.1849 8.61198 8.04036 8.58594 7.87109 8.58594H7.23047Z" fill="#1A1A1A"/>
</svg>
