<svg width="1em" height="1em" viewBox="0 0 25 24" fill="none" xmlns="http://www.w3.org/2000/svg">
<path d="M3.37109 11.5C3.09495 11.5 2.87109 11.7239 2.87109 12C2.87109 12.2761 3.09495 12.5 3.37109 12.5V11.5ZM21.3711 12L21.7246 12.3536C21.9199 12.1583 21.9199 11.8417 21.7246 11.6464L21.3711 12ZM16.7246 6.64645C16.5294 6.45118 16.2128 6.45118 16.0175 6.64645C15.8223 6.84171 15.8223 7.15829 16.0175 7.35355L16.7246 6.64645ZM16.0175 16.6464C15.8223 16.8417 15.8223 17.1583 16.0175 17.3536C16.2128 17.5488 16.5294 17.5488 16.7246 17.3536L16.0175 16.6464ZM3.37109 12.5H21.3711V11.5H3.37109V12.5ZM21.7246 11.6464L16.7246 6.64645L16.0175 7.35355L21.0175 12.3536L21.7246 11.6464ZM21.0175 11.6464L16.0175 16.6464L16.7246 17.3536L21.7246 12.3536L21.0175 11.6464Z" fill="#1A1A1A"/>
</svg>
