<svg xmlns="http://www.w3.org/2000/svg" width="1em" height="1em" viewBox="0 0 24 24" fill="none">
<path d="M7.1 11.1C7.37614 11.1 7.6 10.8761 7.6 10.6C7.6 10.3239 7.37614 10.1 7.1 10.1V11.1ZM16.9 10.1C16.6239 10.1 16.4 10.3239 16.4 10.6C16.4 10.8761 16.6239 11.1 16.9 11.1V10.1ZM8.14645 8.14645C7.95118 8.34171 7.95118 8.65829 8.14645 8.85355C8.34171 9.04882 8.65829 9.04882 8.85355 8.85355L8.14645 8.14645ZM12 5L12.3536 4.64645C12.1583 4.45118 11.8417 4.45118 11.6464 4.64645L12 5ZM15.1464 8.85355C15.3417 9.04882 15.6583 9.04882 15.8536 8.85355C16.0488 8.65829 16.0488 8.34171 15.8536 8.14645L15.1464 8.85355ZM11.5 14.8C11.5 15.0761 11.7239 15.3 12 15.3C12.2761 15.3 12.5 15.0761 12.5 14.8H11.5ZM18.5 12.28V17.32H19.5V12.28H18.5ZM17.6 18.5H6.4V19.5H17.6V18.5ZM5.5 17.32V12.28H4.5V17.32H5.5ZM6.4 11.1H7.1V10.1H6.4V11.1ZM16.9 11.1H17.6V10.1H16.9V11.1ZM6.4 18.5C5.98443 18.5 5.5 18.0609 5.5 17.32H4.5C4.5 18.4348 5.26917 19.5 6.4 19.5V18.5ZM18.5 17.32C18.5 18.0609 18.0156 18.5 17.6 18.5V19.5C18.7308 19.5 19.5 18.4348 19.5 17.32H18.5ZM19.5 12.28C19.5 11.1652 18.7308 10.1 17.6 10.1V11.1C18.0156 11.1 18.5 11.5391 18.5 12.28H19.5ZM5.5 12.28C5.5 11.5391 5.98443 11.1 6.4 11.1V10.1C5.26917 10.1 4.5 11.1652 4.5 12.28H5.5ZM8.85355 8.85355L12.3536 5.35355L11.6464 4.64645L8.14645 8.14645L8.85355 8.85355ZM11.6464 5.35355L15.1464 8.85355L15.8536 8.14645L12.3536 4.64645L11.6464 5.35355ZM12.5 14.8V5H11.5V14.8H12.5Z" fill="#1A1A1A"/>
</svg>