<svg width="16" height="16" viewBox="0 0 16 16" fill="none" xmlns="http://www.w3.org/2000/svg">
<path d="M12.8125 4.0625C12.8125 4.54575 12.4207 4.9375 11.9375 4.9375C11.4543 4.9375 11.0625 4.54575 11.0625 4.0625C11.0625 3.57925 11.4543 3.1875 11.9375 3.1875C12.4207 3.1875 12.8125 3.57925 12.8125 4.0625Z" fill="url(#paint0_linear_5245_3615)"/>
<path fill-rule="evenodd" clip-rule="evenodd" d="M11.5 2.25H4.5C3.25736 2.25 2.25 3.25736 2.25 4.5V11.5C2.25 12.7426 3.25736 13.75 4.5 13.75H11.5C12.7426 13.75 13.75 12.7426 13.75 11.5V4.5C13.75 3.25736 12.7426 2.25 11.5 2.25ZM4.5 1C2.567 1 1 2.567 1 4.5V11.5C1 13.433 2.567 15 4.5 15H11.5C13.433 15 15 13.433 15 11.5V4.5C15 2.567 13.433 1 11.5 1H4.5Z" fill="url(#paint1_linear_5245_3615)"/>
<path fill-rule="evenodd" clip-rule="evenodd" d="M8 10.25C9.24264 10.25 10.25 9.24264 10.25 8C10.25 6.75736 9.24264 5.75 8 5.75C6.75736 5.75 5.75 6.75736 5.75 8C5.75 9.24264 6.75736 10.25 8 10.25ZM8 11.5C9.933 11.5 11.5 9.933 11.5 8C11.5 6.067 9.933 4.5 8 4.5C6.067 4.5 4.5 6.067 4.5 8C4.5 9.933 6.067 11.5 8 11.5Z" fill="url(#paint2_linear_5245_3615)"/>
<defs>
<linearGradient id="paint0_linear_5245_3615" x1="12.5" y1="1.5" x2="10" y2="5.5" gradientUnits="userSpaceOnUse">
<stop offset="0.305089" stop-color="#6D3BC2"/>
<stop offset="0.514678" stop-color="#EA2A7D"/>
<stop offset="0.683879" stop-color="#F38A57"/>
</linearGradient>
<linearGradient id="paint1_linear_5245_3615" x1="11" y1="-3.15053e-07" x2="4" y2="15" gradientUnits="userSpaceOnUse">
<stop offset="0.125" stop-color="#6D3BC2"/>
<stop offset="0.447917" stop-color="#CA2F8E"/>
<stop offset="0.671875" stop-color="#EA2A7D"/>
<stop offset="0.875" stop-color="#F38A57"/>
</linearGradient>
<linearGradient id="paint2_linear_5245_3615" x1="9.5" y1="4" x2="6" y2="11.5" gradientUnits="userSpaceOnUse">
<stop offset="0.125" stop-color="#6D3BC2"/>
<stop offset="0.447917" stop-color="#CA2F8E"/>
<stop offset="0.671875" stop-color="#EA2A7D"/>
<stop offset="0.875" stop-color="#F38A57"/>
</linearGradient>
</defs>
</svg>
