<svg width="1em" height="1em" viewBox="0 0 26 16" fill="none" xmlns="http://www.w3.org/2000/svg">
<path d="M1 7.49967C0.723858 7.49967 0.5 7.72353 0.5 7.99967C0.5 8.27582 0.723858 8.49967 1 8.49967V7.49967ZM25 7.99967L25.3536 8.35323C25.4473 8.25946 25.5 8.13228 25.5 7.99967C25.5 7.86707 25.4473 7.73989 25.3536 7.64612L25 7.99967ZM18.6869 0.979454C18.4916 0.784192 18.175 0.784192 17.9798 0.979454C17.7845 1.17472 17.7845 1.4913 17.9798 1.68656L18.6869 0.979454ZM17.9798 14.3128C17.7845 14.508 17.7845 14.8246 17.9798 15.0199C18.175 15.2152 18.4916 15.2152 18.6869 15.0199L17.9798 14.3128ZM1 8.49967H25V7.49967H1V8.49967ZM25.3536 7.64612L18.6869 0.979454L17.9798 1.68656L24.6464 8.35323L25.3536 7.64612ZM24.6464 7.64612L17.9798 14.3128L18.6869 15.0199L25.3536 8.35323L24.6464 7.64612Z" fill="white"/>
</svg>
