<svg width="1em" height="1em" viewBox="0 0 160 152" fill="none" xmlns="http://www.w3.org/2000/svg">
<g clip-path="url(#clip0_833_16650)">
<g filter="url(#filter0_d_833_16650)">
<g filter="url(#filter1_d_833_16650)">
<mask id="mask0_833_16650" style="mask-type:alpha" maskUnits="userSpaceOnUse" x="22" y="47" width="5" height="2">
<path d="M24.9968 47.7476C25.4266 47.808 25.8442 47.9823 26.2028 48.2659L25.3576 48.3465C25.1532 48.102 24.9212 47.8941 24.6698 47.7242C24.7794 47.7245 24.8886 47.7324 24.9968 47.7476Z" fill="white" stroke="white" stroke-width="0.72375"/>
</mask>
<g mask="url(#mask0_833_16650)">
<mask id="path-2-inside-1_833_16650" fill="white">
<path d="M22.6133 47.5476L24.3981 47.3776C24.4761 47.3701 24.5542 47.366 24.6323 47.3652L22.8475 47.5352C22.7695 47.536 22.6913 47.5401 22.6133 47.5476Z"/>
</mask>
<path d="M22.6133 47.5476L24.3981 47.3776C24.4761 47.3701 24.5542 47.366 24.6323 47.3652L22.8475 47.5352C22.7695 47.536 22.6913 47.5401 22.6133 47.5476Z" fill="white" fill-opacity="0.4"/>
<path d="M22.6133 47.5476L22.5447 46.8271L22.6819 48.268L22.6133 47.5476ZM24.3981 47.3776L24.3295 46.6571L24.3294 46.6571L24.3981 47.3776ZM24.6323 47.3652L24.7009 48.0857L24.6248 46.6415L24.6323 47.3652ZM22.8475 47.5352L22.855 48.2589L22.8856 48.2586L22.9161 48.2557L22.8475 47.5352ZM22.6819 48.268L24.4667 48.0981L24.3294 46.6571L22.5447 46.8271L22.6819 48.268ZM24.4667 48.0981C24.5243 48.0926 24.5821 48.0895 24.6397 48.0889L24.6248 46.6415C24.5264 46.6425 24.4278 46.6477 24.3295 46.6571L24.4667 48.0981ZM24.5637 46.6447L22.7789 46.8147L22.9161 48.2557L24.7009 48.0857L24.5637 46.6447ZM22.84 46.8115C22.7416 46.8125 22.643 46.8177 22.5447 46.8271L22.6819 48.268C22.7396 48.2626 22.7973 48.2595 22.855 48.2589L22.84 46.8115Z" fill="white" mask="url(#path-2-inside-1_833_16650)"/>
<mask id="path-4-inside-2_833_16650" fill="white">
<path d="M22.8477 47.5354L24.6324 47.3654C24.7162 47.3645 24.7998 47.3674 24.8831 47.3741L23.0983 47.5441C23.0151 47.5374 22.9314 47.5345 22.8477 47.5354Z"/>
</mask>
<path d="M22.8477 47.5354L24.6324 47.3654C24.7162 47.3645 24.7998 47.3674 24.8831 47.3741L23.0983 47.5441C23.0151 47.5374 22.9314 47.5345 22.8477 47.5354Z" fill="white" fill-opacity="0.4"/>
<path d="M22.8477 47.5354L22.779 46.8149L22.8551 48.2591L22.8477 47.5354ZM24.6324 47.3654L24.625 46.6417L24.5943 46.642L24.5638 46.6449L24.6324 47.3654ZM24.8831 47.3741L24.9517 48.0946L24.941 46.6527L24.8831 47.3741ZM23.0983 47.5441L23.0404 48.2655L23.1037 48.2706L23.1669 48.2646L23.0983 47.5441ZM22.9163 48.2558L24.701 48.0859L24.5638 46.6449L22.779 46.8149L22.9163 48.2558ZM24.6399 48.0891C24.7018 48.0885 24.7637 48.0906 24.8252 48.0956L24.941 46.6527C24.836 46.6443 24.7305 46.6406 24.625 46.6417L24.6399 48.0891ZM24.8145 46.6536L23.0297 46.8236L23.1669 48.2646L24.9517 48.0946L24.8145 46.6536ZM23.1562 46.8227C23.0512 46.8142 22.9458 46.8106 22.8402 46.8116L22.8551 48.2591C22.9171 48.2584 22.9789 48.2606 23.0404 48.2655L23.1562 46.8227Z" fill="white" mask="url(#path-4-inside-2_833_16650)"/>
<mask id="path-6-inside-3_833_16650" fill="white">
<path d="M23.0967 47.542L24.8815 47.3721C24.936 47.3765 24.9905 47.3825 25.0447 47.3901C25.0679 47.3933 25.0911 47.3969 25.1142 47.4007L23.3294 47.5707C23.3063 47.5668 23.2831 47.5633 23.2599 47.56C23.2057 47.5524 23.1513 47.5464 23.0967 47.542Z"/>
</mask>
<path d="M23.0967 47.542L24.8815 47.3721C24.936 47.3765 24.9905 47.3825 25.0447 47.3901C25.0679 47.3933 25.0911 47.3969 25.1142 47.4007L23.3294 47.5707C23.3063 47.5668 23.2831 47.5633 23.2599 47.56C23.2057 47.5524 23.1513 47.5464 23.0967 47.542Z" fill="white" fill-opacity="0.4"/>
<path d="M23.0967 47.542L23.0281 46.8216L23.0387 48.2635L23.0967 47.542ZM24.8815 47.3721L24.9394 46.6506L24.8761 46.6456L24.8128 46.6516L24.8815 47.3721ZM25.0447 47.3901L25.1454 46.6733L25.1452 46.6733L25.0447 47.3901ZM25.1142 47.4007L25.1828 48.1212L25.2326 46.6867L25.1142 47.4007ZM23.3294 47.5707L23.211 48.2847L23.3041 48.3001L23.3981 48.2912L23.3294 47.5707ZM23.2599 47.56L23.3606 46.8433L23.3604 46.8433L23.2599 47.56ZM23.1653 48.2625L24.9501 48.0926L24.8128 46.6516L23.0281 46.8216L23.1653 48.2625ZM24.8235 48.0935C24.8639 48.0967 24.9041 48.1012 24.9442 48.1068L25.1452 46.6733C25.0768 46.6637 25.0082 46.6562 24.9394 46.6506L24.8235 48.0935ZM24.944 48.1068C24.9615 48.1092 24.9788 48.1119 24.9958 48.1147L25.2326 46.6867C25.2034 46.6818 25.1743 46.6774 25.1454 46.6733L24.944 48.1068ZM25.0456 46.6802L23.2608 46.8502L23.3981 48.2912L25.1828 48.1212L25.0456 46.6802ZM23.4478 46.8567C23.4186 46.8518 23.3895 46.8474 23.3606 46.8433L23.1592 48.2767C23.1767 48.2792 23.194 48.2818 23.211 48.2847L23.4478 46.8567ZM23.3604 46.8433C23.2921 46.8337 23.2234 46.8261 23.1546 46.8206L23.0387 48.2635C23.0791 48.2667 23.1193 48.2711 23.1594 48.2768L23.3604 46.8433Z" fill="white" mask="url(#path-6-inside-3_833_16650)"/>
<mask id="path-8-inside-4_833_16650" fill="white">
<path d="M23.332 47.5723L25.1168 47.4023C25.1921 47.4148 25.2669 47.4303 25.3411 47.4489L23.5564 47.6188C23.4821 47.6003 23.4073 47.5848 23.332 47.5723Z"/>
</mask>
<path d="M23.332 47.5723L25.1168 47.4023C25.1921 47.4148 25.2669 47.4303 25.3411 47.4489L23.5564 47.6188C23.4821 47.6003 23.4073 47.5848 23.332 47.5723Z" fill="white" fill-opacity="0.4"/>
<path d="M23.332 47.5723L23.2634 46.8518L23.2137 48.2863L23.332 47.5723ZM25.1168 47.4023L25.2351 46.6883L25.1421 46.6729L25.0482 46.6819L25.1168 47.4023ZM25.3411 47.4489L25.4098 48.1694L25.5165 46.7467L25.3411 47.4489ZM23.5564 47.6188L23.381 48.321L23.5014 48.3511L23.625 48.3393L23.5564 47.6188ZM23.4006 48.2928L25.1854 48.1228L25.0482 46.6819L23.2634 46.8518L23.4006 48.2928ZM24.9985 48.1164C25.0546 48.1257 25.1104 48.1372 25.1658 48.151L25.5165 46.7467C25.4234 46.7234 25.3295 46.704 25.2351 46.6883L24.9985 48.1164ZM25.2725 46.7284L23.4877 46.8983L23.625 48.3393L25.4098 48.1694L25.2725 46.7284ZM23.7317 46.9167C23.6386 46.8934 23.5448 46.8739 23.4503 46.8583L23.2137 48.2863C23.2698 48.2956 23.3256 48.3072 23.381 48.321L23.7317 46.9167Z" fill="white" mask="url(#path-8-inside-4_833_16650)"/>
<mask id="path-10-inside-5_833_16650" fill="white">
<path d="M23.5557 47.6202L25.3404 47.4502C25.4134 47.4684 25.4858 47.4896 25.5575 47.5136L23.7727 47.6836C23.7011 47.6596 23.6287 47.6384 23.5557 47.6202Z"/>
</mask>
<path d="M23.5557 47.6202L25.3404 47.4502C25.4134 47.4684 25.4858 47.4896 25.5575 47.5136L23.7727 47.6836C23.7011 47.6596 23.6287 47.6384 23.5557 47.6202Z" fill="white" fill-opacity="0.4"/>
<path d="M25.3404 47.4502L25.5158 46.748L25.3954 46.7179L25.2718 46.7297L25.3404 47.4502ZM25.5575 47.5136L25.6261 48.2341L25.7878 46.8275L25.5575 47.5136ZM23.7727 47.6836L23.5423 48.3697L23.6882 48.4187L23.8413 48.4041L23.7727 47.6836ZM23.6243 48.3407L25.4091 48.1707L25.2718 46.7297L23.487 46.8997L23.6243 48.3407ZM25.1651 48.1524C25.2195 48.166 25.2736 48.1818 25.3271 48.1997L25.7878 46.8275C25.6981 46.7974 25.6073 46.7709 25.5158 46.748L25.1651 48.1524ZM25.4888 46.7931L23.7041 46.9631L23.8413 48.4041L25.6261 48.2341L25.4888 46.7931ZM24.003 46.9975C23.9133 46.9674 23.8226 46.9408 23.731 46.918L23.3803 48.3224C23.4347 48.3359 23.4888 48.3517 23.5423 48.3697L24.003 46.9975Z" fill="white" mask="url(#path-10-inside-5_833_16650)"/>
<mask id="path-12-inside-6_833_16650" fill="white">
<path d="M23.7734 47.6846L25.5582 47.5146C25.6302 47.5388 25.7013 47.5659 25.7715 47.5959L23.9867 47.7658C23.9165 47.7359 23.8454 47.7088 23.7734 47.6846Z"/>
</mask>
<path d="M23.7734 47.6846L25.5582 47.5146C25.6302 47.5388 25.7013 47.5659 25.7715 47.5959L23.9867 47.7658C23.9165 47.7359 23.8454 47.7088 23.7734 47.6846Z" fill="white" fill-opacity="0.4"/>
<path d="M25.5582 47.5146L25.7886 46.8285L25.6427 46.7796L25.4896 46.7942L25.5582 47.5146ZM25.7715 47.5959L25.8401 48.3163L26.0557 46.9302L25.7715 47.5959ZM23.9867 47.7658L23.7025 48.4314L23.872 48.5038L24.0554 48.4863L23.9867 47.7658ZM23.8421 48.4051L25.6268 48.2351L25.4896 46.7942L23.7048 46.9641L23.8421 48.4051ZM25.3278 48.2008C25.3816 48.2188 25.4348 48.239 25.4873 48.2615L26.0557 46.9302C25.9678 46.8927 25.8787 46.8588 25.7886 46.8285L25.3278 48.2008ZM25.7029 46.8754L23.9181 47.0453L24.0554 48.4863L25.8401 48.3163L25.7029 46.8754ZM24.2709 47.1002C24.1831 47.0627 24.0939 47.0288 24.0038 46.9985L23.5431 48.3707C23.5968 48.3888 23.65 48.409 23.7025 48.4314L24.2709 47.1002Z" fill="white" mask="url(#path-12-inside-6_833_16650)"/>
<mask id="path-14-inside-7_833_16650" fill="white">
<path d="M23.9834 47.7647L25.7682 47.5947C25.8403 47.6255 25.9115 47.6594 25.9814 47.6963L24.1966 47.8663C24.1267 47.8294 24.0556 47.7955 23.9834 47.7647Z"/>
</mask>
<path d="M23.9834 47.7647L25.7682 47.5947C25.8403 47.6255 25.9115 47.6594 25.9814 47.6963L24.1966 47.8663C24.1267 47.8294 24.0556 47.7955 23.9834 47.7647Z" fill="white" fill-opacity="0.4"/>
<path d="M23.9834 47.7647L23.9148 47.0442L23.6991 48.4303L23.9834 47.7647ZM25.7682 47.5947L26.0524 46.9291L25.883 46.8568L25.6996 46.8742L25.7682 47.5947ZM25.9814 47.6963L26.05 48.4168L28.461 48.1872L26.3193 47.0563L25.9814 47.6963ZM24.1966 47.8663L23.8587 48.5063L24.0499 48.6073L24.2652 48.5868L24.1966 47.8663ZM24.052 48.4852L25.8368 48.3152L25.6996 46.8742L23.9148 47.0442L24.052 48.4852ZM25.4839 48.2603C25.5379 48.2834 25.5912 48.3087 25.6434 48.3363L26.3193 47.0563C26.2318 47.0101 26.1427 46.9677 26.0524 46.9291L25.4839 48.2603ZM25.9128 46.9758L24.128 47.1458L24.2652 48.5868L26.05 48.4168L25.9128 46.9758ZM24.5345 47.2263C24.447 47.1801 24.358 47.1377 24.2677 47.0991L23.6991 48.4303C23.7531 48.4534 23.8064 48.4787 23.8587 48.5063L24.5345 47.2263Z" fill="white" mask="url(#path-14-inside-7_833_16650)"/>
<mask id="path-16-inside-8_833_16650" fill="white">
<path d="M24.1992 47.8653L25.984 47.6953C26.058 47.7344 26.1306 47.7768 26.2016 47.8226L24.4168 47.9926C24.3458 47.9468 24.2732 47.9043 24.1992 47.8653Z"/>
</mask>
<path d="M24.1992 47.8653L25.984 47.6953C26.058 47.7344 26.1306 47.7768 26.2016 47.8226L24.4168 47.9926C24.3458 47.9468 24.2732 47.9043 24.1992 47.8653Z" fill="white" fill-opacity="0.4"/>
<path d="M24.1992 47.8653L24.1306 47.1448L21.7192 47.3744L23.8613 48.5053L24.1992 47.8653ZM25.984 47.6953L26.3218 47.0553L26.1306 46.9543L25.9154 46.9748L25.984 47.6953ZM26.2016 47.8226L26.2702 48.5431L28.3466 48.3454L26.594 47.2145L26.2016 47.8226ZM24.4168 47.9926L24.0244 48.6008L24.2354 48.7369L24.4854 48.7131L24.4168 47.9926ZM24.2678 48.5858L26.0526 48.4158L25.9154 46.9748L24.1306 47.1448L24.2678 48.5858ZM25.6461 48.3354C25.7015 48.3646 25.7559 48.3964 25.8092 48.4308L26.594 47.2145C26.5053 47.1572 26.4144 47.1041 26.3218 47.0553L25.6461 48.3354ZM26.133 47.1021L24.3482 47.2721L24.4854 48.7131L26.2702 48.5431L26.133 47.1021ZM24.8092 47.3845C24.7205 47.3272 24.6297 47.2741 24.5371 47.2253L23.8613 48.5053C23.9167 48.5346 23.9712 48.5664 24.0244 48.6008L24.8092 47.3845Z" fill="white" mask="url(#path-16-inside-8_833_16650)"/>
<mask id="path-18-inside-9_833_16650" fill="white">
<path d="M24.417 47.9932L26.2018 47.8232C26.2808 47.8743 26.3579 47.9295 26.4327 47.9888L24.6479 48.1587C24.5732 48.0994 24.4961 48.0442 24.417 47.9932Z"/>
</mask>
<path d="M24.417 47.9932L26.2018 47.8232C26.2808 47.8743 26.3579 47.9295 26.4327 47.9888L24.6479 48.1587C24.5732 48.0994 24.4961 48.0442 24.417 47.9932Z" fill="white" fill-opacity="0.4"/>
<path d="M24.417 47.9932L24.3484 47.2727L22.2717 47.4705L24.0246 48.6014L24.417 47.9932ZM26.2018 47.8232L26.5941 47.2151L26.3831 47.0789L26.1332 47.1028L26.2018 47.8232ZM26.4327 47.9888L26.5013 48.7093L28.2908 48.5388L26.8825 47.4217L26.4327 47.9888ZM24.6479 48.1587L24.1981 48.7258L24.4264 48.9069L24.7165 48.8792L24.6479 48.1587ZM24.4856 48.7137L26.2704 48.5437L26.1332 47.1028L24.3484 47.2727L24.4856 48.7137ZM25.8094 48.4314C25.8687 48.4697 25.9266 48.5111 25.9829 48.5558L26.8825 47.4217C26.7892 47.3478 26.693 47.2789 26.5941 47.2151L25.8094 48.4314ZM26.3641 47.2683L24.5793 47.4382L24.7165 48.8792L26.5013 48.7093L26.3641 47.2683ZM25.0977 47.5917C25.0045 47.5178 24.9082 47.4488 24.8094 47.3851L24.0246 48.6014C24.0839 48.6396 24.1418 48.6811 24.1981 48.7258L25.0977 47.5917Z" fill="white" mask="url(#path-18-inside-9_833_16650)"/>
<mask id="path-20-inside-10_833_16650" fill="white">
<path d="M24.6475 48.1602L26.4322 47.9902C26.523 48.0622 26.6103 48.1402 26.6936 48.2242L24.9088 48.3942C24.8255 48.3102 24.7382 48.2322 24.6475 48.1602Z"/>
</mask>
<path d="M24.6475 48.1602L26.4322 47.9902C26.523 48.0622 26.6103 48.1402 26.6936 48.2242L24.9088 48.3942C24.8255 48.3102 24.7382 48.2322 24.6475 48.1602Z" fill="white" fill-opacity="0.4"/>
<path d="M24.6475 48.1602L24.5788 47.4397L22.7894 47.6101L24.1977 48.7272L24.6475 48.1602ZM26.4322 47.9902L26.882 47.4232L26.6537 47.2421L26.3636 47.2697L26.4322 47.9902ZM26.6936 48.2242L26.7622 48.9447L28.2838 48.7998L27.2075 47.7146L26.6936 48.2242ZM24.9088 48.3942L24.3949 48.9038L24.6362 49.1472L24.9774 49.1147L24.9088 48.3942ZM24.7161 48.8807L26.5009 48.7107L26.3636 47.2697L24.5788 47.4397L24.7161 48.8807ZM25.9824 48.5572C26.0507 48.6114 26.1166 48.6703 26.1797 48.7339L27.2075 47.7146C27.1039 47.6102 26.9952 47.513 26.882 47.4232L25.9824 48.5572ZM26.625 47.5038L24.8402 47.6737L24.9774 49.1147L26.7622 48.9447L26.625 47.5038ZM25.4227 47.8846C25.3191 47.7801 25.2104 47.683 25.0972 47.5932L24.1977 48.7272C24.2659 48.7814 24.3318 48.8402 24.3949 48.9038L25.4227 47.8846Z" fill="white" mask="url(#path-20-inside-10_833_16650)"/>
<mask id="path-22-inside-11_833_16650" fill="white">
<path d="M24.9072 48.3939L26.692 48.2236C26.7935 48.3262 26.889 48.4376 26.9776 48.5577L25.1928 48.7281C25.1042 48.6079 25.0087 48.4965 24.9072 48.3939Z"/>
</mask>
<path d="M24.9072 48.3939L26.692 48.2236C26.7935 48.3262 26.889 48.4376 26.9776 48.5577L25.1928 48.7281C25.1042 48.6079 25.0087 48.4965 24.9072 48.3939Z" fill="white" fill-opacity="0.4"/>
<path d="M24.9072 48.3939L24.8385 47.6735L23.3195 47.8184L24.3928 48.903L24.9072 48.3939ZM26.692 48.2236L27.2064 47.7145L26.965 47.4705L26.6233 47.5032L26.692 48.2236ZM26.9776 48.5577L27.0463 49.2782L28.3183 49.1568L27.5602 48.1283L26.9776 48.5577ZM25.1928 48.7281L24.6102 49.1575L24.8535 49.4875L25.2616 49.4485L25.1928 48.7281ZM24.976 49.1144L26.7608 48.9441L26.6233 47.5032L24.8385 47.6735L24.976 49.1144ZM26.1776 48.7327C26.2544 48.8104 26.3272 48.8951 26.395 48.9872L27.5602 48.1283C27.4509 47.98 27.3325 47.842 27.2064 47.7145L26.1776 48.7327ZM26.9088 47.8373L25.1241 48.0076L25.2616 49.4485L27.0463 49.2782L26.9088 47.8373ZM25.7754 48.2986C25.6661 48.1503 25.5478 48.0123 25.4217 47.8849L24.3928 48.903C24.4696 48.9807 24.5424 49.0655 24.6102 49.1575L25.7754 48.2986Z" fill="white" mask="url(#path-22-inside-11_833_16650)"/>
</g>
<path d="M26.7007 50.158L25.8667 49.0265L26.8123 48.9363L27.4364 49.7764L26.7007 50.158Z" fill="white" stroke="white" stroke-width="0.72375"/>
<path d="M33.2765 57.634L35.5288 55.8161L35.7262 56.0119L33.7553 57.5883L33.2765 57.634Z" fill="white" stroke="white" stroke-width="0.72375"/>
<path d="M50.6603 82.6628L32.7827 58.4093L33.7274 58.3192L51.605 82.5726L50.6603 82.6628Z" fill="white" stroke="white" stroke-width="0.72375"/>
<path d="M36.3254 45.5865L33.2975 41.4699L34.2428 41.3797L37.2706 45.4963L36.3254 45.5865Z" fill="white" stroke="white" stroke-width="0.72375"/>
<path d="M36.1338 48.8249L36.4764 46.2992L37.5212 46.1995L37.1786 48.7252L36.1338 48.8249Z" fill="white" stroke="white" stroke-width="0.72375"/>
<mask id="path-29-inside-12_833_16650" fill="white">
<path d="M35.7139 49.2279L37.4986 49.0576L40.6303 49.4436L38.8455 49.6139L35.7139 49.2279Z"/>
</mask>
<path d="M35.7139 49.2279L37.4986 49.0576L40.6303 49.4436L38.8455 49.6139L35.7139 49.2279Z" fill="white"/>
<path d="M35.7139 49.2279L35.6451 48.5074L35.6253 49.9462L35.7139 49.2279ZM37.4986 49.0576L37.5872 48.3393L37.5086 48.3296L37.4299 48.3371L37.4986 49.0576ZM40.6303 49.4436L40.699 50.164L40.7188 48.7252L40.6303 49.4436ZM38.8455 49.6139L38.757 50.3322L38.8355 50.3419L38.9142 50.3343L38.8455 49.6139ZM35.7826 49.9484L37.5674 49.7781L37.4299 48.3371L35.6451 48.5074L35.7826 49.9484ZM37.4101 49.7759L40.5418 50.1619L40.7188 48.7252L37.5872 48.3393L37.4101 49.7759ZM40.5615 48.7231L38.7767 48.8934L38.9142 50.3343L40.699 50.164L40.5615 48.7231ZM38.934 48.8955L35.8024 48.5096L35.6253 49.9462L38.757 50.3322L38.934 48.8955Z" fill="white" mask="url(#path-29-inside-12_833_16650)"/>
<path d="M38.9723 57.9094L42.6647 54.9441L43.1378 54.8989L39.4453 57.8643L38.9723 57.9094Z" fill="white" stroke="white" stroke-width="0.72375"/>
<path d="M42.6924 54.2137L39.5158 49.9131L40.4601 49.823L43.6366 54.1235L42.6924 54.2137Z" fill="white" stroke="white" stroke-width="0.72375"/>
<mask id="mask1_833_16650" style="mask-type:alpha" maskUnits="userSpaceOnUse" x="50" y="82" width="3" height="2">
<mask id="path-33-inside-13_833_16650" fill="white">
<path d="M50.4863 83.0414L52.2711 82.8711C52.3677 83.0021 52.4558 83.1319 52.5247 83.2771L50.7399 83.4474C50.671 83.3022 50.5829 83.1724 50.4863 83.0414Z"/>
</mask>
<path d="M50.4863 83.0414L52.2711 82.8711C52.3677 83.0021 52.4558 83.1319 52.5247 83.2771L50.7399 83.4474C50.671 83.3022 50.5829 83.1724 50.4863 83.0414Z" fill="white"/>
<path d="M50.4863 83.0414L50.4176 82.3209L49.1456 82.4423L49.9038 83.4708L50.4863 83.0414ZM52.2711 82.8711L52.8537 82.4417L52.6104 82.1117L52.2024 82.1506L52.2711 82.8711ZM52.5247 83.2771L52.5935 83.9976L53.6216 83.8995L53.1785 82.9666L52.5247 83.2771ZM50.7399 83.4474L50.0862 83.758L50.3038 84.2161L50.8087 84.1679L50.7399 83.4474ZM50.5551 83.7619L52.3399 83.5916L52.2024 82.1506L50.4176 82.3209L50.5551 83.7619ZM51.6885 83.3005C51.7763 83.4196 51.8319 83.5054 51.871 83.5877L53.1785 82.9666C53.0796 82.7584 52.959 82.5846 52.8537 82.4417L51.6885 83.3005ZM52.456 82.5567L50.6712 82.727L50.8087 84.1679L52.5935 83.9976L52.456 82.5567ZM51.3937 83.1369C51.2948 82.9287 51.1743 82.7549 51.0689 82.612L49.9038 83.4708C49.9915 83.5899 50.0471 83.6757 50.0862 83.758L51.3937 83.1369Z" fill="white" mask="url(#path-33-inside-13_833_16650)"/>
</mask>
<g mask="url(#mask1_833_16650)">
<mask id="path-35-inside-14_833_16650" fill="white">
<path d="M50.4854 83.0401L52.2701 82.8701C52.3182 82.9353 52.3643 83.0001 52.4068 83.0667L50.6221 83.2367C50.5795 83.1701 50.5335 83.1053 50.4854 83.0401Z"/>
</mask>
<path d="M50.4854 83.0401L52.2701 82.8701C52.3182 82.9353 52.3643 83.0001 52.4068 83.0667L50.6221 83.2367C50.5795 83.1701 50.5335 83.1053 50.4854 83.0401Z" fill="white" fill-opacity="0.4"/>
<path d="M50.4854 83.0401L50.4167 82.3196L49.1432 82.4409L49.9031 83.47L50.4854 83.0401ZM52.2701 82.8701L52.8523 82.4402L52.6091 82.1108L52.2015 82.1496L52.2701 82.8701ZM52.4068 83.0667L52.4755 83.7872L53.6546 83.6749L53.0166 82.6769L52.4068 83.0667ZM50.6221 83.2367L50.0123 83.6266L50.2505 83.9991L50.6907 83.9572L50.6221 83.2367ZM50.554 83.7606L52.3387 83.5906L52.2015 82.1496L50.4167 82.3196L50.554 83.7606ZM51.6879 83.3001C51.7312 83.3587 51.7667 83.4091 51.797 83.4566L53.0166 82.6769C52.9618 82.5912 52.9053 82.5119 52.8523 82.4402L51.6879 83.3001ZM52.3382 82.3463L50.5535 82.5162L50.6907 83.9572L52.4755 83.7872L52.3382 82.3463ZM51.2318 82.8469C51.1771 82.7612 51.1206 82.6819 51.0676 82.6102L49.9031 83.47C49.9464 83.5286 49.9819 83.579 50.0123 83.6266L51.2318 82.8469Z" fill="white" mask="url(#path-35-inside-14_833_16650)"/>
<mask id="path-37-inside-15_833_16650" fill="white">
<path d="M50.6221 83.2374L52.4068 83.0674C52.4497 83.1345 52.4891 83.2033 52.5237 83.276L50.739 83.446C50.7044 83.3733 50.665 83.3044 50.6221 83.2374Z"/>
</mask>
<path d="M50.6221 83.2374L52.4068 83.0674C52.4497 83.1345 52.4891 83.2033 52.5237 83.276L50.739 83.446C50.7044 83.3733 50.665 83.3044 50.6221 83.2374Z" fill="white" fill-opacity="0.4"/>
<path d="M50.6221 83.2374L50.5535 82.5169L49.3741 82.6292L50.0123 83.6273L50.6221 83.2374ZM52.4068 83.0674L53.0166 82.6775L52.7784 82.305L52.3382 82.3469L52.4068 83.0674ZM52.5237 83.276L52.5924 83.9965L53.6215 83.8985L53.1773 82.965L52.5237 83.276ZM50.739 83.446L50.0855 83.757L50.3032 84.2145L50.8076 84.1665L50.739 83.446ZM50.6907 83.9578L52.4755 83.7879L52.3382 82.3469L50.5535 82.5169L50.6907 83.9578ZM51.7971 83.4573C51.8273 83.5045 51.8511 83.5468 51.8702 83.587L53.1773 82.965C53.1272 82.8598 53.0722 82.7644 53.0166 82.6775L51.7971 83.4573ZM52.4551 82.5555L50.6704 82.7255L50.8076 84.1665L52.5924 83.9965L52.4551 82.5555ZM51.3925 83.135C51.3424 83.0297 51.2874 82.9343 51.2318 82.8475L50.0123 83.6273C50.0425 83.6745 50.0663 83.7168 50.0855 83.757L51.3925 83.135Z" fill="white" mask="url(#path-37-inside-15_833_16650)"/>
</g>
<mask id="path-39-inside-16_833_16650" fill="white">
<path d="M50.7412 83.4477L52.526 83.2773L52.7446 83.6875L50.9598 83.8578L50.7412 83.4477Z"/>
</mask>
<path d="M50.7412 83.4477L52.526 83.2773L52.7446 83.6875L50.9598 83.8578L50.7412 83.4477Z" fill="white" fill-opacity="0.4"/>
<path d="M50.7412 83.4477L50.6725 82.7272L49.5921 82.8303L50.1025 83.788L50.7412 83.4477ZM52.526 83.2773L53.1647 82.937L52.9377 82.511L52.4572 82.5569L52.526 83.2773ZM52.7446 83.6875L52.8133 84.408L53.8937 84.3049L53.3833 83.3471L52.7446 83.6875ZM50.9598 83.8578L50.3211 84.1982L50.548 84.6241L51.0285 84.5783L50.9598 83.8578ZM50.81 84.1681L52.5947 83.9978L52.4572 82.5569L50.6725 82.7272L50.81 84.1681ZM51.8873 83.6177L52.1058 84.0279L53.3833 83.3471L53.1647 82.937L51.8873 83.6177ZM52.6758 82.967L50.891 83.1373L51.0285 84.5783L52.8133 84.408L52.6758 82.967ZM51.5985 83.5174L51.3799 83.1073L50.1025 83.788L50.3211 84.1982L51.5985 83.5174Z" fill="white" mask="url(#path-39-inside-16_833_16650)"/>
<mask id="path-41-inside-17_833_16650" fill="white">
<path d="M51.3634 83.6631L53.1482 83.4932L52.7447 83.689L50.96 83.859L51.3634 83.6631Z"/>
</mask>
<path d="M51.3634 83.6631L53.1482 83.4932L52.7447 83.689L50.96 83.859L51.3634 83.6631Z" fill="white" fill-opacity="0.4"/>
<path d="M51.3634 83.6631L51.2948 82.9426L51.1648 82.955L51.0473 83.0121L51.3634 83.6631ZM53.1482 83.4932L53.4643 84.1443L53.0796 82.7727L53.1482 83.4932ZM52.7447 83.689L52.8133 84.4095L52.9433 84.3971L53.0608 84.3401L52.7447 83.689ZM50.96 83.859L50.6439 83.2079L51.0286 84.5795L50.96 83.859ZM51.432 84.3836L53.2168 84.2137L53.0796 82.7727L51.2948 82.9426L51.432 84.3836ZM52.8321 82.8421L52.4287 83.0379L53.0608 84.3401L53.4643 84.1443L52.8321 82.8421ZM52.6761 82.9685L50.8913 83.1385L51.0286 84.5795L52.8133 84.4095L52.6761 82.9685ZM51.276 84.5101L51.6795 84.3142L51.0473 83.0121L50.6439 83.2079L51.276 84.5101Z" fill="white" mask="url(#path-41-inside-17_833_16650)"/>
<mask id="mask2_833_16650" style="mask-type:alpha" maskUnits="userSpaceOnUse" x="51" y="82" width="7" height="2">
<mask id="path-43-inside-18_833_16650" fill="white">
<path d="M55.9982 82.3393L57.783 82.1689C56.1847 82.3215 54.6202 82.7635 53.152 83.4878L51.3672 83.6582C52.8354 82.9338 54.3999 82.4918 55.9982 82.3393H55.9982Z"/>
</mask>
<path d="M55.9982 82.3393L57.783 82.1689C56.1847 82.3215 54.6202 82.7635 53.152 83.4878L51.3672 83.6582C52.8354 82.9338 54.3999 82.4918 55.9982 82.3393H55.9982Z" fill="white"/>
<path d="M55.9982 82.3393V83.063H56.0327L56.067 83.0597L55.9982 82.3393ZM53.152 83.4878L53.2207 84.2083L53.353 84.1957L53.4722 84.1369L53.152 83.4878ZM51.3672 83.6582L51.047 83.0091L51.4359 84.3786L51.3672 83.6582ZM55.9982 82.3393V81.6155H55.9637L55.9294 81.6188L55.9982 82.3393ZM56.067 83.0597L57.8517 82.8894L57.7142 81.4485L55.9295 81.6188L56.067 83.0597ZM57.7142 81.4485C56.0282 81.6093 54.3786 82.0757 52.8318 82.8388L53.4722 84.1369C54.8618 83.4514 56.3411 83.0336 57.8517 82.8894L57.7142 81.4485ZM53.0832 82.7674L51.2984 82.9377L51.4359 84.3786L53.2207 84.2083L53.0832 82.7674ZM51.6874 84.3072C53.077 83.6217 54.5563 83.2039 56.0669 83.0597L55.9294 81.6188C54.2435 81.7797 52.5938 82.246 51.047 83.0091L51.6874 84.3072ZM55.9982 83.063H55.9982V81.6155H55.9982V83.063Z" fill="white" mask="url(#path-43-inside-18_833_16650)"/>
</mask>
<g mask="url(#mask2_833_16650)">
<mask id="path-45-inside-19_833_16650" fill="white">
<path d="M55.9982 82.3412L57.783 82.1709C56.1847 82.3234 54.6202 82.7655 53.152 83.4898L51.3672 83.6601C52.8354 82.9358 54.3999 82.4937 55.9982 82.3412Z"/>
</mask>
<path d="M55.9982 82.3412L57.783 82.1709C56.1847 82.3234 54.6202 82.7655 53.152 83.4898L51.3672 83.6601C52.8354 82.9358 54.3999 82.4937 55.9982 82.3412Z" fill="white" fill-opacity="0.4"/>
<path d="M55.9982 82.3412L56.0669 83.0617L56.0669 83.0617L55.9982 82.3412ZM53.152 83.4898L53.2207 84.2103L53.353 84.1977L53.4722 84.1389L53.152 83.4898ZM51.3672 83.6601L51.047 83.011L51.4359 84.3806L51.3672 83.6601ZM56.0669 83.0617L57.8517 82.8914L57.7142 81.4504L55.9294 81.6207L56.0669 83.0617ZM57.7142 81.4504C56.0282 81.6113 54.3786 82.0776 52.8318 82.8407L53.4722 84.1389C54.8618 83.4533 56.3411 83.0355 57.8517 82.8914L57.7142 81.4504ZM53.0832 82.7693L51.2984 82.9396L51.4359 84.3806L53.2207 84.2103L53.0832 82.7693ZM51.6874 84.3092C53.077 83.6236 54.5563 83.2058 56.0669 83.0617L55.9294 81.6207C54.2435 81.7816 52.5938 82.248 51.047 83.011L51.6874 84.3092Z" fill="white" mask="url(#path-45-inside-19_833_16650)"/>
</g>
<path d="M49.2656 95.37C49.094 96.8026 49.2086 98.207 49.5625 99.5199L47.7777 99.6902C47.4238 98.3773 47.3092 96.9729 47.4808 95.5403C48.0709 90.6122 51.8679 86.939 56.4044 86.5062L58.1892 86.3359C53.6526 86.7687 49.8557 90.4419 49.2656 95.37Z" fill="white"/>
<path fill-rule="evenodd" clip-rule="evenodd" d="M49.4479 99.0645L47.6631 99.2348C47.834 99.9992 48.0853 100.736 48.4082 101.433L48.4087 101.433C48.6092 101.866 48.8373 102.283 49.0909 102.682L49.0902 102.682C49.4984 103.325 49.9726 103.921 50.504 104.458L50.5046 104.458C50.7892 104.746 51.0902 105.016 51.4062 105.268L51.4076 105.268L51.4098 105.27L51.4055 105.27C51.6631 105.475 51.9307 105.668 52.2076 105.847L52.2103 105.847C52.4534 106.004 52.7037 106.152 52.9605 106.288L52.9633 106.287C53.1994 106.412 53.441 106.528 53.6878 106.633L53.6882 106.633L53.6899 106.634L53.6866 106.634C53.9233 106.735 54.1649 106.828 54.4109 106.91L54.4136 106.91L54.4193 106.912L54.4123 106.913C54.6539 106.994 54.8999 107.066 55.1499 107.128L55.1517 107.128C55.403 107.191 55.6583 107.244 55.9174 107.287L55.9169 107.287C55.9957 107.3 56.0749 107.312 56.1544 107.323L57.8681 107.586L60.3681 107.087C59.1126 107.259 58.0991 107.166 57.7926 107.129C57.2567 107.045 56.7363 106.918 56.2343 106.752C56.1879 106.736 56.1416 106.72 56.0954 106.704C55.9523 106.654 55.8106 106.601 55.6706 106.545C53.6827 105.745 52.0193 104.313 50.8749 102.511L50.8756 102.511C50.6224 102.112 50.3946 101.695 50.1943 101.262L50.1934 101.262C50.0316 100.913 49.8877 100.554 49.763 100.187C49.6886 99.9675 49.621 99.7454 49.5604 99.5207L49.5604 99.5207L49.5602 99.5207C49.5196 99.3698 49.4821 99.2177 49.4479 99.0645ZM50.12 102.584L50.1193 102.583L49.8584 102.608L49.8592 102.609L50.12 102.584Z" fill="white"/>
<mask id="mask3_833_16650" style="mask-type:alpha" maskUnits="userSpaceOnUse" x="55" y="82" width="6" height="1">
<mask id="path-49-inside-20_833_16650" fill="white">
<path d="M57.7809 82.1704C58.8201 82.0714 59.8737 82.0946 60.9244 82.242C60.399 82.292 59.8735 82.342 59.3481 82.3921L59.1397 82.4119C58.0889 82.2645 57.0354 82.2414 55.9961 82.3403L57.7809 82.1704Z"/>
</mask>
<path d="M57.7809 82.1704C58.8201 82.0714 59.8737 82.0946 60.9244 82.242C60.399 82.292 59.8735 82.342 59.3481 82.3921L59.1397 82.4119C58.0889 82.2645 57.0354 82.2414 55.9961 82.3403L57.7809 82.1704Z" fill="white"/>
<path d="M57.7809 82.1704L57.8495 82.8909L57.8495 82.8909L57.7809 82.1704ZM60.9244 82.242L60.993 82.9624L61.025 81.5252L60.9244 82.242ZM59.3481 82.3921L59.4168 83.1126L59.4168 83.1126L59.3481 82.3921ZM59.1397 82.4119L59.0391 83.1287L59.1235 83.1405L59.2083 83.1324L59.1397 82.4119ZM55.9961 82.3403L55.9275 81.6199L56.0647 83.0608L55.9961 82.3403ZM57.8495 82.8909C58.832 82.7973 59.8288 82.8191 60.8239 82.9587L61.025 81.5252C59.9186 81.37 58.8082 81.3455 57.7122 81.4499L57.8495 82.8909ZM60.8558 81.5215C60.3305 81.5715 59.8049 81.6215 59.2794 81.6716L59.4168 83.1126C59.9422 83.0625 60.4675 83.0125 60.993 82.9624L60.8558 81.5215ZM59.2795 81.6716L59.071 81.6914L59.2083 83.1324L59.4168 83.1126L59.2795 81.6716ZM59.2402 81.6952C58.1338 81.54 57.0234 81.5155 55.9275 81.6199L56.0647 83.0608C57.0473 82.9672 58.0441 82.9891 59.0391 83.1287L59.2402 81.6952ZM56.0647 83.0608L57.8495 82.8909L57.7123 81.4499L55.9275 81.6199L56.0647 83.0608Z" fill="white" mask="url(#path-49-inside-20_833_16650)"/>
</mask>
<g mask="url(#mask3_833_16650)">
<mask id="path-51-inside-21_833_16650" fill="white">
<path d="M55.9951 82.3426L57.7799 82.1726C58.1542 82.1369 58.5305 82.1171 58.9077 82.1133L57.123 82.2833C56.7457 82.2871 56.3695 82.3069 55.9951 82.3426Z"/>
</mask>
<path d="M55.9951 82.3426L57.7799 82.1726C58.1542 82.1369 58.5305 82.1171 58.9077 82.1133L57.123 82.2833C56.7457 82.2871 56.3695 82.3069 55.9951 82.3426Z" fill="white" fill-opacity="0.4"/>
<path d="M57.7799 82.1726L57.8485 82.8931H57.8485L57.7799 82.1726ZM58.9077 82.1133L58.9764 82.8338L58.9004 81.3896L58.9077 82.1133ZM57.123 82.2833L57.1303 83.007L57.161 83.0067L57.1916 83.0037L57.123 82.2833ZM56.0637 83.063L57.8485 82.8931L57.7113 81.4521L55.9265 81.6221L56.0637 83.063ZM57.8485 82.8931C58.2025 82.8594 58.5583 82.8406 58.9151 82.837L58.9004 81.3896C58.5027 81.3936 58.106 81.4145 57.7113 81.4521L57.8485 82.8931ZM58.8391 81.3928L57.0543 81.5628L57.1916 83.0037L58.9764 82.8338L58.8391 81.3928ZM57.1156 81.5595C56.7179 81.5636 56.3212 81.5845 55.9265 81.6221L56.0637 83.063C56.4177 83.0293 56.7735 83.0106 57.1303 83.007L57.1156 81.5595Z" fill="white" mask="url(#path-51-inside-21_833_16650)"/>
<mask id="path-53-inside-22_833_16650" fill="white">
<path d="M57.123 82.281L58.9078 82.111C59.3123 82.1069 59.718 82.1211 60.1239 82.1538L58.3391 82.3237C57.9332 82.2911 57.5275 82.2769 57.123 82.281Z"/>
</mask>
<path d="M57.123 82.281L58.9078 82.111C59.3123 82.1069 59.718 82.1211 60.1239 82.1538L58.3391 82.3237C57.9332 82.2911 57.5275 82.2769 57.123 82.281Z" fill="white" fill-opacity="0.4"/>
<path d="M57.123 82.281L57.0544 81.5605L57.1304 83.0047L57.123 82.281ZM58.9078 82.111L58.9004 81.3873L58.8698 81.3876L58.8392 81.3906L58.9078 82.111ZM60.1239 82.1538L60.1925 82.8743L60.1819 81.4324L60.1239 82.1538ZM58.3391 82.3237L58.2811 83.0452L58.3445 83.0503L58.4078 83.0442L58.3391 82.3237ZM57.1917 83.0015L58.9764 82.8315L58.8392 81.3906L57.0544 81.5605L57.1917 83.0015ZM58.9152 82.8348C59.2978 82.8309 59.6817 82.8443 60.0659 82.8752L60.1819 81.4324C59.7543 81.398 59.3268 81.383 58.9004 81.3873L58.9152 82.8348ZM60.0553 81.4333L58.2705 81.6033L58.4078 83.0442L60.1925 82.8743L60.0553 81.4333ZM58.3972 81.6023C57.9695 81.5679 57.542 81.553 57.1157 81.5573L57.1304 83.0047C57.513 83.0008 57.8969 83.0143 58.2811 83.0452L58.3972 81.6023Z" fill="white" mask="url(#path-53-inside-22_833_16650)"/>
<mask id="path-55-inside-23_833_16650" fill="white">
<path d="M58.3379 82.3233L60.1227 82.1533C60.3891 82.1748 60.6557 82.2041 60.9221 82.2415L59.1373 82.4115C58.8709 82.3741 58.6044 82.3447 58.3379 82.3233Z"/>
</mask>
<path d="M58.3379 82.3233L60.1227 82.1533C60.3891 82.1748 60.6557 82.2041 60.9221 82.2415L59.1373 82.4115C58.8709 82.3741 58.6044 82.3447 58.3379 82.3233Z" fill="white" fill-opacity="0.4"/>
<path d="M58.3379 82.3233L58.2693 81.6028L58.2799 83.0447L58.3379 82.3233ZM60.1227 82.1533L60.1807 81.4319L60.1173 81.4268L60.054 81.4328L60.1227 82.1533ZM60.9221 82.2415L60.9907 82.962L61.0226 81.5248L60.9221 82.2415ZM59.1373 82.4115L59.0368 83.1282L59.1212 83.14L59.2059 83.132L59.1373 82.4115ZM58.4065 83.0438L60.1913 82.8738L60.054 81.4328L58.2693 81.6028L58.4065 83.0438ZM60.0646 82.8747C60.3169 82.895 60.5693 82.9228 60.8216 82.9582L61.0226 81.5248C60.7422 81.4854 60.4614 81.4545 60.1807 81.4319L60.0646 82.8747ZM60.8535 81.521L59.0687 81.691L59.2059 83.132L60.9907 82.962L60.8535 81.521ZM59.2379 81.6947C58.9574 81.6554 58.6766 81.6244 58.3959 81.6019L58.2799 83.0447C58.5321 83.065 58.7845 83.0928 59.0368 83.1282L59.2379 81.6947Z" fill="white" mask="url(#path-55-inside-23_833_16650)"/>
</g>
<mask id="mask4_833_16650" style="mask-type:alpha" maskUnits="userSpaceOnUse" x="58" y="98" width="16" height="14">
<mask id="path-57-inside-24_833_16650" fill="white">
<path d="M73.0732 98.7139C72.2468 105.615 66.9372 110.754 60.5865 111.36L58.8018 111.53C65.1524 110.924 70.462 105.785 71.2885 98.8842C71.8834 98.8274 72.4783 98.7706 73.0732 98.7139Z"/>
</mask>
<path d="M73.0732 98.7139C72.2468 105.615 66.9372 110.754 60.5865 111.36L58.8018 111.53C65.1524 110.924 70.462 105.785 71.2885 98.8842C71.8834 98.8274 72.4783 98.7706 73.0732 98.7139Z" fill="white"/>
<path d="M60.5865 111.36L60.6553 112.081L60.6553 112.081L60.5865 111.36ZM58.8018 111.53L58.733 110.81L58.8705 112.251L58.8018 111.53ZM71.2885 98.8842L71.2197 98.1637L70.6392 98.2191L70.5699 98.7981L71.2885 98.8842ZM72.3546 98.6278C71.5669 105.205 66.5152 110.067 60.5178 110.64L60.6553 112.081C67.3591 111.441 72.9267 106.025 73.7919 98.7999L72.3546 98.6278ZM60.5178 110.64L58.733 110.81L58.8705 112.251L60.6553 112.081L60.5178 110.64ZM58.8705 112.251C65.5743 111.611 71.1419 106.195 72.0071 98.9702L70.5699 98.7981C69.7822 105.376 64.7304 110.237 58.733 110.81L58.8705 112.251ZM71.3572 99.6047C71.9521 99.5479 72.5471 99.4911 73.142 99.4343L73.0045 97.9934C72.4095 98.0502 71.8146 98.1069 71.2197 98.1637L71.3572 99.6047Z" fill="white" mask="url(#path-57-inside-24_833_16650)"/>
</mask>
<g mask="url(#mask4_833_16650)">
<path d="M71.3638 98.1244L73.1486 97.9541C73.131 98.2061 73.107 98.4588 73.0767 98.7122C73.0595 98.8562 73.0403 98.9994 73.0191 99.1418L71.2344 99.3121C71.2555 99.1697 71.2747 99.0265 71.2919 98.8825C71.3223 98.6291 71.3462 98.3764 71.3638 98.1244Z" fill="white"/>
<path d="M71.2357 99.3119L73.0205 99.1416C72.9642 99.5215 72.8942 99.8957 72.8111 100.264L71.0264 100.434C71.1094 100.066 71.1794 99.6918 71.2357 99.3119Z" fill="white"/>
<path d="M71.0287 100.436L72.8135 100.266C72.731 100.631 72.6356 100.991 72.5279 101.344L70.7432 101.514C70.8509 101.161 70.9463 100.802 71.0287 100.436Z" fill="white"/>
<path d="M70.7413 101.513L72.5261 101.343C72.4163 101.703 72.2936 102.056 72.1588 102.402L70.374 102.573C70.5088 102.227 70.6315 101.873 70.7413 101.513Z" fill="white"/>
<path d="M70.3712 102.571L72.156 102.4C72.0145 102.764 71.8596 103.119 71.692 103.465L69.9072 103.636C70.0748 103.289 70.2297 102.934 70.3712 102.571Z" fill="white"/>
<path d="M69.9101 103.637L71.6949 103.467C71.5127 103.844 71.3155 104.21 71.1041 104.566L69.3193 104.737C69.5307 104.381 69.7279 104.014 69.9101 103.637Z" fill="white"/>
<path d="M69.3184 104.737L71.1032 104.566C70.8622 104.972 70.603 105.364 70.3268 105.74L68.542 105.91C68.8182 105.534 69.0775 105.142 69.3184 104.737Z" fill="white"/>
<path d="M68.5423 105.912L70.3271 105.741C69.9801 106.214 69.6064 106.663 69.2086 107.085L67.4238 107.256C67.8216 106.833 68.1953 106.384 68.5423 105.912Z" fill="white"/>
<path d="M67.4235 107.254L69.2083 107.084C66.9487 109.484 63.9119 111.041 60.5904 111.358L58.8057 111.528C62.1272 111.212 65.1639 109.655 67.4235 107.254Z" fill="white"/>
</g>
<mask id="mask5_833_16650" style="mask-type:alpha" maskUnits="userSpaceOnUse" x="59" y="82" width="15" height="17">
<path d="M72.7467 98.3772L71.6956 98.4775C72.3192 91.6365 68.3977 85.298 62.4307 82.9135C68.965 84.6485 73.4644 91.221 72.7467 98.3772Z" fill="white" stroke="white" stroke-width="0.72375"/>
</mask>
<g mask="url(#mask5_833_16650)">
<mask id="path-69-inside-25_833_16650" fill="white">
<path fill-rule="evenodd" clip-rule="evenodd" d="M59.1445 82.4102L60.9293 82.2402C61.0408 82.2559 61.1518 82.2729 61.2624 82.2911L59.4776 82.4611C59.3671 82.4428 59.256 82.4259 59.1445 82.4102ZM59.4786 82.461L61.2634 82.2911C61.6278 82.3514 61.987 82.4259 62.3404 82.5142L60.5556 82.6842C60.2022 82.5959 59.843 82.5213 59.4786 82.461ZM62.3415 82.516L60.5567 82.686C60.9067 82.7734 61.2511 82.8742 61.5894 82.9879L61.5889 82.9879C61.9337 83.104 62.2722 83.2333 62.604 83.3754L64.3888 83.2051C64.057 83.063 63.7185 82.9336 63.3737 82.8176L63.3734 82.8176C63.0353 82.7041 62.6912 82.6034 62.3415 82.516ZM64.3885 83.2058L62.6037 83.3761C62.9511 83.5249 63.2912 83.6876 63.6233 83.8634L65.4081 83.6931C65.076 83.5173 64.7359 83.3546 64.3885 83.2058ZM63.6234 83.8644L65.4082 83.694C65.7667 83.8839 66.116 84.089 66.4553 84.3086L66.4605 84.3081C66.8482 84.5592 67.2228 84.8291 67.5835 85.1164L65.7987 85.2867C65.4396 85.0006 65.0666 84.7318 64.6807 84.4816L64.6755 84.4821C64.3346 84.2613 63.9837 84.0551 63.6234 83.8644ZM65.7987 85.2873L67.5835 85.117C68.0269 85.4703 68.4491 85.8498 68.8482 86.2531L67.0634 86.4235C66.6643 86.0201 66.2421 85.6406 65.7987 85.2873ZM68.8482 86.2551L67.0634 86.4254C67.8062 87.176 68.4689 88.0088 69.0394 88.9071L69.0371 88.9073C69.3921 89.4664 69.7114 90.0509 69.9919 90.6567L71.7767 90.4864C71.4962 89.8808 71.1771 89.2964 70.8222 88.7375L70.8244 88.7372C70.2539 87.8388 69.5911 87.0058 68.8482 86.2551ZM71.7783 90.4866L69.9935 90.6569C70.4442 91.6301 70.7949 92.6585 71.0335 93.7253L71.0333 93.7253C71.1601 94.2926 71.2552 94.8708 71.3167 95.4573L73.1014 95.287C73.04 94.7008 72.945 94.123 72.8183 93.5561L72.8185 93.5561C72.58 92.4889 72.2291 91.4602 71.7783 90.4866ZM73.103 95.2879L71.3182 95.4582C71.3666 95.9197 71.3942 96.3863 71.4001 96.8569L71.3987 96.857C71.4039 97.2755 71.3921 97.697 71.3624 98.1208L71.3625 98.1208C71.3449 98.372 71.321 98.6239 71.2908 98.8765C71.2735 99.0205 71.2544 99.1637 71.2332 99.306L73.018 99.1357C73.0391 98.9933 73.0583 98.8502 73.0756 98.7062C73.1059 98.4528 73.1298 98.2 73.1475 97.9481L73.1473 97.9481C73.1769 97.5252 73.1887 97.1045 73.1835 96.6869L73.1849 96.6868C73.179 96.2161 73.1514 95.7494 73.103 95.2879Z"/>
</mask>
<path fill-rule="evenodd" clip-rule="evenodd" d="M59.1445 82.4102L60.9293 82.2402C61.0408 82.2559 61.1518 82.2729 61.2624 82.2911L59.4776 82.4611C59.3671 82.4428 59.256 82.4259 59.1445 82.4102ZM59.4786 82.461L61.2634 82.2911C61.6278 82.3514 61.987 82.4259 62.3404 82.5142L60.5556 82.6842C60.2022 82.5959 59.843 82.5213 59.4786 82.461ZM62.3415 82.516L60.5567 82.686C60.9067 82.7734 61.2511 82.8742 61.5894 82.9879L61.5889 82.9879C61.9337 83.104 62.2722 83.2333 62.604 83.3754L64.3888 83.2051C64.057 83.063 63.7185 82.9336 63.3737 82.8176L63.3734 82.8176C63.0353 82.7041 62.6912 82.6034 62.3415 82.516ZM64.3885 83.2058L62.6037 83.3761C62.9511 83.5249 63.2912 83.6876 63.6233 83.8634L65.4081 83.6931C65.076 83.5173 64.7359 83.3546 64.3885 83.2058ZM63.6234 83.8644L65.4082 83.694C65.7667 83.8839 66.116 84.089 66.4553 84.3086L66.4605 84.3081C66.8482 84.5592 67.2228 84.8291 67.5835 85.1164L65.7987 85.2867C65.4396 85.0006 65.0666 84.7318 64.6807 84.4816L64.6755 84.4821C64.3346 84.2613 63.9837 84.0551 63.6234 83.8644ZM65.7987 85.2873L67.5835 85.117C68.0269 85.4703 68.4491 85.8498 68.8482 86.2531L67.0634 86.4235C66.6643 86.0201 66.2421 85.6406 65.7987 85.2873ZM68.8482 86.2551L67.0634 86.4254C67.8062 87.176 68.4689 88.0088 69.0394 88.9071L69.0371 88.9073C69.3921 89.4664 69.7114 90.0509 69.9919 90.6567L71.7767 90.4864C71.4962 89.8808 71.1771 89.2964 70.8222 88.7375L70.8244 88.7372C70.2539 87.8388 69.5911 87.0058 68.8482 86.2551ZM71.7783 90.4866L69.9935 90.6569C70.4442 91.6301 70.7949 92.6585 71.0335 93.7253L71.0333 93.7253C71.1601 94.2926 71.2552 94.8708 71.3167 95.4573L73.1014 95.287C73.04 94.7008 72.945 94.123 72.8183 93.5561L72.8185 93.5561C72.58 92.4889 72.2291 91.4602 71.7783 90.4866ZM73.103 95.2879L71.3182 95.4582C71.3666 95.9197 71.3942 96.3863 71.4001 96.8569L71.3987 96.857C71.4039 97.2755 71.3921 97.697 71.3624 98.1208L71.3625 98.1208C71.3449 98.372 71.321 98.6239 71.2908 98.8765C71.2735 99.0205 71.2544 99.1637 71.2332 99.306L73.018 99.1357C73.0391 98.9933 73.0583 98.8502 73.0756 98.7062C73.1059 98.4528 73.1298 98.2 73.1475 97.9481L73.1473 97.9481C73.1769 97.5252 73.1887 97.1045 73.1835 96.6869L73.1849 96.6868C73.179 96.2161 73.1514 95.7494 73.103 95.2879Z" fill="white"/>
<path d="M60.9293 82.2402L61.0299 81.5235L60.9455 81.5117L60.8607 81.5197L60.9293 82.2402ZM59.1445 82.4102L59.0759 81.6897L59.044 83.1269L59.1445 82.4102ZM61.2624 82.2911L61.331 83.0116L61.3805 81.5771L61.2624 82.2911ZM59.4776 82.4611L59.3595 83.1752L59.4524 83.1905L59.5462 83.1816L59.4776 82.4611ZM61.2634 82.2911L61.3815 81.577L61.2886 81.5616L61.1948 81.5706L61.2634 82.2911ZM59.4786 82.461L59.41 81.7405L59.3605 83.1751L59.4786 82.461ZM62.3404 82.5142L62.409 83.2347L62.5158 81.812L62.3404 82.5142ZM60.5556 82.6842L60.3803 83.3864L60.5007 83.4165L60.6243 83.4047L60.5556 82.6842ZM60.5567 82.686L60.4881 81.9655L60.3813 83.3882L60.5567 82.686ZM62.3415 82.516L62.5168 81.8138L62.3964 81.7837L62.2728 81.7955L62.3415 82.516ZM61.5894 82.9879L61.6582 83.7083L61.8198 82.3018L61.5894 82.9879ZM61.5889 82.9879L61.5202 82.2674L61.358 83.6738L61.5889 82.9879ZM62.604 83.3754L62.3191 84.0407L62.4889 84.1134L62.6727 84.0959L62.604 83.3754ZM64.3888 83.2051L64.4575 83.9256L64.6736 82.5397L64.3888 83.2051ZM63.3737 82.8176L63.6046 82.1317L63.4584 82.0825L63.3049 82.0971L63.3737 82.8176ZM63.3734 82.8176L63.1431 83.5037L63.289 83.5527L63.4423 83.5381L63.3734 82.8176ZM62.6037 83.3761L62.5349 82.6557L62.3188 84.0415L62.6037 83.3761ZM64.3885 83.2058L64.6733 82.5405L64.5036 82.4678L64.3197 82.4854L64.3885 83.2058ZM63.6233 83.8634L63.2846 84.5031L63.4762 84.6045L63.6921 84.5839L63.6233 83.8634ZM65.4081 83.6931L65.4768 84.4136L67.8822 84.1841L65.7467 83.0535L65.4081 83.6931ZM65.4082 83.694L65.7469 83.0544L65.5553 82.953L65.3395 82.9736L65.4082 83.694ZM63.6234 83.8644L63.5547 83.1439L61.1493 83.3734L63.2848 84.504L63.6234 83.8644ZM66.4553 84.3086L66.0621 84.9162L66.2734 85.0529L66.524 85.029L66.4553 84.3086ZM66.4605 84.3081L66.8539 83.7006L66.6425 83.5637L66.3917 83.5876L66.4605 84.3081ZM67.5835 85.1164L67.6523 85.8369L69.4358 85.6667L68.0345 84.5504L67.5835 85.1164ZM65.7987 85.2867L65.3478 85.8528L65.5765 86.035L65.8675 86.0072L65.7987 85.2867ZM64.6807 84.4816L65.0744 83.8743L64.8629 83.7372L64.612 83.7612L64.6807 84.4816ZM64.6755 84.4821L64.2821 85.0896L64.4935 85.2265L64.7443 85.2026L64.6755 84.4821ZM67.5835 85.117L68.0345 84.551L67.8058 84.3688L67.5148 84.3966L67.5835 85.117ZM65.7987 85.2873L65.73 84.5669L63.9465 84.737L65.3478 85.8534L65.7987 85.2873ZM68.8482 86.2531L68.917 86.9736L70.436 86.8287L69.3627 85.7441L68.8482 86.2531ZM67.0634 86.4235L66.549 86.9325L66.7905 87.1765L67.1322 87.1439L67.0634 86.4235ZM67.0634 86.4254L66.9947 85.7049L65.4757 85.8499L66.549 86.9345L67.0634 86.4254ZM68.8482 86.2551L69.3626 85.746L69.1212 85.502L68.7795 85.5346L68.8482 86.2551ZM69.0394 88.9071L69.1081 89.6276L70.2831 89.5155L69.6503 88.5191L69.0394 88.9071ZM69.0371 88.9073L68.9684 88.1868L67.7935 88.2989L68.4261 89.2952L69.0371 88.9073ZM69.9919 90.6567L69.3352 90.9608L69.5505 91.4259L70.0607 91.3772L69.9919 90.6567ZM71.7767 90.4864L71.8454 91.2069L72.8629 91.1098L72.4334 90.1823L71.7767 90.4864ZM70.8222 88.7375L70.7535 88.017L69.5786 88.129L70.2112 89.1254L70.8222 88.7375ZM70.8244 88.7372L70.8931 89.4577L72.0681 89.3457L71.4354 88.3493L70.8244 88.7372ZM69.9935 90.6569L69.9248 89.9364L68.9073 90.0335L69.3368 90.961L69.9935 90.6569ZM71.7783 90.4866L72.4351 90.1824L72.2197 89.7174L71.7096 89.7661L71.7783 90.4866ZM71.0335 93.7253L71.1019 94.4458L71.9188 94.3682L71.7398 93.5673L71.0335 93.7253ZM71.0333 93.7253L70.9649 93.0048L70.148 93.0824L70.327 93.8832L71.0333 93.7253ZM71.3167 95.4573L70.5969 95.5327L70.6716 96.2459L71.3854 96.1778L71.3167 95.4573ZM73.1014 95.287L73.1702 96.0075L73.8974 95.9381L73.8212 95.2115L73.1014 95.287ZM72.8183 93.5561L72.7499 92.8356L71.9331 92.9132L72.112 93.7139L72.8183 93.5561ZM72.8185 93.5561L72.8869 94.2766L73.7038 94.199L73.5248 93.3982L72.8185 93.5561ZM71.3182 95.4582L71.2495 94.7377L70.5223 94.8071L70.5984 95.5337L71.3182 95.4582ZM73.103 95.2879L73.8228 95.2124L73.748 94.4993L73.0343 94.5674L73.103 95.2879ZM71.4001 96.8569L71.4688 97.5774L72.1322 97.5141L72.1238 96.8478L71.4001 96.8569ZM71.3987 96.857L71.33 96.1365L70.6667 96.1998L70.675 96.8661L71.3987 96.857ZM71.3624 98.1208L70.6404 98.0703L70.5807 98.9226L71.4312 98.8413L71.3624 98.1208ZM71.3625 98.1208L72.0845 98.1715L72.1443 97.3191L71.2937 97.4004L71.3625 98.1208ZM71.2908 98.8765L72.0094 98.9626L72.0094 98.9626L71.2908 98.8765ZM71.2332 99.306L70.5173 99.1999L70.3817 100.114L71.302 100.027L71.2332 99.306ZM73.018 99.1357L73.0868 99.8562L73.6508 99.8024L73.7339 99.2419L73.018 99.1357ZM73.0756 98.7062L72.3569 98.6201L72.3569 98.6201L73.0756 98.7062ZM73.1475 97.9481L73.8695 97.9986L73.9291 97.1463L73.0786 97.2276L73.1475 97.9481ZM73.1473 97.9481L72.4253 97.8976L72.3658 98.7498L73.2162 98.6685L73.1473 97.9481ZM73.1835 96.6869L73.1148 95.9664L72.4514 96.0297L72.4598 96.696L73.1835 96.6869ZM73.1849 96.6868L73.2536 97.4073L73.9169 97.344L73.9086 96.6777L73.1849 96.6868ZM60.8607 81.5197L59.0759 81.6897L59.2131 83.1307L60.9979 82.9607L60.8607 81.5197ZM61.3805 81.5771C61.2641 81.5578 61.1472 81.54 61.0299 81.5235L60.8288 82.957C60.9344 82.9718 61.0395 82.9879 61.1443 83.0052L61.3805 81.5771ZM59.5462 83.1816L61.331 83.0116L61.1938 81.5707L59.409 81.7406L59.5462 83.1816ZM59.044 83.1269C59.1496 83.1418 59.2548 83.1578 59.3595 83.1752L59.5957 81.7471C59.4793 81.7278 59.3625 81.7099 59.2451 81.6935L59.044 83.1269ZM61.1948 81.5706L59.41 81.7405L59.5472 83.1815L61.332 83.0115L61.1948 81.5706ZM62.5158 81.812C62.1435 81.7191 61.7652 81.6405 61.3815 81.577L61.1452 83.0051C61.4904 83.0622 61.8304 83.1328 62.165 83.2164L62.5158 81.812ZM60.6243 83.4047L62.409 83.2347L62.2718 81.7937L60.487 81.9637L60.6243 83.4047ZM59.3605 83.1751C59.7056 83.2322 60.0456 83.3028 60.3803 83.3864L60.731 81.982C60.3587 81.889 59.9805 81.8105 59.5967 81.747L59.3605 83.1751ZM60.6253 83.4065L62.4101 83.2365L62.2728 81.7955L60.4881 81.9655L60.6253 83.4065ZM61.8198 82.3018C61.4635 82.1821 61.1007 82.0759 60.7321 81.9838L60.3813 83.3882C60.7126 83.4709 61.0387 83.5664 61.359 83.6739L61.8198 82.3018ZM61.6577 83.7084L61.6582 83.7083L61.5207 82.2674L61.5202 82.2674L61.6577 83.7084ZM62.8889 82.7101C62.5395 82.5605 62.183 82.4242 61.8198 82.302L61.358 83.6738C61.6844 83.7837 62.0049 83.9062 62.3191 84.0407L62.8889 82.7101ZM64.32 82.4846L62.5352 82.6549L62.6727 84.0959L64.4575 83.9256L64.32 82.4846ZM63.1428 83.5035C63.4692 83.6134 63.7897 83.7359 64.1039 83.8704L64.6736 82.5397C64.3243 82.3902 63.9678 82.2539 63.6046 82.1317L63.1428 83.5035ZM63.4423 83.5381L63.4425 83.5381L63.3049 82.0971L63.3046 82.0971L63.4423 83.5381ZM62.1661 83.2182C62.4972 83.3009 62.823 83.3962 63.1431 83.5037L63.6038 82.1315C63.2477 82.0119 62.8852 81.9058 62.5168 81.8138L62.1661 83.2182ZM62.6724 84.0966L64.4572 83.9263L64.3197 82.4854L62.5349 82.6557L62.6724 84.0966ZM63.962 83.2238C63.6124 83.0387 63.2544 82.8675 62.8886 82.7108L62.3188 84.0415C62.6478 84.1823 62.97 84.3364 63.2846 84.5031L63.962 83.2238ZM65.3393 82.9726L63.5546 83.1429L63.6921 84.5839L65.4768 84.4136L65.3393 82.9726ZM64.1036 83.8712C64.4326 84.012 64.7547 84.1661 65.0694 84.3328L65.7467 83.0535C65.3972 82.8684 65.0392 82.6972 64.6733 82.5405L64.1036 83.8712ZM65.3395 82.9736L63.5547 83.1439L63.6922 84.5848L65.477 84.4145L65.3395 82.9736ZM66.8484 83.7009C66.4916 83.47 66.1242 83.2542 65.7469 83.0544L65.0696 84.3337C65.4093 84.5135 65.7403 84.708 66.0621 84.9162L66.8484 83.7009ZM66.3917 83.5876L66.3865 83.5881L66.524 85.029L66.5292 85.0285L66.3917 83.5876ZM68.0345 84.5504C67.6555 84.2484 67.2616 83.9647 66.8539 83.7006L66.067 84.9155C66.4347 85.1537 66.7902 85.4097 67.1326 85.6825L68.0345 84.5504ZM65.8675 86.0072L67.6523 85.8369L67.5148 84.396L65.73 84.5663L65.8675 86.0072ZM64.287 85.0889C64.653 85.3262 65.0069 85.5812 65.3478 85.8528L66.2497 84.7207C65.8724 84.4201 65.4803 84.1375 65.0744 83.8743L64.287 85.0889ZM64.7443 85.2026L64.7495 85.2021L64.612 83.7612L64.6068 83.7616L64.7443 85.2026ZM63.2848 84.504C63.6262 84.6847 63.9588 84.8802 64.2821 85.0896L65.069 83.8747C64.7105 83.6425 64.3413 83.4255 63.9621 83.2247L63.2848 84.504ZM67.5148 84.3966L65.73 84.5669L65.8675 86.0078L67.6523 85.8375L67.5148 84.3966ZM69.3627 85.7441C68.9438 85.3207 68.5004 84.9221 68.0345 84.551L67.1325 85.6831C67.5534 86.0184 67.9545 86.3789 68.3338 86.7622L69.3627 85.7441ZM67.1322 87.1439L68.917 86.9736L68.7795 85.5327L66.9947 85.703L67.1322 87.1439ZM65.3478 85.8534C65.7687 86.1887 66.1697 86.5492 66.549 86.9325L67.5779 85.9144C67.159 85.4911 66.7156 85.0924 66.2497 84.7213L65.3478 85.8534ZM67.1322 87.1459L68.917 86.9756L68.7795 85.5346L66.9947 85.7049L67.1322 87.1459ZM69.6503 88.5191C69.0525 87.5776 68.3575 86.7041 67.5779 85.9163L66.549 86.9345C67.2549 87.6478 67.8854 88.44 68.4284 89.295L69.6503 88.5191ZM69.1058 89.6278L69.1081 89.6276L68.9707 88.1866L68.9684 88.1868L69.1058 89.6278ZM70.6487 90.3526C70.3547 89.7179 70.0202 89.1054 69.6481 88.5193L68.4261 89.2952C68.764 89.8274 69.068 90.3839 69.3352 90.9608L70.6487 90.3526ZM71.7079 89.7659L69.9232 89.9363L70.0607 91.3772L71.8454 91.2069L71.7079 89.7659ZM70.2112 89.1254C70.549 89.6574 70.8529 90.2138 71.1199 90.7905L72.4334 90.1823C72.1396 89.5477 71.8052 88.9354 71.4332 88.3495L70.2112 89.1254ZM70.7557 88.0168L70.7535 88.017L70.8909 89.4579L70.8931 89.4577L70.7557 88.0168ZM68.3338 86.7642C69.0398 87.4777 69.6704 88.2699 70.2134 89.1252L71.4354 88.3493C70.8375 87.4076 70.1424 86.5339 69.3626 85.746L68.3338 86.7642ZM70.0623 91.3773L71.8471 91.207L71.7096 89.7661L69.9248 89.9364L70.0623 91.3773ZM71.7398 93.5673C71.4899 92.4498 71.1225 91.3725 70.6503 90.3528L69.3368 90.961C69.7659 91.8878 70.1 92.8672 70.3272 93.8832L71.7398 93.5673ZM71.1017 94.4458L71.1019 94.4458L70.965 93.0048L70.9649 93.0048L71.1017 94.4458ZM72.0365 95.3818C71.972 94.7674 71.8725 94.1617 71.7396 93.5674L70.327 93.8832C70.4477 94.4235 70.5383 94.9741 70.5969 95.5327L72.0365 95.3818ZM73.0327 94.5665L71.2479 94.7368L71.3854 96.1778L73.1702 96.0075L73.0327 94.5665ZM72.112 93.7139C72.2326 94.2539 72.3231 94.8042 72.3816 95.3624L73.8212 95.2115C73.7569 94.5975 73.6574 93.9922 73.5247 93.3983L72.112 93.7139ZM72.7501 92.8356L72.7499 92.8356L72.8867 94.2766L72.8869 94.2766L72.7501 92.8356ZM71.1216 90.7907C71.5509 91.7178 71.885 92.6976 72.1122 93.7139L73.5248 93.3982C73.2749 92.2802 72.9074 91.2025 72.4351 90.1824L71.1216 90.7907ZM71.387 96.1787L73.1718 96.0084L73.0343 94.5674L71.2495 94.7377L71.387 96.1787ZM72.1238 96.8478C72.1176 96.3549 72.0887 95.8661 72.038 95.3827L70.5984 95.5337C70.6445 95.9732 70.6708 96.4177 70.6764 96.866L72.1238 96.8478ZM71.4674 97.5775L71.4688 97.5774L71.3314 96.1364L71.33 96.1365L71.4674 97.5775ZM72.0844 98.1714C72.1154 97.7276 72.1279 97.2862 72.1224 96.848L70.675 96.8661C70.68 97.2647 70.6687 97.6664 70.6404 98.0703L72.0844 98.1714ZM71.2937 97.4004L71.2935 97.4004L71.4312 98.8413L71.4314 98.8413L71.2937 97.4004ZM72.0094 98.9626C72.0411 98.6982 72.0661 98.4345 72.0845 98.1715L70.6406 98.0702C70.6238 98.3095 70.601 98.5497 70.5722 98.7905L72.0094 98.9626ZM71.9492 99.4122C71.9713 99.2631 71.9914 99.1132 72.0094 98.9626L70.5722 98.7904C70.5557 98.9277 70.5374 99.0642 70.5173 99.1999L71.9492 99.4122ZM72.9493 98.4153L71.1645 98.5856L71.302 100.027L73.0868 99.8562L72.9493 98.4153ZM72.3569 98.6201C72.3405 98.7574 72.3222 98.8939 72.3021 99.0296L73.7339 99.2419C73.7561 99.0928 73.7761 98.9429 73.7942 98.7922L72.3569 98.6201ZM72.4255 97.8975C72.4087 98.1376 72.3859 98.3786 72.3569 98.6201L73.7942 98.7922C73.8259 98.527 73.851 98.2624 73.8695 97.9986L72.4255 97.8975ZM73.2162 98.6685L73.2163 98.6685L73.0786 97.2276L73.0785 97.2276L73.2162 98.6685ZM72.4598 96.696C72.4648 97.0938 72.4535 97.4946 72.4253 97.8976L73.8693 97.9985C73.9003 97.5557 73.9127 97.1152 73.9072 96.6779L72.4598 96.696ZM73.1162 95.9663L73.1148 95.9664L73.2522 97.4074L73.2536 97.4073L73.1162 95.9663ZM72.3832 95.3633C72.4293 95.8029 72.4556 96.2475 72.4612 96.6959L73.9086 96.6777C73.9024 96.1848 73.8735 95.6959 73.8228 95.2124L72.3832 95.3633Z" fill="white" mask="url(#path-69-inside-25_833_16650)"/>
</g>
<path d="M43.8839 95.0234C44.1893 92.4725 45.1446 90.0598 46.646 88.0615L46.9228 87.6944L47.1189 87.4343L46.8808 87.212L46.539 86.893L46.5363 86.8904C46.4193 86.7835 46.3136 86.6597 46.199 86.5143L20.9091 52.1948L20.9091 52.1947L20.9075 52.1925C20.4805 51.6224 20.2972 50.919 20.3821 50.2097C20.4682 49.4912 20.8106 48.8662 21.3521 48.4375L21.3521 48.4375L21.3543 48.4357C21.9047 47.9927 22.5777 47.8287 23.2121 47.9179C23.8559 48.0083 24.4723 48.3544 24.9041 48.9402C24.9041 48.9402 24.9041 48.9402 24.9041 48.9402L26.3006 50.8349L26.5246 51.1388L26.8188 50.9021L30.2687 48.1257L30.5393 47.9079L30.3327 47.6286L28.4135 45.0342L32.5612 41.6891L35.7778 46.0623L35.355 49.1795L35.3057 49.5424L35.6693 49.5872L38.6465 49.9542L42.0258 54.5292L37.8711 57.8658L35.844 55.1158L35.6197 54.8114L35.3254 55.0489L31.8841 57.8264L31.6146 58.044L31.8201 58.3228L50.1984 83.2555L50.4897 83.0408L50.1984 83.2555C50.2906 83.3806 50.3624 83.4884 50.4164 83.6021L50.42 83.6096L50.4239 83.617L50.6425 84.0272L50.8065 84.3349L51.1202 84.1824L51.5236 83.9861L51.5254 83.9852C53.8829 82.8223 56.4944 82.4072 59.0894 82.7719C66.541 83.8192 71.8641 91.0159 70.9273 98.839C69.9899 106.666 63.157 112.145 55.7122 111.098C48.2694 110.052 42.9459 102.856 43.8839 95.0234ZM56.1072 107.675C61.8003 108.475 66.9798 104.286 67.6884 98.3689C68.3953 92.4657 64.3806 86.9945 58.6943 86.1953C53.0098 85.3964 47.8302 89.5857 47.1228 95.4935C46.4148 101.405 50.4291 106.877 56.1072 107.675Z" fill="white" fill-opacity="0.4" stroke="white" stroke-width="0.72375"/>
</g>
</g>
</g>
<defs>
<filter id="filter0_d_833_16650" x="-7.02843" y="13.9716" width="107.24" height="124.645" filterUnits="userSpaceOnUse" color-interpolation-filters="sRGB">
<feFlood flood-opacity="0" result="BackgroundImageFix"/>
<feColorMatrix in="SourceAlpha" type="matrix" values="0 0 0 0 0 0 0 0 0 0 0 0 0 0 0 0 0 0 127 0" result="hardAlpha"/>
<feOffset/>
<feGaussianBlur stdDeviation="13.5142"/>
<feComposite in2="hardAlpha" operator="out"/>
<feColorMatrix type="matrix" values="0 0 0 0 1 0 0 0 0 1 0 0 0 0 1 0 0 0 0.2 0"/>
<feBlend mode="normal" in2="BackgroundImageFix" result="effect1_dropShadow_833_16650"/>
<feBlend mode="normal" in="SourceGraphic" in2="effect1_dropShadow_833_16650" result="shape"/>
</filter>
<filter id="filter1_d_833_16650" x="-51.6212" y="-23.8001" width="196.426" height="213.83" filterUnits="userSpaceOnUse" color-interpolation-filters="sRGB">
<feFlood flood-opacity="0" result="BackgroundImageFix"/>
<feColorMatrix in="SourceAlpha" type="matrix" values="0 0 0 0 0 0 0 0 0 0 0 0 0 0 0 0 0 0 127 0" result="hardAlpha"/>
<feOffset dy="6.82106"/>
<feGaussianBlur stdDeviation="35.8106"/>
<feComposite in2="hardAlpha" operator="out"/>
<feColorMatrix type="matrix" values="0 0 0 0 1 0 0 0 0 1 0 0 0 0 1 0 0 0 0.76 0"/>
<feBlend mode="normal" in2="BackgroundImageFix" result="effect1_dropShadow_833_16650"/>
<feBlend mode="normal" in="SourceGraphic" in2="effect1_dropShadow_833_16650" result="shape"/>
</filter>
<clipPath id="clip0_833_16650">
<rect width="160" height="152" fill="white"/>
</clipPath>
</defs>
</svg>
