<svg width="current" height="current" viewBox="0 0 20 20" fill="none" xmlns="http://www.w3.org/2000/svg">
<path d="M19.5 10C19.5 15.2467 15.2467 19.5 10 19.5C4.75329 19.5 0.5 15.2467 0.5 10C0.5 4.75329 4.75329 0.5 10 0.5C15.2467 0.5 19.5 4.75329 19.5 10Z" fill="white" stroke="#DEE2E9"/>
<path d="M17.9044 7.88286C18.2436 9.18861 18.1532 10.2489 17.7527 11.0509C17.4705 11.6169 16.8799 11.9638 16.2611 11.9638C15.6423 11.9638 15.0892 11.6484 14.7678 11.0484C13.9897 9.59516 14.7602 7.8607 14.8505 6.03418C14.8164 6.04185 14.7823 6.05037 14.7482 6.05975C13.4919 6.4109 12.0924 8.06696 11.0918 9.38805C11.1966 11.5257 11.2912 14.0468 12.8646 15.1898C13.3283 15.5128 13.8917 15.7029 14.5002 15.7029C15.4659 15.7029 16.3225 15.2222 16.8407 14.4892C17.6887 13.2005 18.1822 11.6569 18.1822 9.99916C18.1822 9.26617 18.0842 8.55789 17.9035 7.88115L17.9044 7.88286Z" fill="url(#paint0_radial_426_12045)"/>
<path d="M12.8545 2.33105C13.7963 2.74102 14.554 3.5976 14.7705 4.72862C14.8549 5.16757 14.8711 5.60395 14.8498 6.03523C16.1879 5.72072 17.5448 6.54236 17.9036 7.8839C17.2167 5.31928 15.316 3.2473 12.8545 2.33105Z" fill="#AB1EED"/>
<path d="M17.9039 7.88246C17.5442 6.54176 16.1882 5.71928 14.8501 6.03378C14.7597 7.8603 13.9892 9.59562 14.7674 11.048C15.0887 11.648 15.6581 11.9634 16.2606 11.9634C16.8632 11.9634 17.4701 11.6156 17.7522 11.0505C18.1528 10.2485 18.2431 9.18821 17.9039 7.88246Z" fill="#F478C4"/>
<path d="M6.64613 3.7821C8.84596 3.7821 10.6623 5.42111 10.9435 7.54423C11.0245 8.0846 11.0586 8.71787 11.091 9.38865C12.0916 8.0667 13.4911 6.41065 14.7474 6.06035C14.7815 6.05097 14.8156 6.04245 14.8497 6.03478C14.871 5.6035 14.8548 5.16712 14.7704 4.72817C14.5539 3.59715 13.7954 2.73971 12.8544 2.3306C11.9663 1.9999 11.0049 1.81836 10.0009 1.81836C6.97513 1.81836 4.3355 3.46163 2.91895 5.90267C3.71586 4.58839 5.0719 3.7821 6.64613 3.7821Z" fill="url(#paint1_radial_426_12045)"/>
<path d="M14.5 15.7043C13.8914 15.7043 13.3281 15.5143 12.8644 15.1904C11.291 14.0474 11.1964 11.5263 11.0916 9.38865C11.0583 8.71788 11.0251 8.0846 10.9441 7.54338C10.6629 5.42026 8.84657 3.78125 6.64674 3.78125C5.07251 3.78125 3.71647 4.58754 2.91955 5.90182C2.90847 5.92057 2.89654 5.93932 2.88546 5.95807C2.20616 7.15131 1.81836 8.53122 1.81836 10.0006C1.81836 14.5196 5.48162 18.1829 10.0006 18.1829C12.861 18.1829 15.3779 16.7152 16.8405 14.4915C16.3214 15.2228 15.4657 15.7035 14.5 15.7035V15.7043Z" fill="url(#paint2_radial_426_12045)"/>
<defs>
<radialGradient id="paint0_radial_426_12045" cx="0" cy="0" r="1" gradientUnits="userSpaceOnUse" gradientTransform="translate(9.74599 10.2523) scale(8.62375)">
<stop offset="0.5" stop-color="#9ED6FF" stop-opacity="0"/>
<stop offset="0.57" stop-color="#9ED6FF" stop-opacity="0.04"/>
<stop offset="0.69" stop-color="#9ED6FF" stop-opacity="0.13"/>
<stop offset="0.83" stop-color="#9ED6FF" stop-opacity="0.29"/>
<stop offset="1" stop-color="#9ED6FF" stop-opacity="0.5"/>
</radialGradient>
<radialGradient id="paint1_radial_426_12045" cx="0" cy="0" r="1" gradientUnits="userSpaceOnUse" gradientTransform="translate(7.03053 8.00448) scale(8.6425)">
<stop offset="0.2" stop-color="#B873EE" stop-opacity="0"/>
<stop offset="0.27" stop-color="#B873EE" stop-opacity="0.04"/>
<stop offset="0.39" stop-color="#B873EE" stop-opacity="0.14"/>
<stop offset="0.54" stop-color="#B873EE" stop-opacity="0.31"/>
<stop offset="0.71" stop-color="#B873EE" stop-opacity="0.54"/>
<stop offset="0.9" stop-color="#B873EE" stop-opacity="0.83"/>
<stop offset="1" stop-color="#B873EE"/>
</radialGradient>
<radialGradient id="paint2_radial_426_12045" cx="0" cy="0" r="1" gradientUnits="userSpaceOnUse" gradientTransform="translate(5.75948 3.86904) scale(15.6315 15.6315)">
<stop stop-color="#7635FF"/>
<stop offset="0.15" stop-color="#7739FF"/>
<stop offset="0.31" stop-color="#7A45FF"/>
<stop offset="0.47" stop-color="#7F5AFF"/>
<stop offset="0.63" stop-color="#8677FF"/>
<stop offset="0.8" stop-color="#8F9CFF"/>
<stop offset="0.96" stop-color="#9BCAFF"/>
<stop offset="1" stop-color="#9ED6FF"/>
</radialGradient>
</defs>
</svg>
