<svg width="24" height="24" viewBox="0 0 24 24" fill="none" xmlns="http://www.w3.org/2000/svg">
<path d="M13.9998 7.5C13.7237 7.5 13.4998 7.72386 13.4998 8C13.4998 8.27614 13.7237 8.5 13.9998 8.5V7.5ZM18.9998 8V8.5C19.2759 8.5 19.4998 8.27614 19.4998 8H18.9998ZM19.4998 3C19.4998 2.72386 19.2759 2.5 18.9998 2.5C18.7237 2.5 18.4998 2.72386 18.4998 3H19.4998ZM19.1284 16.6294C19.2788 16.3978 19.213 16.0882 18.9814 15.9378C18.7498 15.7874 18.4401 15.8532 18.2897 16.0848L19.1284 16.6294ZM9.80791 19.6939L9.94489 19.213H9.94489L9.80791 19.6939ZM5.46667 7.38281L5.05835 7.09424L5.46667 7.38281ZM9.48779 4.4046L9.3308 3.92989L9.48779 4.4046ZM18.1134 7.65542C18.2734 7.88051 18.5855 7.9333 18.8106 7.77334C19.0357 7.61338 19.0885 7.30123 18.9285 7.07614L18.1134 7.65542ZM13.9998 8.5H18.9998V7.5H13.9998V8.5ZM19.4998 8V3H18.4998V8H19.4998ZM18.2897 16.0848C17.4162 17.43 16.1343 18.4597 14.6324 19.0228L14.9834 19.9591C16.6856 19.321 18.1383 18.154 19.1284 16.6294L18.2897 16.0848ZM14.6324 19.0228C13.1305 19.5858 11.4875 19.6525 9.94489 19.213L9.67093 20.1748C11.4192 20.6728 13.2812 20.5972 14.9834 19.9591L14.6324 19.0228ZM9.94489 19.213C8.4023 18.7736 7.04148 17.8513 6.0617 16.5813L5.26994 17.1921C6.38033 18.6314 7.92261 19.6768 9.67093 20.1748L9.94489 19.213ZM6.0617 16.5813C5.08195 15.3114 4.53524 13.7607 4.50165 12.1571L3.50187 12.178C3.53993 13.9954 4.15952 15.7528 5.26994 17.1921L6.0617 16.5813ZM4.50165 12.1571C4.46805 10.5534 4.94929 8.98123 5.87499 7.67139L5.05835 7.09424C4.00917 8.5788 3.4638 10.3606 3.50187 12.178L4.50165 12.1571ZM5.87499 7.67139C6.80072 6.36151 8.12194 5.38295 9.64479 4.87931L9.3308 3.92989C7.60489 4.50068 6.10751 5.60972 5.05835 7.09424L5.87499 7.67139ZM9.64479 4.87931C11.1676 4.37568 12.8121 4.37352 14.3363 4.87317L14.6478 3.92292C12.9204 3.35666 11.0567 3.3591 9.3308 3.92989L9.64479 4.87931ZM14.3363 4.87317C15.8605 5.37281 17.1842 6.34796 18.1134 7.65542L18.9285 7.07614C17.8755 5.59437 16.3752 4.4892 14.6478 3.92292L14.3363 4.87317Z" fill="#1A1A1A"/>
</svg>
