<svg width="1em" height="1em" viewBox="0 0 24 24" fill="none" xmlns="http://www.w3.org/2000/svg">
<path d="M2.33496 10.3367C2.02171 10.047 2.19187 9.52328 2.61557 9.47305L8.61914 8.76124C8.79182 8.74077 8.94181 8.63197 9.01465 8.47407L11.5469 2.98421C11.7256 2.59677 12.2764 2.59672 12.4551 2.98416L14.9873 8.47415C15.0601 8.63205 15.2092 8.74078 15.3818 8.76126L21.3857 9.47305C21.8094 9.52328 21.9795 10.047 21.6662 10.3367L17.2279 14.4414C17.1002 14.5595 17.0433 14.7355 17.0771 14.906L18.2551 20.8358C18.3383 21.2543 17.8929 21.5779 17.5206 21.3695L12.2453 18.4166C12.0935 18.3317 11.9087 18.3316 11.757 18.4165L6.48109 21.3696C6.10878 21.578 5.66294 21.2544 5.74609 20.8359L6.92437 14.906C6.95826 14.7354 6.90134 14.5595 6.77367 14.4415L2.33496 10.3367Z" fill="#FFD138"/>
<path d="M2.61557 9.47305L2.49783 8.48L2.49782 8.48L2.61557 9.47305ZM2.33496 10.3367L3.01392 9.60248L3.01391 9.60248L2.33496 10.3367ZM6.77367 14.4415L6.09471 15.1757L6.09472 15.1757L6.77367 14.4415ZM6.92437 14.906L7.9052 15.1009L7.9052 15.1009L6.92437 14.906ZM5.74609 20.8359L4.76527 20.641L4.76527 20.641L5.74609 20.8359ZM6.48109 21.3696L5.99266 20.497L5.99265 20.497L6.48109 21.3696ZM11.757 18.4165L12.2454 19.2891L12.2454 19.2891L11.757 18.4165ZM12.2453 18.4166L11.7568 19.2892H11.7568L12.2453 18.4166ZM17.5206 21.3695L18.0091 20.4969H18.0091L17.5206 21.3695ZM18.2551 20.8358L17.2743 21.0307L17.2743 21.0307L18.2551 20.8358ZM17.0771 14.906L18.058 14.7112L18.058 14.7111L17.0771 14.906ZM17.2279 14.4414L17.9069 15.1756L17.9069 15.1756L17.2279 14.4414ZM21.6662 10.3367L20.9873 9.60251L20.9873 9.60254L21.6662 10.3367ZM21.3857 9.47305L21.5035 8.48L21.5035 8.48L21.3857 9.47305ZM15.3818 8.76126L15.2641 9.7543L15.2641 9.7543L15.3818 8.76126ZM14.9873 8.47415L14.0792 8.89298L14.0792 8.89299L14.9873 8.47415ZM12.4551 2.98416L13.3631 2.56532L13.3631 2.56531L12.4551 2.98416ZM11.5469 2.98421L10.6388 2.56536V2.56536L11.5469 2.98421ZM9.01465 8.47407L8.10659 8.05522L8.10659 8.05522L9.01465 8.47407ZM8.61914 8.76124L8.73688 9.75429L8.73688 9.75429L8.61914 8.76124ZM2.49782 8.48C1.22673 8.63071 0.716261 10.2018 1.65601 11.0708L3.01391 9.60248C3.32716 9.89216 3.15701 10.4159 2.73331 10.4661L2.49782 8.48ZM1.65601 11.0708L6.09471 15.1757L7.45262 13.7073L3.01392 9.60248L1.65601 11.0708ZM6.09472 15.1757C5.96637 15.057 5.90984 14.8807 5.94355 14.7111L7.9052 15.1009C8.00669 14.5901 7.8363 14.0621 7.45262 13.7073L6.09472 15.1757ZM5.94355 14.7111L4.76527 20.641L6.72692 21.0308L7.9052 15.1009L5.94355 14.7111ZM4.76527 20.641C4.5156 21.8975 5.85354 22.8669 6.96953 22.2422L5.99265 20.497C6.36402 20.2891 6.81028 20.6112 6.72692 21.0308L4.76527 20.641ZM6.96951 22.2422L12.2454 19.2891L11.2685 17.5439L5.99266 20.497L6.96951 22.2422ZM12.2454 19.2891C12.0933 19.3743 11.9082 19.3739 11.7568 19.2892L12.7337 17.544C12.2789 17.2895 11.7241 17.2889 11.2685 17.5439L12.2454 19.2891ZM11.7568 19.2892L17.0322 22.2421L18.0091 20.4969L12.7337 17.544L11.7568 19.2892ZM17.0322 22.2421C18.1493 22.8674 19.4854 21.8962 19.236 20.6409L17.2743 21.0307C17.1912 20.6124 17.6366 20.2885 18.0091 20.4969L17.0322 22.2421ZM19.236 20.641L18.058 14.7112L16.0963 15.1009L17.2743 21.0307L19.236 20.641ZM18.058 14.7111C18.0917 14.8809 18.0351 15.057 17.9069 15.1756L16.549 13.7072C16.1654 14.062 15.9948 14.59 16.0963 15.1009L18.058 14.7111ZM17.9069 15.1756L22.3452 11.0709L20.9873 9.60254L16.5489 13.7073L17.9069 15.1756ZM22.3452 11.0709C23.2846 10.2021 22.775 8.63077 21.5035 8.48L21.268 10.4661C20.8438 10.4158 20.6744 9.89188 20.9873 9.60251L22.3452 11.0709ZM21.5035 8.48L15.4996 7.76821L15.2641 9.7543L21.268 10.4661L21.5035 8.48ZM15.4996 7.76821C15.674 7.78889 15.8232 7.89895 15.8954 8.0553L14.0792 8.89299C14.297 9.36515 14.7444 9.69267 15.2641 9.7543L15.4996 7.76821ZM15.8954 8.05531L13.3631 2.56532L11.547 3.40299L14.0792 8.89298L15.8954 8.05531ZM13.3631 2.56531C12.8269 1.4028 11.1748 1.40325 10.6388 2.56536L12.4549 3.40305C12.2763 3.79029 11.7258 3.79063 11.547 3.403L13.3631 2.56531ZM10.6388 2.56536L8.10659 8.05522L9.92271 8.89291L12.4549 3.40305L10.6388 2.56536ZM8.10659 8.05522C8.1797 7.89673 8.32936 7.7886 8.5014 7.7682L8.73688 9.75429C9.25428 9.69294 9.70393 9.36721 9.92271 8.89291L8.10659 8.05522ZM8.5014 7.7682L2.49783 8.48L2.7333 10.4661L8.73688 9.75429L8.5014 7.7682Z" fill="#FFD138"/>
</svg>
