<svg width="85" height="24" viewBox="0 0 85 24" fill="none" xmlns="http://www.w3.org/2000/svg">
<g clip-path="url(#clip0_34_193)">
<path class="logo-typo" d="M39.6107 4.80273L46.5998 13.5759V7.49395C46.5998 6.64517 46.4781 6.07151 46.2334 5.77298C45.8992 5.36908 45.3379 5.17444 44.551 5.18908V4.80273H49.2318V5.18908C48.6324 5.26517 48.2309 5.36469 48.0257 5.48615C47.8205 5.60761 47.6593 5.80664 47.545 6.0803C47.4292 6.35542 47.3721 6.82664 47.3721 7.49395V19.2715H47.0174L37.4373 7.49395V16.4866C37.4373 17.3003 37.6235 17.8491 37.9957 18.1344C38.368 18.4198 38.7944 18.5618 39.2751 18.5618H39.6092V18.9481H34.584V18.5618C35.3636 18.5544 35.9073 18.3949 36.2136 18.0818C36.5199 17.7686 36.6738 17.2374 36.6738 16.4852V6.50322L36.3705 6.12712C36.0715 5.75103 35.8062 5.50517 35.5761 5.38664C35.3461 5.2681 35.0148 5.20225 34.584 5.18908V4.80273H39.6092H39.6107Z" fill="black"/>
<path class="logo-typo" d="M57.3559 18.5632V18.9496H49.9492V18.5632H50.4196C50.83 18.5632 51.1612 18.4901 51.4118 18.3437C51.5935 18.2457 51.7328 18.0788 51.8295 17.8432C51.9057 17.6764 51.9438 17.2388 51.9438 16.5291V7.22322C51.9438 6.5003 51.9057 6.0481 51.8295 5.86664C51.7533 5.68517 51.5979 5.52712 51.3649 5.39249C51.1319 5.25639 50.8168 5.18908 50.4196 5.18908H49.9492V4.80273H57.3559V5.18908H56.8855C56.4752 5.18908 56.144 5.26225 55.8934 5.40859C55.7116 5.50664 55.5695 5.67347 55.4654 5.90908C55.3892 6.07591 55.3511 6.51347 55.3511 7.22322V16.5291C55.3511 17.252 55.3907 17.7042 55.4713 17.8857C55.5504 18.0671 55.7072 18.2252 55.9417 18.3598C56.1747 18.4959 56.4898 18.5632 56.887 18.5632H57.3574H57.3559Z" fill="black"/>
<path class="logo-typo" d="M71.1413 13.9842L70.6078 18.9496H58.0293V18.5632H58.4997C58.9101 18.5632 59.2413 18.4901 59.4919 18.3437C59.6736 18.2457 59.8128 18.0788 59.9096 17.8432C59.9858 17.6764 60.0239 17.2388 60.0239 16.5291V7.22322C60.0239 6.5003 59.9858 6.0481 59.9096 5.86664C59.8334 5.68517 59.678 5.52712 59.445 5.39249C59.212 5.25639 58.8969 5.18908 58.4997 5.18908H58.0293V4.80273H65.5826V5.18908H64.9656C64.5552 5.18908 64.224 5.26225 63.9734 5.40859C63.7917 5.50664 63.6496 5.67347 63.5455 5.90908C63.4693 6.07591 63.4312 6.51347 63.4312 7.22322V16.2364C63.4312 16.9593 63.4737 17.4203 63.5572 17.6193C63.6408 17.8183 63.8049 17.9662 64.0482 18.0627C64.2226 18.1257 64.6432 18.1564 65.3129 18.1564H66.4941C67.2459 18.1564 67.8732 18.0247 68.3744 17.7598C68.8756 17.4949 69.3094 17.0779 69.6758 16.5086C70.0421 15.9379 70.388 15.0964 70.7148 13.9842H71.1427H71.1413Z" fill="black"/>
<path class="logo-typo" d="M77.5191 5.61688V11.3754H77.8005C78.6988 11.3754 79.3495 11.0944 79.754 10.531C80.1585 9.96761 80.4149 9.13639 80.5278 8.03737H80.9249V15.4452H80.5278C80.4443 14.6388 80.2684 13.9774 80.0002 13.4637C79.732 12.9486 79.4199 12.6032 79.0652 12.4261C78.7105 12.2491 78.1947 12.1598 77.5191 12.1598V16.1447C77.5191 16.9232 77.5513 17.4003 77.6187 17.5744C77.6847 17.7486 77.8078 17.8905 77.9895 18.0018C78.1712 18.113 78.4629 18.1686 78.8674 18.1686H79.713C81.0363 18.1686 82.0959 17.8627 82.8946 17.251C83.6918 16.6393 84.2649 15.7071 84.6137 14.4559H85.0005L84.3631 18.953H72.1187V18.5666H72.5891C72.9994 18.5666 73.3306 18.4935 73.5812 18.3471C73.763 18.2491 73.9022 18.0822 73.9989 17.8466C74.0751 17.6798 74.1132 17.2422 74.1132 16.5325V7.22371C74.1132 6.5842 74.0956 6.19054 74.0605 6.0442C73.9901 5.80127 73.8626 5.61249 73.6736 5.48078C73.4083 5.28615 73.0463 5.1881 72.5876 5.1881H72.1172V4.80176H83.9747V8.98566H83.5775C83.3753 7.96273 83.0924 7.22956 82.7261 6.78468C82.3611 6.33981 81.8438 6.012 81.1741 5.8042C80.7843 5.67834 80.053 5.61688 78.9802 5.61688H77.5176H77.5191Z" fill="black"/>
<path class="symbol1" d="M26.0683 17.8535H18.6543L19.9308 23.9999H29.8963L26.0683 17.8535Z" fill="#875CFF"/>
<path class="symbol1" d="M20.2353 8.4878L14.9492 0L16.7108 8.4878H20.2353Z" fill="#875CFF"/>
<path class="symbol1" d="M18.2891 16.0978H24.9734L21.3286 10.2441H17.0742L18.2891 16.0978Z" fill="#875CFF"/>
<path class="symbol2" d="M14.9482 0L9.66211 8.4878H16.7098L14.9482 0Z" fill="#EC98FF"/>
<path class="symbol2" d="M3.82793 17.8536L0 24H19.931L18.6546 17.8536H3.82793Z" fill="#EC98FF"/>
<path class="symbol2" d="M17.0739 10.2441H8.56662L4.92188 16.0978H18.2889L17.0739 10.2441Z" fill="#EC98FF"/>
</g>
<defs>
<clipPath id="clip0_34_193">
<rect width="85" height="24" fill="white"/>
</clipPath>
</defs>
</svg>
