<svg width="1em" height="1em" viewBox="0 0 24 24" fill="none" xmlns="http://www.w3.org/2000/svg">
<path class="heart-inner" d="M12 7.76694C10.2222 3.64897 4 4.08757 4 9.3508C4 14.614 12 19 12 19C12 19 20 14.614 20 9.3508C20 4.08757 13.7778 3.64897 12 7.76694Z" fill="white"/>
<path d="M12 7.76694L11.541 7.96511C11.62 8.1483 11.8005 8.26694 12 8.26694C12.1995 8.26694 12.38 8.1483 12.459 7.96511L12 7.76694ZM12 19L11.7596 19.4384C11.9094 19.5205 12.0906 19.5205 12.2404 19.4384L12 19ZM4.5 9.3508C4.5 8.13671 4.85698 7.24234 5.38052 6.62817C5.90585 6.01187 6.62499 5.64668 7.40373 5.53594C8.96711 5.31362 10.7449 6.1212 11.541 7.96511L12.459 7.56876C11.4773 5.2947 9.25511 4.2626 7.26294 4.5459C6.2639 4.68797 5.31637 5.16191 4.61948 5.97945C3.9208 6.79911 3.5 7.93328 3.5 9.3508H4.5ZM12.459 7.96511C13.2551 6.1212 15.0329 5.31362 16.5963 5.53594C17.375 5.64668 18.0941 6.01187 18.6195 6.62817C19.143 7.24234 19.5 8.13671 19.5 9.3508H20.5C20.5 7.93328 20.0792 6.79911 19.3805 5.97945C18.6836 5.16191 17.7361 4.68797 16.7371 4.5459C14.7449 4.2626 12.5227 5.2947 11.541 7.56876L12.459 7.96511ZM19.5 9.3508C19.5 11.7463 17.6594 14.0284 15.6703 15.7732C14.6924 16.631 13.7121 17.3299 12.9752 17.8147C12.6072 18.0568 12.3012 18.2447 12.088 18.3716C11.9815 18.435 11.8982 18.4831 11.8422 18.5151C11.8142 18.5311 11.793 18.543 11.779 18.5508C11.7721 18.5547 11.7669 18.5575 11.7637 18.5593C11.762 18.5602 11.7609 18.5609 11.7602 18.5612C11.7599 18.5614 11.7597 18.5616 11.7596 18.5616C11.7595 18.5616 11.7595 18.5616 11.7595 18.5616C11.7596 18.5616 11.7596 18.5616 12 19C12.2404 19.4384 12.2405 19.4384 12.2407 19.4383C12.2408 19.4382 12.241 19.4381 12.2412 19.438C12.2416 19.4378 12.2421 19.4375 12.2427 19.4372C12.244 19.4365 12.2457 19.4355 12.2479 19.4343C12.2524 19.4318 12.2587 19.4283 12.2669 19.4237C12.2832 19.4146 12.3069 19.4012 12.3375 19.3838C12.3986 19.349 12.4873 19.2977 12.5995 19.2309C12.8238 19.0974 13.1428 18.9015 13.5248 18.6502C14.2879 18.1481 15.3076 17.4216 16.3297 16.525C18.3406 14.761 20.5 12.2186 20.5 9.3508H19.5ZM12 19C12.2404 18.5616 12.2404 18.5616 12.2405 18.5616C12.2405 18.5616 12.2405 18.5616 12.2404 18.5616C12.2403 18.5616 12.2401 18.5614 12.2398 18.5612C12.2391 18.5609 12.238 18.5602 12.2363 18.5593C12.2331 18.5575 12.2279 18.5547 12.221 18.5508C12.207 18.543 12.1858 18.5311 12.1578 18.5151C12.1018 18.4831 12.0185 18.435 11.912 18.3716C11.6988 18.2447 11.3928 18.0568 11.0248 17.8147C10.2879 17.3299 9.30761 16.631 8.32972 15.7732C6.34062 14.0284 4.5 11.7463 4.5 9.3508H3.5C3.5 12.2186 5.65938 14.761 7.67028 16.525C8.69239 17.4216 9.71212 18.1481 10.4752 18.6502C10.8572 18.9015 11.1762 19.0974 11.4005 19.2309C11.5127 19.2977 11.6014 19.349 11.6625 19.3838C11.6931 19.4012 11.7168 19.4146 11.7331 19.4237C11.7413 19.4283 11.7476 19.4318 11.7521 19.4343C11.7543 19.4355 11.756 19.4365 11.7573 19.4372C11.7579 19.4375 11.7584 19.4378 11.7588 19.438C11.759 19.4381 11.7592 19.4382 11.7593 19.4383C11.7595 19.4384 11.7596 19.4384 12 19Z" fill="#2E2E2E"/>
</svg>
