<svg width="1em" height="1em" viewBox="0 0 60 60" fill="none" xmlns="http://www.w3.org/2000/svg">
<path d="M14.9478 9.86785C12.2496 11.8527 9.90858 14.4153 8.12654 17.5023C6.65562 20.0499 5.6842 22.749 5.18187 25.4857H6.12392C6.61618 22.9077 7.54184 20.3664 8.92823 17.9652C10.6625 14.9609 12.9465 12.4729 15.5797 10.5531C16.4446 11.219 17.6599 11.337 18.6637 10.7575C18.7057 10.733 18.7469 10.7082 18.7871 10.682L28.0855 19.9803C27.9806 20.2127 27.9223 20.4703 27.9223 20.7416C27.9223 21.7641 28.7512 22.5931 29.7738 22.5931C30.7964 22.5931 31.6254 21.7641 31.6254 20.7416C31.6254 19.719 30.7964 18.89 29.7738 18.89C29.3601 18.89 28.9781 19.0256 28.6698 19.2548L19.4699 10.055C20.1408 9.1898 20.2615 7.97066 19.6803 6.96353C18.9133 5.63499 17.2148 5.18025 15.8864 5.9469C14.5581 6.714 14.103 8.4123 14.8699 9.74083C14.8949 9.78422 14.9209 9.82626 14.9478 9.86785Z" fill="white"/>
<path d="M21.8605 7.26729L21.3895 6.45182C27.2314 4.37472 33.8096 4.47146 39.7928 7.09778C39.8158 7.05258 39.84 7.00782 39.8656 6.96353C40.6325 5.63499 42.3311 5.18025 43.6594 5.9469C44.9879 6.714 45.4429 8.4123 44.6761 9.74083C44.0949 10.7475 42.9788 11.2529 41.8941 11.1046L38.5267 23.6716C38.7332 23.7607 38.9244 23.8882 39.089 24.05C39.2055 24.1648 39.3087 24.2968 39.3944 24.4451C39.9056 25.3306 39.6022 26.463 38.7167 26.9742C37.8311 27.4859 36.6987 27.1821 36.1874 26.2966C35.6762 25.4111 35.9796 24.2787 36.8651 23.7675C37.1003 23.6319 37.353 23.5537 37.6068 23.5283L41.0101 10.8271C40.9671 10.8049 40.9244 10.7819 40.8821 10.7575C39.8795 10.1784 39.3744 9.0691 39.5168 7.98829C33.7845 5.44243 27.4769 5.31495 21.8605 7.26729Z" fill="white"/>
<path d="M45.506 11.7772L45.9769 10.9618C50.9192 15.1585 53.9195 21.0295 54.6164 27.226C54.6668 27.2233 54.7177 27.2219 54.7688 27.2219C56.3026 27.2219 57.5461 28.465 57.5461 29.9992C57.5461 31.533 56.3026 32.7765 54.7688 32.7765C53.6065 32.7765 52.611 32.0628 52.1968 31.0493L39.6302 34.4165C39.6744 34.798 39.601 35.1963 39.3943 35.5543C38.883 36.4398 37.7505 36.7436 36.865 36.2319C35.9795 35.7206 35.676 34.5883 36.1873 33.7028C36.6985 32.8172 37.831 32.5139 38.7165 33.0252C38.9519 33.1612 39.1462 33.3407 39.2949 33.5482L51.9952 30.1448C51.9927 30.0964 51.9915 30.048 51.9915 29.9992C51.9915 28.8411 52.7003 27.8484 53.7077 27.4317C53.0644 21.4806 50.2156 15.8343 45.506 11.7772Z" fill="white"/>
<path d="M53.4233 34.5128H54.3653C53.8631 37.2503 52.8916 39.9499 51.4204 42.498C49.6384 45.5845 47.2973 48.1471 44.5991 50.132C44.6257 50.1731 44.6513 50.2147 44.6761 50.2576C45.4429 51.5857 44.9879 53.2845 43.6595 54.0511C42.3311 54.8182 40.6326 54.363 39.8656 53.0349C39.2845 52.0282 39.4051 50.8087 40.0757 49.9435L30.8766 40.7446C30.5685 40.9733 30.187 41.1084 29.7738 41.1084C28.7512 41.1084 27.9223 40.2794 27.9223 39.2569C27.9223 38.2344 28.7512 37.4054 29.7738 37.4054C30.7964 37.4054 31.6254 38.2344 31.6254 39.2569C31.6254 39.529 31.5667 39.7871 31.4613 40.0199L40.7583 49.3169C40.7987 49.2907 40.84 49.2654 40.8822 49.241C41.8867 48.661 43.1029 48.7799 43.9678 49.4467C46.6008 47.5273 48.8846 45.0384 50.6187 42.0351C52.0054 39.633 52.9311 37.0917 53.4233 34.5128Z" fill="white"/>
<path d="M37.6864 52.7325L38.1573 53.5484C32.3149 55.6251 25.7362 55.5288 19.7527 52.9016C19.7298 52.9463 19.7058 52.9906 19.6803 53.0349C18.9135 54.363 17.2148 54.8182 15.8865 54.0511C14.5581 53.2845 14.103 51.5857 14.8699 50.2576C15.4513 49.2505 16.5678 48.7451 17.6528 48.8938L21.0201 36.3277C20.6677 36.1754 20.3594 35.9123 20.1527 35.5543C19.6413 34.6687 19.9448 33.5364 20.8303 33.0252C21.716 32.5139 22.8483 32.8172 23.3596 33.7028C23.8709 34.5883 23.5675 35.7206 22.6818 36.2319C22.4466 36.3679 22.1939 36.4462 21.9399 36.4715L18.5369 49.1718C18.5796 49.1935 18.6219 49.2166 18.6638 49.241C19.6669 49.8201 20.1719 50.9303 20.029 52.0115C25.7616 54.5574 32.0696 54.6849 37.6864 52.7325Z" fill="white"/>
<path d="M14.0404 48.2221L13.5695 49.0376C8.62706 44.8404 5.6269 38.9699 4.93032 32.7725C4.87969 32.7752 4.82861 32.7765 4.7773 32.7765C3.24344 32.7765 2 31.533 2 29.9992C2 28.465 3.24344 27.2219 4.7773 27.2219C5.94016 27.2219 6.93611 27.9366 7.34983 28.9505L19.9165 25.5833C19.8722 25.2018 19.9457 24.8031 20.1525 24.4451C20.6638 23.5595 21.7962 23.2562 22.6817 23.7675C23.5674 24.2787 23.8708 25.4111 23.3594 26.2966C22.8482 27.1821 21.7158 27.4859 20.8302 26.9742C20.5951 26.8386 20.4011 26.6591 20.2524 26.4521L7.55099 29.855C7.55348 29.9025 7.55461 29.9509 7.55461 29.9992C7.55461 31.1569 6.84604 32.1491 5.83902 32.5663C6.48204 38.5178 9.33065 44.1651 14.0404 48.2221Z" fill="white"/>
</svg>
