<svg xmlns="http://www.w3.org/2000/svg" width="1em" height="1em" viewBox="0 0 16 16" fill="none">
<path d="M6.5 4C6.77614 4 7 3.77614 7 3.5C7 3.22386 6.77614 3 6.5 3V4ZM13 9.5C13 9.22386 12.7761 9 12.5 9C12.2239 9 12 9.22386 12 9.5H13ZM13.1001 6.13324C13.1001 6.40938 13.3239 6.63324 13.6001 6.63324C13.8762 6.63324 14.1001 6.40938 14.1001 6.13324H13.1001ZM13.6001 2.3999H14.1001C14.1001 2.12376 13.8762 1.8999 13.6001 1.8999V2.3999ZM9.86675 1.8999C9.5906 1.8999 9.36675 2.12376 9.36675 2.3999C9.36675 2.67604 9.5906 2.8999 9.86675 2.8999V1.8999ZM8.01986 7.27302C7.8246 7.46828 7.8246 7.78486 8.01986 7.98012C8.21512 8.17538 8.5317 8.17538 8.72697 7.98012L8.01986 7.27302ZM12 13H3V14H12V13ZM3 13V4H2V13H3ZM3 4H6.5V3H3V4ZM12 9.5V13H13V9.5H12ZM3 13H3H2C2 13.5523 2.44772 14 3 14V13ZM12 14C12.5523 14 13 13.5523 13 13H12V14ZM3 4V4V3C2.44772 3 2 3.44772 2 4H3ZM14.1001 6.13324V2.3999H13.1001V6.13324H14.1001ZM13.6001 1.8999H9.86675V2.8999H13.6001V1.8999ZM8.72697 7.98012L13.9536 2.75346L13.2465 2.04635L8.01986 7.27302L8.72697 7.98012Z" fill="#1A1A1A"/>
</svg>