<svg width="1em" height="1em" viewBox="0 0 60 60" fill="none" xmlns="http://www.w3.org/2000/svg">
<path fill-rule="evenodd" clip-rule="evenodd" d="M44.5157 3.56006L36.0833 23.9157L31.7717 25.7025L29.9861 21.3909L38.4185 1.03406L44.5157 3.56006ZM15.4617 56.4703L23.8941 36.1147L28.2057 34.3291L29.9913 38.6407L21.5601 58.9963L15.4617 56.4703ZM34.3082 31.7994L36.0938 36.111L56.4506 44.5422L58.9766 38.445L38.6198 30.0138L34.3082 31.7994ZM3.53918 15.4826L23.8948 23.9138L25.6804 28.2254L21.3688 30.0122L1.01318 21.5798L3.53918 15.4826Z" fill="#EC80FF"/>
<path fill-rule="evenodd" clip-rule="evenodd" d="M29.9913 21.3701L21.5601 1.01331L15.4617 3.53931L23.8932 23.8928L23.8923 23.8924L25.6779 28.204L27.4635 27.4648L28.2033 25.6807L28.2057 25.6817L29.9913 21.3701ZM38.606 30.0052L58.9628 21.5728L56.4368 15.4756L36.08 23.9068L36.0695 23.9323L31.7783 25.684L32.5092 27.4744L34.2911 28.2232L34.3806 28.0105L34.2944 28.2184L38.606 30.0052ZM21.3688 30L1.01318 38.4312L3.53918 44.5284L23.8948 36.0972L23.8954 36.0957L28.2039 34.3114L27.4635 32.5246L25.6801 31.7863L25.6804 31.7856L21.3688 30ZM31.7726 34.3018L32.5119 32.5177L34.2975 31.7785L36.0815 36.0863L36.0833 36.087L44.5157 56.4426L38.4185 58.9687L29.9861 38.613L31.7717 34.3014L31.7726 34.3018Z" fill="#875CFF"/>
</svg>
