<svg width="16" height="16" viewBox="0 0 16 16" fill="none" xmlns="http://www.w3.org/2000/svg">
<path d="M2.31701 10.0112L1.96068 9.66042L2.31701 10.0112ZM13.6345 9.70823L13.9908 9.35748L13.9908 9.35747L13.6345 9.70823ZM13.9327 10.0112L13.5764 10.362H13.5764L13.9327 10.0112ZM14.2098 11.3597L14.6844 11.5173L14.2098 11.3597ZM13.7291 11.8481L13.8911 12.3211L13.7291 11.8481ZM14.1062 10.2019L14.5145 9.91329L14.1062 10.2019ZM14.2397 10.5296L13.7461 10.6093L14.2397 10.5296ZM8.12492 1L8.12492 0.5L8.12492 1ZM2.01011 10.5296L2.50371 10.6093L2.01011 10.5296ZM2.14355 10.2019L1.73525 9.91328L2.14355 10.2019ZM2.04016 11.3597L2.51468 11.2022L2.04016 11.3597ZM2.52075 11.8481L2.68283 11.3751L2.52075 11.8481ZM10.4218 11.8889H10.9218C10.9218 11.6127 10.6979 11.3889 10.4218 11.3889V11.8889ZM5.82807 11.8889V11.3889C5.55193 11.3889 5.32807 11.6127 5.32807 11.8889H5.82807ZM2.67334 10.3619L2.97155 10.059L2.25889 9.35747L1.96068 9.66042L2.67334 10.3619ZM3.26561 9.33967V6.44444H2.26561V9.33967H3.26561ZM12.9842 6.44444V9.33965H13.9842V6.44444H12.9842ZM13.2782 10.059L13.5764 10.362L14.2891 9.66045L13.9908 9.35748L13.2782 10.059ZM13.167 11.3889H3.08263V12.3889H13.167V11.3889ZM13.75 10.789C13.75 11.1287 13.7436 11.1773 13.7353 11.2022L14.6844 11.5173C14.7564 11.3003 14.75 11.049 14.75 10.789H13.75ZM13.167 12.3889C13.4213 12.3889 13.6735 12.3957 13.8911 12.3211L13.567 11.3751C13.5686 11.3745 13.5528 11.3807 13.4853 11.3846C13.4143 11.3887 13.3203 11.3889 13.167 11.3889V12.3889ZM13.7353 11.2022C13.7074 11.2862 13.6437 11.3488 13.567 11.3751L13.8911 12.3211C14.2674 12.1921 14.5595 11.8935 14.6844 11.5173L13.7353 11.2022ZM13.5764 10.362C13.6794 10.4666 13.6905 10.48 13.6979 10.4905L14.5145 9.91329C14.4492 9.82079 14.3687 9.74134 14.2891 9.66045L13.5764 10.362ZM14.75 10.789C14.75 10.6728 14.7513 10.561 14.7333 10.4498L13.7461 10.6093C13.7484 10.6233 13.75 10.6427 13.75 10.789H14.75ZM13.6979 10.4905C13.7224 10.525 13.7391 10.5656 13.7461 10.6093L14.7333 10.4498C14.7022 10.2571 14.6277 10.0734 14.5145 9.91329L13.6979 10.4905ZM12.9842 9.33965C12.9842 9.60798 13.0891 9.86688 13.2782 10.059L13.9908 9.35747C13.9875 9.35407 13.9842 9.34779 13.9842 9.33965H12.9842ZM8.12492 1.5C10.8012 1.49999 12.9842 3.70624 12.9842 6.44444H13.9842C13.9842 3.16887 11.3683 0.499992 8.12492 0.5L8.12492 1.5ZM3.26561 6.44444C3.26561 3.70625 5.4486 1.50001 8.12492 1.5L8.12492 0.5C4.88152 0.500008 2.26561 3.16888 2.26561 6.44444H3.26561ZM2.97155 10.059C3.16044 9.86709 3.26561 9.60829 3.26561 9.33967H2.26561C2.26561 9.34753 2.26244 9.35386 2.25889 9.35747L2.97155 10.059ZM2.5 10.789C2.5 10.6417 2.50149 10.6231 2.50371 10.6093L1.51651 10.4498C1.49851 10.5612 1.5 10.6738 1.5 10.789H2.5ZM1.96068 9.66042C1.8808 9.74156 1.80058 9.82085 1.73525 9.91328L2.55186 10.4905C2.55932 10.4799 2.57054 10.4664 2.67334 10.3619L1.96068 9.66042ZM2.50371 10.6093C2.51079 10.5655 2.52753 10.5249 2.55186 10.4905L1.73525 9.91328C1.622 10.0735 1.54762 10.2572 1.51651 10.4498L2.50371 10.6093ZM1.5 10.789C1.5 11.049 1.49357 11.3003 1.56563 11.5173L2.51468 11.2022C2.50643 11.1773 2.5 11.1287 2.5 10.789H1.5ZM3.08263 11.3889C2.92933 11.3889 2.83538 11.3887 2.76439 11.3846C2.69699 11.3807 2.68124 11.3745 2.68283 11.3751L2.35867 12.3211C2.57635 12.3957 2.82829 12.3889 3.08263 12.3889V11.3889ZM1.56563 11.5173C1.69046 11.8932 1.98217 12.1921 2.35867 12.3211L2.68283 11.3751C2.60629 11.3488 2.54267 11.2864 2.51468 11.2022L1.56563 11.5173ZM9.92176 11.8889V12.6667H10.9218V11.8889H9.92176ZM6.32807 12.6667V11.8889H5.32807V12.6667H6.32807ZM5.82807 12.3889H10.4218V11.3889H5.82807V12.3889ZM8.12492 14.5C7.13995 14.5 6.32807 13.6866 6.32807 12.6667H5.32807C5.32807 14.224 6.57286 15.5 8.12492 15.5V14.5ZM9.92176 12.6667C9.92176 13.6866 9.10989 14.5 8.12492 14.5V15.5C9.67697 15.5 10.9218 14.224 10.9218 12.6667H9.92176Z" fill="#1A1A1A"/>
</svg>
