<svg xmlns="http://www.w3.org/2000/svg" width="1em" height="1em" viewBox="0 0 32 32" fill="none">
<path d="M24.0956 18.4403L24.6226 17.9067L24.6226 17.9067L24.0956 18.4403ZM24.5338 18.8731L24.0068 19.4067V19.4067L24.5338 18.8731ZM24.941 20.7996L25.6507 21.042L24.941 20.7996ZM24.2345 21.4972L24.4716 22.2088L24.2345 21.4972ZM24.7888 19.1455L25.3954 18.7045L24.7888 19.1455ZM24.9849 19.6137L24.2451 19.7366L24.9849 19.6137ZM15.9999 6L15.9999 5.25L15.9999 6ZM7.01485 19.6137L7.75471 19.7366L7.01485 19.6137ZM7.21093 19.1455L6.60431 18.7045L7.21093 19.1455ZM7.05901 20.7996L7.76876 20.5572L7.05901 20.7996ZM7.76519 21.4972L8.00224 20.7857L7.76519 21.4972ZM19.3748 21.5556H20.1248C20.1248 21.1413 19.7891 20.8056 19.3748 20.8056V21.5556ZM12.6249 21.5556V20.8056C12.2107 20.8056 11.8749 21.1413 11.8749 21.5556H12.6249ZM7.99284 19.4067L8.43103 18.9739L7.37697 17.9067L6.93878 18.3395L7.99284 19.4067ZM8.87499 17.9138V13.7778H7.37499V17.9138H8.87499ZM23.1248 13.7778V17.9138H24.6248V13.7778H23.1248ZM23.5686 18.9739L24.0068 19.4067L25.0609 18.3395L24.6226 17.9067L23.5686 18.9739ZM23.4086 20.8056H8.5908V22.3056H23.4086V20.8056ZM24.25 19.9842C24.25 20.207 24.2497 20.3426 24.2439 20.4449C24.2383 20.5418 24.2295 20.5623 24.2312 20.5572L25.6507 21.042C25.7601 20.7217 25.75 20.3514 25.75 19.9842H24.25ZM23.4086 22.3056C23.7825 22.3056 24.1521 22.3152 24.4716 22.2088L23.9975 20.7857C23.9998 20.7849 23.9763 20.7939 23.8767 20.7994C23.7721 20.8053 23.6338 20.8056 23.4086 20.8056V22.3056ZM24.2312 20.5572C24.1956 20.6616 24.1109 20.7479 23.9975 20.7857L24.4716 22.2088C25.0238 22.0248 25.4618 21.5951 25.6507 21.042L24.2312 20.5572ZM24.0068 19.4067C24.159 19.5571 24.1732 19.5742 24.1821 19.5866L25.3954 18.7045C25.2974 18.5697 25.177 18.4543 25.0609 18.3395L24.0068 19.4067ZM25.75 19.9842C25.75 19.82 25.7521 19.655 25.7248 19.4908L24.2451 19.7366C24.2475 19.7511 24.25 19.7736 24.25 19.9842H25.75ZM24.1821 19.5866C24.2147 19.6314 24.2361 19.6827 24.2451 19.7366L25.7248 19.4908C25.6776 19.2069 25.5649 18.9377 25.3954 18.7045L24.1821 19.5866ZM23.1248 17.9138C23.1248 18.3132 23.2855 18.6944 23.5686 18.9739L24.6226 17.9067C24.6226 17.9067 24.6227 17.9068 24.6228 17.9069C24.6228 17.9069 24.6229 17.9071 24.6231 17.9073C24.6233 17.9076 24.6236 17.9081 24.6238 17.9087C24.6243 17.9099 24.6248 17.9117 24.6248 17.9138H23.1248ZM15.9999 6.75C19.9437 6.74999 23.1248 9.90518 23.1248 13.7778H24.6248C24.6248 9.05926 20.7545 5.24999 15.9999 5.25L15.9999 6.75ZM8.87499 13.7778C8.87499 9.9052 12.0561 6.75001 15.9999 6.75L15.9999 5.25C11.2453 5.25001 7.37499 9.05928 7.37499 13.7778H8.87499ZM8.43103 18.9739C8.71375 18.6947 8.87499 18.3137 8.87499 17.9138H7.37499C7.37499 17.9089 7.37702 17.9067 7.37697 17.9067L8.43103 18.9739ZM7.75 19.9843C7.75 19.7721 7.75236 19.7507 7.75471 19.7366L6.27499 19.4908C6.24764 19.6554 6.25 19.8215 6.25 19.9843H7.75ZM6.93878 18.3395C6.82222 18.4546 6.70223 18.5698 6.60431 18.7045L7.81756 19.5866C7.8266 19.5741 7.84098 19.5567 7.99284 19.4067L6.93878 18.3395ZM7.75471 19.7366C7.76371 19.6824 7.78513 19.6312 7.81756 19.5866L6.60431 18.7045C6.43459 18.938 6.32212 19.2071 6.27499 19.4908L7.75471 19.7366ZM6.25 19.9843C6.25 20.3515 6.23986 20.7217 6.34926 21.042L7.76876 20.5572C7.77049 20.5623 7.7617 20.5417 7.75615 20.4449C7.75029 20.3426 7.75 20.207 7.75 19.9843H6.25ZM8.5908 20.8056C8.36561 20.8056 8.22737 20.8053 8.12287 20.7994C8.02348 20.7939 8.00001 20.7849 8.00224 20.7857L7.52814 22.2088C7.84757 22.3152 8.21685 22.3056 8.5908 22.3056V20.8056ZM6.34926 21.042C6.53803 21.5947 6.97554 22.0247 7.52814 22.2088L8.00224 20.7857C7.88914 20.748 7.80453 20.6619 7.76876 20.5572L6.34926 21.042ZM18.6248 21.5556V22.6667H20.1248V21.5556H18.6248ZM13.3749 22.6667V21.5556H11.8749V22.6667H13.3749ZM12.6249 22.3056H19.3748V20.8056H12.6249V22.3056ZM15.9999 25.25C14.5414 25.25 13.3749 24.0847 13.3749 22.6667H11.8749C11.8749 24.9306 13.7305 26.75 15.9999 26.75V25.25ZM18.6248 22.6667C18.6248 24.0847 17.4584 25.25 15.9999 25.25V26.75C18.2692 26.75 20.1248 24.9306 20.1248 22.6667H18.6248Z" fill="#1A1A1A"/>
</svg>