<svg width="16" height="16" viewBox="0 0 16 16" fill="none" xmlns="http://www.w3.org/2000/svg">
<path d="M3.36997 7.66367C3.18422 7.45934 2.868 7.44428 2.66367 7.63003C2.45934 7.81578 2.44427 8.132 2.63003 8.33633L3.36997 7.66367ZM6.18173 11.5L5.81175 11.8363C5.90651 11.9406 6.04085 12 6.18172 12C6.32259 12 6.45693 11.9406 6.55169 11.8363L6.18173 11.5ZM13.37 4.33634C13.5557 4.13201 13.5407 3.81579 13.3363 3.63003C13.132 3.44428 12.8158 3.45933 12.63 3.66366L13.37 4.33634ZM2.63003 8.33633L5.81175 11.8363L6.5517 11.1637L3.36997 7.66367L2.63003 8.33633ZM6.55169 11.8363L13.37 4.33634L12.63 3.66366L5.81176 11.1637L6.55169 11.8363Z" fill="#1A1A1A"/>
</svg>
