<svg width="24" height="24" viewBox="0 0 24 24" fill="none" xmlns="http://www.w3.org/2000/svg">
<path d="M3 11.5C2.72386 11.5 2.5 11.7239 2.5 12C2.5 12.2761 2.72386 12.5 3 12.5V11.5ZM21 12L21.3536 12.3536C21.5488 12.1583 21.5488 11.8417 21.3536 11.6464L21 12ZM16.3536 6.64645C16.1583 6.45118 15.8417 6.45118 15.6464 6.64645C15.4512 6.84171 15.4512 7.15829 15.6464 7.35355L16.3536 6.64645ZM15.6464 16.6464C15.4512 16.8417 15.4512 17.1583 15.6464 17.3536C15.8417 17.5488 16.1583 17.5488 16.3536 17.3536L15.6464 16.6464ZM3 12.5H21V11.5H3V12.5ZM21.3536 11.6464L16.3536 6.64645L15.6464 7.35355L20.6464 12.3536L21.3536 11.6464ZM20.6464 11.6464L15.6464 16.6464L16.3536 17.3536L21.3536 12.3536L20.6464 11.6464Z" fill="#1A1A1A"/>
</svg>
