<svg width="16" height="16" viewBox="0 0 16 16" fill="none" xmlns="http://www.w3.org/2000/svg">
<path d="M5.40349 13.3742C10.6864 13.3742 13.5755 8.99787 13.5755 5.20221C13.5755 5.07805 13.5755 4.95455 13.5671 4.83104C14.1295 4.42461 14.6148 3.92095 15 3.34382C14.4759 3.57631 13.9198 3.72889 13.3505 3.79645C13.9503 3.43753 14.3993 2.87293 14.614 2.2077C14.0496 2.54184 13.4326 2.77755 12.7892 2.90476C12.3561 2.44451 11.7834 2.13979 11.1597 2.03773C10.5361 1.93568 9.89612 2.04199 9.33893 2.3402C8.78173 2.63842 8.33833 3.11193 8.0773 3.68749C7.81628 4.26304 7.75218 4.90857 7.89492 5.52422C6.75294 5.467 5.63575 5.17025 4.61589 4.65325C3.59603 4.13625 2.6963 3.41054 1.97511 2.52325C1.60752 3.15552 1.49485 3.90416 1.66005 4.61662C1.82524 5.32907 2.25588 5.95173 2.86421 6.35772C2.40804 6.34362 1.96189 6.22033 1.56321 5.9982C1.56321 6.00984 1.56321 6.02212 1.56321 6.03505C1.56329 6.69794 1.79261 7.3404 2.21227 7.85352C2.63194 8.36664 3.21614 8.71885 3.86583 8.85044C3.44287 8.96561 2.99916 8.98242 2.5687 8.89959C2.7523 9.47029 3.10965 9.96935 3.59078 10.327C4.07191 10.6847 4.65278 10.8831 5.25218 10.8944C4.2346 11.6927 2.97808 12.1254 1.68477 12.123C1.45593 12.1231 1.22727 12.1097 1 12.0829C2.31315 12.9266 3.84139 13.3744 5.4022 13.3729" fill="#1DA1F2"/>
</svg>
