<svg width="24" height="24" viewBox="0 0 24 24" fill="none" xmlns="http://www.w3.org/2000/svg">
    <path d="M3.89927 13.7789L4.25843 13.431L3.89927 13.7789ZM3.89927 10.2211L3.5401 9.87326L3.5401 9.87326L3.89927 10.2211ZM20.1006 10.2211L19.7414 10.569L20.1006 10.2211ZM20.1006 13.7789L20.4597 14.1267L20.1006 13.7789ZM20.923 11.3798L21.4 11.2299L20.923 11.3798ZM20.923 12.6202L21.4 12.7701L20.923 12.6202ZM3.07699 12.6202L2.59997 12.7701L3.07699 12.6202ZM3.07699 11.3798L3.55402 11.5296L3.07699 11.3798ZM12.0001 17.5C8.82077 17.5 5.96018 15.1881 4.25843 13.431L3.5401 14.1267C5.265 15.9077 8.3804 18.5 12.0001 18.5V17.5ZM4.25843 10.569C5.96018 8.81188 8.82077 6.5 12.0001 6.5V5.5C8.3804 5.5 5.265 8.09228 3.5401 9.87326L4.25843 10.569ZM12.0001 6.5C15.1793 6.5 18.0396 8.81187 19.7414 10.569L20.4597 9.87325C18.7349 8.0923 15.6197 5.5 12.0001 5.5V6.5ZM19.7414 13.431C18.0396 15.1881 15.1793 17.5 12.0001 17.5V18.5C15.6197 18.5 18.7349 15.9077 20.4597 14.1267L19.7414 13.431ZM19.7414 10.569C20.2031 11.0456 20.3425 11.2003 20.446 11.5296L21.4 11.2299C21.2156 10.6428 20.9025 10.3304 20.4597 9.87325L19.7414 10.569ZM20.4597 14.1267C20.9025 13.6696 21.2156 13.3572 21.4 12.7701L20.446 12.4704C20.3425 12.7997 20.2031 12.9543 19.7414 13.431L20.4597 14.1267ZM20.446 11.5296C20.4763 11.6262 20.5 11.7987 20.5 12C20.5 12.2012 20.4763 12.3738 20.446 12.4704L21.4 12.7701C21.4723 12.5398 21.5 12.2556 21.5 12C21.5 11.7444 21.4723 11.4602 21.4 11.2299L20.446 11.5296ZM4.25843 13.431C3.79686 12.9544 3.65747 12.7998 3.55402 12.4704L2.59997 12.7701C2.78439 13.3572 3.09725 13.6695 3.5401 14.1267L4.25843 13.431ZM3.5401 9.87326C3.09724 10.3305 2.78438 10.6428 2.59997 11.2299L3.55402 11.5296C3.65747 11.2002 3.79686 11.0455 4.25843 10.569L3.5401 9.87326ZM3.55402 12.4704C3.52367 12.3738 3.5 12.2012 3.5 12C3.5 11.7987 3.52367 11.6262 3.55402 11.5296L2.59997 11.2299C2.52765 11.4602 2.5 11.7444 2.5 12C2.5 12.2556 2.52765 12.5398 2.59997 12.7701L3.55402 12.4704Z" fill="#1A1A1A"/>
    <path d="M12 13.5C11.1716 13.5 10.5 12.8284 10.5 12H9.5C9.5 13.3807 10.6193 14.5 12 14.5V13.5ZM10.5 12C10.5 11.1716 11.1716 10.5 12 10.5V9.5C10.6193 9.5 9.5 10.6193 9.5 12H10.5ZM12 10.5C12.8284 10.5 13.5 11.1716 13.5 12H14.5C14.5 10.6193 13.3807 9.5 12 9.5V10.5ZM13.5 12C13.5 12.8284 12.8284 13.5 12 13.5V14.5C13.3807 14.5 14.5 13.3807 14.5 12H13.5Z" fill="#1A1A1A"/>
</svg>