<svg width="24" height="24" viewBox="0 0 24 24" fill="none" xmlns="http://www.w3.org/2000/svg">
<path d="M8.008 18C9.344 18 10 17.168 10 16V12H8.5V15C8.5 15.776 8.5 16.5 8.008 16.5C7 16.5 7 16 7 15.5H6C6 16.5 6.008 18 8.008 18Z" fill="#1A1A1A"/>
<path d="M4.15976 21H5V20H4.15976C4.04262 20 4 19.9156 4 19.875V4.125C4 4.08443 4.04262 4 4.15976 4H12.9424L13 4.05726V6C13 6.55228 13.4477 7 14 7H15.959L16 7.04082V10H17V7L13 3H4.15976C3.51924 3 3 3.50368 3 4.125V19.875C3 20.4963 3.51924 21 4.15976 21Z" fill="#1A1A1A"/>
<path d="M11 18H12.5V16H13C15 16 15.5 15.416 15.5 14C15.5 13.016 15 12 13 12H11V18ZM12.5 15V13H13C13.688 13 14 13.4 14 14C14 14.584 13.696 15 13 15H12.5Z" fill="#1A1A1A"/>
<path d="M19.016 18C19.848 18 20.584 17.672 21 17.272V15H19V16H19.728V16.616C19.6 16.712 19.376 16.768 19.168 16.768C18.056 16.768 17.5 16 17.5 15C17.5 14 18.12 13.5 19 13.5C19.496 13.5 19.928 13.6975 20 14L21 13C21 13 20.5 12 19 12C17.5 12 16 13.016 16 15C16 17.016 17.368 18 19.016 18Z" fill="#1A1A1A"/>
</svg>
