<svg width="1em" height="1em" viewBox="0 0 24 24" fill="none" xmlns="http://www.w3.org/2000/svg">
<path d="M19.3536 8.35355C19.5488 8.15829 19.5488 7.84171 19.3536 7.64645C19.1583 7.45118 18.8417 7.45118 18.6464 7.64645L19.3536 8.35355ZM12 15L11.6464 15.3536C11.8417 15.5488 12.1583 15.5488 12.3536 15.3536L12 15ZM5.35355 7.64645C5.15829 7.45118 4.84171 7.45118 4.64645 7.64645C4.45118 7.84171 4.45118 8.15829 4.64645 8.35355L5.35355 7.64645ZM18.6464 7.64645L11.6464 14.6464L12.3536 15.3536L19.3536 8.35355L18.6464 7.64645ZM12.3536 14.6464L5.35355 7.64645L4.64645 8.35355L11.6464 15.3536L12.3536 14.6464Z" fill="white"/>
</svg>
