<svg width="24" height="24" viewBox="0 0 24 24" fill="none" xmlns="http://www.w3.org/2000/svg">
    <path fill-rule="evenodd" clip-rule="evenodd" d="M9.5 5.75C7.93519 5.75 6.66667 7.01853 6.66667 8.58333C6.66667 10.1481 7.93519 11.4167 9.5 11.4167C11.0648 11.4167 12.3333 10.1481 12.3333 8.58333C12.3333 7.01853 11.0648 5.75 9.5 5.75ZM5.66667 8.58333C5.66667 6.46624 7.38291 4.75 9.5 4.75C11.6171 4.75 13.3333 6.46624 13.3333 8.58333C13.3333 10.7004 11.6171 12.4167 9.5 12.4167C7.38291 12.4167 5.66667 10.7004 5.66667 8.58333ZM14 5.25C14 4.97386 14.2239 4.75 14.5 4.75C16.6171 4.75 18.3333 6.46624 18.3333 8.58333C18.3333 10.7004 16.6171 12.4167 14.5 12.4167C14.2239 12.4167 14 12.1928 14 11.9167C14 11.6405 14.2239 11.4167 14.5 11.4167C16.0648 11.4167 17.3333 10.1481 17.3333 8.58333C17.3333 7.01853 16.0648 5.75 14.5 5.75C14.2239 5.75 14 5.52614 14 5.25ZM5.68712 14.977C6.68482 14.3118 8.03434 13.9167 9.5 13.9167C10.9657 13.9167 12.3152 14.3118 13.3129 14.977C14.3071 15.6398 15 16.6103 15 17.75C15 18.0261 14.7761 18.25 14.5 18.25C14.2239 18.25 14 18.0261 14 17.75C14 17.0487 13.5736 16.3526 12.7582 15.809C11.9462 15.2677 10.7958 14.9167 9.5 14.9167C8.20423 14.9167 7.05375 15.2677 6.24182 15.809C5.42639 16.3526 5 17.0487 5 17.75C5 18.0261 4.77614 18.25 4.5 18.25C4.22386 18.25 4 18.0261 4 17.75C4 16.6103 4.6929 15.6398 5.68712 14.977ZM15.68 14.4916C15.7433 14.2228 16.0126 14.0563 16.2813 14.1196C18.31 14.5976 20 15.9491 20 17.7499C20 18.0261 19.7761 18.2499 19.5 18.2499C19.2239 18.2499 19 18.0261 19 17.7499C19 16.6481 17.9073 15.5301 16.052 15.093C15.7832 15.0296 15.6167 14.7604 15.68 14.4916Z" fill="#1A1A1A"/>
</svg>