<svg xmlns="http://www.w3.org/2000/svg" width="32" height="32" viewBox="0 0 32 32" fill="none">
<path d="M6 16.75H26V15.25H6V16.75ZM16 25.25C10.8914 25.25 6.75 21.1086 6.75 16H5.25C5.25 21.9371 10.0629 26.75 16 26.75V25.25ZM6.75 16C6.75 10.8914 10.8914 6.75 16 6.75V5.25C10.0629 5.25 5.25 10.0629 5.25 16H6.75ZM16 6.75C21.1086 6.75 25.25 10.8914 25.25 16H26.75C26.75 10.0629 21.9371 5.25 16 5.25V6.75ZM25.25 16C25.25 21.1086 21.1086 25.25 16 25.25V26.75C21.9371 26.75 26.75 21.9371 26.75 16H25.25ZM16 25.25C15.6304 25.25 15.2218 25.0846 14.7871 24.6709C14.3485 24.2534 13.9193 23.614 13.5427 22.7665C12.7901 21.0733 12.3056 18.6816 12.3056 16H10.8056C10.8056 18.8412 11.3159 21.4496 12.1719 23.3757C12.5995 24.3378 13.1281 25.1628 13.753 25.7574C14.3817 26.3558 15.1423 26.75 16 26.75V25.25ZM12.3056 16C12.3056 13.3184 12.7901 10.9267 13.5427 9.23354C13.9193 8.386 14.3485 7.74655 14.7871 7.32915C15.2218 6.91542 15.6304 6.75 16 6.75V5.25C15.1423 5.25 14.3817 5.64423 13.753 6.24255C13.1281 6.8372 12.5995 7.66222 12.1719 8.62433C11.3159 10.5504 10.8056 13.1588 10.8056 16H12.3056ZM16 6.75C16.3696 6.75 16.7782 6.91542 17.2129 7.32915C17.6515 7.74655 18.0807 8.386 18.4573 9.23354C19.2099 10.9267 19.6944 13.3184 19.6944 16H21.1944C21.1944 13.1588 20.6841 10.5504 19.8281 8.62433C19.4005 7.66222 18.8719 6.8372 18.247 6.24255C17.6183 5.64423 16.8577 5.25 16 5.25V6.75ZM19.6944 16C19.6944 18.6816 19.2099 21.0733 18.4573 22.7665C18.0807 23.614 17.6515 24.2534 17.2129 24.6709C16.7782 25.0846 16.3696 25.25 16 25.25V26.75C16.8577 26.75 17.6183 26.3558 18.247 25.7574C18.8719 25.1628 19.4005 24.3378 19.8281 23.3757C20.6841 21.4496 21.1944 18.8412 21.1944 16H19.6944Z" fill="#1A1A1A"/>
</svg>