<svg width="17" height="16" viewBox="0 0 17 16" fill="none" xmlns="http://www.w3.org/2000/svg">
<path d="M10.5587 5.02941C10.2825 5.02941 10.0587 5.25327 10.0587 5.52941C10.0587 5.80556 10.2825 6.02941 10.5587 6.02941V5.02941ZM14.0881 5.52941V6.02941C14.3642 6.02941 14.5881 5.80556 14.5881 5.52941H14.0881ZM14.5881 2C14.5881 1.72386 14.3642 1.5 14.0881 1.5C13.812 1.5 13.5881 1.72386 13.5881 2H14.5881ZM14.3022 11.7009C14.4526 11.4693 14.3868 11.1596 14.1552 11.0092C13.9236 10.8588 13.6139 10.9246 13.4635 11.1562L14.3022 11.7009ZM7.5997 13.7839L7.73668 13.3031H7.73668L7.5997 13.7839ZM4.5353 5.09375L4.12698 4.80518L4.5353 5.09375ZM7.37374 2.99148L7.21674 2.51677L7.37374 2.99148ZM13.3425 5.37137C13.5025 5.59646 13.8146 5.64926 14.0397 5.48929C14.2648 5.32933 14.3176 5.01718 14.1577 4.79209L13.3425 5.37137ZM10.5587 6.02941H14.0881V5.02941H10.5587V6.02941ZM14.5881 5.52941V2H13.5881V5.52941H14.5881ZM13.4635 11.1562C12.864 12.0794 11.9843 12.7861 10.9536 13.1725L11.3046 14.1089C12.5356 13.6474 13.5862 12.8034 14.3022 11.7009L13.4635 11.1562ZM10.9536 13.1725C9.92289 13.5589 8.79535 13.6046 7.73668 13.3031L7.46272 14.2648C8.72705 14.625 10.0736 14.5703 11.3046 14.1089L10.9536 13.1725ZM7.73668 13.3031C6.67805 13.0015 5.74416 12.3685 5.07175 11.497L4.27999 12.1078C5.08301 13.1487 6.19836 13.9047 7.46272 14.2648L7.73668 13.3031ZM5.07175 11.497C4.39938 10.6255 4.02418 9.56129 4.00113 8.46074L3.00135 8.48168C3.02888 9.796 3.47695 11.0669 4.27999 12.1078L5.07175 11.497ZM4.00113 8.46074C3.97808 7.36017 4.30834 6.28123 4.94362 5.38232L4.12698 4.80518C3.36822 5.8788 2.97382 7.16738 3.00135 8.48168L4.00113 8.46074ZM4.94362 5.38232C5.57893 4.48339 6.48564 3.81183 7.53074 3.4662L7.21674 2.51677C5.96859 2.92956 4.88571 3.7316 4.12698 4.80518L4.94362 5.38232ZM7.53074 3.4662C8.57584 3.12056 9.70442 3.11908 10.7504 3.46198L11.0619 2.51173C9.8127 2.10222 8.46489 2.10399 7.21674 2.51677L7.53074 3.4662ZM10.7504 3.46198C11.7964 3.80487 12.7049 4.47409 13.3425 5.37137L14.1577 4.79209C13.3961 3.7205 12.3112 2.92126 11.0619 2.51173L10.7504 3.46198Z" fill="#1A1A1A"/>
</svg>
