<svg width="1em" height="1em" viewBox="0 0 64 65" fill="none" xmlns="http://www.w3.org/2000/svg">
<path opacity="0.3" fill-rule="evenodd" clip-rule="evenodd" d="M9.90909 15.3182C7.19787 15.3182 5 13.1203 5 10.4091C5 7.69787 7.19787 5.5 9.90909 5.5C12.6203 5.5 14.8182 7.69787 14.8182 10.4091C14.8182 11.3188 14.5707 12.1707 14.1395 12.9012L24.4973 23.2591V15.3163C21.8493 15.244 19.7248 13.0746 19.7248 10.4091C19.7248 7.69787 21.9227 5.5 24.6339 5.5C27.3451 5.5 29.543 7.69787 29.543 10.4091C29.543 12.7454 27.9109 14.7006 25.7246 15.1966V24.4863L26.2383 25H38.709L39.2239 24.4851V15.3163C36.5767 15.243 34.4532 13.074 34.4532 10.4091C34.4532 7.69787 36.6511 5.5 39.3623 5.5C42.0735 5.5 44.2714 7.69787 44.2714 10.4091C44.2714 12.7461 42.6384 14.7017 40.4512 15.197V23.2578L50.2466 13.4624C49.5801 12.6242 49.1818 11.5632 49.1818 10.4091C49.1818 7.69787 51.3797 5.5 54.0909 5.5C56.8021 5.5 59 7.69787 59 10.4091C59 13.1203 56.8021 15.3182 54.0909 15.3182C52.9761 15.3182 51.9482 14.9466 51.1241 14.3206L40.4512 24.9934V25H49.1837C49.2555 22.3515 51.4251 20.2266 54.0909 20.2266C56.8021 20.2266 59 22.4244 59 25.1357C59 27.8469 56.8021 30.0447 54.0909 30.0447C51.7549 30.0447 49.8 28.4131 49.3036 26.2273H40.4512V38.5H49.3733C49.9637 36.4515 51.8523 34.9531 54.0909 34.9531C56.8021 34.9531 59 37.151 59 39.8622C59 42.5734 56.8021 44.7713 54.0909 44.7713C51.3797 44.7713 49.1818 42.5734 49.1818 39.8622C49.1818 39.8171 49.1824 39.7721 49.1836 39.7273H40.9656L51.5975 50.3592C52.3282 49.9274 53.1806 49.6797 54.0909 49.6797C56.8021 49.6797 59 51.8776 59 54.5888C59 57.3 56.8021 59.4979 54.0909 59.4979C51.3797 59.4979 49.1818 57.3 49.1818 54.5888C49.1818 53.233 49.7314 52.0057 50.6199 51.1173L40.4512 40.9485V49.8008C42.6384 50.2961 44.2715 52.2517 44.2715 54.5888C44.2715 57.3 42.0736 59.4979 39.3624 59.4979C36.6512 59.4979 34.4533 57.3 34.4533 54.5888C34.4533 51.9239 36.5767 49.7549 39.2239 49.6816V39.7273H25.7246V49.8013C27.9109 50.2973 29.543 52.2524 29.543 54.5888C29.543 57.3 27.3451 59.4979 24.6339 59.4979C21.9227 59.4979 19.7248 57.3 19.7248 54.5888C19.7248 51.9232 21.8493 49.7539 24.4973 49.6815V40.9473L13.8216 51.623C14.4471 52.4469 14.8184 53.4745 14.8184 54.5888C14.8184 57.3 12.6205 59.4979 9.90927 59.4979C7.19805 59.4979 5.00018 57.3 5.00018 54.5888C5.00018 51.8776 7.19805 49.6797 9.90927 49.6797C11.0638 49.6797 12.1253 50.0783 12.9636 50.7454L23.9817 39.7273H14.8165C14.8178 39.7721 14.8184 39.8171 14.8184 39.8622C14.8184 42.5734 12.6205 44.7713 9.90927 44.7713C7.19805 44.7713 5.00018 42.5734 5.00018 39.8622C5.00018 37.151 7.19805 34.9531 9.90927 34.9531C12.1478 34.9531 14.0364 36.4515 14.6269 38.5H24.4973V26.2273H14.6966C14.2002 28.4131 12.2453 30.0447 9.90927 30.0447C7.19805 30.0447 5.00018 27.8469 5.00018 25.1357C5.00018 22.4244 7.19805 20.2266 9.90927 20.2266C12.5751 20.2266 14.7447 22.3515 14.8165 25H24.4973V24.9947L13.3817 13.879C12.4932 14.7682 11.2654 15.3182 9.90909 15.3182ZM32.4736 32.971L26.9446 38.5H38.0027L32.4736 32.971ZM39.2239 37.9856V26.2273H39.2173L33.3414 32.1032L39.2239 37.9856ZM31.6058 32.1032L25.7246 37.9844V26.2273H25.7299L31.6058 32.1032ZM37.4817 26.2273H27.4656L32.4736 31.2354L37.4817 26.2273Z" fill="#2B67C0"/>
<circle cx="31.8601" cy="32.3665" r="12.2727" transform="rotate(90 31.8601 32.3665)" fill="#2B67C0"/>
</svg>
