<svg width="1em" height="1em" viewBox="0 0 64 65" fill="none" xmlns="http://www.w3.org/2000/svg">
<g clip-path="url(#clip0_1661_40520)">
<path d="M17.9306 10.5142V33.1633C17.9306 33.1633 17.596 41.62 8.83341 41.62C0.0708155 41.62 0.0073597 32.7713 0.0073597 32.7713C0.0073597 32.7713 -0.869478 11.8285 17.9306 10.5142Z" fill="#3688D3"/>
<path d="M10.1318 46.583H32.7969C32.7969 46.583 41.2595 46.9174 41.2595 55.6738C41.2595 64.4303 32.4104 64.4937 32.4104 64.4937C32.4104 64.4937 11.4529 65.3699 10.1318 46.583Z" fill="#3688D3"/>
<path d="M46.0703 54.4921V31.8429C46.0703 31.8429 46.4049 23.3862 55.1675 23.3862C63.9301 23.3862 63.9935 32.2292 63.9935 32.2292C63.9935 32.2292 64.8704 53.172 46.0703 54.4921Z" fill="#3688D3"/>
<path d="M53.985 18.417H31.3142C31.3142 18.417 22.8516 18.0827 22.8516 9.32624C22.8516 0.56979 31.7007 0.506379 31.7007 0.506379C31.7007 0.506379 52.6582 -0.369844 53.9793 18.417H53.985Z" fill="#3688D3"/>
</g>
<defs>
<clipPath id="clip0_1661_40520">
<rect width="63.9988" height="64" fill="white" transform="translate(0.000976562 0.5)"/>
</clipPath>
</defs>
</svg>
