<svg width="1em" height="1em" viewBox="0 0 64 65" fill="none" xmlns="http://www.w3.org/2000/svg">
<path d="M46.7273 30.0455C39.9492 30.0455 34.4545 24.5508 34.4545 17.7727C34.4545 10.9947 39.9492 5.5 46.7273 5.5C53.5053 5.5 59 10.9947 59 17.7727C59 24.5508 53.5053 30.0455 46.7273 30.0455Z" fill="#2BC09D"/>
<path d="M46.7273 59.5C39.9492 59.5 34.4545 54.0053 34.4545 47.2273C34.4545 40.4492 39.9492 34.9545 46.7273 34.9545C53.5053 34.9545 59 40.4492 59 47.2273C59 54.0053 53.5053 59.5 46.7273 59.5Z" fill="#2BC09D"/>
<path d="M17.2727 30.0455C10.4947 30.0455 5 24.5508 5 17.7727C5 10.9947 10.4947 5.5 17.2727 5.5C24.0508 5.5 29.5455 10.9947 29.5455 17.7727C29.5455 24.5508 24.0508 30.0455 17.2727 30.0455Z" fill="#2BC09D"/>
<path d="M23.4091 30.0455C20.0201 30.0455 17.2727 27.2981 17.2727 23.9091C17.2727 20.5201 20.0201 17.7727 23.4091 17.7727C26.7981 17.7727 29.5455 20.5201 29.5455 23.9091C29.5455 27.2981 26.7981 30.0455 23.4091 30.0455Z" fill="#2BC09D"/>
<path d="M40.5909 30.0455C37.2019 30.0455 34.4545 27.2981 34.4545 23.9091C34.4545 20.5201 37.2019 17.7727 40.5909 17.7727C43.9799 17.7727 46.7273 20.5201 46.7273 23.9091C46.7273 27.2981 43.9799 30.0455 40.5909 30.0455Z" fill="#2BC09D"/>
<path d="M40.5909 47.2273C37.2019 47.2273 34.4545 44.4799 34.4545 41.0909C34.4545 37.7019 37.2019 34.9545 40.5909 34.9545C43.9799 34.9545 46.7273 37.7019 46.7273 41.0909C46.7273 44.4799 43.9799 47.2273 40.5909 47.2273Z" fill="#2BC09D"/>
<path d="M23.4091 47.2273C20.0201 47.2273 17.2727 44.4799 17.2727 41.0909C17.2727 37.7019 20.0201 34.9545 23.4091 34.9545C26.7981 34.9545 29.5455 37.7019 29.5455 41.0909C29.5455 44.4799 26.7981 47.2273 23.4091 47.2273Z" fill="#2BC09D"/>
<path d="M17.2727 59.5C10.4947 59.5 5 54.0053 5 47.2273C5 40.4492 10.4947 34.9545 17.2727 34.9545C24.0508 34.9545 29.5455 40.4492 29.5455 47.2273C29.5455 54.0053 24.0508 59.5 17.2727 59.5Z" fill="#2BC09D"/>
</svg>
