<svg width="1em" height="1em" viewBox="0 0 66 65" fill="none" xmlns="http://www.w3.org/2000/svg">
<path d="M24.3033 26.6415L24.9469 9.72718L21.5072 2.63037C14.8231 5.20457 9.2176 9.95353 5.56934 16.0118L11.206 22.0922L24.3033 26.6415Z" fill="#9559E9"/>
<path d="M22.7101 34.5107L11.2061 22.0968L3.75866 19.5093C1.98778 23.4815 0.998047 27.8754 0.998047 32.5001C0.998047 35.172 1.33092 37.7639 1.94784 40.2405L10.2341 40.5556L22.7101 34.5107Z" fill="#9559E9"/>
<path d="M27.1439 41.1992L10.2296 40.5557L3.13281 43.9953C5.70702 50.6794 10.456 56.2849 16.5142 59.9332L22.5947 54.2966L27.1439 41.1992Z" fill="#9559E9"/>
<path d="M35.0131 42.792L22.5992 54.2961L20.0117 61.7435C23.984 63.5099 28.3779 64.4997 33.0026 64.4997C35.6744 64.4997 38.2664 64.1668 40.7429 63.5499L41.058 55.2636L35.0131 42.7876V42.792Z" fill="#9559E9"/>
<path d="M41.7012 38.3584L41.0576 55.2727L44.4973 62.3695C51.1813 59.7953 56.7869 55.0463 60.4351 48.9881L54.7985 42.9076L41.7012 38.3584Z" fill="#9559E9"/>
<path d="M43.2945 30.4893L54.7985 42.9031L62.2459 45.4907C64.0124 41.5184 65.0021 37.1245 65.0021 32.4998C65.0021 29.828 64.6692 27.236 64.0523 24.7595L55.766 24.4443L43.29 30.4893H43.2945Z" fill="#9559E9"/>
<path d="M38.8613 23.8009L55.7756 24.4444L62.8724 21.0048C60.2982 14.3207 55.5493 8.71516 49.491 5.06689L43.4106 10.7035L38.8613 23.8009Z" fill="#9559E9"/>
<path d="M30.9922 22.2076L43.4061 10.7036L45.9936 3.25617C42.0213 1.48974 37.6274 0.5 33.0027 0.5C30.3309 0.5 27.7389 0.832871 25.2624 1.44979L24.9473 9.73606L30.9922 22.2121V22.2076Z" fill="#9559E9"/>
</svg>
