<svg width="1em" height="1em" viewBox="0 0 65 65" fill="none" xmlns="http://www.w3.org/2000/svg">
<path d="M64.4781 24.1446L50.4669 30.6366C51.548 28.1581 52.2706 25.3929 52.5334 22.4425C53.4531 12.182 48.5438 3.12187 41.1739 0.5L39.7943 15.8789C38.1877 13.7049 36.1571 11.6922 33.7323 9.99011C25.3113 4.06551 15.003 3.78481 9.04851 8.85536L21.6801 17.7423C18.9985 18.0468 16.2393 18.7994 13.5457 20.0476C4.20491 24.3776 -1.18814 33.1629 0.221339 40.8554L14.2325 34.3634C13.1515 36.8419 12.4289 39.6071 12.1661 42.5575C11.2463 52.818 16.1556 61.8781 23.5256 64.5L24.9052 49.1211C26.5117 51.2951 28.5424 53.3078 30.9671 55.0099C39.3882 60.9345 49.6965 61.2152 55.651 56.1446L43.0194 47.2577C45.701 46.9532 48.4602 46.2006 51.1538 44.9524C60.5005 40.6224 65.8936 31.8371 64.4781 24.1446ZM32.3527 45.8124C25.0007 45.8124 19.0403 39.852 19.0403 32.5C19.0403 25.148 25.0007 19.1876 32.3527 19.1876C39.7047 19.1876 45.6652 25.148 45.6652 32.5C45.6652 39.852 39.7047 45.8124 32.3527 45.8124Z" fill="#DDB421"/>
</svg>
