<svg width="1em" height="1em" viewBox="0 0 64 65" fill="none" xmlns="http://www.w3.org/2000/svg">
<path d="M4.45312 48.7856V49.4054H4.83126C4.70522 49.1953 4.57917 48.9957 4.45312 48.7856Z" fill="#FF7A00"/>
<path d="M59.5471 49.4054V48.7856C59.421 48.9957 59.295 49.2058 59.1689 49.4054H59.5471Z" fill="#FF7A00"/>
<path d="M0 32.5058C0 36.0771 0.598717 39.5119 1.68061 42.7261V22.2856C0.598717 25.4998 0 28.9346 0 32.5058Z" fill="#FF7A00"/>
<path d="M5.72338 20.1426V14.25C5.41877 14.6807 5.13517 15.1218 4.85156 15.563V20.1426H5.72338Z" fill="#FF7A00"/>
<path d="M10.1765 20.1413V9.1123C9.8824 9.3854 9.58829 9.6585 9.30469 9.94211V20.1413H10.1765Z" fill="#FF7A00"/>
<path d="M14.6296 20.1435V5.6377C14.3355 5.82676 14.0519 6.01583 13.7578 6.2154V20.1435H14.6296Z" fill="#FF7A00"/>
<path d="M19.0828 20.1419V3.22021C18.7886 3.34626 18.505 3.47231 18.2109 3.60886V20.1313H19.0828V20.1419Z" fill="#FF7A00"/>
<path d="M23.5251 20.1432V1.646C23.231 1.73003 22.9474 1.80355 22.6533 1.88758V20.1432H23.5251Z" fill="#FF7A00"/>
<path d="M27.9773 20.1412V0.761719C27.6832 0.79323 27.3996 0.824742 27.1055 0.877261V20.1412H27.9773Z" fill="#FF7A00"/>
<path d="M32.4306 20.1421V0.510504C32.2836 0.510504 32.147 0.5 32 0.5C31.8529 0.5 31.7164 0.5 31.5693 0.510504V20.1421H32.4412H32.4306Z" fill="#FF7A00"/>
<path d="M36.8835 20.1425V0.867983C36.5999 0.825968 36.3058 0.794457 36.0117 0.752441V20.1425H36.8835Z" fill="#FF7A00"/>
<path d="M41.3367 20.1432V1.88758C41.0531 1.80355 40.759 1.71952 40.4648 1.646V20.1432H41.3367Z" fill="#FF7A00"/>
<path d="M45.7888 20.1431V3.62057C45.5052 3.48403 45.2111 3.35798 44.917 3.23193V20.1431H45.7888Z" fill="#FF7A00"/>
<path d="M50.2312 20.1435V6.2154C49.9476 6.01583 49.6535 5.82676 49.3594 5.6377V20.1435H50.2312V20.1435Z" fill="#FF7A00"/>
<path d="M54.6843 20.1413V9.94211C54.4007 9.6585 54.1066 9.3854 53.8125 9.1123V20.1413H54.6843Z" fill="#FF7A00"/>
<path d="M59.1374 20.1426V15.563C58.8538 15.1218 58.5702 14.6807 58.2656 14.25V20.1426H59.1374Z" fill="#FF7A00"/>
<path d="M6.12278 49.4062H4.82031C5.38752 50.3201 6.00724 51.2129 6.66898 52.0637V49.4062H6.12278Z" fill="#FF7A00"/>
<path d="M10.5764 49.4062H8.34961V54.0699C9.22143 55.0258 10.1458 55.9186 11.1226 56.7589V49.4168H10.5764V49.4062Z" fill="#FF7A00"/>
<path d="M15.0286 49.4062H12.8018V58.1139C13.6946 58.7861 14.6189 59.4059 15.5748 59.9731V49.4062H15.0286V49.4062Z" fill="#FF7A00"/>
<path d="M19.4817 49.4062H17.2549V60.9079C18.1582 61.3806 19.0825 61.8007 20.0279 62.1894V49.4062H19.4817Z" fill="#FF7A00"/>
<path d="M23.9348 49.4062H21.708V62.8091C22.6113 63.1137 23.5462 63.3868 24.481 63.6179V49.4168H23.9348V49.4062Z" fill="#FF7A00"/>
<path d="M28.3879 49.4062H26.1611V63.9645C27.075 64.1326 27.9993 64.2691 28.9341 64.3532V49.4062H28.3879Z" fill="#FF7A00"/>
<path d="M32.8401 49.4062H30.6133V64.4687C31.0754 64.4897 31.5376 64.5002 31.9998 64.5002C32.462 64.5002 32.9241 64.4897 33.3863 64.4687V49.4062H32.8401Z" fill="#FF7A00"/>
<path d="M37.2825 49.4062H35.0557V64.3532C35.9905 64.2691 36.9148 64.1326 37.8287 63.9645V49.4062H37.2825V49.4062Z" fill="#FF7A00"/>
<path d="M41.7356 49.405H39.5088V63.6062C40.4541 63.3751 41.3785 63.1125 42.2818 62.7974V49.3945H41.7356V49.405Z" fill="#FF7A00"/>
<path d="M46.1887 49.4062H43.9619V62.1894C44.9073 61.8112 45.8316 61.3806 46.7349 60.9079V49.4062H46.1887Z" fill="#FF7A00"/>
<path d="M50.6418 49.4062H48.415V59.9731C49.3709 59.3954 50.3057 58.7756 51.188 58.1139V49.4062H50.6418Z" fill="#FF7A00"/>
<path d="M55.094 49.405H52.8672V56.7472C53.844 55.9069 54.7789 55.0141 55.6402 54.0582V49.3945H55.094V49.405Z" fill="#FF7A00"/>
<path d="M57.8665 49.4062H57.3203V52.0637C57.9821 51.2129 58.6018 50.3306 59.169 49.4062H57.8665V49.4062Z" fill="#FF7A00"/>
<path d="M6.12299 49.4057V20.1421H4.44238V48.786C4.56843 48.9961 4.69447 49.2061 4.82052 49.4057H6.12299V49.4057Z" fill="#FF7A00"/>
<path d="M8.90527 20.1421V49.4057H10.5754V20.1421H10.1762H9.30442H8.90527Z" fill="#FF7A00"/>
<path d="M13.3584 20.1421V49.4057H15.0285V20.1421H14.6294H13.7575H13.3584Z" fill="#FF7A00"/>
<path d="M17.8008 20.1421V49.4057H19.4814V20.1421H19.0822H18.2104H17.8008Z" fill="#FF7A00"/>
<path d="M22.2539 20.1421V49.4057H23.9345V20.1421H23.5249H22.6636H22.2539Z" fill="#FF7A00"/>
<path d="M26.707 20.1421V49.4057H28.3876V20.1421H27.978H27.1167H26.707Z" fill="#FF7A00"/>
<path d="M31.1602 20.1421V49.4057H32.8408V20.1421H32.4311H31.5698H31.1602Z" fill="#FF7A00"/>
<path d="M35.6123 20.1421V49.4057H37.2824V20.1421H36.8833H36.0115H35.6123Z" fill="#FF7A00"/>
<path d="M40.0654 20.1421V49.4057H41.7355V20.1421H41.3364H40.4646H40.0654Z" fill="#FF7A00"/>
<path d="M44.5186 20.1421V49.4057H46.1887V20.1421H45.7895H44.9177H44.5186Z" fill="#FF7A00"/>
<path d="M48.9609 20.1421V49.4057H50.6415V20.1421H50.2319H49.3706H48.9609Z" fill="#FF7A00"/>
<path d="M53.4141 20.1421V49.4057H55.0947V20.1421H54.685H53.8237H53.4141Z" fill="#FF7A00"/>
<path d="M59.1372 20.1421H57.8662V49.4057H59.1687C59.2947 49.1956 59.4208 48.9961 59.5468 48.786V20.1421H59.1372Z" fill="#FF7A00"/>
<path d="M62.3193 22.2856V42.7261C63.4012 39.5119 63.9999 36.0771 63.9999 32.5058C63.9999 28.9346 63.4012 25.4998 62.3193 22.2856V22.2856Z" fill="#FF7A00"/>
</svg>
