<svg width="1em" height="1em" viewBox="0 0 64 65" fill="none" xmlns="http://www.w3.org/2000/svg">
<g clip-path="url(#clip0_1661_40529)">
<path d="M0.0146484 30.9999C0.0146484 14.1631 13.6636 0.51416 30.5004 0.51416V18.9999C30.5004 25.6273 25.1278 30.9999 18.5004 30.9999H0.0146484Z" fill="#F7D065"/>
<path d="M0.0146484 34H18.5004C25.1278 34 30.5004 39.3726 30.5004 46V64.4857H8.01465C3.59637 64.4857 0.0146484 60.904 0.0146484 56.4857V34Z" fill="#F7D065"/>
<path d="M33.5 0.51416C50.3368 0.51416 63.9857 14.1631 63.9857 30.9999H45.5C38.8726 30.9999 33.5 25.6273 33.5 18.9999V0.51416Z" fill="#F7D065"/>
<path d="M33.5 46C33.5 39.3726 38.8726 34 45.5 34H63.9857C63.9857 50.8368 50.3368 64.4857 33.5 64.4857V46Z" fill="#F7D065"/>
</g>
<defs>
<clipPath id="clip0_1661_40529">
<rect width="63.9714" height="63.9716" fill="white" transform="translate(0.0146484 0.51416)"/>
</clipPath>
</defs>
</svg>
