<svg width="1em" height="1em" viewBox="0 0 64 65" fill="none" xmlns="http://www.w3.org/2000/svg">
<g clip-path="url(#clip0_1661_40412)">
<path fill-rule="evenodd" clip-rule="evenodd" d="M50.098 23.1594C51.921 17.8586 50.9979 15.2653 50.1155 14.3829C49.2331 13.5005 46.6398 12.5774 41.339 14.4004C36.3748 16.1077 30.4262 19.8507 24.8894 25.3876C19.3526 30.9244 15.6095 36.873 13.9023 41.8371C12.0792 47.138 13.0023 49.7312 13.8848 50.6136C14.7672 51.4961 17.3604 52.4192 22.6613 50.5961C27.6254 48.8889 33.574 45.1458 39.1108 39.609C44.6477 34.0722 48.3907 28.1236 50.098 23.1594ZM42.4969 42.995C54.3718 31.1201 59.2988 16.794 53.5016 10.9968C47.7044 5.19965 33.3783 10.1266 21.5034 22.0015C9.62847 33.8764 4.70151 48.2025 10.4987 53.9997C16.2959 59.7969 30.622 54.8699 42.4969 42.995Z" fill="#27C683"/>
<path d="M49.0548 15.4436C49.3157 15.7044 50.4423 17.5461 48.6795 22.6716C47.0613 27.3769 43.4614 33.137 38.0502 38.5483C32.6389 43.9596 26.8788 47.5594 22.1735 49.1777C17.048 50.9404 15.2063 49.8138 14.9454 49.553C14.6845 49.2921 13.558 47.4504 15.3207 42.3249C16.939 37.6196 20.5388 31.8595 25.9501 26.4482C31.3614 21.037 37.1215 17.4371 41.8268 15.8189C46.9523 14.0561 48.794 15.1827 49.0548 15.4436ZM43.5576 44.0557C49.6205 37.9927 53.9642 31.254 56.0447 25.2046C58.0889 19.2607 58.0924 13.4663 54.5622 9.93618C51.0321 6.40604 45.2377 6.40948 39.2938 8.45368C33.2444 10.5342 26.5057 14.8779 20.4427 20.9408C14.3798 27.0038 10.036 33.7425 7.95554 39.7919C5.91134 45.7358 5.9079 51.5302 9.43805 55.0603C12.9682 58.5905 18.7626 58.5871 24.7065 56.5429C30.7559 54.4624 37.4946 50.1186 43.5576 44.0557Z" stroke="#39A672" stroke-opacity="0.12" stroke-width="3"/>
<path fill-rule="evenodd" clip-rule="evenodd" d="M50.098 41.8406C51.921 47.1414 50.9979 49.7347 50.1155 50.6171C49.2331 51.4995 46.6398 52.4226 41.339 50.5996C36.3748 48.8923 30.4262 45.1493 24.8894 39.6124C19.3526 34.0756 15.6095 28.127 13.9023 23.1629C12.0792 17.862 13.0023 15.2688 13.8848 14.3864C14.7672 13.5039 17.3604 12.5808 22.6613 14.4039C27.6254 16.1111 33.574 19.8542 39.1108 25.391C44.6477 30.9278 48.3907 36.8764 50.098 41.8406ZM42.4969 22.005C54.3718 33.8799 59.2988 48.206 53.5016 54.0032C47.7044 59.8004 33.3783 54.8734 21.5034 42.9985C9.62847 31.1236 4.70151 16.7975 10.4987 11.0003C16.2959 5.20311 30.622 10.1301 42.4969 22.005Z" fill="#27C683"/>
<path d="M49.0548 49.5564C49.3157 49.2956 50.4423 47.4539 48.6795 42.3284C47.0613 37.6231 43.4614 31.863 38.0502 26.4517C32.6389 21.0404 26.8788 17.4406 22.1735 15.8223C17.048 14.0596 15.2063 15.1862 14.9454 15.447C14.6845 15.7079 13.558 17.5496 15.3207 22.6751C16.939 27.3804 20.5388 33.1405 25.9501 38.5518C31.3614 43.963 37.1215 47.5629 41.8268 49.1811C46.9523 50.9439 48.794 49.8173 49.0548 49.5564ZM43.5576 20.9443C49.6205 27.0073 53.9642 33.746 56.0447 39.7954C58.0889 45.7393 58.0924 51.5337 54.5622 55.0638C51.0321 58.594 45.2377 58.5905 39.2938 56.5463C33.2444 54.4658 26.5057 50.1221 20.4427 44.0592C14.3798 37.9962 10.036 31.2575 7.95554 25.2081C5.91134 19.2642 5.9079 13.4698 9.43805 9.93965C12.9682 6.4095 18.7626 6.41294 24.7065 8.45715C30.7559 10.5376 37.4946 14.8814 43.5576 20.9443Z" stroke="#39A672" stroke-opacity="0.12" stroke-width="3"/>
<mask id="path-5-outside-1_1661_40412" maskUnits="userSpaceOnUse" x="5.06836" y="5.56641" width="53" height="53" fill="black">
<rect fill="white" x="5.06836" y="5.56641" width="53" height="53"/>
<path fill-rule="evenodd" clip-rule="evenodd" d="M52.7173 10.3147C46.4904 5.63252 32.8739 10.6328 21.5043 22.0016C10.1347 33.3704 5.13416 46.986 9.81668 53.2126L13.3056 49.7239C12.724 48.3988 12.4979 45.9218 13.903 41.8365C15.6103 36.8726 19.3535 30.9242 24.8905 25.3876C30.4275 19.8509 36.3762 16.1079 41.3405 14.4008C45.426 12.9958 47.9032 13.2219 49.2284 13.8034L52.7173 10.3147Z"/>
</mask>
<path fill-rule="evenodd" clip-rule="evenodd" d="M52.7173 10.3147C46.4904 5.63252 32.8739 10.6328 21.5043 22.0016C10.1347 33.3704 5.13416 46.986 9.81668 53.2126L13.3056 49.7239C12.724 48.3988 12.4979 45.9218 13.903 41.8365C15.6103 36.8726 19.3535 30.9242 24.8905 25.3876C30.4275 19.8509 36.3762 16.1079 41.3405 14.4008C45.426 12.9958 47.9032 13.2219 49.2284 13.8034L52.7173 10.3147Z" fill="#27C683"/>
<path d="M52.7173 10.3146L54.8385 12.436L57.2815 9.99311L54.5202 7.9168L52.7173 10.3146ZM21.5043 22.0015L19.383 19.8801L21.5043 22.0015ZM9.81665 53.2124L7.41898 55.0155L9.49519 57.7764L11.9379 55.3338L9.81665 53.2124ZM13.3055 49.7238L15.4268 51.8451L16.8765 50.3955L16.0526 48.5182L13.3055 49.7238ZM13.9029 41.8364L16.7398 42.8121H16.7398L13.9029 41.8364ZM24.8904 25.3874L27.0117 27.5088L24.8904 25.3874ZM41.3405 14.4006L40.3649 11.5637V11.5637L41.3405 14.4006ZM49.2284 13.8033L48.0229 16.5504L49.9001 17.3741L51.3496 15.9246L49.2284 13.8033ZM54.5202 7.9168C50.1488 4.62977 43.8871 5.13322 37.9927 7.32734C31.912 9.59081 25.3116 13.9519 19.383 19.8801L23.6255 24.1228C29.0665 18.6822 34.9592 14.8587 40.0858 12.9504C45.3987 10.9727 49.0588 11.3172 50.9143 12.7124L54.5202 7.9168ZM19.383 19.8801C13.4545 25.8082 9.09308 32.4082 6.82944 38.4886C4.63516 44.3827 4.13162 50.6442 7.41898 55.0155L12.2143 51.4093C10.8192 49.5541 10.4746 45.8945 12.4524 40.582C14.3608 35.4557 18.1845 29.5635 23.6255 24.1228L19.383 19.8801ZM11.9379 55.3338L15.4268 51.8451L11.1843 47.6024L7.69539 51.091L11.9379 55.3338ZM11.066 40.8607C9.53386 45.3155 9.55448 48.6417 10.5584 50.9294L16.0526 48.5182C15.8935 48.1556 15.4619 46.5277 16.7398 42.8121L11.066 40.8607ZM22.7692 23.266C16.9811 29.0537 12.9514 35.3791 11.066 40.8607L16.7398 42.8121C18.2691 38.3658 21.7258 32.7943 27.0117 27.5088L22.7692 23.266ZM40.3649 11.5637C34.883 13.4489 28.5573 17.4783 22.7692 23.266L27.0117 27.5088C32.2976 22.2232 37.8694 18.7667 42.3161 17.2375L40.3649 11.5637ZM50.4338 11.0561C48.1462 10.0523 44.82 10.0316 40.3649 11.5637L42.3161 17.2375C46.032 15.9597 47.6601 16.3912 48.0229 16.5504L50.4338 11.0561ZM51.3496 15.9246L54.8385 12.436L50.596 8.19319L47.1071 11.6819L51.3496 15.9246Z" fill="#39A672" fill-opacity="0.12" mask="url(#path-5-outside-1_1661_40412)"/>
<path fill-rule="evenodd" clip-rule="evenodd" d="M50.5372 21.8169C51.771 17.4227 50.9337 15.2003 50.13 14.3967C49.2475 13.5142 46.6542 12.5912 41.3532 14.4142C36.3889 16.1214 30.4401 19.8643 24.9031 25.401C19.3661 30.9376 15.6229 36.886 13.9156 41.85C12.0925 47.1507 13.0156 49.7438 13.8981 50.6262C14.7146 51.4427 16.9959 52.294 21.5317 50.9725L25.3054 54.7459C19.0664 57.1448 13.5883 57.0883 10.5119 54.0122C4.71455 48.2152 9.64166 33.8895 21.517 22.015C33.3922 10.1405 47.7188 5.2137 53.5162 11.0107C56.5599 14.0543 56.6475 19.4487 54.3254 25.605L50.5372 21.8169Z" fill="#27C683"/>
</g>
<defs>
<clipPath id="clip0_1661_40412">
<rect width="63.9964" height="64" fill="white" transform="translate(0.00195312 0.5)"/>
</clipPath>
</defs>
</svg>
