<svg width="1em" height="1em" viewBox="0 0 460 300" fill="none" xmlns="http://www.w3.org/2000/svg">
<circle cx="263.574" cy="119.928" r="40" transform="rotate(21.2343 263.574 119.928)" fill="#DADAFB"/>
<circle cx="263.574" cy="119.93" r="30" fill="#5E5FF5"/>
<path fill-rule="evenodd" clip-rule="evenodd" d="M248.574 108.93H242.574L257.574 136.93L262.574 127.596L259.574 121.996L259.074 122.93L257.574 125.73L256.074 122.93L248.574 108.93ZM260.574 120.13L262.074 122.93L263.574 125.73L265.824 129.93L269.574 136.93L284.574 108.93H278.574L271.074 122.93L269.574 125.73L268.074 122.93L266.574 120.13L263.574 114.53L260.574 108.93H254.574L260.574 120.13ZM272.574 108.93L267.574 118.263L264.574 112.663L266.574 108.93H272.574Z" fill="white"/>
<circle cx="263.574" cy="119.928" r="69.5" transform="rotate(21.2343 263.574 119.928)" stroke="#404040" stroke-dasharray="2 2"/>
<circle cx="263.576" cy="119.921" r="111.5" transform="rotate(21.2343 263.576 119.921)" stroke="#6F70F6"/>
<path d="M409.471 97.8598C409.466 98.5246 409.453 99.1903 409.432 99.8568L408.932 99.8414C408.922 100.173 408.91 100.504 408.896 100.836C408.882 101.168 408.866 101.499 408.848 101.83L409.347 101.857C409.311 102.523 409.268 103.187 409.217 103.85L408.719 103.812C408.669 104.471 408.611 105.129 408.546 105.785L409.043 105.834C408.977 106.494 408.904 107.153 408.824 107.81L408.328 107.75C408.247 108.407 408.16 109.063 408.064 109.718L408.559 109.79C408.464 110.448 408.36 111.104 408.25 111.759L407.757 111.676C407.647 112.327 407.53 112.977 407.406 113.624L407.897 113.719C407.772 114.371 407.639 115.022 407.499 115.672L407.01 115.566C406.871 116.213 406.725 116.857 406.571 117.5L407.057 117.616C406.903 118.262 406.741 118.907 406.573 119.549L406.089 119.422C405.921 120.061 405.746 120.698 405.564 121.333L406.045 121.471C405.862 122.109 405.672 122.745 405.475 123.38L404.998 123.232C404.802 123.863 404.599 124.492 404.39 125.119L404.864 125.277C404.653 125.908 404.435 126.537 404.21 127.163L403.74 126.994C403.517 127.615 403.288 128.233 403.052 128.85L403.519 129.028C403.282 129.648 403.037 130.266 402.787 130.882L402.324 130.693C402.074 131.306 401.818 131.916 401.555 132.525L402.014 132.723C401.751 133.332 401.482 133.938 401.206 134.543L400.751 134.335C400.477 134.935 400.197 135.532 399.91 136.128L400.361 136.345C400.073 136.943 399.778 137.54 399.477 138.134L399.031 137.908C398.732 138.498 398.427 139.086 398.115 139.672L398.557 139.907C398.247 140.49 397.93 141.072 397.607 141.652L397.17 141.408C396.849 141.985 396.522 142.56 396.189 143.132L396.621 143.384C396.286 143.959 395.945 144.532 395.598 145.103L395.17 144.843C394.828 145.405 394.48 145.966 394.127 146.524L394.549 146.792C394.195 147.351 393.834 147.908 393.469 148.462L393.051 148.187C392.687 148.739 392.317 149.289 391.941 149.837L392.353 150.12C391.977 150.668 391.596 151.213 391.208 151.757L390.801 151.467C390.42 152.002 390.033 152.535 389.641 153.066L390.043 153.363C389.649 153.896 389.249 154.427 388.844 154.956L388.447 154.652C388.044 155.178 387.635 155.703 387.221 156.225L387.613 156.535C387.202 157.053 386.786 157.569 386.365 158.082L385.979 157.765C385.561 158.274 385.138 158.781 384.71 159.286L385.092 159.609C384.662 160.116 384.227 160.62 383.788 161.122L383.412 160.793C382.974 161.292 382.532 161.788 382.085 162.283L382.456 162.618C382.014 163.107 381.568 163.594 381.116 164.078L380.75 163.737C380.3 164.219 379.846 164.7 379.386 165.177L379.747 165.524C379.286 166.004 378.82 166.481 378.349 166.956L377.994 166.605C377.529 167.074 377.06 167.541 376.585 168.006L376.935 168.363C376.464 168.825 375.989 169.285 375.509 169.742L375.164 169.38C374.685 169.836 374.203 170.289 373.715 170.741L374.055 171.108C373.566 171.56 373.073 172.011 372.575 172.459L372.24 172.088C371.751 172.528 371.258 172.967 370.76 173.403L371.089 173.779C370.592 174.214 370.091 174.647 369.586 175.078L369.262 174.697C368.758 175.127 368.251 175.554 367.739 175.979L368.058 176.363C367.545 176.789 367.028 177.213 366.506 177.635L366.192 177.246C365.681 177.659 365.166 178.069 364.648 178.478L364.957 178.871C364.438 179.28 363.914 179.686 363.387 180.091L363.083 179.694C362.557 180.097 362.028 180.498 361.495 180.897L361.794 181.297C361.26 181.697 360.722 182.094 360.18 182.489L359.885 182.085C359.355 182.471 358.821 182.856 358.284 183.238L358.573 183.645C358.034 184.028 357.491 184.409 356.945 184.788L356.66 184.377C356.116 184.755 355.567 185.13 355.016 185.503L355.296 185.917C354.743 186.29 354.187 186.662 353.628 187.031L353.352 186.613C352.804 186.975 352.253 187.334 351.698 187.691L351.969 188.111C351.412 188.469 350.853 188.825 350.29 189.178L350.024 188.754C349.463 189.107 348.898 189.457 348.33 189.805L348.591 190.231C348.022 190.58 347.45 190.926 346.874 191.27L346.618 190.841C346.054 191.178 345.487 191.512 344.918 191.845L345.17 192.276C344.598 192.61 344.024 192.941 343.447 193.269L343.199 192.835C342.623 193.163 342.044 193.488 341.463 193.812L341.705 194.249C341.122 194.573 340.536 194.895 339.946 195.215L339.708 194.775C339.13 195.088 338.549 195.399 337.966 195.708L338.199 196.15C337.615 196.46 337.028 196.767 336.438 197.071L336.209 196.627C335.62 196.931 335.029 197.233 334.435 197.532L334.66 197.979C334.065 198.279 333.466 198.577 332.865 198.873L332.645 198.424C332.053 198.715 331.459 199.004 330.862 199.291L331.078 199.741C330.483 200.027 329.885 200.311 329.284 200.592L329.072 200.139C328.473 200.42 327.871 200.699 327.266 200.975L327.474 201.43C326.868 201.707 326.26 201.981 325.649 202.254L325.445 201.797C324.841 202.067 324.234 202.334 323.624 202.599L323.824 203.058C323.218 203.321 322.611 203.582 322.001 203.84L321.806 203.38C321.197 203.638 320.586 203.894 319.973 204.148L320.164 204.61C319.549 204.864 318.932 205.116 318.312 205.366L318.125 204.902C317.509 205.151 316.89 205.397 316.268 205.641L316.451 206.107C315.838 206.348 315.222 206.587 314.604 206.823L314.425 206.356C313.809 206.593 313.19 206.827 312.569 207.058L312.743 207.527C312.121 207.759 311.497 207.989 310.87 208.217L310.699 207.747C310.074 207.974 309.446 208.199 308.817 208.422L308.983 208.893C308.36 209.114 307.734 209.332 307.106 209.548L306.943 209.076C306.32 209.29 305.695 209.503 305.067 209.713L305.226 210.187C304.597 210.398 303.966 210.607 303.334 210.813L303.179 210.337C302.547 210.543 301.914 210.747 301.278 210.948L301.429 211.425C300.795 211.626 300.158 211.825 299.52 212.022L299.372 211.544C298.743 211.738 298.112 211.929 297.479 212.119L297.623 212.598C296.989 212.788 296.352 212.975 295.715 213.161L295.575 212.681C294.938 212.866 294.3 213.048 293.66 213.229L293.795 213.71C293.154 213.891 292.51 214.07 291.865 214.247L291.733 213.764C291.096 213.939 290.457 214.111 289.816 214.281L289.944 214.764C289.305 214.934 288.665 215.101 288.023 215.266L287.898 214.782C287.257 214.947 286.615 215.109 285.97 215.269L286.091 215.755C285.446 215.915 284.798 216.074 284.15 216.23L284.033 215.744C283.385 215.9 282.736 216.053 282.085 216.205L282.199 216.692C281.556 216.841 280.912 216.989 280.267 217.134L280.157 216.646C279.513 216.791 278.867 216.934 278.219 217.074L278.325 217.563C277.677 217.704 277.027 217.842 276.375 217.979L276.272 217.489C275.622 217.625 274.97 217.759 274.316 217.891L274.415 218.381C273.763 218.513 273.11 218.642 272.455 218.769L272.36 218.278C271.713 218.403 271.065 218.527 270.415 218.648L270.506 219.139C269.855 219.261 269.203 219.38 268.549 219.497L268.461 219.005C267.808 219.122 267.154 219.236 266.498 219.349L266.583 219.841C265.926 219.954 265.268 220.065 264.609 220.173L264.528 219.679C263.874 219.787 263.22 219.892 262.564 219.995L262.641 220.488C261.988 220.591 261.334 220.691 260.678 220.789L260.605 220.295C259.95 220.392 259.295 220.488 258.638 220.582L258.708 221.077C258.05 221.17 257.391 221.262 256.73 221.351L256.663 220.856C256.004 220.945 255.343 221.032 254.681 221.117L254.745 221.612C254.088 221.697 253.43 221.779 252.771 221.858L252.711 221.362C252.055 221.441 251.399 221.518 250.741 221.593L250.798 222.09C250.139 222.165 249.479 222.238 248.818 222.309L248.765 221.812C248.105 221.882 247.444 221.951 246.781 222.017L246.831 222.515C246.168 222.581 245.503 222.645 244.838 222.707L244.791 222.209C244.134 222.271 243.475 222.33 242.815 222.387L242.858 222.885C242.199 222.942 241.539 222.996 240.878 223.049L240.838 222.55C240.178 222.603 239.517 222.653 238.855 222.701L238.891 223.2C238.228 223.248 237.564 223.294 236.899 223.338L236.866 222.839C236.202 222.883 235.537 222.925 234.87 222.964L234.9 223.463C234.239 223.502 233.578 223.539 232.916 223.574L232.89 223.074C232.23 223.109 231.569 223.142 230.908 223.172L230.931 223.671C230.268 223.702 229.605 223.73 228.94 223.756L228.921 223.256C228.257 223.282 227.593 223.306 226.928 223.328L226.944 223.827C226.278 223.849 225.611 223.869 224.943 223.886L224.93 223.386C224.269 223.403 223.608 223.418 222.946 223.431L222.955 223.931C222.294 223.944 221.632 223.954 220.968 223.963L220.962 223.463C220.3 223.471 219.637 223.477 218.973 223.482L218.977 223.982C218.312 223.986 217.646 223.988 216.98 223.988L216.98 223.488C216.315 223.487 215.649 223.485 214.982 223.48L214.978 223.98C214.316 223.976 213.652 223.969 212.988 223.96L212.995 223.46C212.334 223.452 211.673 223.441 211.011 223.428L211.002 223.928C210.339 223.914 209.675 223.899 209.011 223.882L209.024 223.382C208.36 223.365 207.696 223.345 207.032 223.323L207.015 223.823C206.35 223.801 205.683 223.777 205.016 223.751L205.036 223.252C204.703 223.239 204.369 223.225 204.036 223.211C203.703 223.197 203.37 223.182 203.037 223.167L203.014 223.667C202.347 223.636 201.681 223.604 201.016 223.569L201.042 223.07C200.378 223.035 199.715 222.999 199.052 222.96L199.023 223.459C198.36 223.42 197.697 223.379 197.035 223.336L197.068 222.837C196.407 222.794 195.748 222.749 195.089 222.702L195.053 223.201C194.391 223.154 193.729 223.104 193.068 223.053L193.107 222.554C192.442 222.503 191.779 222.449 191.116 222.393L191.073 222.891C190.409 222.835 189.746 222.776 189.084 222.716L189.13 222.218C188.469 222.158 187.809 222.096 187.15 222.031L187.101 222.529C186.441 222.464 185.782 222.398 185.124 222.329L185.176 221.832C184.517 221.763 183.859 221.692 183.202 221.619L183.147 222.116C182.483 222.043 181.82 221.967 181.158 221.889L181.216 221.392C180.556 221.315 179.896 221.235 179.237 221.153L179.175 221.649C178.515 221.567 177.857 221.483 177.199 221.397L177.264 220.901C176.607 220.815 175.952 220.727 175.298 220.636L175.229 221.132C174.572 221.041 173.916 220.948 173.262 220.854L173.333 220.359C172.673 220.263 172.014 220.166 171.356 220.066L171.281 220.56C170.622 220.46 169.964 220.358 169.307 220.254L169.385 219.76C168.729 219.656 168.075 219.55 167.422 219.442L167.34 219.936C166.686 219.827 166.033 219.717 165.381 219.605L165.466 219.112C164.813 218.999 164.162 218.885 163.511 218.768L163.423 219.26C162.765 219.142 162.109 219.022 161.453 218.9L161.545 218.409C160.891 218.287 160.238 218.162 159.586 218.036L159.491 218.527C158.838 218.401 158.187 218.272 157.537 218.142L157.635 217.652C156.986 217.521 156.338 217.389 155.692 217.255L155.59 217.744C154.94 217.609 154.291 217.472 153.644 217.332L153.749 216.843C153.097 216.703 152.446 216.561 151.796 216.416L151.688 216.904C151.037 216.759 150.388 216.612 149.74 216.463L149.852 215.976C149.206 215.827 148.56 215.677 147.917 215.524L147.801 216.01C147.156 215.857 146.513 215.702 145.871 215.545L145.99 215.059C145.345 214.901 144.702 214.741 144.06 214.579L143.937 215.064C143.289 214.9 142.643 214.735 141.998 214.567L142.124 214.083C141.48 213.916 140.838 213.746 140.198 213.575L140.068 214.058C139.427 213.886 138.787 213.712 138.148 213.536L138.281 213.054C137.644 212.878 137.008 212.701 136.374 212.521L136.237 213.002C135.596 212.82 134.956 212.636 134.317 212.45L134.457 211.97C133.817 211.783 133.179 211.595 132.542 211.404L132.398 211.883C131.761 211.692 131.124 211.499 130.49 211.304L130.637 210.826C130.004 210.631 129.372 210.435 128.742 210.236L128.592 210.713C127.961 210.513 127.332 210.312 126.704 210.109L126.858 209.633C126.223 209.427 125.589 209.219 124.957 209.009L124.799 209.484C124.166 209.273 123.535 209.061 122.905 208.846L123.066 208.373C122.438 208.158 121.811 207.942 121.187 207.724L121.022 208.196C120.396 207.977 119.772 207.756 119.15 207.534L119.318 207.063C118.694 206.839 118.072 206.614 117.451 206.386L117.279 206.855C116.651 206.625 116.025 206.392 115.401 206.158L115.577 205.69C114.954 205.456 114.334 205.22 113.715 204.981L113.535 205.448C112.915 205.209 112.297 204.969 111.681 204.726L111.865 204.261C111.25 204.018 110.638 203.774 110.027 203.528L109.84 203.991C109.22 203.742 108.603 203.49 107.988 203.235L108.178 202.773C107.562 202.519 106.948 202.262 106.336 202.004L106.142 202.464C105.529 202.205 104.918 201.944 104.309 201.681L104.507 201.222C103.9 200.96 103.295 200.695 102.692 200.428L102.49 200.886C101.882 200.617 101.277 200.347 100.675 200.074L100.881 199.619C100.272 199.343 99.6657 199.066 99.0618 198.787L98.8519 199.241C98.2467 198.961 97.6438 198.679 97.0433 198.395L97.2571 197.943C96.6579 197.659 96.0611 197.374 95.4666 197.087L95.249 197.537C94.6533 197.249 94.0599 196.959 93.469 196.667L93.6906 196.218C93.092 195.923 92.496 195.625 91.9024 195.325L91.6769 195.771C91.0808 195.47 90.4872 195.167 89.8961 194.861L90.1256 194.417C89.5358 194.112 88.9487 193.806 88.364 193.497L88.1306 193.939C87.5447 193.63 86.9613 193.318 86.3805 193.005L86.618 192.565C86.0331 192.249 85.4508 191.932 84.8712 191.612L84.6298 192.05C84.044 191.727 83.461 191.402 82.8807 191.075L83.1262 190.639C82.5473 190.313 81.9711 189.984 81.3977 189.654L81.1481 190.087C80.5733 189.756 80.0013 189.423 79.4322 189.088L79.6859 188.657C79.1153 188.321 78.5476 187.983 77.9827 187.643L77.7248 188.071C77.151 187.726 76.58 187.378 76.0121 187.029L76.2741 186.603C75.7075 186.254 75.1439 185.904 74.5833 185.551L74.317 185.974C73.755 185.621 73.196 185.265 72.6399 184.908L72.9104 184.487C72.355 184.13 71.8026 183.771 71.2533 183.41L70.9786 183.827C70.4183 183.459 69.8612 183.089 69.3073 182.717L69.5862 182.302C69.0337 181.93 68.4844 181.557 67.9383 181.181L67.6551 181.593C67.1075 181.217 66.5632 180.839 66.0222 180.458L66.3097 180.049C65.7701 179.67 65.2337 179.289 64.7006 178.905L64.4087 179.311C63.8643 178.92 63.3233 178.527 62.7858 178.131L63.0821 177.729C62.5456 177.334 62.0126 176.937 61.483 176.539L61.1823 176.938C60.6513 176.539 60.1237 176.137 59.5996 175.733L59.9047 175.337C59.3821 174.935 58.863 174.53 58.3474 174.124L58.0379 174.516C57.5115 174.102 56.9888 173.685 56.4698 173.266L56.7838 172.877C56.2656 172.459 55.7511 172.038 55.2403 171.616L54.9218 172.001C54.4095 171.578 53.9009 171.153 53.3961 170.725L53.7192 170.344C53.2158 169.918 52.7163 169.49 52.2206 169.06L51.893 169.437C51.3863 168.998 50.8836 168.557 50.3849 168.113L50.7171 167.74C50.2196 167.297 49.7261 166.853 49.2366 166.407L48.8998 166.777C48.4088 166.329 47.9218 165.88 47.4388 165.428L47.7802 165.063C47.298 164.612 46.8198 164.16 46.3457 163.705L45.9997 164.066C45.5157 163.602 45.0358 163.136 44.5603 162.668L44.9111 162.311C44.4371 161.845 43.9674 161.376 43.502 160.906L43.1466 161.258C42.6797 160.786 42.2171 160.312 41.7588 159.836L42.1189 159.489C41.6598 159.013 41.205 158.534 40.7547 158.054L40.3899 158.396C39.9319 157.907 39.4783 157.417 39.0294 156.924L39.3989 156.587C38.9516 156.096 38.5088 155.604 38.0707 155.109L37.6964 155.441C37.2567 154.944 36.8216 154.446 36.3913 153.946L36.7702 153.62C36.3371 153.116 35.9087 152.611 35.4852 152.104L35.1014 152.425C34.6727 151.911 34.2488 151.396 33.8299 150.879L34.2184 150.564C33.801 150.049 33.3886 149.533 32.9811 149.014L32.5879 149.323C32.1789 148.802 31.7748 148.279 31.3758 147.755L31.7737 147.452C31.3701 146.922 30.9716 146.389 30.5783 145.855L30.1757 146.152C29.7799 145.614 29.3894 145.075 29.0041 144.534L29.4115 144.244C29.0278 143.705 28.6494 143.164 28.2763 142.622L27.8643 142.905C27.4881 142.358 27.1171 141.809 26.7516 141.258L27.1682 140.982C26.7998 140.426 26.4369 139.87 26.0796 139.311L25.6584 139.58C25.2996 139.019 24.9464 138.456 24.5988 137.892L25.0246 137.63C24.6785 137.067 24.338 136.504 24.0033 135.938L23.573 136.193C23.2331 135.618 22.8989 135.042 22.5707 134.465L23.0054 134.218C22.6772 133.64 22.3549 133.061 22.0386 132.48L21.5995 132.719C21.2817 132.135 20.9699 131.55 20.664 130.963L21.1075 130.732C20.8021 130.146 20.5028 129.558 20.2096 128.969L19.762 129.192C19.4643 128.593 19.1729 127.994 18.8877 127.392L19.3395 127.178C19.0557 126.579 18.7782 125.979 18.507 125.377L18.0511 125.583C17.7786 124.978 17.5123 124.372 17.2524 123.764L17.7121 123.567C17.4513 122.957 17.197 122.346 16.9491 121.733L16.4855 121.92C16.2358 121.302 15.9927 120.683 15.7561 120.062L16.2234 119.884C15.988 119.267 15.7593 118.647 15.5372 118.027L15.0664 118.195C14.8425 117.57 14.6252 116.942 14.4147 116.314L14.8888 116.155C14.6784 115.526 14.4747 114.896 14.2779 114.265L13.8006 114.414C13.6027 113.779 13.4117 113.143 13.2276 112.505L13.708 112.367C13.5249 111.732 13.3487 111.097 13.1795 110.46L12.6963 110.588C12.5253 109.945 12.3614 109.3 12.2045 108.654L12.6904 108.536C12.5345 107.893 12.3855 107.249 12.2437 106.604L11.7554 106.711C11.6128 106.063 11.4774 105.413 11.3492 104.761L11.8398 104.665C11.7122 104.016 11.5917 103.367 11.4786 102.716L10.986 102.802C10.8721 102.147 10.7655 101.492 10.6662 100.835L11.1606 100.76C11.0619 100.107 10.9705 99.4521 10.8865 98.7965L10.3905 98.8601C10.306 98.2013 10.2289 97.5413 10.1593 96.8803L10.6565 96.8278C10.5874 96.1719 10.5256 95.5149 10.4712 94.8569L9.97292 94.8981C9.91823 94.2363 9.87099 93.5734 9.83126 92.9095L10.3304 92.8796C10.2909 92.2195 10.2588 91.5584 10.2343 90.8963L9.7346 90.9148C9.71008 90.2532 9.69302 89.5907 9.68346 88.9272L10.1834 88.92C10.1739 88.2608 10.1719 87.6007 10.1773 86.9397L9.67735 86.9355C9.68284 86.2707 9.69589 85.605 9.71653 84.9385L10.2163 84.9539C10.2266 84.6225 10.2387 84.2909 10.2528 83.9591C10.2668 83.6274 10.2827 83.2961 10.3005 82.9652L9.8012 82.9384C9.83697 82.2725 9.88023 81.6081 9.93094 80.9452L10.4295 80.9833C10.4799 80.3242 10.5377 79.6666 10.6029 79.0105L10.1054 78.9611C10.171 78.3008 10.244 77.6421 10.3243 76.985L10.8206 77.0456C10.901 76.388 10.9888 75.7319 11.084 75.0775L10.5892 75.0055C10.6849 74.3474 10.788 73.6909 10.8984 73.0361L11.3915 73.1192C11.5013 72.4681 11.6183 71.8187 11.7427 71.171L11.2516 71.0767C11.3769 70.4239 11.5095 69.7728 11.6494 69.1235L12.1382 69.2288C12.2774 68.5826 12.4237 67.9382 12.5773 67.2956L12.091 67.1794C12.2454 66.5331 12.4071 65.8886 12.5759 65.246L13.0595 65.373C13.2272 64.7343 13.4021 64.0973 13.584 63.4622L13.1034 63.3245C13.2862 62.6863 13.4761 62.05 13.673 61.4155L14.1505 61.5637C14.3463 60.9328 14.5491 60.3037 14.7589 59.6765L14.2847 59.518C14.4956 58.8874 14.7134 58.2587 14.9381 57.632L15.4088 57.8008C15.6313 57.1805 15.8605 56.5621 16.0966 55.9456L15.6296 55.7668C15.8669 55.1471 16.111 54.5293 16.3618 53.9135L16.8249 54.1021C17.0743 53.4896 17.3305 52.8791 17.5934 52.2706L17.1343 52.0723C17.3972 51.4637 17.6667 50.8571 17.9427 50.2526L18.3976 50.4602C18.6713 49.8607 18.9516 49.2631 19.2383 48.6675L18.7878 48.4507C19.0759 47.8521 19.3706 47.2556 19.6716 46.6612L20.1176 46.8871C20.4164 46.2971 20.7216 45.7092 21.0331 45.1233L20.5916 44.8886C20.9019 44.3049 21.2184 43.7232 21.5412 43.1437L21.978 43.387C22.2991 42.8103 22.6264 42.2357 22.9598 41.6632L22.5277 41.4116C22.8627 40.8364 23.2037 40.2633 23.5509 39.6924L23.9781 39.9522C24.3201 39.3898 24.668 38.8295 25.0218 38.2714L24.5994 38.0037C24.9538 37.4447 25.314 36.8878 25.6799 36.3331L26.0973 36.6085C26.4616 36.0563 26.8317 35.5063 27.2075 34.9585L26.7952 34.6756C27.1711 34.1277 27.5528 33.5819 27.94 33.0384L28.3472 33.3286C28.7286 32.7934 29.1155 32.2603 29.5078 31.7294L29.1057 31.4322C29.4998 30.899 29.8993 30.368 30.3043 29.8393L30.7013 30.1433C31.1045 29.6169 31.5131 29.0926 31.9272 28.5706L31.5354 28.2599C31.9462 27.742 32.3622 27.2264 32.7833 26.7129L33.1699 27.0301C33.5875 26.5211 34.0102 26.0142 34.4381 25.5096L34.0567 25.1863C34.4863 24.6796 34.921 24.1752 35.3608 23.6731L35.7369 24.0026C36.1739 23.5036 36.616 23.0069 37.0631 22.5124L36.6922 22.1771C37.1341 21.6883 37.5809 21.2017 38.0325 20.7174L38.3982 21.0584C38.848 20.576 39.3026 20.0958 39.762 19.6178L39.4016 19.2713C39.8627 18.7916 40.3286 18.3141 40.7992 17.8389L41.1544 18.1907C41.6193 17.7213 42.0889 17.2542 42.563 16.7893L42.2129 16.4322C42.6841 15.9703 43.1597 15.5106 43.6398 15.0531L43.9847 15.4151C44.463 14.9593 44.9459 14.5058 45.4331 14.0545L45.0934 13.6877C45.5823 13.2349 46.0757 12.7843 46.5735 12.3361L46.908 12.7076C47.3973 12.267 47.8909 11.8286 48.3887 11.3925L48.0592 11.0164C48.556 10.5811 49.057 10.1481 49.5622 9.71735L49.8866 10.0978C50.3901 9.6685 50.8977 9.24146 51.4093 8.81671L51.09 8.43199C51.6034 8.00583 52.1209 7.58197 52.6424 7.16045L52.9567 7.54932C53.4675 7.13647 53.9822 6.72586 54.5008 6.3175L54.1915 5.92466C54.7109 5.51567 55.2342 5.10895 55.7613 4.70451L56.0657 5.1012C56.5911 4.69803 57.1204 4.29713 57.6535 3.89852L57.354 3.49809C57.8885 3.09848 58.4267 2.70119 58.9686 2.30622L59.2631 2.71029C59.7934 2.32381 60.3273 1.93955 60.8649 1.55753L60.5752 1.14998C61.1143 0.766817 61.6571 0.385917 62.2033 0.00730145L62.4881 0.418242C63.0328 0.040746 63.581 -0.334485 64.1327 -0.707429L63.8527 -1.12166C64.4052 -1.49517 64.9613 -1.86639 65.5208 -2.23528L65.796 -1.81784C66.3441 -2.1792 66.8956 -2.53835 67.4504 -2.89524L67.1798 -3.31574C67.7362 -3.67364 68.2958 -4.02928 68.8587 -4.38264L69.1246 -3.95917C69.6859 -4.31155 70.2506 -4.66168 70.8185 -5.00951L70.5573 -5.43589C71.1264 -5.78444 71.6987 -6.1307 72.2742 -6.47464L72.5307 -6.04544C73.0943 -6.38227 73.661 -6.71688 74.2307 -7.04925L73.9788 -7.48114C74.5501 -7.8144 75.1244 -8.1454 75.7018 -8.47414L75.9492 -8.03964C76.5251 -8.36752 77.104 -8.69314 77.6859 -9.01649L77.443 -9.45355C78.0265 -9.77774 78.6129 -10.0996 79.2023 -10.4192L79.4406 -9.97971C80.0185 -10.2931 80.5993 -10.6042 81.1829 -10.9131L80.949 -11.355C81.5332 -11.6643 82.1203 -11.9713 82.7102 -12.276L82.9397 -11.8318C83.5281 -12.1358 84.1194 -12.4376 84.7134 -12.7371L84.4883 -13.1836C85.0838 -13.4838 85.6821 -13.7817 86.2831 -14.0774L86.5038 -13.6288C87.0954 -13.9198 87.6897 -14.2086 88.2866 -14.4952L88.0702 -14.946C88.6657 -15.2319 89.2638 -15.5155 89.8645 -15.797L90.0766 -15.3442C90.6759 -15.625 91.2777 -15.9035 91.8822 -16.1798L91.6743 -16.6345C92.2802 -16.9115 92.8886 -17.1861 93.4996 -17.4585L93.7032 -17.0019C94.3077 -17.2714 94.9147 -17.5387 95.5242 -17.8037L95.3248 -18.2623C95.93 -18.5254 96.5376 -18.7864 97.1476 -19.0451L97.3428 -18.5848C97.9514 -18.843 98.5624 -19.0989 99.1758 -19.3526L98.9847 -19.8146C99.5994 -20.0689 100.217 -20.3209 100.836 -20.5707L101.023 -20.1069C101.64 -20.3556 102.259 -20.602 102.88 -20.8462L102.697 -21.3116C103.311 -21.5526 103.927 -21.7915 104.545 -22.0281L104.723 -21.5612C105.34 -21.7973 105.959 -22.0313 106.58 -22.263L106.405 -22.7314C107.027 -22.9636 107.652 -23.1936 108.279 -23.4214L108.449 -22.9514C109.075 -23.1787 109.702 -23.4037 110.332 -23.6265L110.165 -24.0978C110.789 -24.3185 111.414 -24.5369 112.042 -24.7531L112.205 -24.2803C112.828 -24.495 113.454 -24.7076 114.081 -24.9179L113.922 -25.3919C114.551 -25.6027 115.182 -25.8112 115.815 -26.0175L115.97 -25.5422C116.601 -25.748 117.235 -25.9517 117.87 -26.1531L117.719 -26.6298C118.354 -26.8309 118.99 -27.0298 119.629 -27.2265L119.776 -26.7486C120.405 -26.9425 121.036 -27.1341 121.669 -27.3235L121.526 -27.8025C122.16 -27.9924 122.796 -28.18 123.434 -28.3654L123.573 -27.8853C124.21 -28.0704 124.849 -28.2532 125.489 -28.4338L125.353 -28.9151C125.995 -29.0961 126.638 -29.2748 127.283 -29.4514L127.415 -28.9691C128.053 -29.1435 128.692 -29.3157 129.333 -29.4857L129.205 -29.969C129.843 -30.1384 130.484 -30.3057 131.126 -30.4707L131.25 -29.9865C131.891 -30.1512 132.534 -30.3138 133.178 -30.4741L133.057 -30.9593C133.703 -31.12 134.35 -31.2784 134.999 -31.4347L135.116 -30.9485C135.763 -31.1044 136.412 -31.2581 137.063 -31.4096L136.95 -31.8966C137.592 -32.0461 138.236 -32.1934 138.882 -32.3386L138.991 -31.8508C139.636 -31.9956 140.282 -32.1384 140.929 -32.2789L140.823 -32.7675C141.472 -32.9083 142.122 -33.0469 142.774 -33.1833L142.876 -32.6939C143.526 -32.8301 144.179 -32.964 144.832 -33.0958L144.733 -33.5859C145.385 -33.7173 146.038 -33.8465 146.693 -33.9735L146.788 -33.4826C147.435 -33.6081 148.084 -33.7315 148.734 -33.8526L148.642 -34.3441C149.293 -34.4655 149.946 -34.5847 150.6 -34.7017L150.688 -34.2096C151.34 -34.3264 151.995 -34.441 152.65 -34.5534L152.566 -35.0462C153.222 -35.1589 153.88 -35.2693 154.54 -35.3775L154.621 -34.8841C155.274 -34.9913 155.929 -35.0964 156.585 -35.1992L156.507 -35.6932C157.16 -35.7956 157.814 -35.8958 158.47 -35.9938L158.544 -35.4993C159.198 -35.5972 159.854 -35.6929 160.511 -35.7864L160.44 -36.2814C161.098 -36.3751 161.758 -36.4666 162.418 -36.5559L162.485 -36.0604C163.145 -36.1495 163.805 -36.2365 164.467 -36.3212L164.404 -36.8172C165.06 -36.9013 165.718 -36.9832 166.378 -37.063L166.438 -36.5666C167.093 -36.6459 167.75 -36.723 168.407 -36.798L168.351 -37.2948C169.009 -37.3699 169.669 -37.4428 170.33 -37.5136L170.384 -37.0164C171.044 -37.0871 171.705 -37.1555 172.367 -37.2218L172.317 -37.7193C172.981 -37.7857 173.645 -37.8499 174.311 -37.9119L174.357 -37.414C175.015 -37.4753 175.673 -37.5344 176.333 -37.5913L176.29 -38.0895C176.949 -38.1463 177.609 -38.2011 178.271 -38.2536L178.31 -37.7552C178.97 -37.8076 179.631 -37.8579 180.293 -37.9061L180.257 -38.4047C180.92 -38.453 181.585 -38.499 182.25 -38.5428L182.283 -38.0439C182.947 -38.0877 183.612 -38.1293 184.278 -38.1687L184.249 -38.6678C184.909 -38.7069 185.57 -38.7438 186.233 -38.7785L186.259 -38.2792C186.918 -38.3138 187.579 -38.3463 188.24 -38.3766L188.218 -38.876C188.88 -38.9064 189.544 -38.9346 190.208 -38.9606L190.228 -38.461C190.891 -38.487 191.555 -38.5108 192.22 -38.5324L192.204 -39.0321C192.87 -39.0538 193.537 -39.0733 194.205 -39.0906L194.218 -38.5907C194.879 -38.6078 195.54 -38.6228 196.203 -38.6356L196.193 -39.1355C196.855 -39.1483 197.517 -39.1589 198.18 -39.1674L198.186 -38.6674C198.848 -38.6759 199.511 -38.6822 200.175 -38.6863L200.172 -39.1863C200.837 -39.1905 201.502 -39.1924 202.169 -39.1922L202.169 -38.6922C202.834 -38.692 203.5 -38.6897 204.167 -38.6851L204.17 -39.1851C204.833 -39.1806 205.496 -39.1739 206.16 -39.1651L206.154 -38.6652C206.814 -38.6564 207.475 -38.6454 208.137 -38.6324L208.147 -39.1323C208.81 -39.1192 209.473 -39.1039 210.138 -39.0865L210.125 -38.5867C210.788 -38.5693 211.452 -38.5498 212.117 -38.5281L212.133 -39.0278C212.799 -39.0061 213.465 -38.9822 214.132 -38.9561L214.113 -38.4565C214.446 -38.4435 214.779 -38.4299 215.112 -38.4158C215.446 -38.4017 215.779 -38.387 216.111 -38.3719L216.134 -38.8713C216.801 -38.841 217.467 -38.8085 218.132 -38.7738L218.106 -38.2745C218.771 -38.24 219.434 -38.2033 220.096 -38.1646L220.125 -38.6637C220.789 -38.6249 221.451 -38.584 222.113 -38.541L222.081 -38.0421C222.741 -37.9992 223.401 -37.9542 224.06 -37.9071L224.095 -38.4058C224.758 -38.3585 225.419 -38.3091 226.08 -38.2576L226.041 -37.7591C226.706 -37.7072 227.37 -37.6533 228.033 -37.5973L228.075 -38.0955C228.739 -38.0394 229.402 -37.9811 230.064 -37.9208L230.019 -37.4229C230.68 -37.3626 231.34 -37.3003 231.999 -37.2359L232.047 -37.7336C232.707 -37.6691 233.366 -37.6025 234.024 -37.5339L233.973 -37.0366C234.631 -36.9678 235.289 -36.897 235.946 -36.8242L236.001 -37.3211C236.665 -37.2474 237.328 -37.1716 237.99 -37.0937L237.932 -36.5971C238.593 -36.5194 239.253 -36.4395 239.912 -36.3576L239.973 -36.8538C240.633 -36.7717 241.292 -36.6875 241.949 -36.6013L241.884 -36.1055C242.541 -36.0194 243.196 -35.9313 243.851 -35.841L243.919 -36.3363C244.576 -36.2457 245.232 -36.1531 245.887 -36.0583L245.815 -35.5635C246.476 -35.4679 247.135 -35.3703 247.793 -35.2705L247.868 -35.7649C248.527 -35.6649 249.185 -35.5629 249.842 -35.4588L249.763 -34.965C250.419 -34.8611 251.074 -34.7551 251.727 -34.647L251.808 -35.1403C252.463 -35.0321 253.116 -34.9218 253.768 -34.8094L253.683 -34.3167C254.335 -34.2042 254.987 -34.0896 255.637 -33.973L255.725 -34.4651C256.383 -34.3471 257.04 -34.227 257.695 -34.1048L257.604 -33.6132C258.258 -33.4912 258.911 -33.3671 259.562 -33.241L259.658 -33.7319C260.31 -33.6055 260.962 -33.477 261.612 -33.3465L261.513 -32.8563C262.162 -32.726 262.81 -32.5936 263.456 -32.4593L263.558 -32.9488C264.208 -32.8136 264.857 -32.6763 265.504 -32.537L265.399 -32.0482C266.052 -31.9078 266.702 -31.7653 267.352 -31.6207L267.461 -32.1088C268.111 -31.964 268.76 -31.8171 269.408 -31.6681L269.296 -31.1809C269.943 -31.0322 270.588 -30.8814 271.232 -30.7286L271.347 -31.2151C271.992 -31.062 272.635 -30.9068 273.277 -30.7496L273.158 -30.264C273.803 -30.106 274.447 -29.946 275.089 -29.784L275.211 -30.2688C275.859 -30.1052 276.506 -29.9395 277.15 -29.7718L277.024 -29.2879C277.668 -29.1205 278.31 -28.951 278.951 -28.7794L279.08 -29.2624C279.722 -29.0905 280.362 -28.9166 281 -28.7406L280.868 -28.2586C281.505 -28.083 282.141 -27.9053 282.775 -27.7255L282.911 -28.2066C283.553 -28.0247 284.193 -27.8407 284.831 -27.6547L284.691 -27.1747C285.331 -26.9882 285.97 -26.7996 286.607 -26.609L286.75 -27.0879C287.388 -26.8969 288.024 -26.7039 288.658 -26.5088L288.511 -26.0309C289.145 -25.8361 289.776 -25.6393 290.406 -25.4405L290.556 -25.9173C291.187 -25.7181 291.817 -25.5168 292.444 -25.3135L292.29 -24.8379C292.926 -24.632 293.559 -24.424 294.191 -24.2139L294.349 -24.6884C294.982 -24.4779 295.614 -24.2653 296.243 -24.0507L296.082 -23.5774C296.711 -23.3632 297.337 -23.1469 297.962 -22.9286L298.127 -23.4006C298.753 -23.1819 299.377 -22.9611 299.999 -22.7383L299.83 -22.2675C300.454 -22.044 301.077 -21.8183 301.697 -21.5907L301.869 -22.0601C302.497 -21.8296 303.123 -21.5971 303.747 -21.3626L303.571 -20.8945C304.194 -20.6604 304.815 -20.4243 305.434 -20.1861L305.613 -20.6527C306.233 -20.414 306.851 -20.1733 307.467 -19.9305L307.284 -19.4654C307.898 -19.2231 308.511 -18.9788 309.121 -18.7325L309.308 -19.1962C309.928 -18.9463 310.545 -18.6943 311.161 -18.4402L310.97 -17.978C311.586 -17.7236 312.2 -17.4671 312.812 -17.2086L313.007 -17.6692C313.62 -17.4101 314.231 -17.149 314.839 -16.8859L314.641 -16.4269C315.248 -16.1644 315.854 -15.8997 316.457 -15.6331L316.659 -16.0904C317.266 -15.8219 317.871 -15.5514 318.474 -15.2789L318.268 -14.8233C318.876 -14.5481 319.483 -14.2708 320.087 -13.9915L320.297 -14.4453C320.902 -14.1654 321.505 -13.8835 322.105 -13.5995L321.891 -13.1475C322.491 -12.8641 323.087 -12.5787 323.682 -12.2913L323.899 -12.7415C324.495 -12.4534 325.088 -12.1634 325.679 -11.8713L325.458 -11.4231C326.056 -11.1273 326.652 -10.8294 327.246 -10.5295L327.471 -10.9758C328.068 -10.6745 328.661 -10.3713 329.252 -10.0659L329.023 -9.62172C329.613 -9.31708 330.2 -9.01043 330.784 -8.70177L331.018 -9.14392C331.604 -8.83455 332.187 -8.52317 332.768 -8.20979L332.53 -7.76977C333.115 -7.45415 333.698 -7.1365 334.277 -6.81685L334.519 -7.25467C335.104 -6.93161 335.687 -6.60649 336.268 -6.27934L336.022 -5.8438C336.601 -5.51741 337.177 -5.18901 337.751 -4.8586L338 -5.29183C338.575 -4.96063 339.147 -4.62742 339.716 -4.29222L339.463 -3.86138C340.033 -3.52536 340.601 -3.18734 341.166 -2.84733L341.424 -3.27572C341.997 -2.93031 342.568 -2.58285 343.136 -2.23336L342.874 -1.80751C343.441 -1.45888 344.005 -1.10823 344.565 -0.755582L344.831 -1.17882C345.393 -0.825287 345.952 -0.469743 346.509 -0.112214L346.238 0.308345C346.793 0.66547 347.346 1.02458 347.895 1.38565L348.17 0.967832C348.73 1.3361 349.287 1.70642 349.841 2.07875L349.562 2.49373C350.115 2.8651 350.664 3.23849 351.21 3.61387L351.493 3.20183C352.041 3.57819 352.585 3.95656 353.126 4.33691L352.839 4.74596C353.378 5.1253 353.915 5.50661 354.448 5.88986L354.74 5.48388C355.284 5.87523 355.825 6.26861 356.363 6.664L356.066 7.06679C356.603 7.46138 357.136 7.85798 357.665 8.25655L357.966 7.85706C358.497 8.25674 359.025 8.65841 359.549 9.06204L359.244 9.45817C359.766 9.86068 360.285 10.2651 360.801 10.6715L361.111 10.2788C361.637 10.6937 362.16 11.1106 362.679 11.5295L362.365 11.9186C362.883 12.3368 363.397 12.757 363.908 13.1792L364.227 12.7938C364.739 13.2172 365.248 13.6426 365.752 14.07L365.429 14.4516C365.933 14.8777 366.432 15.3057 366.928 15.7356L367.255 15.3579C367.762 15.7972 368.265 16.2386 368.763 16.6819L368.431 17.0556C368.929 17.4979 369.422 17.9421 369.912 18.3882L370.249 18.0187C370.74 18.4662 371.227 18.9157 371.71 19.3671L371.368 19.7324C371.85 20.1831 372.329 20.6358 372.803 21.0903L373.149 20.7294C373.633 21.1935 374.113 21.6596 374.588 22.1276L374.237 22.4839C374.711 22.9504 375.181 23.4189 375.646 23.8892L376.002 23.5375C376.469 24.0094 376.931 24.4832 377.39 24.9589L377.03 25.3058C377.489 25.7825 377.943 26.261 378.394 26.7414L378.759 26.3994C379.217 26.8881 379.67 27.3788 380.119 27.8713L379.75 28.2081C380.197 28.699 380.64 29.1917 381.078 29.6863L381.452 29.3547C381.892 29.8511 382.327 30.3494 382.757 30.8495L382.378 31.1756C382.811 31.6789 383.24 32.1841 383.663 32.6911L384.047 32.3706C384.476 32.8838 384.9 33.399 385.319 33.916L384.93 34.2308C385.347 34.7459 385.76 35.2628 386.167 35.7815L386.561 35.4727C386.97 35.9934 387.374 36.516 387.773 37.0404L387.375 37.3431C387.778 37.8736 388.177 38.4059 388.57 38.94L388.973 38.6436C389.369 39.181 389.759 39.7204 390.144 40.2615L389.737 40.5515C390.121 41.0904 390.499 41.6312 390.872 42.1737L391.284 41.8903C391.66 42.4375 392.031 42.9865 392.397 43.5372L391.98 43.8137C392.349 44.3688 392.712 44.9258 393.069 45.4844L393.49 45.215C393.849 45.7761 394.202 46.3389 394.55 46.9035L394.124 47.1657C394.47 47.7278 394.81 48.2917 395.145 48.8572L395.575 48.6025C395.915 49.1768 396.25 49.7529 396.578 50.3306L396.143 50.5776C396.471 51.1552 396.793 51.7345 397.11 52.3155L397.549 52.0764C397.867 52.66 398.179 53.2454 398.484 53.8324L398.041 54.0634C398.346 54.6494 398.646 55.2371 398.939 55.8264L399.386 55.6037C399.684 56.2018 399.976 56.8017 400.261 57.4031L399.809 57.6173C400.093 58.2159 400.37 58.8161 400.641 59.4179L401.097 59.2124C401.37 59.8171 401.636 60.4235 401.896 61.0313L401.436 61.2279C401.697 61.838 401.951 62.4496 402.199 63.0627L402.663 62.8753C402.913 63.493 403.156 64.1123 403.392 64.7331L402.925 64.9111C403.16 65.5288 403.389 66.1479 403.611 66.7685L404.082 66.6C404.306 67.2257 404.523 67.8529 404.734 68.4815L404.26 68.6403C404.47 69.2688 404.674 69.8988 404.871 70.5302L405.348 70.3814C405.546 71.0162 405.737 71.6524 405.921 72.29L405.44 72.4287C405.623 73.0629 405.8 73.6984 405.969 74.3354L406.452 74.2069C406.623 74.8504 406.787 75.4952 406.944 76.1413L406.458 76.2593C406.614 76.9019 406.763 77.5459 406.905 78.1911L407.393 78.0838C407.536 78.7326 407.671 79.3827 407.799 80.0341L407.309 80.1307C407.436 80.7789 407.557 81.4283 407.67 82.079L408.162 81.9933C408.276 82.6479 408.383 83.3037 408.482 83.9607L407.988 84.0354C408.087 84.6887 408.178 85.3432 408.262 85.9988L408.758 85.9352C408.842 86.594 408.92 87.254 408.989 87.915L408.492 87.9674C408.561 88.6233 408.623 89.2803 408.677 89.9384L409.176 89.8972C409.23 90.559 409.277 91.2219 409.317 91.8858L408.818 91.9157C408.858 92.5758 408.89 93.2369 408.914 93.899L409.414 93.8805C409.438 94.5421 409.455 95.2046 409.465 95.8681L408.965 95.8753C408.975 96.5345 408.977 97.1946 408.971 97.8556L409.471 97.8598Z" stroke="#404040" stroke-dasharray="2 2"/>
<path d="M397.217 -83.4467C423.465 -57.4919 428.096 -14.4909 414.168 34.1954C400.246 82.8615 367.807 137.082 320.13 185.298C272.452 233.515 218.6 266.562 170.093 281.03C121.567 295.505 78.5164 291.357 52.2681 265.403C26.0198 239.448 21.3886 196.447 35.3165 147.76C49.2385 99.0943 81.6782 44.8735 129.355 -3.34268C177.032 -51.5589 230.885 -84.6061 279.391 -99.0745C327.918 -113.549 370.968 -109.402 397.217 -83.4467Z" stroke="#5E5FF5"/>
<circle cx="232.176" cy="58.1772" r="4" transform="rotate(21.2343 232.176 58.1772)" fill="#5E5FF5"/>
<circle cx="252.178" cy="188.177" r="4" transform="rotate(21.2343 252.178 188.177)" fill="#595959"/>
<circle cx="363.749" cy="71.9559" r="7.5" transform="rotate(21.2343 363.749 71.9559)" fill="#F3F3FC" stroke="#404040"/>
<circle cx="104.178" cy="24.1772" r="3.5" transform="rotate(21.2343 104.178 24.1772)" fill="#F3F3FC" stroke="#404040"/>
<circle cx="27.1781" cy="198.177" r="4" transform="rotate(21.2343 27.1781 198.177)" fill="#5E5FF5"/>
<circle cx="382.176" cy="163.177" r="4" transform="rotate(21.2343 382.176 163.177)" fill="#5E5FF5"/>
<circle cx="159.765" cy="160.766" r="5.5" transform="rotate(21.2343 159.765 160.766)" fill="#DADAFB" stroke="#5E5FF5"/>
<circle cx="168.604" cy="281.505" r="3.5" transform="rotate(21.2343 168.604 281.505)" fill="#DADAFB" stroke="#5E5FF5"/>
</svg>
