<svg width="167" height="136" viewBox="0 0 167 136" fill="none" xmlns="http://www.w3.org/2000/svg">
<g clip-path="url(#clip0_2097_48160)">
<path d="M165.971 82.5587L82.9665 0.153809L0.528735 82.5587H165.971Z" fill="white"/>
<path d="M165.375 82.1781C166.66 82.9206 166.666 84.1255 165.39 84.8681L85.8657 131.153C84.5902 131.895 82.5146 131.895 81.2293 131.153L1.18212 84.8681C-0.101201 84.1255 -0.109027 82.9206 1.16843 82.1781L80.6933 35.8934C81.9687 35.1508 84.0444 35.1508 85.3296 35.8934L165.375 82.1781Z" fill="white"/>
<path d="M82.7334 49.2502L142.459 83.7913L82.7725 118.352L23.0081 83.7913L82.7334 49.2502Z" fill="white"/>
<path d="M64.2451 57.9295L66.0253 56.8911C67.2774 56.1662 69.0184 56.2642 70.9356 57.3613L69.1554 58.3997C67.2382 57.3026 65.4971 57.2046 64.2451 57.9295Z" fill="white"/>
<path d="M64.2451 57.9295L66.0253 56.8911C67.2774 56.1662 69.0184 56.2642 70.9356 57.3613L69.1554 58.3997C67.2382 57.3026 65.4971 57.2046 64.2451 57.9295Z" fill="white"/>
<path d="M69.1567 58.4205C65.342 56.2066 62.2315 57.9895 62.2119 62.3782C62.1924 66.7668 65.3029 72.1351 69.098 74.3294C72.9128 76.5433 76.0233 74.7604 76.0428 70.3718C76.0624 65.9831 72.9715 60.6148 69.1567 58.4205Z" fill="white"/>
<path d="M82.858 21.216L142.681 83.7936L82.8971 118.413L82.858 21.216Z" fill="white"/>
<path d="M81.3235 131.138L1.27831 84.8552V84.8729C1.23527 84.8474 1.19223 84.8219 1.15115 84.7945C1.13746 84.7867 1.12572 84.7769 1.11202 84.769C1.08464 84.7514 1.05921 84.7338 1.03377 84.7142C1.02008 84.7044 1.00443 84.6926 0.990735 84.6828C0.96726 84.6652 0.945741 84.6476 0.924222 84.6299C0.910528 84.6182 0.896834 84.6084 0.88314 84.5966C0.861621 84.579 0.842058 84.5613 0.822495 84.5437C0.808801 84.53 0.793151 84.5182 0.779457 84.5045C0.771632 84.4967 0.763807 84.4889 0.755981 84.481C0.738375 84.4634 0.718812 84.4438 0.703162 84.4242C0.697293 84.4183 0.691424 84.4105 0.685555 84.4046C0.66208 84.3791 0.640561 84.3537 0.620998 84.3282C0.617085 84.3223 0.613173 84.3184 0.60926 84.3125C0.59361 84.2929 0.579916 84.2733 0.566222 84.2557C0.54079 84.2204 0.517315 84.1871 0.497752 84.1519V84.148C0.476233 84.1146 0.45667 84.0794 0.44102 84.0461C0.435151 84.0343 0.431239 84.0245 0.42537 84.0128C0.413632 83.9893 0.403851 83.9638 0.394069 83.9403C0.390157 83.9285 0.384288 83.9168 0.380375 83.905C0.370594 83.8776 0.362769 83.8501 0.354944 83.8227C0.352987 83.8149 0.351031 83.807 0.349075 83.7992C0.339293 83.7639 0.333425 83.7287 0.327556 83.6934C0.327556 83.6836 0.325599 83.6758 0.323643 83.666C0.319731 83.6386 0.317774 83.6131 0.315818 83.5857C0.315818 83.5641 0.313862 83.5426 0.313862 83.519L0.302124 87.6001C0.302124 87.6158 0.302124 87.6334 0.302124 87.6491C0.302124 87.655 0.302124 87.6608 0.302124 87.6667C0.302124 87.6941 0.306037 87.7196 0.309949 87.747C0.309949 87.7568 0.309949 87.7647 0.313862 87.7745C0.319731 87.8097 0.325599 87.845 0.335381 87.8803V87.8842C0.335381 87.8842 0.339293 87.8959 0.34125 87.9018C0.349075 87.9293 0.3569 87.9567 0.366681 87.9841C0.370594 87.9959 0.374506 88.0076 0.380375 88.0194C0.390157 88.0429 0.399938 88.0684 0.411676 88.0919C0.415588 88.0997 0.417545 88.1056 0.421457 88.1134C0.421457 88.1173 0.42537 88.1213 0.427326 88.1252C0.444933 88.1604 0.462539 88.1937 0.482102 88.2271V88.231C0.505577 88.2662 0.529053 88.3015 0.552528 88.3348C0.554484 88.3387 0.556441 88.3426 0.560353 88.3466C0.572091 88.3622 0.583829 88.3779 0.595566 88.3936C0.599479 88.3995 0.603391 88.4034 0.607304 88.4093C0.626867 88.4347 0.650342 88.4602 0.671861 88.4857C0.67773 88.4915 0.683599 88.4994 0.689468 88.5053C0.707074 88.5249 0.724681 88.5425 0.744244 88.5621C0.752069 88.5699 0.759894 88.5778 0.767719 88.5856C0.773588 88.5915 0.779457 88.5973 0.787282 88.6052C0.795107 88.613 0.802932 88.6189 0.810757 88.6267C0.83032 88.6444 0.849883 88.662 0.871402 88.6796C0.885096 88.6914 0.89879 88.7031 0.912484 88.7129C0.934003 88.7306 0.957479 88.7482 0.978998 88.7658C0.992692 88.7756 1.00639 88.7874 1.02204 88.7972C1.04747 88.8148 1.07486 88.8344 1.10224 88.852C1.11594 88.8599 1.12768 88.8697 1.14137 88.8775C1.18245 88.903 1.22353 88.9304 1.26853 88.9559V88.9383L81.3137 135.223L81.3255 131.142L81.3235 131.138Z" fill="#5E5FF5"/>
<path d="M85.5554 135.384C85.573 135.376 85.5906 135.368 85.6082 135.36C85.6356 135.346 85.663 135.333 85.6923 135.319C85.706 135.311 85.7197 135.305 85.7334 135.297C85.7745 135.276 85.8156 135.254 85.8547 135.231L85.8664 131.15C85.8273 131.173 85.7862 131.195 85.7452 131.216C85.7315 131.224 85.7178 131.23 85.7041 131.236C85.6767 131.25 85.6473 131.265 85.62 131.279C85.6023 131.287 85.5867 131.295 85.5691 131.303C85.5437 131.314 85.5182 131.326 85.4908 131.338C85.4713 131.346 85.4537 131.354 85.4341 131.361C85.4087 131.371 85.3852 131.381 85.3598 131.391C85.2952 131.416 85.2287 131.44 85.1622 131.461C85.1485 131.465 85.1328 131.471 85.1192 131.475C85.0526 131.497 84.9842 131.516 84.9157 131.534C84.904 131.538 84.8903 131.54 84.8785 131.544C84.8316 131.555 84.7827 131.567 84.7338 131.579C84.7162 131.583 84.6985 131.587 84.679 131.591C84.6281 131.602 84.5753 131.612 84.5225 131.622C84.5127 131.622 84.5029 131.626 84.4931 131.628C84.4344 131.638 84.3758 131.647 84.3151 131.655C84.2995 131.657 84.2838 131.659 84.2662 131.661C84.2212 131.667 84.1782 131.673 84.1332 131.677C84.1136 131.679 84.0921 131.681 84.0725 131.683C84.0295 131.687 83.9845 131.691 83.9395 131.692C83.9219 131.692 83.9043 131.694 83.8867 131.696C83.826 131.7 83.7654 131.702 83.7028 131.704C83.6969 131.704 83.6911 131.704 83.6852 131.704C83.6265 131.704 83.5678 131.704 83.5091 131.704C83.4896 131.704 83.472 131.704 83.4524 131.704C83.4035 131.704 83.3526 131.702 83.3037 131.7C83.2881 131.7 83.2724 131.7 83.2568 131.7C83.1844 131.696 83.112 131.69 83.0396 131.685C83.024 131.685 83.0083 131.681 82.9927 131.681C82.9222 131.673 82.8538 131.665 82.7853 131.657H82.7716C82.7149 131.647 82.6562 131.638 82.5995 131.628C82.5838 131.626 82.5662 131.622 82.5506 131.618C82.5095 131.61 82.4703 131.602 82.4293 131.594C82.4097 131.591 82.3882 131.587 82.3686 131.581C82.3314 131.573 82.2943 131.563 82.2591 131.555C82.2395 131.549 82.2199 131.546 82.2004 131.54C82.1613 131.53 82.1221 131.518 82.085 131.508C82.0693 131.504 82.0537 131.5 82.038 131.495C81.9734 131.475 81.9108 131.455 81.8482 131.432C81.8346 131.426 81.8189 131.422 81.8052 131.416C81.7485 131.395 81.6917 131.373 81.637 131.352C81.6291 131.35 81.6233 131.346 81.6155 131.344C81.5548 131.318 81.4961 131.291 81.4394 131.263C81.4257 131.258 81.412 131.25 81.3983 131.244C81.3416 131.216 81.2868 131.187 81.234 131.156L81.2262 131.152L81.2144 135.233H81.2164L81.2203 135.237C81.2731 135.268 81.3298 135.297 81.3866 135.325C81.4003 135.331 81.414 135.339 81.4276 135.344C81.4844 135.372 81.5431 135.399 81.6037 135.425C81.6115 135.429 81.6174 135.431 81.6252 135.433C81.68 135.456 81.7367 135.478 81.7935 135.497C81.8072 135.503 81.8228 135.507 81.8365 135.513C81.8991 135.534 81.9617 135.556 82.0263 135.576C82.0302 135.576 82.0321 135.578 82.036 135.58C82.0478 135.583 82.0615 135.585 82.0732 135.589C82.1123 135.601 82.1495 135.611 82.1886 135.621C82.2082 135.627 82.2278 135.63 82.2473 135.636C82.2845 135.646 82.3197 135.654 82.3569 135.662C82.3764 135.666 82.396 135.672 82.4175 135.676C82.4586 135.683 82.4977 135.691 82.5388 135.699C82.5545 135.703 82.5721 135.705 82.5877 135.709C82.6445 135.719 82.7012 135.728 82.7599 135.736H82.7638C82.7638 135.736 82.7716 135.736 82.7755 135.736C82.844 135.746 82.9144 135.754 82.9829 135.76C82.9985 135.76 83.0142 135.764 83.0298 135.764C83.1022 135.77 83.1727 135.775 83.245 135.779C83.2489 135.779 83.2529 135.779 83.2587 135.779C83.2705 135.779 83.2822 135.779 83.292 135.779C83.3409 135.781 83.3918 135.783 83.4407 135.783C83.4602 135.783 83.4778 135.783 83.4974 135.783C83.5561 135.783 83.6148 135.783 83.6715 135.783C83.6774 135.783 83.6813 135.783 83.6872 135.783H83.6911C83.7517 135.783 83.8124 135.779 83.875 135.775C83.8926 135.775 83.9102 135.774 83.9278 135.772C83.9728 135.768 84.0158 135.766 84.0608 135.762C84.0706 135.762 84.0823 135.762 84.0921 135.76C84.1019 135.76 84.1117 135.758 84.1214 135.756C84.1664 135.752 84.2114 135.746 84.2564 135.74C84.2721 135.738 84.2877 135.736 84.3034 135.734C84.3621 135.726 84.4227 135.717 84.4814 135.707H84.4873C84.4873 135.707 84.5029 135.703 84.5108 135.701C84.5636 135.691 84.6144 135.681 84.6673 135.67C84.6849 135.666 84.7025 135.662 84.722 135.658C84.7709 135.646 84.8179 135.636 84.8668 135.623C84.8766 135.621 84.8864 135.619 84.8961 135.615C84.8981 135.615 84.902 135.615 84.904 135.613C84.9724 135.595 85.0409 135.576 85.1074 135.554C85.1211 135.55 85.1368 135.544 85.1504 135.54C85.217 135.519 85.2835 135.495 85.348 135.47H85.352C85.3754 135.46 85.3989 135.45 85.4224 135.44C85.4419 135.433 85.4615 135.425 85.4811 135.417C85.5065 135.405 85.5319 135.393 85.5574 135.382L85.5554 135.384Z" fill="#5E5FF5"/>
<path d="M51.6678 88.3367C53.585 89.4534 55.15 92.1572 55.15 94.3711L55.1305 102.404L48.1661 98.3679L48.1857 90.3351C48.1661 88.1212 49.7507 87.2199 51.6678 88.3367Z" fill="#5E5FF5"/>
<path d="M83.118 0L82.8146 0.000521412L0.757468 82.025H1.36698L82.967 0.457391L165.129 82.025H165.74L83.118 0Z" fill="#1A1A1A"/>
<path d="M0.264784 88.4004C0.448252 88.6707 0.722773 88.9151 1.07483 89.1189L81.1221 135.404C81.805 135.798 82.6845 135.989 83.5514 135.989C84.4182 135.989 85.2956 135.798 85.9739 135.403L165.499 89.1185C165.849 88.9149 166.6 88.4 166.558 87.611L165.744 88.4004C165.622 88.5205 165.469 88.6368 165.283 88.7455L85.7578 135.03C85.1607 135.378 84.3626 135.558 83.5514 135.558C82.7402 135.558 81.9393 135.378 81.337 135.03L1.28987 88.7451C1.10231 88.6366 0.948458 88.5205 0.825426 88.4004H0.264784Z" fill="#1A1A1A"/>
<path d="M112.039 51.5862L165.268 82.3648C165.871 82.7135 166.126 83.1409 166.128 83.5241C166.13 83.9068 165.881 84.3332 165.283 84.6814L85.7578 130.966C85.1607 131.314 84.3626 131.494 83.5514 131.494C82.7403 131.494 81.9393 131.314 81.337 130.966L1.28987 84.6811C0.68728 84.3324 0.531746 83.9275 0.529629 83.5442C0.527515 83.1616 0.677672 82.7127 1.2767 82.3645L80.8016 36.0798C81.2607 35.8125 81.8386 35.6442 82.45 35.5807V35.1472C81.7734 35.2121 81.1181 35.3966 80.5854 35.7067L1.0606 81.9914C0.382241 82.3857 -0.00324529 82.933 2.05844e-05 83.5241C0.003283 84.1146 0.39413 84.6609 1.07483 85.0548L81.1221 131.34C81.805 131.734 82.6845 131.925 83.5514 131.925C84.4182 131.925 85.2956 131.734 85.9739 131.339L165.499 85.0545C166.176 84.6601 166.562 84.1128 166.558 83.5217C166.555 82.9312 166.164 82.3849 165.483 81.991L111.029 50.5042L112.039 51.5862Z" fill="#1A1A1A"/>
<path d="M165.391 84.8661L85.8663 131.151L85.8546 135.232L165.379 88.9472C166.013 88.5789 166.556 88.0949 166.558 87.611L166.558 83.5217C166.558 84.0057 166.025 84.4958 165.391 84.8661Z" fill="#1A1A1A"/>
<path fill-rule="evenodd" clip-rule="evenodd" d="M0.0984818 83.5191L0.528863 83.5198C0.528863 83.5261 0.529121 83.5328 0.529629 83.5442L0.529709 83.546C0.530071 83.5541 0.530576 83.5655 0.530754 83.5777C0.532292 83.5988 0.533643 83.6147 0.535684 83.6304L0.5384 83.6449C0.539593 83.6521 0.540779 83.6606 0.541576 83.6703C0.546718 83.7008 0.550658 83.7221 0.556211 83.7421L0.55771 83.7476L0.562634 83.7676C0.570259 83.7943 0.576051 83.8141 0.582818 83.8331L0.58375 83.8357L0.585641 83.8403L0.590699 83.8527C0.591924 83.8558 0.593346 83.8595 0.594852 83.8637C0.597567 83.8702 0.599898 83.8759 0.60197 83.881C0.608468 83.8969 0.612411 83.9065 0.617617 83.9169C0.622367 83.9265 0.626227 83.935 0.628568 83.9401L0.633267 83.9503L0.635561 83.9548C0.646946 83.9791 0.661711 84.0059 0.67818 84.0314L0.683371 84.049L0.685632 84.0478C0.697947 84.07 0.713934 84.0932 0.738267 84.1271C0.75088 84.1434 0.755645 84.15 0.759582 84.1555C0.763672 84.1612 0.76687 84.1657 0.777045 84.1784L0.788744 84.1931C0.790376 84.1952 0.791944 84.1979 0.793963 84.2007C0.808147 84.219 0.823974 84.2377 0.841555 84.2569C0.845223 84.2607 0.848281 84.2641 0.850541 84.2667L0.857495 84.2747C0.859064 84.2765 0.85935 84.2768 0.85935 84.2768L0.855064 84.2723L0.870947 84.2901C0.877789 84.2987 0.888456 84.3097 0.907883 84.3291L0.931341 84.3526C0.931341 84.3526 0.931951 84.3532 0.933566 84.3547L0.941635 84.3618L0.942793 84.3628C0.948639 84.3678 0.958849 84.3767 0.969607 84.3871C0.988073 84.4037 1.00313 84.4172 1.01914 84.4303L1.02296 84.4334L1.03635 84.4443C1.04231 84.449 1.05225 84.4568 1.06188 84.465C1.08279 84.4821 1.10025 84.4964 1.11872 84.5103L1.15858 84.5393L1.16479 84.5437C1.18358 84.5582 1.20281 84.5718 1.22471 84.586C1.23723 84.5935 1.24768 84.6008 1.25273 84.6043C1.25579 84.6064 1.25918 84.6088 1.25918 84.6088L1.27053 84.6152C1.3013 84.6358 1.33373 84.6559 1.37059 84.6778L1.38564 84.6691L81.4308 130.952L81.5158 131.042L81.5177 131.046L81.5405 131.143L81.5287 135.224L81.206 135.411L1.17767 89.1356L1.16253 89.1444C1.12633 89.124 1.08892 89.1002 1.05858 89.081C1.04822 89.0744 1.03869 89.0684 1.03031 89.0631C1.01692 89.0552 1.00563 89.0474 1.00031 89.0437C0.997238 89.0416 0.993847 89.0392 0.993847 89.0392L0.985606 89.0345C0.960746 89.0185 0.935129 89.0002 0.914632 88.9859C0.910418 88.983 0.906428 88.9802 0.902715 88.9776C0.888788 88.9686 0.877217 88.9599 0.869609 88.9542L0.853808 88.9422L0.842325 88.9339C0.833679 88.9269 0.824586 88.9191 0.812995 88.91C0.80364 88.9027 0.791977 88.8936 0.781015 88.8847C0.761805 88.8705 0.744381 88.8555 0.733219 88.8459L0.731244 88.8442L0.871212 88.6804L0.735022 88.8474C0.709586 88.8265 0.68685 88.806 0.668035 88.7891L0.658265 88.7803L0.657218 88.7791C0.653489 88.7758 0.644155 88.7677 0.635 88.7585L0.5905 88.7139C0.572711 88.6961 0.552674 88.6761 0.532206 88.6535C0.528929 88.65 0.526179 88.647 0.524102 88.6447L0.517148 88.6366L0.506893 88.6263C0.503664 88.6225 0.49952 88.6166 0.493906 88.6101C0.477648 88.5914 0.453833 88.564 0.436608 88.5416L0.427705 88.53C0.425749 88.5274 0.42348 88.5243 0.420996 88.5208L0.392525 88.4827C0.382339 88.4704 0.374659 88.4587 0.369296 88.4496C0.346662 88.4171 0.324416 88.3837 0.303691 88.3526L0.298296 88.3362L0.296476 88.3372C0.275522 88.3016 0.256945 88.2666 0.23929 88.2316C0.235373 88.2251 0.228693 88.2134 0.22257 88.1983C0.221677 88.1961 0.220757 88.1938 0.219829 88.1912L0.218863 88.189L0.218138 88.1873C0.205243 88.1612 0.193336 88.132 0.185882 88.1137C0.185055 88.1116 0.184284 88.1097 0.183572 88.108C0.173049 88.0854 0.166277 88.0649 0.163016 88.0551L0.162363 88.0531L0.366484 87.9848L0.163859 88.0574C0.152052 88.0243 0.142789 87.9921 0.135448 87.9664L0.131235 87.9537L0.12869 87.9385C0.117085 87.8967 0.109045 87.8563 0.103685 87.8243C0.0972926 87.8 0.0953363 87.7788 0.0947637 87.7646C0.0913197 87.7406 0.0867432 87.7054 0.0867432 87.6674V87.6013L0.0984818 83.5191ZM0.176913 83.9765C0.165071 83.9431 0.155815 83.9107 0.148509 83.885L0.145883 83.8758L0.14075 83.8548C0.128369 83.8094 0.121096 83.7657 0.115684 83.7331L0.115108 83.7296L0.114062 83.717M0.114062 83.717L0.112175 83.6941L0.112408 83.697C0.112501 83.7016 0.113043 83.7056 0.113392 83.7089C0.113708 83.7119 0.114062 83.717 0.114062 83.717ZM0.5259 84.5502L0.527311 84.5517L0.530356 84.555L0.537796 84.5636C0.537796 84.5636 0.539944 84.566 0.541234 84.5674C0.562946 84.5936 0.586616 84.6173 0.601341 84.632L0.627175 84.6579C0.639611 84.6703 0.65207 84.6811 0.65878 84.6869L0.659938 84.6879L0.668007 84.695C0.669792 84.6966 0.670214 84.697 0.670214 84.697L0.679788 84.7061C0.698161 84.7226 0.720272 84.7426 0.744984 84.7629C0.754653 84.7711 0.763772 84.7783 0.769757 84.783L0.784063 84.7945L0.789192 84.7988C0.809963 84.8158 0.834425 84.8358 0.861508 84.8562L0.865546 84.8591L0.904655 84.8876C0.935005 84.9109 0.964838 84.9315 0.995546 84.9512L1.00361 84.9562C1.00361 84.9562 1.00592 84.9578 1.00898 84.9599C1.01383 84.9633 1.02474 84.9708 1.0366 84.978C1.08107 85.0075 1.12653 85.0344 1.16674 85.0582L1.16872 85.0594L1.18404 85.0506L81.1097 131.264L81.0994 134.851L1.37586 88.7521L1.36059 88.761C1.33978 88.7488 1.32096 88.7368 1.29945 88.7231C1.28588 88.7145 1.27125 88.7052 1.25437 88.6948L1.24939 88.6918C1.24939 88.6918 1.24708 88.6902 1.244 88.6881C1.23897 88.6846 1.22748 88.6766 1.215 88.6691C1.1989 88.6586 1.1833 88.6477 1.16528 88.6351C1.15865 88.6305 1.15169 88.6257 1.14426 88.6205L1.13595 88.615C1.13595 88.615 1.1342 88.6138 1.12958 88.6103L1.11936 88.6025L1.1113 88.5965C1.09994 88.5873 1.08858 88.5784 1.07888 88.5708C1.06729 88.5617 1.05713 88.5537 1.04848 88.5466L1.03729 88.5381C1.03275 88.5348 1.02643 88.5296 1.01118 88.5165L1.0074 88.5133C0.991314 88.5002 0.976196 88.4866 0.957613 88.4699C0.950441 88.463 0.944141 88.4575 0.941108 88.4548L0.937922 88.452L0.896146 88.4102C0.875978 88.39 0.862369 88.3763 0.849161 88.3616L0.844288 88.3563L0.836847 88.3477C0.835436 88.3461 0.833713 88.3442 0.831725 88.3421C0.82124 88.3297 0.813086 88.3204 0.806163 88.3125C0.795997 88.3009 0.788485 88.2923 0.780147 88.2816C0.77657 88.2767 0.773424 88.2726 0.771389 88.27L0.732258 88.2178L0.728088 88.2111C0.70898 88.1839 0.689609 88.155 0.668863 88.1239L0.667348 88.1183C0.651001 88.0905 0.635756 88.0618 0.619573 88.0294C0.617673 88.0255 0.615777 88.022 0.614007 88.0189C0.612483 88.0153 0.608773 88.0058 0.603923 87.996C0.598717 87.9856 0.594774 87.976 0.588275 87.9601C0.585626 87.9536 0.582553 87.9461 0.578796 87.9371L0.573856 87.926L0.570621 87.9166L0.569124 87.9122C0.562068 87.8924 0.55607 87.8717 0.547957 87.8432L0.543218 87.8284L0.542517 87.8232C0.536282 87.8007 0.53208 87.7767 0.52593 87.7397L0.52385 87.7323L0.522784 87.7172C0.518244 87.6854 0.517125 87.6764 0.517125 87.6674V87.6013L0.5259 84.5502ZM0.522894 87.7288C0.52228 87.7252 0.521519 87.7214 0.520594 87.7175C0.518841 87.7102 0.516498 87.7027 0.513446 87.695L0.522894 87.7288ZM0.615014 88.0204C0.616366 88.023 0.618141 88.0261 0.619573 88.0294C0.620426 88.0313 0.6204 88.0337 0.621249 88.0358C0.627776 88.0519 0.636458 88.0792 0.636458 88.1141L0.615014 88.0204ZM0.728834 88.2138L0.728088 88.2111C0.723846 88.2056 0.71797 88.2004 0.712255 88.1947L0.728834 88.2138ZM0.734254 88.2214C0.74234 88.2332 0.745922 88.2413 0.744775 88.239L0.734254 88.2214Z" fill="#1A1A1A"/>
<path d="M82.7324 21.0375L22.7724 83.7914L62.2164 60.9936C62.3818 60.3988 62.6467 59.5327 62.9 59.075C63.4146 58.1451 64.6 57.8 64.6 57.8L65.875 56.95L67.15 56.525H68.85L69.4988 56.7845L82.7715 49.1132V35.7L82.7324 21.0375Z" fill="#1A1A1A"/>
<path d="M82.7725 118.104L141.673 83.9983L141.95 84.15L142.566 83.7392L142.566 83.979L82.8802 118.54L82.665 118.54L22.9006 83.9791L22.9006 83.6054L62.3674 60.7804L62.2218 61.3627L23.4388 83.7922L82.7725 118.104Z" fill="#1A1A1A"/>
<path d="M69.8843 56.9312L82.7334 49.5002L82.875 49.582V49.0839L82.841 49.0643H82.6259L69.4843 56.6645L69.8843 56.9312Z" fill="#1A1A1A"/>
<path d="M75.8268 73.7783L74.0466 74.8167C75.2986 74.0918 76.0616 72.5636 76.0616 70.3693C76.0811 65.9806 72.9902 60.6124 69.1559 58.3984L70.9361 57.3601C74.7509 59.574 77.8418 64.9227 77.8418 69.3309C77.8418 71.5252 77.0593 73.0534 75.8268 73.7783Z" fill="#1A1A1A"/>
<path fill-rule="evenodd" clip-rule="evenodd" d="M66.1333 57.0779L65.8298 57.2549C66.8345 57.2017 67.9691 57.4937 69.1539 58.1512L70.4971 57.3678C68.7567 56.4685 67.2269 56.4449 66.1333 57.0779ZM64.1378 57.7427L64.3531 58.1163C65.5157 57.4432 67.1713 57.5125 69.049 58.5871L69.264 58.5862L71.0442 57.5478L71.0426 57.174C69.0861 56.0543 67.2595 55.9277 65.9181 56.7043L64.1378 57.7427Z" fill="#1A1A1A"/>
<path fill-rule="evenodd" clip-rule="evenodd" d="M70.8278 57.1735L71.0438 57.1733C72.9913 58.3035 74.7421 60.2254 76.0056 62.4145C77.2691 64.6036 78.0569 67.0798 78.0569 69.3308C78.0569 71.5729 77.2554 73.188 75.9356 73.9643L74.1736 74.9921C74.1671 74.9959 74.1606 74.9997 74.1541 75.0035L73.9383 74.6302C73.9442 74.6268 73.9506 74.623 73.9565 74.6196C75.1087 73.9423 75.8463 72.5068 75.8463 70.3692V70.3683C75.8559 68.2213 75.1032 65.8194 73.8675 63.6762C72.6319 61.5331 70.9252 59.6689 69.0484 58.5853L69.0476 58.2119L70.8278 57.1735ZM75.4336 73.758L75.7178 73.5922C76.8628 72.9186 77.6265 71.4774 77.6265 69.3308C77.6265 67.1736 76.8688 64.7714 75.6331 62.6306C74.4212 60.5308 72.7606 58.7018 70.9355 57.6099L69.5785 58.4014C71.4089 59.5506 73.0448 61.387 74.2401 63.4603C75.5036 65.6517 76.2865 68.1281 76.2767 70.3697C76.2766 71.7543 75.9782 72.9008 75.4336 73.758Z" fill="#1A1A1A"/>
<path fill-rule="evenodd" clip-rule="evenodd" d="M64.1345 57.7014C65.4977 56.9231 67.3302 57.0654 69.2841 58.1992C71.2395 59.3242 72.9949 61.2521 74.2584 63.4455C75.522 65.6389 76.3077 68.1222 76.2976 70.3724C76.2876 72.6211 75.4833 74.2691 74.1198 75.0475C72.7565 75.8258 70.9239 75.6835 68.9698 74.5494C67.0245 73.4245 65.2693 71.4968 64.0034 69.3036C62.7375 67.1104 61.9467 64.627 61.9567 62.3765C61.9667 60.1278 62.771 58.4798 64.1345 57.7014ZM64.3874 58.1443C63.237 58.801 62.4763 60.2388 62.4667 62.3788C62.4572 64.5169 63.2119 66.912 64.4451 69.0487C65.6783 71.1852 67.3758 73.0387 69.2255 74.1081C71.0861 75.188 72.7165 75.2614 73.867 74.6046C75.0173 73.9479 75.7781 72.5101 75.7876 70.3701C75.7972 68.2316 75.0472 65.8365 73.8165 63.7C72.5858 61.5637 70.8885 59.7105 69.0294 58.641L69.0285 58.6405C67.1678 57.5607 65.5378 57.4875 64.3874 58.1443Z" fill="#1A1A1A"/>
<path fill-rule="evenodd" clip-rule="evenodd" d="M64.7898 59.4967C65.8967 58.8652 67.3855 58.9824 68.97 59.8964L68.9709 59.8969C70.5561 60.8213 71.9792 62.3855 73.0031 64.1608C74.0268 65.9357 74.6631 67.942 74.6532 69.7625C74.6531 71.5914 74.004 72.9297 72.8963 73.5617C71.7895 74.1933 70.3007 74.076 68.7162 73.162C67.1403 72.2472 65.7167 70.6825 64.6905 68.9051C63.6645 67.1279 63.023 65.1167 63.0329 63.2959C63.0331 61.467 63.6822 60.1287 64.7898 59.4967ZM65.0027 59.8716C64.076 60.4004 63.4633 61.5599 63.4633 63.2965V63.2977C63.4538 65.0229 64.0644 66.9593 65.063 68.689C66.0614 70.4183 67.4356 71.9199 68.9308 72.7881C70.4373 73.657 71.7558 73.7161 72.6834 73.1868C73.6102 72.658 74.2229 71.4985 74.2229 69.7619L74.2229 69.7607C74.2324 68.0352 73.6265 66.1037 72.6305 64.3767C71.6346 62.6501 70.2604 61.1482 68.7549 60.2701C67.2486 59.4014 65.9303 59.3424 65.0027 59.8716Z" fill="#1A1A1A"/>
<path d="M78.8198 77.9724C82.6933 80.2255 82.7324 83.85 78.859 86.1031C75.0051 88.3562 68.7254 88.3562 64.852 86.1031C60.9785 83.85 60.959 80.2255 64.8129 77.9724C68.6667 75.7192 74.9464 75.7192 78.8198 77.9724Z" fill="#1A1A1A"/>
<path fill-rule="evenodd" clip-rule="evenodd" d="M82.643 21.2159L83.0136 21.0666L142.837 83.6441L142.789 83.9802L83.005 118.6L82.6821 118.413L82.643 21.2159ZM83.0736 21.7529L83.1124 118.039L142.336 83.7441L83.0736 21.7529Z" fill="#1A1A1A"/>
<path fill-rule="evenodd" clip-rule="evenodd" d="M49.3066 88.2744C48.7638 88.585 48.3909 89.2738 48.4002 90.3333L48.4003 90.3358L48.381 98.2438L54.9156 102.031L54.9342 94.3712C54.9342 93.3115 54.5581 92.119 53.941 91.0507C53.324 89.9824 52.4777 89.0584 51.5591 88.5234C50.6403 87.9881 49.8503 87.9632 49.3066 88.2744ZM49.0932 87.8997C49.8161 87.486 50.777 87.5688 51.7753 88.1503C52.7739 88.732 53.6688 89.7183 54.3135 90.8345C54.9582 91.9506 55.3646 93.2171 55.3646 94.3712L55.345 102.405L55.0221 102.591L48.0578 98.5548L47.9503 98.3675L47.9699 90.3359C47.96 89.1821 48.3695 88.3139 49.0932 87.8997Z" fill="#1A1A1A"/>
<path d="M166.175 82.875L165.742 82.025H165.325L166.175 82.875Z" fill="#1A1A1A"/>
<path d="M0.425116 82.875L0.765 82.025H1.27512L0.425116 82.875Z" fill="#1A1A1A"/>
</g>
<defs>
<clipPath id="clip0_2097_48160">
<rect width="166.6" height="136" fill="white"/>
</clipPath>
</defs>
</svg>
