<svg width="200" height="136" viewBox="0 0 200 136" fill="none" xmlns="http://www.w3.org/2000/svg">
<g clip-path="url(#clip0_2287_3232)">
<g clip-path="url(#clip1_2287_3232)">
<path fill-rule="evenodd" clip-rule="evenodd" d="M104.211 1.36639L109.277 4.30729L111.156 8.31097L109.352 12.2587V15.4353C110.395 17.889 109.21 20.599 105.842 22.4737C100.825 25.2664 92.8427 25.1922 88.0235 22.3007C86.777 21.5528 85.8645 20.6876 85.2834 19.7674C86.0743 21.0631 87.4927 22.2143 89.4332 23.0891C90.5452 23.6081 91.5585 23.8799 91.608 23.8799C91.954 23.9788 92.4236 24.1024 92.7942 24.1765C93.4653 24.3189 93.6512 24.3441 94.1916 24.4174C94.3079 24.4332 94.4408 24.4512 94.5984 24.4731C94.8677 24.5116 95.2269 24.535 95.536 24.5553C95.624 24.561 95.7081 24.5665 95.7847 24.572C96.5755 24.6213 96.6744 24.6213 97.4652 24.6213C97.91 24.6213 98.7009 24.572 99.8377 24.4484C99.8926 24.4384 99.9775 24.4254 100.088 24.4086C100.523 24.3421 101.352 24.2156 102.26 23.9788C103.471 23.6575 104.336 23.3115 104.484 23.2374C104.781 23.1139 105.176 22.9408 105.448 22.7926C106.006 22.4901 106.105 22.4286 106.609 22.113L106.708 22.0511L106.726 22.0396C106.861 21.9509 107.558 21.4952 108.166 20.8401C108.488 20.5188 108.76 20.1976 108.982 19.8269C109.007 19.7774 109.044 19.7154 109.081 19.6535C109.118 19.5918 109.155 19.5302 109.18 19.4808C109.198 19.4436 109.219 19.4036 109.24 19.3619L109.241 19.3604C109.332 19.1812 109.441 18.9688 109.501 18.7889C109.513 18.7395 109.532 18.6778 109.55 18.6161C109.569 18.5543 109.587 18.4923 109.6 18.4428C109.649 18.2452 109.699 17.9733 109.723 17.7756C109.723 17.7602 109.726 17.7331 109.728 17.6958C109.738 17.5688 109.758 17.3241 109.734 17.0229C110.541 25.5514 111.456 34.0021 112.389 42.4369L139.694 58.2017V54.7989L140.694 52.8003L143.692 50.8016H145.69L148.188 51.8009L152.685 59.7955L153.605 66.2332L181.977 82.614C183.253 83.3505 183.259 84.5407 181.991 85.2772L103.108 131.119C101.843 131.856 99.7822 131.856 98.5095 131.119L19.1088 85.2772C17.836 84.5407 17.8278 83.3505 19.0951 82.614L81.5958 46.2925L81.6823 45.495C82.6337 36.7201 83.5992 27.8144 84.5209 17.4277C84.4945 16.7777 84.6163 16.126 84.8858 15.4916V11.2635L83.501 8.31157L83.5306 8.29948L85.3541 4.30729L85.359 4.30449L85.3302 4.30839L90.3719 1.36739L90.3886 1.37059L90.3958 1.36639L97.3896 0.303711L104.211 1.36639ZM85.4789 12.3584V14.4427C85.8138 13.9736 86.2359 13.5209 86.7449 13.0933L85.4789 12.3584ZM107.727 13.2485C108.133 13.6137 108.477 13.9955 108.759 14.3888V12.6461L107.727 13.2485Z" fill="white"/>
<path d="M109.723 16.9106L109.734 17.0229C109.731 16.9863 109.728 16.9488 109.723 16.9106Z" fill="white"/>
<path d="M114.46 76.5259L113.712 74.7838L112.713 74.2842L111.214 74.7838L108.715 76.7825L107.244 80.2801V89.1171L107.153 89.1751L107.244 89.1421V89.1611L107.317 89.1151C107.617 89.0042 107.943 88.8723 108.339 88.7054C108.759 88.5565 109.575 88.1857 110.465 87.6921C112.509 86.5638 113.682 85.4136 114.303 84.6871L114.46 84.5872L114.46 76.5259Z" fill="#5E5FF5"/>
<path d="M98.5096 131.102L19.1089 85.26V85.276C19.0818 85.261 19.0558 85.245 19.0301 85.229C19.0143 85.219 18.9987 85.209 18.983 85.2C18.9693 85.191 18.9584 85.183 18.9447 85.172L18.9051 85.145L18.8653 85.117L18.8243 85.0851C18.8133 85.0761 18.8024 85.0671 18.7914 85.0591C18.7805 85.0501 18.7695 85.0411 18.7586 85.0331L18.7175 85.0001C18.7032 84.9891 18.69 84.9771 18.6772 84.9652L18.6573 84.9482L18.6368 84.9282L18.6163 84.9092L18.5916 84.8852C18.5725 84.8652 18.5561 84.8492 18.5396 84.8302L18.5205 84.8112C18.4986 84.7863 18.4767 84.7613 18.4575 84.7373C18.4548 84.7313 18.4493 84.7263 18.4466 84.7233C18.4397 84.7133 18.4322 84.7043 18.4247 84.6943L18.4028 84.6664C18.3782 84.6334 18.3563 84.5974 18.3344 84.5614L18.3049 84.5055C18.2961 84.4895 18.2875 84.4735 18.2796 84.4575L18.2632 84.4245C18.2523 84.4005 18.2413 84.3755 18.2331 84.3536L18.2249 84.3336L18.2194 84.3186C18.2085 84.2906 18.2003 84.2636 18.1948 84.2366L18.1893 84.2146C18.1811 84.1787 18.1729 84.1427 18.1674 84.1077C18.1674 84.0997 18.1674 84.0887 18.1647 84.0797L18.1565 84.0008V83.9348L18.1455 87.9751V88.0411C18.1455 88.058 18.1478 88.075 18.1502 88.092L18.1537 88.12C18.1537 88.128 18.1537 88.139 18.1565 88.147C18.1619 88.183 18.1701 88.2189 18.1783 88.2539V88.2599C18.1783 88.2599 18.1838 88.2709 18.1838 88.2789L18.2085 88.3608C18.2104 88.3688 18.2136 88.3758 18.2173 88.3848L18.2221 88.3968C18.2304 88.4208 18.2413 88.4458 18.2523 88.4678L18.2605 88.4897L18.2632 88.4947L18.2659 88.5007C18.2824 88.5337 18.3015 88.5687 18.3207 88.6017C18.3426 88.6396 18.3645 88.6726 18.3891 88.7086L18.3973 88.7196L18.4329 88.7655C18.4356 88.7715 18.4411 88.7765 18.4438 88.7795C18.463 88.8045 18.4849 88.8285 18.5067 88.8535L18.5121 88.8595L18.526 88.8725C18.5424 88.8915 18.5615 88.9104 18.5807 88.9274L18.6245 88.9714L18.6376 88.9824L18.6464 88.9904C18.6655 89.0094 18.6847 89.0264 18.7066 89.0423L18.7476 89.0753C18.7586 89.0833 18.7695 89.0923 18.7804 89.1013C18.7914 89.1103 18.8024 89.1193 18.8133 89.1273C18.827 89.1383 18.8407 89.1493 18.8544 89.1573C18.8698 89.1692 18.8862 89.1802 18.903 89.1912L18.9338 89.2122L18.9721 89.2362C19.0131 89.2642 19.0542 89.2882 19.098 89.3131V89.2972L98.4869 135.132L98.4868 135.15H98.4923C98.5386 135.182 98.5892 135.207 98.6383 135.231L98.6566 135.24L98.6658 135.244L98.677 135.25L98.6976 135.26C98.7552 135.287 98.8126 135.314 98.8728 135.339L98.8838 135.343L98.8879 135.345L98.8947 135.347C98.9494 135.369 99.0042 135.391 99.0616 135.413L99.0762 135.419L99.0848 135.422L99.1054 135.429C99.1682 135.451 99.2309 135.47 99.2936 135.489L99.3025 135.49L99.3182 135.496L99.3381 135.503L99.4531 135.536C99.4722 135.542 99.4914 135.547 99.5132 135.55L99.5679 135.562C99.5864 135.566 99.605 135.57 99.6228 135.575C99.6335 135.578 99.6442 135.58 99.6553 135.582L99.671 135.585L99.6829 135.588C99.724 135.596 99.7624 135.605 99.8033 135.613L99.8526 135.621L99.8886 135.628L99.9083 135.631L100.022 135.649H100.036C100.104 135.659 100.173 135.668 100.241 135.673L100.268 135.675L100.288 135.679L100.501 135.695H100.548C100.597 135.695 100.646 135.698 100.695 135.701H100.945C100.985 135.701 101.025 135.698 101.065 135.696C101.085 135.694 101.105 135.693 101.125 135.692C101.142 135.692 101.161 135.692 101.177 135.69C101.221 135.687 101.265 135.684 101.309 135.679H101.342C101.35 135.679 101.361 135.679 101.369 135.676L101.503 135.659H101.512L101.534 135.657L101.55 135.654C101.61 135.646 101.667 135.638 101.725 135.627H101.73C101.73 135.627 101.747 135.621 101.755 135.621C101.807 135.613 101.859 135.602 101.911 135.591L101.917 135.59L101.938 135.586C101.947 135.583 101.956 135.581 101.966 135.58C102.015 135.569 102.061 135.558 102.108 135.544C102.114 135.544 102.122 135.541 102.13 135.539L102.138 135.536H102.146C102.185 135.525 102.223 135.514 102.26 135.502C102.289 135.493 102.318 135.484 102.346 135.476L102.371 135.468L102.39 135.462C102.456 135.44 102.521 135.418 102.587 135.394H102.59L102.6 135.389L102.616 135.383L102.635 135.374L102.658 135.364L102.716 135.339L102.733 135.331C102.753 135.323 102.773 135.314 102.792 135.303L102.798 135.312L102.824 135.299L102.85 135.287L102.932 135.246L102.952 135.235L102.973 135.224L103.093 135.158L103.104 131.119C103.066 131.141 103.025 131.162 102.984 131.184C102.97 131.193 102.956 131.198 102.943 131.204C102.915 131.217 102.888 131.231 102.858 131.245C102.841 131.253 102.825 131.261 102.806 131.267C102.781 131.278 102.754 131.291 102.729 131.302C102.71 131.31 102.691 131.319 102.672 131.324L102.647 131.334L102.635 131.339L102.598 131.354C102.535 131.379 102.469 131.401 102.401 131.422L102.396 131.424L102.38 131.429L102.357 131.435C102.291 131.457 102.223 131.476 102.157 131.493L102.119 131.501L102.048 131.519L101.977 131.537C101.967 131.538 101.958 131.54 101.949 131.542L101.934 131.546L101.922 131.548C101.87 131.559 101.818 131.57 101.769 131.578C101.758 131.578 101.749 131.581 101.738 131.583C101.687 131.593 101.634 131.601 101.583 131.608L101.563 131.611C101.55 131.611 101.536 131.613 101.524 131.615L101.517 131.616L101.385 131.633L101.356 131.634L101.325 131.638C101.303 131.639 101.281 131.641 101.26 131.644L101.229 131.646L101.194 131.649C101.177 131.649 101.158 131.649 101.142 131.652L100.961 131.66H100.712C100.663 131.66 100.614 131.66 100.564 131.654H100.518C100.447 131.652 100.375 131.646 100.304 131.638C100.288 131.638 100.274 131.635 100.258 131.633C100.235 131.63 100.212 131.627 100.189 131.625C100.144 131.62 100.098 131.615 100.053 131.608H100.039C99.9814 131.597 99.9239 131.589 99.8691 131.581L99.8199 131.572L99.8034 131.569L99.7822 131.565C99.7547 131.56 99.7277 131.555 99.6995 131.548L99.6829 131.544L99.6693 131.541C99.6591 131.539 99.6488 131.537 99.6392 131.534C99.6036 131.526 99.5654 131.518 99.5298 131.509C99.5106 131.504 99.4914 131.498 99.4695 131.496L99.3546 131.464L99.3315 131.457L99.3236 131.455L99.3081 131.45C99.2453 131.431 99.1819 131.412 99.1192 131.39L99.1007 131.382L99.0754 131.373C99.0179 131.354 98.9632 131.332 98.9084 131.308L98.8975 131.304L98.8865 131.299C98.8264 131.275 98.7689 131.247 98.7114 131.22C98.6977 131.215 98.684 131.206 98.6704 131.201C98.6168 131.174 98.5633 131.145 98.5097 131.115L98.5096 131.102Z" fill="#5E5FF5"/>
<path d="M146.914 77.4861V80.7709L143.083 78.4295L146.914 77.4861Z" fill="#5E5FF5"/>
<path d="M87.0608 13.2214L86.5516 12.865C85.0738 14.107 84.276 15.5761 84.2211 17.0875C84.1478 19.1053 85.4027 21.0776 87.8697 22.5578C90.3364 24.0378 93.5927 24.7873 96.8563 24.8186C100.12 24.8498 103.424 24.163 105.989 22.7356C108.551 21.3093 109.943 19.3703 110.016 17.3564C110.072 15.8261 109.364 14.3219 107.942 13.0388L107.461 13.4127C108.837 14.6215 109.466 15.9991 109.417 17.3346C109.354 19.0649 108.152 20.8454 105.697 22.2117C103.244 23.5771 100.048 24.2495 96.8621 24.219C93.6753 24.1885 90.5308 23.4552 88.1782 22.0436C85.8259 20.6323 84.7576 18.8357 84.8203 17.1093C84.8689 15.7718 85.5985 14.4044 87.0608 13.2214Z" fill="#1A1A1A"/>
<path fill-rule="evenodd" clip-rule="evenodd" d="M145.864 77.6702C147.814 74.9366 149.129 71.9553 149.302 68.7882H149.904C149.74 71.9162 148.509 74.8518 146.69 77.5323L145.864 77.6702ZM144.653 79.2431C144.214 79.7727 143.755 80.2914 143.278 80.799C142.876 81.2277 142.463 81.6475 142.039 82.0582L142.563 82.385C142.955 82.0012 143.34 81.6085 143.715 81.2098C144.186 80.7081 144.642 80.1944 145.079 79.6688L144.653 79.2431ZM140.521 84.2587L140.315 83.6421C136.311 87.1387 131.822 89.8899 128.756 91.6517C124.621 94.03 117.082 95.9737 108.331 97.2568C100.021 98.474 90.6587 99.0896 82.1624 98.9247C81.7231 98.9157 81.2862 98.9047 80.8518 98.8927C71.9506 98.6309 65.6432 100.461 61.5539 102.365C59.51 103.318 58.022 104.287 57.0423 105.022C56.5525 105.389 56.1898 105.698 55.9482 105.916C55.8274 106.025 55.737 106.111 55.676 106.171C55.6455 106.201 55.6225 106.225 55.6066 106.241L55.5884 106.26L55.5833 106.265L55.5818 106.266L55.5813 106.267C55.5813 106.267 55.6538 106.335 55.7993 106.473C55.945 106.609 56.0176 106.678 56.0176 106.678L56.0181 106.677L56.0211 106.674L56.0353 106.659C56.0483 106.646 56.0686 106.625 56.0961 106.598C56.1512 106.545 56.2356 106.464 56.35 106.361C56.5788 106.155 56.9275 105.857 57.402 105.501C58.3511 104.79 59.8036 103.842 61.8071 102.909C65.7301 101.082 71.7725 99.3074 80.2943 99.4783C80.4732 99.4823 80.6531 99.4863 80.8342 99.4913C89.7068 99.7521 99.6459 99.1356 108.417 97.8494C117.177 96.5663 124.814 94.6106 129.055 92.1713C132.079 90.4345 136.517 87.7193 140.521 84.2587Z" fill="#1A1A1A"/>
<path fill-rule="evenodd" clip-rule="evenodd" d="M139.711 58.5562L112.523 42.8589L112.655 42.2428L139.576 57.7852L139.711 58.5562ZM153.102 66.2878L181.828 82.8727C182.411 83.2094 182.636 83.6081 182.638 83.9459C182.64 84.2827 182.419 84.6804 181.841 85.0162L102.957 130.859C102.382 131.194 101.606 131.371 100.812 131.371C100.019 131.371 99.2399 131.194 98.6599 130.858L19.2594 85.0162C18.6771 84.6794 18.4516 84.2807 18.4497 83.9429C18.4478 83.6062 18.6677 83.2084 19.2462 82.8717L81.5935 46.6395L81.4956 46.0029L18.9449 82.354C18.2562 82.7537 17.8466 83.3193 17.8501 83.9459C17.8537 84.5715 18.2686 85.1361 18.9591 85.5358L98.3598 131.378C99.0524 131.778 99.9408 131.97 100.812 131.97C101.683 131.97 102.57 131.778 103.259 131.378L182.143 85.5348C182.831 85.1351 183.241 84.5695 183.238 83.9429C183.235 83.3163 182.819 82.7527 182.128 82.353L153.335 65.7297L153.102 66.2878Z" fill="#1A1A1A"/>
<path d="M181.992 85.2758L103.108 131.118L103.292 135.408L181.981 89.315C182.61 88.9483 183.238 88.4726 183.238 87.9929V83.9537C183.238 84.4323 182.618 84.911 181.992 85.2758Z" fill="#1A1A1A"/>
<path fill-rule="evenodd" clip-rule="evenodd" d="M17.8574 83.9342L18.457 83.9352V83.9841L18.4619 84.0331C18.465 84.0501 18.4662 84.0641 18.4668 84.0731L18.4672 84.0781C18.4704 84.095 18.4748 84.115 18.4808 84.141L18.4829 84.148C18.4858 84.158 18.4888 84.171 18.491 84.184L18.4985 84.207L18.5062 84.228L18.5072 84.23L18.509 84.234L18.5145 84.249C18.5186 84.2599 18.5249 84.2739 18.5351 84.2969L18.5485 84.3239L18.5705 84.3659L18.5969 84.4158C18.6165 84.4468 18.6298 84.4678 18.6433 84.4858L18.6475 84.4918L18.6611 84.5098L18.6622 84.5108L18.679 84.5328L18.6804 84.5338C18.685 84.5398 18.6928 84.5488 18.7017 84.5617C18.7114 84.5737 18.7234 84.5867 18.7394 84.6057L18.7605 84.6267L18.768 84.6347C18.7757 84.6437 18.784 84.6527 18.8044 84.6727L18.829 84.6977L18.8308 84.6997L18.8381 84.7057L18.8391 84.7067L18.8613 84.7276L18.8733 84.7386L18.8873 84.7506L18.8955 84.7576L18.8981 84.7596L18.9056 84.7656L18.9434 84.7966C18.9575 84.8066 18.9707 84.8176 18.9799 84.8246L18.9812 84.8266L19.0049 84.8446L19.0124 84.8506L19.0432 84.8755L98.6603 130.842L98.5122 131.099H98.8102V131.622L98.8088 131.621L98.7978 135.658L19.3985 89.8162V89.8262L18.9517 89.5743C18.9049 89.5483 18.8587 89.5204 18.8116 89.4894L18.7883 89.4744L18.7802 89.4694L18.7712 89.4634L18.7626 89.4574L18.761 89.4564C18.7527 89.4514 18.7132 89.4254 18.685 89.4044C18.6605 89.3884 18.6398 89.3714 18.6298 89.3635C18.6157 89.3535 18.6027 89.3425 18.5935 89.3355L18.5922 89.3345L18.561 89.3095L18.5234 89.2795C18.4958 89.2585 18.4697 89.2365 18.4439 89.2116L18.4132 89.1836L18.3765 89.1466C18.3556 89.1276 18.3351 89.1076 18.316 89.0866L18.2932 89.0637L18.281 89.0497C18.2632 89.0297 18.2398 89.0037 18.2173 88.9757L18.2114 88.9687C18.2059 88.9627 18.1962 88.9507 18.1856 88.9347L18.1838 88.9327L18.1827 88.9317L18.1646 88.9088L18.1626 88.9058C18.1569 88.8988 18.145 88.8848 18.133 88.8638C18.11 88.8308 18.0861 88.7938 18.0618 88.7519C18.0403 88.7149 18.0192 88.6759 18.0007 88.6389L17.9989 88.6359L17.9901 88.6179L17.9873 88.6119L17.9669 88.571V88.564C17.9585 88.545 17.9501 88.525 17.9424 88.503L17.9378 88.492C17.9343 88.483 17.9271 88.4661 17.9208 88.4431L17.8987 88.3691L17.8793 88.3301V88.2882C17.8738 88.2642 17.868 88.2362 17.8631 88.2072C17.8582 88.1843 17.8565 88.1653 17.8557 88.1553L17.855 88.1403M18.0913 88.7359L18.0624 88.7529L18.0618 88.7519L18.0611 88.7509L18.0911 88.7339L18.0913 88.7359ZM18.1346 88.7089L18.0911 88.7339L18.09 88.7089H18.1346ZM19.0078 88.8988L98.201 134.621L98.2101 131.275L19.4095 85.7789V85.7889L18.9627 85.5381C18.9309 85.5201 18.8885 85.4931 18.8587 85.4751C18.8462 85.4671 18.8359 85.4601 18.8295 85.4571C18.8035 85.4411 18.7829 85.4261 18.7664 85.4132L18.7365 85.3922C18.7238 85.3842 18.7092 85.3742 18.6941 85.3632L18.6863 85.3582L18.641 85.3212C18.6268 85.3102 18.6137 85.3002 18.6045 85.2922L18.6031 85.2912L18.5794 85.2722L18.5719 85.2672L18.534 85.2363C18.5144 85.2213 18.4981 85.2073 18.487 85.1973L18.473 85.1843L18.4629 85.1753L18.4542 85.1683L18.446 87.9754V88.0374L18.4465 88.0414L18.4476 88.0484L18.4491 88.0593L18.4528 88.0903L18.4542 88.1053C18.4578 88.1273 18.4631 88.1523 18.4712 88.1873L18.4715 88.1883L18.477 88.2102L18.4948 88.2692L18.5012 88.2852L18.5045 88.2932L18.5073 88.3022C18.5096 88.3092 18.5141 88.3202 18.5211 88.3332L18.5306 88.3532L18.5354 88.3672L18.5378 88.3721L18.5401 88.3771C18.5525 88.4011 18.5666 88.4271 18.5804 88.4511L18.5817 88.4531C18.5951 88.4771 18.609 88.4981 18.6273 88.5251L18.631 88.5281L18.6447 88.549L18.6478 88.553L18.6489 88.554L18.6713 88.583L18.6812 88.596C18.6911 88.608 18.7031 88.622 18.7199 88.641L18.7274 88.646L18.7543 88.678C18.7607 88.6849 18.769 88.6939 18.7765 88.6999L18.7853 88.7069L18.8311 88.7529L18.8362 88.7579C18.8408 88.7619 18.8494 88.7689 18.8591 88.7789C18.8674 88.7869 18.8757 88.7939 18.8872 88.8029L18.8947 88.8079L18.9324 88.8389C18.9466 88.8498 18.9597 88.8598 18.9689 88.8678L18.9703 88.8688L18.9939 88.8878L19.0014 88.8928L19.0078 88.8988ZM18.4723 84.117L18.471 84.114Z" fill="#1A1A1A"/>
<path fill-rule="evenodd" clip-rule="evenodd" d="M103.406 130.601L103.393 135.338L103.235 135.423C103.216 135.432 103.198 135.442 103.178 135.453C103.16 135.463 103.14 135.475 103.119 135.486C103.105 135.493 103.093 135.5 103.088 135.502L103.087 135.503L103.083 135.505L103.076 135.509L102.984 135.555L102.951 135.571H102.95L102.932 135.58L102.695 135.698L102.683 135.68L102.654 135.693H102.64C102.587 135.712 102.536 135.73 102.487 135.746H102.485L102.462 135.753L102.455 135.756L102.451 135.757L102.444 135.759L102.43 135.764C102.414 135.768 102.389 135.776 102.362 135.784C102.317 135.798 102.265 135.814 102.227 135.825L102.188 135.836H102.181L102.174 135.837C102.124 135.851 102.076 135.862 102.031 135.872L102.02 135.875L102.012 135.876L102.006 135.877L102.004 135.878C101.997 135.879 101.983 135.883 101.966 135.886C101.919 135.895 101.866 135.907 101.811 135.916L101.779 135.926H101.752C101.7 135.936 101.648 135.943 101.599 135.95C101.582 135.953 101.556 135.957 101.527 135.958L101.42 135.971C101.402 135.975 101.386 135.976 101.377 135.977L101.343 135.978H101.327C101.284 135.983 101.242 135.986 101.207 135.988C101.175 135.992 101.146 135.992 101.133 135.992C101.122 135.992 101.11 135.993 101.097 135.994C101.053 135.997 100.994 136 100.945 136H100.679C100.629 135.997 100.588 135.995 100.548 135.995H100.49L100.252 135.976L100.239 135.974L100.231 135.973L100.218 135.972C100.149 135.966 100.081 135.958 100.013 135.948H100.001L99.9803 135.945C99.9229 135.937 99.8637 135.928 99.8003 135.916L99.7448 135.907L99.6244 135.882L99.6174 135.881L99.6105 135.879L99.5933 135.875H99.5912C99.5827 135.873 99.5677 135.87 99.5506 135.865L99.5033 135.855C99.489 135.851 99.4733 135.848 99.4582 135.845C99.4209 135.839 99.39 135.83 99.374 135.825L99.371 135.824L99.2578 135.792L99.2314 135.784L99.2044 135.775C99.1437 135.757 99.0767 135.736 99.0089 135.713C98.9855 135.705 98.9659 135.697 98.9529 135.692C98.8957 135.67 98.8414 135.648 98.7894 135.628L98.7739 135.622L98.7688 135.62L98.7596 135.616C98.6929 135.589 98.6301 135.559 98.5752 135.533L98.5591 135.526L98.5433 135.518L98.5408 135.517L98.534 135.514L98.5228 135.508L98.506 135.5C98.4792 135.487 98.4451 135.47 98.4089 135.45L98.1864 135.19L98.1991 130.814H98.5833L98.6508 130.85C98.7035 130.879 98.7508 130.905 98.7969 130.928L98.8095 130.934L98.8252 130.942L98.8278 130.943L98.8319 130.945L98.8406 130.949C98.8968 130.976 98.9451 130.998 98.9942 131.019L99.0078 131.024L99.0178 131.027L99.0317 131.034C99.0787 131.055 99.124 131.073 99.1704 131.088L99.2242 131.108C99.2786 131.127 99.334 131.144 99.3956 131.163L99.4031 131.165L99.4106 131.167H99.4117L99.5345 131.203C99.5641 131.208 99.5889 131.215 99.6043 131.219L99.6497 131.229L99.7069 131.242L99.7144 131.244L99.7192 131.245L99.7284 131.247L99.7494 131.252C99.7572 131.253 99.7673 131.256 99.7786 131.259C99.7949 131.263 99.8056 131.265 99.8234 131.268C99.8356 131.27 99.8511 131.273 99.874 131.278L99.9162 131.285L99.9346 131.288C99.9742 131.293 100.02 131.3 100.066 131.309H100.077L100.1 131.312C100.139 131.318 100.171 131.322 100.211 131.326C100.235 131.329 100.262 131.331 100.294 131.335L100.307 131.337L100.316 131.339H100.322L100.339 131.341C100.401 131.348 100.462 131.353 100.524 131.355H100.581L100.598 131.357C100.628 131.36 100.66 131.361 100.712 131.361H100.954L101.116 131.353C101.144 131.35 101.17 131.35 101.184 131.35C101.198 131.349 101.213 131.347 101.232 131.345H101.233C101.251 131.344 101.272 131.342 101.295 131.34C101.312 131.338 101.336 131.335 101.363 131.334L101.47 131.32C101.486 131.317 101.51 131.314 101.537 131.312L101.541 131.311C101.59 131.305 101.633 131.298 101.674 131.291L101.691 131.287C101.703 131.284 101.717 131.282 101.733 131.28C101.771 131.273 101.813 131.265 101.86 131.255L101.87 131.253L101.876 131.252L101.882 131.25H101.884L101.918 131.243L101.973 131.229H101.975C101.998 131.223 102.024 131.216 102.051 131.21L102.06 131.207L102.073 131.205L102.091 131.201C102.149 131.186 102.208 131.17 102.263 131.151L102.285 131.144L102.293 131.142L102.296 131.141L102.3 131.14L102.31 131.137C102.375 131.116 102.431 131.097 102.484 131.076C102.5 131.069 102.515 131.064 102.525 131.06L102.526 131.059L102.55 131.05L102.57 131.041L102.588 131.036L102.591 131.035L102.609 131.027L102.639 131.013L102.641 131.012L102.684 130.992L102.704 130.983L102.716 130.98L102.724 130.976L102.734 130.971C102.758 130.96 102.781 130.949 102.809 130.935L102.82 130.929L102.832 130.925L102.837 130.922L102.843 130.919C102.885 130.897 102.922 130.877 102.956 130.859L103.406 130.601ZM98.7967 131.586L98.7875 134.971L98.7958 134.975L98.8115 134.982L98.814 134.984L98.8181 134.985L98.8268 134.989C98.883 135.016 98.9314 135.039 98.9804 135.059L98.9941 135.065L98.9981 135.066L99.0063 135.069C99.0614 135.091 99.1138 135.112 99.1686 135.133L99.1733 135.135C99.1874 135.141 99.1935 135.143 99.2005 135.145L99.2042 135.147C99.2478 135.162 99.292 135.176 99.3393 135.19H99.3664L99.4241 135.216H99.4254L99.4279 135.218L99.5356 135.248L99.547 135.252L99.5527 135.253L99.5659 135.255L99.5809 135.258L99.6333 135.27C99.6514 135.274 99.6714 135.278 99.6905 135.283L99.6979 135.285L99.7042 135.286L99.7129 135.288L99.7157 135.288L99.7488 135.295L99.8583 135.317L99.909 135.326C99.9531 135.334 99.9961 135.341 100.044 135.348H100.06L100.084 135.352C100.142 135.361 100.2 135.368 100.258 135.373C100.286 135.374 100.311 135.378 100.326 135.38L100.513 135.395H100.547C100.603 135.395 100.658 135.398 100.704 135.4H100.945C100.977 135.4 101.002 135.399 101.035 135.396C101.057 135.395 101.081 135.394 101.112 135.392H101.137L101.144 135.391L101.159 135.39C101.204 135.387 101.239 135.385 101.272 135.381L101.29 135.378H101.332L101.466 135.361L101.485 135.359H101.493L101.5 135.358L101.509 135.356C101.569 135.348 101.62 135.341 101.669 135.331L101.676 135.33C101.686 135.328 101.7 135.325 101.716 135.323C101.757 135.316 101.799 135.308 101.849 135.297L101.859 135.295L101.865 135.294L101.871 135.293L101.873 135.292L101.909 135.285C101.953 135.275 101.989 135.266 102.024 135.257L102.065 135.245H102.069L102.101 135.237H102.104L102.165 135.218C102.189 135.211 102.216 135.202 102.252 135.191L102.285 135.181L102.294 135.179L102.296 135.178C102.362 135.156 102.422 135.136 102.482 135.113L102.494 135.109L102.509 135.103L102.524 135.096L102.532 135.092L102.598 135.064L102.632 135.049L102.647 135.042L102.794 134.96L102.803 131.596L102.776 131.605L102.745 131.618H102.744L102.72 131.628L102.707 131.633C102.638 131.661 102.567 131.684 102.5 131.706C102.483 131.712 102.469 131.716 102.463 131.718L102.453 131.72L102.452 131.721C102.377 131.745 102.301 131.767 102.23 131.785L102.223 131.786L102.216 131.788L102.203 131.79L102.184 131.795C102.165 131.799 102.145 131.804 102.123 131.81H102.121C102.098 131.816 102.072 131.823 102.046 131.829L102.032 131.832L102.023 131.834L102.017 131.835H102.015C102.009 131.837 101.994 131.84 101.977 131.843C101.928 131.854 101.872 131.865 101.818 131.874L101.805 131.876L101.803 131.877L101.795 131.879C101.736 131.89 101.676 131.898 101.625 131.906L101.606 131.908L101.585 131.911H101.574L101.565 131.913L101.404 131.933H101.385L101.368 131.936L101.344 131.938C101.328 131.939 101.31 131.941 101.288 131.943H101.286C101.265 131.945 101.239 131.947 101.213 131.949L101.203 131.95H101.183L101.174 131.951L100.961 131.961H100.707C100.665 131.961 100.609 131.961 100.549 131.955H100.506C100.432 131.952 100.357 131.946 100.282 131.938C100.252 131.936 100.226 131.932 100.214 131.93C100.201 131.929 100.186 131.927 100.169 131.925C100.127 131.921 100.077 131.915 100.03 131.909H100.011L99.983 131.903C99.9394 131.895 99.8959 131.888 99.8474 131.881L99.8249 131.878L99.8201 131.877L99.7612 131.867L99.7421 131.863C99.7129 131.858 99.6636 131.849 99.6224 131.838L99.6198 131.837L99.6106 131.836L99.5896 131.831L99.5671 131.826L99.5197 131.815C99.5016 131.811 99.4816 131.807 99.4625 131.802L99.455 131.8L99.4476 131.798L99.4362 131.795L99.4305 131.794L99.4096 131.791L99.2599 131.748L99.2526 131.746H99.2514M99.218 131.736C99.1567 131.717 99.0893 131.697 99.0209 131.673L99.0079 131.668L98.9808 131.658C98.9163 131.636 98.8556 131.612 98.7967 131.586" fill="#1A1A1A"/>
<path d="M87.3201 13.7493L89.8012 14.9898L97.7958 16.4888L104.791 14.9898L106.964 13.7478C109.561 16.2096 108.887 19.4144 105.002 21.4832C100.455 23.9053 93.2386 23.8311 88.8888 21.335C85.268 19.2571 84.7641 16.1345 87.3201 13.7493Z" fill="#1A1A1A"/>
<path fill-rule="evenodd" clip-rule="evenodd" d="M114.626 84.7697C114.011 85.5122 112.797 86.7484 110.61 87.9545C109.718 88.4502 108.892 88.828 108.448 88.9858C107.98 89.1827 107.606 89.3316 107.254 89.4575L107.053 88.8929C107.391 88.772 107.756 88.6261 108.223 88.4292L108.232 88.4262L108.24 88.4232C108.639 88.2823 109.438 87.9206 110.32 87.4299C112.433 86.2637 113.592 85.0785 114.164 84.387L114.626 84.7697Z" fill="#1A1A1A"/>
<path d="M84.5865 11.056L85.3042 12.4915L85.7792 12.6498V16.9318L85.7762 16.9529C85.7359 17.2349 85.5162 17.5068 85.1829 17.5068C84.8854 17.5068 84.5865 17.265 84.5865 16.9105V11.056Z" fill="#1A1A1A"/>
<path fill-rule="evenodd" clip-rule="evenodd" d="M109.604 31.3133L109.579 27.1675C109.579 26.4742 109.332 25.9043 108.845 25.6253C108.358 25.3463 107.738 25.4186 107.128 25.7711C106.516 26.1243 105.982 26.711 105.603 27.3667C105.225 28.0212 104.988 28.7721 105.001 29.4695L105.026 34.0396L105.028 34.0385L105.028 34.0418C105.236 34.0146 105.697 33.8907 105.968 33.7919L106.069 33.7478C106.315 33.6398 106.725 33.4596 107.155 33.2235C108.341 32.5562 109.258 31.7087 109.604 31.3133ZM109.002 31.0569L108.98 27.1692V27.1675C108.98 26.6008 108.782 26.2804 108.547 26.1456C108.311 26.0106 107.93 26.0001 107.428 26.2902C106.927 26.5796 106.461 27.0802 106.123 27.6665C105.784 28.2531 105.589 28.8976 105.6 29.46L105.601 29.4642L105.601 29.6089L109.002 31.0569Z" fill="#1A1A1A"/>
<path fill-rule="evenodd" clip-rule="evenodd" d="M149.667 86.9025L147.078 82.9212L143.618 85.3185L143.926 85.8342L146.912 83.7656L148.988 86.9584L149.667 86.9025ZM145.842 87.2212L144.991 87.0754L145.191 87.2752L145.842 87.2212Z" fill="#1A1A1A"/>
<path fill-rule="evenodd" clip-rule="evenodd" d="M145.864 84.2249L138.182 78.8546L143.85 85.664L145.864 84.2249ZM148.175 85.0024L149.474 87.2759H149.688L155.891 86.1896L148.175 85.0024Z" fill="#1A1A1A"/>
<path fill-rule="evenodd" clip-rule="evenodd" d="M145.152 86.7071L137.16 77.3195L141.677 87.1518L148.189 90.2737L151.883 91.299L156.647 85.7728L147.015 87.2248L145.152 86.7071ZM145.846 87.5226L147.043 88.9286L148.189 89.774L151.689 90.6055L155.136 86.6072L146.977 87.8374L145.846 87.5226ZM142.132 86.7061L139.532 81.047L145.851 88.5059L142.132 86.7061Z" fill="#1A1A1A"/>
<path fill-rule="evenodd" clip-rule="evenodd" d="M147.689 76.2831H146.69V77.2334L143.011 78.1389L142.926 78.6855L146.69 80.9849V83.2784L147.689 84.2777V76.2831ZM146.615 80.2364L143.853 78.5496L146.615 77.869V80.2364Z" fill="#1A1A1A"/>
<path fill-rule="evenodd" clip-rule="evenodd" d="M141.511 52.454C142.562 51.845 144.11 51.9126 145.861 52.9214L146.012 53.0078L148.302 51.6785L147.861 51.4181C145.995 50.3156 144.235 50.1963 142.907 50.9503L141.211 51.9352L141.208 51.937L141.509 52.4555L141.511 52.454ZM143.211 51.467C144.082 51.4973 145.034 51.78 146.009 52.3162L147.099 51.6837C145.548 50.9013 144.197 50.9112 143.211 51.467Z" fill="#1A1A1A"/>
<path d="M152.333 67.1947L150.636 68.18C151.813 67.4958 152.552 66.0452 152.552 63.9651C152.552 59.8048 149.624 54.714 146.01 52.6338L147.707 51.6485C151.32 53.7287 154.248 58.8195 154.248 62.9798C154.248 65.0599 153.51 66.5105 152.333 67.1947Z" fill="#1A1A1A"/>
<path d="M152.333 67.1947L150.636 68.18C151.813 67.4958 152.552 66.0452 152.552 63.9651C152.552 59.8048 149.624 54.714 146.01 52.6338L147.707 51.6485C151.32 53.7287 154.248 58.8195 154.248 62.9798C154.248 65.0599 153.51 66.5105 152.333 67.1947Z" fill="#1A1A1A"/>
<path fill-rule="evenodd" clip-rule="evenodd" d="M152.435 67.1327C153.552 66.4251 154.248 64.9991 154.248 62.9798C154.248 58.8195 151.911 53.7598 148.298 51.6797L146.01 52.6338C146.204 52.7452 146.396 52.8653 146.585 52.9935C149.928 55.2568 152.552 60.0278 152.552 63.9651C152.552 65.0592 152.348 65.979 151.982 66.7049C151.653 67.3591 150.687 67.7888 150.687 68.2884L151.686 67.7888C152.186 67.2891 152.402 67.154 152.435 67.1327ZM152.945 65.7936C153.081 65.236 153.151 64.6234 153.151 63.965C153.151 61.7548 152.378 59.3393 151.156 57.2197C150.116 55.4179 148.729 53.7884 147.157 52.6613L147.702 52.3451C149.282 53.3416 150.735 54.9628 151.813 56.8335C152.958 58.8196 153.649 61.0297 153.649 62.9796C153.649 64.2047 153.378 65.1362 152.945 65.7936Z" fill="#1A1A1A"/>
<path fill-rule="evenodd" clip-rule="evenodd" d="M141.222 51.9355C142.538 51.1872 144.299 51.3301 146.16 52.4015C148.023 53.4741 149.699 55.3106 150.906 57.3968C152.112 59.4826 152.865 61.8472 152.851 63.9935C152.851 66.1378 152.087 67.7192 150.77 68.4682C149.455 69.2166 147.694 69.0736 145.833 68.0021L145.832 68.0012C143.969 66.9152 142.301 65.0792 141.097 62.9964C139.894 60.9137 139.142 58.5563 139.142 56.4111C139.142 54.2664 139.906 52.6846 141.222 51.9355ZM141.519 52.4567C140.455 53.0624 139.741 54.3955 139.741 56.4111C139.741 58.426 140.452 60.6805 141.617 62.6965C142.781 64.7122 144.382 66.4615 146.133 67.483C147.885 68.4912 149.408 68.5533 150.474 67.9471C151.538 67.3413 152.252 66.0082 152.252 63.9925V63.9906C152.265 61.9769 151.554 59.7163 150.386 57.697C149.219 55.6778 147.611 53.9288 145.86 52.9212C144.108 51.9125 142.585 51.8502 141.519 52.4567Z" fill="#1A1A1A"/>
<path fill-rule="evenodd" clip-rule="evenodd" d="M141.831 53.6086C142.92 52.9864 144.367 53.109 145.886 53.9893C147.406 54.8701 148.768 56.3642 149.745 58.0572C150.723 59.7501 151.332 61.6705 151.318 63.4202C151.303 65.167 150.676 66.4738 149.587 67.0959C148.496 67.7181 147.05 67.5954 145.53 66.7151C144.01 65.8341 142.655 64.3398 141.682 62.6469C140.708 60.9541 140.099 59.0348 140.099 57.2868V57.2844C140.113 55.5376 140.741 54.2307 141.831 53.6086ZM140.699 57.2881C140.699 58.9063 141.266 60.7225 142.202 62.3479C143.137 63.9737 144.423 65.3806 145.831 66.1964C147.241 67.013 148.449 67.0546 149.289 66.5752C150.129 66.0957 150.705 65.035 150.719 63.4153C150.732 61.7985 150.164 59.9827 149.226 58.357C148.287 56.7314 146.994 55.3243 145.585 54.5081C144.176 53.6915 142.968 53.6498 142.128 54.1293C141.288 54.6087 140.712 55.6691 140.699 57.2881Z" fill="#1A1A1A"/>
<path d="M108.759 84.439C108.649 84.439 108.54 84.3301 108.54 84.2202V82.7702C108.54 82.6602 108.649 82.5503 108.759 82.5503C108.868 82.5503 108.978 82.6602 108.978 82.7702V84.2202C108.978 84.3301 108.896 84.439 108.759 84.439Z" fill="#1A1A1A"/>
<path fill-rule="evenodd" clip-rule="evenodd" d="M97.3909 0L104.313 1.07847L109.428 4.04775L109.278 4.30707L109.549 4.17966L111.486 8.30905L109.56 12.5254L104.387 15.5429L97.3904 16.6214L90.3688 15.543L85.1724 12.5266L83.1953 8.31235L85.1213 4.09602L90.2946 1.07827L97.3909 0ZM109.046 4.51923L104.11 1.65358L97.3897 0.606688L90.4978 1.65388L85.5877 4.51813L83.8561 8.30905L85.6356 12.1022L90.5718 14.9676L97.3902 16.0147L104.184 14.9677L109.094 12.1034L110.826 8.31235L109.046 4.51923Z" fill="#1A1A1A"/>
<path fill-rule="evenodd" clip-rule="evenodd" d="M97.6897 0.309065L97.0902 0.296673L97.0534 2.08656L96.3427 1.51654L96.7686 2.28652L90.429 1.07255L90.3161 1.66145L95.4733 2.64897L85.2912 4.01075L85.3706 4.60504L95.0353 3.31252L83.389 8.03341L83.6144 8.58904L95.564 3.74513L85.1922 12.0812L85.5678 12.5485L96.3537 3.87974L90.2072 15.1115L90.7332 15.3993L97.0452 3.86525L97.0903 16.3192L97.6899 16.317L97.6448 3.87044L104.023 15.4011L104.548 15.1109L98.3386 3.88603L109.139 12.5489L109.515 12.0812L99.128 3.75053L111.043 8.58914L111.269 8.03361L99.6468 3.31412L109.238 4.60475L109.318 4.01055L99.186 2.64708L104.268 1.65985L104.154 1.07125L98.4757 2.1742L99.1192 1.65705L97.6497 2.25274L97.6897 0.309065Z" fill="#1A1A1A"/>
<path d="M97.5418 91.0104C97.0763 91.0104 96.6523 90.9967 96.2146 90.9831C95.4866 90.9811 94.6219 90.905 94.3726 90.8816C94.2638 90.8708 94.1335 90.8552 93.9974 90.8386C93.8222 90.8181 93.6382 90.7967 93.485 90.783C92.9283 90.7323 92.168 90.6044 91.6284 90.5068C89.5107 90.1545 87.6877 89.5182 87.1797 89.3309C86.4307 89.041 85.8427 88.8136 84.8537 88.3315C84.6209 88.2281 84.3457 88.1012 84.1344 87.9705C83.8997 87.8465 83.5913 87.6562 83.302 87.4767L82.9033 87.2327C82.5257 87.0053 82.0894 86.6676 81.7098 86.37C81.6098 86.2978 81.3326 86.0928 81.1404 85.9025C80.7793 85.6273 80.3689 85.1667 80.1591 84.9188C79.8644 84.5655 79.5379 84.1635 79.3418 83.8453L79.2774 83.7507C79.1798 83.6082 79.0695 83.4472 79.0002 83.2861C78.9553 83.1895 78.8992 83.0773 78.8412 82.9612C78.7167 82.7123 78.5855 82.4478 78.4991 82.2068C78.4703 82.1082 78.441 82.0204 78.4118 81.9335C78.3791 81.835 78.3464 81.7364 78.32 81.6447C78.2415 81.3295 78.1649 80.8991 78.1146 80.5702C78.0843 80.3897 78.0365 79.8207 78.0873 79.2371C79.0964 66.5651 80.2074 56.3162 81.3843 45.4652C82.3417 36.6352 83.3313 27.5047 84.2662 16.9084L84.8644 16.9348V17.5032C84.9576 19.5721 86.6679 21.5132 89.5565 22.8155C90.6227 23.3133 91.561 23.567 91.6489 23.5831C92.0295 23.688 92.4896 23.8095 92.8531 23.8822C93.5172 24.0232 93.6977 24.0476 94.2335 24.1198L94.6395 24.1755C94.9035 24.213 95.2538 24.236 95.5554 24.2555L95.8062 24.2726C96.585 24.3214 96.6855 24.3214 97.4652 24.3214C97.7521 24.3214 98.4372 24.2989 99.8049 24.1496L100.041 24.112C100.478 24.0452 101.29 23.9212 102.184 23.6885C103.361 23.3762 104.214 23.0371 104.35 22.9688C104.596 22.8658 105.021 22.6838 105.305 22.5286C105.853 22.2319 105.953 22.17 106.443 21.8631L106.549 21.7967C107.082 21.4468 107.574 21.0379 107.947 20.6359C108.295 20.287 108.533 19.9923 108.725 19.6722C108.742 19.637 108.782 19.5687 108.823 19.5009C108.856 19.4453 108.89 19.3901 108.913 19.3457L108.976 19.2208C109.06 19.0549 109.161 18.8597 109.217 18.6938C109.223 18.6631 109.243 18.5962 109.263 18.5294C109.28 18.4728 109.297 18.4162 109.309 18.3708C109.356 18.1825 109.402 17.9253 109.426 17.7384L109.425 17.7423L109.43 17.6711C109.439 17.555 109.457 17.3281 109.436 17.0529C109.433 17.0148 109.429 16.9763 109.425 16.9387L110.021 16.8772C110.026 16.9197 110.03 16.9621 110.034 17.0031C111.021 27.435 112.188 37.9205 113.315 48.0616C114.441 58.188 115.605 68.6604 116.592 79.0703C116.622 79.164 116.622 79.2586 116.622 79.3377V79.5612C116.622 79.6675 116.619 79.7573 116.628 79.8071L116.494 79.8305L116.695 79.9066C116.669 80.2111 116.619 80.6171 116.568 80.9196C116.521 81.2299 116.418 81.6857 116.277 82.0233C116.128 82.4147 115.963 82.8246 115.79 83.1212C115.622 83.4355 115.344 83.8678 115.104 84.1879C114.991 84.3401 114.874 84.4982 114.72 84.6758L114.194 84.4797L114.169 77.0648C114.169 76.0655 113.845 75.3287 113.256 74.99C112.667 74.6504 111.86 74.7402 110.986 75.2477C109.078 76.3534 107.527 79.042 107.527 81.2407L107.552 89.0742L107.352 89.3582C106.927 89.5075 106.552 89.6334 106.053 89.7817C105.636 89.9203 105.028 90.0813 104.254 90.257C103.987 90.3302 103.606 90.4073 103.326 90.4571C102.753 90.5576 102.007 90.6825 101.46 90.7557L101.244 90.7781C100.817 90.824 99.9274 90.9197 98.7163 90.9811C98.2835 91.0026 97.9 91.0104 97.5418 91.0104ZM84.6619 19.213C83.787 28.8681 82.8697 37.3281 81.9801 45.5296C80.8042 56.3762 79.6931 66.6217 78.6845 79.2869C78.6352 79.8617 78.6904 80.378 78.7065 80.4746C78.7553 80.7917 78.827 81.2006 78.8992 81.4905C78.9207 81.5637 78.9505 81.6544 78.9807 81.7442C79.0124 81.8389 79.0441 81.9345 79.0695 82.0233C79.1427 82.2253 79.2637 82.4654 79.3774 82.6928C79.4384 82.8148 79.4975 82.9329 79.5482 83.0422C79.6019 83.1681 79.6941 83.2979 79.7722 83.412L79.8473 83.5233C80.0523 83.8551 80.4343 84.3128 80.6183 84.5333C80.7734 84.7168 81.176 85.1765 81.5346 85.4517C81.6747 85.5883 81.8645 85.7425 82.0699 85.8899C82.4456 86.1856 82.8648 86.5096 83.2117 86.7184C83.3357 86.7926 83.4742 86.8784 83.6177 86.9672C83.8958 87.139 84.1915 87.3225 84.4336 87.4513C84.6302 87.5723 84.8839 87.6884 85.1074 87.789C86.0823 88.2632 86.6601 88.4867 87.3915 88.7707C87.8824 88.9503 89.6605 89.5719 91.7313 89.9164C92.2632 90.013 93.0044 90.137 93.5382 90.1858C93.6953 90.1994 93.8866 90.2219 94.0681 90.2433L94.4302 90.2843C94.9288 90.3312 95.6447 90.3819 96.1556 90.3819L96.2331 90.3839C96.9948 90.4073 97.7141 90.4288 98.6866 90.3819C99.8806 90.3214 100.758 90.2277 101.18 90.1828L101.392 90.1604C101.919 90.0891 102.657 89.9662 103.221 89.8666C103.485 89.8198 103.845 89.7466 104.108 89.6754C104.877 89.5007 105.466 89.3455 105.873 89.2108C106.288 89.0859 106.613 88.9795 106.952 88.8624L106.928 81.2416C106.928 78.8117 108.578 75.9513 110.686 74.7285C111.752 74.1108 112.771 74.019 113.556 74.4709C114.338 74.9208 114.768 75.842 114.768 77.0638L114.79 83.5945C114.977 83.3252 115.15 83.0451 115.267 82.8285C115.444 82.524 115.631 82.036 115.72 81.8008C115.823 81.5549 115.922 81.1753 115.976 80.824C116.016 80.5907 116.054 80.298 116.081 80.0413C116.023 79.9261 116.023 79.7612 116.023 79.5612V79.3377C116.023 79.3065 116.025 79.2752 116.02 79.2499L115.999 79.1679C115.012 68.7492 113.847 58.2661 112.72 48.1279C111.669 38.6846 110.586 28.9437 109.643 19.2228C109.599 19.3194 109.552 19.4106 109.51 19.4931L109.448 19.6141C109.42 19.6707 109.379 19.74 109.337 19.8093C109.304 19.8639 109.272 19.9181 109.249 19.9615C109.024 20.3397 108.751 20.6798 108.379 21.0516C107.981 21.4805 107.451 21.9221 106.892 22.2881L106.761 22.3715C106.256 22.6872 106.155 22.7506 105.591 23.0556C105.299 23.2147 104.89 23.3928 104.599 23.5138C104.446 23.5914 103.549 23.9466 102.337 24.2682C101.412 24.5097 100.579 24.6366 100.131 24.7049L99.8908 24.743C98.8354 24.8586 97.9815 24.9206 97.4652 24.9206C96.6689 24.9206 96.5664 24.9206 95.7662 24.8708L95.5159 24.8542C95.1997 24.8332 94.8318 24.8088 94.5561 24.7693L94.153 24.7142C93.6158 24.6415 93.4148 24.6141 92.7316 24.4692C92.3579 24.3941 91.8792 24.2687 91.5259 24.1681C91.2219 24.1057 90.2524 23.8022 89.3062 23.3606C86.9836 22.313 85.369 20.8535 84.6619 19.213Z" fill="#1A1A1A"/>
<path d="M89.505 14.6936L89.8012 14.9898L90.6977 15.2886V22.3482C90.6977 22.5206 90.6245 22.6726 90.5229 22.7799C90.423 22.8854 90.2742 22.9693 90.1013 22.9693C89.8039 22.9693 89.505 22.7274 89.505 22.3729V14.6936Z" fill="#1A1A1A"/>
<path d="M96.5242 16.2315L97.2961 16.4888H97.7168V23.7086C97.7168 24.0631 97.4179 24.305 97.1206 24.305C96.8231 24.305 96.5242 24.0631 96.5242 23.7086V16.2315Z" fill="#1A1A1A"/>
<path d="M103.517 15.4894H104.291L104.71 15.2106V22.3482C104.71 22.6545 104.482 22.9693 104.113 22.9693C103.816 22.9693 103.517 22.7274 103.517 22.3729V15.4894Z" fill="#1A1A1A"/>
<path d="M108.46 12.8199V16.9105C108.46 17.265 108.759 17.5068 109.056 17.5068C109.39 17.5068 109.609 17.2349 109.65 16.9529L109.653 16.9318V11.339L108.788 12.4915L108.46 12.8199Z" fill="#1A1A1A"/>
<path d="M97.341 5.12246C99.2382 5.12246 100.776 4.30371 100.776 3.2936C100.776 2.28359 99.2382 1.46484 97.341 1.46484C95.4437 1.46484 93.9058 2.28359 93.9058 3.2936C93.9058 4.30371 95.4437 5.12246 97.341 5.12246Z" fill="#5E5FF5"/>
<path fill-rule="evenodd" clip-rule="evenodd" d="M95.0528 2.26509C94.4695 2.57558 94.2055 2.95352 94.2055 3.29359C94.2055 3.63376 94.4695 4.0117 95.0528 4.32219C95.6231 4.62579 96.4315 4.82265 97.341 4.82265C98.2504 4.82265 99.0589 4.62579 99.6292 4.32219C100.212 4.0117 100.476 3.63376 100.476 3.29359C100.476 2.95352 100.212 2.57558 99.6292 2.26509C99.0589 1.9615 98.2504 1.76463 97.341 1.76463C96.4315 1.76463 95.6231 1.9615 95.0528 2.26509ZM94.771 1.73585C95.444 1.37749 96.3532 1.16504 97.341 1.16504C98.3287 1.16504 99.2379 1.37749 99.911 1.73585C100.571 2.08721 101.076 2.62375 101.076 3.29359C101.076 3.96354 100.571 4.50007 99.911 4.85143C99.2379 5.20979 98.3287 5.42225 97.341 5.42225C96.3532 5.42225 95.444 5.20979 94.771 4.85143C94.111 4.50007 93.606 3.96354 93.606 3.29359C93.606 2.62375 94.111 2.08721 94.771 1.73585V1.73585Z" fill="#1A1A1A"/>
</g>
</g>
<defs>
<clipPath id="clip0_2287_3232">
<rect width="166.6" height="136" fill="white" transform="translate(17)"/>
</clipPath>
<clipPath id="clip1_2287_3232">
<rect width="166.6" height="136" fill="white" transform="translate(17)"/>
</clipPath>
</defs>
</svg>
