<svg width="1em" height="1em" viewBox="0 0 138 17" fill="none" xmlns="http://www.w3.org/2000/svg">
<path d="M18.3281 12.1497H13.1628L14.0521 16.3333H20.995L18.3281 12.1497Z" fill="#875CFF"/>
<path d="M14.2643 5.77744L10.5815 0L11.8088 5.77744H14.2643Z" fill="#875CFF"/>
<path d="M12.9085 10.9537H17.5654L15.0261 6.96924H12.0621L12.9085 10.9537Z" fill="#875CFF"/>
<path d="M10.5808 0L6.89804 5.77744H11.8081L10.5808 0Z" fill="#EC98FF"/>
<path d="M2.83356 12.1497L0.166672 16.3333H14.0525L13.1632 12.1497H2.83356Z" fill="#EC98FF"/>
<path d="M12.0637 6.96924H6.13667L3.59741 10.9537H12.9101L12.0637 6.96924Z" fill="#EC98FF"/>
<path d="M28.6399 3.80536L33.3089 9.67468V5.60593C33.3089 5.03831 33.2275 4.65447 33.0646 4.4544C32.8413 4.18455 32.4667 4.05428 31.941 4.06358V3.80536H35.0676V4.06358C34.6674 4.11476 34.3976 4.18222 34.258 4.26597C34.1231 4.34507 34.0161 4.47767 33.937 4.66377C33.8625 4.84523 33.8253 5.15928 33.8253 5.60593V13.4852H33.588L27.1883 5.60593V11.6218C27.1883 12.1662 27.3116 12.5337 27.5582 12.7245C27.8094 12.9152 28.0956 13.0106 28.4166 13.0106H28.6399V13.2689H25.2831V13.0106C25.8041 13.006 26.1671 12.899 26.3718 12.6896C26.5765 12.4802 26.6788 12.1243 26.6788 11.6218V4.94293L26.4765 4.69169C26.2764 4.44045 26.0996 4.27528 25.9461 4.19618C25.7925 4.11709 25.5715 4.07289 25.2831 4.06358V3.80536H28.6399Z" fill="#1A1A1A"/>
<path d="M40.6438 13.0106V13.2689H35.6957V13.0106H36.0097C36.2842 13.0106 36.5052 12.9618 36.6727 12.8641C36.7937 12.7989 36.8868 12.6873 36.9519 12.5291C37.0031 12.4174 37.0287 12.1243 37.0287 11.6497V5.42448C37.0287 4.94061 37.0031 4.63818 36.9519 4.51721C36.9007 4.39625 36.796 4.29156 36.6378 4.20316C36.4843 4.11011 36.2749 4.06358 36.0097 4.06358H35.6957V3.80536H40.6438V4.06358H40.3297C40.0552 4.06358 39.8342 4.11243 39.6667 4.21014C39.5458 4.27528 39.4504 4.38694 39.3806 4.54513C39.3294 4.65679 39.3038 4.94991 39.3038 5.42448V11.6497C39.3038 12.1336 39.3294 12.436 39.3806 12.557C39.4364 12.678 39.5411 12.785 39.6946 12.878C39.8528 12.9664 40.0645 13.0106 40.3297 13.0106H40.6438Z" fill="#1A1A1A"/>
<path d="M50.0026 9.94686L49.6467 13.2689H41.244V13.0106H41.558C41.8325 13.0106 42.0535 12.9618 42.221 12.8641C42.342 12.7989 42.4351 12.6873 42.5002 12.5291C42.5514 12.4174 42.577 12.1243 42.577 11.6497V5.42448C42.577 4.94061 42.5514 4.63818 42.5002 4.51721C42.449 4.39625 42.3443 4.29156 42.1861 4.20316C42.0326 4.11011 41.8232 4.06358 41.558 4.06358H41.244V3.80536H46.2898V4.06358H45.878C45.6035 4.06358 45.3825 4.11243 45.215 4.21014C45.094 4.27528 44.9987 4.38694 44.9289 4.54513C44.8777 4.65679 44.8521 4.94991 44.8521 5.42448V11.4543C44.8521 11.9382 44.88 12.2476 44.9359 12.3825C44.9917 12.5128 45.101 12.6105 45.2639 12.6756C45.3802 12.7175 45.6617 12.7384 46.1083 12.7384H46.8969C47.3994 12.7384 47.8182 12.65 48.1532 12.4732C48.4882 12.2964 48.7766 12.0173 49.0186 11.6358C49.2651 11.2543 49.4978 10.6913 49.7165 9.94686H50.0026Z" fill="#1A1A1A"/>
<path d="M54.4063 4.34972V8.20211H54.5948C55.195 8.20211 55.63 8.01368 55.8998 7.63682C56.1697 7.25995 56.3418 6.70396 56.4163 5.96884H56.6815V10.9239H56.4163C56.3604 10.3842 56.2418 9.94221 56.0603 9.59791C55.8835 9.25361 55.6765 9.02331 55.4392 8.90699C55.2019 8.78602 54.8576 8.72554 54.4063 8.72554V11.3915C54.4063 11.9126 54.4273 12.2313 54.4691 12.3476C54.5157 12.4639 54.5994 12.5593 54.7204 12.6338C54.8413 12.7082 55.0368 12.7454 55.3066 12.7454H55.8719C56.7559 12.7454 57.4631 12.5407 57.9935 12.1313C58.5286 11.7218 58.9124 11.0984 59.1451 10.2609H59.4033L58.9776 13.2689H50.7982V13.0106H51.1122C51.3868 13.0106 51.6078 12.9618 51.7753 12.8641C51.8962 12.7989 51.9893 12.6873 52.0544 12.5291C52.1056 12.4174 52.1312 12.1243 52.1312 11.6497V5.42448C52.1312 4.99644 52.1195 4.73356 52.0963 4.63586C52.0498 4.47301 51.9637 4.34739 51.8381 4.25899C51.6613 4.12872 51.4193 4.06358 51.1122 4.06358H50.7982V3.80536H58.7193V6.60393H58.4541C58.3192 5.91999 58.1284 5.42913 57.8819 5.13136C57.6399 4.83359 57.2956 4.61492 56.849 4.47534C56.5884 4.39159 56.0999 4.34972 55.3834 4.34972H54.4063Z" fill="#1A1A1A"/>
<path d="M69.139 3.67276C70.6464 3.61693 71.8701 4.0566 72.8099 4.99178C73.7544 5.92697 74.2266 7.09711 74.2266 8.50221C74.2266 9.70259 73.8754 10.7587 73.1728 11.6707C72.2423 12.8804 70.9279 13.4852 69.2297 13.4852C67.5268 13.4852 66.2101 12.9083 65.2796 11.7544C64.5445 10.8425 64.1769 9.76075 64.1769 8.50919C64.1769 7.10409 64.6538 5.93395 65.6076 4.99876C66.566 4.05893 67.7432 3.61693 69.139 3.67276ZM69.2227 4.11941C68.3573 4.11941 67.699 4.56141 67.2476 5.44542C66.8801 6.17123 66.6963 7.21343 66.6963 8.572C66.6963 10.1865 66.9801 11.3799 67.5477 12.1522C67.9432 12.6919 68.4969 12.9618 69.2087 12.9618C69.688 12.9618 70.0881 12.8455 70.4091 12.6128C70.8186 12.3151 71.1373 11.8405 71.3652 11.1891C71.5932 10.5331 71.7072 9.67933 71.7072 8.62783C71.7072 7.37627 71.5909 6.44109 71.3583 5.82228C71.1256 5.19883 70.8279 4.75915 70.465 4.50326C70.1067 4.24736 69.6926 4.11941 69.2227 4.11941Z" fill="#1A1A1A"/>
<path d="M78.5396 8.95584V11.6079C78.5396 12.1196 78.5699 12.443 78.6304 12.5779C78.6955 12.7082 78.8072 12.8129 78.9654 12.892C79.1235 12.9711 79.419 13.0106 79.8517 13.0106V13.2689H75.0083V13.0106C75.4456 13.0106 75.7411 12.9711 75.8946 12.892C76.0528 12.8082 76.1621 12.7012 76.2226 12.571C76.2878 12.4407 76.3203 12.1196 76.3203 11.6079V5.46635C76.3203 4.95456 76.2878 4.63353 76.2226 4.50326C76.1621 4.36833 76.0528 4.26132 75.8946 4.18222C75.7364 4.10313 75.441 4.06358 75.0083 4.06358V3.80536H79.405C80.5496 3.80536 81.3871 3.88445 81.9175 4.04264C82.4479 4.20083 82.8806 4.49395 83.2155 4.92199C83.5505 5.34539 83.718 5.84322 83.718 6.4155C83.718 7.11339 83.4668 7.69032 82.9643 8.14628C82.6433 8.43475 82.1943 8.65109 81.6174 8.79533L83.8925 11.9987C84.1903 12.4128 84.402 12.671 84.5276 12.7733C84.7184 12.9176 84.9394 12.9967 85.1906 13.0106V13.2689H82.2106L79.1608 8.95584H78.5396ZM78.5396 4.31482V8.46034H78.9374C79.5842 8.46034 80.068 8.40218 80.3891 8.28586C80.7101 8.16489 80.9613 7.95087 81.1428 7.6438C81.3289 7.33207 81.422 6.92729 81.422 6.42945C81.422 5.70829 81.2521 5.17556 80.9125 4.83127C80.5775 4.48697 80.0355 4.31482 79.2864 4.31482H78.5396Z" fill="#1A1A1A"/>
<path d="M90.3062 13.0106V13.2689H85.3581V13.0106H85.6721C85.9467 13.0106 86.1677 12.9618 86.3352 12.8641C86.4561 12.7989 86.5492 12.6873 86.6143 12.5291C86.6655 12.4174 86.6911 12.1243 86.6911 11.6497V5.42448C86.6911 4.94061 86.6655 4.63818 86.6143 4.51721C86.5631 4.39625 86.4584 4.29156 86.3003 4.20316C86.1467 4.11011 85.9374 4.06358 85.6721 4.06358H85.3581V3.80536H90.3062V4.06358H89.9921C89.7176 4.06358 89.4966 4.11243 89.3291 4.21014C89.2082 4.27528 89.1128 4.38694 89.043 4.54513C88.9918 4.65679 88.9662 4.94991 88.9662 5.42448V11.6497C88.9662 12.1336 88.9918 12.436 89.043 12.557C89.0988 12.678 89.2035 12.785 89.357 12.878C89.5152 12.9664 89.7269 13.0106 89.9921 13.0106H90.3062Z" fill="#1A1A1A"/>
<path d="M100.502 3.58901V6.92496H100.244C99.9325 6.01304 99.4649 5.3198 98.8415 4.84523C98.218 4.37066 97.5364 4.13337 96.7966 4.13337C96.0894 4.13337 95.5009 4.33343 95.031 4.73356C94.561 5.12904 94.2284 5.6827 94.033 6.39456C93.8376 7.10641 93.7398 7.83688 93.7398 8.58596C93.7398 9.49322 93.8469 10.2888 94.0609 10.9728C94.2749 11.6567 94.6192 12.1592 95.0938 12.4802C95.573 12.8013 96.1406 12.9618 96.7966 12.9618C97.0246 12.9618 97.2573 12.9385 97.4945 12.892C97.7365 12.8408 97.9831 12.7687 98.2343 12.6756V10.7076C98.2343 10.3354 98.2087 10.0957 98.1575 9.98873C98.1064 9.87707 97.9994 9.77704 97.8365 9.68864C97.6783 9.60024 97.4852 9.55604 97.2573 9.55604H97.013V9.29781H101.612V9.55604C101.263 9.5793 101.019 9.62815 100.879 9.70259C100.744 9.77238 100.64 9.89103 100.565 10.0585C100.523 10.1469 100.502 10.3633 100.502 10.7076V12.6756C99.8976 12.9455 99.2672 13.1479 98.6112 13.2828C97.9598 13.4224 97.2828 13.4922 96.5803 13.4922C95.6823 13.4922 94.9356 13.3712 94.34 13.1293C93.7492 12.8827 93.2257 12.5616 92.7698 12.1662C92.3185 11.766 91.9649 11.3171 91.709 10.8192C91.3833 10.1772 91.2204 9.45833 91.2204 8.66273C91.2204 7.23901 91.7206 6.0363 92.7209 5.0546C93.7212 4.07289 94.9798 3.58203 96.4965 3.58203C96.9665 3.58203 97.3899 3.61925 97.7667 3.69369C97.9714 3.73092 98.3018 3.83793 98.7577 4.01473C99.2183 4.18688 99.4905 4.27295 99.5743 4.27295C99.7045 4.27295 99.8255 4.22642 99.9372 4.13337C100.049 4.03566 100.151 3.85421 100.244 3.58901H100.502Z" fill="#1A1A1A"/>
<path d="M107 13.0106V13.2689H102.052V13.0106H102.366C102.64 13.0106 102.861 12.9618 103.029 12.8641C103.15 12.7989 103.243 12.6873 103.308 12.5291C103.359 12.4174 103.385 12.1243 103.385 11.6497V5.42448C103.385 4.94061 103.359 4.63818 103.308 4.51721C103.257 4.39625 103.152 4.29156 102.994 4.20316C102.84 4.11011 102.631 4.06358 102.366 4.06358H102.052V3.80536H107V4.06358H106.686C106.411 4.06358 106.19 4.11243 106.023 4.21014C105.902 4.27528 105.807 4.38694 105.737 4.54513C105.686 4.65679 105.66 4.94991 105.66 5.42448V11.6497C105.66 12.1336 105.686 12.436 105.737 12.557C105.793 12.678 105.897 12.785 106.051 12.878C106.209 12.9664 106.421 13.0106 106.686 13.0106H107Z" fill="#1A1A1A"/>
<path d="M110.894 3.80536L115.563 9.67468V5.60593C115.563 5.03831 115.482 4.65447 115.319 4.4544C115.096 4.18455 114.721 4.05428 114.195 4.06358V3.80536H117.322V4.06358C116.922 4.11476 116.652 4.18222 116.512 4.26597C116.377 4.34507 116.27 4.47767 116.191 4.66377C116.117 4.84523 116.08 5.15928 116.08 5.60593V13.4852H115.842L109.443 5.60593V11.6218C109.443 12.1662 109.566 12.5337 109.812 12.7245C110.064 12.9152 110.35 13.0106 110.671 13.0106H110.894V13.2689H107.537V13.0106C108.058 13.006 108.421 12.899 108.626 12.6896C108.831 12.4802 108.933 12.1243 108.933 11.6218V4.94293L108.731 4.69169C108.531 4.44045 108.354 4.27528 108.2 4.19618C108.047 4.11709 107.826 4.07289 107.537 4.06358V3.80536H110.894Z" fill="#1A1A1A"/>
<path d="M123.61 10.575H120.267L119.869 11.4962C119.739 11.8033 119.674 12.0568 119.674 12.2569C119.674 12.5221 119.781 12.7175 119.995 12.8431C120.12 12.9176 120.43 12.9734 120.923 13.0106V13.2689H117.775V13.0106C118.115 12.9594 118.394 12.8199 118.613 12.5919C118.832 12.3593 119.101 11.8824 119.422 11.1612L122.807 3.60995H122.94L126.353 11.3706C126.678 12.1057 126.946 12.5686 127.155 12.7594C127.313 12.9036 127.537 12.9874 127.825 13.0106V13.2689H123.247V13.0106H123.435C123.803 13.0106 124.061 12.9594 124.21 12.8571C124.312 12.7826 124.364 12.6756 124.364 12.5361C124.364 12.4523 124.35 12.3662 124.322 12.2778C124.312 12.236 124.243 12.0615 124.112 11.7544L123.61 10.575ZM123.373 10.0585L121.963 6.79934L120.511 10.0585H123.373Z" fill="#1A1A1A"/>
<path d="M137.016 9.94686L136.661 13.2689H128.258V13.0106H128.572C128.846 13.0106 129.067 12.9618 129.235 12.8641C129.356 12.7989 129.449 12.6873 129.514 12.5291C129.565 12.4174 129.591 12.1243 129.591 11.6497V5.42448C129.591 4.94061 129.565 4.63818 129.514 4.51721C129.463 4.39625 129.358 4.29156 129.2 4.20316C129.047 4.11011 128.837 4.06358 128.572 4.06358H128.258V3.80536H133.304V4.06358H132.892C132.617 4.06358 132.396 4.11243 132.229 4.21014C132.108 4.27528 132.013 4.38694 131.943 4.54513C131.892 4.65679 131.866 4.94991 131.866 5.42448V11.4543C131.866 11.9382 131.894 12.2476 131.95 12.3825C132.006 12.5128 132.115 12.6105 132.278 12.6756C132.394 12.7175 132.676 12.7384 133.122 12.7384H133.911C134.413 12.7384 134.832 12.65 135.167 12.4732C135.502 12.2964 135.791 12.0173 136.032 11.6358C136.279 11.2543 136.512 10.6913 136.73 9.94686H137.016Z" fill="#1A1A1A"/>
</svg>
