<svg width="12" height="12" viewBox="0 0 12 12" fill="none" xmlns="http://www.w3.org/2000/svg">
<g clip-path="url(#clip0_1967_44820)">
<path d="M6 0C2.685 0 0 2.685 0 6C0 6.36 0.03 6.7125 0.09 7.05H1.425C1.5975 7.05 1.695 6.9975 1.7625 6.885L2.2275 6.1125L2.8275 7.9725C2.8875 8.16 3.0225 8.2575 3.21 8.2575C3.405 8.2575 3.5625 8.1375 3.6 7.95L4.035 5.9025L4.5075 9.165C4.5375 9.3825 4.6425 9.4875 4.86 9.4875C5.0775 9.4875 5.175 9.3675 5.205 9.1575L6.165 2.805C6.195 2.61 6.0525 2.4225 5.8575 2.4C5.6625 2.37 5.475 2.5125 5.4525 2.7075L4.86 6.78L4.4625 4.065C4.4325 3.855 4.275 3.7275 4.1025 3.72C3.9075 3.72 3.765 3.84 3.72 4.0425L3.15 6.705L2.6925 5.28C2.655 5.1225 2.52 5.01 2.37 4.995C2.16 4.9725 2.04 5.0775 1.9575 5.22L1.245 6.3375H0.825C0.825 6.225 0.81 6.12 0.81 6.0075C0.81 3.135 3.135 0.81 6 0.81C8.31 0.81 10.2675 2.325 10.9425 4.41H11.79C11.085 1.8675 8.76 0 6 0ZM11.91 4.95H10.575C10.4025 4.95 10.305 5.0025 10.2375 5.115L9.7725 5.8875L9.1725 4.0275C9.1125 3.84 8.9775 3.7425 8.79 3.7425C8.595 3.7425 8.4375 3.8625 8.4 4.05L7.965 6.0975L7.4925 2.835C7.4625 2.6175 7.3575 2.5125 7.14 2.5125C6.9225 2.5125 6.825 2.6325 6.795 2.8425L5.835 9.195C5.805 9.39 5.9475 9.5775 6.1425 9.6C6.3375 9.63 6.525 9.4875 6.5475 9.2925L7.14 5.22L7.5375 7.935C7.5675 8.145 7.725 8.2725 7.8975 8.28C8.0925 8.28 8.235 8.16 8.28 7.9575L8.85 5.295L9.3075 6.72C9.345 6.8775 9.48 6.99 9.63 7.005C9.84 7.0275 9.96 6.9225 10.0425 6.78L10.755 5.6625H11.1825C11.1825 5.775 11.1975 5.88 11.1975 5.9925C11.1975 8.8575 8.8725 11.1825 6.0075 11.1825C3.6975 11.1825 1.74 9.6675 1.065 7.5825H0.2175C0.915 10.125 3.24 11.9925 6 11.9925C9.315 11.9925 12 9.3075 12 5.9925C12 5.6325 11.97 5.28 11.91 4.9425V4.95Z" fill="url(#paint0_linear_1967_44820)"/>
</g>
<defs>
<linearGradient id="paint0_linear_1967_44820" x1="-0.5925" y1="-0.5925" x2="15.465" y2="15.465" gradientUnits="userSpaceOnUse">
<stop stop-color="#FC829F"/>
<stop offset="0.06" stop-color="#FD5E84"/>
<stop offset="0.12" stop-color="#FD416E"/>
<stop offset="0.18" stop-color="#FE2C5F"/>
<stop offset="0.24" stop-color="#FE2056"/>
<stop offset="0.3" stop-color="#FF1C53"/>
<stop offset="0.31" stop-color="#FB2471"/>
<stop offset="0.32" stop-color="#F531A0"/>
<stop offset="0.33" stop-color="#F03BC6"/>
<stop offset="0.34" stop-color="#EC42E1"/>
<stop offset="0.35" stop-color="#EA47F2"/>
<stop offset="0.36" stop-color="#EA49F8"/>
<stop offset="0.42" stop-color="#C44DFC"/>
<stop offset="0.45" stop-color="#B250FF"/>
<stop offset="0.5" stop-color="#5E5FF5"/>
<stop offset="1" stop-color="#323CFF"/>
</linearGradient>
<clipPath id="clip0_1967_44820">
<rect width="12" height="12" fill="white"/>
</clipPath>
</defs>
</svg>
