<svg width="1em" height="1em" viewBox="0 0 400 240" fill="none" xmlns="http://www.w3.org/2000/svg">
<path d="M200 240L200 120.945L142.192 178.753L141.485 178.046L200 119.531L199.97 119.499H121V118.499H198.97L137.517 57.0463L138.224 56.3392L200 118.116V0L201 4.2146e-08V118.499L201.032 118.499L258.485 61.0462L259.192 61.7533L202.446 118.499H279V119.499H201.446L201.415 119.53L259.224 177.339L258.517 178.046L201 120.53L201 240H200Z" fill="#1A1A1A"/>
<path d="M6.22346 95.5619C2.86689 103.041 1 111.332 1 120.059C1 130.232 3.53671 139.813 8.01267 148.205C18.1023 167.123 38.0459 180 61 180C94.1371 180 121 153.164 121 120.059C121 101.04 112.133 84.0902 98.3043 73.1094" stroke="#1A1A1A"/>
<path d="M7 94.2857C16.2659 74.0768 37.0186 60 61.1335 60C75.0673 60 87.8786 64.6997 98 72.5664" stroke="#1A1A1A" stroke-dasharray="2 3 2 3"/>
<circle cx="7" cy="95" r="3.5" fill="#1A1A1A" stroke="#1A1A1A"/>
<path d="M386.95 84.6328C382.209 78.0033 376.025 72.263 368.535 67.9265C359.804 62.8716 350.313 60.3124 340.874 60.0269C319.596 59.3835 298.578 70.2937 287.108 90.2154C270.55 118.975 280.16 155.624 308.573 172.073C324.896 181.524 343.874 182.251 360.209 175.706" stroke="#1A1A1A"/>
<path d="M387.894 86.0566C401.111 104.166 403.071 129.083 390.848 149.831C383.786 161.82 373.127 170.486 361.023 175.248" stroke="#1A1A1A" stroke-dasharray="2 3 2 3"/>
<path d="M386.326 89.0305C384.652 88.0642 384.078 85.924 385.045 84.2503C386.011 82.5766 388.151 82.0032 389.825 82.9695C391.499 83.9358 392.072 86.076 391.106 87.7497C390.139 89.4234 387.999 89.9968 386.326 89.0305Z" fill="#1A1A1A" stroke="#1A1A1A"/>
<rect x="11" y="70" width="100" height="100" rx="50" fill="#1A1A1A"/>
<path d="M41.1016 113.625V125H38.7656V113.625H41.1016ZM44.6016 113.625V115.461H35.3203V113.625H44.6016ZM55.0625 119.047V119.586C55.0625 120.451 54.9453 121.227 54.7109 121.914C54.4766 122.602 54.1458 123.188 53.7188 123.672C53.2917 124.151 52.7812 124.518 52.1875 124.773C51.599 125.029 50.9453 125.156 50.2266 125.156C49.513 125.156 48.8594 125.029 48.2656 124.773C47.6771 124.518 47.1667 124.151 46.7344 123.672C46.3021 123.188 45.9661 122.602 45.7266 121.914C45.4922 121.227 45.375 120.451 45.375 119.586V119.047C45.375 118.177 45.4922 117.401 45.7266 116.719C45.9609 116.031 46.2917 115.445 46.7188 114.961C47.151 114.477 47.6615 114.107 48.25 113.852C48.8438 113.596 49.4974 113.469 50.2109 113.469C50.9297 113.469 51.5833 113.596 52.1719 113.852C52.7656 114.107 53.276 114.477 53.7031 114.961C54.1354 115.445 54.4688 116.031 54.7031 116.719C54.9427 117.401 55.0625 118.177 55.0625 119.047ZM52.6953 119.586V119.031C52.6953 118.427 52.6406 117.896 52.5312 117.438C52.4219 116.979 52.2604 116.594 52.0469 116.281C51.8333 115.969 51.5729 115.734 51.2656 115.578C50.9583 115.417 50.6068 115.336 50.2109 115.336C49.8151 115.336 49.4635 115.417 49.1562 115.578C48.8542 115.734 48.5964 115.969 48.3828 116.281C48.1745 116.594 48.0156 116.979 47.9062 117.438C47.7969 117.896 47.7422 118.427 47.7422 119.031V119.586C47.7422 120.185 47.7969 120.716 47.9062 121.18C48.0156 121.638 48.1771 122.026 48.3906 122.344C48.6042 122.656 48.8646 122.893 49.1719 123.055C49.4792 123.216 49.8307 123.297 50.2266 123.297C50.6224 123.297 50.974 123.216 51.2812 123.055C51.5885 122.893 51.8464 122.656 52.0547 122.344C52.263 122.026 52.4219 121.638 52.5312 121.18C52.6406 120.716 52.6953 120.185 52.6953 119.586ZM59.0938 113.625V125H56.75V113.625H59.0938ZM65.9062 113.625L61.3984 119.242L58.7969 122.039L58.375 119.82L60.1328 117.414L63.0312 113.625H65.9062ZM63.2422 125L59.8906 119.742L61.625 118.289L66.0156 125H63.2422ZM74.5547 123.172V125H68.5V123.172H74.5547ZM69.2656 113.625V125H66.9219V113.625H69.2656ZM73.7656 118.258V120.039H68.5V118.258H73.7656ZM74.5469 113.625V115.461H68.5V113.625H74.5469ZM85.1797 113.625V125H82.8359L78.2656 117.375V125H75.9219V113.625H78.2656L82.8438 121.258V113.625H85.1797Z" fill="white"/>
<rect x="289" y="70" width="100" height="100" rx="50" fill="#1A1A1A"/>
<path d="M334.273 113.625V125H331.93L327.359 117.375V125H325.016V113.625H327.359L331.938 121.258V113.625H334.273ZM338.656 113.625V125H336.312V113.625H338.656ZM343.188 118.484V120.312H338.016V118.484H343.188ZM343.734 113.625V115.461H338.016V113.625H343.734ZM350.336 113.625V125H348V113.625H350.336ZM353.836 113.625V115.461H344.555V113.625H353.836Z" fill="white"/>
<rect x="168" y="88" width="64" height="64" rx="32" fill="#1A1A1A"/>
<path d="M200 114.827L206.141 100L209.797 101.515L203.656 116.342L201.07 117.413L200 114.827ZM198.929 122.585L196.343 123.656L190.202 138.483L193.858 139.998L200 125.171L198.929 122.585ZM197.414 118.929L196.343 116.344L181.517 110.202L180.002 113.858L194.831 120L197.416 118.929H197.414ZM202.587 121.071L203.658 123.656L218.485 129.798L219.999 126.142L205.172 120L202.587 121.071Z" fill="#EC80FF"/>
<path d="M203.656 123.658L209.798 138.485L206.141 140L200 125.173L201.071 122.587L201.514 121.516L202.585 121.073L203.656 123.658ZM201.071 117.414L201.514 118.485L202.585 118.929L205.171 120L219.997 113.858L218.483 110.202L203.656 116.344L201.071 117.414ZM198.929 122.587L198.485 121.516L197.414 121.073L194.829 120.002L180 126.144L181.515 129.8L196.341 123.658L198.927 122.587H198.929ZM197.414 118.931L198.485 118.487L198.929 117.416L200 114.831L193.858 100.004L190.202 101.518L196.344 116.346L197.414 118.931Z" fill="#875CFF"/>
</svg>
