<svg width="420" height="252" viewBox="0 0 420 252" fill="none" xmlns="http://www.w3.org/2000/svg">
<path d="M210.002 252L210.002 126.992L149.288 187.691L148.546 186.949L210.002 125.507L209.969 125.474H127.031V124.424H208.919L144.378 59.8986L145.121 59.1561L210.002 124.022V0L211.052 4.42533e-08V124.424L211.085 124.424L271.425 64.0985L272.168 64.841L212.57 124.424H292.971V125.474H211.52L211.487 125.507L272.201 186.206L271.459 186.949L211.052 126.557L211.052 252H210.002Z" fill="#D9D9D9"/>
<path d="M6.48596 100.342C2.96071 108.195 1 116.901 1 126.064C1 136.746 3.66419 146.806 8.36508 155.618C18.9617 175.481 39.9075 189.002 64.0152 189.002C98.8176 189.002 127.03 160.824 127.03 126.064C127.03 106.094 117.718 88.2965 103.194 76.7666" stroke="white" stroke-width="0.8"/>
<path d="M7.30078 99C17.0323 77.7807 38.8279 63 64.1547 63C78.7887 63 92.2438 67.9347 102.874 76.1948" stroke="white" stroke-width="0.8" stroke-dasharray="2.1 3.15 2.1 3.15"/>
<path d="M10.9765 99.7488C10.9765 101.778 9.33088 103.424 7.30062 103.424C5.27037 103.424 3.62474 101.778 3.62474 99.7488C3.62474 97.7194 5.27037 96.074 7.30062 96.074C9.33088 96.074 10.9765 97.7194 10.9765 99.7488Z" fill="white" stroke="white" stroke-width="1.05025"/>
<path d="M406.346 88.8644C401.366 81.9035 394.872 75.8762 387.005 71.3229C377.835 66.0152 367.868 63.328 357.954 63.0283C335.607 62.3526 313.533 73.8083 301.487 94.7261C284.096 124.923 294.189 163.405 324.029 180.677C341.173 190.6 361.105 191.364 378.261 184.491" stroke="white" stroke-width="0.8"/>
<path d="M407.336 90.3604C421.217 109.375 423.276 135.538 410.439 157.324C403.022 169.912 391.827 179.011 379.115 184.012" stroke="white" stroke-width="0.8" stroke-dasharray="2.1 3.15 2.1 3.15"/>
<path d="M405.69 93.4815C403.932 92.4669 403.33 90.2198 404.344 88.4626C405.359 86.7052 407.607 86.103 409.365 87.1177C411.123 88.1323 411.725 90.3794 410.71 92.1366C409.695 93.894 407.447 94.4962 405.69 93.4815Z" fill="white" stroke="white" stroke-width="1.05025"/>
<path d="M42.2806 120.62L42.3708 124.328H42.0344C41.8758 123.398 41.4847 122.652 40.8611 122.088C40.243 121.519 39.5729 121.235 38.8508 121.235C38.2929 121.235 37.8498 121.385 37.5216 121.686C37.1989 121.982 37.0375 122.323 37.0375 122.712C37.0375 122.958 37.0949 123.177 37.2098 123.368C37.3684 123.625 37.6228 123.88 37.9729 124.131C38.23 124.312 38.8235 124.632 39.7534 125.091C41.0553 125.731 41.9332 126.336 42.3872 126.905C42.8358 127.474 43.0601 128.124 43.0601 128.857C43.0601 129.787 42.6963 130.589 41.9688 131.262C41.2467 131.929 40.3278 132.263 39.2119 132.263C38.8618 132.263 38.5308 132.227 38.219 132.156C37.9072 132.085 37.5161 131.951 37.0457 131.754C36.7831 131.644 36.5671 131.59 36.3975 131.59C36.2553 131.59 36.1049 131.644 35.9462 131.754C35.7876 131.863 35.6591 132.03 35.5606 132.254H35.257V128.053H35.5606C35.8013 129.235 36.2635 130.137 36.9473 130.761C37.6365 131.379 38.3777 131.688 39.1708 131.688C39.7835 131.688 40.2703 131.521 40.6313 131.188C40.9978 130.854 41.1811 130.466 41.1811 130.023C41.1811 129.76 41.11 129.506 40.9678 129.259C40.831 129.013 40.6204 128.781 40.336 128.562C40.0515 128.338 39.5483 128.048 38.8262 127.692C37.8143 127.195 37.0867 126.771 36.6437 126.421C36.2006 126.07 35.8587 125.679 35.618 125.247C35.3828 124.815 35.2652 124.339 35.2652 123.82C35.2652 122.933 35.5907 122.178 36.2416 121.555C36.8926 120.931 37.7131 120.62 38.7031 120.62C39.0642 120.62 39.4143 120.663 39.7534 120.751C40.0105 120.816 40.3223 120.94 40.6888 121.12C41.0607 121.295 41.3206 121.383 41.4683 121.383C41.6105 121.383 41.7226 121.339 41.8047 121.251C41.8867 121.164 41.9633 120.953 42.0344 120.62H42.2806ZM47.3513 121.522V124.328H49.1729V125.141H47.3513V129.875C47.3513 130.318 47.3705 130.605 47.4088 130.736C47.4525 130.862 47.5264 130.966 47.6303 131.048C47.7342 131.125 47.83 131.163 47.9175 131.163C48.273 131.163 48.6094 130.892 48.9267 130.351L49.1729 130.531C48.7298 131.582 48.0105 132.107 47.0149 132.107C46.5281 132.107 46.1151 131.973 45.7759 131.705C45.4423 131.431 45.2289 131.128 45.1359 130.794C45.0812 130.608 45.0539 130.105 45.0539 129.284V125.141H44.0529V124.853C44.7421 124.367 45.3274 123.855 45.8088 123.319C46.2956 122.783 46.7195 122.184 47.0806 121.522H47.3513ZM53.5216 124.098C54.1889 124.098 54.8098 124.271 55.3841 124.615C55.9585 124.96 56.3934 125.45 56.6887 126.084C56.9896 126.719 57.14 127.413 57.14 128.168C57.14 129.257 56.8638 130.168 56.3113 130.901C55.644 131.787 54.7222 132.23 53.5462 132.23C52.392 132.23 51.5031 131.825 50.8795 131.015C50.2559 130.206 49.9441 129.268 49.9441 128.201C49.9441 127.102 50.2614 126.144 50.8959 125.329C51.5359 124.509 52.4111 124.098 53.5216 124.098ZM53.5544 124.681C53.2754 124.681 53.0347 124.788 52.8323 125.001C52.6354 125.209 52.5041 125.625 52.4385 126.248C52.3783 126.866 52.3482 127.728 52.3482 128.833C52.3482 129.418 52.3865 129.965 52.4631 130.474C52.5233 130.862 52.6518 131.158 52.8487 131.36C53.0457 131.562 53.2699 131.664 53.5216 131.664C53.7677 131.664 53.9728 131.595 54.1369 131.458C54.3503 131.272 54.4925 131.013 54.5636 130.679C54.673 130.159 54.7277 129.109 54.7277 127.528C54.7277 126.598 54.6758 125.961 54.5718 125.616C54.4679 125.266 54.3147 125.012 54.1123 124.853C53.9701 124.738 53.7841 124.681 53.5544 124.681ZM61.4887 124.328V126.068C61.9974 125.275 62.4433 124.749 62.8262 124.492C63.2091 124.23 63.5783 124.098 63.9338 124.098C64.2402 124.098 64.4836 124.194 64.6641 124.386C64.8501 124.572 64.9431 124.837 64.9431 125.182C64.9431 125.548 64.8528 125.832 64.6723 126.035C64.4973 126.237 64.2839 126.338 64.0323 126.338C63.7424 126.338 63.4908 126.245 63.2774 126.06C63.0641 125.874 62.9383 125.77 62.9 125.748C62.8453 125.715 62.7824 125.698 62.7113 125.698C62.5527 125.698 62.4022 125.759 62.26 125.879C62.0357 126.065 61.8662 126.33 61.7513 126.675C61.5762 127.205 61.4887 127.791 61.4887 128.431V130.195L61.4969 130.654C61.4969 130.966 61.5161 131.166 61.5544 131.253C61.62 131.401 61.7157 131.51 61.8415 131.582C61.9728 131.647 62.1916 131.688 62.498 131.705V132H58.3544V131.705C58.6881 131.677 58.9123 131.587 59.0272 131.434C59.1475 131.275 59.2077 130.862 59.2077 130.195V125.953C59.2077 125.515 59.1858 125.236 59.1421 125.116C59.0874 124.963 59.008 124.851 58.9041 124.78C58.8002 124.708 58.6169 124.659 58.3544 124.632V124.328H61.4887ZM69.2918 132.312L66.8138 126.626C66.4419 125.767 66.1656 125.239 65.9851 125.042C65.8101 124.845 65.5967 124.708 65.3451 124.632V124.328H69.4231V124.632C69.155 124.643 68.9663 124.695 68.8569 124.788C68.7475 124.881 68.6928 124.993 68.6928 125.124C68.6928 125.332 68.8296 125.742 69.1031 126.355L70.4159 129.358L71.3102 127.036C71.633 126.21 71.7943 125.636 71.7943 125.313C71.7943 125.11 71.726 124.949 71.5892 124.829C71.4579 124.708 71.2227 124.643 70.8836 124.632V124.328H73.4518V124.632C73.2001 124.659 72.995 124.758 72.8364 124.927C72.6778 125.091 72.4125 125.657 72.0405 126.626L69.8497 132.312C69.2973 133.734 68.887 134.609 68.619 134.937C68.2415 135.397 67.7684 135.627 67.1995 135.627C66.7455 135.627 66.3762 135.495 66.0918 135.233C65.8128 134.976 65.6733 134.664 65.6733 134.297C65.6733 133.98 65.7691 133.718 65.9605 133.51C66.1574 133.302 66.3981 133.198 66.6826 133.198C66.9561 133.198 67.1749 133.285 67.339 133.461C67.5085 133.636 67.5961 133.906 67.6015 134.273C67.607 134.481 67.6316 134.615 67.6754 134.675C67.7191 134.735 67.782 134.765 67.8641 134.765C67.9954 134.765 68.1349 134.686 68.2826 134.527C68.5014 134.297 68.7584 133.772 69.0538 132.952L69.2918 132.312ZM76.0938 126.421V126.133C76.7174 125.953 77.1495 125.786 77.3902 125.633C77.6309 125.474 77.8388 125.236 78.0138 124.919C78.1889 124.596 78.2764 124.271 78.2764 123.943C78.2764 123.489 78.1095 123.1 77.7759 122.777C77.4477 122.449 77.0374 122.285 76.5451 122.285C75.7793 122.285 75.1283 122.69 74.5923 123.5L74.2887 123.393C74.6825 122.479 75.1858 121.793 75.7984 121.333C76.4165 120.874 77.103 120.644 77.8579 120.644C78.6292 120.644 79.2637 120.879 79.7615 121.35C80.2647 121.82 80.5164 122.37 80.5164 122.999C80.5164 123.409 80.3988 123.806 80.1635 124.189C79.9338 124.566 79.57 124.9 79.0723 125.19C79.7123 125.502 80.1991 125.887 80.5328 126.347C80.8719 126.801 81.0415 127.372 81.0415 128.062C81.0415 129.221 80.6203 130.209 79.7779 131.024C78.941 131.833 77.8169 132.238 76.4056 132.238C75.4648 132.238 74.7783 132.082 74.3461 131.77C74.0343 131.551 73.8784 131.27 73.8784 130.925C73.8784 130.674 73.9687 130.46 74.1492 130.285C74.3297 130.105 74.5376 130.014 74.7728 130.014C74.9533 130.014 75.1229 130.053 75.2815 130.129C75.369 130.173 75.6781 130.414 76.2087 130.851C76.7448 131.283 77.2453 131.499 77.7102 131.499C78.115 131.499 78.4624 131.341 78.7523 131.024C79.0422 130.701 79.1871 130.293 79.1871 129.801C79.1871 129.052 78.9246 128.362 78.3994 127.733C77.8743 127.099 77.1058 126.661 76.0938 126.421ZM84.1102 129.473C84.4931 129.473 84.8158 129.607 85.0784 129.875C85.3464 130.143 85.4805 130.466 85.4805 130.843C85.4805 131.221 85.3464 131.543 85.0784 131.811C84.8104 132.074 84.4876 132.205 84.1102 132.205C83.7328 132.205 83.41 132.074 83.142 131.811C82.8794 131.543 82.7482 131.221 82.7482 130.843C82.7482 130.466 82.8794 130.143 83.142 129.875C83.41 129.607 83.7328 129.473 84.1102 129.473ZM93.9974 126.437C93.9974 127.547 93.8415 128.584 93.5297 129.547C93.3437 130.137 93.0921 130.622 92.7748 130.999C92.463 131.376 92.1074 131.677 91.7081 131.902C91.3088 132.12 90.8739 132.23 90.4035 132.23C89.8675 132.23 89.3833 132.093 88.9512 131.819C88.5191 131.546 88.1362 131.155 87.8025 130.646C87.5618 130.274 87.3512 129.779 87.1707 129.161C86.9355 128.324 86.8179 127.46 86.8179 126.568C86.8179 125.359 86.9875 124.249 87.3266 123.237C87.6056 122.4 88.0295 121.76 88.5984 121.317C89.1673 120.868 89.769 120.644 90.4035 120.644C91.049 120.644 91.6507 120.866 92.2086 121.309C92.7721 121.746 93.185 122.337 93.4476 123.081C93.8141 124.104 93.9974 125.223 93.9974 126.437ZM91.4702 126.421C91.4702 124.473 91.4592 123.338 91.4374 123.015C91.3827 122.255 91.2514 121.741 91.0435 121.473C90.9068 121.298 90.6852 121.21 90.3789 121.21C90.1437 121.21 89.9577 121.276 89.821 121.407C89.6186 121.599 89.4818 121.938 89.4107 122.425C89.3396 122.906 89.304 124.594 89.304 127.487C89.304 129.063 89.3587 130.118 89.4681 130.654C89.5502 131.043 89.6678 131.303 89.821 131.434C89.9741 131.565 90.1765 131.631 90.4281 131.631C90.7016 131.631 90.9068 131.543 91.0435 131.368C91.2733 131.062 91.4045 130.589 91.4374 129.949L91.4702 126.421Z" fill="white"/>
<rect x="11.902" y="73.9" width="104.225" height="104.2" rx="52.1" stroke="white" stroke-width="0.8"/>
<path d="M335.627 120.231V124.087H335.307C335.066 123.081 334.617 122.309 333.961 121.773C333.305 121.237 332.561 120.969 331.729 120.969C331.035 120.969 330.397 121.169 329.818 121.568C329.238 121.968 328.814 122.49 328.546 123.135C328.201 123.961 328.029 124.88 328.029 125.892C328.029 126.888 328.155 127.796 328.406 128.616C328.658 129.432 329.052 130.05 329.588 130.471C330.124 130.887 330.819 131.094 331.672 131.094C332.372 131.094 333.012 130.941 333.592 130.635C334.177 130.329 334.793 129.801 335.438 129.051V130.011C334.814 130.662 334.163 131.135 333.485 131.431C332.812 131.721 332.025 131.866 331.122 131.866C329.935 131.866 328.879 131.628 327.955 131.152C327.036 130.676 326.325 129.992 325.822 129.101C325.324 128.209 325.075 127.26 325.075 126.253C325.075 125.192 325.351 124.186 325.904 123.234C326.462 122.282 327.211 121.544 328.152 121.019C329.098 120.493 330.102 120.231 331.163 120.231C331.945 120.231 332.771 120.4 333.641 120.74C334.144 120.936 334.464 121.035 334.601 121.035C334.776 121.035 334.927 120.972 335.052 120.846C335.184 120.715 335.268 120.51 335.307 120.231H335.627ZM340.304 123.94V125.679C340.812 124.886 341.258 124.361 341.641 124.104C342.024 123.841 342.393 123.71 342.749 123.71C343.055 123.71 343.298 123.806 343.479 123.997C343.665 124.183 343.758 124.448 343.758 124.793C343.758 125.159 343.668 125.444 343.487 125.646C343.312 125.849 343.099 125.95 342.847 125.95C342.557 125.95 342.306 125.857 342.092 125.671C341.879 125.485 341.753 125.381 341.715 125.359C341.66 125.326 341.597 125.31 341.526 125.31C341.368 125.31 341.217 125.37 341.075 125.49C340.851 125.676 340.681 125.942 340.566 126.286C340.391 126.817 340.304 127.402 340.304 128.042V129.806L340.312 130.266C340.312 130.577 340.331 130.777 340.369 130.865C340.435 131.012 340.531 131.122 340.656 131.193C340.788 131.259 341.007 131.3 341.313 131.316V131.611H337.169V131.316C337.503 131.289 337.727 131.198 337.842 131.045C337.962 130.887 338.023 130.474 338.023 129.806V125.564C338.023 125.127 338.001 124.848 337.957 124.727C337.902 124.574 337.823 124.462 337.719 124.391C337.615 124.32 337.432 124.27 337.169 124.243V123.94H340.304ZM350.773 127.501H346.564C346.613 128.518 346.884 129.322 347.376 129.913C347.754 130.367 348.208 130.594 348.738 130.594C349.067 130.594 349.365 130.504 349.633 130.323C349.901 130.137 350.188 129.806 350.494 129.33L350.773 129.511C350.358 130.359 349.898 130.96 349.395 131.316C348.892 131.666 348.309 131.841 347.647 131.841C346.509 131.841 345.648 131.403 345.063 130.528C344.592 129.823 344.357 128.947 344.357 127.903C344.357 126.623 344.702 125.605 345.391 124.85C346.085 124.09 346.898 123.71 347.828 123.71C348.604 123.71 349.277 124.03 349.846 124.67C350.421 125.304 350.73 126.248 350.773 127.501ZM348.755 126.951C348.755 126.07 348.706 125.466 348.607 125.137C348.514 124.809 348.367 124.56 348.164 124.391C348.049 124.292 347.896 124.243 347.705 124.243C347.42 124.243 347.188 124.383 347.007 124.662C346.684 125.148 346.523 125.816 346.523 126.664V126.951H348.755ZM355.975 130.479C355.04 131.305 354.2 131.718 353.456 131.718C353.019 131.718 352.655 131.576 352.365 131.291C352.075 131.001 351.93 130.64 351.93 130.208C351.93 129.623 352.182 129.098 352.685 128.633C353.188 128.162 354.285 127.539 355.975 126.762V125.991C355.975 125.411 355.943 125.047 355.877 124.9C355.817 124.746 355.699 124.615 355.524 124.506C355.349 124.391 355.152 124.333 354.933 124.333C354.578 124.333 354.285 124.413 354.055 124.571C353.913 124.67 353.842 124.785 353.842 124.916C353.842 125.031 353.919 125.173 354.072 125.343C354.28 125.578 354.384 125.805 354.384 126.024C354.384 126.292 354.282 126.521 354.08 126.713C353.883 126.899 353.623 126.992 353.301 126.992C352.956 126.992 352.666 126.888 352.431 126.68C352.201 126.472 352.086 126.229 352.086 125.95C352.086 125.556 352.242 125.181 352.554 124.826C352.866 124.465 353.301 124.188 353.858 123.997C354.416 123.806 354.996 123.71 355.598 123.71C356.325 123.71 356.9 123.866 357.321 124.178C357.748 124.484 358.024 124.817 358.15 125.179C358.226 125.408 358.265 125.936 358.265 126.762V129.741C358.265 130.091 358.278 130.312 358.306 130.405C358.333 130.493 358.374 130.558 358.429 130.602C358.483 130.646 358.546 130.668 358.617 130.668C358.76 130.668 358.905 130.567 359.052 130.364L359.298 130.561C359.025 130.966 358.741 131.261 358.445 131.447C358.155 131.628 357.824 131.718 357.452 131.718C357.015 131.718 356.673 131.617 356.427 131.414C356.181 131.207 356.03 130.895 355.975 130.479ZM355.975 129.88V127.312C355.314 127.7 354.821 128.116 354.498 128.559C354.285 128.854 354.178 129.153 354.178 129.453C354.178 129.705 354.269 129.927 354.449 130.118C354.586 130.266 354.777 130.34 355.024 130.34C355.297 130.34 355.614 130.186 355.975 129.88ZM363.188 121.133V123.94H365.009V124.752H363.188V129.486C363.188 129.929 363.207 130.216 363.245 130.348C363.289 130.474 363.363 130.577 363.467 130.66C363.571 130.736 363.666 130.774 363.754 130.774C364.109 130.774 364.446 130.504 364.763 129.962L365.009 130.143C364.566 131.193 363.847 131.718 362.851 131.718C362.364 131.718 361.951 131.584 361.612 131.316C361.279 131.042 361.065 130.739 360.972 130.405C360.918 130.219 360.89 129.716 360.89 128.895V124.752H359.889V124.465C360.578 123.978 361.164 123.466 361.645 122.93C362.132 122.394 362.556 121.795 362.917 121.133H363.188ZM369.358 123.71C370.025 123.71 370.646 123.882 371.22 124.227C371.795 124.571 372.23 125.061 372.525 125.695C372.826 126.33 372.976 127.025 372.976 127.78C372.976 128.868 372.7 129.779 372.148 130.512C371.48 131.398 370.559 131.841 369.383 131.841C368.228 131.841 367.339 131.436 366.716 130.627C366.092 129.817 365.78 128.879 365.78 127.812C365.78 126.713 366.098 125.756 366.732 124.941C367.372 124.12 368.247 123.71 369.358 123.71ZM369.391 124.292C369.112 124.292 368.871 124.399 368.669 124.612C368.472 124.82 368.34 125.236 368.275 125.86C368.215 126.478 368.185 127.339 368.185 128.444C368.185 129.029 368.223 129.576 368.299 130.085C368.36 130.474 368.488 130.769 368.685 130.971C368.882 131.174 369.106 131.275 369.358 131.275C369.604 131.275 369.809 131.207 369.973 131.07C370.187 130.884 370.329 130.624 370.4 130.29C370.509 129.771 370.564 128.72 370.564 127.14C370.564 126.21 370.512 125.572 370.408 125.228C370.304 124.878 370.151 124.623 369.949 124.465C369.806 124.35 369.62 124.292 369.391 124.292ZM377.325 123.94V125.679C377.834 124.886 378.28 124.361 378.663 124.104C379.045 123.841 379.415 123.71 379.77 123.71C380.077 123.71 380.32 123.806 380.5 123.997C380.686 124.183 380.779 124.448 380.779 124.793C380.779 125.159 380.689 125.444 380.509 125.646C380.334 125.849 380.12 125.95 379.869 125.95C379.579 125.95 379.327 125.857 379.114 125.671C378.9 125.485 378.775 125.381 378.736 125.359C378.682 125.326 378.619 125.31 378.548 125.31C378.389 125.31 378.239 125.37 378.096 125.49C377.872 125.676 377.703 125.942 377.588 126.286C377.413 126.817 377.325 127.402 377.325 128.042V129.806L377.333 130.266C377.333 130.577 377.352 130.777 377.391 130.865C377.456 131.012 377.552 131.122 377.678 131.193C377.809 131.259 378.028 131.3 378.334 131.316V131.611H374.191V131.316C374.524 131.289 374.749 131.198 374.864 131.045C374.984 130.887 375.044 130.474 375.044 129.806V125.564C375.044 125.127 375.022 124.848 374.978 124.727C374.924 124.574 374.844 124.462 374.74 124.391C374.637 124.32 374.453 124.27 374.191 124.243V123.94H377.325ZM386.457 123.726L386.58 126.344H386.301C385.968 125.567 385.62 125.036 385.259 124.752C384.904 124.467 384.548 124.325 384.193 124.325C383.968 124.325 383.777 124.402 383.618 124.555C383.46 124.703 383.38 124.875 383.38 125.072C383.38 125.22 383.435 125.362 383.545 125.499C383.72 125.723 384.209 126.108 385.013 126.655C385.817 127.197 386.345 127.659 386.597 128.042C386.854 128.42 386.982 128.843 386.982 129.314C386.982 129.741 386.876 130.159 386.662 130.569C386.449 130.98 386.148 131.294 385.76 131.513C385.372 131.732 384.942 131.841 384.472 131.841C384.105 131.841 383.616 131.726 383.003 131.496C382.839 131.436 382.727 131.406 382.667 131.406C382.486 131.406 382.336 131.543 382.215 131.816H381.945L381.813 129.06H382.092C382.338 129.782 382.675 130.323 383.101 130.684C383.534 131.045 383.941 131.226 384.324 131.226C384.587 131.226 384.8 131.146 384.964 130.988C385.134 130.824 385.218 130.627 385.218 130.397C385.218 130.134 385.136 129.907 384.972 129.716C384.808 129.524 384.442 129.235 383.873 128.846C383.036 128.266 382.494 127.823 382.248 127.517C381.887 127.068 381.707 126.573 381.707 126.032C381.707 125.441 381.909 124.908 382.314 124.432C382.724 123.95 383.315 123.71 384.086 123.71C384.502 123.71 384.904 123.811 385.292 124.013C385.44 124.095 385.56 124.136 385.653 124.136C385.752 124.136 385.831 124.117 385.891 124.079C385.951 124.035 386.047 123.918 386.178 123.726H386.457Z" fill="white"/>
<rect x="303.873" y="73.9" width="104.225" height="104.2" rx="52.1" stroke="white" stroke-width="0.8"/>
<rect x="176.918" y="92.9245" width="66.166" height="66.1497" rx="33.0749" fill="#1A1A1A"/>
<g filter="url(#filter0_d_1134_18379)">
<path fill-rule="evenodd" clip-rule="evenodd" d="M211.116 132.621C211.116 130.673 212.695 129.093 214.643 129.093C216.592 129.093 218.171 130.673 218.171 132.621C218.171 134.569 216.592 136.148 214.643 136.148C212.695 136.148 211.116 134.569 211.116 132.621ZM211.75 128.112C212.584 127.576 213.578 127.264 214.643 127.264C217.602 127.264 220 129.663 220 132.621C220 135.579 217.602 137.978 214.643 137.978C211.685 137.978 209.287 135.579 209.287 132.621C209.287 131.621 209.561 130.685 210.038 129.884C209.972 129.84 209.91 129.789 209.851 129.731L199.058 118.937C198.569 118.448 198.569 117.656 199.058 117.168C199.546 116.679 200.339 116.679 200.827 117.168L201.299 117.639L202.192 116.747L201.287 115.842L203.099 114.029L204.783 115.713L204.764 116.774L205.825 116.755L207.569 118.499L205.757 120.311L204.795 119.35L203.902 120.243L211.621 127.961C211.669 128.009 211.712 128.059 211.75 128.112Z" fill="white"/>
</g>
<rect x="176.918" y="92.9245" width="66.166" height="66.1497" rx="33.0749" stroke="white" stroke-width="1.05025"/>
<defs>
<filter id="filter0_d_1134_18379" x="184.016" y="99.3534" width="50.6603" height="53.3" filterUnits="userSpaceOnUse" color-interpolation-filters="sRGB">
<feFlood flood-opacity="0" result="BackgroundImageFix"/>
<feColorMatrix in="SourceAlpha" type="matrix" values="0 0 0 0 0 0 0 0 0 0 0 0 0 0 0 0 0 0 127 0" result="hardAlpha"/>
<feOffset/>
<feGaussianBlur stdDeviation="7.33794"/>
<feComposite in2="hardAlpha" operator="out"/>
<feColorMatrix type="matrix" values="0 0 0 0 1 0 0 0 0 1 0 0 0 0 1 0 0 0 0.75 0"/>
<feBlend mode="normal" in2="BackgroundImageFix" result="effect1_dropShadow_1134_18379"/>
<feBlend mode="normal" in="SourceGraphic" in2="effect1_dropShadow_1134_18379" result="shape"/>
</filter>
</defs>
</svg>
