<svg width="1em" height="1em" viewBox="0 0 400 240" fill="none" xmlns="http://www.w3.org/2000/svg">
<path d="M57.2121 38.9578L41.1013 55.0686L41.8286 55.7959L58.0719 39.5526V62H59.1004V39.1266L75.0424 55.0686L75.7697 54.3413L60.3862 38.9578L82 38.9578V37.9293L59.6951 37.9293L75.7697 21.8548L75.0424 21.1275L59.1004 37.0695V14H58.0719V36.6435L41.8286 20.4002L41.1013 21.1275L57.9031 37.9293L34 37.9293L34 38.9578L57.2121 38.9578Z" fill="#1A1A1A"/>
<rect x="329.5" y="158.93" width="37" height="37" rx="18.5" stroke="#1A1A1A" stroke-dasharray="2 2"/>
<circle cx="367" cy="177.43" r="3.5" fill="#1A1A1A" stroke="#1A1A1A"/>
<rect x="110.5" y="40.5" width="239" height="139" rx="3.5" fill="white" stroke="#1A1A1A"/>
<path d="M110 44C110 41.7909 111.791 40 114 40H190V180H114C111.791 180 110 178.209 110 176V44Z" fill="#3D3E45"/>
<path d="M110 44C110 41.7909 111.791 40 114 40H130V180H114C111.791 180 110 178.209 110 176V44Z" fill="#2B2B2E"/>
<path d="M154.273 53.625V65H151.93L147.359 57.375V65H145.016V53.625H147.359L151.938 61.2578V53.625H154.273ZM158.656 53.625V65H156.312V53.625H158.656ZM163.188 58.4844V60.3125H158.016V58.4844H163.188ZM163.734 53.625V55.4609H158.016V53.625H163.734ZM170.336 53.625V65H168V53.625H170.336ZM173.836 53.625V55.4609H164.555V53.625H173.836Z" fill="white"/>
<rect x="70.5" y="74.5" width="239" height="139" rx="3.5" fill="white" stroke="#1A1A1A"/>
<path d="M70 78C70 75.7909 71.7909 74 74 74H150V214H74C71.7909 214 70 212.209 70 210V78Z" fill="#26272B"/>
<path d="M70 78C70 75.7909 71.7909 74 74 74H90V214H74C71.7909 214 70 212.209 70 210V78Z" fill="#1A1A1C"/>
<path d="M108.508 99H106.031L106.047 97.1719H108.508C109.122 97.1719 109.641 97.0339 110.062 96.7578C110.484 96.4766 110.802 96.0677 111.016 95.5312C111.234 94.9948 111.344 94.3464 111.344 93.5859V93.0312C111.344 92.4479 111.281 91.9349 111.156 91.4922C111.036 91.0495 110.857 90.6771 110.617 90.375C110.378 90.0729 110.083 89.8464 109.734 89.6953C109.385 89.5391 108.984 89.4609 108.531 89.4609H105.984V87.625H108.531C109.292 87.625 109.987 87.7552 110.617 88.0156C111.253 88.2708 111.802 88.638 112.266 89.1172C112.729 89.5964 113.086 90.1693 113.336 90.8359C113.591 91.4974 113.719 92.2344 113.719 93.0469V93.5859C113.719 94.3932 113.591 95.1302 113.336 95.7969C113.086 96.4635 112.729 97.0365 112.266 97.5156C111.807 97.9896 111.258 98.3568 110.617 98.6172C109.982 98.8724 109.279 99 108.508 99ZM107.359 87.625V99H105.016V87.625H107.359ZM119.875 89.5703L116.781 99H114.289L118.516 87.625H120.102L119.875 89.5703ZM122.445 99L119.344 89.5703L119.094 87.625H120.695L124.945 99H122.445ZM122.305 94.7656V96.6016H116.297V94.7656H122.305ZM135.203 93.0469V93.5859C135.203 94.4505 135.086 95.2266 134.852 95.9141C134.617 96.6016 134.286 97.1875 133.859 97.6719C133.432 98.151 132.922 98.5182 132.328 98.7734C131.74 99.0286 131.086 99.1562 130.367 99.1562C129.654 99.1562 129 99.0286 128.406 98.7734C127.818 98.5182 127.307 98.151 126.875 97.6719C126.443 97.1875 126.107 96.6016 125.867 95.9141C125.633 95.2266 125.516 94.4505 125.516 93.5859V93.0469C125.516 92.1771 125.633 91.401 125.867 90.7188C126.102 90.0312 126.432 89.4453 126.859 88.9609C127.292 88.4766 127.802 88.1068 128.391 87.8516C128.984 87.5964 129.638 87.4688 130.352 87.4688C131.07 87.4688 131.724 87.5964 132.312 87.8516C132.906 88.1068 133.417 88.4766 133.844 88.9609C134.276 89.4453 134.609 90.0312 134.844 90.7188C135.083 91.401 135.203 92.1771 135.203 93.0469ZM132.836 93.5859V93.0312C132.836 92.4271 132.781 91.8958 132.672 91.4375C132.562 90.9792 132.401 90.5938 132.188 90.2812C131.974 89.9688 131.714 89.7344 131.406 89.5781C131.099 89.4167 130.747 89.3359 130.352 89.3359C129.956 89.3359 129.604 89.4167 129.297 89.5781C128.995 89.7344 128.737 89.9688 128.523 90.2812C128.315 90.5938 128.156 90.9792 128.047 91.4375C127.938 91.8958 127.883 92.4271 127.883 93.0312V93.5859C127.883 94.1849 127.938 94.7161 128.047 95.1797C128.156 95.638 128.318 96.026 128.531 96.3438C128.745 96.6562 129.005 96.8932 129.312 97.0547C129.62 97.2161 129.971 97.2969 130.367 97.2969C130.763 97.2969 131.115 97.2161 131.422 97.0547C131.729 96.8932 131.987 96.6562 132.195 96.3438C132.404 96.026 132.562 95.638 132.672 95.1797C132.781 94.7161 132.836 94.1849 132.836 93.5859Z" fill="white"/>
<path fill-rule="evenodd" clip-rule="evenodd" d="M265 26C262.791 26 261 27.7909 261 30V79.5821L253.353 86.2052C252.652 86.813 253.065 88 253.979 88H261V94C261 96.2091 262.791 98 265 98H367C369.209 98 371 96.2091 371 94V30C371 27.7909 369.209 26 367 26H265Z" fill="#875CFF"/>
<rect opacity="0.4" x="273" y="38" width="86" height="8" rx="2" fill="white"/>
<rect opacity="0.4" x="273" y="54" width="71" height="8" rx="2" fill="white"/>
<path fill-rule="evenodd" clip-rule="evenodd" d="M102 154C104.209 154 106 155.791 106 158V181.582L113.647 188.205C114.348 188.813 113.935 190 113.021 190H106V195C106 197.209 104.209 199 102 199H33C30.7909 199 29 197.209 29 195V158C29 155.791 30.7909 154 33 154H102Z" fill="#DACDFF"/>
</svg>
