<svg width="1em" height="1em" viewBox="0 0 32 32" fill="none" xmlns="http://www.w3.org/2000/svg">
<path d="M16.4819 14.8366L16 13.6722L18.7638 7L20.41 7.68156L17.6453 14.3547L24.3184 11.59L25 13.2362L18.3278 16L17.1634 15.5181L16.6816 15.3184L16.4819 14.8366Z" fill="white"/>
<path d="M15.3184 15.3184L15.5181 14.8366L16 13.6722L13.2362 7L11.59 7.68156L14.3547 14.3547L7.68156 11.59L7 13.2362L13.6731 16L14.8366 15.5181L15.3184 15.3184Z" fill="white"/>
<path d="M15.3184 16.6816L14.8366 16.4819L13.6731 16L7 18.7638L7.68156 20.41L14.3547 17.6453L11.59 24.3184L13.2362 25L16 18.3278L15.5181 17.1634L15.3184 16.6816Z" fill="white"/>
<path d="M17.1634 16.4819L16.6816 16.6816L16.4819 17.1634L16 18.3278L18.7638 25L20.41 24.3184L17.6453 17.6453L24.3184 20.41L25 18.7638L18.3278 16L17.1634 16.4819Z" fill="white"/>
</svg>
