<svg width="36" height="36" viewBox="0 0 36 36" fill="none" xmlns="http://www.w3.org/2000/svg">
<g clip-path="url(#clip0_22_8481)">
<path d="M18 33C26.2843 33 33 26.2843 33 18C33 9.71573 26.2843 3 18 3C9.71573 3 3 9.71573 3 18C3 26.2843 9.71573 33 18 33Z" fill="white"/>
<path d="M18 0C8.059 0 0 8.059 0 18C0 27.941 8.059 36 18 36C27.941 36 36 27.941 36 18C36 8.059 27.941 0 18 0ZM18 30.6C11.041 30.6 5.4 24.959 5.4 18C5.4 11.041 11.041 5.4 18 5.4C24.959 5.4 30.6 11.041 30.6 18C30.6 24.959 24.959 30.6 18 30.6Z" fill="#F40000"/>
<path d="M22.6501 13.3506H13.3501V22.6506H22.6501V13.3506Z" fill="#0016AF"/>
</g>
<defs>
<clipPath id="clip0_22_8481">
<rect width="36" height="36" fill="white"/>
</clipPath>
</defs>
</svg>
