<svg width="64" height="64" viewBox="0 0 64 64" fill="none" xmlns="http://www.w3.org/2000/svg">
<g clip-path="url(#clip0_596_12111)">
<mask id="mask0_596_12111" style="mask-type:alpha" maskUnits="userSpaceOnUse" x="0" y="0" width="64" height="64">
<path d="M64 32C64 14.3269 49.6731 0 32 0C14.3269 0 0 14.3269 0 32C0 49.6731 14.3269 64 32 64C49.6731 64 64 49.6731 64 32Z" fill="white"/>
</mask>
<g mask="url(#mask0_596_12111)">
<path d="M64 0H0V64H64V0Z" fill="#FF7BD2"/>
<g filter="url(#filter0_f_596_12111)">
<path d="M52.2247 17.3167L50.0434 -2.86139L36.9673 -19.598L-16.7435 22.3655L6.17209 51.6961L20.9449 48.9599L30.1673 18.5382L52.2247 17.3167Z" fill="#CC3747"/>
</g>
<g style="mix-blend-mode:overlay" filter="url(#filter1_f_596_12111)">
<path d="M40.5767 42.9838L65.9788 26.0552L60.3414 -12.5646L0.5692 -26.3698L-8.36888 29.9066L13.4439 30.6124L5.29196 9.06812L32.686 -11.9958L40.5776 42.984L40.5767 42.9838Z" fill="#F3FF65"/>
</g>
</g>
</g>
<defs>
<filter id="filter0_f_596_12111" x="-33.5434" y="-36.3977" width="102.568" height="104.893" filterUnits="userSpaceOnUse" color-interpolation-filters="sRGB">
<feFlood flood-opacity="0" result="BackgroundImageFix"/>
<feBlend mode="normal" in="SourceGraphic" in2="BackgroundImageFix" result="shape"/>
<feGaussianBlur stdDeviation="8.4" result="effect1_foregroundBlur_596_12111"/>
</filter>
<filter id="filter1_f_596_12111" x="-25.1689" y="-43.1711" width="107.948" height="102.955" filterUnits="userSpaceOnUse" color-interpolation-filters="sRGB">
<feFlood flood-opacity="0" result="BackgroundImageFix"/>
<feBlend mode="normal" in="SourceGraphic" in2="BackgroundImageFix" result="shape"/>
<feGaussianBlur stdDeviation="8.4" result="effect1_foregroundBlur_596_12111"/>
</filter>
<clipPath id="clip0_596_12111">
<rect width="64" height="64" rx="32" fill="white"/>
</clipPath>
</defs>
</svg>
