<svg width="1em" height="1em" viewBox="0 0 24 24" fill="none" xmlns="http://www.w3.org/2000/svg">
<path d="M9.01894 14.2743C8.82368 14.4696 8.82368 14.7862 9.01894 14.9814C9.2142 15.1767 9.53079 15.1767 9.72605 14.9814L9.01894 14.2743ZM14.981 9.72644C15.1763 9.53118 15.1763 9.2146 14.981 9.01934C14.7858 8.82408 14.4692 8.82408 14.2739 9.01934L14.981 9.72644ZM7.75578 11.697C7.95104 11.5017 7.95104 11.1851 7.75578 10.9899C7.56052 10.7946 7.24394 10.7946 7.04867 10.9899L7.75578 11.697ZM6.08848 12.6572L6.44204 13.0107L6.08848 12.6572ZM11.3435 17.9121L11.697 18.2657L11.6971 18.2656L11.3435 17.9121ZM13.0103 16.9519C13.2055 16.7566 13.2054 16.44 13.0101 16.2448C12.8148 16.0496 12.4982 16.0496 12.303 16.2449L13.0103 16.9519ZM10.9893 7.0485C10.7941 7.24377 10.7941 7.56035 10.9893 7.75561C11.1846 7.95087 11.5012 7.95087 11.6965 7.75561L10.9893 7.0485ZM12.6566 6.08831L13.0102 6.44187L12.6566 6.08831ZM17.9118 11.3433L17.5583 10.9897L17.5583 10.9898L17.9118 11.3433ZM16.2447 12.3035C16.0494 12.4988 16.0494 12.8154 16.2447 13.0106C16.44 13.2059 16.7565 13.2058 16.9518 13.0106L16.2447 12.3035ZM9.72605 14.9814L14.981 9.72644L14.2739 9.01934L9.01894 14.2743L9.72605 14.9814ZM7.04867 10.9899L5.73493 12.3036L6.44204 13.0107L7.75578 11.697L7.04867 10.9899ZM5.73493 12.3036C4.08859 13.9499 4.08821 16.6192 5.73465 18.2657L6.44176 17.5586C5.18594 16.3027 5.18613 14.2666 6.44204 13.0107L5.73493 12.3036ZM5.73465 18.2657C7.38103 19.912 10.0506 19.9121 11.697 18.2657L10.9899 17.5586C9.73405 18.8144 7.69762 18.8144 6.44176 17.5586L5.73465 18.2657ZM11.6971 18.2656L13.0103 16.9519L12.303 16.2449L10.9898 17.5586L11.6971 18.2656ZM11.6965 7.75561L13.0102 6.44187L12.3031 5.73476L10.9893 7.0485L11.6965 7.75561ZM13.0102 6.44187C14.266 5.18602 16.3021 5.18605 17.5579 6.44193L18.265 5.73482C16.6187 4.08844 13.9495 4.08836 12.3031 5.73476L13.0102 6.44187ZM17.5579 6.44193C18.8139 7.69785 18.8141 9.73394 17.5583 10.9897L18.2654 11.6968C19.9118 10.0504 19.9114 7.38114 18.265 5.73482L17.5579 6.44193ZM17.5583 10.9898L16.2447 12.3035L16.9518 13.0106L18.2654 11.6968L17.5583 10.9898Z" fill="#1A1A1A"/>
</svg>
