<svg width="1em" height="1em" viewBox="0 0 40 40" fill="none" xmlns="http://www.w3.org/2000/svg">
<path d="M15.9687 29C24.329 29 28.9011 22.0743 28.9011 16.0676C28.9011 15.8711 28.9011 15.6757 28.8878 15.4802C29.7778 14.837 30.5457 14.04 31.1554 13.1266C30.326 13.4946 29.446 13.736 28.545 13.8429C29.4942 13.2749 30.2048 12.3814 30.5445 11.3287C29.6514 11.8575 28.6749 12.2305 27.6567 12.4318C26.9714 11.7034 26.0651 11.2212 25.0781 11.0597C24.0911 10.8982 23.0784 11.0664 22.1966 11.5384C21.3148 12.0103 20.6131 12.7597 20.2 13.6705C19.787 14.5813 19.6855 15.6029 19.9114 16.5772C18.1042 16.4866 16.3362 16.017 14.7223 15.1988C13.1083 14.3807 11.6844 13.2322 10.5431 11.8281C9.96142 12.8286 9.78311 14.0134 10.0445 15.1409C10.306 16.2684 10.9875 17.2537 11.9502 17.8962C11.2283 17.8739 10.5222 17.6788 9.89129 17.3273C9.89129 17.3457 9.89129 17.3651 9.89129 17.3856C9.89143 18.4346 10.2543 19.4513 10.9185 20.2634C11.5826 21.0754 12.5071 21.6328 13.5353 21.841C12.8659 22.0233 12.1637 22.0499 11.4825 21.9188C11.7731 22.8219 12.3386 23.6117 13.1 24.1777C13.8614 24.7437 14.7806 25.0577 15.7292 25.0757C14.1188 26.3389 12.1304 27.0237 10.0837 27.0199C9.72152 27.02 9.35967 26.9988 9 26.9565C11.0781 28.2916 13.4966 29.0003 15.9666 28.998" fill="white"/>
</svg>
