<svg width="1em" height="1em" viewBox="0 0 40 40" fill="none" xmlns="http://www.w3.org/2000/svg">
<path d="M20 23.3333C21.8409 23.3333 23.3333 21.8409 23.3333 20C23.3333 18.159 21.8409 16.6667 20 16.6667C18.159 16.6667 16.6667 18.159 16.6667 20C16.6667 21.8409 18.159 23.3333 20 23.3333Z" fill="#1A1A1A"/>
<path d="M24.4 10H15.6C14.1148 10 12.6904 10.59 11.6402 11.6402C10.59 12.6904 10 14.1148 10 15.6V24.4C10 25.8852 10.59 27.3096 11.6402 28.3598C12.6904 29.41 14.1148 30 15.6 30H24.4C25.8852 30 27.3096 29.41 28.3598 28.3598C29.41 27.3096 30 25.8852 30 24.4V15.6C30 14.1148 29.41 12.6904 28.3598 11.6402C27.3096 10.59 25.8852 10 24.4 10ZM20 24.8C19.0506 24.8 18.1226 24.5185 17.3333 23.9911C16.5439 23.4636 15.9287 22.714 15.5654 21.8369C15.2021 20.9598 15.107 19.9947 15.2922 19.0636C15.4774 18.1325 15.9346 17.2772 16.6059 16.6059C17.2772 15.9346 18.1325 15.4774 19.0636 15.2922C19.9947 15.107 20.9598 15.2021 21.8369 15.5654C22.714 15.9287 23.4636 16.5439 23.9911 17.3333C24.5185 18.1226 24.8 19.0506 24.8 20C24.8 21.273 24.2943 22.4939 23.3941 23.3941C22.4939 24.2943 21.273 24.8 20 24.8ZM25.2 16C24.9627 16 24.7307 15.9296 24.5333 15.7978C24.336 15.6659 24.1822 15.4785 24.0913 15.2592C24.0005 15.0399 23.9768 14.7987 24.0231 14.5659C24.0694 14.3331 24.1837 14.1193 24.3515 13.9515C24.5193 13.7836 24.7331 13.6694 24.9659 13.6231C25.1987 13.5768 25.4399 13.6005 25.6592 13.6913C25.8785 13.7822 26.0659 13.936 26.1978 14.1333C26.3296 14.3307 26.4 14.5627 26.4 14.8C26.4 15.1183 26.2736 15.4235 26.0485 15.6485C25.8235 15.8736 25.5183 16 25.2 16Z" fill="#1A1A1A"/>
</svg>
