<svg width="1em" height="1em" viewBox="0 0 40 40" fill="none" xmlns="http://www.w3.org/2000/svg">
<path d="M28.6775 11.5703C27.035 10.8261 25.301 10.2982 23.5198 10C23.2761 10.4312 23.0556 10.8748 22.8592 11.329C20.9619 11.0461 19.0324 11.0461 17.1352 11.329C16.9386 10.8748 16.7181 10.4312 16.4745 10C14.6921 10.3007 12.957 10.8299 11.3128 11.5742C8.04871 16.3531 7.16386 21.0134 7.60629 25.6075C9.51783 27.0051 11.6574 28.068 13.932 28.75C14.4442 28.0683 14.8974 27.3452 15.2868 26.5882C14.5471 26.3148 13.8332 25.9775 13.1533 25.5802C13.3323 25.4518 13.5073 25.3195 13.6764 25.1911C15.6547 26.1117 17.8139 26.5891 20.0001 26.5891C22.1863 26.5891 24.3455 26.1117 26.3238 25.1911C26.4949 25.3292 26.6699 25.4616 26.8469 25.5802C26.1657 25.9782 25.4505 26.3161 24.7095 26.5901C25.0984 27.3468 25.5517 28.0693 26.0643 28.75C28.3408 28.0707 30.482 27.0083 32.3939 25.6094C32.913 20.2818 31.5071 15.6643 28.6775 11.5703ZM15.8472 22.7821C14.6143 22.7821 13.5957 21.675 13.5957 20.3129C13.5957 18.9508 14.5789 17.8339 15.8433 17.8339C17.1076 17.8339 18.1183 18.9508 18.0967 20.3129C18.0751 21.675 17.1037 22.7821 15.8472 22.7821ZM24.153 22.7821C22.9181 22.7821 21.9035 21.675 21.9035 20.3129C21.9035 18.9508 22.8867 17.8339 24.153 17.8339C25.4193 17.8339 26.4222 18.9508 26.4005 20.3129C26.3789 21.675 25.4095 22.7821 24.153 22.7821Z" fill="#1A1A1A"/>
</svg>
