<svg width="1em" height="1em" viewBox="0 0 40 40" fill="none" xmlns="http://www.w3.org/2000/svg">
<path d="M30.9927 20.4795C30.9927 21.2178 30.3676 21.7961 29.6593 21.7961H28.3259L28.3551 27.3627C28.3551 27.4775 28.3467 27.5842 28.3342 27.6949V28.3594C28.3342 29.2658 27.5884 30 26.6675 30H26.0008C25.955 30 25.9091 29.9631 25.8633 29.9959C25.8049 29.9631 25.7466 30 25.6883 30H24.334C23.4131 30 22.6673 29.2658 22.6673 28.3594V24.75C22.6673 24.024 22.0714 23.4375 21.3339 23.4375H18.6671C17.9296 23.4375 17.3337 24.024 17.3337 24.75V28.3594C17.3337 29.2658 16.5879 30 15.667 30H14.3377C14.2752 30 14.2127 29.9959 14.1502 29.9918C14.1002 29.9959 14.0502 30 14.0002 30H13.3335C12.4131 30 11.6668 29.2658 11.6668 28.3594V23.7656C11.6668 23.7287 11.668 23.6877 11.6705 23.6508V21.7961H10.3355C9.58419 21.7961 9 21.2178 9 20.4795C9 20.1104 9.12517 19.7822 9.4171 19.4951L19.1005 10.3288C19.3921 10.0411 19.7255 10 20.0172 10C20.3088 10 20.6422 10.0822 20.8964 10.2877L30.5343 19.4951C30.8677 19.7822 31.0385 20.1104 30.9927 20.4795Z" fill="#1A1A1A"/>
</svg>
