<svg width="64" height="64" viewBox="0 0 64 64" fill="none" xmlns="http://www.w3.org/2000/svg">
<g clip-path="url(#clip0_596_11971)">
<g clip-path="url(#clip1_596_11971)">
<mask id="mask0_596_11971" style="mask-type:alpha" maskUnits="userSpaceOnUse" x="0" y="0" width="64" height="64">
<path d="M64 32C64 14.3269 49.6731 0 32 0C14.3269 0 0 14.3269 0 32C0 49.6731 14.3269 64 32 64C49.6731 64 64 49.6731 64 32Z" fill="white"/>
</mask>
<g mask="url(#mask0_596_11971)">
<path d="M64 0H0V64H64V0Z" fill="#FFC241"/>
<g filter="url(#filter0_f_596_11971)">
<path d="M56.9299 33.757L68.2292 16.8975L68.9704 -4.32857L0.851953 -6.70732L-0.447046 30.4911L12.6284 37.8908L39.2479 20.5145L56.9299 33.757Z" fill="#008FCC"/>
</g>
<g style="mix-blend-mode:overlay" filter="url(#filter1_f_596_11971)">
<path d="M49 33.2673L47.0405 2.80415L10.776 -11.6237L-31.0657 33.238L13.202 69.1168L24.7196 50.5792L1.98579 46.8669L-2.55909 12.611L49.0006 33.2666L49 33.2673Z" fill="#FFEDA4"/>
</g>
</g>
</g>
</g>
<defs>
<filter id="filter0_f_596_11971" x="-17.247" y="-23.507" width="103.017" height="78.1977" filterUnits="userSpaceOnUse" color-interpolation-filters="sRGB">
<feFlood flood-opacity="0" result="BackgroundImageFix"/>
<feBlend mode="normal" in="SourceGraphic" in2="BackgroundImageFix" result="shape"/>
<feGaussianBlur stdDeviation="8.4" result="effect1_foregroundBlur_596_11971"/>
</filter>
<filter id="filter1_f_596_11971" x="-47.8657" y="-28.425" width="113.666" height="114.342" filterUnits="userSpaceOnUse" color-interpolation-filters="sRGB">
<feFlood flood-opacity="0" result="BackgroundImageFix"/>
<feBlend mode="normal" in="SourceGraphic" in2="BackgroundImageFix" result="shape"/>
<feGaussianBlur stdDeviation="8.4" result="effect1_foregroundBlur_596_11971"/>
</filter>
<clipPath id="clip0_596_11971">
<rect width="64" height="64" fill="white"/>
</clipPath>
<clipPath id="clip1_596_11971">
<rect width="64" height="64" rx="32" fill="white"/>
</clipPath>
</defs>
</svg>
