<svg width="24" height="22" viewBox="0 0 24 22" fill="none" xmlns="http://www.w3.org/2000/svg">
<path d="M6 17H7.5V15H8C10 15 10.5 14.416 10.5 13C10.5 12.016 10 11 8 11H6V17ZM7.5 14V12H8C8.688 12 9 12.4 9 13C9 13.584 8.696 14 8 14H7.5Z" fill="#1A1A1A"/>
<path d="M11 17H13C14.0442 17 15.5 16.072 15.5 14C15.5 11.928 14.5 11 13 11H11V17ZM12.5 16V12C13.46 12 14 12.584 14 14C14 15.416 13.46 16 12.5 16Z" fill="#1A1A1A"/>
<path d="M16 17H17.5V15H20V13.536L17.5 13.5V12.5H20V11H16V17Z" fill="#1A1A1A"/>
<path d="M4.15976 20H5V19H4.15976C4.04262 19 4 18.9156 4 18.875V3.125C4 3.08443 4.04262 3 4.15976 3H12.9424L13 3.05726V5C13 5.55228 13.4477 6 14 6H15.959L16 6.04082V9H17V6L13 2H4.15976C3.51924 2 3 2.50368 3 3.125V18.875C3 19.4963 3.51924 20 4.15976 20Z" fill="#1A1A1A"/>
</svg>
