<svg width="16" height="16" viewBox="0 0 16 16" fill="none" xmlns="http://www.w3.org/2000/svg">
<path d="M2.66699 13.3329H2.16699C2.16699 13.4655 2.21967 13.5927 2.31344 13.6865C2.40721 13.7802 2.53439 13.8329 2.667 13.8329L2.66699 13.3329ZM2.66699 10.6663L2.31344 10.3127C2.21967 10.4065 2.16699 10.5336 2.16699 10.6663H2.66699ZM9.91274 3.42049L9.55919 3.06693L9.55919 3.06693L9.91274 3.42049ZM11.4212 3.42049L11.0677 3.77404V3.77404L11.4212 3.42049ZM12.5794 4.57866L12.933 4.22511L12.5794 4.57866ZM12.5794 6.08715L12.2259 5.7336V5.7336L12.5794 6.08715ZM5.33366 13.3329L5.33366 13.8329C5.46627 13.8329 5.59344 13.7802 5.68721 13.6865L5.33366 13.3329ZM13.0249 5.12693L13.5004 4.97242L13.0249 5.12693ZM13.0249 5.5389L12.5494 5.38439V5.38439L13.0249 5.5389ZM10.461 2.97501L10.3065 2.49948V2.49948L10.461 2.97501ZM10.873 2.97501L11.0276 2.49948L10.873 2.97501ZM3.16699 13.3329V10.6663H2.16699V13.3329H3.16699ZM3.02055 11.0198L10.2663 3.77404L9.55919 3.06693L2.31344 10.3127L3.02055 11.0198ZM11.0677 3.77404L12.2258 4.93221L12.933 4.22511L11.7748 3.06693L11.0677 3.77404ZM12.2259 5.7336L4.98011 12.9794L5.68721 13.6865L12.933 6.44071L12.2259 5.7336ZM5.33366 12.8329L2.66699 12.8329L2.667 13.8329L5.33366 13.8329L5.33366 12.8329ZM12.2258 4.93221C12.3637 5.07005 12.4455 5.15245 12.5014 5.21831C12.5536 5.2797 12.5532 5.29311 12.5494 5.28143L13.5004 4.97242C13.4472 4.80852 13.356 4.6798 13.2638 4.57112C13.1753 4.4669 13.0591 4.35128 12.933 4.22511L12.2258 4.93221ZM12.933 6.44071C13.0591 6.31453 13.1753 6.19891 13.2638 6.09469C13.356 5.98601 13.4472 5.85729 13.5004 5.6934L12.5494 5.38439C12.5532 5.37272 12.5536 5.38613 12.5014 5.44752C12.4455 5.51337 12.3637 5.59576 12.2259 5.7336L12.933 6.44071ZM12.5494 5.28143C12.5603 5.31491 12.5603 5.35091 12.5494 5.38439L13.5004 5.6934C13.5766 5.45908 13.5766 5.20673 13.5004 4.97242L12.5494 5.28143ZM10.2663 3.77404C10.4041 3.63621 10.4865 3.55437 10.5524 3.49847C10.6138 3.44636 10.6272 3.44675 10.6155 3.45054L10.3065 2.49948C10.1426 2.55273 10.0139 2.64385 9.90521 2.73612C9.80099 2.82459 9.68537 2.94076 9.55919 3.06693L10.2663 3.77404ZM11.7748 3.06693C11.6486 2.94078 11.533 2.82461 11.4288 2.73615C11.3202 2.64389 11.1915 2.55274 11.0276 2.49948L10.7185 3.45054C10.7068 3.44674 10.7202 3.44633 10.7816 3.49844C10.8474 3.55434 10.9298 3.63618 11.0677 3.77404L11.7748 3.06693ZM10.6155 3.45054C10.649 3.43966 10.6851 3.43966 10.7185 3.45054L11.0276 2.49948C10.7932 2.42335 10.5408 2.42335 10.3065 2.49948L10.6155 3.45054Z" fill="white"/>
</svg>
