<svg width="64" height="64" viewBox="0 0 64 64" fill="none" xmlns="http://www.w3.org/2000/svg">
<g clip-path="url(#clip0_596_12119)">
<mask id="mask0_596_12119" style="mask-type:alpha" maskUnits="userSpaceOnUse" x="0" y="0" width="64" height="64">
<path d="M64 32C64 14.3269 49.6731 0 32 0C14.3269 0 0 14.3269 0 32C0 49.6731 14.3269 64 32 64C49.6731 64 64 49.6731 64 32Z" fill="white"/>
</mask>
<g mask="url(#mask0_596_12119)">
<path d="M64 0H0V64H64V0Z" fill="#FF4A4A"/>
<g filter="url(#filter0_f_596_12119)">
<path d="M7.02887 36.4343L-5.84197 54.2604L-7.44699 77.2133L66.2131 82.3641L69.0259 42.1394L55.1492 33.6336L25.6721 51.44L7.02887 36.4343Z" fill="#FFB319"/>
</g>
<g style="mix-blend-mode:overlay" filter="url(#filter1_f_596_12119)">
<path d="M28.7174 21.7316L-4.128 25.5787L-17.6806 65.6293L33.2252 108.352L69.5308 58.427L48.8229 47.0177L46.0957 71.8228L9.29368 78.6819L28.7166 21.731L28.7174 21.7316Z" fill="#EBE8E8"/>
</g>
</g>
</g>
<defs>
<filter id="filter0_f_596_12119" x="-25.647" y="15.4328" width="112.873" height="85.1305" filterUnits="userSpaceOnUse" color-interpolation-filters="sRGB">
<feFlood flood-opacity="0" result="BackgroundImageFix"/>
<feBlend mode="normal" in="SourceGraphic" in2="BackgroundImageFix" result="shape"/>
<feGaussianBlur stdDeviation="9.1" result="effect1_foregroundBlur_596_12119"/>
</filter>
<filter id="filter1_f_596_12119" x="-35.8807" y="3.53047" width="123.611" height="123.021" filterUnits="userSpaceOnUse" color-interpolation-filters="sRGB">
<feFlood flood-opacity="0" result="BackgroundImageFix"/>
<feBlend mode="normal" in="SourceGraphic" in2="BackgroundImageFix" result="shape"/>
<feGaussianBlur stdDeviation="9.1" result="effect1_foregroundBlur_596_12119"/>
</filter>
<clipPath id="clip0_596_12119">
<rect width="64" height="64" rx="32" fill="white"/>
</clipPath>
</defs>
</svg>
