<svg width="34" height="34" viewBox="0 0 34 34" fill="none" xmlns="http://www.w3.org/2000/svg">
<path d="M32.8076 12.7644C33.486 15.3759 33.3053 17.4965 32.5042 19.1005C31.9399 20.2324 30.7586 20.9261 29.5211 20.9261C28.2835 20.9261 27.1773 20.2954 26.5346 19.0954C24.9783 16.189 26.5193 12.7201 26.7 9.06714C26.6318 9.08248 26.5636 9.09953 26.4954 9.11828C23.9828 9.82058 21.1838 13.1326 19.1826 15.7748C19.3923 20.05 19.5815 25.0922 22.7282 27.3781C23.6555 28.0241 24.7823 28.4043 25.9994 28.4043C27.9307 28.4043 29.6438 27.4429 30.6802 25.9769C32.3763 23.3995 33.3633 20.3125 33.3633 16.997C33.3633 15.531 33.1673 14.1145 32.8059 12.761L32.8076 12.7644Z" fill="url(#paint0_radial_1469_33664)"/>
<path d="M22.7075 1.66064C24.5911 2.48056 26.1065 4.1937 26.5395 6.45572C26.7082 7.3336 26.7406 8.20636 26.698 9.06889C29.3743 8.43989 32.088 10.0831 32.8056 12.7662C31.4317 7.63702 27.6304 3.4931 22.7075 1.66064V1.66064Z" fill="#AB1EED"/>
<path d="M32.8073 12.7646C32.0879 10.0833 29.3759 8.43831 26.6996 9.06732C26.5189 12.7203 24.978 16.1909 26.5343 19.0956C27.1769 20.2956 28.3156 20.9263 29.5208 20.9263C30.7259 20.9263 31.9396 20.2308 32.5038 19.1007C33.305 17.4966 33.4857 15.3761 32.8073 12.7646V12.7646Z" fill="#F478C4"/>
<path d="M10.2912 4.56366C14.6908 4.56366 18.3233 7.84163 18.8858 12.0878C19.0478 13.1685 19.116 14.4351 19.1807 15.7766C21.182 13.1327 23.9809 9.82069 26.4935 9.12009C26.5617 9.10134 26.6299 9.08429 26.6981 9.06895C26.7407 8.20642 26.7083 7.33366 26.5396 6.45578C26.1066 4.19376 24.5895 2.47892 22.7076 1.6607C20.9314 0.999313 19.0086 0.63623 17.0005 0.63623C10.9492 0.63623 5.66998 3.92272 2.83691 8.80474C4.43073 6.17622 7.14277 4.56366 10.2912 4.56366V4.56366Z" fill="url(#paint1_radial_1469_33664)"/>
<path d="M25.9992 28.4078C24.7821 28.4078 23.6553 28.0277 22.728 27.38C19.5813 25.0941 19.3921 20.0518 19.1824 15.7767C19.1159 14.4351 19.0495 13.1686 18.8875 12.0862C18.325 7.83998 14.6925 4.56201 10.2929 4.56201C7.14444 4.56201 4.4324 6.17458 2.83859 8.80309C2.81643 8.84059 2.79257 8.87809 2.77041 8.91559C1.41183 11.3021 0.63623 14.0618 0.63623 17.0006C0.63623 26.0384 7.96266 33.3649 17.0005 33.3649C22.7212 33.3649 27.7549 30.4295 30.68 25.9822C29.6419 27.4447 27.9305 28.4061 25.9992 28.4061V28.4078Z" fill="url(#paint2_radial_1469_33664)"/>
<defs>
<radialGradient id="paint0_radial_1469_33664" cx="0" cy="0" r="1" gradientUnits="userSpaceOnUse" gradientTransform="translate(16.491 17.5033) scale(17.2473 17.2473)">
<stop offset="0.5" stop-color="#9ED6FF" stop-opacity="0"/>
<stop offset="0.57" stop-color="#9ED6FF" stop-opacity="0.04"/>
<stop offset="0.69" stop-color="#9ED6FF" stop-opacity="0.13"/>
<stop offset="0.83" stop-color="#9ED6FF" stop-opacity="0.29"/>
<stop offset="1" stop-color="#9ED6FF" stop-opacity="0.5"/>
</radialGradient>
<radialGradient id="paint1_radial_1469_33664" cx="0" cy="0" r="1" gradientUnits="userSpaceOnUse" gradientTransform="translate(11.06 13.0083) scale(17.2848)">
<stop offset="0.2" stop-color="#B873EE" stop-opacity="0"/>
<stop offset="0.27" stop-color="#B873EE" stop-opacity="0.04"/>
<stop offset="0.39" stop-color="#B873EE" stop-opacity="0.14"/>
<stop offset="0.54" stop-color="#B873EE" stop-opacity="0.31"/>
<stop offset="0.71" stop-color="#B873EE" stop-opacity="0.54"/>
<stop offset="0.9" stop-color="#B873EE" stop-opacity="0.83"/>
<stop offset="1" stop-color="#B873EE"/>
</radialGradient>
<radialGradient id="paint2_radial_1469_33664" cx="0" cy="0" r="1" gradientUnits="userSpaceOnUse" gradientTransform="translate(8.51836 4.73759) scale(31.2626 31.2626)">
<stop stop-color="#7635FF"/>
<stop offset="0.15" stop-color="#7739FF"/>
<stop offset="0.31" stop-color="#7A45FF"/>
<stop offset="0.47" stop-color="#7F5AFF"/>
<stop offset="0.63" stop-color="#8677FF"/>
<stop offset="0.8" stop-color="#8F9CFF"/>
<stop offset="0.96" stop-color="#9BCAFF"/>
<stop offset="1" stop-color="#9ED6FF"/>
</radialGradient>
</defs>
</svg>
