<svg width="1em" height="1em" viewBox="0 0 40 40" fill="none" xmlns="http://www.w3.org/2000/svg">
<path d="M31.7609 15.2C31.7609 15.2 31.5266 13.5454 30.8047 12.8188C29.8906 11.8625 28.8688 11.8579 28.4 11.8016C25.0438 11.5579 20.0047 11.5579 20.0047 11.5579H19.9953C19.9953 11.5579 14.9563 11.5579 11.6 11.8016C11.1313 11.8579 10.1094 11.8625 9.19531 12.8188C8.47344 13.5454 8.24375 15.2 8.24375 15.2C8.24375 15.2 8 17.1454 8 19.086V20.9047C8 22.8454 8.23906 24.7907 8.23906 24.7907C8.23906 24.7907 8.47344 26.4454 9.19062 27.1719C10.1047 28.1282 11.3047 28.0954 11.8391 28.1985C13.7609 28.3813 20 28.4375 20 28.4375C20 28.4375 25.0438 28.4282 28.4 28.1891C28.8688 28.1329 29.8906 28.1282 30.8047 27.1719C31.5266 26.4454 31.7609 24.7907 31.7609 24.7907C31.7609 24.7907 32 22.85 32 20.9047V19.086C32 17.1454 31.7609 15.2 31.7609 15.2ZM17.5203 23.1125V16.3672L24.0031 19.7516L17.5203 23.1125Z" fill="white"/>
</svg>
