<svg width="12" height="12" viewBox="0 0 12 12" fill="none" xmlns="http://www.w3.org/2000/svg">
<path d="M2.48276 7.31404C2.18281 7.5997 2.17123 8.07444 2.4569 8.37438C2.74256 8.67433 3.21729 8.68591 3.51724 8.40025L2.48276 7.31404ZM6 5L6.51724 4.4569C6.22759 4.18103 5.77241 4.18103 5.48276 4.4569L6 5ZM8.48276 8.40025C8.78271 8.68591 9.25744 8.67433 9.5431 8.37438C9.82877 8.07444 9.81719 7.5997 9.51724 7.31404L8.48276 8.40025ZM3.51724 8.40025L6.51724 5.5431L5.48276 4.4569L2.48276 7.31404L3.51724 8.40025ZM5.48276 5.5431L8.48276 8.40025L9.51724 7.31404L6.51724 4.4569L5.48276 5.5431Z" fill="#9860FF"/>
</svg>
