<svg width="1em" height="1em" viewBox="0 0 40 40" fill="none" xmlns="http://www.w3.org/2000/svg">
<path d="M15 12C19.4183 12 23 15.5817 23 20C23 24.4183 19.4183 28 15 28C10.5817 28 7 24.4183 7 20C7 15.5817 10.5817 12 15 12ZM27 13.3333C29 13.3333 30.3333 16.3181 30.3333 20C30.3333 23.6819 29 26.6667 27 26.6667C25 26.6667 23.6667 23.6819 23.6667 20C23.6667 16.3181 25 13.3333 27 13.3333ZM32.3333 14C32.8412 14 33.2827 15.1025 33.5079 16.9946L33.5688 17.5856C33.5778 17.6879 33.5862 17.7922 33.5941 17.8983L33.6338 18.5568C33.6392 18.6702 33.6439 18.7853 33.648 18.9022L33.6646 19.624C33.666 19.7477 33.6667 19.873 33.6667 20L33.6646 20.376L33.648 21.0978C33.6439 21.2147 33.6392 21.3298 33.6338 21.4432L33.5941 22.1017C33.5862 22.2078 33.5778 22.312 33.5688 22.4144L33.5079 23.0054C33.2827 24.8974 32.8412 26 32.3333 26C31.8255 26 31.3839 24.8974 31.1588 23.0054L31.0979 22.4144C31.0889 22.312 31.0805 22.2078 31.0726 22.1017L31.0329 21.4432C31.0275 21.3298 31.0227 21.2147 31.0187 21.0978L31.0021 20.376V19.624L31.0187 18.9022C31.0227 18.7853 31.0275 18.6702 31.0329 18.5568L31.0726 17.8983C31.0805 17.7922 31.0889 17.6879 31.0979 17.5856L31.1588 16.9946C31.3839 15.1025 31.8255 14 32.3333 14Z" fill="white"/>
</svg>
