<svg width="18" height="14" viewBox="0 0 18 14" fill="none" xmlns="http://www.w3.org/2000/svg">
<path d="M1.73995 6.72734C1.36845 6.31868 0.736 6.28855 0.327338 6.66005C-0.0813253 7.03155 -0.111451 7.664 0.260051 8.07267L1.73995 6.72734ZM6.09076 13L5.35081 13.6727C5.54033 13.8811 5.80901 14 6.09075 14C6.3725 14 6.64117 13.8812 6.8307 13.6727L6.09076 13ZM17.7399 1.67268C18.1114 1.26402 18.0813 0.631574 17.6727 0.260064C17.264 -0.111445 16.6316 -0.0813329 16.2601 0.327322L17.7399 1.67268ZM0.260051 8.07267L5.35081 13.6727L6.83071 12.3273L1.73995 6.72734L0.260051 8.07267ZM6.8307 13.6727L17.7399 1.67268L16.2601 0.327322L5.35083 12.3273L6.8307 13.6727Z" fill="white"/>
</svg>
