<svg width="12" height="9" viewBox="0 0 12 9" fill="none" xmlns="http://www.w3.org/2000/svg">
<path d="M1.36997 4.66367C1.18422 4.45934 0.868 4.44428 0.663669 4.63003C0.459337 4.81578 0.444275 5.132 0.630025 5.33633L1.36997 4.66367ZM4.18173 8.5L3.81175 8.83633C3.90651 8.94057 4.04085 9 4.18172 9C4.32259 9 4.45693 8.94058 4.55169 8.83634L4.18173 8.5ZM11.37 1.33634C11.5557 1.13201 11.5407 0.815787 11.3363 0.630032C11.132 0.444277 10.8158 0.459334 10.63 0.663661L11.37 1.33634ZM0.630025 5.33633L3.81175 8.83633L4.5517 8.16367L1.36997 4.66367L0.630025 5.33633ZM4.55169 8.83634L11.37 1.33634L10.63 0.663661L3.81176 8.16366L4.55169 8.83634Z" fill="#D9D9D9"/>
</svg>
