<svg width="1em" height="1em" viewBox="0 0 40 40" fill="none" xmlns="http://www.w3.org/2000/svg">
<path d="M18.6029 27.9129C19.0403 27.9129 19.434 28.2641 19.434 28.747C19.434 29.1861 19.0841 29.5812 18.6029 29.5812C18.1655 29.5812 17.7718 29.2299 17.7718 28.747C17.7718 28.2641 18.1655 27.9129 18.6029 27.9129ZM31.4628 22.8203C31.0254 22.8203 30.6317 22.4691 30.6317 21.9861C30.6317 21.5471 30.9816 21.152 31.4628 21.152C31.9002 21.152 32.2939 21.5032 32.2939 21.9861C32.2939 22.4252 31.9002 22.8203 31.4628 22.8203ZM31.4628 19.4398C30.0631 19.4398 28.9258 20.5813 28.9258 21.9861C28.9258 22.2496 28.9696 22.513 29.057 22.7764L20.7025 27.2544C20.2214 26.5519 19.434 26.1568 18.6029 26.1568C17.6406 26.1568 16.7658 26.7275 16.3284 27.5617L8.80494 23.6105C8.0176 23.1715 7.40522 21.8984 7.49271 20.6691C7.53645 20.0545 7.75515 19.5715 8.06134 19.396C8.28004 19.2642 8.49875 19.3081 8.80494 19.4398C10.817 20.4935 17.3782 23.9617 17.6406 24.0934C18.078 24.269 18.2967 24.3568 19.0403 24.0056L32.5125 16.9813C32.7313 16.8935 32.95 16.7179 32.95 16.4106C32.95 16.0155 32.5563 15.8399 32.5563 15.8399C31.769 15.4887 30.588 14.9179 29.4507 14.3911C27.0012 13.2497 24.2018 11.9326 22.977 11.2741C21.9273 10.7034 21.0524 11.1863 20.9212 11.2741C15.3661 14.0838 7.71141 17.8594 7.274 18.1228C6.5304 18.5618 6.04925 19.4837 6.00551 20.6252C5.91803 22.4252 6.83659 24.3129 8.14882 24.9715L16.1097 29.0983C16.2847 30.3275 17.3782 31.2933 18.6029 31.2933C20.0026 31.2933 21.0962 30.1958 21.1399 28.7909L29.8881 24.0495C30.3255 24.4008 30.8942 24.5763 31.4628 24.5763C32.8625 24.5763 33.9998 23.4349 33.9998 22.03C33.9998 20.5813 32.8625 19.4398 31.4628 19.4398Z" fill="#1A1A1A"/>
</svg>
