<svg width="64" height="64" viewBox="0 0 64 64" fill="none" xmlns="http://www.w3.org/2000/svg">
<g clip-path="url(#clip0_596_12103)">
<mask id="mask0_596_12103" style="mask-type:alpha" maskUnits="userSpaceOnUse" x="0" y="0" width="64" height="64">
<path d="M64 32C64 14.3269 49.6731 0 32 0C14.3269 0 0 14.3269 0 32C0 49.6731 14.3269 64 32 64C49.6731 64 64 49.6731 64 32Z" fill="white"/>
</mask>
<g mask="url(#mask0_596_12103)">
<path d="M64 0H0V64H64V0Z" fill="#FFEAAD"/>
<g filter="url(#filter0_f_596_12103)">
<path d="M54.0616 43.7444L71.2413 32.9383L80.5519 13.8488L19.2901 -16.0306L2.97345 17.4235L11.9088 29.5018L43.2944 24.4548L54.0616 43.7444Z" fill="#D14334"/>
</g>
<g style="mix-blend-mode:overlay" filter="url(#filter1_f_596_12103)">
<path d="M18.7733 38.477L38.2643 61.9704L76.0833 52.3271L83.565 -8.56076L26.6626 -11.5674L28.2407 10.1997L48.8149 -0.1596L72.6269 24.8826L18.7732 38.4779L18.7733 38.477Z" fill="#1C2130"/>
</g>
</g>
</g>
<defs>
<filter id="filter0_f_596_12103" x="-13.8266" y="-32.8313" width="111.179" height="93.3773" filterUnits="userSpaceOnUse" color-interpolation-filters="sRGB">
<feFlood flood-opacity="0" result="BackgroundImageFix"/>
<feBlend mode="normal" in="SourceGraphic" in2="BackgroundImageFix" result="shape"/>
<feGaussianBlur stdDeviation="8.4" result="effect1_foregroundBlur_596_12103"/>
</filter>
<filter id="filter1_f_596_12103" x="1.97319" y="-28.3664" width="98.3918" height="107.135" filterUnits="userSpaceOnUse" color-interpolation-filters="sRGB">
<feFlood flood-opacity="0" result="BackgroundImageFix"/>
<feBlend mode="normal" in="SourceGraphic" in2="BackgroundImageFix" result="shape"/>
<feGaussianBlur stdDeviation="8.4" result="effect1_foregroundBlur_596_12103"/>
</filter>
<clipPath id="clip0_596_12103">
<rect width="64" height="64" rx="32" fill="white"/>
</clipPath>
</defs>
</svg>
