<svg width="64" height="64" viewBox="0 0 64 64" fill="none" xmlns="http://www.w3.org/2000/svg">
<g clip-path="url(#clip0_596_11979)">
<mask id="mask0_596_11979" style="mask-type:alpha" maskUnits="userSpaceOnUse" x="0" y="0" width="64" height="64">
<path d="M64 32C64 14.3269 49.6731 0 32 0C14.3269 0 0 14.3269 0 32C0 49.6731 14.3269 64 32 64C49.6731 64 64 49.6731 64 32Z" fill="white"/>
</mask>
<g mask="url(#mask0_596_11979)">
<path d="M64 0H0V64H64V0Z" fill="#5B5CFF"/>
<g filter="url(#filter0_f_596_11979)">
<path d="M11.9965 52.7998L20.9989 72.8593L40.0742 85.7257L81.365 24.5096L47.9358 1.96133L33.6312 9.726L34.3135 44.1571L11.9965 52.7998Z" fill="#9226CC"/>
</g>
<g style="mix-blend-mode:overlay" filter="url(#filter1_f_596_11979)">
<path d="M27.873 16.6588L-5.05451 13.5928L-26.638 49.9505L14.2729 102.324L60.1651 61.0379L42.2819 45.5725L34.457 69.2685L-2.96691 68.3261L27.8723 16.658L27.873 16.6588Z" fill="white"/>
</g>
</g>
</g>
<defs>
<filter id="filter0_f_596_11979" x="-6.20342" y="-16.2391" width="105.768" height="120.166" filterUnits="userSpaceOnUse" color-interpolation-filters="sRGB">
<feFlood flood-opacity="0" result="BackgroundImageFix"/>
<feBlend mode="normal" in="SourceGraphic" in2="BackgroundImageFix" result="shape"/>
<feGaussianBlur stdDeviation="9.1" result="effect1_foregroundBlur_596_11979"/>
</filter>
<filter id="filter1_f_596_11979" x="-44.8379" y="-4.60625" width="123.203" height="125.13" filterUnits="userSpaceOnUse" color-interpolation-filters="sRGB">
<feFlood flood-opacity="0" result="BackgroundImageFix"/>
<feBlend mode="normal" in="SourceGraphic" in2="BackgroundImageFix" result="shape"/>
<feGaussianBlur stdDeviation="9.1" result="effect1_foregroundBlur_596_11979"/>
</filter>
<clipPath id="clip0_596_11979">
<rect width="64" height="64" rx="32" fill="white"/>
</clipPath>
</defs>
</svg>
