<svg width="13" height="12" viewBox="0 0 13 12" fill="none" xmlns="http://www.w3.org/2000/svg">
<path d="M2 9C2 9.275 2.225 9.5 2.5 9.5H5V8.5H2.5C2.225 8.5 2 8.725 2 9ZM2 3C2 3.275 2.225 3.5 2.5 3.5H7V2.5H2.5C2.225 2.5 2 2.725 2 3ZM7 10V9.5H10.5C10.775 9.5 11 9.275 11 9C11 8.725 10.775 8.5 10.5 8.5H7V8C7 7.725 6.775 7.5 6.5 7.5C6.225 7.5 6 7.725 6 8V10C6 10.275 6.225 10.5 6.5 10.5C6.775 10.5 7 10.275 7 10ZM4 5V5.5H2.5C2.225 5.5 2 5.725 2 6C2 6.275 2.225 6.5 2.5 6.5H4V7C4 7.275 4.225 7.5 4.5 7.5C4.775 7.5 5 7.275 5 7V5C5 4.725 4.775 4.5 4.5 4.5C4.225 4.5 4 4.725 4 5ZM11 6C11 5.725 10.775 5.5 10.5 5.5H6V6.5H10.5C10.775 6.5 11 6.275 11 6ZM8.5 4.5C8.775 4.5 9 4.275 9 4V3.5H10.5C10.775 3.5 11 3.275 11 3C11 2.725 10.775 2.5 10.5 2.5H9V2C9 1.725 8.775 1.5 8.5 1.5C8.225 1.5 8 1.725 8 2V4C8 4.275 8.225 4.5 8.5 4.5Z" fill="black"/>
</svg>
