<svg width="64" height="64" viewBox="0 0 64 64" fill="none" xmlns="http://www.w3.org/2000/svg">
<g clip-path="url(#clip0_596_12004)">
<mask id="mask0_596_12004" style="mask-type:alpha" maskUnits="userSpaceOnUse" x="0" y="0" width="64" height="64">
<path d="M64 32C64 14.3269 49.6731 0 32 0C14.3269 0 0 14.3269 0 32C0 49.6731 14.3269 64 32 64C49.6731 64 64 49.6731 64 32Z" fill="white"/>
</mask>
<g mask="url(#mask0_596_12004)">
<path d="M64 0H0V64H64V0Z" fill="#C7F464"/>
<g filter="url(#filter0_f_596_12004)">
<path d="M63.5329 34.5248L78.0554 15.8229L80.6455 -8.8202L1.56109 -17.1323L-2.97802 26.0545L11.6373 35.7305L44.0318 17.6739L63.5329 34.5248Z" fill="#896BFF"/>
</g>
<g style="mix-blend-mode:overlay" filter="url(#filter1_f_596_12004)">
<path d="M30.3584 24.833L-4.8806 19.6799L-30.1417 57.5642L10.9039 116.195L62.5856 74.3804L44.2248 56.7403L34.474 81.7831L-5.72036 78.6603L30.3577 24.8321L30.3584 24.833Z" fill="#AD00BA"/>
</g>
</g>
</g>
<defs>
<filter id="filter0_f_596_12004" x="-22.578" y="-36.7328" width="122.824" height="92.0633" filterUnits="userSpaceOnUse" color-interpolation-filters="sRGB">
<feFlood flood-opacity="0" result="BackgroundImageFix"/>
<feBlend mode="normal" in="SourceGraphic" in2="BackgroundImageFix" result="shape"/>
<feGaussianBlur stdDeviation="9.8" result="effect1_foregroundBlur_596_12004"/>
</filter>
<filter id="filter1_f_596_12004" x="-49.7416" y="0.0796871" width="131.927" height="135.716" filterUnits="userSpaceOnUse" color-interpolation-filters="sRGB">
<feFlood flood-opacity="0" result="BackgroundImageFix"/>
<feBlend mode="normal" in="SourceGraphic" in2="BackgroundImageFix" result="shape"/>
<feGaussianBlur stdDeviation="9.8" result="effect1_foregroundBlur_596_12004"/>
</filter>
<clipPath id="clip0_596_12004">
<rect width="64" height="64" rx="32" fill="white"/>
</clipPath>
</defs>
</svg>
