<svg width="1em" height="1em" viewBox="0 0 40 40" fill="none" xmlns="http://www.w3.org/2000/svg">
<path d="M11.1874 18.9699L22.7128 14.2208C23.8533 13.7264 27.7087 12.1412 27.7087 12.1412C27.7087 12.1412 29.4898 11.4488 29.3416 13.1307C29.2919 13.823 28.8961 16.2468 28.5003 18.8686L27.2639 26.6364C27.2639 26.6364 27.1646 27.7769 26.3247 27.9721C25.4848 28.1674 24.0988 27.2798 23.8512 27.0819C23.6533 26.9336 20.1414 24.7077 18.8553 23.6196C18.5092 23.3224 18.1134 22.7287 18.905 22.0364C20.6854 20.4042 22.8127 18.3761 24.0988 17.0901C24.6925 16.4964 25.2855 15.1111 22.8127 16.7929L15.8358 21.4889C15.8358 21.4889 15.0448 21.9834 13.5609 21.5386C12.077 21.0938 10.3455 20.4994 10.3455 20.4994C10.3455 20.4994 9.15804 19.7574 11.1861 18.9665L11.1874 18.9699Z" fill="white"/>
</svg>
