<svg width="24" height="24" viewBox="0 0 24 24" fill="none" xmlns="http://www.w3.org/2000/svg">
<path fill-rule="evenodd" clip-rule="evenodd" d="M5 21H4.15976C3.51924 21 3 20.4963 3 19.875V4.125C3 3.50368 3.51924 3 4.15976 3H13L17 7V10H16V7.04082L15.959 7H14C13.4477 7 13 6.55228 13 6V4.05726L12.9424 4H4.15976C4.04262 4 4 4.08443 4 4.125V19.875C4 19.9156 4.04262 20 4.15976 20H5V21ZM11 18L12.5 18V16V15L13 16L14 18H15.5V12H14V13.5V14.5V16L13 14L12 12H11V18ZM19.016 18C19.848 18 20.584 17.672 21 17.272V15H19V16H19.728V16.616C19.6 16.712 19.376 16.768 19.168 16.768C18.056 16.768 17.5 16 17.5 15C17.5 14 18.12 13.5 19 13.5C19.496 13.5 19.928 13.6975 20 14L21 13C21 13 20.5 12 19 12C17.5 12 16 13.016 16 15C16 17.016 17.368 18 19.016 18ZM7.5 18H6V12H8C10 12 10.5 13.016 10.5 14C10.5 15.416 10 16 8 16H7.5V18ZM7.5 13V15H8C8.696 15 9 14.584 9 14C9 13.4 8.688 13 8 13H7.5Z" fill="#1A1A1A"/>
</svg>
