<svg width="1em" height="1em" viewBox="0 0 12 12" fill="none" xmlns="http://www.w3.org/2000/svg">
<path d="M1.36997 5.66367C1.18422 5.45934 0.868 5.44428 0.663669 5.63003C0.459337 5.81578 0.444275 6.132 0.630025 6.33633L1.36997 5.66367ZM4.18173 9.5L3.81175 9.83633C3.90651 9.94057 4.04085 10 4.18172 10C4.32259 10 4.45693 9.94058 4.55169 9.83634L4.18173 9.5ZM11.37 2.33634C11.5557 2.13201 11.5407 1.81579 11.3363 1.63003C11.132 1.44428 10.8158 1.45933 10.63 1.66366L11.37 2.33634ZM0.630025 6.33633L3.81175 9.83633L4.5517 9.16367L1.36997 5.66367L0.630025 6.33633ZM4.55169 9.83634L11.37 2.33634L10.63 1.66366L3.81176 9.16366L4.55169 9.83634Z" fill="#1A1A1A"/>
</svg>
