<svg width="64" height="64" viewBox="0 0 64 64" fill="none" xmlns="http://www.w3.org/2000/svg">
<g clip-path="url(#clip0_596_12177)">
<mask id="mask0_596_12177" style="mask-type:alpha" maskUnits="userSpaceOnUse" x="0" y="0" width="64" height="64">
<path d="M64 32C64 14.3269 49.6731 0 32 0C14.3269 0 0 14.3269 0 32C0 49.6731 14.3269 64 32 64C49.6731 64 64 49.6731 64 32Z" fill="white"/>
</mask>
<g mask="url(#mask0_596_12177)">
<path d="M64 0H0V64H64V0Z" fill="#007FC7"/>
<g filter="url(#filter0_f_596_12177)">
<path d="M14.23 17.3813L-7.08804 22.7637L-23.0714 39.3149L30.0446 90.6085L58.0553 61.6027L52.8925 46.1671L18.866 40.86L14.23 17.3813Z" fill="#62218A"/>
</g>
<g style="mix-blend-mode:overlay" filter="url(#filter1_f_596_12177)">
<path d="M42.0274 34.5847L55.1184 4.21618L27.2099 -27.5461L-35.2422 -4.82176L-10.1585 51.5824L10.0762 39.3535L-10.042 24.5891L2.41888 -10.7119L42.0283 34.5843L42.0274 34.5847Z" fill="#BFFF8C"/>
</g>
</g>
</g>
<defs>
<filter id="filter0_f_596_12177" x="-41.2713" y="-0.817188" width="117.526" height="109.627" filterUnits="userSpaceOnUse" color-interpolation-filters="sRGB">
<feFlood flood-opacity="0" result="BackgroundImageFix"/>
<feBlend mode="normal" in="SourceGraphic" in2="BackgroundImageFix" result="shape"/>
<feGaussianBlur stdDeviation="9.1" result="effect1_foregroundBlur_596_12177"/>
</filter>
<filter id="filter1_f_596_12177" x="-53.4422" y="-45.7469" width="126.761" height="115.529" filterUnits="userSpaceOnUse" color-interpolation-filters="sRGB">
<feFlood flood-opacity="0" result="BackgroundImageFix"/>
<feBlend mode="normal" in="SourceGraphic" in2="BackgroundImageFix" result="shape"/>
<feGaussianBlur stdDeviation="9.1" result="effect1_foregroundBlur_596_12177"/>
</filter>
<clipPath id="clip0_596_12177">
<rect width="64" height="64" rx="32" fill="white"/>
</clipPath>
</defs>
</svg>
