<svg width="12" height="10" viewBox="0 0 12 10" fill="none" xmlns="http://www.w3.org/2000/svg">
<path d="M1.03666 4.93034C0.850911 4.72601 0.534687 4.71094 0.330356 4.89669C0.126024 5.08244 0.110962 5.39867 0.296712 5.603L1.03666 4.93034ZM4.06053 9L3.69055 9.33633C3.78531 9.44057 3.91965 9.5 4.06052 9.5C4.2014 9.5 4.33573 9.44058 4.4305 9.33634L4.06053 9ZM11.7033 1.33634C11.8891 1.13201 11.874 0.815787 11.6697 0.630032C11.4654 0.444277 11.1491 0.459334 10.9634 0.663661L11.7033 1.33634ZM0.296712 5.603L3.69055 9.33633L4.4305 8.66367L1.03666 4.93034L0.296712 5.603ZM4.4305 9.33634L11.7033 1.33634L10.9634 0.663661L3.69056 8.66366L4.4305 9.33634Z" fill="white"/>
</svg>
