<svg width="12" height="12" viewBox="0 0 12 12" fill="none" xmlns="http://www.w3.org/2000/svg">
<g clip-path="url(#clip0_87_4619)">
<path d="M6.5 5.44444C6.5 5.1683 6.27614 4.94444 6 4.94444C5.72386 4.94444 5.5 5.1683 5.5 5.44444H6.5ZM5.5 8.22222C5.5 8.49836 5.72386 8.72222 6 8.72222C6.27614 8.72222 6.5 8.49836 6.5 8.22222H5.5ZM6.02767 3.77778H6.52767C6.52767 3.50164 6.30381 3.27778 6.02767 3.27778V3.77778ZM6.02767 3.83333L6.02755 4.33333C6.16018 4.33337 6.28738 4.2807 6.38118 4.18693C6.47497 4.09316 6.52767 3.96596 6.52767 3.83333H6.02767ZM5.97233 3.83332H5.47233C5.47233 4.10941 5.69611 4.33325 5.97221 4.33332L5.97233 3.83332ZM5.97233 3.77778V3.27778C5.69619 3.27778 5.47233 3.50164 5.47233 3.77778H5.97233ZM6 10.5C3.51472 10.5 1.5 8.48528 1.5 6H0.5C0.5 9.03757 2.96243 11.5 6 11.5V10.5ZM1.5 6C1.5 3.51472 3.51472 1.5 6 1.5V0.5C2.96243 0.5 0.5 2.96243 0.5 6H1.5ZM6 1.5C8.48528 1.5 10.5 3.51472 10.5 6H11.5C11.5 2.96243 9.03757 0.5 6 0.5V1.5ZM10.5 6C10.5 8.48528 8.48528 10.5 6 10.5V11.5C9.03757 11.5 11.5 9.03757 11.5 6H10.5ZM5.5 5.44444V8.22222H6.5V5.44444H5.5ZM5.52767 3.77778V3.83333H6.52767V3.77778H5.52767ZM6.02779 3.33333L5.97245 3.33332L5.97221 4.33332L6.02755 4.33333L6.02779 3.33333ZM6.47233 3.83332V3.77778H5.47233V3.83332H6.47233ZM5.97233 4.27778H6.02767V3.27778H5.97233V4.27778Z" fill="#1A1A1A"/>
</g>
<defs>
<clipPath id="clip0_87_4619">
<rect width="12" height="12" fill="white"/>
</clipPath>
</defs>
</svg>
