<svg width="12" height="6" viewBox="0 0 12 6" fill="none" xmlns="http://www.w3.org/2000/svg">
<path d="M3.00401 3.6415C2.69331 3.91543 2.66349 4.38937 2.93742 4.70007C3.21135 5.01077 3.68528 5.04059 3.99599 4.76666L3.00401 3.6415ZM6 2L6.49599 1.43742C6.21254 1.18753 5.78746 1.18753 5.50401 1.43742L6 2ZM8.00401 4.76666C8.31472 5.04059 8.78865 5.01077 9.06258 4.70007C9.33651 4.38937 9.30669 3.91543 8.99599 3.6415L8.00401 4.76666ZM3.99599 4.76666L6.49599 2.56258L5.50401 1.43742L3.00401 3.6415L3.99599 4.76666ZM5.50401 2.56258L8.00401 4.76666L8.99599 3.6415L6.49599 1.43742L5.50401 2.56258Z" fill="#9860FF"/>
</svg>
