<svg width="24" height="24" viewBox="0 0 24 24" fill="none" xmlns="http://www.w3.org/2000/svg">
<path d="M4.73995 11.7273C4.36845 11.3187 3.736 11.2886 3.32734 11.6601C2.91867 12.0316 2.88855 12.664 3.26005 13.0727L4.73995 11.7273ZM9.09076 18L8.35081 18.6727C8.54033 18.8811 8.80901 19 9.09075 19C9.3725 19 9.64117 18.8812 9.8307 18.6727L9.09076 18ZM20.7399 6.67268C21.1114 6.26402 21.0813 5.63157 20.6727 5.26006C20.264 4.88855 19.6316 4.91867 19.2601 5.32732L20.7399 6.67268ZM3.26005 13.0727L8.35081 18.6727L9.83071 17.3273L4.73995 11.7273L3.26005 13.0727ZM9.8307 18.6727L20.7399 6.67268L19.2601 5.32732L8.35083 17.3273L9.8307 18.6727Z" fill="#1A1A1A"/>
</svg>
