<svg width="current" height="current" viewBox="0 0 44 44" fill="none" xmlns="http://www.w3.org/2000/svg">
<g clip-path="url(#clip0_3374_9196)">
<g clip-path="url(#clip1_3374_9196)">
<circle cx="22" cy="22" r="22" fill="#DEE2E9"/>
<mask id="mask0_3374_9196" style="mask-type:alpha" maskUnits="userSpaceOnUse" x="8" y="6" width="29" height="31">
<path d="M33.7349 19.8634C33.1356 19.7004 32.6415 19.2778 32.372 18.7268C32.365 18.7144 32.3594 18.7005 32.3524 18.6881C31.9776 17.9272 32.118 17.0309 32.6864 16.3956C33.6409 15.3267 34.2205 13.925 34.2205 12.3907C34.2205 9.03481 31.4555 6.31421 28.0447 6.31421C25.3176 6.31421 23.0045 8.05429 22.1862 10.4669C21.9167 11.261 21.1714 11.7955 20.3236 11.8714C13.9288 12.3299 8.88574 17.5805 8.88574 23.9898C8.88574 30.3991 14.4159 36.1428 21.2373 36.1428C26.1415 36.1428 30.3761 33.3296 32.3706 29.2543C32.6317 28.7212 33.1314 28.3456 33.7124 28.1909C35.5806 27.6951 36.9575 26.0186 36.9575 24.023C36.9575 22.0274 35.5918 20.3633 33.7349 19.862V19.8634Z" fill="black"/>
</mask>
<g mask="url(#mask0_3374_9196)">
<path d="M36.9575 6.31421H8.88574V36.1428H36.9575V6.31421Z" fill="#BEC3D1"/>
</g>
</g>
</g>
<defs>
<clipPath id="clip0_3374_9196">
<rect width="44" height="44" fill="white"/>
</clipPath>
<clipPath id="clip1_3374_9196">
<rect width="44" height="44" fill="white"/>
</clipPath>
</defs>
</svg>
