<svg width="current" height="current" viewBox="0 0 44 44" fill="none" xmlns="http://www.w3.org/2000/svg">
<g clip-path="url(#clip0_3374_9078)">
<path fill-rule="evenodd" clip-rule="evenodd" d="M20.6536 3.0778C10.802 3.7708 3.025 11.9746 3.025 22H3.0272C3.0272 31.3434 9.7812 39.1028 18.6736 40.6758V43.747C8.1026 42.1432 0 33.0198 0 22C0 10.3026 9.13 0.7392 20.6514 0.0418C21.0958 0.0154 21.5622 0 21.9978 0C22.4334 0 22.8646 0.0154 23.2914 0.0396V8.5624C27.4582 8.9496 30.305 11.297 31.5722 13.9194C32.0364 14.8786 31.35 15.9918 30.2852 15.9918C29.7418 15.9918 29.2556 15.6794 29.0026 15.1976C28.0038 13.2968 25.7994 11.473 22.4488 11.3564C18.3744 11.2156 15.3274 12.9844 15.3274 15.9918C15.3274 18.4162 17.435 20.0684 20.6536 20.5084V23.3816C15.5694 22.8712 12.4388 20.1014 12.4388 15.9896C12.4388 11.8778 16.0644 9.0596 20.6536 8.58V3.0778ZM25.2736 3.31539V0.244195L25.2758 0.241995C35.8732 1.82379 44.0022 10.9604 44.0022 21.9978C44.0022 33.7128 34.8436 43.2894 23.2958 43.9582C22.8668 43.9846 22.4532 43.9978 22.0022 43.9978C21.5512 43.9978 21.1024 43.9824 20.6558 43.956V35.508C16.4934 35.1186 13.6488 32.7734 12.3816 30.1532C11.9174 29.194 12.6038 28.0808 13.6686 28.0808C14.212 28.0808 14.6982 28.3932 14.9512 28.875C15.95 30.7758 18.1544 32.5996 21.505 32.7162C25.5794 32.857 28.6264 31.0882 28.6264 28.0808C28.6264 25.652 26.5166 23.9998 23.2936 23.562V20.6888C28.3822 21.1948 31.515 23.9668 31.515 28.0808C31.515 32.1948 27.8872 35.0152 23.2936 35.4926V40.9266C33.1716 40.2622 40.9772 32.0452 40.9772 22C40.9772 12.6368 34.1924 4.86639 25.2736 3.31539Z" fill="url(#paint0_linear_3374_9078)"/>
</g>
<defs>
<linearGradient id="paint0_linear_3374_9078" x1="0" y1="0" x2="43.9978" y2="44.0022" gradientUnits="userSpaceOnUse">
<stop stop-color="#FC829F"/>
<stop offset="0.336804" stop-color="#FF1C53"/>
<stop offset="0.435763" stop-color="#EA49F8"/>
<stop offset="0.529514" stop-color="#B250FF"/>
<stop offset="0.633681" stop-color="#5E5FF5"/>
<stop offset="1" stop-color="#323CFF"/>
</linearGradient>
<clipPath id="clip0_3374_9078">
<rect width="44" height="44" fill="white"/>
</clipPath>
</defs>
</svg>
