<svg width="current" height="current" viewBox="0 0 44 44" fill="none" xmlns="http://www.w3.org/2000/svg">
<g clip-path="url(#clip0_3374_9087)">
<g clip-path="url(#clip1_3374_9087)">
<path d="M22 44C34.1917 44 44 34.1917 44 22C44 9.80826 34.1917 0 22 0C9.80826 0 0 9.80826 0 22C0 34.1917 9.80826 44 22 44Z" fill="#2775CA"/>
<path d="M28.05 25.4833C28.05 22.2751 26.125 21.1751 22.275 20.7168C19.525 20.3501 18.975 19.6168 18.975 18.3334C18.975 17.0499 19.8917 16.2251 21.725 16.2251C23.375 16.2251 24.2917 16.7751 24.75 18.1501C24.8417 18.4251 25.1167 18.6084 25.3917 18.6084H26.8582C27.225 18.6084 27.5 18.3333 27.5 17.9668V17.8751C27.1332 15.8583 25.4832 14.3001 23.375 14.1168V11.9168C23.375 11.5501 23.1 11.2751 22.6417 11.1833H21.2667C20.9 11.1833 20.625 11.4583 20.5332 11.9168V14.0251C17.7832 14.3918 16.0417 16.2251 16.0417 18.5168C16.0417 21.5418 17.875 22.7334 21.725 23.1918C24.2917 23.6501 25.1167 24.2001 25.1167 25.6668C25.1167 27.1336 23.8332 28.1418 22.0917 28.1418C19.7082 28.1418 18.8832 27.1333 18.6082 25.7583C18.5167 25.3918 18.2417 25.2083 17.9667 25.2083H16.4082C16.0417 25.2083 15.7667 25.4834 15.7667 25.8501V25.9418C16.1332 28.2334 17.6 29.8834 20.625 30.3418V32.5418C20.625 32.9084 20.9 33.1833 21.3582 33.2751H22.7332C23.1 33.2751 23.375 33.0001 23.4667 32.5418V30.3418C26.2167 29.8834 28.05 27.9583 28.05 25.4833Z" fill="white"/>
<path d="M17.325 35.1083C10.175 32.5417 6.50822 24.5667 9.1667 17.5083C10.5417 13.6583 13.5667 10.725 17.325 9.35001C17.6917 9.16675 17.875 8.89175 17.875 8.43327V7.15001C17.875 6.78327 17.6917 6.50827 17.325 6.41675C17.2332 6.41675 17.05 6.41675 16.9582 6.50827C8.24996 9.25827 3.48322 18.5167 6.23322 27.225C7.88322 32.3583 11.825 36.3 16.9582 37.95C17.325 38.1333 17.6917 37.95 17.7832 37.5833C17.875 37.4917 17.875 37.4 17.875 37.2167V35.9333C17.875 35.6583 17.6 35.2917 17.325 35.1083ZM27.0417 6.50827C26.675 6.32501 26.3082 6.50827 26.2167 6.87501C26.125 6.96675 26.125 7.05827 26.125 7.24175V8.52501C26.125 8.89175 26.4 9.25827 26.675 9.44175C33.825 12.0083 37.4917 19.9833 34.8332 27.0417C33.4582 30.8917 30.4332 33.825 26.675 35.2C26.3082 35.3833 26.125 35.6583 26.125 36.1167V37.4C26.125 37.7667 26.3082 38.0417 26.675 38.1333C26.7667 38.1333 26.95 38.1333 27.0417 38.0417C35.75 35.2917 40.5167 26.0333 37.7667 17.325C36.1167 12.1 32.0832 8.15827 27.0417 6.50827Z" fill="white"/>
</g>
</g>
<defs>
<clipPath id="clip0_3374_9087">
<rect width="44" height="44" fill="white"/>
</clipPath>
<clipPath id="clip1_3374_9087">
<rect width="44" height="44" fill="white"/>
</clipPath>
</defs>
</svg>
