<svg width="current" height="current" viewBox="0 0 44 44" fill="none" xmlns="http://www.w3.org/2000/svg">
<rect width="44" height="44" rx="22" fill="#E6007A"/>
<g clip-path="url(#clip0_3374_9177)">
<path d="M22.0137 12.9215C25.3001 12.9215 27.9642 11.3721 27.9642 9.46075C27.9642 7.54943 25.3001 6 22.0137 6C18.7274 6 16.0633 7.54943 16.0633 9.46075C16.0633 11.3721 18.7274 12.9215 22.0137 12.9215Z" fill="white"/>
<path d="M22.0137 38.9977C25.3001 38.9977 27.9642 37.4482 27.9642 35.5369C27.9642 33.6256 25.3001 32.0762 22.0137 32.0762C18.7274 32.0762 16.0633 33.6256 16.0633 35.5369C16.0633 37.4482 18.7274 38.9977 22.0137 38.9977Z" fill="white"/>
<path d="M13.7214 17.7119C15.3646 14.8659 15.3539 11.7836 13.6976 10.8272C12.0413 9.87094 9.36649 11.4028 7.72333 14.2488C6.08016 17.0947 6.09082 20.1771 7.74715 21.1334C9.40347 22.0897 12.0782 20.5578 13.7214 17.7119Z" fill="white"/>
<path d="M36.3016 30.7486C37.9447 27.9026 37.935 24.8208 36.2798 23.8651C34.6246 22.9095 31.9507 24.4419 30.3076 27.2878C28.6644 30.1338 28.6741 33.2156 30.3293 34.1713C31.9846 35.127 34.6584 33.5946 36.3016 30.7486Z" fill="white"/>
<path d="M13.6984 34.1703C15.3548 33.214 15.3654 30.1317 13.7223 27.2857C12.0791 24.4397 9.40432 22.9079 7.748 23.8642C6.09168 24.8205 6.08101 27.9028 7.72418 30.7488C9.36735 33.5947 12.0421 35.1266 13.6984 34.1703Z" fill="white"/>
<path d="M36.2811 21.1344C37.9363 20.1787 37.9461 17.0969 36.3029 14.2509C34.6598 11.405 31.9859 9.87256 30.3307 10.8282C28.6755 11.7839 28.6657 14.8657 30.3089 17.7117C31.9521 20.5576 34.6259 22.09 36.2811 21.1344Z" fill="white"/>
</g>
<defs>
<clipPath id="clip0_3374_9177">
<rect width="31.0298" height="33" fill="white" transform="translate(6.5 6)"/>
</clipPath>
</defs>
</svg>
