<svg width="current" height="current" viewBox="0 0 44 44" fill="none" xmlns="http://www.w3.org/2000/svg">
<g clip-path="url(#clip0_3374_9080)">
<path d="M22 0C9.8516 0 0 9.8516 0 22C0 23.3156 0.1232 24.6004 0.3432 25.85H5.2272C5.852 25.85 6.226 25.6476 6.468 25.256L8.184 22.4136L10.3796 29.2292C10.5952 29.9156 11.1056 30.272 11.792 30.2764C12.496 30.2808 13.0768 29.8496 13.2132 29.1456L14.806 21.6392L16.5396 33.6072C16.6452 34.3948 17.028 34.7908 17.82 34.7908H17.8288C18.6164 34.7908 18.9948 34.364 19.1048 33.5808L22.638 10.2872C22.7392 9.5656 22.2332 8.8968 21.5116 8.7956C20.7944 8.6988 20.1212 9.2004 20.02 9.922L17.842 24.8556L16.3768 14.8896C16.28 14.124 15.6992 13.6488 15.0656 13.6356C14.3484 13.618 13.816 14.0668 13.6664 14.828L11.5632 24.5784L9.8824 19.3468C9.7504 18.7792 9.2444 18.3568 8.69 18.2908C7.9244 18.1984 7.4888 18.5944 7.1676 19.118L4.5672 23.21H3.014C2.9876 22.8096 2.97 22.4048 2.97 22C2.97 11.4884 11.4884 2.97 22 2.97C30.4744 2.97 37.6552 8.514 40.1148 16.17H43.2124C40.656 6.8508 32.1332 0 22 0Z" fill="url(#paint0_linear_3374_9080)"/>
<path d="M43.6568 18.15H38.764C38.1392 18.15 37.7652 18.3524 37.5232 18.744L35.8072 21.5864L33.6116 14.7708C33.396 14.0844 32.8856 13.728 32.1992 13.7236C31.4952 13.7192 30.9144 14.1504 30.778 14.8544L29.1852 22.3608L27.4516 10.3928C27.346 9.6052 26.9632 9.2092 26.1712 9.2092H26.1624C25.3748 9.2092 24.9964 9.636 24.8864 10.4192L21.3532 33.7128C21.252 34.4344 21.758 35.1032 22.4796 35.2044C23.1968 35.3012 23.87 34.7996 23.9712 34.078L26.1492 19.1444L27.6144 29.1104C27.7112 29.876 28.292 30.3512 28.9256 30.3644C29.6428 30.382 30.1752 29.9332 30.3248 29.172L32.428 19.4216L34.1088 24.6532C34.2408 25.2208 34.7468 25.6432 35.3012 25.7092C36.0668 25.8016 36.5024 25.4056 36.8236 24.882L39.424 20.79H40.986C41.0124 21.1904 41.03 21.5952 41.03 22C41.03 32.5116 32.5116 41.03 22 41.03C13.5256 41.03 6.3448 35.486 3.8852 27.83H0.7876C3.344 37.1492 11.8712 44 22 44C34.1484 44 44 34.1484 44 22C44 20.6844 43.8768 19.3996 43.6568 18.15Z" fill="url(#paint1_linear_3374_9080)"/>
</g>
<defs>
<linearGradient id="paint0_linear_3374_9080" x1="0" y1="0" x2="44" y2="44" gradientUnits="userSpaceOnUse">
<stop stop-color="#FC829F"/>
<stop offset="0.336804" stop-color="#FF1C53"/>
<stop offset="0.435763" stop-color="#EA49F8"/>
<stop offset="0.529514" stop-color="#B250FF"/>
<stop offset="0.633681" stop-color="#5E5FF5"/>
<stop offset="1" stop-color="#323CFF"/>
</linearGradient>
<linearGradient id="paint1_linear_3374_9080" x1="0" y1="0" x2="44" y2="44" gradientUnits="userSpaceOnUse">
<stop stop-color="#FC829F"/>
<stop offset="0.336804" stop-color="#FF1C53"/>
<stop offset="0.435763" stop-color="#EA49F8"/>
<stop offset="0.529514" stop-color="#B250FF"/>
<stop offset="0.633681" stop-color="#5E5FF5"/>
<stop offset="1" stop-color="#323CFF"/>
</linearGradient>
<clipPath id="clip0_3374_9080">
<rect width="44" height="44" fill="white"/>
</clipPath>
</defs>
</svg>
