<svg width="current" height="current" viewBox="0 0 44 44" fill="none" xmlns="http://www.w3.org/2000/svg">
<g clip-path="url(#clip0_3374_9185)">
<rect width="44" height="44" rx="22" fill="#F3BA2F"/>
<g clip-path="url(#clip1_3374_9185)">
<path d="M16.174 19.6063L22 13.7804L27.829 19.6093L31.219 16.2193L22 7L12.7842 16.2163L16.174 19.6063ZM7.00024 21.9995L10.3903 18.6094L13.7802 21.9993L10.3902 25.3894L7.00024 21.9995ZM16.174 24.3937L22 30.2195L27.8289 24.3909L31.2207 27.779L31.219 27.7808L22 37L12.7839 27.784L12.7791 27.7792L16.174 24.3937ZM30.2204 22.0014L33.6105 18.6113L37.0003 22.0012L33.6102 25.3913L30.2204 22.0014Z" fill="white"/>
<path d="M25.4382 21.9981H25.4397L21.9998 18.5581L19.4576 21.1003H19.4574L19.1654 21.3925L18.563 21.9951L18.5582 21.9997L18.563 22.0047L21.9998 25.4416L25.4397 22.0017L25.4414 21.9997L25.4382 21.9981Z" fill="white"/>
</g>
</g>
<defs>
<clipPath id="clip0_3374_9185">
<rect width="44" height="44" rx="22" fill="white"/>
</clipPath>
<clipPath id="clip1_3374_9185">
<rect width="30" height="30" fill="white" transform="translate(7 7)"/>
</clipPath>
</defs>
</svg>
