<svg width="current" height="current" viewBox="0 0 44 44" fill="none" xmlns="http://www.w3.org/2000/svg">
<g clip-path="url(#clip0_3374_9116)">
<g clip-path="url(#clip1_3374_9116)">
<g clip-path="url(#clip2_3374_9116)">
<path d="M22 0C34.1497 0 44 9.85028 44 22C44 34.1497 34.1493 44 22 44C9.85072 44 0 34.1524 0 22C0 9.84764 9.84896 0 22 0Z" fill="#53AE94"/>
<path d="M24.7152 19.0688V15.7961H32.1992V10.8096H11.8202V15.7961H19.305V19.0662C13.222 19.3456 8.64819 20.5503 8.64819 21.9935C8.64819 23.4367 13.2242 24.6414 19.305 24.9226V35.4056H24.717V24.9217C30.789 24.6414 35.3536 23.4376 35.3536 21.9957C35.3536 20.5538 30.789 19.35 24.717 19.0697M24.717 24.0338V24.0311C24.5643 24.0408 23.7798 24.0879 22.033 24.0879C20.6364 24.0879 19.6539 24.0483 19.3076 24.0303V24.0347C13.9335 23.7966 9.92199 22.8607 9.92199 21.7409C9.92199 20.6211 13.9339 19.6866 19.3076 19.4481V23.1023C19.6596 23.1265 20.6664 23.1859 22.0559 23.1859C23.7248 23.1859 24.5639 23.1164 24.7179 23.1023V19.4481C30.0815 19.687 34.0837 20.6238 34.0837 21.7396C34.0837 22.8554 30.0797 23.7927 24.7179 24.0316" fill="white"/>
</g>
</g>
</g>
<defs>
<clipPath id="clip0_3374_9116">
<rect width="44" height="44" fill="white"/>
</clipPath>
<clipPath id="clip1_3374_9116">
<rect width="44" height="44" fill="white"/>
</clipPath>
<clipPath id="clip2_3374_9116">
<rect width="44" height="44" fill="white"/>
</clipPath>
</defs>
</svg>
