<svg width="current" height="current" viewBox="0 0 44 44" fill="none" xmlns="http://www.w3.org/2000/svg">
<g clip-path="url(#clip0_3374_9130)">
<g clip-path="url(#clip1_3374_9130)">
<path d="M43.3393 27.3219C40.401 39.1077 28.4639 46.2804 16.6767 43.3414C4.89438 40.4031 -2.27824 28.4652 0.661309 16.6803C3.59828 4.89322 15.5354 -2.27994 27.319 0.658315C39.1054 3.59657 46.2775 15.5357 43.339 27.3221L43.3392 27.3219H43.3393Z" fill="#F7931A"/>
<path d="M31.701 18.8656C32.1389 15.9379 29.9099 14.3641 26.862 13.3143L27.8508 9.34843L25.4366 8.74688L24.4741 12.6083C23.8394 12.45 23.1877 12.3009 22.5399 12.153L23.5094 8.2661L21.0968 7.66455L20.1075 11.6291C19.5823 11.5095 19.0664 11.3914 18.566 11.2668L18.5687 11.2544L15.2396 10.423L14.5974 13.0015C14.5974 13.0015 16.3885 13.412 16.3508 13.4373C17.3283 13.6813 17.5051 14.3284 17.4758 14.8414L16.3495 19.3594C16.4168 19.3765 16.5041 19.4012 16.6004 19.44C16.5199 19.4199 16.4342 19.3981 16.3453 19.3768L14.7666 25.706C14.6471 26.003 14.3438 26.4487 13.6604 26.2794C13.6846 26.3145 11.9057 25.8416 11.9057 25.8416L10.7072 28.605L13.8488 29.3881C14.4332 29.5347 15.0059 29.688 15.5699 29.8322L14.571 33.8436L16.9823 34.4451L17.9716 30.4764C18.6304 30.6552 19.2697 30.8202 19.8955 30.9757L18.9095 34.9257L21.3238 35.5272L22.3226 31.5234C26.4393 32.3025 29.5346 31.9884 30.8375 28.2649C31.8874 25.2671 30.7853 23.538 28.6195 22.4104C30.1969 22.0466 31.3851 21.0091 31.7019 18.8659L31.7011 18.8654L31.701 18.8656ZM26.1853 26.6001C25.4392 29.5979 20.3918 27.9774 18.7553 27.571L20.081 22.2567C21.7173 22.6652 26.965 23.4737 26.1854 26.6001H26.1853ZM26.9319 18.8222C26.2513 21.549 22.0503 20.1637 20.6875 19.824L21.8894 15.0042C23.2522 15.3439 27.6409 15.9779 26.9321 18.8222H26.9319Z" fill="white"/>
</g>
</g>
<defs>
<clipPath id="clip0_3374_9130">
<rect width="44" height="44" fill="white"/>
</clipPath>
<clipPath id="clip1_3374_9130">
<rect width="44" height="44" fill="white"/>
</clipPath>
</defs>
</svg>
