<svg width="current" height="current" viewBox="0 0 44 44" fill="none" xmlns="http://www.w3.org/2000/svg">
<g clip-path="url(#clip0_3374_9098)">
<circle cx="22" cy="22" r="22" fill="white"/>
<path d="M22 4C12.0604 4 4 12.0604 4 22C4 23.0764 4.1008 24.1276 4.2808 25.15H8.2768C8.788 25.15 9.094 24.9844 9.292 24.664L10.696 22.3384L12.4924 27.9148C12.6688 28.4764 13.0864 28.768 13.648 28.7716C14.224 28.7752 14.6992 28.4224 14.8108 27.8464L16.114 21.7048L17.5324 31.4968C17.6188 32.1412 17.932 32.4652 18.58 32.4652H18.5872C19.2316 32.4652 19.5412 32.116 19.6312 31.4752L22.522 12.4168C22.6048 11.8264 22.1908 11.2792 21.6004 11.1964C21.0136 11.1172 20.4628 11.5276 20.38 12.118L18.598 24.3364L17.3992 16.1824C17.32 15.556 16.8448 15.1672 16.3264 15.1564C15.7396 15.142 15.304 15.5092 15.1816 16.132L13.4608 24.1096L12.0856 19.8292C11.9776 19.3648 11.5636 19.0192 11.11 18.9652C10.4836 18.8896 10.1272 19.2136 9.8644 19.642L7.7368 22.99H6.466C6.4444 22.6624 6.43 22.3312 6.43 22C6.43 13.3996 13.3996 6.43 22 6.43C28.9336 6.43 34.8088 10.966 36.8212 17.23H39.3556C37.264 9.6052 30.2908 4 22 4Z" fill="url(#paint0_linear_3374_9098)"/>
<path d="M39.7192 18.85H35.716C35.2048 18.85 34.8988 19.0156 34.7008 19.336L33.2968 21.6616L31.5004 16.0852C31.324 15.5236 30.9064 15.232 30.3448 15.2284C29.7688 15.2248 29.2936 15.5776 29.182 16.1536L27.8788 22.2952L26.4604 12.5032C26.374 11.8588 26.0608 11.5348 25.4128 11.5348H25.4056C24.7612 11.5348 24.4516 11.884 24.3616 12.5248L21.4708 31.5832C21.388 32.1736 21.802 32.7208 22.3924 32.8036C22.9792 32.8828 23.53 32.4724 23.6128 31.882L25.3948 19.6636L26.5936 27.8176C26.6728 28.444 27.148 28.8328 27.6664 28.8436C28.2532 28.858 28.6888 28.4908 28.8112 27.868L30.532 19.8904L31.9072 24.1708C32.0152 24.6352 32.4292 24.9808 32.8828 25.0348C33.5092 25.1104 33.8656 24.7864 34.1284 24.358L36.256 21.01H37.534C37.5556 21.3376 37.57 21.6688 37.57 22C37.57 30.6004 30.6004 37.57 22 37.57C15.0664 37.57 9.1912 33.034 7.1788 26.77H4.6444C6.736 34.3948 13.7128 40 22 40C31.9396 40 40 31.9396 40 22C40 20.9236 39.8992 19.8724 39.7192 18.85Z" fill="url(#paint1_linear_3374_9098)"/>
</g>
<defs>
<linearGradient id="paint0_linear_3374_9098" x1="4" y1="4" x2="40" y2="40" gradientUnits="userSpaceOnUse">
<stop stop-color="#FC829F"/>
<stop offset="0.336804" stop-color="#FF1C53"/>
<stop offset="0.435763" stop-color="#EA49F8"/>
<stop offset="0.529514" stop-color="#B250FF"/>
<stop offset="0.633681" stop-color="#5E5FF5"/>
<stop offset="1" stop-color="#323CFF"/>
</linearGradient>
<linearGradient id="paint1_linear_3374_9098" x1="4" y1="4" x2="40" y2="40" gradientUnits="userSpaceOnUse">
<stop stop-color="#FC829F"/>
<stop offset="0.336804" stop-color="#FF1C53"/>
<stop offset="0.435763" stop-color="#EA49F8"/>
<stop offset="0.529514" stop-color="#B250FF"/>
<stop offset="0.633681" stop-color="#5E5FF5"/>
<stop offset="1" stop-color="#323CFF"/>
</linearGradient>
<clipPath id="clip0_3374_9098">
<rect width="44" height="44" fill="white"/>
</clipPath>
</defs>
</svg>
