<svg width="current" height="current" viewBox="0 0 44 44" fill="none" xmlns="http://www.w3.org/2000/svg">
<rect width="44" height="44" rx="22" fill="white"/>
<g clip-path="url(#clip0_3374_9143)">
<path d="M13.4169 21.8294C13.3359 23.2379 14.4201 24.4438 15.8287 24.5249C15.8793 24.5249 15.93 24.5249 15.9807 24.5249C17.3993 24.5249 18.5444 23.3798 18.5343 21.9611C18.5343 20.5425 17.3892 19.3974 15.9705 19.4075C14.6127 19.4075 13.4879 20.4715 13.4169 21.8294Z" fill="#0033AD"/>
<path d="M3.87146 21.1708C3.41546 21.1404 3.02026 21.495 3 21.951C2.97973 22.407 3.32426 22.8022 3.78026 22.8225C4.23626 22.8529 4.62133 22.4982 4.65173 22.0422C4.68213 21.5862 4.32746 21.2012 3.87146 21.1708Z" fill="#0033AD"/>
<path d="M13.2549 6.9737C13.6602 6.77103 13.8224 6.26437 13.6197 5.85903C13.417 5.4537 12.9104 5.29157 12.505 5.49423C12.0997 5.6969 11.9376 6.19343 12.1402 6.59877C12.3429 7.01423 12.8394 7.1865 13.2549 6.9737C13.2448 6.9737 13.2549 6.9737 13.2549 6.9737Z" fill="#0033AD"/>
<path d="M15.8491 11.5034C16.4774 11.1893 16.7307 10.4192 16.4166 9.79091C16.1025 9.16265 15.3323 8.90931 14.7041 9.22344C14.0758 9.53758 13.8225 10.3077 14.1366 10.936C14.4507 11.5642 15.2209 11.8176 15.8491 11.5034Z" fill="#0033AD"/>
<path d="M7.11424 14.6146C7.60064 14.9287 8.24918 14.797 8.57344 14.3106C8.88758 13.8242 8.75584 13.1756 8.26944 12.8514C7.78304 12.5372 7.13451 12.669 6.81024 13.1554C6.48598 13.6418 6.62784 14.3004 7.11424 14.6146Z" fill="#0033AD"/>
<path d="M8.66446 20.7148C7.95513 20.6743 7.35726 21.2113 7.31673 21.9207C7.27619 22.63 7.81326 23.2279 8.52259 23.2684C9.23193 23.3089 9.82979 22.7719 9.87033 22.0625C9.91086 21.3633 9.37379 20.7553 8.66446 20.7148Z" fill="#0033AD"/>
<path d="M7.25615 29.2976C6.73935 29.5611 6.52655 30.1893 6.79002 30.7163C7.05349 31.2331 7.68175 31.4459 8.20869 31.1824C8.72549 30.9189 8.93828 30.2907 8.67482 29.7637C8.41135 29.2469 7.77295 29.0341 7.25615 29.2976Z" fill="#0033AD"/>
<path d="M12.2214 18.0699C12.9206 18.5259 13.8529 18.3334 14.2987 17.6342C14.7547 16.935 14.5622 16.0027 13.863 15.5568C13.1638 15.1008 12.2315 15.2934 11.7857 15.9926C11.3297 16.6816 11.5222 17.6139 12.2214 18.0699Z" fill="#0033AD"/>
<path d="M27.9787 11.4022C28.5664 11.7872 29.367 11.6251 29.752 11.0374C30.1371 10.4496 29.975 9.64911 29.3872 9.26404C28.7995 8.87897 27.999 9.04111 27.6139 9.62884C27.2187 10.2267 27.3808 11.0171 27.9787 11.4022Z" fill="#0033AD"/>
<path d="M30.5931 6.89271C30.9782 7.14605 31.4848 7.03458 31.7382 6.64951C31.9915 6.26445 31.88 5.75778 31.495 5.50445C31.1099 5.25111 30.6032 5.36258 30.3499 5.73751C30.1067 6.12258 30.2182 6.63938 30.5931 6.89271Z" fill="#0033AD"/>
<path d="M28.1712 19.3873C26.7626 19.3063 25.5466 20.3905 25.4757 21.7991C25.3946 23.2076 26.4789 24.4236 27.8874 24.4945C27.9381 24.4945 27.9888 24.4945 28.0293 24.4945C29.4378 24.4945 30.5829 23.3495 30.5829 21.9308C30.593 20.5831 29.529 19.4583 28.1712 19.3873Z" fill="#0033AD"/>
<path d="M16.6901 17.8875C17.1258 18.7489 18.0074 19.2961 18.9802 19.2961C20.3888 19.2961 21.5338 18.151 21.5338 16.7323C21.5338 16.3371 21.4426 15.9419 21.2602 15.5771C20.6218 14.3105 19.0816 13.8038 17.825 14.4422C16.5584 15.0907 16.0517 16.631 16.6901 17.8875Z" fill="#0033AD"/>
<path d="M36.7439 14.6146C37.2607 14.3511 37.4634 13.7127 37.1999 13.1959C36.9364 12.6791 36.298 12.4764 35.7812 12.7399C35.2644 13.0034 35.0618 13.6316 35.3151 14.1484C35.5887 14.6652 36.217 14.878 36.7439 14.6146Z" fill="#0033AD"/>
<path d="M30.2588 15.4249C29.519 15.7999 29.215 16.7017 29.59 17.4415C29.9649 18.1812 30.8668 18.4852 31.6065 18.1103C32.3462 17.7353 32.6502 16.8335 32.2753 16.0937C31.9004 15.354 30.9985 15.0601 30.2588 15.4249Z" fill="#0033AD"/>
<path d="M21.8986 6.50767C22.4762 6.53807 22.9728 6.0922 23.0133 5.5146C23.0538 4.937 22.5978 4.44047 22.0202 4.39994C21.4426 4.36954 20.9461 4.80527 20.9056 5.38287C20.8752 5.9706 21.321 6.46714 21.8986 6.50767Z" fill="#0033AD"/>
<path d="M21.8886 13.1248C22.7195 13.1755 23.4289 12.5371 23.4694 11.7062C23.5201 10.8752 22.8817 10.1659 22.0507 10.1254C21.2198 10.0747 20.5105 10.7131 20.4699 11.544C20.4294 12.375 21.0577 13.0843 21.8886 13.1248Z" fill="#0033AD"/>
<path d="M13.7412 28.4868C14.4809 28.1119 14.7849 27.21 14.41 26.4703C14.0351 25.7305 13.1332 25.4265 12.3935 25.8015C11.6537 26.1764 11.3497 27.0783 11.7247 27.818C12.0996 28.5577 13.0015 28.8617 13.7412 28.4868Z" fill="#0033AD"/>
<path d="M22.8614 15.3239C22.0912 16.5095 22.4155 18.0903 23.6011 18.8604C24.7867 19.6306 26.3675 19.3063 27.1376 18.1207C27.9078 16.9351 27.5835 15.3543 26.3979 14.5842C25.9824 14.3106 25.496 14.1687 24.9995 14.1687C24.1382 14.1687 23.3376 14.6044 22.8614 15.3239Z" fill="#0033AD"/>
<path d="M27.3099 26.0246C26.6715 24.758 25.1313 24.2513 23.8747 24.8897C22.6081 25.5281 22.1014 27.0684 22.7398 28.3249C23.3782 29.5916 24.9185 30.0982 26.175 29.4598C27.4315 28.8316 27.9483 27.3116 27.3201 26.0449C27.3201 26.0348 27.3201 26.0348 27.3099 26.0246Z" fill="#0033AD"/>
<path d="M31.7787 25.8422C31.0795 25.3862 30.1472 25.5788 29.7014 26.278C29.2454 26.9772 29.4379 27.9094 30.1371 28.3553C30.8363 28.8113 31.7686 28.6188 32.2144 27.9196C32.6704 27.2305 32.4779 26.2982 31.7787 25.8422Z" fill="#0033AD"/>
<path d="M36.6833 22.0017C36.7238 21.2924 36.1867 20.6945 35.4774 20.654C34.7681 20.6135 34.1702 21.1505 34.1297 21.8599C34.0891 22.5692 34.6262 23.1671 35.3355 23.2076C36.0347 23.2481 36.6427 22.7009 36.6833 22.0017Z" fill="#0033AD"/>
<path d="M40.2198 21.0897C39.7638 21.0593 39.3686 21.414 39.3483 21.87C39.3281 22.326 39.6726 22.7212 40.1286 22.7414C40.5846 22.7718 40.9697 22.4172 41.0001 21.9612C41.0203 21.5052 40.6758 21.1201 40.2198 21.0897Z" fill="#0033AD"/>
<path d="M36.8859 29.2977C36.3995 28.9835 35.7509 29.1153 35.4267 29.6017C35.1125 30.0881 35.2443 30.7366 35.7307 31.0609C36.2171 31.375 36.8656 31.2433 37.1899 30.7569C37.5141 30.2705 37.3723 29.6118 36.8859 29.2977Z" fill="#0033AD"/>
<path d="M13.3969 37.0193C13.0118 36.766 12.5052 36.8775 12.2518 37.2524C11.9985 37.6375 12.11 38.1441 12.4849 38.3975C12.87 38.6508 13.3766 38.5393 13.63 38.1644C13.8934 37.7895 13.782 37.2727 13.3969 37.0193Z" fill="#0033AD"/>
<path d="M30.7451 36.9384C30.3398 37.141 30.1777 37.6477 30.3803 38.053C30.583 38.4584 31.0897 38.6205 31.495 38.4178C31.9003 38.2152 32.0625 37.7186 31.8598 37.3133C31.6571 36.8978 31.1606 36.7256 30.7451 36.9384C30.7553 36.9384 30.7451 36.9384 30.7451 36.9384Z" fill="#0033AD"/>
<path d="M21.1385 28.5884C21.9087 27.4028 21.5844 25.822 20.3988 25.0417C19.2132 24.2716 17.6324 24.5959 16.8521 25.7815C16.0719 26.9671 16.4063 28.5479 17.5919 29.3281C18.0073 29.6017 18.4937 29.7436 18.9903 29.7436C19.8617 29.7537 20.6623 29.318 21.1385 28.5884Z" fill="#0033AD"/>
<path d="M16.0214 32.5099C15.4336 32.1248 14.6331 32.287 14.248 32.8747C13.863 33.4624 14.0251 34.263 14.6128 34.648C15.2006 35.0331 16.0011 34.871 16.3862 34.2832C16.7814 33.6955 16.6192 32.895 16.0214 32.5099Z" fill="#0033AD"/>
<path d="M21.99 37.4043C21.4124 37.3739 20.9158 37.8198 20.8753 38.3974C20.8348 38.975 21.2908 39.4715 21.8684 39.512C22.446 39.5424 22.9425 39.1067 22.983 38.5291C23.0134 37.9414 22.5676 37.4448 21.99 37.4043Z" fill="#0033AD"/>
<path d="M22.0001 30.7872C21.1692 30.7366 20.4599 31.375 20.4193 32.2059C20.3687 33.0368 21.0071 33.7462 21.838 33.7867C22.6689 33.8272 23.3783 33.199 23.4188 32.368C23.4695 31.5472 22.8311 30.8278 22.0001 30.7872Z" fill="#0033AD"/>
<path d="M28.1509 32.4086C27.5226 32.7328 27.2693 33.503 27.5935 34.1312C27.9178 34.7595 28.6879 35.0128 29.3162 34.6886C29.9445 34.3744 30.1978 33.6043 29.8837 32.976C29.5594 32.3478 28.7893 32.0843 28.1509 32.4086Z" fill="#0033AD"/>
</g>
<defs>
<clipPath id="clip0_3374_9143">
<rect width="38" height="35.112" fill="white" transform="translate(3 4.3999)"/>
</clipPath>
</defs>
</svg>
