<svg width="current" height="current" viewBox="0 0 44 44" fill="none" xmlns="http://www.w3.org/2000/svg">
<g clip-path="url(#clip0_3374_9095)">
<circle cx="22" cy="22" r="22" fill="white"/>
<path fill-rule="evenodd" clip-rule="evenodd" d="M20.984 6.06841V11.1277L21.6604 11.1304L20.984 11.1358C19.2933 11.2902 17.753 11.8185 16.5744 12.6719C15.0991 13.7406 14.2863 15.1995 14.2863 16.7802C14.2863 19.4379 16.3021 21.3518 19.9801 22.1768L20.163 22.2133C20.2321 22.2255 20.3012 22.2337 20.3662 22.2337C20.8377 22.2337 21.2603 21.9004 21.3619 21.4209C21.4757 20.8723 21.1221 20.3359 20.5694 20.2221L20.4028 20.1896C18.5374 19.7711 16.3184 18.8405 16.3143 16.7762C16.3143 15.8659 16.8264 14.9881 17.7611 14.3136C18.83 13.5374 20.3378 13.1107 22 13.1107C24.8083 13.1107 26.7063 14.0454 27.8036 15.9634C27.9905 16.2926 28.3319 16.4754 28.6855 16.4754C28.8562 16.4754 29.0309 16.4307 29.1894 16.3413C29.6771 16.061 29.8438 15.4433 29.5674 14.9556C28.2431 12.6363 26.0377 11.3523 23.016 11.1199V4.30884C23.016 4.30884 23.012 4.05283 22.7925 4.02032C22.5324 4.00813 22.2682 4 22 4C12.0754 4 4 12.0745 4 21.998C4 31.1209 10.8237 38.6752 19.6306 39.8334V37.7812C11.9454 36.6353 6.03206 29.9953 6.03206 21.998C6.03206 13.5374 12.6525 6.59262 20.984 6.06841ZM23.016 32.8764V37.9316C31.3515 37.4074 37.9679 30.4626 37.9679 21.998C37.9679 14.0007 32.0546 7.36065 24.3694 6.2147V4.16255C33.1804 5.32475 40 12.8791 40 22.002C40 31.9255 31.9246 40 22 40C21.7358 40 21.4757 39.9919 21.2156 39.9797C20.984 39.9553 20.984 39.6871 20.984 39.6871V32.8762C17.5682 32.66 15.1432 31.3312 13.5995 28.829C13.3028 28.3535 13.4531 27.7277 13.9287 27.4311C14.4042 27.1344 15.0341 27.2807 15.3267 27.7602C16.6394 29.8855 18.7609 30.8771 22.0041 30.8771C23.9061 30.8771 25.6293 30.3935 26.8566 29.5117C27.9377 28.7355 28.5351 27.7277 28.5351 26.6752C28.5351 24.237 25.8609 23.1764 23.6175 22.7132L23.4021 22.6725C22.8535 22.5669 22.4958 22.0305 22.6015 21.4819C22.7072 20.9333 23.2396 20.5757 23.7923 20.6813L24.0158 20.726C28.2425 21.5957 30.5672 23.7088 30.5672 26.6793C30.5672 28.4023 29.669 29.9953 28.0393 31.1656C26.6981 32.1246 24.9424 32.7139 23.016 32.8683L22.001 32.8723L23.016 32.8764Z" fill="url(#paint0_linear_3374_9095)"/>
</g>
<defs>
<linearGradient id="paint0_linear_3374_9095" x1="4" y1="4" x2="40" y2="40" gradientUnits="userSpaceOnUse">
<stop stop-color="#FC829F"/>
<stop offset="0.336804" stop-color="#FF1C53"/>
<stop offset="0.435763" stop-color="#EA49F8"/>
<stop offset="0.529514" stop-color="#B250FF"/>
<stop offset="0.633681" stop-color="#5E5FF5"/>
<stop offset="1" stop-color="#323CFF"/>
</linearGradient>
<clipPath id="clip0_3374_9095">
<rect width="44" height="44" fill="white"/>
</clipPath>
</defs>
</svg>
