<svg width="current" height="current" viewBox="0 0 44 44" fill="none" xmlns="http://www.w3.org/2000/svg">
<g clip-path="url(#clip0_3374_9101)">
<g clip-path="url(#clip1_3374_9101)">
<g clip-path="url(#clip2_3374_9101)">
<path d="M22 0C34.1514 0 44 9.8506 44 22C44 34.1514 34.1514 44 22 44C9.8506 44 0 34.1504 0 22C0 9.8506 9.8506 0 22 0Z" fill="#F5AC37"/>
<path d="M22.8143 23.5535H31.1739C31.3521 23.5535 31.4363 23.5535 31.4491 23.3199C31.5175 22.4694 31.5175 21.6141 31.4491 20.7627C31.4491 20.5973 31.367 20.529 31.1878 20.529H14.5507C14.3447 20.529 14.2893 20.5973 14.2893 20.7904V23.2377C14.2893 23.5535 14.2893 23.5535 14.619 23.5535H22.8143ZM30.5156 17.6689C30.5393 17.6065 30.5393 17.5382 30.5156 17.4768C30.376 17.1729 30.2106 16.8828 30.0186 16.6106C29.7295 16.1453 29.3889 15.7166 29.0008 15.3315C28.8177 15.0988 28.6058 14.8899 28.3682 14.7127C27.1782 13.6999 25.7635 12.9832 24.2429 12.6228C23.4756 12.4505 22.6915 12.3684 21.9054 12.3753H14.522C14.316 12.3753 14.2883 12.4575 14.2883 12.6367V17.5174C14.2883 17.7233 14.2883 17.7788 14.5497 17.7788H30.4166C30.4166 17.7788 30.5542 17.7511 30.5819 17.6689H30.5146H30.5156ZM30.5156 26.4136C30.2819 26.3879 30.0463 26.3879 29.8127 26.4136H14.5645C14.3586 26.4136 14.2893 26.4136 14.2893 26.6889V31.4607C14.2893 31.6805 14.2893 31.7359 14.5645 31.7359H21.6045C21.9411 31.7617 22.2777 31.7379 22.6074 31.6676C23.6291 31.5944 24.6339 31.3726 25.5922 31.0073C25.9407 30.8865 26.2773 30.7291 26.5951 30.54H26.6912C28.3415 29.6817 29.682 28.3333 30.5274 26.678C30.5274 26.678 30.6235 26.4701 30.5156 26.4156V26.4136ZM11.5262 34.21V34.1278V30.9241V29.8381V26.6067C11.5262 26.4275 11.5262 26.4008 11.3064 26.4008H8.32251C8.15718 26.4008 8.08887 26.4008 8.08887 26.181V23.5684H11.2787C11.4569 23.5684 11.5262 23.5684 11.5262 23.3347V20.7498C11.5262 20.5845 11.5262 20.5439 11.3064 20.5439H8.32251C8.15718 20.5439 8.08887 20.5439 8.08887 20.3241V17.9045C8.08887 17.753 8.08887 17.7124 8.30865 17.7124H11.2648C11.4707 17.7124 11.5262 17.7124 11.5262 17.4511V10.0399C11.5262 9.82009 11.5262 9.76465 11.8014 9.76465H22.1133C22.8618 9.79435 23.6053 9.87652 24.3409 10.0122C25.8566 10.2923 27.3129 10.8339 28.6444 11.6071C29.5275 12.1268 30.3403 12.7545 31.064 13.4772C31.6085 14.0425 32.0996 14.6543 32.5352 15.3057C32.9678 15.9661 33.3272 16.6719 33.6093 17.4095C33.644 17.6016 33.8281 17.7313 34.0202 17.6986H36.4814C36.7972 17.6986 36.7972 17.6986 36.811 18.0015V20.2568C36.811 20.4766 36.7289 20.532 36.5081 20.532H34.6102C34.4182 20.532 34.3627 20.532 34.3766 20.7795C34.4518 21.617 34.4518 22.4576 34.3766 23.2951C34.3766 23.5288 34.3766 23.5565 34.639 23.5565H36.81C36.9061 23.6802 36.81 23.804 36.81 23.9287C36.8239 24.0881 36.8239 24.2495 36.81 24.4089V26.0731C36.81 26.3067 36.7417 26.376 36.5348 26.376H33.936C33.7549 26.3414 33.5787 26.4572 33.5371 26.6374C32.9183 28.2462 31.9283 29.6886 30.6492 30.8449C30.1819 31.2657 29.6909 31.6617 29.1781 32.027C28.6276 32.3438 28.092 32.6735 27.5277 32.9348C26.4892 33.4021 25.4002 33.7466 24.2825 33.9654C23.2212 34.1555 22.145 34.2417 21.0649 34.2268H11.5222V34.2129L11.5262 34.21Z" fill="#FEFEFD"/>
</g>
</g>
</g>
<defs>
<clipPath id="clip0_3374_9101">
<rect width="44" height="44" fill="white"/>
</clipPath>
<clipPath id="clip1_3374_9101">
<rect width="44" height="44" fill="white"/>
</clipPath>
<clipPath id="clip2_3374_9101">
<rect width="44" height="44" fill="white"/>
</clipPath>
</defs>
</svg>
