<svg width="current" height="current" viewBox="0 0 44 44" fill="none" xmlns="http://www.w3.org/2000/svg">
<circle cx="22" cy="22" r="21.5937" fill="white" stroke="#DEE2E9" stroke-width="0.812565"/>
<path d="M33.7773 9.99951L23.6651 17.5017L25.5431 13.0756L33.7773 9.99951Z" fill="#E17726" stroke="#E17726" stroke-width="0.712817" stroke-linecap="round" stroke-linejoin="round"/>
<path d="M10.4566 9.99951L20.4769 17.5727L18.6908 13.0756L10.4566 9.99951Z" fill="#E27625" stroke="#E27625" stroke-width="0.712817" stroke-linecap="round" stroke-linejoin="round"/>
<path d="M30.1421 27.3901L27.452 31.5122L33.2082 33.0953L34.8532 27.4811L30.1421 27.3901Z" fill="#E27625" stroke="#E27625" stroke-width="0.712817" stroke-linecap="round" stroke-linejoin="round"/>
<path d="M9.39056 27.4811L11.0256 33.0953L16.7818 31.5122L14.1017 27.3901L9.39056 27.4811Z" fill="#E27625" stroke="#E27625" stroke-width="0.712817" stroke-linecap="round" stroke-linejoin="round"/>
<path d="M16.4669 20.4267L14.8628 22.8538L20.569 23.1078L20.376 16.9646L16.4669 20.4267Z" fill="#E27625" stroke="#E27625" stroke-width="0.712817" stroke-linecap="round" stroke-linejoin="round"/>
<path d="M27.7672 20.4252L23.7971 16.8921L23.6651 23.1063L29.3712 22.8522L27.7672 20.4252Z" fill="#E27625" stroke="#E27625" stroke-width="0.712817" stroke-linecap="round" stroke-linejoin="round"/>
<path d="M16.7818 31.5133L20.2239 29.8373L17.2588 27.5232L16.7818 31.5133Z" fill="#E27625" stroke="#E27625" stroke-width="0.712817" stroke-linecap="round" stroke-linejoin="round"/>
<path d="M24.0101 29.8373L27.4522 31.5133L26.9752 27.5232L24.0101 29.8373Z" fill="#E27625" stroke="#E27625" stroke-width="0.712817" stroke-linecap="round" stroke-linejoin="round"/>
<path d="M27.4522 31.5125L24.0101 29.8364L24.2841 32.0805L24.2541 33.0245L27.4522 31.5125Z" fill="#D5BFB2" stroke="#D5BFB2" stroke-width="0.712817" stroke-linecap="round" stroke-linejoin="round"/>
<path d="M16.7818 31.5125L19.9799 33.0245L19.9599 32.0805L20.2239 29.8364L16.7818 31.5125Z" fill="#D5BFB2" stroke="#D5BFB2" stroke-width="0.712817" stroke-linecap="round" stroke-linejoin="round"/>
<path d="M20.041 26.0392L17.1779 25.1972L19.198 24.2732L20.041 26.0392Z" fill="#233447" stroke="#233447" stroke-width="0.712817" stroke-linecap="round" stroke-linejoin="round"/>
<path d="M24.1929 26.0392L25.0359 24.2732L27.066 25.1972L24.1929 26.0392Z" fill="#233447" stroke="#233447" stroke-width="0.712817" stroke-linecap="round" stroke-linejoin="round"/>
<path d="M16.7819 31.5122L17.2789 27.3901L14.1018 27.4811L16.7819 31.5122Z" fill="#CC6228" stroke="#CC6228" stroke-width="0.712817" stroke-linecap="round" stroke-linejoin="round"/>
<path d="M26.955 27.3901L27.452 31.5122L30.1421 27.4811L26.955 27.3901Z" fill="#CC6228" stroke="#CC6228" stroke-width="0.712817" stroke-linecap="round" stroke-linejoin="round"/>
<path d="M29.3712 22.853L23.6651 23.107L24.1931 26.0401L25.0361 24.2741L27.0662 25.1981L29.3712 22.853Z" fill="#CC6228" stroke="#CC6228" stroke-width="0.712817" stroke-linecap="round" stroke-linejoin="round"/>
<path d="M17.1779 25.1981L19.1979 24.2741L20.041 26.0401L20.569 23.107L14.8628 22.853L17.1779 25.1981Z" fill="#CC6228" stroke="#CC6228" stroke-width="0.712817" stroke-linecap="round" stroke-linejoin="round"/>
<path d="M14.8628 22.853L17.2589 27.5231L17.1779 25.1981L14.8628 22.853Z" fill="#E27525" stroke="#E27525" stroke-width="0.712817" stroke-linecap="round" stroke-linejoin="round"/>
<path d="M27.0661 25.1981L26.9751 27.5231L29.3712 22.853L27.0661 25.1981Z" fill="#E27525" stroke="#E27525" stroke-width="0.712817" stroke-linecap="round" stroke-linejoin="round"/>
<path d="M20.5688 23.1074L20.0408 26.0405L20.7108 29.5026L20.8528 24.9445L20.5688 23.1074Z" fill="#E27525" stroke="#E27525" stroke-width="0.712817" stroke-linecap="round" stroke-linejoin="round"/>
<path d="M23.665 23.1074L23.391 24.9345L23.523 29.5026L24.193 26.0405L23.665 23.1074Z" fill="#E27525" stroke="#E27525" stroke-width="0.712817" stroke-linecap="round" stroke-linejoin="round"/>
<path d="M24.193 26.0403L23.523 29.5024L24.01 29.8374L26.9751 27.5233L27.0661 25.1982L24.193 26.0403Z" fill="#F5841F" stroke="#F5841F" stroke-width="0.712817" stroke-linecap="round" stroke-linejoin="round"/>
<path d="M17.1779 25.1982L17.2589 27.5233L20.224 29.8374L20.711 29.5024L20.041 26.0403L17.1779 25.1982Z" fill="#F5841F" stroke="#F5841F" stroke-width="0.712817" stroke-linecap="round" stroke-linejoin="round"/>
<path d="M24.254 33.025L24.284 32.081L24.031 31.8579H20.2029L19.9599 32.081L19.9799 33.025L16.7818 31.5129L17.8989 32.426L20.1729 34H24.061L26.3351 32.426L27.4521 31.5129L24.254 33.025Z" fill="#C0AC9D" stroke="#C0AC9D" stroke-width="0.712817" stroke-linecap="round" stroke-linejoin="round"/>
<path d="M24.0101 29.8379L23.5231 29.5029H20.711L20.224 29.8379L19.96 32.082L20.203 31.859H24.0311L24.2841 32.082L24.0101 29.8379Z" fill="#161616" stroke="#161616" stroke-width="0.712817" stroke-linecap="round" stroke-linejoin="round"/>
<path d="M34.2034 17.9897L35.0564 13.8476L33.7774 9.99951L24.0101 17.2487L27.7672 20.4258L33.0764 21.9798L34.2444 20.6088L33.7364 20.2438L34.5484 19.5018L33.9294 19.0147L34.7414 18.3957L34.2034 17.9897Z" fill="#763E1A" stroke="#763E1A" stroke-width="0.712817" stroke-linecap="round" stroke-linejoin="round"/>
<path d="M9.17761 13.8476L10.0406 17.9897L9.49262 18.3957L10.3046 19.0147L9.68563 19.5018L10.4976 20.2438L9.98963 20.6088L11.1577 21.9798L16.4668 20.4258L20.2239 17.2487L10.4566 9.99951L9.17761 13.8476Z" fill="#763E1A" stroke="#763E1A" stroke-width="0.712817" stroke-linecap="round" stroke-linejoin="round"/>
<path d="M33.0763 21.9791L27.7671 20.425L29.3712 22.8521L26.9751 27.5222L30.1422 27.4812H34.8533L33.0763 21.9791Z" fill="#F5841F" stroke="#F5841F" stroke-width="0.712817" stroke-linecap="round" stroke-linejoin="round"/>
<path d="M16.4667 20.425L11.1576 21.9791L9.39056 27.4812H14.1017L17.2588 27.5222L14.8627 22.8521L16.4667 20.425Z" fill="#F5841F" stroke="#F5841F" stroke-width="0.712817" stroke-linecap="round" stroke-linejoin="round"/>
<path d="M23.665 23.1072L24.01 17.249L25.543 13.0759H18.6909L20.2239 17.249L20.5689 23.1072L20.7009 24.9542L20.7109 29.5024H23.523L23.533 24.9542L23.665 23.1072Z" fill="#F5841F" stroke="#F5841F" stroke-width="0.712817" stroke-linecap="round" stroke-linejoin="round"/>
</svg>
