<svg width="1em" height="1em" viewBox="0 0 40 40" fill="none" xmlns="http://www.w3.org/2000/svg">
<g clip-path="url(#clip0_111_4652)">
<circle cx="20" cy="20" r="19.5" fill="white" stroke="#D9D9D9"/>
<circle cx="20" cy="20" r="14" fill="#5E5FF5"/>
<path fill-rule="evenodd" clip-rule="evenodd" d="M13 14.8667H10.2L17.2 27.9334L19.5333 23.5778L18.1333 20.9645L17.9 21.4L17.2 22.7067L16.5 21.4L13 14.8667ZM18.6 20.0934L19.3 21.4L20 22.7067L21.05 24.6667L22.8 27.9334L29.8 14.8667H27L23.5 21.4L22.8 22.7067L22.1 21.4L21.4 20.0934L20 17.48L18.6 14.8667H15.8L18.6 20.0934ZM24.2 14.8667L21.8666 19.2223L20.4666 16.6089L21.4 14.8667H24.2Z" fill="white"/>
</g>
<defs>
<clipPath id="clip0_111_4652">
<rect width="40" height="40" fill="white"/>
</clipPath>
</defs>
</svg>
