<svg width="1em" height="1em" viewBox="0 0 40 40" fill="none" xmlns="http://www.w3.org/2000/svg">
<g clip-path="url(#clip0_3954_10061)">
<circle cx="20" cy="20" r="19.5" fill="white" stroke="#D9D9D9"/>
<path fill-rule="evenodd" clip-rule="evenodd" d="M31.4666 19.44L33.989 19.44C33.9963 19.6258 34 19.8124 34 20C34 27.732 27.732 34 20 34C12.268 34 6 27.732 6 20C6 12.268 12.268 6 20 6C25.6017 6 30.435 9.28992 32.6731 14.043L30.2925 14.9094C28.4162 11.1231 24.5121 8.52 20 8.52C13.6598 8.52 8.52 13.6598 8.52 20C8.52 26.3402 13.6598 31.48 20 31.48C25.672 31.48 30.3833 27.3665 31.3133 21.96H28.4V19.44L31.4666 19.44Z" fill="#5E5FF5"/>
<path fill-rule="evenodd" clip-rule="evenodd" d="M13.84 15.4827H11.376L17.536 26.9813L19.5893 23.1484L18.3573 20.8487L18.152 21.232L17.536 22.3819L16.92 21.232L13.84 15.4827ZM18.768 20.0821L19.384 21.232L20 22.3819L20.924 24.1067L22.464 26.9813L28.624 15.4827H26.16L23.08 21.232L22.464 22.3819L21.848 21.232L21.232 20.0821L20 17.7824L18.768 15.4827H16.304L18.768 20.0821ZM23.696 15.4827L21.6426 19.3156L20.4106 17.0158L21.232 15.4827H23.696Z" fill="#5E5FF5"/>
</g>
<defs>
<clipPath id="clip0_3954_10061">
<rect width="40" height="40" fill="white"/>
</clipPath>
</defs>
</svg>
