<svg width="1em" height="1em" viewBox="0 0 40 40" fill="none" xmlns="http://www.w3.org/2000/svg">
<g clip-path="url(#clip0_111_4748)">
<circle cx="20" cy="20" r="19.5" fill="white" stroke="#D9D9D9"/>
<mask id="mask0_111_4748" style="mask-type:alpha" maskUnits="userSpaceOnUse" x="8" y="7" width="24" height="26">
<path d="M28.8245 18.9665C28.3354 18.8335 27.9322 18.4886 27.7123 18.0389C27.7066 18.0288 27.702 18.0175 27.6963 18.0074C27.3904 17.3864 27.505 16.655 27.9689 16.1365C28.7478 15.2642 29.2209 14.1203 29.2209 12.8681C29.2209 10.1294 26.9643 7.90918 24.1809 7.90918C21.9552 7.90918 20.0675 9.32924 19.3997 11.2982C19.1798 11.9462 18.5716 12.3824 17.8797 12.4444C12.661 12.8185 8.54541 17.1035 8.54541 22.3341C8.54541 27.5646 13.0585 32.252 18.6254 32.252C22.6276 32.252 26.0835 29.9562 27.7112 26.6303C27.9242 26.1953 28.332 25.8887 28.8062 25.7625C30.3308 25.3579 31.4545 23.9897 31.4545 22.3611C31.4545 20.7326 30.34 19.3745 28.8245 18.9654V18.9665Z" fill="#1A1A1A"/>
</mask>
<g mask="url(#mask0_111_4748)">
<path d="M31.4545 7.90918H8.54541V32.252H31.4545V7.90918Z" fill="url(#paint0_radial_111_4748)"/>
<path d="M31.4545 7.90918H8.54541V32.252H31.4545V7.90918Z" fill="url(#paint1_radial_111_4748)"/>
</g>
</g>
<defs>
<radialGradient id="paint0_radial_111_4748" cx="0" cy="0" r="1" gradientUnits="userSpaceOnUse" gradientTransform="translate(11.2879 15.2911) scale(25.9897 25.5706)">
<stop offset="0.05" stop-color="#26B0FF"/>
<stop offset="0.5" stop-color="#3463F9"/>
<stop offset="0.75" stop-color="#6938F4"/>
</radialGradient>
<radialGradient id="paint1_radial_111_4748" cx="0" cy="0" r="1" gradientUnits="userSpaceOnUse" gradientTransform="translate(20.638 8.22248) scale(8.84749 8.7048)">
<stop stop-color="#26B0FF" stop-opacity="0.7"/>
<stop offset="0.4" stop-color="#26B0FF" stop-opacity="0.4"/>
<stop offset="0.51" stop-color="#26B0FF" stop-opacity="0.28"/>
<stop offset="0.68" stop-color="#26B0FF" stop-opacity="0.13"/>
<stop offset="0.82" stop-color="#26B0FF" stop-opacity="0.04"/>
<stop offset="0.9" stop-color="#26B0FF" stop-opacity="0"/>
</radialGradient>
<clipPath id="clip0_111_4748">
<rect width="40" height="40" fill="white"/>
</clipPath>
</defs>
</svg>
