<svg width="1em" height="1em" viewBox="0 0 60 60" fill="none" xmlns="http://www.w3.org/2000/svg">
<path fill-rule="evenodd" clip-rule="evenodd" d="M54.5712 28.8L59.9764 28.8C59.9921 29.198 60 29.5981 60 30C60 46.5685 46.5685 60 30 60C13.4315 60 0 46.5685 0 30C0 13.4315 13.4315 0 30 0C42.0036 0 52.3607 7.04983 57.1566 17.2349L52.0553 19.0916C48.0347 10.978 39.6688 5.4 30 5.4C16.4138 5.4 5.4 16.4138 5.4 30C5.4 43.5862 16.4138 54.6 30 54.6C42.1543 54.6 52.2499 45.7854 54.2429 34.2H48V28.8L54.5712 28.8Z" fill="#5E5FF5"/>
<path fill-rule="evenodd" clip-rule="evenodd" d="M16.8 20.3199H11.52L24.72 44.9599L29.12 36.7466L26.48 31.8186L26.04 32.6399L24.72 35.1039L23.4 32.6399L16.8 20.3199ZM27.36 30.1759L28.68 32.6399L30 35.1039L31.98 38.7999L35.28 44.9599L48.48 20.3199H43.2L36.6 32.6399L35.28 35.1039L33.96 32.6399L32.64 30.1759L30 25.2479L27.36 20.3199H22.08L27.36 30.1759ZM37.92 20.3199L33.52 28.5333L30.88 23.6053L32.64 20.3199H37.92Z" fill="#5E5FF5"/>
</svg>
