<svg width="1em" height="0.81em" viewBox="0 0 320 260" fill="none" xmlns="http://www.w3.org/2000/svg">
<g clip-path="url(#clip0_850_2635)">
<path d="M319.034 165.649C319.034 165.326 319.039 160.099 319.039 159.786C319.037 158.782 318.39 157.845 317.224 157.133L159.747 0.660649L159.615 0.529297L2.92968 157.289C1.9312 157.975 1.38425 158.843 1.38523 159.769C1.38527 159.814 1.3938 159.857 1.39638 159.902L1.37451 167.481V167.608C1.37451 167.665 1.38163 167.719 1.38947 167.761C1.38947 167.783 1.38947 167.818 1.40206 167.859C1.41337 167.927 1.42578 167.996 1.44475 168.065L1.44584 168.065L1.4566 168.108C1.47247 168.163 1.48871 168.219 1.50823 168.275C1.51826 168.304 1.52884 168.334 1.55146 168.384C1.56697 168.422 1.58339 168.461 1.60181 168.499L1.63337 168.566C1.66384 168.626 1.69412 168.684 1.72714 168.742L1.76089 168.804C1.80303 168.867 1.84499 168.93 1.87291 168.966L1.97233 169.106L2.16243 169.332C2.19526 169.369 2.2281 169.402 2.2728 169.447L2.40725 169.577C2.44702 169.613 2.48679 169.648 2.53349 169.687C2.56195 169.711 2.59059 169.735 2.60884 169.747L2.76992 169.874C2.79127 169.89 2.81353 169.907 2.85038 169.931C2.89471 169.962 2.94159 169.995 2.9883 170.025L3.02113 170.047C3.03737 170.057 3.05379 170.069 3.06583 170.075L3.13825 170.121C3.19517 170.157 3.25336 170.194 3.31503 170.229L3.56733 170.341L155.924 258.398L156.093 258.498L156.216 258.576C156.312 258.632 156.413 258.684 156.515 258.733L156.551 258.75C156.568 258.759 156.585 258.767 156.593 258.77C156.705 258.824 156.82 258.878 156.926 258.922C156.959 258.939 156.987 258.948 156.978 258.942C157.087 258.989 157.2 259.032 157.3 259.065C157.317 259.073 157.337 259.079 157.356 259.086L157.395 259.1C157.514 259.141 157.634 259.182 157.757 259.22L157.776 259.228C157.794 259.233 157.813 259.238 157.854 259.248C157.931 259.272 158.005 259.291 158.074 259.308L158.193 259.34C158.267 259.359 158.337 259.375 158.412 259.391L158.453 259.4C158.478 259.406 158.505 259.413 158.53 259.417L158.753 259.46L158.881 259.485C158.984 259.503 159.088 259.521 159.222 259.534C159.357 259.554 159.495 259.569 159.666 259.583C159.689 259.587 159.712 259.588 159.719 259.588C159.859 259.6 159.996 259.611 160.172 259.619H160.228C160.324 259.622 160.423 259.626 160.519 259.626H160.998C161.117 259.626 161.237 259.619 161.349 259.611C161.389 259.611 161.43 259.607 161.466 259.603L161.704 259.585C161.724 259.585 161.752 259.585 161.783 259.58C161.806 259.579 161.826 259.576 161.836 259.573C161.925 259.565 162.013 259.554 162.1 259.542L162.192 259.531C162.306 259.516 162.424 259.497 162.518 259.48L162.597 259.466C162.7 259.447 162.799 259.428 162.926 259.4L163.1 259.361C163.164 259.346 163.228 259.331 163.288 259.314C163.303 259.311 163.318 259.308 163.333 259.303L163.41 259.282C163.528 259.251 163.645 259.217 163.753 259.182L163.805 259.166L164.492 258.911L164.993 258.674C165.072 258.632 165.151 258.591 165.226 258.546L165.316 258.492L165.445 258.421L317.01 170.122C318.221 169.419 319.044 168.497 319.048 167.574L319.034 165.649V165.649Z" fill="white"/>
<path d="M164.929 250.958C164.903 250.973 164.877 250.984 164.851 250.995C164.798 251.021 164.742 251.051 164.69 251.078C164.656 251.092 164.626 251.107 164.592 251.122C164.544 251.145 164.495 251.167 164.443 251.19C164.405 251.205 164.371 251.22 164.334 251.235C164.285 251.253 164.24 251.272 164.192 251.291C164.068 251.34 163.941 251.384 163.814 251.426C163.788 251.433 163.758 251.444 163.731 251.452C163.604 251.493 163.473 251.53 163.342 251.564C163.32 251.572 163.293 251.575 163.271 251.583C163.181 251.605 163.088 251.628 162.994 251.65C162.96 251.658 162.927 251.665 162.889 251.673C162.792 251.695 162.691 251.714 162.59 251.733C162.571 251.733 162.552 251.74 162.534 251.744C162.421 251.763 162.309 251.781 162.193 251.796C162.163 251.8 162.133 251.804 162.099 251.807C162.013 251.819 161.931 251.83 161.845 251.837C161.807 251.841 161.766 251.845 161.729 251.849C161.646 251.856 161.56 251.864 161.474 251.867C161.44 251.867 161.407 251.871 161.373 251.875C161.257 251.882 161.141 251.886 161.021 251.89H160.542C160.449 251.89 160.351 251.886 160.258 251.882H160.168C160.029 251.875 159.891 251.864 159.752 251.852C159.722 251.852 159.692 251.845 159.662 251.845C159.528 251.83 159.397 251.815 159.266 251.8H159.239C159.131 251.781 159.019 251.763 158.91 251.744C158.88 251.74 158.846 251.733 158.816 251.725C158.738 251.71 158.663 251.695 158.584 251.68C158.547 251.673 158.506 251.665 158.468 251.654C158.397 251.639 158.326 251.62 158.259 251.605C158.221 251.594 158.184 251.587 158.146 251.575C158.072 251.557 157.997 251.534 157.926 251.515C157.896 251.508 157.866 251.501 157.836 251.489C157.712 251.452 157.592 251.414 157.473 251.369C157.446 251.358 157.416 251.351 157.39 251.34C157.282 251.298 157.173 251.257 157.068 251.216C157.053 251.212 157.042 251.205 157.027 251.201C156.911 251.152 156.799 251.1 156.69 251.048C156.664 251.036 156.638 251.021 156.612 251.01C156.564 250.987 156.519 250.96 156.472 250.936L156.473 250.812L156.469 250.805L3.3054 162.377V162.411C3.22304 162.362 3.1407 162.314 3.06208 162.261C3.03587 162.246 3.01342 162.227 2.98721 162.212C2.93482 162.179 2.88616 162.145 2.83749 162.108C2.81129 162.089 2.78134 162.066 2.75513 162.048C2.71021 162.014 2.66904 161.98 2.62787 161.947C2.60166 161.924 2.57546 161.905 2.54925 161.883C2.50808 161.849 2.47066 161.816 2.43321 161.782C2.40701 161.756 2.37708 161.733 2.35087 161.707L2.30595 161.662C2.27225 161.628 2.23483 161.591 2.20488 161.554C2.19363 161.542 2.18242 161.527 2.17118 161.516C2.12626 161.468 2.08509 161.419 2.04766 161.37C2.04017 161.359 2.03267 161.351 2.0252 161.34C1.99525 161.303 1.96905 161.265 1.94284 161.232C1.89418 161.164 1.84926 161.101 1.81183 161.033V161.026C1.77064 160.962 1.73322 160.895 1.70326 160.831C1.69204 160.809 1.68455 160.79 1.67333 160.768C1.65087 160.723 1.63214 160.674 1.61343 160.629C1.60593 160.607 1.59471 160.584 1.58722 160.562C1.56851 160.509 1.55354 160.457 1.53856 160.404L1.52734 160.36C1.50863 160.292 1.49738 160.225 1.48617 160.157C1.48617 160.139 1.48242 160.124 1.47867 160.105C1.47118 160.053 1.46743 160.004 1.46371 159.952C1.46371 159.91 1.45996 159.869 1.45996 159.824L1.4375 167.621V167.749C1.4375 167.801 1.44497 167.85 1.45247 167.902C1.45247 167.921 1.45247 167.936 1.45996 167.955C1.47118 168.022 1.48242 168.089 1.50113 168.157V168.164L1.51235 168.198C1.52734 168.25 1.5423 168.303 1.56101 168.355C1.56851 168.378 1.576 168.4 1.58722 168.423C1.60593 168.467 1.62467 168.516 1.64712 168.561C1.6546 168.576 1.65834 168.587 1.66584 168.602C1.66584 168.61 1.67333 168.617 1.67705 168.625C1.71076 168.692 1.74445 168.756 1.78188 168.819V168.827C1.8268 168.894 1.87171 168.962 1.91663 169.025C1.92038 169.033 1.92413 169.04 1.93162 169.048L1.999 169.138C2.00647 169.149 2.01396 169.156 2.02146 169.167C2.05888 169.216 2.1038 169.265 2.14497 169.313C2.15621 169.325 2.16743 169.34 2.17867 169.351C2.21237 169.388 2.24604 169.422 2.28349 169.459L2.36584 169.542C2.3808 169.557 2.39579 169.568 2.41076 169.583C2.44818 169.617 2.48563 169.65 2.5268 169.684C2.553 169.706 2.57921 169.729 2.60541 169.748C2.64659 169.781 2.6915 169.815 2.73267 169.849C2.75888 169.867 2.78508 169.89 2.81504 169.909C2.8637 169.942 2.91609 169.98 2.9685 170.013C2.99471 170.028 3.01716 170.047 3.04337 170.062C3.12199 170.111 3.20058 170.163 3.28669 170.212V170.178L156.26 258.5L156.26 258.631H156.264L156.271 258.639C156.372 258.699 156.481 258.755 156.589 258.807C156.615 258.819 156.642 258.834 156.668 258.845C156.776 258.897 156.889 258.95 157.005 258.998C157.02 259.006 157.031 259.01 157.046 259.013C157.151 259.058 157.259 259.099 157.368 259.137C157.394 259.148 157.424 259.156 157.45 259.167C157.57 259.208 157.69 259.249 157.813 259.287C157.821 259.287 157.824 259.29 157.832 259.294C157.854 259.302 157.881 259.305 157.903 259.313C157.978 259.335 158.049 259.354 158.124 259.373C158.161 259.384 158.199 259.391 158.236 259.403C158.307 259.421 158.375 259.436 158.446 259.451C158.483 259.459 158.521 259.47 158.562 259.477C158.64 259.492 158.715 259.507 158.794 259.522C158.824 259.53 158.858 259.534 158.888 259.541C158.996 259.56 159.105 259.579 159.217 259.593H159.247C159.378 259.612 159.513 259.627 159.644 259.638C159.674 259.638 159.704 259.646 159.734 259.646C159.872 259.657 160.007 259.668 160.145 259.676H160.235C160.329 259.68 160.426 259.683 160.52 259.683H160.999C161.115 259.683 161.231 259.676 161.351 259.668C161.384 259.668 161.418 259.665 161.452 259.661C161.538 259.653 161.62 259.65 161.706 259.642C161.725 259.642 161.747 259.642 161.766 259.638C161.785 259.638 161.804 259.635 161.822 259.631C161.908 259.623 161.994 259.612 162.081 259.601L162.17 259.59C162.283 259.575 162.399 259.556 162.511 259.537H162.522L162.567 259.526C162.668 259.507 162.766 259.489 162.867 259.466C162.9 259.459 162.934 259.451 162.971 259.444C163.065 259.421 163.155 259.403 163.248 259.376C163.267 259.373 163.286 259.369 163.305 259.361C163.308 259.361 163.316 259.361 163.32 259.358C163.451 259.324 163.582 259.287 163.709 259.245C163.735 259.238 163.765 259.227 163.791 259.219C163.919 259.178 164.046 259.133 164.169 259.084H164.177L164.312 259.028L164.424 258.983L164.57 258.916L164.566 258.92L164.667 258.875C164.72 258.849 164.772 258.822 164.828 258.796C164.854 258.781 164.881 258.77 164.907 258.755C164.985 258.714 165.064 258.673 165.139 258.628L165.161 250.83C165.086 250.875 165.008 250.917 164.929 250.958Z" class="dao-neith"/>
<path d="M106.384 180.562C106.384 176.332 103.39 171.166 99.7213 169.033C96.0529 166.899 93.0208 168.621 93.0582 172.851L93.0208 188.198L106.347 195.909L106.384 180.562Z" class="dao-neith"/>
<path d="M160.997 260H160.519C160.418 260 160.314 259.996 160.214 259.992L160.172 259.992C159.973 259.984 159.833 259.973 159.689 259.961C159.703 259.96 159.657 259.96 159.613 259.953C159.455 259.941 159.31 259.925 159.169 259.904C159.045 259.892 158.936 259.874 158.829 259.855L158.459 259.784C158.435 259.78 158.402 259.772 158.369 259.765L158.327 259.755C158.253 259.739 158.177 259.722 158.098 259.701L157.977 259.669C157.911 259.653 157.83 259.632 157.744 259.605C157.709 259.598 157.682 259.59 157.658 259.582L157.62 259.568C157.52 259.538 157.397 259.496 157.273 259.454L157.227 259.437C157.206 259.43 157.178 259.42 157.152 259.409C157.076 259.385 156.965 259.342 156.854 259.295C156.823 259.286 156.79 259.272 156.756 259.255C156.671 259.221 156.548 259.164 156.43 259.106L156.351 259.069C156.243 259.017 156.132 258.96 156.028 258.899L155.734 258.721L3.39695 170.675L3.16262 170.571C3.06264 170.516 2.99904 170.476 2.93708 170.436L2.86616 170.391C2.86506 170.391 2.8413 170.376 2.81754 170.36L2.78537 170.339C2.73346 170.306 2.68283 170.271 2.63513 170.237C2.59784 170.213 2.56896 170.191 2.54136 170.17L2.37741 170.041C2.37248 170.039 2.33172 170.006 2.29151 169.972C2.24636 169.935 2.20395 169.897 2.16155 169.859L2.01222 169.715C1.95775 169.661 1.92046 169.623 1.88336 169.581L1.56789 169.183C1.54504 169.154 1.49697 169.083 1.44963 169.012L1.39772 168.919C1.36555 168.863 1.33229 168.8 1.29866 168.733L1.26302 168.658C1.24511 168.621 1.22701 168.579 1.20965 168.537L1.19045 168.544L1.10528 168.24C1.10217 168.23 1.09925 168.22 1.09632 168.209L1.08389 168.164C1.06306 168.09 1.04862 168.014 1.03582 167.939C1.02102 167.881 1.01681 167.831 1.01553 167.796C1.00676 167.741 1 167.676 1 167.607V167.48L1.02193 159.9C1.01462 159.85 1.01078 159.809 1.01078 159.768C1.0095 158.736 1.60499 157.754 2.68849 157L159.614 0L317.457 156.836C318.717 157.618 319.411 158.664 319.413 159.785C319.413 159.971 319.412 161.893 319.41 163.49L319.408 165.646L319.422 167.571C319.418 168.581 318.607 169.627 317.198 170.445L165.633 258.744L165.416 258.867C165.341 258.913 165.258 258.957 165.175 259.001L164.652 259.249L163.866 259.538C163.754 259.575 163.63 259.61 163.506 259.643L163.366 259.68C163.327 259.691 163.262 259.707 163.196 259.722L163.008 259.764C162.876 259.794 162.773 259.813 162.666 259.833L162.585 259.848C162.484 259.866 162.36 259.885 162.241 259.901L162.147 259.913C162.064 259.924 161.977 259.935 161.89 259.944C161.871 259.947 161.847 259.95 161.821 259.952C161.775 259.958 161.734 259.959 161.703 259.959L161.495 259.976C161.457 259.98 161.403 259.985 161.348 259.985C161.255 259.992 161.126 260 160.997 260ZM160.228 259.244C160.333 259.247 160.428 259.251 160.519 259.251H160.997C161.108 259.251 161.22 259.244 161.322 259.237C161.375 259.236 161.402 259.233 161.426 259.23L161.793 259.199L161.802 259.2C161.885 259.192 161.968 259.182 162.049 259.171L162.145 259.159C162.251 259.145 162.364 259.127 162.454 259.111L162.53 259.097C162.627 259.079 162.723 259.061 162.845 259.034L163.017 258.995C163.081 258.98 163.136 258.967 163.186 258.953L163.31 258.921C163.425 258.89 163.535 258.859 163.637 258.825L163.692 258.808L164.362 258.56L164.832 258.335C164.896 258.301 164.966 258.265 165.032 258.225L165.265 258.093L316.822 169.798C317.978 169.127 318.67 168.295 318.673 167.572L318.659 165.648L318.661 163.489C318.663 161.893 318.665 159.972 318.664 159.786C318.663 158.924 318.082 158.095 317.028 157.451L316.959 157.397L159.615 1.05737L3.16975 157.577L3.14143 157.597C2.23631 158.219 1.75853 158.969 1.75945 159.768L1.7631 159.805C1.76584 159.83 1.76841 159.854 1.76987 159.878L1.74867 167.607C1.74867 167.639 1.75287 167.668 1.75726 167.691L1.77133 167.797C1.77645 167.828 1.78157 167.859 1.78778 167.89L1.81959 168.016C1.83019 168.053 1.84408 168.102 1.86089 168.149C1.86985 168.175 1.8768 168.195 1.89178 168.228C1.91043 168.273 1.92322 168.304 1.93784 168.333L1.97184 168.406C1.99505 168.452 2.02247 168.504 2.05226 168.556L2.08992 168.626C2.10856 168.65 2.14475 168.705 2.16906 168.737L2.27708 168.888L2.44889 169.091C2.46954 169.114 2.49806 169.142 2.5368 169.181L2.66749 169.308C2.69637 169.333 2.73055 169.364 2.77076 169.397C2.79269 169.415 2.80987 169.43 2.82285 169.44L3.00088 169.579C3.01312 169.588 3.02884 169.6 3.05498 169.618C3.10616 169.653 3.14947 169.683 3.19224 169.711L3.22368 169.731L3.06558 170.075L3.26499 169.758L3.33755 169.804C3.39092 169.838 3.44356 169.871 3.49968 169.903L3.75447 170.016L156.111 258.074L156.416 258.26C156.491 258.303 156.584 258.35 156.677 258.395L156.756 258.433C156.793 258.451 156.83 258.469 156.867 258.486L157.126 258.597C157.225 258.64 157.328 258.679 157.419 258.71L157.523 258.748C157.632 258.785 157.747 258.825 157.866 258.861L157.942 258.884C158.033 258.911 158.099 258.928 158.161 258.943L158.289 258.977C158.356 258.995 158.421 259.009 158.49 259.024L158.953 259.117C159.046 259.133 159.14 259.149 159.26 259.161C159.403 259.182 159.534 259.196 159.697 259.209L159.751 259.215C159.886 259.226 160.018 259.237 160.189 259.244L160.228 259.244Z" fill="#1A1A1A"/>
<path d="M1.86316 169.406C1.89606 169.442 1.92896 169.476 1.97374 169.521L2.10845 169.651C2.1483 169.687 2.18814 169.723 2.23493 169.761C2.26344 169.785 2.29214 169.809 2.31042 169.822L2.47181 169.949C2.49319 169.965 2.51549 169.982 2.55241 170.006C2.59683 170.037 2.6438 170.07 2.69059 170.1L2.72349 170.122C2.73976 170.133 2.75621 170.144 2.76827 170.151L2.84084 170.196C2.89786 170.232 2.95617 170.269 3.01795 170.304L3.27073 170.417L155.915 258.641L156.085 258.741L156.208 258.819C156.304 258.874 156.406 258.927 156.508 258.976L156.544 258.993C156.561 259.002 156.578 259.01 156.586 259.013C156.698 259.067 156.813 259.121 156.92 259.165C156.953 259.182 156.98 259.192 156.972 259.185C157.081 259.232 157.194 259.275 157.294 259.309C157.312 259.316 157.331 259.323 157.35 259.33L157.389 259.344C157.509 259.385 157.629 259.426 157.752 259.464L157.772 259.471C157.789 259.477 157.808 259.482 157.849 259.492C157.927 259.516 158.001 259.535 158.07 259.552L158.189 259.584C158.263 259.603 158.333 259.619 158.408 259.635L158.449 259.644C158.475 259.651 158.501 259.657 158.527 259.661L158.75 259.704L158.878 259.729C158.982 259.747 159.086 259.765 159.22 259.779C159.355 259.798 159.493 259.814 159.665 259.828C159.688 259.831 159.711 259.833 159.718 259.833C159.858 259.844 159.995 259.855 160.172 259.863H160.228C160.324 259.867 160.424 259.871 160.52 259.871H160.999C161.119 259.871 161.239 259.863 161.351 259.856C161.392 259.856 161.432 259.852 161.469 259.848L161.706 259.83C161.726 259.83 161.755 259.83 161.786 259.825C161.809 259.824 161.829 259.82 161.839 259.818C161.928 259.81 162.017 259.799 162.103 259.787L162.195 259.775C162.309 259.76 162.428 259.741 162.523 259.725L162.601 259.71C162.705 259.691 162.804 259.672 162.931 259.644L163.105 259.605C163.17 259.59 163.233 259.575 163.293 259.558C163.309 259.555 163.324 259.552 163.339 259.547L163.416 259.526C163.534 259.495 163.651 259.461 163.76 259.426L163.812 259.409L164.5 259.154L165.002 258.917C165.081 258.875 165.16 258.834 165.235 258.789L165.326 258.734L165.455 258.663L317.307 170.197C318.52 169.493 319.344 168.569 319.348 167.644L319.334 165.716C319.334 165.392 319.34 160.155 319.339 159.842C319.337 158.836 318.689 157.897 317.52 157.183L159.613 0.28367L2.63186 157.34C1.6315 158.027 1.08351 158.897 1.08449 159.824C1.08453 159.869 1.09308 159.913 1.09566 159.958L1.07375 167.551V167.678C1.07375 167.736 1.08088 167.79 1.08874 167.832C1.08874 167.854 1.08874 167.888 1.10135 167.93C1.11268 167.999 1.12511 168.068 1.14412 168.136L1.14522 168.136L1.156 168.179C1.1719 168.235 1.18817 168.291 1.20773 168.347C1.21778 168.376 1.22838 168.406 1.25104 168.456C1.26658 168.494 1.28303 168.533 1.30149 168.571L1.33311 168.638C1.36363 168.699 1.39398 168.757 1.42706 168.814L1.46087 168.877C1.50309 168.94 1.54513 169.003 1.5731 169.039L1.67271 169.179L1.86316 169.406ZM1.69665 169.211C1.72371 169.246 1.75423 169.282 1.78475 169.316L1.83483 169.374M159.269 40.3473L103.417 98.7471L3.94726 156.553L159.614 0.812259L316.234 156.433L213.711 97.2397M159.4 226.086L159.591 41.2545L273.598 160.241M159.062 226.071L106.535 195.731L106.572 180.562C106.572 176.282 103.541 171.038 99.8155 168.871C97.9685 167.797 96.2179 167.632 94.8862 168.405C93.5682 169.171 92.8526 170.751 92.8712 172.851L92.8348 187.821L45.2566 160.348L119.863 117.266C119.766 117.951 119.714 118.674 119.71 119.433C119.673 127.868 125.626 138.184 132.98 142.43C135.1 143.659 137.151 144.279 139.006 144.279C140.296 144.279 141.492 143.978 142.548 143.372C142.572 143.359 142.593 143.342 142.616 143.329L142.638 143.366C142.65 143.359 142.662 143.352 142.674 143.345L146.045 141.382L146.045 141.381C148.591 139.886 149.993 136.811 149.993 132.723C149.993 124.379 144.17 114.202 136.958 109.855L136.967 109.85L136.686 109.689L136.679 109.685L136.592 109.635L136.589 109.637C135.942 109.272 135.303 108.966 134.673 108.713L159.165 94.5704L159.202 94.5918M106.197 180.562L106.161 195.515L93.2084 188.036L93.2456 172.849C93.2282 170.888 93.8776 169.424 95.0742 168.729C96.2848 168.026 97.9016 168.19 99.6272 169.195C103.25 171.302 106.197 176.401 106.197 180.562ZM123.898 111.093C123.971 111.051 124.046 111.014 124.12 110.975C124.177 110.946 124.232 110.915 124.289 110.887C124.382 110.842 124.477 110.802 124.572 110.762C124.619 110.742 124.666 110.721 124.713 110.702C124.815 110.662 124.918 110.625 125.022 110.59C125.059 110.577 125.097 110.565 125.135 110.553C125.251 110.517 125.367 110.482 125.486 110.452C125.493 110.45 125.5 110.448 125.508 110.446C126.064 110.307 126.648 110.236 127.256 110.236C129.044 110.236 131.031 110.84 133.092 112.035L133.093 112.035C140.344 116.2 146.213 126.369 146.175 134.706C146.158 138.686 144.803 141.648 142.362 143.048C139.909 144.454 136.643 144.12 133.168 142.106C125.917 137.92 120.048 127.75 120.085 119.435C120.102 115.455 121.457 112.492 123.898 111.093ZM133.185 111.619C131.104 110.446 129.094 109.854 127.275 109.854C127.172 109.854 127.073 109.865 126.972 109.868C126.933 109.87 126.894 109.872 126.855 109.874C126.688 109.882 126.522 109.893 126.358 109.912C126.327 109.916 126.296 109.922 126.265 109.926C126.101 109.947 125.936 109.966 125.775 109.998L127.291 109.115C129.672 107.738 132.831 108.003 136.215 109.855L133.185 111.619ZM2.23018 169.248C2.19874 169.216 2.16987 169.187 2.14099 169.155ZM2.30073 169.318L2.26546 169.283ZM2.11138 169.122L2.06678 169.07C2.04119 169.041 2.0156 169.012 1.9721 168.955L1.89296 168.847C1.86134 168.802 1.82953 168.755 1.79243 168.7L1.76684 168.654C1.73394 168.598 1.70415 168.542 1.66083 168.461L1.63798 168.407C1.62299 168.377 1.61002 168.345 1.59741 168.314L1.57803 168.268C1.57127 168.255 1.56725 168.241 1.56085 168.222C1.54348 168.173 1.52978 168.125 1.5157 168.076L1.50492 168.036C1.4881 167.975 1.47805 167.914 1.46306 167.841L1.45959 167.795C1.45392 167.755 1.44807 167.718 1.44807 167.645L1.46663 161.126C1.78546 161.704 2.27447 162.13 3.02869 162.565L156.095 250.938L156.076 258.346L3.20365 169.946L2.99145 169.849L2.93607 169.814C2.91943 169.802 2.90262 169.79 2.89311 169.785C2.85052 169.758 2.80775 169.728 2.73738 169.679C2.72349 169.671 2.71088 169.66 2.67524 169.634L2.53706 169.524C2.51732 169.51 2.49776 169.493 2.46852 169.468C2.42976 169.437 2.39504 169.406 2.36488 169.378L2.33582 169.352M164.952 258.519C164.91 258.542 164.866 258.565 164.82 258.59L164.101 258.911C163.981 258.958 163.858 259.001 163.739 259.039L163.651 259.067C163.527 259.108 163.401 259.144 163.273 259.176L163.198 259.197C163.138 259.213 163.08 259.226 163.021 259.24L162.826 259.284C162.727 259.306 162.632 259.324 162.523 259.345L162.48 259.353C162.37 259.371 162.256 259.39 162.148 259.404L162.056 259.415C161.973 259.426 161.889 259.437 161.786 259.448L161.691 259.456L161.432 259.475C161.405 259.478 161.378 259.481 161.338 259.482C161.223 259.489 161.111 259.496 160.999 259.496H160.52C160.429 259.496 160.334 259.493 160.235 259.489L160.156 259.489C160.019 259.482 159.886 259.471 159.713 259.457C159.689 259.454 159.667 259.451 159.659 259.452C159.532 259.441 159.401 259.427 159.241 259.408C159.139 259.395 159.04 259.377 158.932 259.36L158.595 259.293C158.575 259.29 158.557 259.285 158.539 259.281L158.484 259.268C158.416 259.254 158.352 259.24 158.289 259.223L158.169 259.191C158.098 259.173 158.029 259.155 157.961 259.135L157.862 259.1H157.841C157.73 259.065 157.621 259.028 157.524 258.995C157.506 258.987 157.487 258.981 157.468 258.974L157.429 258.96C157.325 258.924 157.22 258.885 157.12 258.842L157.077 258.826C156.964 258.778 156.855 258.727 156.75 258.676L156.67 258.639C156.596 258.603 156.522 258.565 156.46 258.533L156.471 251.15C156.491 251.159 156.51 251.169 156.531 251.179L156.609 251.216C156.72 251.27 156.836 251.324 156.955 251.374L157 251.39C157.105 251.432 157.215 251.473 157.316 251.511C157.334 251.519 157.353 251.526 157.407 251.545C157.53 251.591 157.654 251.63 157.77 251.665C157.804 251.677 157.838 251.687 157.878 251.697L157.966 251.721C158.01 251.733 158.056 251.746 158.092 251.755L158.414 251.833C158.455 251.846 158.499 251.854 158.549 251.864L158.772 251.907C158.809 251.916 158.851 251.925 158.878 251.929L159.642 252.031L159.685 252.035C159.707 252.037 159.729 252.04 159.737 252.039C159.877 252.051 160.018 252.062 160.168 252.07L160.265 252.07C160.357 252.074 160.451 252.077 160.542 252.077L160.575 252.077C160.627 252.078 160.68 252.081 160.732 252.081C160.788 252.081 160.844 252.078 160.9 252.077L161.049 252.077C161.118 252.074 161.189 252.07 161.259 252.067C161.295 252.065 161.332 252.064 161.368 252.062C161.378 252.062 161.386 252.062 161.396 252.061C161.422 252.058 161.448 252.055 161.482 252.055C161.57 252.051 161.657 252.043 161.747 252.035L161.86 252.024C161.942 252.017 162.019 252.007 162.119 251.994L162.217 251.982C162.327 251.968 162.433 251.95 162.54 251.933L162.629 251.916C162.731 251.897 162.833 251.878 162.927 251.856L163.001 251.838C163.075 251.822 163.147 251.804 163.219 251.787L163.35 251.756L163.389 251.746C163.433 251.734 163.474 251.721 163.518 251.708C163.584 251.69 163.65 251.671 163.716 251.651C163.737 251.644 163.761 251.639 163.781 251.632L163.833 251.616L163.831 251.613C163.844 251.609 163.856 251.604 163.869 251.6L163.871 251.604C163.939 251.582 164.004 251.557 164.07 251.533C164.119 251.516 164.169 251.499 164.217 251.481C164.231 251.475 164.245 251.471 164.259 251.466L164.517 251.362C164.565 251.341 164.609 251.321 164.651 251.301C164.704 251.277 164.755 251.251 164.807 251.225L164.929 251.166C164.944 251.159 164.958 251.153 164.973 251.146L164.952 258.519ZM273.967 160.51L274.009 160.219L214.636 98.2061L317.206 157.426C317.233 157.442 317.256 157.459 317.283 157.475L317.502 157.622L317.708 157.759C318.518 158.359 318.963 159.083 318.965 159.842C318.966 160.74 318.352 161.592 317.235 162.242L165.35 250.509L165.35 250.5L165.065 250.67C165.036 250.688 165.006 250.705 164.974 250.722C164.922 250.751 164.868 250.778 164.815 250.806C164.801 250.812 164.789 250.818 164.767 250.828L164.513 250.953C164.485 250.966 164.457 250.978 164.43 250.991C164.39 251.008 164.35 251.025 164.31 251.042L164.124 251.117C164.003 251.164 163.88 251.208 163.763 251.246L163.715 251.261L163.715 251.263C163.702 251.267 163.689 251.272 163.675 251.276L163.674 251.274C163.55 251.314 163.423 251.351 163.266 251.391C163.247 251.395 163.228 251.4 163.226 251.401L162.848 251.491C162.787 251.504 162.729 251.516 162.674 251.527C162.639 251.534 162.604 251.542 162.569 251.549C162.54 251.551 162.514 251.555 162.478 251.563C162.385 251.579 162.291 251.594 162.195 251.607L162.155 251.613L162.05 251.625C161.976 251.635 161.904 251.645 161.827 251.651L161.708 251.663C161.629 251.67 161.548 251.677 161.474 251.68C161.433 251.68 161.392 251.684 161.362 251.688C161.254 251.695 161.147 251.699 161.036 251.702L161.036 251.704L160.988 251.706L160.988 251.703H160.542C160.456 251.703 160.366 251.699 160.258 251.695L160.178 251.696C160.069 251.69 159.96 251.681 159.852 251.672C159.78 251.666 159.707 251.662 159.636 251.654L159.51 251.641C159.166 251.601 158.828 251.543 158.498 251.469L158.1 251.367C158.037 251.35 157.972 251.335 157.91 251.316C157.903 251.314 157.899 251.314 157.89 251.31C157.84 251.295 157.794 251.278 157.745 251.263C157.646 251.231 157.548 251.198 157.452 251.163C157.38 251.136 157.31 251.109 157.239 251.081C157.119 251.033 157 250.984 156.884 250.931C156.868 250.923 156.851 250.916 156.835 250.908C156.68 250.835 156.529 250.757 156.383 250.673L3.21585 162.242C2.08373 161.587 1.45973 160.729 1.45881 159.824C1.45804 159.072 1.89465 158.354 2.69183 157.759H2.74216L2.87047 157.63C2.97308 157.561 3.07726 157.492 3.19026 157.426L102.485 99.7217L44.5064 160.35L44.5085 160.349L159.24 226.596L273.967 160.51Z" fill="#1A1A1A"/>
<path d="M124.951 164.765C132.363 169.07 144.379 169.07 151.753 164.765C159.165 160.46 159.09 153.535 151.678 149.231C144.266 144.926 132.25 144.926 124.876 149.231C117.502 153.535 117.539 160.46 124.951 164.765Z" fill="#1A1A1A"/>
<path d="M132.457 139.848C134.181 140.841 135.848 141.342 137.355 141.342C138.415 141.342 139.396 141.094 140.261 140.594C142.337 139.394 143.48 136.891 143.48 133.547C143.518 126.738 138.69 118.37 132.719 114.893L132.718 114.892C129.78 113.2 127.008 112.935 124.914 114.146C122.838 115.346 121.694 117.849 121.694 121.192C121.657 128.017 126.484 136.386 132.457 139.848ZM125.101 114.47C125.908 114.004 126.825 113.772 127.821 113.772C129.261 113.772 130.865 114.257 132.531 115.216C138.399 118.633 143.143 126.855 143.106 133.546C143.106 136.752 142.029 139.14 140.073 140.27C138.099 141.411 135.461 141.146 132.644 139.523C126.776 136.122 122.032 127.9 122.069 121.193C122.069 117.988 123.146 115.6 125.101 114.47Z" fill="#1A1A1A"/>
</g>
<defs>
<clipPath id="clip0_850_2635">
<rect width="320" height="260" fill="white"/>
</clipPath>
</defs>
</svg>
