<svg width="1em" height="0.82em" viewBox="0 0 140 115" fill="none" xmlns="http://www.w3.org/2000/svg">
<g clip-path="url(#clip0_1661_40368)">
<g clip-path="url(#clip1_1661_40368)">
<path fill-rule="evenodd" clip-rule="evenodd" d="M73.2865 1.15518L77.5439 3.64197L79.1223 7.02743L77.607 10.3656V13.0517C78.4832 15.1265 77.4874 17.418 74.6573 19.0033C70.4413 21.3647 63.7333 21.302 59.6835 18.857C58.6361 18.2246 57.8692 17.493 57.3809 16.7148C58.0456 17.8105 59.2375 18.7839 60.8682 19.5236C61.8026 19.9625 62.6542 20.1924 62.6957 20.1924C62.9865 20.276 63.3811 20.3805 63.6925 20.4432C64.2565 20.5635 64.4127 20.5849 64.8668 20.6469C64.9646 20.6602 65.0762 20.6755 65.2086 20.694C65.435 20.7265 65.7368 20.7463 65.9966 20.7634C66.0705 20.7683 66.1411 20.7729 66.2055 20.7776C66.8701 20.8193 66.9532 20.8193 67.6178 20.8193C67.9915 20.8193 68.6561 20.7776 69.6115 20.673C69.6575 20.6646 69.729 20.6536 69.8215 20.6394C70.1876 20.5832 70.8841 20.4762 71.6468 20.276C72.6644 20.0043 73.3912 19.7117 73.5159 19.649C73.7651 19.5446 74.0974 19.3982 74.3258 19.2729C74.7951 19.0171 74.8778 18.9651 75.3018 18.6983L75.385 18.6459L75.3997 18.6362C75.5136 18.5612 76.0992 18.1758 76.6103 17.6219C76.8803 17.3503 77.1088 17.0786 77.2956 16.7652C77.3165 16.7233 77.3477 16.6709 77.3789 16.6186C77.41 16.5664 77.4411 16.5143 77.4618 16.4725C77.4775 16.441 77.4946 16.4073 77.5126 16.372L77.5132 16.3707C77.5902 16.2192 77.6814 16.0395 77.7318 15.8875C77.7422 15.8457 77.7577 15.7935 77.7733 15.7413C77.7889 15.689 77.8045 15.6367 77.8149 15.5948C77.8564 15.4277 77.8979 15.1978 77.9187 15.0306C77.9187 15.0176 77.9205 14.9947 77.923 14.9631C77.9314 14.8558 77.9476 14.6488 77.9277 14.3941C78.6062 21.6058 79.3743 28.7515 80.1586 35.884L103.104 49.2145V46.3371L103.944 44.6471L106.463 42.957H108.143L110.242 43.802L114.021 50.5621L114.794 56.0058L138.636 69.8572C139.708 70.48 139.713 71.4864 138.648 72.1092L72.3593 110.872C71.2967 111.495 69.5648 111.495 68.4953 110.872L1.77199 72.1092C0.702486 71.4864 0.695583 70.48 1.76049 69.8572L54.2821 39.1441L54.3548 38.4698C55.1543 31.0499 55.9657 23.5193 56.7402 14.7364C56.718 14.1868 56.8204 13.6358 57.0468 13.0993V9.52402L55.8831 7.02794L55.908 7.01772L57.4404 3.64197L57.4445 3.6396L57.4203 3.6429L61.657 1.15602L61.671 1.15873L61.6771 1.15518L67.5542 0.256592L73.2865 1.15518ZM57.5452 10.4499V12.2124C57.8266 11.8156 58.1814 11.4329 58.6091 11.0713L57.5452 10.4499ZM76.2408 11.2025C76.5825 11.5113 76.8716 11.8342 77.1085 12.1668V10.6932L76.2408 11.2025Z" fill="white"/>
<path d="M77.9187 14.2992L77.9277 14.3941C77.9253 14.3632 77.9223 14.3315 77.9187 14.2992Z" fill="white"/>
<path d="M81.8995 64.7095L81.2708 63.2365L80.431 62.814L79.1714 63.2365L77.072 64.9265L75.8353 67.884V75.3565L75.759 75.4055L75.8353 75.3776V75.3937L75.8969 75.3548C76.1491 75.261 76.4229 75.1495 76.7559 75.0084C77.1089 74.8825 77.7943 74.569 78.542 74.1515C80.2602 73.1975 81.246 72.2249 81.7672 71.6106L81.8995 71.526V64.7095Z" class="dao-neith"/>
<path d="M68.4958 110.858L1.7725 72.095V72.1085C1.74971 72.0958 1.72781 72.0823 1.70624 72.0688C1.69298 72.0603 1.67982 72.0519 1.6667 72.0442C1.65519 72.0366 1.646 72.0299 1.63449 72.0206L1.6012 71.9978L1.5678 71.9741L1.53329 71.9471C1.5241 71.9395 1.5149 71.9319 1.5057 71.9251C1.49651 71.9175 1.48728 71.9099 1.4781 71.9031L1.4436 71.8752C1.43153 71.866 1.42045 71.8558 1.40972 71.8457L1.39299 71.8313L1.37574 71.8144L1.3585 71.7983L1.3378 71.7781C1.3217 71.7612 1.30789 71.7476 1.29409 71.7316L1.278 71.7155C1.2596 71.6944 1.2412 71.6733 1.22509 71.653C1.2228 71.6479 1.2182 71.6437 1.2159 71.6412C1.21015 71.6327 1.20382 71.6251 1.1975 71.6167L1.1791 71.593C1.1584 71.5651 1.14001 71.5347 1.12161 71.5043L1.09684 71.457C1.08941 71.4434 1.08222 71.4299 1.0756 71.4164L1.06179 71.3885C1.05259 71.3682 1.04339 71.3471 1.0365 71.3285L1.02964 71.3116L1.02499 71.2989C1.0158 71.2753 1.00889 71.2525 1.00429 71.2296L0.999689 71.2111C0.992795 71.1806 0.985892 71.1502 0.98129 71.1206C0.98129 71.1139 0.98129 71.1046 0.978989 71.097L0.972094 71.0302V70.9745L0.962891 74.3908V74.4466C0.962891 74.461 0.964847 74.4753 0.966854 74.4897L0.969793 74.5134C0.969793 74.5201 0.969793 74.5294 0.972094 74.5362C0.976688 74.5666 0.983591 74.597 0.990485 74.6266V74.6317C0.990485 74.6317 0.995096 74.641 0.995096 74.6477L1.0158 74.717C1.01741 74.7238 1.02015 74.7297 1.02323 74.7373L1.02729 74.7474C1.0342 74.7677 1.04339 74.7888 1.05259 74.8074L1.0595 74.826L1.06179 74.8302L1.06409 74.8353C1.0779 74.8632 1.09399 74.8928 1.11009 74.9207C1.12849 74.9528 1.14689 74.9807 1.16759 75.0111L1.17449 75.0204L1.20439 75.0592C1.20669 75.0643 1.21129 75.0685 1.21359 75.0711C1.22968 75.0922 1.24806 75.1125 1.26644 75.1336L1.27093 75.1387L1.2826 75.1497C1.2964 75.1657 1.31249 75.1818 1.32859 75.1961L1.3654 75.2333L1.37641 75.2426L1.3838 75.2494C1.3999 75.2654 1.41599 75.2798 1.43439 75.2933L1.46889 75.3212C1.47808 75.3279 1.48727 75.3355 1.49645 75.3431C1.50564 75.3508 1.51491 75.3584 1.5241 75.3651C1.53558 75.3744 1.54712 75.3837 1.55859 75.3905C1.5715 75.4006 1.58531 75.4099 1.59945 75.4192L1.6253 75.4369L1.65749 75.4572C1.692 75.4809 1.7265 75.5012 1.7633 75.5223V75.5088L68.4767 114.266L68.4766 114.281H68.4812C68.5201 114.308 68.5626 114.33 68.6039 114.35L68.6193 114.357L68.627 114.361L68.6364 114.366L68.6537 114.374C68.7021 114.397 68.7504 114.42 68.8009 114.441L68.8102 114.444L68.8136 114.446L68.8193 114.448C68.8653 114.466 68.9114 114.485 68.9596 114.504L68.9719 114.509L68.9791 114.511L68.9964 114.517C69.0492 114.536 69.1019 114.552 69.1546 114.568L69.162 114.569L69.1752 114.574L69.1919 114.58L69.2886 114.608C69.3046 114.613 69.3207 114.617 69.3391 114.619L69.3851 114.63C69.4006 114.633 69.4162 114.636 69.4312 114.64C69.4402 114.643 69.4491 114.645 69.4585 114.646L69.4717 114.649L69.4817 114.651C69.5162 114.658 69.5485 114.666 69.5829 114.673L69.6243 114.679L69.6545 114.685L69.6711 114.688L69.767 114.703H69.7784C69.8359 114.711 69.8935 114.719 69.951 114.723L69.9737 114.725L69.99 114.728L70.1695 114.742H70.2086C70.2499 114.742 70.2911 114.744 70.3324 114.747H70.5421C70.5758 114.747 70.6095 114.744 70.6432 114.743C70.6601 114.741 70.677 114.74 70.6938 114.739C70.7076 114.739 70.7237 114.739 70.7376 114.738C70.7744 114.735 70.8112 114.733 70.8479 114.728H70.8756C70.8825 114.728 70.8917 114.728 70.8986 114.726L71.0113 114.711H71.0186L71.037 114.71L71.0503 114.707C71.101 114.7 71.1493 114.694 71.1975 114.684H71.2022C71.2022 114.684 71.2159 114.679 71.2229 114.679C71.2666 114.673 71.3102 114.663 71.354 114.654L71.3591 114.653L71.377 114.65C71.3844 114.647 71.392 114.646 71.4 114.645C71.4414 114.635 71.4805 114.626 71.5196 114.614C71.5247 114.614 71.5311 114.612 71.5378 114.61L71.5449 114.608H71.5518C71.5844 114.598 71.6163 114.589 71.6478 114.579C71.6719 114.571 71.6958 114.564 71.7197 114.557L71.7402 114.55L71.7565 114.545C71.8117 114.526 71.8668 114.508 71.9221 114.488H71.9244L71.9334 114.483L71.9464 114.478L71.9625 114.471L71.9819 114.462L72.0302 114.441L72.0449 114.434C72.0614 114.428 72.0787 114.42 72.0946 114.411L72.0992 114.418L72.121 114.407L72.1429 114.397L72.2119 114.362L72.2291 114.353L72.2464 114.344L72.3476 114.288L72.3568 110.873C72.3246 110.891 72.2901 110.909 72.2556 110.928C72.2441 110.935 72.2326 110.939 72.2211 110.944C72.198 110.955 72.1751 110.967 72.1498 110.979C72.136 110.986 72.1222 110.993 72.1061 110.998C72.0853 111.007 72.0624 111.018 72.0417 111.027C72.0256 111.034 72.0094 111.042 71.9934 111.046L71.9726 111.054L71.9623 111.058L71.9313 111.071C71.8783 111.092 71.8232 111.111 71.7657 111.129L71.7612 111.131L71.7482 111.135L71.7289 111.14C71.6737 111.159 71.6162 111.175 71.561 111.189L71.5288 111.196L71.4695 111.211L71.4092 111.227C71.4011 111.227 71.3936 111.229 71.3862 111.231L71.3731 111.234L71.3632 111.236C71.3195 111.245 71.2758 111.255 71.2344 111.261C71.2252 111.261 71.2183 111.264 71.2091 111.266C71.1662 111.274 71.1216 111.281 71.0782 111.287L71.0619 111.289C71.0504 111.289 71.0389 111.291 71.0288 111.293L71.0228 111.293L70.9124 111.308L70.8876 111.309L70.8618 111.312C70.8434 111.313 70.825 111.315 70.8066 111.317L70.7811 111.319L70.7514 111.321C70.7376 111.321 70.7215 111.321 70.7076 111.324L70.5559 111.331H70.3466C70.3052 111.331 70.2638 111.331 70.2224 111.326H70.1833C70.1235 111.324 70.0637 111.319 70.0039 111.312C69.9901 111.312 69.9786 111.309 69.9648 111.308C69.9456 111.305 69.9265 111.303 69.9073 111.301C69.869 111.297 69.8307 111.293 69.7923 111.287H69.7808C69.7325 111.277 69.6842 111.271 69.6382 111.264L69.5968 111.256L69.583 111.254L69.5652 111.25C69.5421 111.246 69.5194 111.242 69.4956 111.236L69.4817 111.233L69.4703 111.23C69.4617 111.228 69.4531 111.227 69.445 111.224C69.4151 111.217 69.3829 111.211 69.353 111.203C69.3369 111.199 69.3208 111.194 69.3024 111.192L69.2058 111.164L69.1864 111.158L69.1798 111.157L69.1667 111.152C69.114 111.136 69.0607 111.12 69.008 111.102L68.9925 111.095L68.9712 111.087C68.9229 111.071 68.8769 111.053 68.8309 111.032L68.8217 111.029L68.8125 111.025C68.7619 111.004 68.7136 110.981 68.6653 110.958C68.6538 110.954 68.6423 110.946 68.6309 110.942C68.5858 110.919 68.5408 110.895 68.4958 110.869L68.4958 110.858Z" class="dao-neith"/>
<path d="M109.172 65.5215V68.299L105.952 66.3192L109.172 65.5215Z" class="dao-neith"/>
<path d="M58.8741 11.1799L58.4462 10.8785C57.2044 11.9287 56.5339 13.171 56.4878 14.449C56.4263 16.1552 57.4808 17.823 59.5539 19.0746C61.6267 20.326 64.3631 20.9598 67.1057 20.9863C69.8486 21.0127 72.625 20.4319 74.7798 19.225C76.9331 18.0189 78.103 16.3793 78.1645 14.6763C78.2111 13.3823 77.6159 12.1105 76.4212 11.0255L76.0172 11.3416C77.1736 12.3637 77.7017 13.5286 77.6609 14.658C77.6081 16.1211 76.5974 17.6266 74.5347 18.782C72.4735 19.9365 69.788 20.5051 67.1105 20.4793C64.4326 20.4535 61.7901 19.8334 59.8131 18.6398C57.8364 17.4464 56.9387 15.9272 56.9913 14.4674C57.0321 13.3365 57.6453 12.1802 58.8741 11.1799Z" fill="#1A1A1A"/>
<path fill-rule="evenodd" clip-rule="evenodd" d="M108.289 65.677C109.927 63.3655 111.032 60.8446 111.178 58.1665H111.683C111.545 60.8115 110.511 63.2938 108.982 65.5604L108.289 65.677ZM107.271 67.007C106.902 67.4549 106.516 67.8934 106.116 68.3227C105.778 68.6852 105.43 69.0401 105.074 69.3874L105.514 69.6637C105.844 69.3393 106.168 69.0072 106.482 68.67C106.879 68.2458 107.262 67.8115 107.629 67.367L107.271 67.007ZM103.799 71.2482L103.626 70.7268C100.261 73.6835 96.4884 76.0098 93.912 77.4996C90.4371 79.5107 84.1019 81.1542 76.7478 82.2392C69.7654 83.2685 61.8976 83.789 54.7578 83.6496C54.3887 83.642 54.0215 83.6327 53.6565 83.6225C46.1764 83.4011 40.8762 84.9484 37.4398 86.559C35.7222 87.3643 34.4718 88.1839 33.6485 88.805C33.2369 89.116 32.9321 89.3771 32.7291 89.5613C32.6276 89.6534 32.5516 89.7261 32.5004 89.7768C32.4747 89.8021 32.4553 89.8224 32.442 89.8359L32.4267 89.852L32.4224 89.8562L32.4212 89.857L32.4207 89.8579C32.4207 89.8579 32.4817 89.9159 32.604 90.032C32.7264 90.1474 32.7874 90.206 32.7874 90.206L32.7878 90.2052L32.7903 90.2026L32.8022 90.19C32.8132 90.179 32.8302 90.1612 32.8534 90.1384C32.8997 90.0928 32.9706 90.0244 33.0667 89.9373C33.259 89.7632 33.552 89.5114 33.9508 89.2106C34.7483 88.6089 35.9689 87.8079 37.6525 87.0186C40.9492 85.4739 46.0268 83.9732 53.188 84.1177C53.3383 84.1211 53.4895 84.1245 53.6417 84.1287C61.0976 84.3492 69.4499 83.8279 76.8208 82.7403C84.1817 81.6553 90.5992 80.0016 94.1631 77.939C96.7043 76.4703 100.434 74.1744 103.799 71.2482Z" fill="#1A1A1A"/>
<path fill-rule="evenodd" clip-rule="evenodd" d="M103.118 49.5144L80.2709 36.241L80.3818 35.72L103.004 48.8625L103.118 49.5144ZM114.371 56.0522L138.51 70.0761C139.001 70.3609 139.19 70.6981 139.191 70.9837C139.193 71.2684 139.007 71.6048 138.521 71.8887L72.2325 110.653C71.7489 110.936 71.0968 111.085 70.4299 111.085C69.763 111.085 69.1087 110.936 68.6213 110.652L1.89812 71.8887C1.40885 71.6039 1.21935 71.2668 1.21774 70.9811C1.21612 70.6964 1.40089 70.3601 1.88705 70.0753L54.2798 39.4378L54.1975 38.8995L1.6339 69.6376C1.05517 69.9756 0.710889 70.4539 0.713887 70.9837C0.716868 71.5127 1.06557 71.9901 1.64581 72.3281L68.3691 111.091C68.9511 111.43 69.6977 111.593 70.4299 111.593C71.1619 111.593 71.9069 111.43 72.4859 111.091L138.775 72.3273C139.353 71.9893 139.698 71.511 139.695 70.9811C139.693 70.4513 139.343 69.9747 138.762 69.6367L114.567 55.5803L114.371 56.0522Z" fill="#1A1A1A"/>
<path d="M138.648 72.1082L72.3594 110.871L72.5136 114.499L138.639 75.5237C139.168 75.2136 139.695 74.8114 139.695 74.4058V70.9902C139.695 71.395 139.175 71.7998 138.648 72.1082Z" fill="#1A1A1A"/>
<path fill-rule="evenodd" clip-rule="evenodd" d="M0.719991 70.9737L1.22385 70.9746V71.016L1.22798 71.0574C1.23059 71.0718 1.2316 71.0836 1.23212 71.0912L1.23242 71.0954C1.23513 71.1098 1.23883 71.1267 1.24385 71.1487L1.24564 71.1546C1.2481 71.163 1.25056 71.174 1.25248 71.185L1.25873 71.2044L1.26523 71.2222L1.26607 71.2239L1.26756 71.2272L1.2722 71.2399C1.27566 71.2492 1.2809 71.261 1.28953 71.2805L1.30075 71.3033L1.31923 71.3388L1.34142 71.381C1.35787 71.4072 1.3691 71.425 1.38046 71.4402L1.38398 71.4453L1.39541 71.4605L1.39632 71.4613L1.41039 71.4799L1.41157 71.4808C1.4155 71.4858 1.42204 71.4934 1.42948 71.5044C1.43769 71.5146 1.44771 71.5256 1.46121 71.5416L1.4789 71.5594L1.48519 71.5661C1.4917 71.5737 1.49868 71.5813 1.51576 71.5982L1.53645 71.6193L1.53802 71.621L1.54411 71.6261L1.54499 71.627L1.56364 71.6447L1.57374 71.654L1.58544 71.6641L1.59239 71.67L1.59457 71.6717L1.60087 71.6768L1.63258 71.703C1.64446 71.7114 1.65552 71.7207 1.66324 71.7267L1.66438 71.7284L1.68428 71.7436L1.69058 71.7486L1.71645 71.7698L68.6216 110.639L68.4972 110.856H68.7476V111.298L68.7464 111.297L68.7372 114.711L2.01505 75.9475V75.9559L1.63961 75.743C1.60024 75.721 1.56144 75.6974 1.52183 75.6712L1.50227 75.6585L1.49551 75.6543L1.48791 75.6492L1.48065 75.6441L1.47935 75.6433C1.47239 75.639 1.43917 75.6171 1.4155 75.5993C1.39484 75.5858 1.37745 75.5714 1.36905 75.5647C1.35726 75.5562 1.34628 75.5469 1.3386 75.541L1.33745 75.5402L1.31126 75.5191L1.27963 75.4937C1.25644 75.476 1.23458 75.4574 1.21287 75.4362L1.18708 75.4126L1.15626 75.3813C1.13863 75.3653 1.12142 75.3484 1.10541 75.3306L1.08624 75.3112L1.07601 75.2994C1.06101 75.2825 1.04136 75.2605 1.02241 75.2368L1.0175 75.2309C1.0129 75.2258 1.00475 75.2157 0.99577 75.2022L0.994301 75.2005L0.993394 75.1996L0.978144 75.1802L0.976447 75.1777C0.971694 75.1717 0.961718 75.1599 0.951624 75.1422C0.932234 75.1143 0.912197 75.083 0.89174 75.0475C0.87371 75.0163 0.855958 74.9833 0.840439 74.952L0.838902 74.9495L0.831504 74.9343L0.829195 74.9292L0.811988 74.8946V74.8887C0.804959 74.8726 0.79788 74.8557 0.79143 74.8371L0.787559 74.8278C0.784595 74.8202 0.778573 74.8059 0.773308 74.7864L0.754682 74.7239L0.738391 74.6909V74.6554C0.733806 74.6352 0.728885 74.6115 0.724803 74.587C0.720646 74.5676 0.719244 74.5515 0.718614 74.5431L0.717968 74.5304M0.916555 75.034L0.892303 75.0484L0.89174 75.0475L0.891178 75.0467L0.916362 75.0323L0.916555 75.034ZM0.952934 75.0112L0.916362 75.0323L0.915489 75.0112H0.952934ZM1.68669 75.1717L68.2356 113.834L68.2433 111.005L2.02425 72.5336V72.5421L1.64881 72.33C1.62209 72.3148 1.58649 72.292 1.56147 72.2767C1.55091 72.27 1.54224 72.2641 1.53691 72.2615C1.51504 72.248 1.49777 72.2353 1.48389 72.2244L1.45872 72.2066C1.44804 72.1998 1.43577 72.1914 1.42314 72.1821L1.41654 72.1779L1.37846 72.1466C1.36658 72.1373 1.35553 72.1289 1.3478 72.1221L1.34665 72.1213L1.32676 72.1052L1.32047 72.101L1.28857 72.0748C1.27212 72.0621 1.25839 72.0503 1.24908 72.0418L1.2373 72.0308L1.22886 72.0232L1.22152 72.0173L1.21465 74.391V74.4434L1.21508 74.4467L1.21594 74.4527L1.21719 74.4619L1.2203 74.4882L1.22155 74.5008C1.22451 74.5194 1.22902 74.5405 1.23579 74.5701L1.23606 74.571L1.24067 74.5895L1.25562 74.6394L1.26103 74.6529L1.26378 74.6597L1.26612 74.6673C1.26806 74.6732 1.27189 74.6825 1.27775 74.6935L1.28576 74.7104L1.28971 74.7222L1.29173 74.7264L1.29368 74.7307C1.30414 74.751 1.31594 74.7729 1.32753 74.7932L1.32866 74.7949C1.33995 74.8152 1.35164 74.8329 1.36694 74.8557L1.3701 74.8583L1.38162 74.876L1.38424 74.8794L1.38514 74.8802L1.40392 74.9048L1.41228 74.9157C1.42059 74.9259 1.43063 74.9377 1.44482 74.9538L1.45108 74.958L1.4737 74.985C1.47909 74.991 1.48605 74.9986 1.49237 75.0036L1.49972 75.0095L1.53827 75.0484L1.54252 75.0526C1.54642 75.056 1.55361 75.0619 1.56176 75.0704C1.56873 75.0771 1.5757 75.0831 1.58538 75.0907L1.59168 75.0949L1.62339 75.1211C1.63526 75.1304 1.64631 75.1388 1.65404 75.1456L1.65519 75.1464L1.67507 75.1625L1.68137 75.1667L1.68669 75.1717ZM1.23672 71.1284L1.23561 71.1258L1.23672 71.1284Z" fill="#1A1A1A"/>
<path fill-rule="evenodd" clip-rule="evenodd" d="M72.6094 110.434L72.5985 114.441L72.4656 114.512C72.4501 114.52 72.435 114.528 72.4181 114.538C72.4031 114.546 72.3859 114.556 72.3686 114.566C72.357 114.572 72.3468 114.577 72.3422 114.579L72.3413 114.58L72.3383 114.582L72.3327 114.585L72.255 114.624L72.2271 114.637H72.2261L72.2113 114.645L72.0124 114.745L72.0024 114.73L71.9773 114.741H71.9661C71.9217 114.757 71.8782 114.772 71.8374 114.785H71.8356L71.8166 114.791L71.8101 114.794L71.8071 114.795L71.8013 114.796L71.7897 114.801C71.7761 114.804 71.7552 114.811 71.7319 114.817C71.6945 114.829 71.6507 114.843 71.6191 114.852L71.5859 114.861H71.5799L71.5743 114.862C71.5324 114.874 71.4921 114.883 71.4541 114.892L71.4446 114.894L71.4378 114.895L71.433 114.896L71.4318 114.897C71.426 114.898 71.4138 114.901 71.3993 114.904C71.3601 114.911 71.3152 114.921 71.2691 114.929L71.2424 114.937H71.22C71.1756 114.946 71.1323 114.952 71.0908 114.958C71.0765 114.96 71.0551 114.964 71.0302 114.965L70.9411 114.975C70.9252 114.979 70.9123 114.98 70.9045 114.981L70.8756 114.981H70.8627C70.8265 114.986 70.7912 114.988 70.7617 114.99C70.7352 114.993 70.7108 114.993 70.6991 114.993C70.6905 114.993 70.6803 114.994 70.6689 114.995C70.632 114.997 70.583 115 70.5415 115H70.3182C70.2757 114.997 70.2412 114.996 70.2081 114.996H70.1593L69.9591 114.98L69.9481 114.978L69.9412 114.977L69.9304 114.976C69.8729 114.971 69.8156 114.965 69.7585 114.956H69.7485L69.7308 114.954C69.6826 114.947 69.6328 114.939 69.5796 114.929L69.533 114.921L69.4318 114.9L69.4259 114.899L69.4201 114.898L69.4057 114.894H69.4039C69.3968 114.893 69.3841 114.89 69.3697 114.886L69.33 114.877C69.318 114.874 69.3048 114.872 69.2921 114.869C69.2607 114.864 69.2348 114.856 69.2213 114.852L69.2188 114.851L69.1237 114.824L69.1015 114.817L69.0788 114.81C69.0278 114.795 68.9715 114.777 68.9146 114.757C68.8948 114.751 68.8784 114.744 68.8675 114.74C68.8194 114.721 68.7738 114.703 68.7301 114.686L68.7171 114.681L68.7128 114.679L68.7051 114.676C68.649 114.653 68.5962 114.627 68.5501 114.605L68.5365 114.599L68.5232 114.593L68.5211 114.592L68.5154 114.589L68.506 114.584L68.4919 114.577C68.4694 114.566 68.4408 114.552 68.4103 114.535L68.2234 114.315L68.234 110.614H68.5569L68.6136 110.646C68.6579 110.67 68.6977 110.692 68.7364 110.712L68.747 110.717L68.7601 110.723L68.7623 110.724L68.7658 110.726L68.7731 110.729C68.8204 110.752 68.8609 110.771 68.9022 110.788L68.9137 110.793L68.9221 110.795L68.9337 110.801C68.9732 110.819 69.0112 110.834 69.0503 110.847L69.0955 110.864C69.1412 110.88 69.1877 110.894 69.2395 110.91L69.2458 110.912L69.2521 110.914H69.253L69.3562 110.944C69.3811 110.948 69.4019 110.954 69.4149 110.957L69.453 110.966L69.5011 110.977L69.5074 110.979L69.5115 110.979L69.5192 110.981L69.5368 110.985C69.5434 110.986 69.5519 110.989 69.5614 110.991C69.575 110.995 69.584 110.996 69.599 110.999C69.6092 111.001 69.6222 111.003 69.6415 111.007L69.677 111.013L69.6924 111.016C69.7257 111.02 69.764 111.026 69.8031 111.033H69.8118L69.8315 111.036C69.8638 111.041 69.8914 111.044 69.9249 111.048C69.9451 111.05 69.9674 111.052 69.9943 111.055L70.0057 111.057L70.0126 111.059H70.0178L70.0322 111.061C70.0841 111.066 70.1359 111.071 70.1877 111.072H70.2358L70.2496 111.074C70.2749 111.077 70.3024 111.077 70.346 111.077H70.549L70.6851 111.071C70.7088 111.068 70.7305 111.068 70.7426 111.068C70.7542 111.067 70.7668 111.066 70.7825 111.064H70.7839C70.7988 111.063 70.8166 111.061 70.8354 111.06C70.8496 111.058 70.8702 111.055 70.8927 111.055L70.9828 111.043C70.9964 111.04 71.0159 111.038 71.0388 111.036L71.042 111.035C71.0832 111.03 71.1194 111.024 71.1538 111.018L71.1683 111.015C71.1781 111.012 71.19 111.011 71.2038 111.009C71.2359 111.003 71.2707 110.996 71.3108 110.988L71.3188 110.986L71.3242 110.985L71.3289 110.984H71.3302L71.3588 110.978L71.4057 110.966H71.4068C71.4261 110.961 71.4484 110.955 71.4706 110.95L71.4788 110.947L71.4898 110.946L71.5044 110.942C71.5535 110.93 71.6027 110.916 71.6487 110.9L71.6677 110.894L71.6742 110.892L71.6771 110.892L71.6798 110.891L71.6883 110.888C71.7428 110.87 71.7905 110.854 71.8345 110.837C71.8481 110.831 71.8607 110.826 71.8691 110.823L71.8705 110.822L71.8905 110.815L71.9067 110.807L71.9225 110.803L71.9249 110.802L71.9402 110.795L71.9654 110.783L71.9665 110.783L72.0032 110.766L72.0194 110.758L72.0298 110.756L72.0366 110.752L72.0449 110.748C72.0654 110.739 72.0845 110.729 72.1079 110.717L72.1173 110.712L72.1269 110.709L72.1315 110.706L72.1365 110.704C72.1717 110.685 72.2029 110.668 72.2312 110.652L72.6094 110.434ZM68.7362 111.268L68.7285 114.13L68.7354 114.133L68.7486 114.139L68.7508 114.141L68.7542 114.141L68.7615 114.145C68.8087 114.168 68.8494 114.187 68.8906 114.204L68.9021 114.209L68.9055 114.21L68.9124 114.212C68.9586 114.231 69.0027 114.249 69.0487 114.267L69.0527 114.268C69.0645 114.273 69.0696 114.275 69.0755 114.277L69.0786 114.278C69.1153 114.291 69.1525 114.303 69.1922 114.315H69.2149L69.2635 114.337H69.2646L69.2667 114.338L69.3572 114.364L69.3668 114.367L69.3715 114.368L69.3826 114.37L69.3952 114.372L69.4392 114.382C69.4544 114.386 69.4712 114.389 69.4873 114.393L69.4936 114.395L69.4988 114.396L69.5062 114.398L69.5085 114.398L69.5363 114.404L69.6283 114.423L69.6709 114.43C69.708 114.437 69.7442 114.443 69.7845 114.449H69.7979L69.8177 114.452C69.8666 114.46 69.9153 114.466 69.9639 114.47C69.9877 114.471 70.0089 114.474 70.0209 114.476L70.1786 114.489H70.2074C70.2541 114.489 70.3004 114.491 70.3392 114.493H70.5415C70.5682 114.493 70.5896 114.492 70.6174 114.49C70.6352 114.489 70.6557 114.488 70.6818 114.486H70.7027L70.7084 114.485L70.7213 114.485C70.7593 114.482 70.7883 114.48 70.8161 114.477L70.8317 114.474H70.8668L70.9794 114.46L70.995 114.458H71.0019L71.008 114.458L71.0157 114.456C71.0659 114.449 71.1086 114.443 71.1498 114.435L71.156 114.434C71.1641 114.432 71.1758 114.43 71.1896 114.428C71.2238 114.422 71.2593 114.415 71.3015 114.406L71.3096 114.404L71.315 114.403L71.3198 114.403L71.3211 114.402L71.3518 114.396C71.3886 114.387 71.419 114.38 71.4479 114.371L71.4827 114.361H71.4857L71.5133 114.354H71.5157L71.5664 114.338C71.5871 114.332 71.6094 114.325 71.6401 114.316L71.6674 114.307L71.6753 114.305L71.6764 114.305C71.7322 114.286 71.783 114.269 71.8331 114.25L71.8433 114.246L71.8562 114.241L71.8687 114.235L71.8752 114.232L71.9302 114.208L71.9589 114.196L71.9716 114.19L72.0955 114.12L72.1032 111.276L72.0804 111.284L72.0544 111.295H72.0531L72.033 111.303L72.0226 111.307C71.9641 111.331 71.9049 111.35 71.8479 111.369C71.8341 111.374 71.8226 111.377 71.8169 111.379L71.8089 111.381L71.808 111.382C71.7451 111.402 71.6812 111.421 71.6215 111.436L71.6156 111.437L71.6098 111.438L71.5989 111.44L71.5824 111.444C71.5669 111.448 71.5503 111.452 71.5312 111.457H71.5301C71.5107 111.462 71.4884 111.468 71.4663 111.473L71.4553 111.475L71.447 111.477L71.4423 111.478H71.4411C71.4353 111.48 71.4231 111.482 71.4084 111.485C71.3672 111.494 71.3206 111.503 71.2752 111.511L71.2645 111.513L71.2627 111.513L71.2556 111.515C71.2065 111.524 71.1555 111.531 71.113 111.538L71.0969 111.54L71.0792 111.542H71.0701L71.0626 111.544L70.9275 111.561H70.9115L70.8968 111.563L70.8769 111.565C70.8631 111.566 70.8486 111.568 70.8295 111.569H70.8281C70.8106 111.571 70.7889 111.573 70.7665 111.574L70.7587 111.575H70.7415L70.7337 111.576L70.5553 111.584H70.3417C70.3065 111.584 70.2591 111.584 70.2091 111.579H70.173C70.1102 111.577 70.0474 111.572 69.9847 111.565C69.9591 111.563 69.9371 111.56 69.9276 111.558C69.9163 111.557 69.9034 111.556 69.8893 111.554C69.8542 111.551 69.8121 111.546 69.7728 111.541H69.7564L69.7331 111.535C69.6965 111.529 69.6599 111.523 69.6191 111.517L69.6002 111.514L69.5962 111.513L69.5467 111.505L69.5307 111.502C69.5062 111.497 69.4647 111.49 69.4301 111.481L69.4279 111.48L69.4202 111.479L69.4025 111.475L69.3836 111.47L69.3438 111.461C69.3286 111.458 69.3118 111.454 69.2957 111.45L69.2894 111.448L69.2832 111.447L69.2736 111.444L69.2689 111.443L69.2513 111.441L69.1254 111.404L69.1193 111.403H69.1183M69.0902 111.394C69.0388 111.378 68.9821 111.361 68.9246 111.341L68.9137 111.337L68.891 111.328C68.8367 111.31 68.7857 111.29 68.7362 111.268" fill="#1A1A1A"/>
<path d="M59.092 11.6262L61.177 12.6752L67.8951 13.9427L73.7734 12.6752L75.5999 11.625C77.7821 13.7066 77.2153 16.4166 73.9511 18.166C70.1298 20.214 64.0655 20.1513 60.4103 18.0407C57.3675 16.2836 56.9441 13.6431 59.092 11.6262Z" fill="#1A1A1A"/>
<path fill-rule="evenodd" clip-rule="evenodd" d="M82.0379 71.6803C81.5216 72.3081 80.5009 73.3534 78.6637 74.3733C77.9141 74.7925 77.2195 75.1119 76.8466 75.2454C76.4534 75.4118 76.1389 75.5378 75.8435 75.6442L75.674 75.1668C75.9584 75.0646 76.2651 74.9412 76.6579 74.7747L76.6647 74.7722L76.6718 74.7696C77.0068 74.6505 77.6786 74.3446 78.4193 73.9297C80.1956 72.9436 81.1692 71.9414 81.6497 71.3566L82.0379 71.6803Z" fill="#1A1A1A"/>
<path d="M56.7948 9.34879L57.398 10.5627L57.7971 10.6965V14.3174L57.7946 14.3352C57.7607 14.5737 57.5762 14.8036 57.296 14.8036C57.046 14.8036 56.7948 14.5991 56.7948 14.2994V9.34879Z" fill="#1A1A1A"/>
<path fill-rule="evenodd" clip-rule="evenodd" d="M77.8181 26.4781L77.7973 22.9725C77.7972 22.3863 77.5894 21.9043 77.1799 21.6684C76.7706 21.4326 76.2497 21.4937 75.7371 21.7917C75.2234 22.0904 74.774 22.5865 74.456 23.1409C74.1386 23.6944 73.9388 24.3294 73.9498 24.9191L73.9706 28.7835L73.973 28.7826L73.9728 28.7854C74.1472 28.7624 74.5344 28.6576 74.7629 28.574L74.847 28.5368C75.054 28.4454 75.399 28.2931 75.7597 28.0934C76.7566 27.5292 77.5274 26.8125 77.8181 26.4781ZM77.312 26.2613L77.2935 22.974V22.9725C77.2935 22.4933 77.1274 22.2224 76.9295 22.1084C76.7314 21.9943 76.4112 21.9854 75.9892 22.2307C75.5684 22.4754 75.1767 22.8987 74.8924 23.3944C74.6079 23.8905 74.4443 24.4355 74.4536 24.9111L74.4537 24.9146L74.4544 25.037L77.312 26.2613Z" fill="#1A1A1A"/>
<path fill-rule="evenodd" clip-rule="evenodd" d="M111.484 73.4837L109.309 70.1172L106.401 72.1444L106.66 72.5804L109.17 70.8312L110.914 73.531L111.484 73.4837ZM108.27 73.7533L107.555 73.6299L107.723 73.7989L108.27 73.7533Z" fill="#1A1A1A"/>
<path fill-rule="evenodd" clip-rule="evenodd" d="M108.289 71.2196L101.833 66.6785L106.596 72.4364L108.289 71.2196ZM110.23 71.877L111.322 73.7995H111.502L116.715 72.8809L110.23 71.877Z" fill="#1A1A1A"/>
<path fill-rule="evenodd" clip-rule="evenodd" d="M107.69 73.3185L100.974 65.3805L104.77 73.6946L110.242 76.3344L113.347 77.2014L117.35 72.5284L109.256 73.7562L107.69 73.3185ZM108.274 74.0081L109.28 75.197L110.242 75.9119L113.184 76.6149L116.08 73.234L109.224 74.2742L108.274 74.0081ZM105.152 73.3177L102.968 68.5324L108.278 74.8396L105.152 73.3177Z" fill="#1A1A1A"/>
<path fill-rule="evenodd" clip-rule="evenodd" d="M109.822 64.5041H108.982V65.3076L105.891 66.0733L105.82 66.5355L108.982 68.4799V70.4192L109.822 71.2642V64.5041ZM108.919 67.847L106.598 66.4206L108.919 65.8451V67.847Z" fill="#1A1A1A"/>
<path fill-rule="evenodd" clip-rule="evenodd" d="M104.631 44.3545C105.514 43.8395 106.814 43.8966 108.286 44.7497L108.413 44.8228L110.337 43.6987L109.967 43.4785C108.399 42.5463 106.919 42.4454 105.804 43.083L104.378 43.9158L104.376 43.9173L104.629 44.3557L104.631 44.3545ZM106.059 43.5199C106.791 43.5455 107.591 43.7846 108.411 44.2379L109.326 43.7031C108.023 43.0416 106.887 43.0499 106.059 43.5199Z" fill="#1A1A1A"/>
<path d="M113.724 56.8191L112.299 57.6522C113.288 57.0737 113.908 55.847 113.908 54.0881C113.908 50.5703 111.448 46.2655 108.411 44.5065L109.837 43.6734C112.874 45.4323 115.334 49.7371 115.334 53.255C115.334 55.0139 114.714 56.2405 113.724 56.8191Z" fill="#1A1A1A"/>
<path d="M113.724 56.8191L112.299 57.6522C113.288 57.0737 113.908 55.847 113.908 54.0881C113.908 50.5703 111.448 46.2655 108.411 44.5065L109.837 43.6734C112.874 45.4323 115.334 49.7371 115.334 53.255C115.334 55.0139 114.714 56.2405 113.724 56.8191Z" fill="#1A1A1A"/>
<path fill-rule="evenodd" clip-rule="evenodd" d="M113.81 56.7666C114.749 56.1683 115.334 54.9625 115.334 53.255C115.334 49.7371 113.37 45.4587 110.334 43.6998L108.411 44.5065C108.574 44.6008 108.735 44.7023 108.894 44.8107C111.704 46.7245 113.908 50.7588 113.908 54.0881C113.908 55.0133 113.737 55.7911 113.43 56.4049C113.153 56.958 112.341 57.3214 112.341 57.7439L113.181 57.3214C113.601 56.8989 113.782 56.7846 113.81 56.7666ZM114.239 55.6343C114.353 55.1628 114.412 54.6448 114.412 54.088C114.412 52.2191 113.762 50.1766 112.735 48.3843C111.862 46.8607 110.696 45.4828 109.375 44.5298L109.833 44.2624C111.161 45.105 112.382 46.4759 113.288 48.0577C114.25 49.7371 114.83 51.606 114.83 53.2548C114.83 54.2907 114.603 55.0784 114.239 55.6343Z" fill="#1A1A1A"/>
<path fill-rule="evenodd" clip-rule="evenodd" d="M104.388 43.9161C105.494 43.2833 106.974 43.4041 108.537 44.3101C110.103 45.2171 111.511 46.77 112.525 48.5341C113.539 50.2978 114.172 52.2973 114.16 54.1122C114.16 55.9253 113.518 57.2626 112.411 57.8959C111.306 58.5287 109.826 58.4078 108.263 57.5018L108.262 57.501C106.696 56.5827 105.294 55.0302 104.283 53.269C103.272 51.5079 102.64 49.5146 102.64 47.7006C102.64 45.887 103.282 44.5495 104.388 43.9161ZM104.637 44.3568C103.743 44.8689 103.143 45.9962 103.143 47.7006C103.143 49.4044 103.741 51.3107 104.72 53.0154C105.698 54.7198 107.043 56.199 108.515 57.0628C109.987 57.9153 111.266 57.9679 112.163 57.4552C113.057 56.943 113.656 55.8157 113.656 54.1113V54.1097C113.667 52.4069 113.07 50.4954 112.089 48.7879C111.108 47.0805 109.757 45.6016 108.285 44.7495C106.813 43.8966 105.533 43.8439 104.637 44.3568Z" fill="#1A1A1A"/>
<path fill-rule="evenodd" clip-rule="evenodd" d="M104.899 45.3308C105.815 44.8047 107.031 44.9083 108.307 45.6527C109.584 46.3975 110.729 47.6609 111.55 49.0925C112.372 50.524 112.884 52.1478 112.872 53.6274C112.86 55.1044 112.332 56.2095 111.417 56.7355C110.501 57.2616 109.285 57.1579 108.008 56.4135C106.731 55.6686 105.592 54.4049 104.774 52.9735C103.955 51.542 103.444 49.9191 103.444 48.441V48.439C103.456 46.9619 103.983 45.8569 104.899 45.3308ZM103.948 48.4421C103.948 49.8104 104.425 51.3463 105.211 52.7207C105.997 54.0954 107.078 55.285 108.261 55.9749C109.446 56.6654 110.461 56.7006 111.167 56.2952C111.873 55.8897 112.357 54.9928 112.368 53.6232C112.379 52.2561 111.902 50.7207 111.114 49.346C110.325 47.9714 109.238 46.7816 108.054 46.0914C106.87 45.4009 105.855 45.3657 105.149 45.7711C104.443 46.1765 103.959 47.0731 103.948 48.4421Z" fill="#1A1A1A"/>
<path d="M77.1078 71.4007C77.0158 71.4007 76.9238 71.3085 76.9238 71.2156V69.9895C76.9238 69.8965 77.0158 69.8036 77.1078 69.8036C77.1998 69.8036 77.2918 69.8965 77.2918 69.9895V71.2156C77.2918 71.3085 77.2228 71.4007 77.1078 71.4007Z" fill="#1A1A1A"/>
<path fill-rule="evenodd" clip-rule="evenodd" d="M67.5549 0L73.3719 0.911939L77.6702 3.42273L77.5438 3.64201L77.7719 3.53427L79.3997 7.02604L77.7813 10.5913L73.4343 13.1429L67.5544 14.0549L61.654 13.143L57.2872 10.5923L55.6258 7.02882L57.2443 3.46354L61.5916 0.91177L67.5549 0ZM77.3492 3.82141L73.2008 1.39824L67.5539 0.513008L61.7623 1.3985L57.6362 3.82048L56.1811 7.02604L57.6765 10.2335L61.8246 12.6564L67.5543 13.5419L73.263 12.6565L77.3894 10.2345L78.8446 7.02882L77.3492 3.82141Z" fill="#1A1A1A"/>
<path fill-rule="evenodd" clip-rule="evenodd" d="M67.806 0.261342L67.3022 0.250863L67.2712 1.76437L66.6741 1.28237L67.0319 1.93345L61.7045 0.906932L61.6097 1.4049L65.9435 2.23994L57.387 3.39144L57.4538 3.89397L65.5754 2.80103L55.7886 6.79296L55.978 7.26279L66.0196 3.16684L57.3039 10.2157L57.6195 10.6109L66.6833 3.28066L61.5182 12.7781L61.9601 13.0215L67.2644 3.26841L67.3023 13.7993L67.8062 13.7974L67.7682 3.2728L73.128 13.023L73.5689 12.7776L68.3512 3.28598L77.4275 10.6112L77.7428 10.2157L69.0146 3.1714L79.0275 7.26287L79.217 6.79313L69.4506 2.80238L77.5102 3.89372L77.5774 3.39127L69.0634 2.23834L73.3341 1.40355L73.238 0.905834L68.4665 1.83848L69.0072 1.40118L67.7723 1.90489L67.806 0.261342Z" fill="#1A1A1A"/>
<path d="M67.6817 76.9573C67.2905 76.9573 66.9342 76.9458 66.5664 76.9342C65.9546 76.9326 65.228 76.8682 65.0185 76.8484C64.927 76.8393 64.8176 76.8261 64.7032 76.8121C64.556 76.7947 64.4014 76.7766 64.2726 76.765C63.8048 76.7221 63.1659 76.614 62.7124 76.5315C60.9328 76.2336 59.4009 75.6956 58.9741 75.5371C58.3447 75.292 57.8505 75.0998 57.0194 74.6921C56.8238 74.6046 56.5925 74.4974 56.415 74.3868C56.2178 74.282 55.9586 74.1211 55.7154 73.9692L55.3804 73.7629C55.0631 73.5707 54.6965 73.2851 54.3775 73.0334C54.2934 72.9724 54.0605 72.7991 53.899 72.6382C53.5955 72.4055 53.2507 72.016 53.0744 71.8064C52.8267 71.5076 52.5524 71.1676 52.3876 70.8986L52.3334 70.8186C52.2514 70.6981 52.1588 70.5619 52.1005 70.4258C52.0628 70.3441 52.0157 70.2492 51.9669 70.151C51.8623 69.9406 51.752 69.7169 51.6794 69.5131C51.6552 69.4298 51.6306 69.3555 51.606 69.282C51.5785 69.1987 51.5511 69.1153 51.5289 69.0378C51.4629 68.7712 51.3985 68.4073 51.3563 68.1292C51.3309 67.9766 51.2907 67.4955 51.3333 67.002C52.1813 56.2867 53.115 47.6203 54.104 38.4448C54.9085 30.9783 55.7401 23.2577 56.5257 14.2976L57.0284 14.3198V14.8005C57.1067 16.55 58.5439 18.1913 60.9714 19.2926C61.8673 19.7134 62.6558 19.928 62.7296 19.9416C63.0495 20.0303 63.4361 20.133 63.7416 20.1945C64.2997 20.3138 64.4514 20.3344 64.9016 20.3954L65.2428 20.4425C65.4646 20.4743 65.759 20.4936 66.0124 20.5102L66.2232 20.5246C66.8776 20.5659 66.9621 20.5659 67.6173 20.5659C67.8584 20.5659 68.4341 20.5469 69.5835 20.4206L69.7819 20.3888C70.1489 20.3323 70.8316 20.2275 71.5824 20.0307C72.5714 19.7666 73.2882 19.4799 73.403 19.4221C73.6097 19.335 73.9664 19.1811 74.2051 19.0499C74.6659 18.7991 74.7496 18.7467 75.1613 18.4871L75.2507 18.431C75.6984 18.1352 76.1118 17.7894 76.4258 17.4494C76.7178 17.1544 76.9179 16.9052 77.0795 16.6345C77.0934 16.6048 77.127 16.5471 77.1615 16.4897C77.1893 16.4427 77.218 16.3961 77.2369 16.3585L77.2902 16.2529C77.3607 16.1126 77.446 15.9476 77.4928 15.8073C77.4977 15.7813 77.5149 15.7248 77.5313 15.6682C77.5461 15.6204 77.56 15.5725 77.5699 15.5341C77.6092 15.3749 77.6486 15.1574 77.6683 14.9994L77.6674 15.0027L77.6715 14.9425C77.6789 14.8443 77.6945 14.6524 77.6765 14.4197C77.674 14.3875 77.6707 14.3549 77.6674 14.3231L78.1685 14.2712C78.1726 14.3071 78.1759 14.343 78.1792 14.3776C79.0091 23.1987 79.9891 32.0651 80.9363 40.6403C81.8827 49.2031 82.861 58.0584 83.6901 66.8609C83.7156 66.9401 83.7156 67.0202 83.7156 67.087V67.276C83.7156 67.3659 83.7131 67.4418 83.7205 67.4839L83.6081 67.5037L83.7771 67.5681C83.7549 67.8256 83.7131 68.1689 83.6705 68.4247C83.6303 68.6871 83.5442 69.0724 83.4253 69.358C83.3006 69.6889 83.162 70.0355 83.016 70.2863C82.875 70.552 82.6413 70.9176 82.4395 71.1883C82.3452 71.317 82.2468 71.4507 82.1172 71.6009L81.6752 71.435L81.6539 65.1651C81.6539 64.3201 81.3816 63.697 80.8871 63.4107C80.3918 63.1235 79.7136 63.1994 78.9796 63.6285C77.3763 64.5635 76.0724 66.837 76.0724 68.6962L76.0937 75.3201L75.9256 75.5602C75.568 75.6865 75.2531 75.7929 74.8341 75.9184C74.4839 76.0356 73.973 76.1717 73.3218 76.3203C73.098 76.3822 72.7773 76.4473 72.5419 76.4894C72.0606 76.5744 71.434 76.6801 70.9739 76.742L70.7931 76.7609C70.4339 76.7997 69.6864 76.8806 68.6687 76.9326C68.305 76.9507 67.9827 76.9573 67.6817 76.9573ZM56.8582 16.2463C56.123 24.4105 55.3522 31.5642 54.6047 38.4993C53.6165 47.6711 52.6828 56.3345 51.8352 67.0441C51.7938 67.5301 51.8402 67.9667 51.8537 68.0484C51.8947 68.3165 51.955 68.6623 52.0157 68.9074C52.0337 68.9693 52.0587 69.046 52.0841 69.122C52.1108 69.202 52.1374 69.2829 52.1588 69.358C52.2203 69.5288 52.322 69.7318 52.4175 69.9241C52.4688 70.0272 52.5184 70.1271 52.561 70.2195C52.6061 70.3259 52.6836 70.4357 52.7492 70.5322L52.8124 70.6263C52.9846 70.9069 53.3057 71.2939 53.4602 71.4804C53.5906 71.6355 53.9289 72.0242 54.2303 72.2569C54.348 72.3725 54.5075 72.5028 54.6801 72.6274C54.9958 72.8775 55.3481 73.1515 55.6396 73.3281C55.7438 73.3908 55.8602 73.4634 55.9808 73.5385C56.2145 73.6837 56.463 73.8389 56.6663 73.9478C56.8316 74.0501 57.0448 74.1483 57.2326 74.2333C58.0519 74.6344 58.5374 74.8233 59.152 75.0635C59.5645 75.2153 61.0587 75.741 62.7989 76.0323C63.2459 76.114 63.8687 76.2188 64.3173 76.26C64.4494 76.2716 64.6101 76.2905 64.7626 76.3087L65.0669 76.3434C65.4859 76.383 66.0875 76.4259 66.5168 76.4259L66.582 76.4275C67.2221 76.4473 67.8264 76.4655 68.6437 76.4259C69.647 76.3747 70.3847 76.2955 70.7394 76.2575L70.9169 76.2386C71.3602 76.1783 71.9802 76.0743 72.4542 75.9902C72.6756 75.9506 72.9782 75.8887 73.1996 75.8284C73.8459 75.6807 74.3404 75.5495 74.6824 75.4356C75.0317 75.33 75.3048 75.2401 75.5894 75.141L75.5689 68.697C75.5689 66.6422 76.9556 64.2235 78.727 63.1895C79.6234 62.6672 80.4795 62.5896 81.1389 62.9717C81.7958 63.3521 82.1574 64.1311 82.1574 65.1643L82.1763 70.6866C82.3329 70.4588 82.4789 70.222 82.5765 70.0388C82.7257 69.7813 82.8824 69.3687 82.9578 69.1698C83.0439 68.9619 83.1276 68.6409 83.1727 68.3438C83.2063 68.1466 83.2383 67.899 83.2604 67.682C83.212 67.5846 83.212 67.4452 83.212 67.276V67.087C83.212 67.0606 83.2137 67.0342 83.2096 67.0127L83.1915 66.9434C82.3624 58.1335 81.3833 49.2691 80.4361 40.6964C79.5536 32.7113 78.6434 24.4745 77.8512 16.2546C77.8134 16.3363 77.7741 16.4134 77.7388 16.4831L77.6871 16.5855C77.6634 16.6333 77.6289 16.6919 77.5937 16.7505C77.5658 16.7967 77.5387 16.8425 77.5198 16.8792C77.3304 17.199 77.1008 17.4866 76.7883 17.801C76.4537 18.1637 76.0084 18.5371 75.5394 18.8465L75.4286 18.9171C75.0047 19.184 74.9194 19.2377 74.4454 19.4956C74.2001 19.6301 73.8565 19.7807 73.6122 19.883C73.4834 19.9486 72.7297 20.249 71.7112 20.5209C70.9338 20.7251 70.2338 20.8324 69.8578 20.8902L69.6557 20.9223C68.7687 21.0201 68.0512 21.0725 67.6173 21.0725C66.9482 21.0725 66.8621 21.0725 66.1896 21.0305L65.9792 21.0164C65.7135 20.9987 65.4043 20.9781 65.1727 20.9446L64.834 20.898C64.3825 20.8365 64.2136 20.8134 63.6395 20.6909C63.3254 20.6273 62.9232 20.5213 62.6263 20.4363C62.3709 20.3835 61.5561 20.1268 60.761 19.7534C58.8092 18.8676 57.4524 17.6335 56.8582 16.2463Z" fill="#1A1A1A"/>
<path d="M60.9281 12.4247L61.177 12.6752L61.9303 12.9279V18.8974C61.9303 19.0432 61.8689 19.1717 61.7834 19.2625C61.6995 19.3516 61.5744 19.4226 61.4292 19.4226C61.1792 19.4226 60.9281 19.218 60.9281 18.9183V12.4247Z" fill="#1A1A1A"/>
<path d="M66.8265 13.7251L67.4752 13.9427H67.8288V20.0477C67.8288 20.3475 67.5776 20.552 67.3277 20.552C67.0777 20.552 66.8265 20.3475 66.8265 20.0477V13.7251Z" fill="#1A1A1A"/>
<path d="M72.7028 13.0977H73.3536L73.7051 12.8619V18.8974C73.7051 19.1564 73.514 19.4226 73.2039 19.4226C72.9539 19.4226 72.7028 19.218 72.7028 18.9183V13.0977Z" fill="#1A1A1A"/>
<path d="M76.8565 10.8403V14.2993C76.8565 14.5991 77.1077 14.8036 77.3577 14.8036C77.6379 14.8036 77.8224 14.5736 77.8564 14.3352L77.8589 14.3173V9.5881L77.1325 10.5627L76.8565 10.8403Z" fill="#1A1A1A"/>
<path d="M67.5137 4.33136C69.108 4.33136 70.4004 3.63904 70.4004 2.7849C70.4004 1.93085 69.108 1.23853 67.5137 1.23853C65.9194 1.23853 64.627 1.93085 64.627 2.7849C64.627 3.63904 65.9194 4.33136 67.5137 4.33136Z" class="dao-neith"/>
<path fill-rule="evenodd" clip-rule="evenodd" d="M65.5908 1.91554C65.1006 2.17809 64.8789 2.49767 64.8789 2.78523C64.8789 3.07287 65.1006 3.39246 65.5908 3.655C66.0701 3.91172 66.7494 4.07819 67.5137 4.07819C68.2779 4.07819 68.9573 3.91172 69.4365 3.655C69.9267 3.39246 70.1485 3.07287 70.1485 2.78523C70.1485 2.49767 69.9267 2.17809 69.4365 1.91554C68.9573 1.65883 68.2779 1.49236 67.5137 1.49236C66.7494 1.49236 66.0701 1.65883 65.5908 1.91554ZM65.354 1.46802C65.9196 1.165 66.6836 0.985352 67.5137 0.985352C68.3437 0.985352 69.1077 1.165 69.6733 1.46802C70.228 1.76513 70.6523 2.21882 70.6523 2.78523C70.6523 3.35173 70.228 3.80542 69.6733 4.10252C69.1077 4.40554 68.3437 4.58519 67.5137 4.58519C66.6836 4.58519 65.9196 4.40554 65.354 4.10252C64.7994 3.80542 64.375 3.35173 64.375 2.78523C64.375 2.21882 64.7994 1.76513 65.354 1.46802Z" fill="#1A1A1A"/>
</g>
</g>
<defs>
<clipPath id="clip0_1661_40368">
<rect width="140" height="115" fill="white"/>
</clipPath>
<clipPath id="clip1_1661_40368">
<rect width="140" height="115" fill="white"/>
</clipPath>
</defs>
</svg>
