<svg width="1em" height="0.82em" viewBox="0 0 140 115" fill="none" xmlns="http://www.w3.org/2000/svg">
<g clip-path="url(#clip0_1661_40380)">
<path d="M138.897 54.9027C139.977 55.5299 139.982 56.5459 138.909 57.1705L72.1533 96.2082C71.0833 96.8353 69.3392 96.8353 68.2622 96.2082L1.06866 57.173C-0.00834951 56.5459 -0.0152924 55.5299 1.05707 54.9053L67.8129 15.8672C68.8853 15.2403 70.627 15.2403 71.704 15.8672L138.897 54.9053L138.897 54.9027Z" fill="white"/>
<path d="M109.306 39.7913L109.256 54.7113L70.4573 32.1661L70.5079 17.246L109.306 39.7913Z" fill="white"/>
<path d="M70.5079 17.246L70.4573 32.1661L31.9107 54.7113L31.9359 39.7913L70.5079 17.246Z" fill="white"/>
<path d="M70.7599 62.3365L70.7094 77.2535L31.9107 54.7113L31.9359 39.7913L70.7599 62.3365Z" fill="white"/>
<path d="M109.306 39.7913L109.255 54.7113L70.7094 77.2535L70.7599 62.3365L109.306 39.7913Z" fill="white"/>
<path d="M44.3767 28.9537L69.4887 15.0938L70.3945 17.3236L31.9466 39.7983L44.3767 28.9537Z" fill="white"/>
<path d="M69.6992 15.0938L94.6671 29.207L109.305 39.7983L70.6062 17.3236L69.6992 15.0938Z" fill="white"/>
<path d="M53.3304 59.2372L53.3051 59.8439L38.4777 51.2307V50.618L53.3304 59.2372Z" fill="white"/>
<path d="M56.3363 57.4571V58.0647L53.3051 59.8439L53.3304 59.2372L56.3363 57.4571Z" fill="white"/>
<path d="M56.311 57.4793L53.3052 59.2357L38.4525 50.5663L41.4585 48.8147L56.311 57.4793Z" fill="white"/>
<path d="M45.5502 72.912V73.5222L30.6975 64.9055V64.2929L45.5502 72.912Z" fill="white"/>
<path d="M48.5813 71.1536V71.7662L45.5501 73.52V72.9099L48.5813 71.1536Z" fill="white"/>
<path d="M48.5561 71.182L45.5249 72.9332L30.6723 64.2434L33.6782 62.4896L48.5561 71.182Z" fill="white"/>
<path d="M48.1267 68.3572V68.9699L33.2993 60.3507V59.7432L48.1267 68.3572Z" fill="white"/>
<path d="M51.1575 66.5789V67.1908L48.1267 68.9699V68.3572L51.1575 66.5789Z" fill="white"/>
<path d="M51.1327 66.6068L48.1016 68.358L33.2489 59.6929L36.2801 57.9366L51.1327 66.6068Z" fill="white"/>
<path d="M50.7285 63.7826V64.4183L35.9011 55.7761V55.1685L50.7285 63.7826Z" fill="white"/>
<path d="M53.7592 62.0309V62.6385L50.7285 64.4183V63.7826L53.7592 62.0309Z" fill="white"/>
<path d="M53.7345 62.0543L50.7033 63.8107L35.8507 55.1175L38.8819 53.3611L53.7345 62.0543Z" fill="white"/>
<path d="M68.2628 96.1947L1.06918 57.1595V57.1731C1.03213 57.1518 0.997389 57.1289 0.962641 57.1076C0.951064 57.1008 0.941796 57.094 0.930219 57.0846L0.863048 57.0378L0.828309 57.0097C0.80978 56.9961 0.791252 56.9799 0.772724 56.9655L0.737976 56.9374C0.719448 56.9238 0.703236 56.9076 0.687025 56.8931C0.67544 56.8821 0.663863 56.8727 0.652286 56.8608L0.63144 56.8395C0.615221 56.8234 0.601326 56.8098 0.587432 56.7936L0.571213 56.7766C0.552684 56.7561 0.534156 56.7349 0.517945 56.7145C0.515628 56.7093 0.510994 56.7051 0.508685 56.7025C0.4971 56.6864 0.483205 56.6693 0.47162 56.6532C0.450775 56.6251 0.432246 56.5953 0.413718 56.5647C0.397507 56.5323 0.381296 56.5043 0.367393 56.4762L0.353499 56.4481C0.344239 56.4277 0.334971 56.4064 0.328019 56.3877C0.323394 56.3783 0.321077 56.369 0.316442 56.3571C0.307174 56.3341 0.300231 56.3111 0.295597 56.2873C0.295597 56.2805 0.290963 56.2762 0.290963 56.2686C0.284012 56.2388 0.277069 56.2081 0.272435 56.1784C0.272435 56.1707 0.272435 56.1613 0.270117 56.1545L0.263166 56.0873V56.0312L0.253906 59.4732V59.5294C0.253906 59.5524 0.25854 59.5736 0.260858 59.5975C0.260858 59.6043 0.260858 59.6136 0.263166 59.6204C0.2678 59.6511 0.274752 59.6808 0.281703 59.7115V59.7157C0.281703 59.7157 0.286329 59.7251 0.286329 59.7319L0.307174 59.8025C0.309491 59.811 0.314125 59.8204 0.31876 59.8323C0.325702 59.8536 0.334971 59.874 0.344239 59.8927L0.351182 59.9114L0.355816 59.9208C0.36971 59.9489 0.38593 59.9795 0.402141 60.0076C0.420669 60.0399 0.439198 60.068 0.460043 60.0978L0.466994 60.1072C0.476254 60.1216 0.48784 60.1327 0.4971 60.1472L0.506368 60.1591C0.522579 60.1795 0.541107 60.2008 0.559636 60.222C0.56427 60.2263 0.568904 60.2331 0.575847 60.2382C0.589749 60.2544 0.605961 60.2705 0.622172 60.2842L0.643017 60.3054L0.659229 60.3216C0.66618 60.3293 0.673131 60.3335 0.680074 60.3378C0.696285 60.3548 0.712505 60.3684 0.731033 60.3829C0.74261 60.3914 0.754195 60.4007 0.765772 60.4101C0.784301 60.4246 0.802829 60.4407 0.821357 60.4543C0.832943 60.4637 0.84452 60.4731 0.856105 60.4807C0.876951 60.4969 0.900105 60.5105 0.923267 60.5267C0.934853 60.5343 0.944113 60.5412 0.955698 60.548C0.990438 60.5709 1.02518 60.5922 1.06224 60.6135V60.599L68.2558 99.635L68.265 96.1921L68.2628 96.1947Z" class="dao-neith"/>
<path d="M71.894 99.7788C71.908 99.772 71.9241 99.7652 71.9381 99.7584L72.0075 99.7227C72.0191 99.7159 72.0307 99.7116 72.0423 99.7048C72.077 99.6861 72.1094 99.6674 72.1441 99.6487L72.1535 96.2066C72.121 96.2245 72.0863 96.2432 72.0515 96.2619C72.04 96.2687 72.0284 96.2738 72.0168 96.2781C71.9936 96.29 71.9705 96.3019 71.945 96.3138C71.9311 96.3206 71.9172 96.3274 71.9009 96.3317C71.8801 96.3411 71.857 96.353 71.8362 96.3623C71.8199 96.3691 71.8037 96.376 71.7875 96.3811C71.7666 96.3904 71.7458 96.3972 71.725 96.4066C71.6717 96.4278 71.6161 96.4466 71.5582 96.4653C71.5466 96.4696 71.535 96.4721 71.5211 96.4764C71.4655 96.4951 71.4077 96.5113 71.352 96.5257L71.3196 96.5325C71.2802 96.5419 71.2385 96.5538 71.1992 96.5632C71.183 96.5649 71.1691 96.57 71.1529 96.5725C71.1088 96.581 71.0648 96.5904 71.0231 96.5981C71.0139 96.5981 71.0069 96.5998 70.9977 96.6023C70.9491 96.6117 70.8981 96.6185 70.8494 96.6261C70.8356 96.6261 70.8216 96.6278 70.81 96.6304C70.773 96.6346 70.736 96.6397 70.6989 96.644C70.6827 96.644 70.6642 96.6465 70.6479 96.6491C70.6109 96.6516 70.5738 96.6559 70.5367 96.6585C70.5229 96.6585 70.5066 96.6585 70.4928 96.661C70.4418 96.6627 70.3908 96.6653 70.3399 96.6678H70.1291C70.0874 96.6678 70.0457 96.6678 70.004 96.6627H69.9646C69.9044 96.661 69.8442 96.6559 69.784 96.6491C69.7701 96.6491 69.7586 96.6466 69.7447 96.644C69.6868 96.6372 69.6288 96.6329 69.5709 96.6236H69.5593C69.5107 96.6142 69.4621 96.6074 69.4157 96.5998C69.4019 96.5981 69.388 96.5955 69.374 96.5929C69.3394 96.5861 69.3069 96.581 69.2721 96.5725C69.256 96.5674 69.2374 96.5649 69.2212 96.5606L69.1285 96.5393C69.1123 96.5351 69.0962 96.53 69.0776 96.5283L68.9803 96.5002C68.9664 96.4951 68.9548 96.4925 68.941 96.4883C68.8877 96.4721 68.8344 96.4559 68.7811 96.4372C68.7696 96.4321 68.758 96.4279 68.7441 96.4228C68.6954 96.4066 68.6491 96.3879 68.6028 96.3674L68.5843 96.3598C68.5333 96.3394 68.4847 96.3156 68.436 96.2926C68.4244 96.2875 68.4129 96.2807 68.4013 96.2764C68.3549 96.2526 68.3087 96.227 68.2623 96.2015H68.2554L68.2461 99.6393H68.2508C68.2947 99.6699 68.3434 99.6929 68.3897 99.7159C68.4013 99.721 68.4129 99.7278 68.4244 99.7321C68.4731 99.7559 68.5217 99.7789 68.5727 99.8001L68.5912 99.8069C68.6376 99.8257 68.6839 99.8444 68.7325 99.8631C68.7441 99.8674 68.7557 99.8725 68.7696 99.8767C68.8228 99.8954 68.8761 99.9116 68.9294 99.9286H68.9363C68.9363 99.9286 68.9571 99.9371 68.9664 99.9397L69.0637 99.9678C69.0799 99.9729 69.0962 99.9771 69.1147 99.9797C69.1448 99.9865 69.1772 99.9933 69.2073 100C69.2235 100.005 69.2397 100.008 69.2583 100.012C69.293 100.019 69.3254 100.026 69.3602 100.033L69.4019 100.04C69.4505 100.049 69.4968 100.056 69.5455 100.063H69.557C69.615 100.072 69.6729 100.08 69.7307 100.084C69.7447 100.084 69.7562 100.087 69.7701 100.089C69.8304 100.094 69.8906 100.098 69.9508 100.103H69.9902C70.0319 100.103 70.0736 100.106 70.1152 100.107H70.326C70.377 100.107 70.4279 100.103 70.4789 100.101C70.4928 100.101 70.509 100.101 70.5229 100.098C70.5599 100.096 70.597 100.094 70.634 100.089H70.6618C70.6688 100.089 70.678 100.089 70.685 100.087C70.7221 100.082 70.7614 100.078 70.7985 100.072C70.8124 100.072 70.8263 100.071 70.8379 100.068C70.8889 100.061 70.9375 100.054 70.9861 100.044H70.9908C70.9908 100.044 71.0046 100.04 71.0116 100.04C71.0556 100.033 71.0996 100.024 71.1436 100.015C71.1598 100.012 71.1737 100.008 71.1899 100.005C71.2316 99.9958 71.271 99.9865 71.3103 99.9746C71.3173 99.9746 71.3266 99.9703 71.3359 99.9678H71.3428C71.4006 99.9516 71.4563 99.9329 71.5118 99.9167C71.5234 99.9116 71.535 99.9099 71.5489 99.9048C71.6045 99.8861 71.6601 99.8673 71.7157 99.8469H71.718C71.7388 99.8376 71.7573 99.8299 71.7759 99.8214C71.7921 99.8137 71.8083 99.8069 71.8246 99.8001C71.8454 99.7908 71.8685 99.7814 71.8894 99.7695L71.894 99.7788Z" class="dao-neith"/>
<path d="M77.5746 31.87L74.7432 33.5061L61.8248 26.0758L64.6562 24.4167L77.5746 31.87Z" class="dao-neith"/>
<path d="M70.2104 96.9299C69.4597 96.9299 68.7082 96.7629 68.1351 96.4288L0.941862 57.3936C0.336525 57.0413 0.00330334 56.5576 0.00330334 56.0325C0.00330334 55.5114 0.332398 55.0319 0.929887 54.6838L67.6854 15.6461C68.8449 14.968 70.6667 14.9667 71.8315 15.6456L139.025 54.6813C139.63 55.0336 139.964 55.5164 139.964 56.0416C139.965 56.5626 139.635 57.0421 139.036 57.3911L72.2807 96.4288C71.7109 96.7629 70.9611 96.9299 70.2104 96.9299ZM69.7566 15.649C69.098 15.649 68.4406 15.7952 67.9406 16.0873L1.18466 55.1258C0.749856 55.3785 0.510366 55.7009 0.510772 56.0325C0.510772 56.3682 0.753982 56.6939 1.1958 56.9515L68.389 95.9868C69.3949 96.5726 71.0255 96.5726 72.0256 95.9876L138.782 56.9491C139.217 56.6956 139.457 56.3732 139.457 56.0416C139.457 55.7292 139.244 55.4242 138.856 55.1757L71.5771 16.0877C71.075 15.7952 70.4152 15.649 69.7566 15.649Z" fill="#1A1A1A"/>
<path d="M138.908 57.1727L72.1529 96.2112L72.2659 99.872L138.899 60.6156C139.432 60.3033 139.964 59.8974 139.964 59.4898V56.0477C139.964 56.4553 139.439 56.8629 138.908 57.1727Z" fill="#1A1A1A"/>
<path d="M68.1289 99.8562L0.94682 60.8268L0.93526 60.8343C0.893147 60.8102 0.853917 60.7861 0.814687 60.7603L0.860936 60.6132H0.825427L0.755229 60.7213L0.608643 60.6107C0.543815 60.5592 0.518623 60.5384 0.493854 60.511L0.46949 60.4911C0.433153 60.4578 0.407969 60.4329 0.387318 60.4088L0.379471 60.4021L0.380299 60.4005L0.379885 60.3997L0.38112 60.3988L0.50582 60.1587L0.310922 60.3224L0.269628 60.2335L0.253113 60.2459C0.227515 60.2094 0.204801 60.1753 0.182095 60.1354C0.162687 60.1013 0.143279 60.0648 0.127178 60.0315L0.119745 59.9983L0.113554 60.0008C0.101994 59.9767 0.0883624 59.9451 0.0772167 59.911L0.0276698 59.7157C0.0243633 59.7299 0.0181731 59.6991 0.0123888 59.6609L0.00701893 59.5969C0.00289214 59.5828 0 59.5562 0 59.5288L0.00908233 56.0303L0.516145 56.0311L0.521515 56.1192C0.525642 56.1458 0.525642 56.1666 0.525642 56.1782L0.583865 56.3427L0.515325 56.4042V56.4832L0.64044 56.4508C0.644152 56.4549 0.657784 56.4782 0.673471 56.4981L0.713521 56.553C0.705259 56.5422 0.712692 56.5488 0.723432 56.5638L0.761005 56.6078L0.619374 56.828L0.812623 56.6618L0.67512 56.8821L0.859278 56.7059L1.05913 56.8638L1.01619 57.0491L1.06698 57.0175L1.13181 56.9128L1.18466 56.9452L1.1954 56.9386L68.389 95.9738L68.3052 96.12L68.5183 96.1923L68.5092 99.636L68.1289 99.8562ZM1.18879 60.3781L68.0029 99.1939L68.0108 96.3436L0.951776 57.3865L0.94063 57.3931L0.863828 57.3466C0.81056 57.3142 0.790332 57.3 0.764725 57.2776L0.572305 57.1305C0.565286 57.1272 0.542572 57.1064 0.521101 57.0865L0.513668 57.079L0.507063 59.4739L0.254356 59.5454L0.509126 59.5396L0.528534 59.6543L0.520272 59.6567L0.52275 59.6659L0.530597 59.6634L0.523164 59.6675L0.53968 59.7315H0.392265L0.299362 59.7772L0.55042 59.7307L0.582216 59.8096L0.583865 59.8088L0.621852 59.8803C0.63589 59.9044 0.650342 59.9268 0.666037 59.9484L0.679661 59.9684L0.674291 59.9742L0.698654 60.0506L0.731686 60.0323L0.865468 60.1636L0.730857 60.383L0.922448 60.2085L0.786188 60.4262L0.973653 60.2509L0.855557 60.4803L1.03311 60.2941L1.09629 60.3348C1.12272 60.3531 1.14914 60.3689 1.17722 60.3855L1.18879 60.3781ZM0.894381 60.5077L0.836572 60.5958L0.873739 60.5725L0.894381 60.5077ZM0.56198 60.0972L0.50582 60.1587L0.615653 60.0972H0.56198Z" fill="#1A1A1A"/>
<path d="M70.3256 100.362L69.7492 100.343C69.6472 100.334 69.5823 100.326 69.5175 100.315L69.2541 100.272L69.1905 100.258L68.9886 100.212L68.8977 100.185L68.4947 100.042C68.4204 100.013 68.3663 99.9875 68.3122 99.9609L68.2544 99.9335C68.2044 99.9085 68.1532 99.8819 68.1062 99.8495L68.1458 99.7914L67.9922 99.6385L68.0017 96.2006L68.2552 95.9463L68.3807 95.9763L68.5178 96.0494C68.6033 96.0893 68.6384 96.1067 68.6756 96.1217C68.7437 96.1508 68.7817 96.1666 68.8213 96.1799L68.9832 96.2339L68.9799 96.4998L69.048 96.2538L69.0773 96.5281L69.1847 96.2896L69.1744 96.5497L69.1161 96.7981L69.1005 96.5314L69.0455 96.7807L68.8956 96.7408L68.9407 96.4882L68.8341 96.7225C68.7879 96.7084 68.742 96.6934 68.6958 96.6768C68.6132 96.6485 68.5595 96.6269 68.5079 96.6037L68.4996 99.4855C68.5855 99.5271 68.6252 99.5462 68.6673 99.5628L69.2342 99.7448L69.3052 99.7606L69.4039 99.7814L69.5575 99.8071C69.6467 99.8188 69.6975 99.8254 69.7483 99.8296L69.814 99.8371L70.0952 99.8504L70.1633 99.852L70.4899 99.8454C70.5411 99.8412 70.5704 99.8396 70.6002 99.8354L70.7984 99.8171C70.8512 99.8088 70.895 99.8013 70.9396 99.793L71.0114 99.7847C71.0114 99.7814 71.0494 99.7739 71.0882 99.7648L71.1518 99.7523C71.1692 99.7482 71.2014 99.7415 71.2327 99.7307L71.4417 99.6709L71.7299 99.5628L71.7877 99.5786L71.7745 99.5529L71.8191 99.5321L71.8901 99.6069L71.8984 96.6111C71.8819 96.6178 71.8711 96.6219 71.8596 96.6253C71.7572 96.6676 71.6969 96.6884 71.6341 96.7084C71.5391 96.7391 71.4772 96.7557 71.4177 96.7724L70.5531 96.9136L70.1773 96.9228C70.077 96.9228 70.0254 96.9219 69.9738 96.9161C69.8891 96.9161 69.8206 96.9103 69.7524 96.902L69.686 96.6377L69.6608 96.8912C69.6178 96.887 69.5745 96.8829 69.5311 96.8762L69.2132 96.8206L69.1744 96.5497L69.2755 96.3112L69.4027 96.3386L69.4527 96.6053L69.4911 96.3527L69.7884 96.3918C69.8668 96.4017 69.9188 96.4059 69.9713 96.4076C70.0654 96.4125 70.0964 96.4126 70.1286 96.4126L70.6307 96.3934C70.6373 96.3918 70.6699 96.3885 70.6984 96.3885L71.2625 96.2837C71.3368 96.2655 71.3905 96.2505 71.4425 96.2339C71.535 96.2048 71.5854 96.1873 71.6341 96.1682L71.7943 96.0993L71.8992 96.248L71.9174 96.2056L71.8818 96.0602L72.0049 95.9962L72.4062 96.2073L72.2659 99.872L72.1676 99.9268L72.0247 99.9991L72.009 99.9933L71.7984 100.081L71.8009 100.087L71.3864 100.218C71.3401 100.232 71.293 100.243 71.2443 100.254C71.1485 100.274 71.099 100.285 71.0494 100.292L70.9858 100.299C70.9792 100.305 70.9255 100.314 70.8694 100.322L70.7984 100.327L70.7183 100.34C70.7125 100.342 70.6815 100.344 70.6613 100.344C70.6225 100.348 70.5783 100.351 70.5337 100.353L70.4499 100.358C70.4086 100.36 70.3673 100.362 70.3256 100.362Z" fill="#1A1A1A"/>
<path d="M51.5849 43.0185L70.6122 32.3818L96.8274 47.2732L70.759 62.1647L44.8197 47.2732L51.5849 43.0185Z" fill="#1A1A1A"/>
<path d="M96.0749 47.3466L70.3305 32.3868L70.2038 32.1649L70.208 30.9068L70.7141 31.2887L70.7117 32.0186L96.5867 47.0543L96.0749 47.3466Z" fill="#1A1A1A"/>
<path d="M109.497 39.6811L109.433 39.5699L70.6345 17.025L70.2542 17.2452L70.2199 27.3797L70.7261 27.6854L70.7596 17.6873L109.049 39.9366L109.497 39.6811Z" fill="#1A1A1A"/>
<path d="M45.1044 47.2895L70.5844 32.3859L70.7108 32.1661L70.7139 31.2455L70.2071 31.0188L70.2037 32.0182L44.6032 46.9921L45.1044 47.2895Z" fill="#1A1A1A"/>
<path d="M32.4544 39.7827L70.252 17.6902L70.2187 27.5763L70.7253 27.8595L70.7612 17.2464L70.3796 17.025L31.9528 39.485L32.4544 39.7827Z" fill="#1A1A1A"/>
<path d="M70.5824 77.4741L31.7839 54.9325L31.6571 54.7107L31.6823 39.7901L32.0626 39.5699L70.8868 62.1157L71.0131 62.3375L70.9627 77.2539L70.5824 77.4741ZM32.1646 54.5644L70.4569 76.8118L70.5052 62.4838L32.189 40.2322L32.1646 54.5644Z" fill="#1A1A1A"/>
<path d="M70.8364 77.4741L70.4557 77.2523L70.506 62.3359L70.632 62.1157L109.179 39.5699L109.56 39.7918L109.509 54.7123L109.383 54.9325L70.8364 77.4741ZM71.0131 62.4838L70.9644 76.8085L109.002 54.5644L109.051 40.2355L71.0131 62.4838Z" fill="#1A1A1A"/>
<path d="M68.714 35.7156C67.1032 34.7882 65.6191 34.6237 64.527 35.2494L64.4717 35.2819L64.2132 34.8431C64.2334 34.8306 64.2536 34.819 64.2739 34.8065L65.8574 33.875C67.1697 33.1296 68.8548 33.2845 70.6088 34.3063L70.6097 34.7475L68.9679 35.714L68.714 35.7156ZM66.0292 34.3653C66.893 34.3711 67.846 34.6511 68.8374 35.1996L69.9651 34.5356C68.517 33.7989 67.1614 33.7196 66.1101 34.3171L66.0292 34.3653Z" fill="#1A1A1A"/>
<path d="M73.413 50.7875L73.1578 50.3463L73.1586 50.3454L73.1594 50.3446L73.1817 50.3321C74.2594 49.6906 74.8763 48.2962 74.8763 46.4996C74.8763 42.5424 72.1007 37.716 68.6888 35.7398L68.6871 35.2986L70.3289 34.333L70.5841 34.3321C74.1356 36.4038 77.0252 41.4288 77.0252 45.5331C77.0252 47.5599 76.3257 49.0832 75.0547 49.8211L73.4411 50.7709L73.413 50.7875ZM69.3102 35.523C72.6912 37.7035 75.3834 42.5233 75.3834 46.4996C75.3834 47.6455 75.1472 48.6485 74.7079 49.433L74.8004 49.379C75.9078 48.7358 76.5181 47.3696 76.5181 45.5331C76.5181 41.6399 73.8102 36.8841 70.4561 34.849L69.3102 35.523Z" fill="#1A1A1A"/>
<path d="M74.928 49.6003L73.2861 50.5663C74.4228 49.9053 75.1301 48.482 75.1301 46.4994C75.1301 42.458 72.3263 37.5524 68.8151 35.519L70.4571 34.5532C73.9428 36.5866 76.7719 41.5175 76.7719 45.5335C76.7719 47.5415 76.0647 48.9394 74.928 49.6003Z" fill="#1A1A1A"/>
<path d="M32.0742 40.0195L31.7806 39.6056L44.2548 28.7296L68.6104 15.2872L69.8577 15.165V15.3275L70.7133 17.4326L70.5221 17.5439L32.0742 40.0195ZM44.5224 29.1642L34.1454 38.2179L70.0762 17.214L69.439 15.6461H69.0704L68.8838 15.7189L44.5224 29.1642Z" fill="#1A1A1A"/>
<path d="M74.7426 33.8003L74.617 33.7276L61.317 26.0779L64.655 24.1217L78.0839 31.8699L74.7426 33.8003ZM62.3319 26.0737L74.7426 33.212L77.0648 31.8699L64.6566 24.7117L62.3319 26.0737Z" fill="#1A1A1A"/>
<path d="M109.178 40.0195L70.4045 17.5007L69.8819 15.1385L94.7914 28.9843L109.453 39.5915L109.178 40.0195ZM70.8083 17.1459L105.039 37.0262L94.5197 29.4143L70.21 15.675L70.8083 17.1459Z" fill="#1A1A1A"/>
<path d="M53.1784 60.0648L38.3509 51.4515L38.2242 51.2304V50.618L38.6045 50.397L53.4571 59.016L53.5839 59.2479L53.5587 59.8545L53.1784 60.0648ZM38.7312 51.0834L53.069 59.4116L53.0706 59.3809L38.7312 51.0601V51.0834Z" fill="#1A1A1A"/>
<path d="M53.4331 60.0639L53.1784 60.0648L53.0768 59.2255L53.2019 59.016L56.4384 57.2585L56.5899 57.4571V58.0646L56.4644 58.2848L53.4331 60.0639ZM53.5781 59.3858V59.3883L56.0828 57.9033L53.5781 59.3858Z" fill="#1A1A1A"/>
<path d="M53.178 59.4565L38.2242 50.618L38.3253 50.3454L41.3314 48.5937H41.5857L56.4384 57.2585V57.7006L53.4323 59.4565L53.178 59.4565ZM38.9583 50.5665L53.3051 58.9404L55.8058 57.4795L41.4585 49.1097L38.9583 50.5665Z" fill="#1A1A1A"/>
<path d="M45.4234 73.743L30.5707 65.1264L30.444 64.9053V64.2929L30.5451 64.022L45.6769 72.6909L45.8037 72.912V73.5219L45.4234 73.743ZM30.951 64.7582L45.2966 73.0798V73.0591L30.951 64.735V64.7582Z" fill="#1A1A1A"/>
<path d="M45.6765 73.7413L45.4234 73.743L45.2966 72.9103L45.4234 72.6892L48.6834 70.9608L48.8349 71.1536V71.7668L48.7077 71.9879L45.6765 73.7413ZM45.8037 73.0582V73.079L48.3278 71.5948L45.8037 73.0582Z" fill="#1A1A1A"/>
<path d="M45.6513 73.1538H45.3974L30.5447 64.4641L30.5451 64.022L33.5512 62.2686H33.8055L48.6834 70.9608L48.6825 71.4029L45.6513 73.1538ZM31.1777 64.243L45.5258 72.6377L48.0487 71.1802L33.6784 62.7846L31.1777 64.243Z" fill="#1A1A1A"/>
<path d="M48 69.1916L33.1725 60.5725L33.0458 60.3515V59.7432L33.4261 59.5221L48.2535 68.1362L48.3803 68.3573V68.9706L48 69.1916ZM33.5528 60.2044L47.8732 68.5285V68.5044L33.5528 60.1853V60.2044Z" fill="#1A1A1A"/>
<path d="M48.2543 69.1908L48 69.1916L47.8728 68.3573L47.9987 68.1371L51.26 66.3853L51.4111 66.5789V67.1914L51.2856 67.4116L48.2543 69.1908ZM48.3799 68.5035V68.526L50.904 67.0235L48.3799 68.5035Z" fill="#1A1A1A"/>
<path d="M48.2279 68.5783H47.9744L33.0458 59.7432L33.1222 59.4714L36.1534 57.7155H36.4073L51.26 66.3853L51.2591 66.8274L48.2279 68.5783ZM33.756 59.6933L48.1024 68.0623L50.6253 66.6055L36.2797 58.2316L33.756 59.6933Z" fill="#1A1A1A"/>
<path d="M50.6014 64.6394L35.7739 55.9979L35.6476 55.7768V55.1685L36.0279 54.9475L50.8553 63.5616L50.9821 63.7826V64.4184L50.6014 64.6394ZM36.1546 55.6297L50.475 63.9754V63.9297L36.1546 55.6106V55.6297Z" fill="#1A1A1A"/>
<path d="M50.8561 64.6377L50.6014 64.6394L50.4746 63.7818L50.6018 63.5608L53.8622 61.834L54.0129 62.0309V62.6384L53.8873 62.8586L50.8561 64.6377ZM50.9817 63.9297V63.9729L53.5058 62.4722L50.9817 63.9297Z" fill="#1A1A1A"/>
<path d="M50.8301 64.0319H50.5758L35.6476 55.1685L35.724 54.8968L38.7552 53.1401H39.0095L53.8622 61.834L53.8613 62.276L50.8301 64.0319ZM36.3574 55.1187L50.7042 63.5159L53.2279 62.0542L38.8811 53.6561L36.3574 55.1187Z" fill="#1A1A1A"/>
<path d="M64.8577 24.4167H64.3507V27.6792H64.8577V24.4167Z" fill="#1A1A1A"/>
<path d="M68.8399 35.4938L70.4817 34.5279C68.7388 33.5112 67.1475 33.4349 65.9855 34.0958L64.5192 34.9584C63.2784 35.5777 62.4995 37.0305 62.4995 39.1283C62.4995 43.1442 65.3033 48.0753 68.7892 50.1087C70.9838 51.389 72.9281 51.2083 74.0674 49.8965L74.8253 49.4505C74.7227 49.5101 74.6168 49.5635 74.5078 49.6107L74.8254 49.4239C74.7959 49.4387 74.7654 49.4546 74.7342 49.4708C74.605 49.5378 74.4625 49.6117 74.3202 49.6526L74.2146 49.7147L74.216 49.7129L74.3202 49.6516C74.2939 49.6622 74.2665 49.6728 74.2382 49.6831C74.8037 48.9169 75.1293 47.8302 75.1293 46.474C75.1546 42.4581 72.3257 37.5273 68.8399 35.4938Z" fill="white"/>
<path d="M70.858 62.427C70.8142 62.427 70.7713 62.4162 70.7316 62.3929L31.8204 39.9286C31.7489 39.8879 31.7019 39.8148 31.694 39.7317C31.6862 39.6494 31.7188 39.5688 31.7807 39.5148L44.2018 28.8986C44.284 28.8275 44.4021 28.8171 44.4941 28.8703L70.0514 43.32C70.127 43.3632 70.1749 43.443 70.1786 43.5311L71.1115 62.1619C71.1148 62.2541 71.0686 62.3422 70.9893 62.3904C70.9488 62.4145 70.9034 62.427 70.858 62.427ZM32.3836 39.6652L70.5863 61.7206L69.6773 43.6923L44.3975 29.4034L32.3836 39.6652Z" fill="#1A1A1A"/>
<path d="M70.8625 62.4245C70.8204 62.4245 70.7783 62.4145 70.7403 62.3929C70.6623 62.3497 70.6127 62.2691 70.609 62.1794L69.6773 43.6923C69.6736 43.5984 69.7215 43.5095 69.8024 43.4621L94.4361 28.9649C94.5228 28.9142 94.6301 28.9188 94.7136 28.9778L109.454 39.4883C109.523 39.539 109.563 39.6213 109.559 39.7077C109.554 39.7941 109.507 39.8731 109.432 39.9163L70.9893 62.3904C70.9505 62.4129 70.9067 62.4245 70.8625 62.4245ZM70.1906 43.8253L71.0879 61.69L108.838 39.672L94.5509 29.4897L70.1906 43.8253Z" fill="#1A1A1A"/>
<path d="M68.7142 35.7154C67.1034 34.788 65.6194 34.6235 64.5272 35.2492L64.4719 35.2816L64.2134 34.8429C64.2337 34.8304 64.2539 34.8188 64.2741 34.8063L65.8577 33.8748C67.1699 33.1293 68.855 33.2843 70.6091 34.306L70.6099 34.7473L68.9682 35.7137L68.7142 35.7154ZM66.0294 34.365C66.8932 34.3709 67.8463 34.6509 68.8377 35.1994L69.9654 34.5354C68.5173 33.7987 67.1616 33.7194 66.1104 34.3168L66.0294 34.365Z" fill="#1A1A1A"/>
<path d="M73.4132 50.7873L73.158 50.346L73.1588 50.3452L73.1597 50.3444L73.182 50.3319C74.2597 49.6904 74.8766 48.296 74.8766 46.4994C74.8766 42.5422 72.101 37.7157 68.689 35.7396L68.6874 35.2984L70.3291 34.3327L70.5843 34.3319C74.1358 36.4036 77.0254 41.4286 77.0254 45.5329C77.0254 47.5597 76.3259 49.0829 75.055 49.8208L73.4413 50.7707L73.4132 50.7873ZM69.3105 35.5227C72.6914 37.7033 75.3836 42.523 75.3836 46.4994C75.3836 47.6453 75.1474 48.6483 74.7081 49.4328L74.8006 49.3788C75.908 48.7356 76.5183 47.3694 76.5183 45.5329C76.5183 41.6397 73.8104 36.8839 70.4563 34.8488L69.3105 35.5227Z" fill="#1A1A1A"/>
<path d="M71.617 51.2384C70.7036 51.2384 69.6978 50.9334 68.6622 50.3293C65.1243 48.2651 62.2463 43.2401 62.2463 39.1275C62.2463 37.094 62.9495 35.5667 64.2266 34.8262C65.5116 34.0783 67.1959 34.2387 68.9669 35.2716C72.5312 37.3508 75.4093 42.3767 75.3828 46.4751C75.3828 48.5069 74.6792 50.0343 73.4025 50.7747C72.8681 51.0847 72.2661 51.2384 71.617 51.2384ZM66.0133 34.8744C65.4518 34.8744 64.9348 35.0049 64.4802 35.2683C63.3665 35.914 62.7533 37.2843 62.7533 39.1275C62.7533 43.078 65.5182 47.9053 68.9165 49.8872C70.5228 50.8246 72.0275 50.9841 73.1489 50.3326C74.2622 49.6869 74.8758 48.3166 74.8758 46.4735C74.9005 42.537 72.1356 37.7106 68.7126 35.7137C67.7567 35.1561 66.8375 34.8744 66.0133 34.8744Z" fill="#1A1A1A"/>
<path d="M70.8383 49.8613C70.0884 49.8613 69.2617 49.6104 68.4095 49.1126C65.5261 47.429 63.1807 43.3389 63.1807 39.9958C63.1807 38.3188 63.7571 37.0615 64.8039 36.4549C65.8543 35.8449 67.2343 35.9771 68.6878 36.8247C71.5716 38.4833 73.9178 42.5743 73.9178 45.9432C73.9178 47.6201 73.3414 48.8774 72.295 49.4841C71.8598 49.7359 71.3685 49.8613 70.8383 49.8613ZM66.2623 36.5878C65.8197 36.5878 65.4134 36.6909 65.057 36.897C64.1742 37.4089 63.6878 38.5091 63.6878 39.9958C63.6878 43.1768 65.92 47.0684 68.6638 48.6705C69.9555 49.4242 71.1537 49.5564 72.0423 49.0412C72.9243 48.5301 73.4107 47.4299 73.4107 45.9432C73.4107 42.7372 71.1793 38.8457 68.4359 37.2684L68.4347 37.2676C67.6621 36.8164 66.9222 36.5878 66.2623 36.5878Z" fill="#1A1A1A"/>
</g>
<defs>
<clipPath id="clip0_1661_40380">
<rect width="140" height="115" fill="white"/>
</clipPath>
</defs>
</svg>
