<svg width="1em" height="1em" viewBox="0 0 60 60" fill="none" xmlns="http://www.w3.org/2000/svg">
<path d="M42.9823 54.0682C39.8598 55.7392 36.3552 56.8195 32.6041 57.1477C17.7491 58.4474 4.65325 47.4586 3.35361 32.6037C2.73579 25.5419 4.89496 18.8778 8.92633 13.6894M51.5754 46.8116C55.6068 41.6232 57.7659 34.959 57.1481 27.8973C55.8485 13.0423 42.7526 2.05357 27.8977 3.35321C25.2507 3.58479 22.7264 4.19092 20.3726 5.11482" stroke="#5E5FF5" stroke-linecap="round"/>
<circle cx="51.7617" cy="45.7969" r="3" fill="#5E5FF5"/>
<circle cx="10.0635" cy="12.0703" r="3" fill="#5E5FF5"/>
<circle cx="30.5254" cy="30.5" r="16.5" fill="#5E5FF5" stroke="#5E5FF5" stroke-width="3"/>
<path fill-rule="evenodd" clip-rule="evenodd" d="M22.5234 35.5C24.3251 35.5 25.9042 34.5471 26.7842 33.1177C27.4091 32.4339 28.5286 31.5025 30.5237 31.5025C32.5177 31.5025 33.637 32.4331 34.2621 33.1168C35.142 34.5467 36.7214 35.5 38.5234 35.5C41.2849 35.5 43.5234 33.2614 43.5234 30.5C43.5234 27.7386 41.2849 25.5 38.5234 25.5C36.7271 25.5 35.152 26.4473 34.2704 27.8696C33.647 28.5563 32.5267 29.497 30.5237 29.497C28.5194 29.497 27.3988 28.5552 26.7756 27.8683C25.8939 26.4467 24.3193 25.5 22.5234 25.5C19.762 25.5 17.5234 27.7386 17.5234 30.5C17.5234 33.2614 19.762 35.5 22.5234 35.5Z" fill="white"/>
</svg>
