<svg width="1em" height="1em" viewBox="0 0 60 60" fill="none" xmlns="http://www.w3.org/2000/svg">
<path d="M54.8367 19.3929C56.2292 22.6491 57 26.2345 57 30C57 44.9117 44.9117 57 30 57C15.0883 57 3 44.9117 3 30C3 15.0883 15.0883 3 30 3C37.0887 3 43.5393 5.73177 48.3566 10.2" stroke="#5E5FF5" stroke-linecap="round"/>
<circle cx="48" cy="10" r="3" fill="#5E5FF5"/>
<circle cx="30" cy="30" r="18" fill="#5E5FF5"/>
<path fill-rule="evenodd" clip-rule="evenodd" d="M20.9999 23.4004H17.3999L26.3999 40.2004L29.3999 34.6004L27.5999 31.2404L27.2999 31.8004L26.3999 33.4804L25.4999 31.8004L20.9999 23.4004ZM28.1999 30.1204L29.0999 31.8004L29.9999 33.4804L31.3499 36.0004L33.5999 40.2004L42.5999 23.4004H38.9999L34.4999 31.8004L33.5999 33.4804L32.6999 31.8004L31.7999 30.1204L29.9999 26.7604L28.1999 23.4004H24.5999L28.1999 30.1204ZM35.3999 23.4004L32.3999 29.0004L30.5999 25.6404L31.7999 23.4004H35.3999Z" fill="white"/>
</svg>
